<svg viewBox="0 0 211 166" fill="none" xmlns="http://www.w3.org/2000/svg">
    <path d="M124.47 166c28.09 0 50.85-22.66 50.85-50.62 0-27.96-22.76-50.62-50.85-50.62S73.6 87.42 73.6 115.38c0 27.96 22.77 50.62 50.86 50.62Z" fill="#6BF2F9"/>
    <path d="M72.24 117.78c3.43-6.48 4.94-12.4 3.39-13.21-1.56-.81-5.6 3.78-9.02 10.26s-4.94 12.4-3.39 13.21c1.56.82 5.6-3.78 9.02-10.26Z" fill="#46D6FA"/>
    <path d="M72.37 134.13c6.11 3.16 11.58 4.76 12.2 3.56.61-1.2-3.85-4.73-9.97-7.9-6.12-3.16-11.58-4.76-12.2-3.56-.61 1.2 3.85 4.73 9.97 7.9ZM192.44 127.36c1.33-1.16-1.98-7.07-7.38-13.22s-10.84-10.2-12.17-9.05c-1.32 1.15 1.98 7.07 7.38 13.22s10.85 10.2 12.17 9.05Z" fill="#46D6FA"/>
    <path opacity=".28" d="M173.4 125.32c0 2.75-1.69 10.45-4.17 14.62-2.1 3.54-3.55 6.22-8.28 11.1a44.16 44.16 0 0 1-11.92 8.75c-4.4 2.24-12.86 5.6-15.55 5.22-6.64-.93 21.15-9.64 23.2-13.41 2.05-3.77 4.46-3.71 7.75-8.69 3.65-5.51 6.62-15.76 7.2-19.6.54-3.63 1.73-3.48 1.76 2.01Z" fill="#00A7D5"/>
    <path d="M137.46 131.24c-10.93 14.64-25.44 0-25.44 0 5.76-.48 9.26 3.28 25.44 0Z" fill="#6969A3"/>
    <path d="M181.82 14.63a4.96 4.96 0 1 0 .76-9.88 4.96 4.96 0 1 0-.76 9.88Z" fill="#6BF2F9"/>
    <path d="M183 11.4a1.97 1.97 0 0 0-.35 2.76l4.88 6.25a1.98 1.98 0 0 0 3.5-.95 1.96 1.96 0 0 0-.4-1.45l-4.86-6.26a1.99 1.99 0 0 0-2.77-.35Z" fill="#C3D7E2"/>
    <path d="M189.58 35.68a9.51 9.51 0 1 0 4.95-18.36 9.54 9.54 0 0 0-11.7 6.71 9.51 9.51 0 0 0 6.75 11.65Z" fill="#46D6FA"/>
    <path d="M192.53 29.63a3.6 3.6 0 0 0-3.36 2.1c-.2.43-.3.9-.31 1.36l-.36 14.34a3.57 3.57 0 0 0 3.49 3.66 3.58 3.58 0 0 0 3.66-3.47l.37-14.35a3.56 3.56 0 0 0-3.5-3.64Z" fill="#C3D7E2"/>
    <path d="M191.29 78.6c8.95 0 16.2-7.22 16.2-16.13s-7.25-16.14-16.2-16.14a16.17 16.17 0 0 0-16.22 16.14c0 8.91 7.26 16.13 16.22 16.13Z" fill="#00A6D5"/>
    <path d="m178.2 65.62-17.57 11.57c-2.42 1.59-2.98 4.98-1.25 7.57 1.72 2.6 5.08 3.41 7.5 1.83l17.56-11.57c2.41-1.59 2.97-4.98 1.25-7.58-1.73-2.6-5.08-3.4-7.5-1.82Z" fill="#C3D7E2"/>
    <path d="M201.94 59.72c.53-2.74-1.73-5.48-5.04-6.12-3.32-.64-6.44 1.06-6.97 3.8-.54 2.74 1.72 5.48 5.03 6.12 3.32.64 6.44-1.06 6.98-3.8Z" fill="#61D8E5"/>
    <path d="M29.46 20.6a4.82 4.82 0 1 0 .98 9.61 4.82 4.82 0 1 0-.98-9.6Z" fill="#6BF2F9"/>
    <path d="M41.45 31.62a1.97 1.97 0 0 1-2.65.83l-7.03-3.68a1.97 1.97 0 0 1-.34-3.25 1.97 1.97 0 0 1 2.18-.23l7.02 3.68a1.97 1.97 0 0 1 .82 2.65Z" fill="#C3D7E2"/>
    <path d="M54.09 38.24a9.09 9.09 0 1 0-17.72-4.1 9.09 9.09 0 1 0 17.72 4.1Z" fill="#46D6FA"/>
    <path d="M58.27 54.47a3.42 3.42 0 0 1-4.74-.88l-7.75-11.32a3.4 3.4 0 1 1 5.62-3.86l7.76 11.32a3.41 3.41 0 0 1-.89 4.74Z" fill="#C3D7E2"/>
    <path d="M64.68 76.88A16.16 16.16 0 0 0 77.45 57.9a16.19 16.19 0 0 0-19.04-12.7 16.16 16.16 0 0 0-12.77 18.97 16.19 16.19 0 0 0 19.04 12.7Z" fill="#00A6D5"/>
    <path d="M67.8 66.39h-.01c-1.57 2.69-.81 6.04 1.69 7.49L87.7 84.4c2.5 1.45 5.8.44 7.37-2.25 1.57-2.7.81-6.05-1.69-7.5L75.16 64.13c-2.5-1.44-5.8-.43-7.37 2.26Z" fill="#C3D7E2"/>
    <path d="M58.86 61.73c3.13-1.27 4.82-4.4 3.76-6.98-1.06-2.59-4.45-3.65-7.58-2.39-3.13 1.27-4.81 4.4-3.75 6.98 1.05 2.59 4.44 3.66 7.57 2.39Z" fill="#6BF2F9"/>
    <path d="M182.67 133.87c6.35-2.74 11.06-5.97 10.52-7.21-.54-1.24-6.13-.01-12.48 2.74-6.35 2.75-11.06 5.97-10.52 7.21.54 1.24 6.13.01 12.48-2.74Z" fill="#46D6FA"/>
    <path d="M172.97 149.65c1.21-.17 1.79-3.25 1.28-6.88-.5-3.63-1.9-6.44-3.12-6.27-1.22.17-1.8 3.25-1.29 6.88s1.9 6.44 3.13 6.27Z" fill="#46D6FA"/>
    <path d="M170.79 145.66c.96-4.92.82-9.08-.31-9.3-1.13-.21-2.82 3.6-3.78 8.5-.96 4.92-.82 9.08.3 9.3 1.13.21 2.83-3.6 3.79-8.5Z" fill="#46D6FA"/>
    <path d="M177.48 140.19c.47-.76-.53-2.22-2.23-3.27-1.7-1.04-3.47-1.28-3.94-.52-.47.76.53 2.22 2.24 3.27 1.7 1.05 3.46 1.28 3.93.52ZM84.43 145.22c1.41 3.7 3.52 6.35 4.7 5.9 1.19-.45 1-3.82-.4-7.53-1.42-3.71-3.52-6.35-4.7-5.9-1.2.44-1.01 3.82.4 7.53Z" fill="#46D6FA"/>
    <path d="M89.41 146.2c3.53 4.03 7.13 6.66 8.03 5.87.9-.8-1.22-4.7-4.76-8.73-3.53-4.04-7.13-6.66-8.03-5.87-.9.79 1.23 4.7 4.76 8.73Z" fill="#46D6FA"/>
    <path d="M80.28 144.3c.82.46 2.32-.67 3.34-2.53 1.02-1.85 1.19-3.72.36-4.18-.82-.45-2.32.68-3.34 2.53-1.02 1.86-1.19 3.73-.36 4.19ZM124.83 112.92c13.33 0 24.14-6.5 24.14-14.52s-10.8-14.53-24.14-14.53-24.14 6.5-24.14 14.53c0 8.02 10.8 14.52 24.14 14.52Z" fill="#46D6FA"/>
    <path d="M148.84 106.59c0 6.75-10.78 12.23-24.08 12.23-13.3 0-24.08-5.48-24.08-12.23 0-3.56 3-6.76 7.77-9 4.29-2 10.02-3.23 16.33-3.23h.63c12.99.17 23.43 5.58 23.43 12.23Z" fill="#fff"/>
    <ellipse cx="126.08" cy="103.97" rx="9.63" ry="9.61" fill="#6969A3"/>
    <path d="M124.44 105.92c2 0 2.51-1.6 2.51-3.6 0-1.98-.52-3.6-2.51-3.6-2 0-2.74 1.62-2.74 3.6 0 2 .74 3.6 2.74 3.6Z" fill="#fff"/>
    <path d="M150.59 103.33c0 2.45-1.1 4.74-3.05 6.75.58-.77.92-1.82.96-2.92 0-4.28-5.89-7.96-14.28-9.55a47.46 47.46 0 0 0-9.27-.83 52.56 52.56 0 0 0-8.83.73c-8.63 1.54-14.74 5.27-14.74 9.63 0 .49.08.97.23 1.42a8.98 8.98 0 0 1-1.8-5.25c0-6.31 7.37-11.66 17.54-13.5a44.79 44.79 0 0 1 15.62 0c10.22 1.84 17.62 7.2 17.62 13.52Z" fill="#00A6D5"/>
</svg>
