<svg xmlns="http://www.w3.org/2000/svg" fill="none" viewBox="0 0 60 60">
  <path fill="#28AA50" fill-rule="evenodd" d="M28.4 0a3.1 3.1 0 0 0-3 3.1v9.2c-1.2.5-2.3 1-3.3 1.6l-7.5-7.6a3.1 3.1 0 0 0-4.4 0L7.5 8.8a3.1 3.1 0 0 0 0 4.4l7.2 7.4c-.8 1.2-1.5 2.6-2.1 4H3a3.1 3.1 0 0 0-3.1 3v3.9c0 1.7 1.4 3 3.1 3h8c.1 2 .5 3.9 1.1 5.6l-4.6 4.6a3.1 3.1 0 0 0 0 4.4l2.7 2.7a3.1 3.1 0 0 0 4.4 0l3-3a22 22 0 0 0 7.6 4.6V57c0 1.7 1.4 3.1 3.1 3.1h3.8c1.7 0 3.1-1.4 3.1-3.1v-2.1c3.6-.4 6.8-1.6 9.6-3.5l.3.3a3.1 3.1 0 0 0 4.4 0l2.7-2.6a3.1 3.1 0 0 0 0-4.4L52 44c1.6-2.8 2.7-6 3-9.4h2c1.7 0 3.1-1.4 3.1-3.1v-3.8c0-1.7-1.4-3.1-3.1-3.1h-3.6a22 22 0 0 0-4.5-7l3.9-4a3.1 3.1 0 0 0 0-4.3L50 6.7a3.1 3.1 0 0 0-4.4 0L40 12.2c-1.5-.5-3.1-1-4.8-1V3c0-1.7-1.4-3.1-3-3.1h-3.9ZM33 44a11 11 0 1 0 0-22 11 11 0 0 0 0 22Z" clip-rule="evenodd" opacity=".8"/>
</svg>
