<svg xmlns="http://www.w3.org/2000/svg" viewBox="0 0 59.7 72.1">
  <g fill="#28AA50" opacity=".8" style="mix-blend-mode:multiply">
    <path d="M7.2 24.8V19c0 7.2 10.3 13 23 13s23-5.9 23-13.2V18c-.7 7.1-10.7 12.7-23 12.7C18 30.7 8 25 7.2 18 8 10.4 18 4.4 30.2 4.4 43 4.4 53.3 10.9 53.3 19v5.8c0 8.1-10.3 14.7-23 14.7-12.8 0-23.1-6.6-23.1-14.7ZM53.2 33.6c-.4 2.8-2 5.3-4.6 7.4a4 4 0 0 1 1.4 3v4.5a11 11 0 0 0 3.3-7.6v-5.8a9.1 9.1 0 0 0 0-1.5Z"/>
    <path d="M30.2 46.8c2.9 0 5.6-.4 8.1-1v6h-5.2a4 4 0 0 0-3.9 3.7c-12.2-.3-22-6.7-22-14.6v-5.8a9.4 9.4 0 0 1 0-1.5c1.2 7.4 11 13.2 23 13.2Z"/>
    <path d="M33.1 63.6h5.2v5.6c-2.5.6-5.2 1-8 1-12.8 0-23.1-6.6-23.1-14.7v-7.3c1.2 7.3 10.7 13 22.4 13.2.7 1.3 2 2.2 3.5 2.2ZM53.3 51.7H52c.6-1 1-2.2 1.2-3.5l.1 1.5v2Z"/>
    <path d="M40.3 67.5c0 1.5 1.1 2.7 2.6 2.7h2.6c1.4 0 2.6-1.2 2.6-2.7v-5.9h6.5c1.4 0 2.6-1.2 2.6-2.6v-2.7c0-1.4-1.2-2.6-2.6-2.6H48v-7.2c0-1.5-1.2-2.7-2.6-2.7h-2.6a2.6 2.6 0 0 0-2.6 2.7v7.2h-6.5a2.6 2.6 0 0 0-2.6 2.6V59c0 1.4 1.1 2.6 2.6 2.6h6.5v6Z"/>
  </g>
</svg>
