<svg xmlns="http://www.w3.org/2000/svg" fill="none" viewBox="0 0 60 69">
  <path fill="#ABC7D6" d="M30 32.2a92 92 0 0 1 30-6.5L56.7 62A93.4 93.4 0 0 0 30 68.7V32.2Z"/>
  <path fill="#D2DCE3" d="M30 32.2a92 92 0 0 0-30-6.5L3.3 62A93.4 93.4 0 0 1 30 68.7V32.2Z"/>
  <g fill="#28AA50" fill-opacity=".8" opacity=".8">
    <path d="M44.2 14a14 14 0 0 1-17.4 13.5A14 14 0 0 1 23 2a14 14 0 0 1 21.1 12ZM60 44c0 2.8.5 5-2.6 5-3.2 0-5.7-2.2-5.7-5 0-2.7 2.5-5 5.7-5 3.1 0 2.6 2.3 2.6 5ZM0 44c0 2.8-.5 5 2.6 5 3.2 0 5.7-2.2 5.7-5 0-2.7-2.5-5-5.7-5C-.5 39 0 41.4 0 44Z"/>
  </g>
</svg>
