<svg width="60" height="47" viewBox="0 0 60 47" fill="none" xmlns="http://www.w3.org/2000/svg">
<g opacity="0.8">
<path d="M39.5005 27.4023C50.822 27.4023 60 21.2681 60 13.7012C60 6.1342 50.822 0 39.5005 0C28.179 0 19.001 6.1342 19.001 13.7012C19.001 16.9589 20.702 19.9511 23.543 22.3026L19.281 29.4993L29.4866 25.6592C32.448 26.7694 35.8637 27.4023 39.5005 27.4023Z" fill="#28AA50"/>
<path d="M17.5006 27.0106C17.5009 28.5622 16.9841 30.0695 16.0318 31.2941C15.0796 32.5186 13.7464 33.3905 12.2432 33.7716C11.1014 34.075 9.90022 34.075 8.75843 33.7716C7.25523 33.3905 5.92201 32.5186 4.96977 31.2941C4.01754 30.0695 3.50068 28.5622 3.501 27.0106C3.4981 25.8566 3.78461 24.7204 4.33431 23.7059C4.92943 22.5865 5.8177 21.6503 6.90398 20.9973C7.99025 20.3444 9.23359 19.9995 10.5008 19.9995C11.768 19.9995 13.0114 20.3444 14.0976 20.9973C15.1839 21.6503 16.0722 22.5865 16.6673 23.7059C17.2176 24.7202 17.5042 25.8566 17.5006 27.0106Z" fill="#28AA50"/>
<path d="M20.9995 43.8317V46.9989H0V43.8317C0.044791 41.8826 0.694661 39.9931 1.86301 38.4151C3.03135 36.8371 4.66268 35.6455 6.53958 34.9992C7.24256 35.332 7.98748 35.572 8.75484 35.7129C9.90748 35.9309 11.092 35.9309 12.2446 35.7129C13.012 35.572 13.7569 35.332 14.4599 34.9992C15.7422 35.4621 16.918 36.1697 17.9194 37.0809C18.8797 37.9374 19.6491 38.9792 20.1791 40.1409C20.7092 41.3027 20.9885 42.5592 20.9995 43.8317Z" fill="#28AA50"/>
</g>
</svg>
