<svg width="290" height="123" viewBox="0 0 290 121" fill="none" xmlns="http://www.w3.org/2000/svg">
  <path fill-rule="evenodd" clip-rule="evenodd" d="M86.6 121.6h115A63 63 0 00144 33a63 63 0 00-57.5 88.6z" fill="#6BF2F9"/>
  <path opacity="0.28" fill-rule="evenodd" clip-rule="evenodd" d="M202 121.6c1.8-4.8 3-10.2 3-12.6.1-6.9-1.3-7-2.1-2.6a84 84 0 01-4.7 15.2h3.9z" fill="#00A7D5"/>
  <path d="M289.3 56.7a6.1 6.1 0 00-12.3 1c.3 3.4 3.3 6 6.6 5.7 3.4-.3 6-3.3 5.7-6.7z" fill="#6BF2F9"/>
  <path d="M282 56.4a2.4 2.4 0 01-3.4.2l-7.4-6.4a2.5 2.5 0 011.4-4.3 2.4 2.4 0 011.7.6l7.5 6.4a2.4 2.4 0 01.3 3.5z" fill="#C3D7E2"/>
  <path d="M263.6 54a11.8 11.8 0 100-23.7 11.8 11.8 0 000 23.6z" fill="#46D6FA"/>
  <path d="M261 41.8A4.4 4.4 0 01255 44L239 36.8a4.4 4.4 0 01-2.3-5.8 4.4 4.4 0 014.2-2.7c.5 0 1.1.2 1.6.4l16.3 7.2a4.4 4.4 0 012.3 5.9z" fill="#C3D7E2"/>
  <path d="M225 50.8a20 20 0 100-40.1 20 20 0 000 40z" fill="#00A6D5"/>
  <path d="M206.7 33.2l-23.5 15.5a7 7 0 00-2 9.7 7 7 0 009.7 2L214.4 45a7 7 0 002-9.7 7 7 0 00-9.7-2z" fill="#C3D7E2"/>
  <path d="M235.4 26c.7-3.4-2.1-6.8-6.2-7.6-4.1-.8-8 1.3-8.7 4.7-.6 3.4 2.1 6.9 6.3 7.7 4 .8 8-1.3 8.6-4.8z" fill="#61D8E5"/>
  <path d="M6 33a6 6 0 006-6 6 6 0 00-6-6 6 6 0 00-6 6 6 6 0 006 6z" fill="#6BF2F9"/>
  <path d="M21.6 17.1a2.4 2.4 0 00-3.4-.7L10.1 22a2.5 2.5 0 00-.7 3.4 2.4 2.4 0 003.4.7l8.1-5.5a2.4 2.4 0 00.7-3.4z" fill="#C3D7E2"/>
  <path d="M19.3 24.7A11.3 11.3 0 1033.2 7a11.3 11.3 0 00-14 17.7z" fill="#46D6FA"/>
  <path d="M53.5 17a4.2 4.2 0 00-3.8-4.6l-16.9-1.8A4.2 4.2 0 0032 19l17 1.8a4.2 4.2 0 004.6-3.8z" fill="#C3D7E2"/>
  <path d="M66.6 41.8a20 20 0 100-40.2 20 20 0 000 40.2z" fill="#00A6D5"/>
  <path d="M75.3 27.4a7 7 0 002 9.7l23.3 15.5a7 7 0 009.7-2 7 7 0 00-2-9.7L85 25.4a7 7 0 00-9.7 2z" fill="#C3D7E2"/>
  <path d="M63.3 19.7c4.1-.8 7-4.2 6.2-7.6C69 8.7 65 6.6 61 7.4c-4.1.8-6.9 4.2-6.2 7.6.6 3.4 4.5 5.6 8.6 4.7z" fill="#6BF2F9"/>
  <path d="M235.4 87.5c.6-2-6.8-6-16.6-8.6-9.8-2.7-18.2-3.2-18.8-1-.5 2 7 5.9 16.7 8.6 9.8 2.7 18.2 3.1 18.7 1z" fill="#46D6FA"/>
  <path d="M225 98c6.8-5 11.4-10.3 10.4-11.6-1-1.3-7.2 1.8-14 6.9-6.6 5.1-11.3 10.4-10.3 11.7 1 1.3 7.3-1.8 14-7z" fill="#46D6FA"/>
  <path d="M207.4 114.3c1.2.4 3.1-1.8 4.2-5 1-3 .8-6-.4-6.3-1.2-.5-3.1 1.7-4.2 4.9-1 3.1-.9 6 .4 6.4z" fill="#46D6FA"/>
  <path d="M206 116c2-.7 3.3-2.1 2.9-3.1-.4-1-2.3-1.2-4.3-.4-2 .7-3.3 2.1-3 3.1.4 1 2.3 1.2 4.3.4zM213.8 114.7c1.5-.3 2-3.3 1.3-6.5-.7-3.3-2.5-5.7-4-5.3-1.4.3-2 3.2-1.2 6.5.7 3.2 2.5 5.6 4 5.3z" fill="#46D6FA"/>
  <path d="M212.7 117.9c2.2-2.6 3.1-5.3 2.2-6-1-.9-3.4.6-5.6 3.1-2.1 2.6-3.1 5.3-2.2 6 1 .9 3.4-.6 5.6-3.1zM207.4 105.8c2.8-.9 4.8-2.4 4.5-3.6-.3-1.1-2.9-1.4-5.7-.6-2.8.8-4.9 2.4-4.6 3.6.4 1.1 3 1.4 5.8.5zM71 88c9.4-3.7 16.5-8.3 15.7-10.3-.8-2-9.1-.7-18.6 2.9-9.4 3.7-16.5 8.3-15.7 10.3.8 2 9.1.7 18.6-3z" fill="#46D6FA"/>
  <path d="M77 109.3c1-1.3-3.6-6.6-10.3-11.8-6.6-5.3-12.8-8.4-13.9-7.2-1 1.3 3.6 6.6 10.2 11.8 6.7 5.3 12.9 8.5 14 7.2z" fill="#46D6FA"/>
  <path d="M80.5 109c-2.3-2.4-5-3.6-5.9-2.7-.9 1 .2 3.6 2.6 6 2.3 2.3 5 3.5 5.9 2.6 1-1-.2-3.6-2.6-6z" fill="#46D6FA"/>
  <path d="M88.8 113.5c-.1-1-2-1.7-4-1.5-2.2.2-3.8 1.2-3.7 2.2.1 1 2 1.7 4 1.5 2.2-.2 3.8-1.2 3.7-2.2zM78.7 111.5c-.8-3.3-2.6-5.6-4-5.3-1.5.4-2 3.3-1.3 6.5.8 3.3 2.6 5.7 4 5.3 1.5-.3 2-3.2 1.3-6.5z" fill="#46D6FA"/>
  <path d="M86.3 120.8c.5-1.1-1.6-3.1-4.6-4.5-3-1.3-6-1.5-6.5-.4-.4 1.2 1.6 3.2 4.7 4.5 3 1.3 6 1.5 6.4.4zM84.2 104.1c-.2-1.2-2.7-1.7-5.6-1.2-3 .6-5.1 2-4.9 3 .2 1.3 2.7 1.8 5.6 1.3 3-.6 5.1-2 5-3zM140 88.6c15.8 0 28.5-8.7 28.5-19.5S155.8 49.6 140 49.6c-15.7 0-28.5 8.7-28.5 19.5s12.8 19.5 28.5 19.5z" fill="#46D6FA"/>
  <path d="M167.5 77c0 9.8-12.3 17.6-27.5 17.6-15.1 0-27.5-7.8-27.5-17.5 0-5 3.5-9.7 9-12.9a37.3 37.3 0 0118.5-4.6h.8c14.8.2 26.7 8 26.7 17.5z" fill="#fff"/>
  <path d="M136.5 85.6a13 13 0 100-26 13 13 0 000 26z" fill="#6969A3"/>
  <path d="M133.5 75.6a6 6 0 100-12 6 6 0 000 12z" fill="#fff"/>
  <path d="M170.5 71.5c0 2.8-2.8 5-2.9 3.8-.4-4.8-6.5-8.4-16.4-10.2a57.9 57.9 0 00-16.2-.8l-5.2.7c-10.2 1.7-16.8 5.4-17.3 11.6 0 0-2-1.3-2-5 0-7.2 8.7-13.2 20.8-15.2 6.1-1 12.3-1 18.4 0 12.1 2 20.8 8 20.8 15.1z" fill="#00A6D5"/>
  <path d="M120.8 100c5.4 10.2 20.4 13.4 27.8 3.2-9.3 5.7-19.8 3.8-27.8-3.2z" fill="#6969A3"/>
</svg>
