<svg viewBox="0 0 277 269" width="277" height="269" fill="none" xmlns="http://www.w3.org/2000/svg">
  <path opacity=".4" d="M138.8 264.8a130 130 0 1 0 0-260 130 130 0 0 0 0 260z" fill="#ABC7D6" stroke="#014371" stroke-width="3"/>
  <path opacity=".4" fill-rule="evenodd" clip-rule="evenodd" d="M194.4 239.7c18-19.5 30.8-48.3 35-81.3 25.2-6.5 41-15.8 41-26 0-10.3-16-19.6-41.7-26.2-4.8-30.7-17-57.4-34-75.9 2.2-1.8 3.4-3.8 3.4-6 0-7-13.9-13.1-34-16a66.7 66.7 0 0 0-27-5 10 10 0 0 0-2.2.1 67 67 0 0 0-20.8 4.7c-21 2.8-35.5 9-35.5 16.3 0 2.2 1.4 4.4 4 6.4A146.3 146.3 0 0 0 49 106.2c-25.6 6.6-41.7 15.9-41.7 26.2 0 10.2 15.8 19.5 41 26a148 148 0 0 0 34.3 80.5c-3 2.2-4.7 4.6-4.7 7 0 7.8 16.7 14.5 40 17a66.4 66.4 0 0 0 17 3.3 10 10 0 0 0 2.2 0 65.6 65.6 0 0 0 23.5-3.6c22-2.7 37.6-9.1 37.6-16.7 0-2.2-1.4-4.3-3.8-6.2zm8.7-12.5c12.8-18.3 21.8-42 25.3-68.5-16 4-35.5 7-57.2 8.5-1.6 24-5.1 45.5-9.9 62.2a76.9 76.9 0 0 1 32.3 9.6 112 112 0 0 0 9.5-11.8zM83.3 31.4a112.7 112.7 0 0 0-8.7 11c-12 17.1-20.7 39-24.6 63.5 14.7-3.6 32.4-6.4 52-8 1.8-22.2 5-42 9.5-57.6a71.3 71.3 0 0 1-28.2-9zm28.5 8c-5.8-1-11-2-15.4-3.4A44.8 44.8 0 0 1 84 30.6c9-9.7 19.2-17 30.3-21.5 4-.5 8.3-1 12.7-1.2-5.8 5.8-11 16.7-15.2 31.4zm.7 1-.4 1.7a311.6 311.6 0 0 0-9 55.8 468 468 0 0 1 66.7-.4 310.8 310.8 0 0 0-9.3-56.6 188.7 188.7 0 0 1-48-.4zm47.8-.4a187.8 187.8 0 0 1-47.5-.5c3-10.7 6.6-19.3 10.5-25.3 1.7-2.7 3.5-4.8 5.2-6.4a201.1 201.1 0 0 1 15.7-.1 31 31 0 0 1 5.4 6.5c4 6.1 7.5 14.9 10.7 25.8zm1.2.8c4.3 15.5 7.6 35 9.4 56.8 21.5 1.5 40.9 4.4 56.7 8.3a152.7 152.7 0 0 0-24.5-63.5 112.4 112.4 0 0 0-9.1-11.5c-6 4.5-17.7 8-32.5 10zm31.8-10.6-.5.3c-2.9 2-7.1 4-12.5 5.5-5.4 1.6-11.9 3-19 3.8-4.3-15-9.7-26.3-15.6-32 6.4.1 12.5.7 18.2 1.5a84.3 84.3 0 0 1 29.4 20.9zm.8-.6c2-1.8 3-3.5 3-5.2 0-2-1.3-4-4.3-6.1-2.9-2-7.1-4-12.5-5.5-3.7-1.2-8-2.1-12.6-3a87.1 87.1 0 0 1 26.4 19.8zM159.8 7.8c-6.1-2-12.4-3.3-18.8-3.5a16 16 0 0 1 3.6 2.4c5.3.1 10.4.5 15.2 1zm-17-1.2c-1.8-1.4-3.8-2.1-5.7-2.3l-2 .1c-1.8.3-3.5 1-5.3 2.4a200.6 200.6 0 0 1 13-.2zm-14.7.2a17 17 0 0 1 3-2 65.8 65.8 0 0 0-12.7 2.8l9.7-.8zm-17.6 2.8A87 87 0 0 0 83.2 30c-2.5-1.9-3.6-3.8-3.6-5.6 0-2 1.3-4 4.2-6.1 3-2 7.2-4 12.6-5.5 4.1-1.3 8.9-2.3 14.1-3.2zm121 98.4-2.6-.7a186.7 186.7 0 0 1 2 27.5c0 7.7-.5 15.2-1.4 22.5l2-.5c11.9-3.3 21.4-7 28-11.3 6.5-4.2 9.8-8.7 9.8-13.1s-3.3-8.9-9.8-13.1c-6.6-4.2-16.1-8-28-11.3zm-1.6 26.8c0-9.6-.7-18.8-2-27.8-16-4-35.4-7-57-8.4a468 468 0 0 1 .4 67.5 328 328 0 0 0 57.2-8.5 186.9 186.9 0 0 0 1.4-22.8zM101.9 99a322.1 322.1 0 0 0-52 8 185.7 185.7 0 0 0-2.1 27.8c0 7.8.5 15.4 1.4 22.8 14.7 3.7 32.5 6.6 52.4 8.2a472.8 472.8 0 0 1-1-31c0-12.4.5-24.5 1.3-35.8zm-55.8 9 2.7-.7a186.8 186.8 0 0 0-2 27.5c0 7.7.5 15.2 1.3 22.5a193.2 193.2 0 0 1-2-.5c-11.8-3.3-21.3-7-27.9-11.3-6.6-4.2-9.9-8.7-9.9-13.1s3.3-8.9 10-13.1c6.5-4.2 16-8 27.8-11.3zm28.5 119.2a154.5 154.5 0 0 1-25.3-68.5 322 322 0 0 0 52.4 8.1 315 315 0 0 0 10 63 76.5 76.5 0 0 0-28.2 8.6 112.5 112.5 0 0 1-9-11.2zm37.5.3a320 320 0 0 1-9.4-60.6 467.5 467.5 0 0 0 67.5.3 319.3 319.3 0 0 1-9.9 62 189.9 189.9 0 0 0-47.6.5l-.6-2.2zm-10.5-92.7c0 10.7.3 21.1 1 31a466.4 466.4 0 0 0 67.7.4 471 471 0 0 0 1-31.4c0-12.6-.5-24.8-1.4-36.3a471.4 471.4 0 0 0-31-1c-12.5 0-24.6.5-36 1.4-.8 11.4-1.3 23.4-1.3 35.9zm91.3 105c-3-2-7.2-4-12.6-5.6-5.5-1.6-12-3-19.2-3.8-4.5 15.6-10.2 27-16.4 32.4a182.2 182.2 0 0 0 15.7-1.2c11.9-4.1 22.9-11.7 32.5-21.8zM164.7 261a85.3 85.3 0 0 0 29-20.6c2.4 1.9 3.5 3.8 3.5 5.5 0 2-1.4 4.1-4.3 6.2-3 2-7.2 4-12.6 5.6-4.5 1.3-9.8 2.5-15.6 3.3zm-9.3 2.1c-3.9.4-7.9.6-12 .7a14.8 14.8 0 0 1-2.4 1.4 64.8 64.8 0 0 0 14.4-2zm-12.4-.3c2.3-1.6 4.4-4.1 6.6-7.4a98 98 0 0 0 10.5-25.1 189.1 189.1 0 0 0-47.2.4c3 10.3 6.6 18.8 10.4 24.7 2.1 3.2 4.2 5.7 6.4 7.3a200.8 200.8 0 0 0 13.3.1zm-11.7 1a202.5 202.5 0 0 0 10.2 0c-1.5.9-3 1.3-4.4 1.4a64 64 0 0 1-2 0c-1.3-.2-2.6-.7-3.8-1.4zm-3.3-1.2c-6-5.4-11.6-16.5-16-31.8-6 .9-11.5 2-16.2 3.4a48 48 0 0 0-11.6 5 82.4 82.4 0 0 0 34 22.7c3.1.3 6.4.6 9.8.7zm-5 .7 6.3.4 1.8 1.1a65.2 65.2 0 0 1-8-1.5zm-9.2-2a85.3 85.3 0 0 1-30.5-21.6 9.6 9.6 0 0 0-.1 0c-3 2.2-4.3 4.3-4.3 6.2 0 2 1.3 4.1 4.3 6.2 2.9 2 7.2 4 12.6 5.6 5.1 1.5 11.2 2.8 18 3.7z" fill="#014371"/>
  <path opacity=".2" d="M7.4 81.3H6.2L6.1 76 6 74 5.6 75l-1.3 3.4h-.8l-1.2-3.3L2 74v2.2l-.1 5.2H.7l.4-8.6h1.4L3.6 76l.4 1 .3-1 1.2-3.3H7l.4 8.6zm6.7 0H9.2v-8.6h1.2v7.6H14v1zm7.5-6c0 .4 0 .8-.2 1.1-.1.4-.3.7-.6 1a3.1 3.1 0 0 1-1 .6l-1.5.3h-1.1v3H16v-8.6h2.4c.5 0 .9 0 1.2.2.4 0 .8.2 1 .4.4.2.6.5.8.9l.2 1.2zm-1.2.1c0-.5-.2-1-.5-1.2-.4-.3-.9-.5-1.5-.5h-1.2v3.6h1c.8 0 1.3-.2 1.7-.5.3-.3.5-.8.5-1.4zm8.5-1.2a4.7 4.7 0 0 0-1-.4 4 4 0 0 0-1-.1c-.5 0-1 0-1.3.2a2.5 2.5 0 0 0-.9.7l-.5 1a4.8 4.8 0 0 0-.2 1.5l.1 1.4.5 1c.2.3.5.5.9.7a3 3 0 0 0 1.5.2 9.6 9.6 0 0 0 .5 0 2 2 0 0 0 .3-.2v-2.7H26v-1h3V81a5 5 0 0 1-.6.3 6 6 0 0 1-1.8.3 4.3 4.3 0 0 1-1.6-.3 3.2 3.2 0 0 1-1.2-.8c-.3-.4-.6-.8-.8-1.4l-.2-1.9c0-.7 0-1.3.3-1.9a4 4 0 0 1 .8-1.4c.3-.4.8-.7 1.3-.9a4.3 4.3 0 0 1 1.6-.3 5.4 5.4 0 0 1 2 .4v1.2zm7.2 7.1h-5v-8.6h1.3v7.6H36v1zm8.2 0H43l-.6-1.8H39l-.6 1.8H37l2.8-8.6h1.6l2.8 8.6zM42 78.4l-1.5-4.6-1.4 4.6h2.9zm8.6 3h-4.9v-8.7H47v7.6h3.7v1zm7.4 0h-5v-8.7h1.2v7.6h3.8v1zm7.3 0h-4.9v-8.7h1.2v7.6h3.7v1zm7.3 0h-4.9v-8.7H69v7.6h3.7v1zm15.5 0H87l-.6-2h-3.6l-.6 2H81l2.9-8.7h1.5l2.8 8.6zm-2.2-3-1.4-4.6-1.4 4.6H86zm9.6 3h-1.3l-.6-2h-3.5l-.6 2h-1.2l2.8-8.7h1.6l2.8 8.6zm-2.2-3-1.5-4.6-1.4 4.6h2.9zm9.3-5.7-.6 8.6h-1.5l-1-3-.4-1-.3 1-1 3h-1.4l-.6-8.6H97l.3 5.9.1 1.6.5-1.4 1-3.2h.8l1.2 3.5.4 1.1V79l.3-6.3h1zm7 1h-2.5v7.6H106v-7.6h-2.5v-1h6.2v1zm7.8 7.6h-1.2l-.6-1.8h-3.5l-.6 1.8h-1.2l2.8-8.6h1.6l2.7 8.6zm-2.1-2.9-1.5-4.6-1.4 4.6h2.9zm9 3h-1.3l-1.2-2.8a3 3 0 0 0-.3-.5 1.3 1.3 0 0 0-.3-.4 1 1 0 0 0-.4-.1 1.8 1.8 0 0 0-.5 0h-.5v3.7h-1.2v-8.6h2.3c.5 0 1 0 1.3.2l.8.5c.3.2.4.4.5.7.2.3.2.6.2.9l-.1.8a2.1 2.1 0 0 1-.4.6 2.2 2.2 0 0 1-.5.5c-.3.2-.5.3-.8.3l.6.5.5.8 1.4 2.8zm-1.8-6.3c0-.5-.1-.8-.4-1-.3-.3-.7-.4-1.2-.4h-1.1v2.9h1l.7-.1c.2 0 .4-.2.5-.3a1.3 1.3 0 0 0 .4-.5l.1-.6zm9.6 6.2H131l-.5-1.8h-3.6l-.6 1.8H125l2.8-8.6h1.6l2.8 8.6zm-2.2-2.9-1.4-4.6-1.5 4.6h3zm8.7 3h-5v-8.7h1.3v7.6h3.7v1zm7 0H141v-8.7h4.8v1h-3.6v2.7h3.5v1h-3.5v3h3.6v1zm8.5-8.7-2.9 8.6h-1.5l-2.8-8.6h1.3l1.8 5.8.5 1.7.6-1.7 1.8-5.8h1.2zM7 91.1l-.2 1-.6 1a3.1 3.1 0 0 1-1 .6c-.5.2-1 .3-1.6.3h-1v3H1.3v-8.5h2.4l1.2.1 1 .5.7.8c.2.3.3.7.3 1.2zm-1.2 0c0-.5-.2-1-.6-1.2-.3-.3-.8-.5-1.5-.5H2.5V93h1.1c.7 0 1.2-.2 1.6-.5.4-.3.6-.7.6-1.3zm8.7-1.6h-2.6V97h-1.1v-7.6H8.2v-1h6.3v1zm7.4 3.2a7 7 0 0 1-.4 2.2 3.6 3.6 0 0 1-.6 1l-.8.6a4.2 4.2 0 0 1-1.1.4l-1.5.2h-1.8v-8.6H18c1.3 0 2.3.3 3 1 .6.7 1 1.8 1 3.2zm-1.3 0a6 6 0 0 0-.1-1.5l-.5-1a2 2 0 0 0-.9-.6 3.8 3.8 0 0 0-1.2-.1h-1V96h.8c2 0 3-1.1 3-3.3zM29 90a4.6 4.6 0 0 0-1-.3 4 4 0 0 0-1-.2c-.5 0-1 0-1.3.3a2.5 2.5 0 0 0-.9.6l-.5 1.1a4.8 4.8 0 0 0-.2 1.4l.1 1.4.5 1c.2.4.5.6.9.7a3 3 0 0 0 1.5.3 7.2 7.2 0 0 0 .5-.1l.3-.1v-2.8H26v-1h3v4.5a5 5 0 0 1-.6.2 6 6 0 0 1-1.8.3 4.3 4.3 0 0 1-1.6-.3 3.2 3.2 0 0 1-1.2-.8l-.8-1.3-.2-2c0-.6 0-1.3.3-1.8a4 4 0 0 1 .8-1.4c.3-.4.8-.7 1.3-1a4.3 4.3 0 0 1 1.6-.2 5.4 5.4 0 0 1 2 .4v1.1zm7.3 7.2h-1.5l-2.5-5.4-.7-1.7v7h-1v-8.5h1.4l2.4 5 .8 2v-7h1.1V97zm8 0H43l-.6-1.9H39l-.6 1.9H37l2.8-8.6h1.6l2.8 8.6zm-2.1-3-1.5-4.5-1.4 4.6h2.9zm8.8-4.2a4.6 4.6 0 0 0-1-.3 4 4 0 0 0-1-.2c-.5 0-1 0-1.3.3a2.5 2.5 0 0 0-.9.6l-.5 1.1a4.8 4.8 0 0 0-.2 1.4l.1 1.4.5 1c.2.4.5.6.9.7a3 3 0 0 0 1.5.3 7.2 7.2 0 0 0 .5-.1l.3-.1v-2.8H48v-1h3v4.5a5 5 0 0 1-.7.2 6 6 0 0 1-1.8.3 4.3 4.3 0 0 1-1.5-.3 3.2 3.2 0 0 1-1.2-.8c-.4-.4-.6-.8-.8-1.3-.2-.6-.2-1.2-.2-2 0-.6 0-1.3.2-1.8a4 4 0 0 1 .9-1.4c.3-.4.8-.7 1.2-1a4.3 4.3 0 0 1 1.7-.2 5.4 5.4 0 0 1 2 .4v1.1zm7.2 7.2h-5v-8.6h1.2V96h3.8v1zm7.3 0h-4.9v-8.6h1.2V96h3.7v1zm8.2 0h-1.3l-.6-1.9h-3.5l-.6 1.9h-1.2l2.8-8.6h1.6l2.8 8.6zm-2.2-3L70 89.7l-1.5 4.6h2.9zm15.7 3h-4.8v-8.6H87v1h-3.7V92H87v1h-3.6v3h3.7v1zm7.8-6c0 .4 0 .7-.2 1-.1.4-.3.7-.6 1a3.1 3.1 0 0 1-1 .6c-.5.2-1 .3-1.6.3h-1v3h-1.2v-8.5h2.4l1.2.1 1 .5.8.8.2 1.2zm-1.2 0c0-.5-.2-1-.5-1.2-.4-.3-.9-.5-1.5-.5h-1.2V93h1c.8 0 1.3-.2 1.6-.5.4-.3.6-.7.6-1.3zm5 6a2.8 2.8 0 0 1-1.2-.4 2.8 2.8 0 0 1-.8-.9 4.3 4.3 0 0 1-.5-1.3A7.8 7.8 0 0 1 96 93c0-.8 0-1.5.3-2 .1-.6.4-1 .7-1.5a2.8 2.8 0 0 1 1-.8c.5-.2.9-.2 1.4-.2.5 0 1 0 1.4.3.4.2.7.4 1 .8.3.4.5.8.6 1.4a7.4 7.4 0 0 1 0 3.6 4.4 4.4 0 0 1-.6 1.4 3 3 0 0 1-2 1.3c0 .3.2.7.4.9.2.2.6.3 1 .3h.6l.6-.4.6.8a2.8 2.8 0 0 1-1 .5 3 3 0 0 1-.9.2 3 3 0 0 1-1-.2 2.1 2.1 0 0 1-.7-.4 2 2 0 0 1-.5-.7 2.9 2.9 0 0 1-.2-1zm2.7-4.3-.1-1.4a3.3 3.3 0 0 0-.4-1 1.9 1.9 0 0 0-.6-.8l-1-.2c-.4 0-.7 0-1 .3a2 2 0 0 0-.6.7l-.4 1-.1 1.3.1 1.4.4 1.1.6.7c.3.2.6.3 1 .3s.7-.1 1-.3l.6-.7.4-1 .1-1.4zm4.6-3.3h-2v-1h5.2v1h-2V96h2v1H104v-1h2v-6.6zm11.5 7.6h-1.2l-.6-1.9h-3.5l-.6 1.9h-1.2l2.8-8.6h1.6l2.7 8.6zm-2.1-3-1.5-4.5-1.4 4.6h2.9zm9.2 3h-1.1l-.2-5.4v-2l-.4 1.1-1.3 3.5h-.8l-1.2-3.3-.4-1.3v2.1l-.2 5.3h-1l.4-8.6h1.3l1.2 3.2.3 1.1.4-1 1.2-3.3h1.4l.4 8.6zm6.5-7.6h-3.6v2.8h3.4v1h-3.4V97h-1.2v-8.6h4.8v1zm7.6 7.3a5.5 5.5 0 0 1-2 .4c-1.3 0-2.2-.4-2.9-1.1-.6-.7-1-1.8-1-3.2 0-.7.2-1.3.3-1.9.2-.6.5-1 .8-1.4a3.3 3.3 0 0 1 1.2-1 3.8 3.8 0 0 1 1.6-.2 5.4 5.4 0 0 1 2 .4v1.1a4.2 4.2 0 0 0-1-.4 4 4 0 0 0-1 0l-1 .1c-.4.2-.7.4-.9.7a3 3 0 0 0-.5 1 5 5 0 0 0-.2 1.5c0 1 .2 2 .7 2.5.4.6 1 .8 2 .8a4.3 4.3 0 0 0 2-.4v1zm7.5-6.9a4.7 4.7 0 0 0-1-.3 4 4 0 0 0-1.1-.2c-.5 0-.9 0-1.2.3a2.5 2.5 0 0 0-1 .6l-.5 1.1a4.8 4.8 0 0 0-.2 1.4c0 .5 0 1 .2 1.4l.5 1c.2.4.5.6.8.7a3 3 0 0 0 1.5.3 7 7 0 0 0 .6-.1l.2-.1v-2.8h-1.7v-1h2.9v4.5a5.4 5.4 0 0 1-1.2.4 6 6 0 0 1-1.2.1 4.3 4.3 0 0 1-1.6-.3 3.2 3.2 0 0 1-1.2-.8 3.8 3.8 0 0 1-.7-1.3c-.2-.6-.3-1.2-.3-2 0-.6.1-1.3.3-1.8a4 4 0 0 1 .8-1.4 3.5 3.5 0 0 1 1.3-1 4.3 4.3 0 0 1 1.7-.2 5.4 5.4 0 0 1 2 .4v1.1zm7.6 7.2h-1.3l-1.3-2.8a2.9 2.9 0 0 0-.3-.5l-.3-.3a1 1 0 0 0-.4-.2 1.8 1.8 0 0 0-.5 0h-.5V97H148v-8.6h2.3l1.3.1.9.5.5.7a2.5 2.5 0 0 1 0 1.7 2.1 2.1 0 0 1-.3.7 2.2 2.2 0 0 1-.6.5 2.6 2.6 0 0 1-.8.3c.2 0 .4.2.6.4l.5.8 1.4 2.9zm-1.9-6.3c0-.4-.1-.8-.4-1-.3-.2-.7-.3-1.2-.3h-1.1v2.8h1.7l.5-.4.4-.4.1-.7zm-145.1 22h-5v-8.6H3v7.6h3.8v1zm7.4 0h-1.5l-2.4-5.3-.8-1.8v7.1h-1v-8.6h1.4l2.4 5.1.9 2v-7h1v8.5zm7.8 0H21l-.2-5.3v-2.1l-.4 1.2L19 110h-.8l-1.2-3.3-.4-1.3v2.1l-.2 5.3h-1l.3-8.6h1.4l1.2 3.3.3 1 .4-1 1.2-3.3h1.4l.4 8.6zm7 0h-1.2v-4h-3.6v4h-1.1v-8.6h1.1v3.7h3.6v-3.7H29v8.6zm7.7 0h-1.2l-.1-5.3v-2.1l-.5 1.2-1.2 3.4h-.8l-1.2-3.3-.4-1.3v2.1l-.2 5.3H30l.4-8.6h1.4l1.1 3.3.4 1 .4-1 1.2-3.3h1.4l.4 8.6zm6.9 0H42l-2.4-5.3-.7-1.8v7.1h-1.1v-8.6h1.5l2.3 5.1.9 2v-7h1v8.5zm8-8.6-2.9 8.6h-1.5l-2.8-8.6h1.3l1.8 5.8.5 1.7.6-1.7 1.8-5.8h1.2zm3 8.7a2.8 2.8 0 0 1-1-.4 2.8 2.8 0 0 1-1-1 4.3 4.3 0 0 1-.4-1.2 7.9 7.9 0 0 1-.2-1.7c0-.8.1-1.4.3-2l.7-1.4a2.8 2.8 0 0 1 1-.8l1.4-.3c.5 0 1 0 1.4.3.4.2.8.5 1 .9.3.3.5.8.6 1.3a7.4 7.4 0 0 1 0 3.7c-.1.5-.3 1-.6 1.3a3 3 0 0 1-2 1.3c0 .4.2.7.4 1a1.8 1.8 0 0 0 1.6.3l.7-.5.5.8a2.8 2.8 0 0 1-.9.5 3 3 0 0 1-1 .2 3 3 0 0 1-.9-.2 2.1 2.1 0 0 1-.8-.4 2 2 0 0 1-.5-.7 2.9 2.9 0 0 1-.2-1zm2.8-4.3-.1-1.4a3.4 3.4 0 0 0-.4-1.1 1.9 1.9 0 0 0-.6-.7c-.3-.2-.6-.3-1-.3-.3 0-.7.1-1 .3a2 2 0 0 0-.6.7l-.3 1a6.3 6.3 0 0 0-.2 1.3l.1 1.5c.1.4.2.8.4 1 .2.4.4.6.7.8l1 .2c.3 0 .6 0 .9-.3l.6-.7.4-1 .1-1.3zm8.1 4.2H64l-2.4-5.3-.8-1.8v7.1h-1v-8.6h1.4l2.4 5.1.9 2v-7h1v8.5zm7.4-7.1a4.6 4.6 0 0 0-1-.4 4 4 0 0 0-1.1-.2c-.5 0-.9.1-1.2.3a2.5 2.5 0 0 0-.9.7 3.2 3.2 0 0 0-.6 1 4.8 4.8 0 0 0-.1 1.4l.1 1.4c.1.5.3.8.5 1.1l.8.7a3 3 0 0 0 1.6.2 7 7 0 0 0 .5-.1h.3V109H70v-1H73v4.4a5.2 5.2 0 0 1-.6.2 5.9 5.9 0 0 1-1.8.3 4.3 4.3 0 0 1-1.6-.2 3.2 3.2 0 0 1-1.1-.9c-.4-.3-.6-.8-.8-1.3-.2-.6-.3-1.2-.3-1.9s.1-1.3.3-1.9a4 4 0 0 1 .9-1.4 3.5 3.5 0 0 1 1.2-.9 4.3 4.3 0 0 1 1.7-.3 5.4 5.4 0 0 1 2 .4v1.2zm14.9 7.1h-1.5l-3.2-4.2v4.2H82v-8.6H83v4l3.2-4h1.3l-3.3 4.1 3.5 4.5zm7.5-8.6-.5 8.6h-1.5l-1-3-.4-1-.3 1-1 3h-1.4l-.6-8.6h1l.4 5.9.1 1.6.4-1.4 1-3.2h.9l1.1 3.4.4 1.2v-1.2l.4-6.3h1zm7.2 4.2-.1 1.2a4.5 4.5 0 0 1-.3 1 3.6 3.6 0 0 1-.6 1 3.1 3.1 0 0 1-.8.6 4.2 4.2 0 0 1-1 .5l-1.5.1h-1.9v-8.6h2.2c1.4 0 2.3.4 3 1 .7.7 1 1.8 1 3.2zm-1.2.1a6 6 0 0 0-.2-1.5c-.1-.5-.3-.8-.5-1a2 2 0 0 0-.9-.6l-1.2-.2h-1v6.6h.9c1.9 0 2.9-1.1 2.9-3.3zm8.1 2c0 .4 0 .8-.2 1a2.2 2.2 0 0 1-.7.8 3.2 3.2 0 0 1-1 .5 5.7 5.7 0 0 1-1.4.1 8.5 8.5 0 0 1-1.3 0 9.3 9.3 0 0 1-.6-.1 7.5 7.5 0 0 1-.5-.2v-1l1 .2a8.3 8.3 0 0 0 2.4 0l.7-.2a1 1 0 0 0 .3-.5 1.3 1.3 0 0 0 .1-.5 1 1 0 0 0-.2-.6 1.8 1.8 0 0 0-.5-.5 4.2 4.2 0 0 0-.7-.3l-.8-.4a13.7 13.7 0 0 1-.8-.3 3.6 3.6 0 0 1-.7-.5 2.3 2.3 0 0 1-.5-.7 1.9 1.9 0 0 1-.2-.8c0-.3 0-.6.2-1 0-.2.3-.4.5-.7a2.9 2.9 0 0 1 1-.5l1.5-.2a6.8 6.8 0 0 1 1 0 9.6 9.6 0 0 1 .9.2v1.1a7.3 7.3 0 0 0-1-.2 6.2 6.2 0 0 0-1 0c-.6 0-1.1 0-1.4.2a1 1 0 0 0-.5 1c0 .2 0 .4.2.5l.5.5.7.4a52 52 0 0 1 2.4 1.1l.5.7.1.9zm7.7-2v1.1a4.5 4.5 0 0 1-.4 1 3.6 3.6 0 0 1-.5 1 3.1 3.1 0 0 1-.8.6 4.2 4.2 0 0 1-1.1.5 6.3 6.3 0 0 1-1.5.1H111v-8.6h2.2c1.3 0 2.3.4 3 1 .6.7 1 1.8 1 3.2zm-1.2 0a6 6 0 0 0-.1-1.5c-.2-.5-.3-.8-.6-1a2 2 0 0 0-.8-.6l-1.2-.2h-1v6.6h.8c2 0 3-1.1 3-3.3zm8.3-1.7c0 .4 0 .7-.2 1-.1.4-.3.7-.6 1a3.1 3.1 0 0 1-1 .7l-1.5.2h-1.1v3.1h-1.2v-8.6h2.4c.5 0 .9 0 1.2.2.4 0 .8.2 1 .4.4.2.6.5.8.8l.2 1.2zm-1.2.1c0-.6-.2-1-.5-1.3-.4-.3-.9-.4-1.5-.4h-1.2v3.5h1c.8 0 1.3-.1 1.7-.4.3-.3.5-.8.5-1.4zm8.4 3.6c0 .4 0 .8-.2 1a2.2 2.2 0 0 1-.7.8 3.2 3.2 0 0 1-1 .5 5.7 5.7 0 0 1-1.4.1 8.5 8.5 0 0 1-.7 0h-.7a9.4 9.4 0 0 1-.5-.1 7.3 7.3 0 0 1-.5-.2v-1l1 .2a8.3 8.3 0 0 0 2.4 0l.6-.2.4-.5a1.3 1.3 0 0 0 .1-.5 1 1 0 0 0-.2-.6 1.8 1.8 0 0 0-.5-.5 4.1 4.1 0 0 0-.7-.3l-.8-.4a13.4 13.4 0 0 1-.8-.3 3.6 3.6 0 0 1-.7-.5 2.3 2.3 0 0 1-.5-.7 1.9 1.9 0 0 1-.2-.8c0-.3 0-.6.2-1 0-.2.3-.4.5-.7a3 3 0 0 1 1-.5l1.4-.2a6.7 6.7 0 0 1 1 0 9.5 9.5 0 0 1 1 .2v1.1a7.3 7.3 0 0 0-1-.2 6.2 6.2 0 0 0-1 0c-.6 0-1.1 0-1.4.2a1 1 0 0 0-.5 1c0 .2 0 .4.2.5l.5.5.7.4a52 52 0 0 1 2.3 1.1l.5.7c.2.2.2.5.2.9zm7.4-4.8a4.7 4.7 0 0 0-1-.4 4 4 0 0 0-1-.2c-.5 0-.9.1-1.3.3a2.5 2.5 0 0 0-.8.7c-.3.3-.5.6-.6 1a4.8 4.8 0 0 0-.2 1.4c0 .6 0 1 .2 1.4 0 .5.2.8.5 1.1l.8.7a3 3 0 0 0 1.5.2h.3a3.9 3.9 0 0 0 .3-.1h.2V109H136v-1h2.9v4.4a5.3 5.3 0 0 1-.6.2 5.8 5.8 0 0 1-1.8.3 4.3 4.3 0 0 1-1.6-.2 3.2 3.2 0 0 1-1.2-.9 3.8 3.8 0 0 1-.7-1.3c-.2-.6-.3-1.2-.3-1.9s.1-1.3.3-1.9a4 4 0 0 1 .8-1.4 3.5 3.5 0 0 1 1.3-.9 4.3 4.3 0 0 1 1.6-.3 5.4 5.4 0 0 1 2.1.4v1.2zm7.6-.5h-2.5v7.6h-1.2v-7.6h-2.5v-1h6.2v1zm7.3 7.6h-1.4l-3.2-4.2v4.2H148v-8.6h1.2v4l3.1-4h1.4l-3.4 4.1 3.5 4.5zM7.1 121H4.6v7.6H3.4v-7.7H1v-1h6.2v1zm7 7.2a5.5 5.5 0 0 1-2 .5c-1.3 0-2.2-.4-2.9-1.1-.6-.8-1-1.8-1-3.3l.3-1.8a4 4 0 0 1 .8-1.4c.3-.4.7-.7 1.2-1a3.8 3.8 0 0 1 1.6-.3 5.4 5.4 0 0 1 2 .5v1.1a4.1 4.1 0 0 0-2-.5c-.4 0-.7 0-1 .2a2.2 2.2 0 0 0-.9.7 3 3 0 0 0-.5 1 5 5 0 0 0-.2 1.4c0 1.2.2 2 .7 2.6.4.5 1 .8 2 .8a4.3 4.3 0 0 0 2-.5v1.1zm4-7.3h-2v-1h5.1v1h-2v6.7h2v1h-5v-1H18v-6.7zm11 3.3a7 7 0 0 1-.3 2.2 3.6 3.6 0 0 1-.5.9 3.1 3.1 0 0 1-.9.7 4.2 4.2 0 0 1-1 .4l-1.5.2H23v-8.7h2.1c1.4 0 2.4.4 3 1 .7.8 1 1.8 1 3.3zm-1.1 0a6 6 0 0 0-.2-1.5l-.5-1a2 2 0 0 0-.9-.6l-1.2-.2h-1v6.6h.9c2 0 2.9-1 2.9-3.3zm8.4-3.3H34v7.7h-1.2v-7.7h-2.5v-1h6.2v1zm7.4 7.7h-1.4l-3.2-4.3v4.3H38v-8.7h1.2v4l3-4h1.5l-3.4 4.1 3.5 4.6zm6.7 0h-4.9v-8.7h4.9v1h-3.7v2.7h3.5v1h-3.5v3h3.7v1zm7.7-7.2a4.7 4.7 0 0 0-1-.4 4 4 0 0 0-1-.1c-.5 0-1 0-1.3.2a2.5 2.5 0 0 0-.9.7 3.2 3.2 0 0 0-.5 1 4.8 4.8 0 0 0-.2 1.5c0 .5 0 1 .2 1.4 0 .4.2.8.4 1 .3.3.5.6.9.7a3 3 0 0 0 1.5.2h.3a3.9 3.9 0 0 0 .5-.1v-2.8h-1.7v-1h2.8v4.5a5 5 0 0 1-.5.2 5.9 5.9 0 0 1-1.8.3 4.3 4.3 0 0 1-1.6-.3 3.2 3.2 0 0 1-1.2-.8c-.3-.4-.6-.8-.8-1.4l-.2-1.9c0-.7 0-1.3.3-1.8a4 4 0 0 1 .8-1.5 3.5 3.5 0 0 1 1.3-.9 4.3 4.3 0 0 1 1.6-.3 5.4 5.4 0 0 1 2.1.5v1.1zm3.9-.5h-2v-1h5v1h-1.9v6.7h2v1H60v-1h2v-6.7zm10.6 7.7h-4.9v-8.7H69v7.7h3.7v1zm11.3 0a2.8 2.8 0 0 1-1.2-.4 2.8 2.8 0 0 1-.8-.9 4.3 4.3 0 0 1-.5-1.3 7.9 7.9 0 0 1-.2-1.6c0-.8.1-1.5.3-2 .2-.6.4-1.1.7-1.5a2.9 2.9 0 0 1 1.1-.8c.4-.2.8-.3 1.3-.3s1 .1 1.4.3c.4.2.8.5 1 .9.3.4.5.8.6 1.4.2.5.2 1 .2 1.8a7 7 0 0 1-.2 1.8c-.1.5-.3 1-.6 1.4a3 3 0 0 1-2 1.2c0 .4.2.7.4 1a1.8 1.8 0 0 0 1.6.3l.7-.4.5.8a2.8 2.8 0 0 1-.9.5 3 3 0 0 1-1 .1 3 3 0 0 1-.9-.1 2.1 2.1 0 0 1-.7-.4 2.1 2.1 0 0 1-.6-.8 2.9 2.9 0 0 1-.2-1zm2.7-4.3a7.6 7.6 0 0 0 0-1.4 3.4 3.4 0 0 0-.4-1 1.9 1.9 0 0 0-.7-.8l-1-.2c-.3 0-.6 0-1 .2a2 2 0 0 0-.6.8l-.3 1a6.3 6.3 0 0 0-.2 1.3c0 .5 0 1 .2 1.4 0 .4.2.8.3 1 .2.4.4.6.7.8.2.2.6.2 1 .2.3 0 .6 0 .9-.2.2-.2.5-.4.6-.7l.4-1.1.1-1.3zm9-4.4-3.1 5.6v3h-1.2v-3l-3.1-5.6h1.4l1.7 3.2.6 1.3.6-1.2 1.7-3.3h1.3zm6.4 8.3a5.5 5.5 0 0 1-2.1.5c-1.2 0-2.2-.4-2.8-1.1-.7-.8-1-1.8-1-3.3 0-.6.1-1.3.3-1.8a4 4 0 0 1 .8-1.4c.3-.4.7-.7 1.2-1a3.8 3.8 0 0 1 1.5-.3 5.4 5.4 0 0 1 2.1.5v1.1a4.1 4.1 0 0 0-2-.5c-.4 0-.8 0-1.1.2a2.2 2.2 0 0 0-.8.7 3 3 0 0 0-.6 1 5 5 0 0 0-.1 1.4c0 1.2.2 2 .6 2.6.5.5 1.1.8 2 .8a4.3 4.3 0 0 0 2-.5v1.1zm3.9.4a2.8 2.8 0 0 1-1.2-.4 2.8 2.8 0 0 1-.8-.9 4.3 4.3 0 0 1-.5-1.3 7.9 7.9 0 0 1-.2-1.6c0-.8.1-1.5.3-2 .2-.6.4-1.1.7-1.5a2.9 2.9 0 0 1 1-.8l1.4-.3c.5 0 1 .1 1.4.3.4.2.8.5 1 .9.3.4.5.8.6 1.4a7.4 7.4 0 0 1 .2 1.8 7 7 0 0 1-.2 1.8 4.4 4.4 0 0 1-.6 1.4 3 3 0 0 1-2 1.2c0 .4.2.7.4 1a1.8 1.8 0 0 0 2.2-.1l.6.8a2.8 2.8 0 0 1-.9.5 3 3 0 0 1-1 .1 3 3 0 0 1-.9-.1 2.1 2.1 0 0 1-.8-.4 2 2 0 0 1-.5-.8 2.8 2.8 0 0 1-.2-1zm2.7-4.3a7.6 7.6 0 0 0 0-1.4 3.3 3.3 0 0 0-.5-1 1.9 1.9 0 0 0-.6-.8l-1-.2c-.3 0-.7 0-1 .2a2 2 0 0 0-.6.8 3.6 3.6 0 0 0-.3 1l-.2 1.3.1 1.4c.1.4.2.8.4 1 .2.4.4.6.7.8.2.2.5.2 1 .2.3 0 .6 0 .9-.2a2 2 0 0 0 .6-.7l.4-1.1.1-1.3zm7.7 4.3h-4.8v-8.7h4.8v1h-3.6v2.7h3.5v1h-3.5v3h3.6v1zm8.5-8.7-2.9 8.7h-1.5l-2.9-8.7h1.4l1.8 5.9.5 1.7.5-1.7 1.9-5.9h1.2zm7.4 0-3.1 5.6v3H128v-3l-3-5.6h1.3l1.7 3.2.7 1.3.5-1.2 1.7-3.3h1.4zm6.6 2.7c0 .3 0 .7-.2 1-.1.4-.3.7-.6 1a3.1 3.1 0 0 1-1 .6c-.5.2-1 .3-1.6.3h-1v3h-1.2V120h2.4l1.2.2c.4 0 .7.2 1 .4.3.3.6.5.7.9.2.3.3.7.3 1.2zm-1.2 0c0-.5-.2-1-.6-1.2-.3-.3-.8-.5-1.5-.5h-1.1v3.6h1c.7 0 1.3-.2 1.6-.5.4-.3.6-.7.6-1.4zm8 6H141v-8.7h4.8v1h-3.6v2.7h3.5v1h-3.5v3h3.6v1zm7.6 0h-4.9v-8.7h1.2v7.7h3.7v1zM13 8.7H8.1V.1h1.2v7.6H13v1zm7.5-6c0 .4 0 .8-.2 1.1 0 .3-.3.7-.6 1a3.1 3.1 0 0 1-1 .6c-.4.2-1 .2-1.5.2h-1v3.1H15V.1h2.3c.5 0 .9 0 1.3.2.3 0 .7.2 1 .4l.7.8.2 1.3zm-1.2.1c0-.5-.1-1-.5-1.3-.4-.3-.9-.4-1.5-.4H16v3.5h1c.8 0 1.3-.1 1.7-.4.3-.3.5-.8.5-1.4zm8.5-1.2a4.6 4.6 0 0 0-1-.4 4 4 0 0 0-1-.1 2.8 2.8 0 0 0-1.3.2 2.5 2.5 0 0 0-.9.7l-.5 1a4.8 4.8 0 0 0-.2 1.4L23 6l.5 1 .9.7a3 3 0 0 0 1.5.2 7.2 7.2 0 0 0 .6 0 2 2 0 0 0 .2-.2V5H25v-1h2.8v4.4a5 5 0 0 1-.5.2 6 6 0 0 1-1.8.3 4.3 4.3 0 0 1-1.6-.2 3.2 3.2 0 0 1-1.2-.8l-.8-1.4-.2-1.9c0-.7 0-1.3.3-1.9a4 4 0 0 1 .8-1.4c.3-.4.8-.7 1.3-.9a4.3 4.3 0 0 1 1.6-.3 5.4 5.4 0 0 1 2.1.4v1.2zM35 8.7H30V.1h1.2v7.6H35v1zm8.2 0h-1.3L41.3 7h-3.5l-.6 1.8H36L38.8.1h1.6l2.8 8.6zM41 5.8l-1.5-4.6-1.4 4.6H41zm8.6 3h-4.8V0h1.1v7.6h3.7v1zm7.4 0h-5V0h1.3v7.6H57v1zm7.3 0h-4.9V0h1.2v7.6h3.7v1zm7.3 0h-4.9V0H68v7.6h3.7v1zm15.5 0H86l-.6-2h-3.5l-.6 2h-1.3L82.8 0h1.6L87 8.7zm-2.1-3-1.5-4.6-1.4 4.6H85zm9.5 3h-1.3l-.6-2h-3.5l-.6 2h-1.2L90 0h1.6l2.8 8.6zm-2.2-3-1.5-4.6-1.4 4.6h2.9zm9.3-5.7-.6 8.6h-1.5l-1-3-.3-1-.4 1-1 3h-1.4L94.8.1H96l.4 5.9v1.6l.5-1.4 1-3.2h.8l1.2 3.5.4 1V6.5l.3-6.3h1zm7 1h-2.5v7.6H105V1.1h-2.5v-1h6.2v1zm7.9 7.6h-1.3l-.6-1.8h-3.5l-.6 1.8h-1.2L112 .1h1.6l2.8 8.6zm-2.2-2.9-1.5-4.6-1.4 4.6h2.9zm9 3h-1.2L120.8 6a3 3 0 0 0-.3-.5 1.3 1.3 0 0 0-.3-.4 1 1 0 0 0-.4-.2 1.8 1.8 0 0 0-.5 0h-.5v3.8h-1.2V.1h2.3c.5 0 1 0 1.3.2.3 0 .6.2.9.4l.5.8.1.9V3a2.1 2.1 0 0 1-.4.7 2.2 2.2 0 0 1-.6.5c-.2.1-.5.3-.8.3l.6.5.5.8 1.4 2.8zm-1.8-6.3c0-.5-.1-.8-.4-1-.3-.3-.7-.4-1.2-.4h-1.1V4h1l.7-.1.5-.3a1.3 1.3 0 0 0 .4-.5l.1-.6zm9.6 6.2H130l-.6-1.8h-3.6l-.6 1.8H124l2.8-8.6h1.6l2.8 8.6zM129 5.8l-1.4-4.6-1.4 4.6h2.8zm8.7 3h-4.9V0h1.2v7.6h3.7v1zm7 0h-4.8V0h4.9v1H141v2.7h3.5v1H141v3h3.7v1zm8.5-8.7-2.8 8.6h-1.6L145.9.1h1.3L149 6l.5 1.7.6-1.7 1.8-5.8h1.2zM4.7 18.5c0-.5-.2-1-.6-1.2-.3-.3-.8-.5-1.5-.5H1.5v3.6h1c.7 0 1.2-.2 1.6-.5.4-.3.6-.7.6-1.4zm8.7-1.6h-2.6v7.6H9.7v-7.6H7.2v-1h6.2v1zm7.4 3.2a7 7 0 0 1-.4 2.2 3.6 3.6 0 0 1-.6.9 3 3 0 0 1-.8.7 4.2 4.2 0 0 1-1 .4 6.3 6.3 0 0 1-1.5.2h-1.9v-8.6h2.2c1.4 0 2.3.3 3 1 .6.7 1 1.7 1 3.2zm-1.2 0a6 6 0 0 0-.2-1.5l-.5-1a2 2 0 0 0-.9-.6 3.8 3.8 0 0 0-1.2-.2h-1v6.7h.9c1.9 0 2.9-1.1 2.9-3.3zm8.2-2.8a4.6 4.6 0 0 0-1-.4 4 4 0 0 0-1-.1c-.5 0-1 0-1.3.2a2.5 2.5 0 0 0-.9.7l-.5 1a4.8 4.8 0 0 0-.2 1.5l.1 1.4.5 1c.3.3.5.6.9.7a3 3 0 0 0 1.5.2 7.2 7.2 0 0 0 .6 0l.2-.1v-2.8H25v-1h2.8v4.5a5 5 0 0 1-.5.2 5.9 5.9 0 0 1-1.8.3 4.3 4.3 0 0 1-1.6-.3 3.2 3.2 0 0 1-1.2-.8c-.3-.4-.6-.8-.8-1.4l-.2-1.8c0-.7 0-1.4.3-2a4 4 0 0 1 .8-1.4c.3-.4.8-.6 1.3-.9a4.3 4.3 0 0 1 1.6-.3 5.4 5.4 0 0 1 2.1.5v1.1zm7.3 7.2h-1.5L31.2 19l-.8-1.7v7h-1V16h1.4l2.4 5 .9 2v-7h1v8.6zm8 0H42l-.6-2h-3.5l-.6 2H36l2.8-8.6h1.6l2.8 8.6zm-2.1-3L39.5 17l-1.4 4.6H41zm8.8-4.2a4.6 4.6 0 0 0-1-.4 4 4 0 0 0-1-.1c-.5 0-1 0-1.3.2a2.5 2.5 0 0 0-.9.7l-.5 1a4.8 4.8 0 0 0-.2 1.5l.1 1.4.5 1c.2.3.5.6.9.7a3 3 0 0 0 1.5.2 7.2 7.2 0 0 0 .5 0l.3-.1v-2.8h-1.8v-1h3v4.5a5 5 0 0 1-.6.2 5.9 5.9 0 0 1-1.9.3 4.3 4.3 0 0 1-1.5-.3 3.2 3.2 0 0 1-1.2-.8c-.3-.4-.6-.8-.8-1.4l-.2-1.8c0-.7 0-1.4.3-2a4 4 0 0 1 .8-1.4c.3-.4.8-.6 1.3-.9a4.3 4.3 0 0 1 1.6-.3 5.4 5.4 0 0 1 2 .5v1.1zm7.2 7.2h-5v-8.6h1.3v7.6H57v1zm7.3 0h-4.9v-8.6h1.2v7.6h3.7v1zm8.2 0h-1.3l-.6-2h-3.5l-.6 2h-1.2l2.8-8.6h1.6l2.8 8.6zm-2.2-3L68.9 17l-1.5 4.6h2.9zm15.7 3h-4.8v-8.6H86v1h-3.7v2.6H86v1h-3.6v3H86v1zm7.8-6c0 .3 0 .7-.2 1-.1.4-.3.7-.6 1a3.1 3.1 0 0 1-1 .6c-.4.2-1 .3-1.5.3h-1.1v3h-1.2V16h2.4l1.2.1c.4 0 .8.2 1 .5.4.2.6.4.8.8l.2 1.2zm-1.2 0c0-.5-.2-1-.5-1.2-.4-.3-.9-.5-1.5-.5h-1.2v3.6h1c.8 0 1.3-.2 1.7-.5.3-.3.5-.7.5-1.4zm5 6a2.8 2.8 0 0 1-1.2-.4 2.8 2.8 0 0 1-.8-.9A4.3 4.3 0 0 1 95 22a7.8 7.8 0 0 1-.2-1.6c0-.8.1-1.5.3-2 .2-.6.4-1.1.7-1.5a2.8 2.8 0 0 1 1-.8l1.4-.3c.5 0 1 .1 1.4.3.4.2.7.5 1 .9.3.4.5.8.6 1.4a7.4 7.4 0 0 1 0 3.6 4.4 4.4 0 0 1-.6 1.4 3 3 0 0 1-2 1.2c0 .4.2.7.4 1a1.8 1.8 0 0 0 1.6.3l.7-.4.5.8a2.8 2.8 0 0 1-1 .5 3 3 0 0 1-.9.1 3 3 0 0 1-1-.1 2.1 2.1 0 0 1-.7-.4 2 2 0 0 1-.5-.8 2.9 2.9 0 0 1-.2-1zm2.7-4.3-.1-1.4a3.3 3.3 0 0 0-.4-1 1.9 1.9 0 0 0-.6-.8l-1-.2c-.4 0-.7 0-1 .2a2 2 0 0 0-.6.8l-.4 1v2.7l.4 1.1.6.7c.3.2.6.3 1 .3s.7-.1 1-.3l.6-.7.4-1 .1-1.4zm4.6-3.4h-2v-1h5.2v1h-2v6.7h2v1H103v-1h2v-6.7zm11.6 7.7h-1.3l-.6-2h-3.5l-.6 2h-1.2l2.8-8.6h1.6l2.8 8.6zm-2.2-3-1.5-4.6-1.4 4.6h2.9zm9.2 3h-1.1l-.2-5.4v-2l-.4 1.1-1.3 3.5h-.8l-1.2-3.3-.4-1.4v2.2l-.2 5.3h-1l.4-8.6h1.3l1.2 3.2.4 1 .3-1 1.2-3.2h1.4l.4 8.6zm6.5-7.6h-3.6v2.8h3.4v1h-3.4v3.8h-1.2v-8.6h4.8v1zm7.7 7.2a5.5 5.5 0 0 1-2.2.5c-1.2 0-2.1-.4-2.8-1.1-.6-.7-1-1.8-1-3.2 0-.7.2-1.4.4-2 .1-.5.4-1 .7-1.3a3.3 3.3 0 0 1 1.2-1 3.8 3.8 0 0 1 1.6-.2 5.4 5.4 0 0 1 2 .4v1.1a4.2 4.2 0 0 0-.9-.4 4 4 0 0 0-1-.1c-.5 0-.8 0-1.2.2l-.8.7a3 3 0 0 0-.5 1 5 5 0 0 0-.2 1.5c0 1 .2 2 .7 2.5.4.5 1 .8 2 .8a4.3 4.3 0 0 0 2-.5v1.1zm7.4-6.8a4.7 4.7 0 0 0-1-.4 4 4 0 0 0-1.1-.1c-.5 0-.9 0-1.2.2a2.5 2.5 0 0 0-1 .7l-.5 1a4.8 4.8 0 0 0-.1 1.5l.1 1.4.5 1c.2.3.5.6.8.7a3 3 0 0 0 1.6.2 7 7 0 0 0 .5 0l.3-.1v-2.8h-1.8v-1h2.9v4.5a5.4 5.4 0 0 1-1.2.4 5.9 5.9 0 0 1-1.2 0 4.3 4.3 0 0 1-1.6-.2 3.2 3.2 0 0 1-1.1-.8 3.8 3.8 0 0 1-.8-1.4 5.7 5.7 0 0 1 0-3.8 4 4 0 0 1 .9-1.4 3.5 3.5 0 0 1 1.2-.9 4.3 4.3 0 0 1 1.7-.3 5.4 5.4 0 0 1 2 .5v1.1zm7.6 7.2h-1.3l-1.3-2.8a2.9 2.9 0 0 0-.3-.5l-.3-.3a1 1 0 0 0-.4-.2 1.8 1.8 0 0 0-.4 0h-.6v3.8H147v-8.6h2.3l1.3.1c.4.1.6.3.9.5l.5.7a2.5 2.5 0 0 1 0 1.7 2.1 2.1 0 0 1-.3.6 2.2 2.2 0 0 1-.6.5l-.8.4c.3 0 .5.2.6.4l.5.8 1.4 2.9zm-1.9-6.3c0-.4-.1-.8-.4-1-.3-.2-.7-.4-1.2-.4h-1v2.9h.8l.8-.1c.2 0 .4-.2.5-.3l.4-.4.1-.7zM5.7 40.2h-5v-8.6H2v7.6h3.7v1zm7.5 0h-1.6l-2.4-5.4-.8-1.7v7.1h-1v-8.6h1.5l2.3 5 .9 2v-7h1v8.6zm7.7 0h-1.1l-.2-5.4v-2l-.4 1.2-1.3 3.4h-.8L16 34.1l-.4-1.3v2.1l-.2 5.3h-1l.4-8.6H16l1.2 3.2.3 1.1.4-1 1.2-3.3h1.4l.4 8.6zm7 0h-1.2v-4h-3.6v4H22v-8.6H23v3.6h3.6v-3.6H28v8.6zm7.7 0h-1.1l-.2-5.4v-2l-.5 1.2-1.2 3.4h-.8l-1.2-3.3-.4-1.3v2.1l-.2 5.3h-1.1l.4-8.6h1.4l1.1 3.2.4 1.1.4-1 1.2-3.3h1.4l.4 8.6zm6.9 0H41l-2.5-5.4-.7-1.7v7.1h-1.1v-8.6h1.5l2.3 5 .9 2v-7h1v8.6zm8-8.6-2.9 8.6h-1.5l-2.8-8.6h1.3l1.8 5.8.5 1.7.6-1.7 1.8-5.8h1.2zm3.1 8.7a2.8 2.8 0 0 1-1.2-.5 2.8 2.8 0 0 1-.8-.8 4.3 4.3 0 0 1-.5-1.3 7.8 7.8 0 0 1-.2-1.7c0-.8.1-1.4.3-2l.7-1.4a2.8 2.8 0 0 1 1.1-.9l1.3-.2c.5 0 1 0 1.4.3.4.2.8.5 1 .8.3.4.5.9.6 1.4a7.4 7.4 0 0 1 0 3.7c-.1.5-.3 1-.6 1.3a3 3 0 0 1-2 1.3c0 .4.2.7.4 1a1.8 1.8 0 0 0 1.6.3l.7-.5.5.8a2.8 2.8 0 0 1-.9.5 3 3 0 0 1-1 .2 3 3 0 0 1-.9-.2 2.1 2.1 0 0 1-.7-.4 2 2 0 0 1-.6-.7 2.9 2.9 0 0 1-.2-1zm2.7-4.4v-1.3a3.4 3.4 0 0 0-.4-1.1 1.9 1.9 0 0 0-.7-.7c-.3-.2-.6-.3-1-.3l-1 .3a2 2 0 0 0-.6.7c-.1.3-.3.6-.3 1l-.2 1.3c0 .6 0 1 .2 1.5 0 .4.2.7.3 1 .2.3.4.6.7.7.2.2.6.3 1 .3l.9-.3c.2-.2.5-.4.6-.7l.4-1 .1-1.4zm8.2 4.3h-1.6l-2.4-5.4-.7-1.7v7.1h-1.1v-8.6h1.5l2.3 5 .9 2v-7h1v8.6zm7.3-7.1a4.7 4.7 0 0 0-1-.4 4 4 0 0 0-1.1-.2 2.8 2.8 0 0 0-1.2.3 2.5 2.5 0 0 0-.9.7l-.5 1a4.8 4.8 0 0 0-.2 1.4l.1 1.4.5 1c.2.4.5.6.9.8a3 3 0 0 0 1.5.2 7 7 0 0 0 .5-.1h.3v-2.8h-1.8v-1h3v4.4a5 5 0 0 1-.7.2 5.9 5.9 0 0 1-1.8.3A4.3 4.3 0 0 1 68 40a3.2 3.2 0 0 1-1.2-.8c-.4-.3-.6-.8-.8-1.3-.2-.6-.2-1.2-.2-2 0-.6 0-1.2.2-1.8a4 4 0 0 1 .9-1.4c.3-.4.7-.7 1.2-1a4.3 4.3 0 0 1 1.7-.2 5.3 5.3 0 0 1 2 .4v1.2zm14.9 7.1h-1.5L82.1 36v4.2h-1.2v-8.6h1.2v4l3-4h1.4l-3.3 4 3.5 4.6zm7.5-8.6-.5 8.6h-1.5l-1-3-.4-1-.3 1-1 3h-1.4l-.6-8.6h1.1l.3 5.9.1 1.6.4-1.4 1-3.2h.9l1.2 3.4.3 1.2v-1.2l.4-6.3h1zm7.2 4.2-.1 1.2a4.5 4.5 0 0 1-.3 1 3.6 3.6 0 0 1-.5 1 3 3 0 0 1-.9.6 4.2 4.2 0 0 1-1 .5l-1.5.1h-1.9v-8.6h2.2c1.4 0 2.4.3 3 1 .7.7 1 1.8 1 3.2zm-1.2 0a6 6 0 0 0-.2-1.5l-.5-1a2 2 0 0 0-.9-.5 3.8 3.8 0 0 0-1.2-.2h-1v6.6h.9c2 0 2.9-1.1 2.9-3.3zm8.2 2c0 .5-.1.8-.3 1.1a2.2 2.2 0 0 1-.7.8 3.2 3.2 0 0 1-1 .5 5.7 5.7 0 0 1-1.4.1h-.7a13.9 13.9 0 0 1-.6 0 9.4 9.4 0 0 1-.6-.2 7.2 7.2 0 0 1-.5 0v-1.2l1 .3a8.2 8.2 0 0 0 2.4 0c.3 0 .5-.1.7-.3.1 0 .3-.2.3-.4l.1-.6a1 1 0 0 0-.1-.6 1.8 1.8 0 0 0-.5-.4 4.2 4.2 0 0 0-.8-.4l-.8-.3a14 14 0 0 1-.8-.4 3.6 3.6 0 0 1-.7-.4 2.3 2.3 0 0 1-.5-.7 1.9 1.9 0 0 1-.2-.9c0-.2 0-.5.2-.8l.5-.8 1-.5c.4-.2 1-.2 1.5-.2a6.7 6.7 0 0 1 1 0 8.9 8.9 0 0 1 1 .2v1a7.4 7.4 0 0 0-1-.1 6.2 6.2 0 0 0-1-.1c-.7 0-1.2.1-1.5.3a1 1 0 0 0-.5 1c0 .2 0 .4.2.5l.5.5.7.3a52 52 0 0 1 2.4 1.2l.5.7.2.9zm7.7-2L116 37a4.5 4.5 0 0 1-.3 1 3.6 3.6 0 0 1-.6 1 3 3 0 0 1-.8.6 4.2 4.2 0 0 1-1.1.5 6.3 6.3 0 0 1-1.5.1H110v-8.6h2.2c1.3 0 2.3.3 3 1 .6.7 1 1.8 1 3.2zm-1.3 0a6 6 0 0 0-.1-1.5l-.5-1a2 2 0 0 0-1-.5 3.8 3.8 0 0 0-1.1-.2h-1v6.6h.8c2 0 3-1.1 3-3.3zm8.3-1.6c0 .4 0 .7-.2 1 0 .4-.3.7-.6 1a3.1 3.1 0 0 1-1 .7l-1.5.2h-1v3.1h-1.2v-8.6h2.3l1.3.1 1 .5.7.8c.2.3.2.8.2 1.2zm-1.2 0c0-.5-.1-.9-.5-1.2-.4-.3-.9-.4-1.5-.4h-1.2V36h1c.8 0 1.3-.1 1.7-.4.3-.3.5-.8.5-1.4zm8.4 3.7c0 .4 0 .7-.2 1a2.2 2.2 0 0 1-.7.8 3.2 3.2 0 0 1-1 .5 5.7 5.7 0 0 1-1.4.1h-.7a13.9 13.9 0 0 1-.6 0 9.6 9.6 0 0 1-.6-.2 7 7 0 0 1-.5 0v-1.2l1 .3a8.3 8.3 0 0 0 2.4 0c.3 0 .5-.1.7-.3l.3-.4.1-.6a1 1 0 0 0-.2-.6 1.8 1.8 0 0 0-.5-.4 4.2 4.2 0 0 0-.7-.4l-.8-.3a13.7 13.7 0 0 1-.8-.4 3.6 3.6 0 0 1-.7-.4 2.3 2.3 0 0 1-.5-.7 1.9 1.9 0 0 1-.2-.9c0-.2 0-.5.2-.8 0-.3.3-.6.5-.8l1-.5c.4-.2.9-.2 1.5-.2a6.6 6.6 0 0 1 1 0 8.7 8.7 0 0 1 .9.2v1a7.4 7.4 0 0 0-1-.1 6.2 6.2 0 0 0-1-.1c-.6 0-1.1.1-1.4.3a1 1 0 0 0-.5 1c0 .2 0 .4.2.5l.5.5.7.3a52 52 0 0 1 2.3 1.2c.3.2.4.4.5.7.2.2.2.5.2.9zm7.4-4.8a4.7 4.7 0 0 0-1-.4 4 4 0 0 0-1-.2c-.5 0-.9.1-1.2.3a2.5 2.5 0 0 0-1 .7l-.5 1a4.8 4.8 0 0 0-.2 1.4c0 .5 0 1 .2 1.4 0 .4.2.8.5 1 .2.4.5.6.8.8a3 3 0 0 0 1.5.2 6.2 6.2 0 0 0 .3 0 3.4 3.4 0 0 0 .5-.2v-2.7H135v-1h2.9v4.4a5.1 5.1 0 0 1-.6.2 5.8 5.8 0 0 1-1.8.3 4.3 4.3 0 0 1-1.6-.3 3.2 3.2 0 0 1-1.2-.8c-.3-.3-.5-.8-.7-1.3-.2-.6-.3-1.2-.3-2l.3-1.8a4 4 0 0 1 .8-1.4l1.3-1a4.3 4.3 0 0 1 1.6-.2 5.4 5.4 0 0 1 2.1.4v1.2zm7.6-.5h-2.5v7.6h-1.2v-7.6H139v-1h6.2v1zm7.4 7.6h-1.5L148 36v4.2H147v-8.6h1.1v4l3.1-4h1.4l-3.4 4 3.6 4.6zM13 55.6a5.5 5.5 0 0 1-2.2.4c-1.2 0-2.1-.3-2.7-1-.7-.8-1-1.8-1-3.3 0-.7 0-1.3.3-1.8.1-.6.4-1 .7-1.5a3.3 3.3 0 0 1 1.2-.9c.5-.2 1-.3 1.6-.3a5.4 5.4 0 0 1 2 .4v1.2a4.2 4.2 0 0 0-.9-.4 4 4 0 0 0-1-.1c-.5 0-.8 0-1.2.2a2.2 2.2 0 0 0-.8.7 3 3 0 0 0-.5 1 5 5 0 0 0-.2 1.4c0 1.1.2 2 .7 2.5.4.6 1 .9 2 .9a4.3 4.3 0 0 0 2-.5v1.1zm3.9-7.3h-2v-1h5.1v1h-2V55h2v1h-5v-1H17v-6.6zm11.1 3.2v1.2a4.5 4.5 0 0 1-.4 1 3.6 3.6 0 0 1-.5 1 3 3 0 0 1-.8.6 4.2 4.2 0 0 1-1.2.5l-1.4.1H22v-8.6h2.2c1.3 0 2.3.4 3 1 .6.8 1 1.8 1 3.2zm-1.2.1a6 6 0 0 0-.2-1.5c0-.4-.3-.8-.5-1a2 2 0 0 0-.9-.6 3.8 3.8 0 0 0-1.2-.2h-1V55h.9c2 0 2.9-1 2.9-3.3zm8.5-3.3h-2.6V56h-1.1v-7.6H29v-1h6.2v1zm7.3 7.6h-1.4L38 51.7V56h-1.2v-8.6h1.2v4l3.1-4h1.4l-3.4 4.1 3.5 4.5zm6.7 0h-4.9v-8.6h4.9v1h-3.7V51h3.5v1h-3.5v3h3.7v1zm7.7-7a4.6 4.6 0 0 0-1-.5 4 4 0 0 0-1-.1c-.5 0-1 0-1.3.2a2.5 2.5 0 0 0-.9.7l-.5 1a4.8 4.8 0 0 0-.2 1.5c0 .5 0 1 .2 1.4 0 .4.2.7.5 1l.8.7a3 3 0 0 0 1.5.2 5.6 5.6 0 0 0 .6 0l.2-.2v-2.7h-1.7v-1h2.9v4.4a5 5 0 0 1-.6.3 6 6 0 0 1-1.8.3 4.3 4.3 0 0 1-1.6-.3A3.2 3.2 0 0 1 52 55c-.3-.4-.6-.9-.7-1.4-.2-.5-.3-1.2-.3-1.9s0-1.3.3-1.9a4 4 0 0 1 .8-1.4c.4-.4.8-.7 1.3-.9a4.3 4.3 0 0 1 1.6-.3 5.4 5.4 0 0 1 2.1.4v1.2zm3.9-.6h-2v-1h5.1v1h-2V55h2v1h-5v-1H61v-6.6zM71.6 56h-4.9v-8.6H68V55h3.7v1zM83 56a2.8 2.8 0 0 1-1.2-.4 2.8 2.8 0 0 1-.8-.9 4.3 4.3 0 0 1-.5-1.3 7.8 7.8 0 0 1-.1-1.7c0-.7 0-1.4.2-2l.7-1.4a2.8 2.8 0 0 1 1.1-.8 3.2 3.2 0 0 1 2.7 0 2.6 2.6 0 0 1 1 .9l.7 1.3a7.4 7.4 0 0 1 0 3.7 4.4 4.4 0 0 1-.7 1.3 3 3 0 0 1-2 1.3c0 .4.2.7.5 1 .2.2.5.3 1 .3l.6-.1c.2 0 .4-.2.6-.4l.5.9a2.8 2.8 0 0 1-.9.5 3 3 0 0 1-1 .1 3 3 0 0 1-.9-.1 2.1 2.1 0 0 1-.7-.5 2 2 0 0 1-.5-.7 2.9 2.9 0 0 1-.3-1zm2.7-4.3v-1.4a3.4 3.4 0 0 0-.4-1 1.9 1.9 0 0 0-.7-.8c-.3-.2-.6-.2-1-.2-.3 0-.6 0-.9.2a2 2 0 0 0-.6.7l-.4 1-.1 1.4V53l.4 1c.2.4.4.6.7.8l1 .2c.3 0 .6 0 .9-.2.3-.2.5-.5.6-.8l.4-1 .1-1.3zm9-4.4L91.4 53v3h-1.2v-3l-3-5.6h1.3l1.7 3.2.6 1.2.6-1.1 1.7-3.3h1.3zm6.4 8.3a5.5 5.5 0 0 1-2.1.4c-1.2 0-2.2-.3-2.8-1-.6-.8-1-1.8-1-3.3 0-.7.1-1.3.3-1.8.2-.6.4-1 .8-1.5a3.3 3.3 0 0 1 1.2-.9c.4-.2 1-.3 1.5-.3a5.4 5.4 0 0 1 2.1.4v1.2a4.2 4.2 0 0 0-1-.4 4 4 0 0 0-1-.1c-.4 0-.8 0-1.1.2a2.2 2.2 0 0 0-.8.7 3 3 0 0 0-.5 1 5 5 0 0 0-.2 1.4c0 1.1.2 2 .6 2.5.5.6 1.1.9 2 .9a4.3 4.3 0 0 0 2-.5v1.1zm4 .4a2.8 2.8 0 0 1-1.3-.4 2.8 2.8 0 0 1-.8-.9 4.3 4.3 0 0 1-.5-1.3 7.9 7.9 0 0 1-.2-1.7c0-.7.1-1.4.3-2l.7-1.4a2.8 2.8 0 0 1 1.1-.8c.4-.2.8-.3 1.3-.3s1 .1 1.4.3c.4.2.8.5 1 .9.3.4.5.8.6 1.3a7.4 7.4 0 0 1 0 3.7 4.4 4.4 0 0 1-.6 1.3 3 3 0 0 1-2 1.3c0 .4.2.7.4 1a1.8 1.8 0 0 0 2.2-.1l.6.8a2.8 2.8 0 0 1-.9.5 3 3 0 0 1-1 .1 3 3 0 0 1-.9-.1 2.2 2.2 0 0 1-.7-.5 2 2 0 0 1-.6-.7 2.8 2.8 0 0 1-.2-1zm2.6-4.3v-1.4a3.3 3.3 0 0 0-.4-1 1.9 1.9 0 0 0-.7-.8c-.3-.2-.6-.2-1-.2a1.7 1.7 0 0 0-1 .2 2 2 0 0 0-.6.7 3.6 3.6 0 0 0-.3 1 6.3 6.3 0 0 0-.2 1.4c0 .5 0 1 .2 1.4 0 .4.2.8.3 1 .2.4.4.6.7.8l1 .2c.3 0 .6 0 .9-.2.2-.2.5-.5.6-.8a3.6 3.6 0 0 0 .4-1 6.6 6.6 0 0 0 .1-1.3zm7.7 4.2h-4.8v-8.6h4.8v1h-3.6V51h3.5v1h-3.5v3h3.6v1zm8.5-8.6L121 56h-1.5l-2.8-8.6h1.3l1.8 5.8.5 1.7.6-1.7 1.8-5.8h1.2zm7.4 0-3 5.6v3h-1.3v-3l-3-5.6h1.4l1.6 3.2.7 1.2.5-1.1 1.8-3.3h1.3zm6.6 2.7c0 .3 0 .7-.2 1-.1.4-.3.7-.6 1a3.1 3.1 0 0 1-1 .6c-.5.2-1 .3-1.6.3h-1v3h-1.2v-8.6h2.4c.4 0 .8 0 1.2.2.4 0 .7.2 1 .4.3.2.6.5.7.8.2.4.3.8.3 1.3zm-1.2 0c0-.5-.2-1-.5-1.2-.4-.3-.9-.5-1.5-.5h-1.2V52h1c.7 0 1.3-.2 1.6-.5.4-.3.6-.8.6-1.4zm8 6h-4.8v-8.7h4.9v1H141V51h3.5v1H141v3h3.7v1zm7.7 0h-5v-8.7h1.2V55h3.8v1zM163 81.2H162l-.2-5.3v-2l-.5 1.1-1.2 3.4h-.8l-1.2-3.3-.4-1.3v2.2l-.2 5.2h-1l.3-8.6h1.4l1.1 3.3.4 1 .4-1 1.2-3.3h1.4l.4 8.6zm6.7 0H165v-8.6h1.2v7.6h3.7v1zm7.6-6-.2 1.1-.6 1a3.1 3.1 0 0 1-1 .6c-.5.2-1 .3-1.6.3h-1v3h-1.2v-8.6h2.4c.4 0 .8 0 1.2.2.4 0 .7.2 1 .4.3.2.5.5.7.9.2.3.3.7.3 1.2zm-1.2.1c0-.5-.2-1-.6-1.2-.3-.3-.8-.5-1.5-.5H173v3.6h1.1c.7 0 1.2-.2 1.6-.5.4-.3.6-.8.6-1.4zm8.4-1.2a4.7 4.7 0 0 0-1-.4 4 4 0 0 0-1-.1c-.5 0-.9 0-1.2.2a2.5 2.5 0 0 0-1 .7l-.5 1a4.8 4.8 0 0 0-.2 1.5c0 .5 0 1 .2 1.4 0 .4.2.7.5 1l.8.7a3 3 0 0 0 1.5.2 9.6 9.6 0 0 0 .6 0l.2-.2v-2.7h-1.7v-1h2.9V81a5 5 0 0 1-.6.3 6 6 0 0 1-1.8.3 4.3 4.3 0 0 1-1.6-.3 3.2 3.2 0 0 1-1.2-.8c-.3-.4-.6-.8-.7-1.4-.2-.5-.3-1.2-.3-1.9s.1-1.3.3-1.9a4 4 0 0 1 .8-1.4c.4-.4.8-.7 1.3-.9a4.3 4.3 0 0 1 1.6-.3 5.4 5.4 0 0 1 2.1.4v1.2zm7.2 7.1H187v-8.6h1.2v7.6h3.7v1zm8.2 0h-1.3l-.6-1.8h-3.5l-.6 1.8h-1.2l2.8-8.6h1.6l2.8 8.6zm-2.2-2.9-1.4-4.6-1.5 4.6h3zm8.7 3h-5v-8.7h1.3v7.6h3.7v1zm7.3 0H209v-8.7h1.2v7.6h3.7v1zm7.3 0h-4.9v-8.7h1.2v7.6h3.7v1zm7.4 0h-5v-8.7h1.2v7.6h3.8v1zm15.5 0h-1.3l-.6-2h-3.5l-.6 2h-1.2l2.8-8.7h1.6l2.8 8.6zm-2.2-3-1.5-4.6-1.4 4.6h2.9zm9.5 3H250l-.6-2H246l-.6 2h-1.2l2.8-8.7h1.6l2.8 8.6zm-2.2-3-1.4-4.6-1.5 4.6h3zm9.3-5.7-.6 8.6h-1.5l-1-3-.3-1-.3 1-1 3h-1.5l-.5-8.6h1l.4 5.9v1.6l.5-1.4 1-3.2h.8l1.2 3.5.4 1.1V79l.4-6.3h1zm7 1H263v7.6h-1.1v-7.6h-2.5v-1h6.2v1zm7.9 7.6H272l-.6-1.8H268l-.6 1.8h-1.2l2.8-8.6h1.6l2.8 8.6zm-2.2-2.9-1.4-4.6-1.5 4.6h2.9zM162.7 91.1c0 .4 0 .7-.2 1-.1.4-.3.7-.6 1a3.1 3.1 0 0 1-1 .6c-.5.2-1 .3-1.6.3h-1v3H157v-8.5h2.4l1.2.1a2.8 2.8 0 0 1 1 .5c.3.2.6.5.7.8.2.3.3.7.3 1.2zm-1.2 0c0-.5-.2-1-.5-1.2-.4-.3-.9-.5-1.5-.5h-1.2V93h1c.7 0 1.3-.2 1.6-.5.4-.3.6-.7.6-1.3zm8.7-1.6h-2.5V97h-1.2v-7.6H164v-1h6.2v1zm7.4 3.2v1.2a4.5 4.5 0 0 1-.4 1 3.6 3.6 0 0 1-.5 1l-.8.6a4.2 4.2 0 0 1-1.2.4 6.3 6.3 0 0 1-1.4.2h-1.8v-8.6h2.2c1.3 0 2.3.3 3 1 .6.7.9 1.8.9 3.2zm-1.2 0a6 6 0 0 0-.2-1.5c0-.4-.3-.7-.5-1a2 2 0 0 0-.9-.6 3.8 3.8 0 0 0-1.2-.1h-1V96h.9c2 0 2.9-1.1 2.9-3.3zm8.2-2.8a4.7 4.7 0 0 0-1-.3 4 4 0 0 0-1-.2c-.5 0-.9 0-1.2.3a2.5 2.5 0 0 0-1 .6l-.5 1.1a4.8 4.8 0 0 0-.2 1.4c0 .5 0 1 .2 1.4 0 .4.2.8.5 1 .2.4.5.6.8.7a3 3 0 0 0 1.5.3 7.2 7.2 0 0 0 .6-.1l.2-.1v-2.8h-1.7v-1h2.9v4.5a5 5 0 0 1-.6.2 6 6 0 0 1-1.8.3 4.3 4.3 0 0 1-1.6-.3 3.2 3.2 0 0 1-1.2-.8c-.3-.4-.6-.8-.7-1.3-.2-.6-.3-1.2-.3-2 0-.6.1-1.3.3-1.8a4 4 0 0 1 .8-1.4l1.3-1a4.3 4.3 0 0 1 1.6-.2 5.4 5.4 0 0 1 2.1.4v1.1zm7.4 7.2h-1.5l-2.5-5.4-.7-1.7v7h-1.1v-8.5h1.5l2.3 5 .9 2v-7h1V97zm8 0h-1.3l-.6-1.9h-3.5l-.6 1.9h-1.2l2.8-8.6h1.6L200 97zm-2.2-3-1.4-4.5-1.5 4.6h3zm8.8-4.2a4.7 4.7 0 0 0-1-.3 4 4 0 0 0-1-.2 2.8 2.8 0 0 0-1.3.3 2.5 2.5 0 0 0-.9.6l-.5 1.1a4.8 4.8 0 0 0-.2 1.4c0 .5 0 1 .2 1.4 0 .4.2.8.5 1 .2.4.5.6.8.7a3 3 0 0 0 1.5.3 7 7 0 0 0 .6-.1l.2-.1v-2.8h-1.7v-1h2.9v4.5a5 5 0 0 1-.6.2 6 6 0 0 1-1.8.3 4.3 4.3 0 0 1-1.6-.3 3.2 3.2 0 0 1-1.2-.8 3.8 3.8 0 0 1-.7-1.3c-.2-.6-.3-1.2-.3-2 0-.6 0-1.3.3-1.8a4 4 0 0 1 .8-1.4l1.3-1a4.3 4.3 0 0 1 1.6-.2 5.4 5.4 0 0 1 2.1.4v1.1zm7.2 7.2H209v-8.6h1.2V96h3.7v1zm7.3 0h-4.9v-8.6h1.2V96h3.7v1zm8.2 0h-1.2l-.6-1.9h-3.6l-.6 1.9h-1.2l2.8-8.6h1.6l2.8 8.6zm-2.2-3-1.4-4.5-1.4 4.6h2.8zm15.8 3H238v-8.6h4.9v1h-3.7V92h3.5v1h-3.5v3h3.7v1zm7.8-6-.2 1-.6 1a3.1 3.1 0 0 1-1.1.6c-.4.2-1 .3-1.5.3h-1v3H245v-8.5h2.4l1.2.1 1 .5.7.8c.2.3.3.7.3 1.2zm-1.3 0c0-.5-.1-1-.5-1.2-.3-.3-.8-.5-1.5-.5h-1.2V93h1.1c.7 0 1.2-.2 1.6-.5.4-.3.5-.7.5-1.3zm5 6a2.8 2.8 0 0 1-1.2-.4 2.8 2.8 0 0 1-.8-.9 4.3 4.3 0 0 1-.5-1.3 7.9 7.9 0 0 1-.2-1.6c0-.8.1-1.5.3-2l.7-1.5a2.8 2.8 0 0 1 1.1-.8 3.2 3.2 0 0 1 1.3-.2c.5 0 1 0 1.4.3a2.6 2.6 0 0 1 1 .8c.3.4.5.8.6 1.4a7.4 7.4 0 0 1 0 3.6 4.4 4.4 0 0 1-.6 1.4 3 3 0 0 1-2 1.3c0 .3.2.7.4.9a1.8 1.8 0 0 0 2.2-.1l.6.8a2.8 2.8 0 0 1-.9.5 3 3 0 0 1-1 .2 3 3 0 0 1-.9-.2 2.1 2.1 0 0 1-.7-.4 2.1 2.1 0 0 1-.6-.7 2.9 2.9 0 0 1-.2-1zm2.7-4.3v-1.4a3.4 3.4 0 0 0-.4-1 2 2 0 0 0-.7-.8l-1-.2c-.3 0-.6 0-1 .3a2 2 0 0 0-.6.7 3.6 3.6 0 0 0-.3 1 6.3 6.3 0 0 0-.2 1.3c0 .5 0 1 .2 1.4 0 .5.2.8.3 1.1.2.3.4.6.7.7.2.2.6.3 1 .3l.9-.3c.2-.2.5-.4.6-.7l.4-1 .1-1.4zm4.7-3.3h-2v-1h5.1v1h-2V96h2v1h-5v-1h1.9v-6.6zm11.5 7.6H272l-.6-1.9H268l-.6 1.9h-1.2l2.8-8.6h1.6l2.8 8.6zm-2.2-3-1.4-4.5-1.5 4.6h2.9zm-108.6 18.7h-4.9v-8.6h1.2v7.6h3.7v1zm7.5 0h-1.5l-2.5-5.3-.7-1.8v7.1h-1.1v-8.6h1.5l2.4 5.1.8 2v-7h1v8.5zm7.8 0h-1.2l-.1-5.3-.1-2.1-.4 1.2-1.3 3.4h-.8l-1.2-3.3-.4-1.3v2.1l-.1 5.3H171l.4-8.6h1.4l1.1 3.3.4 1 .3-1 1.2-3.3h1.5l.4 8.6zm6.9 0h-1.2v-4H180v4h-1.2v-8.6h1.2v3.7h3.5v-3.7h1.2v8.6zm7.7 0h-1.1l-.2-5.3v-2.1l-.5 1.2-1.2 3.4h-.8l-1.2-3.3-.4-1.3v2.1l-.2 5.3h-1l.3-8.6h1.4l1.2 3.3.3 1 .4-1 1.2-3.3h1.4l.4 8.6zm6.9 0h-1.5l-2.5-5.3-.7-1.8v7.1h-1v-8.6h1.4l2.4 5.1.8 2v-7h1.1v8.5zm8-8.6-2.8 8.6h-1.6l-2.8-8.6h1.3l1.8 5.8.6 1.7.5-1.7 1.8-5.8h1.3zm3.1 8.7a2.8 2.8 0 0 1-1.1-.4 2.8 2.8 0 0 1-.9-1 4.2 4.2 0 0 1-.5-1.2 7.8 7.8 0 0 1-.1-1.7c0-.8 0-1.4.2-2 .2-.6.5-1 .8-1.4a2.8 2.8 0 0 1 1-.8 3.1 3.1 0 0 1 2.7 0 2.6 2.6 0 0 1 1 .9c.3.3.5.8.7 1.3l.2 1.8a7 7 0 0 1-.3 1.9c-.1.5-.3 1-.6 1.3a3 3 0 0 1-2 1.3c0 .4.2.7.5 1 .2.2.5.3 1 .3a1.8 1.8 0 0 0 1.2-.5l.5.8a2.8 2.8 0 0 1-.9.5 3 3 0 0 1-.9.2 3 3 0 0 1-1-.2 2.1 2.1 0 0 1-.7-.4 2 2 0 0 1-.5-.7 2.9 2.9 0 0 1-.3-1zm2.8-4.3c0-.6 0-1-.2-1.4a3.3 3.3 0 0 0-.3-1.1 1.9 1.9 0 0 0-.7-.7c-.2-.2-.6-.3-1-.3l-.9.3a2 2 0 0 0-.6.7l-.4 1-.1 1.3v1.5l.5 1c.1.4.3.6.6.8l1 .2c.3 0 .6 0 .9-.3a2 2 0 0 0 .7-.7c.1-.3.3-.6.3-1l.2-1.3zm8 4.2h-1.4l-2.5-5.3-.7-1.8v7.1h-1.1v-8.6h1.5l2.4 5.1.8 2v-7h1v8.5zm7.4-7.1a4.6 4.6 0 0 0-1-.4 3.9 3.9 0 0 0-1-.2 2.8 2.8 0 0 0-1.3.3 2.5 2.5 0 0 0-.9.7l-.5 1a4.8 4.8 0 0 0-.2 1.4l.1 1.4.5 1.1.9.7a3 3 0 0 0 1.5.2h.3a3.7 3.7 0 0 0 .5-.2V109h-1.7v-1h2.8v4.4a5.3 5.3 0 0 1-.5.2 5.9 5.9 0 0 1-1.8.3 4.3 4.3 0 0 1-1.6-.2 3.2 3.2 0 0 1-1.2-.9l-.8-1.3-.2-1.9c0-.7 0-1.3.3-1.9a4 4 0 0 1 .8-1.4 3.5 3.5 0 0 1 1.3-.9 4.3 4.3 0 0 1 1.6-.3 5.4 5.4 0 0 1 2.1.4v1.2zm15 7.1H242l-3.2-4.2v4.2h-1.2v-8.6h1.2v4l3.1-4h1.4l-3.4 4.1 3.5 4.5zm7.5-8.6-.6 8.6H249l-1-3-.3-1-.4 1-1 3H245l-.6-8.6h1.1l.4 5.9v1.6l.5-1.4 1-3.2h.8l1.2 3.4.4 1.2v-1.2l.3-6.3h1zm7.1 4.2v1.2a4.5 4.5 0 0 1-.4 1 3.6 3.6 0 0 1-.5 1 3.1 3.1 0 0 1-.8.6 4.2 4.2 0 0 1-1.1.5 6.3 6.3 0 0 1-1.5.1h-1.8v-8.6h2.2c1.3 0 2.3.4 3 1 .6.7 1 1.8 1 3.2zm-1.2.1a6 6 0 0 0-.2-1.5c0-.5-.2-.8-.5-1a2 2 0 0 0-.8-.6l-1.3-.2h-1v6.6h.9c2 0 3-1.1 3-3.3zm8.2 2c0 .4-.1.8-.3 1a2.2 2.2 0 0 1-.7.8 3.2 3.2 0 0 1-1 .5 5.7 5.7 0 0 1-1.4.1 8.5 8.5 0 0 1-.7 0h-.6a9.4 9.4 0 0 1-.6-.1 7.3 7.3 0 0 1-.5-.2v-1l1.1.2a8.3 8.3 0 0 0 2.3 0l.7-.2.4-.5a1.3 1.3 0 0 0 0-.5 1 1 0 0 0-.1-.6 1.8 1.8 0 0 0-.5-.5 4.1 4.1 0 0 0-.7-.3l-.9-.4a13.4 13.4 0 0 1-.8-.3 3.6 3.6 0 0 1-.7-.5 2.3 2.3 0 0 1-.5-.7 1.9 1.9 0 0 1-.2-.8c0-.3 0-.6.2-1l.6-.7a3 3 0 0 1 1-.5l1.4-.2a6.8 6.8 0 0 1 1 0 9.6 9.6 0 0 1 1 .2v1.1a7.3 7.3 0 0 0-1-.2 6.2 6.2 0 0 0-1 0c-.7 0-1.2 0-1.5.2a1 1 0 0 0-.5 1l.2.5.5.5.7.4a52 52 0 0 1 2.4 1.1l.5.7.2.9zm7.7-2a7 7 0 0 1-.4 2.2 3.6 3.6 0 0 1-.6.8 3.1 3.1 0 0 1-.8.7 4.2 4.2 0 0 1-1 .5l-1.5.1h-1.9v-8.6h2.2c1.4 0 2.3.4 3 1 .7.7 1 1.8 1 3.2zm-1.2 0c0-.6 0-1.1-.2-1.5-.1-.5-.3-.8-.5-1a2 2 0 0 0-.9-.6l-1.2-.2h-1v6.6h.9c1.9 0 2.9-1.1 2.9-3.3zM162.9 121h-2.6v7.6h-1.1v-7.7h-2.5v-1h6.2v1zm7 7.2a5.5 5.5 0 0 1-2.1.5c-1.2 0-2.2-.4-2.8-1.1-.7-.8-1-1.8-1-3.3 0-.6.1-1.3.3-1.8a4 4 0 0 1 .7-1.4l1.2-1a3.8 3.8 0 0 1 1.6-.3 5.4 5.4 0 0 1 2.1.5v1.1a4.1 4.1 0 0 0-2-.5c-.4 0-.8 0-1.1.2a2.2 2.2 0 0 0-.8.7 3 3 0 0 0-.6 1 5 5 0 0 0-.1 1.4c0 1.2.2 2 .6 2.6.5.5 1.1.8 2 .8a4.3 4.3 0 0 0 2-.5v1.1zm4-7.3h-2v-1h5v1H175v6.7h2v1h-5.1v-1h2v-6.7zm11 3.3v1.1a4.5 4.5 0 0 1-.4 1.1 3.6 3.6 0 0 1-.5.9 3.1 3.1 0 0 1-.8.7 4.2 4.2 0 0 1-1.1.4 6.3 6.3 0 0 1-1.5.2h-1.8v-8.7h2.2c1.3 0 2.3.4 3 1 .6.8 1 1.8 1 3.3zm-1.2 0a6 6 0 0 0-.2-1.5c0-.4-.2-.8-.5-1a2 2 0 0 0-.8-.6l-1.3-.2h-1v6.6h1c1.8 0 2.8-1 2.8-3.3zm8.5-3.3h-2.5v7.7h-1.2v-7.7H186v-1h6.2v1zm7.4 7.7H198l-3.2-4.3v4.3h-1.1v-8.7h1.1v4l3.1-4h1.4L196 124l3.6 4.6zm6.6 0h-4.8v-8.7h4.8v1h-3.7v2.7h3.6v1h-3.6v3h3.7v1zm7.7-7.2a4.7 4.7 0 0 0-1-.4 4 4 0 0 0-1-.1c-.5 0-.9 0-1.2.2a2.5 2.5 0 0 0-1 .7 3.2 3.2 0 0 0-.5 1 4.8 4.8 0 0 0-.2 1.5c0 .5 0 1 .2 1.4l.5 1c.2.3.5.6.8.7a3 3 0 0 0 1.5.2h.3a3.9 3.9 0 0 0 .5-.1v-2.8h-1.7v-1h2.9v4.5a5 5 0 0 1-.6.2 5.9 5.9 0 0 1-1.8.3 4.3 4.3 0 0 1-1.6-.3 3.2 3.2 0 0 1-1.2-.8l-.7-1.4c-.2-.5-.3-1.1-.3-1.9 0-.7.1-1.3.3-1.8a4 4 0 0 1 .8-1.5 3.5 3.5 0 0 1 1.3-.9 4.3 4.3 0 0 1 1.7-.3 5.4 5.4 0 0 1 2 .5v1.1zm3.9-.5h-2v-1h5.1v1h-2v6.7h2v1h-5v-1h1.9v-6.7zm10.7 7.7h-5v-8.7h1.2v7.7h3.8v1zm11.3 0a2.8 2.8 0 0 1-1.2-.4 2.8 2.8 0 0 1-.9-.9 4.3 4.3 0 0 1-.5-1.3 7.9 7.9 0 0 1-.1-1.6c0-.8 0-1.5.2-2 .2-.6.5-1.1.8-1.5a2.9 2.9 0 0 1 1-.8l1.3-.3c.6 0 1 .1 1.5.3.4.2.7.5 1 .9l.6 1.4a7.4 7.4 0 0 1 .2 1.8 7 7 0 0 1-.2 1.8 4.4 4.4 0 0 1-.6 1.4 3 3 0 0 1-2 1.2c0 .4.1.7.4 1 .2.2.6.3 1 .3a1.8 1.8 0 0 0 1.2-.4l.5.8a2.8 2.8 0 0 1-.8.5 3 3 0 0 1-1 .1 3 3 0 0 1-1-.1 2.1 2.1 0 0 1-.7-.4 2 2 0 0 1-.5-.8 2.8 2.8 0 0 1-.3-1zm2.7-4.3a7.6 7.6 0 0 0-.1-1.4 3.3 3.3 0 0 0-.4-1 1.9 1.9 0 0 0-.7-.8l-1-.2c-.3 0-.6 0-.9.2a2 2 0 0 0-.6.8 3.6 3.6 0 0 0-.4 1l-.1 1.3.1 1.4c0 .4.2.8.4 1 .1.4.4.6.6.8.3.2.6.2 1 .2.3 0 .7 0 1-.2a2 2 0 0 0 .6-.7l.4-1.1v-1.3zm8.9-4.4-3.1 5.6v3H247v-3l-3-5.6h1.3l1.7 3.2.7 1.3.5-1.2 1.7-3.3h1.4zm6.4 8.3a5.5 5.5 0 0 1-2.1.5c-1.2 0-2.1-.4-2.8-1.1-.6-.8-1-1.8-1-3.3l.3-1.8a4 4 0 0 1 .8-1.4 3.3 3.3 0 0 1 1.2-1 3.8 3.8 0 0 1 1.6-.3 5.4 5.4 0 0 1 2 .5v1.1a4.1 4.1 0 0 0-2-.5c-.4 0-.8 0-1 .2a2.2 2.2 0 0 0-.9.7 3 3 0 0 0-.5 1 5 5 0 0 0-.2 1.4c0 1.2.2 2 .7 2.6.4.5 1 .8 2 .8a4.3 4.3 0 0 0 2-.5v1.1zm4 .4a2.8 2.8 0 0 1-1.2-.4 2.8 2.8 0 0 1-.9-.9 4.3 4.3 0 0 1-.5-1.3 7.9 7.9 0 0 1-.1-1.6c0-.8 0-1.5.2-2 .2-.6.5-1.1.8-1.5a2.9 2.9 0 0 1 1-.8 3.1 3.1 0 0 1 2.7 0c.5.2.8.5 1 .9l.7 1.4.2 1.8a7 7 0 0 1-.3 1.8c-.1.5-.3 1-.6 1.4a3 3 0 0 1-2 1.2c0 .4.2.7.5 1 .2.2.5.3 1 .3a1.8 1.8 0 0 0 1.2-.4l.5.8a2.8 2.8 0 0 1-.9.5 3 3 0 0 1-.9.1 3 3 0 0 1-1-.1 2.1 2.1 0 0 1-.7-.4 2.1 2.1 0 0 1-.5-.8 2.9 2.9 0 0 1-.3-1zm2.7-4.3a7.6 7.6 0 0 0-.2-1.4 3.3 3.3 0 0 0-.3-1 1.9 1.9 0 0 0-.7-.8l-1-.2c-.3 0-.6 0-.9.2a2 2 0 0 0-.6.8 3.6 3.6 0 0 0-.4 1l-.1 1.3v1.4l.5 1c.1.4.3.6.6.8.3.2.6.2 1 .2.3 0 .6 0 1-.2l.6-.7c.1-.3.3-.7.3-1.1l.2-1.3zm7.7 4.3h-4.9v-8.7h4.9v1h-3.7v2.7h3.5v1h-3.5v3h3.7v1zM162 8.7H161l-.2-5.3V1.3l-.5 1.2-1.2 3.4h-.8L157 2.6l-.4-1.3v2.2l-.2 5.2h-1l.3-8.6h1.4l1.2 3.3.3 1 .4-1 1.2-3.3h1.4l.4 8.6zm6.7 0H164V.1h1.1v7.6h3.7v1zm7.6-6c0 .4 0 .8-.2 1.1a2.6 2.6 0 0 1-.6 1 3.1 3.1 0 0 1-1 .6c-.5.2-1 .2-1.6.2h-1v3.1h-1.2V.1h2.4c.4 0 .8 0 1.2.2.4 0 .7.2 1 .4l.7.8c.2.4.3.8.3 1.3zm-1.2.1c0-.5-.2-1-.6-1.3-.3-.3-.8-.4-1.5-.4h-1.2v3.5h1.1c.7 0 1.2-.1 1.6-.4.4-.3.6-.8.6-1.4zm8.4-1.2a4.7 4.7 0 0 0-1-.4 4 4 0 0 0-1-.1c-.5 0-.9 0-1.2.2a2.5 2.5 0 0 0-1 .7l-.5 1a4.8 4.8 0 0 0-.2 1.4c0 .6 0 1 .2 1.5 0 .4.3.7.5 1l.8.7a3 3 0 0 0 1.5.2 7 7 0 0 0 .6 0l.2-.2V5h-1.7v-1h2.9v4.4a5 5 0 0 1-.6.2 6 6 0 0 1-1.8.3 4.3 4.3 0 0 1-1.6-.2 3.2 3.2 0 0 1-1.2-.8l-.7-1.4c-.2-.5-.3-1.2-.3-1.9s.1-1.3.3-1.9a4 4 0 0 1 .8-1.4c.4-.4.8-.7 1.3-.9a4.3 4.3 0 0 1 1.7-.3 5.4 5.4 0 0 1 2 .4v1.2zm7.2 7.1h-4.9V.1h1.2v7.6h3.7v1zm8.2 0h-1.2L197 7h-3.6l-.6 1.8h-1.2l2.8-8.6h1.6l2.8 8.6zm-2.2-2.9-1.4-4.6-1.5 4.6h3zm8.7 3h-5V0h1.3v7.6h3.7v1zm7.3 0h-4.9V0h1.2v7.6h3.7v1zm7.3 0h-4.8V0h1.1v7.6h3.7v1zm7.4 0h-5V0h1.3v7.6h3.7v1zm15.5 0h-1.3l-.6-2h-3.5l-.6 2h-1.2l2.8-8.7h1.6l2.8 8.6zm-2.2-3-1.4-4.6-1.5 4.6h2.9zm9.5 3H249l-.6-2h-3.6l-.6 2H243l2.8-8.7h1.6l2.8 8.6zm-2.2-3-1.4-4.6-1.4 4.6h2.8zm9.3-5.7-.6 8.6h-1.5l-1-3-.3-1-.3 1-1 3h-1.4l-.6-8.6h1L252 6v1.6l.5-1.4 1-3.2h.8l1.2 3.4.4 1.2V6.4l.4-6.3h1zm7 1H262v7.6h-1.2V1.1h-2.5v-1h6.2v1zm7.9 7.6h-1.3l-.6-1.8h-3.5l-.6 1.8H265l2.8-8.6h1.6l2.8 8.6zM270 5.8l-1.4-4.6-1.5 4.6h3zM161.6 18.5c0 .3 0 .7-.2 1-.1.4-.3.7-.6 1a3.1 3.1 0 0 1-1 .6c-.5.2-1 .3-1.6.3h-1v3H156V16h2.4l1.2.1c.4 0 .8.2 1 .5.3.2.6.4.8.8l.2 1.2zm-1.2 0c0-.5-.2-1-.5-1.2-.4-.3-.9-.5-1.5-.5h-1.2v3.6h1c.8 0 1.3-.2 1.7-.5.3-.3.5-.7.5-1.4zm8.7-1.6h-2.5v7.6h-1.2v-7.6H163v-1h6.2v1zm7.4 3.2v1.2a4.5 4.5 0 0 1-.4 1 3.6 3.6 0 0 1-.5.9 3 3 0 0 1-.8.7 4.2 4.2 0 0 1-1.2.4 6.3 6.3 0 0 1-1.4.2h-1.8v-8.6h2.2c1.3 0 2.3.3 3 1 .6.7 1 1.7 1 3.2zm-1.2 0a6 6 0 0 0-.2-1.5c0-.4-.3-.8-.5-1a2 2 0 0 0-.9-.6 3.8 3.8 0 0 0-1.2-.2h-1v6.7h.9c2 0 2.9-1.1 2.9-3.3zm8.2-2.8a4.7 4.7 0 0 0-1-.4 4 4 0 0 0-1-.1c-.5 0-.9 0-1.2.2a2.5 2.5 0 0 0-1 .7l-.5 1a4.8 4.8 0 0 0-.2 1.5c0 .5 0 1 .2 1.4 0 .4.3.8.5 1 .2.3.5.6.8.7.4.2.8.2 1.3.2a2.9 2.9 0 0 0 .2 0 7 7 0 0 0 .6 0l.2-.1v-2.8h-1.7v-1h2.9v4.5a5 5 0 0 1-.6.2 5.9 5.9 0 0 1-1.8.3 4.3 4.3 0 0 1-1.6-.3 3.2 3.2 0 0 1-1.2-.8l-.7-1.4a5.7 5.7 0 0 1 0-3.8 4 4 0 0 1 .8-1.4c.4-.4.8-.6 1.3-.9a4.3 4.3 0 0 1 1.7-.3 5.4 5.4 0 0 1 2 .5v1.1zm7.4 7.2h-1.5l-2.5-5.4-.7-1.7v7H185V16h1.5l2.3 5 .9 2v-7h1v8.6zm8 0h-1.2l-.6-2h-3.6l-.6 2h-1.2l2.8-8.6h1.6l2.8 8.6zm-2.2-3-1.4-4.6-1.5 4.6h3zm8.8-4.2a4.7 4.7 0 0 0-1-.4 4 4 0 0 0-1-.1 2.8 2.8 0 0 0-1.2.2 2.5 2.5 0 0 0-1 .7l-.5 1a4.8 4.8 0 0 0-.2 1.5c0 .5 0 1 .2 1.4 0 .4.2.8.5 1 .2.3.5.6.8.7a3 3 0 0 0 1.5.2 6.2 6.2 0 0 0 .3 0 3.9 3.9 0 0 0 .5-.1v-2.8h-1.7v-1h2.9v4.5a5 5 0 0 1-.6.2 5.9 5.9 0 0 1-1.8.3 4.3 4.3 0 0 1-1.6-.3 3.2 3.2 0 0 1-1.2-.8 3.8 3.8 0 0 1-.7-1.4 5.7 5.7 0 0 1 0-3.8 4 4 0 0 1 .8-1.4c.4-.4.8-.6 1.3-.9a4.3 4.3 0 0 1 1.6-.3 5.4 5.4 0 0 1 2.1.5v1.1zm7.2 7.2h-4.9v-8.6h1.2v7.6h3.7v1zm7.3 0h-4.8v-8.6h1.1v7.6h3.7v1zm8.2 0H227l-.6-2h-3.6l-.6 2H221l2.9-8.6h1.5l2.8 8.6zm-2.2-3-1.4-4.6-1.4 4.6h2.8zm15.8 3h-4.9v-8.6h4.9v1H238v2.6h3.5v1h-3.5v3h3.7v1zm7.8-6-.2 1-.6 1a3.1 3.1 0 0 1-1 .6c-.5.2-1 .3-1.6.3h-1v3H244V16h2.4l1.2.1c.4 0 .7.2 1 .5.3.2.5.4.7.8.2.3.3.7.3 1.2zm-1.2 0c0-.5-.2-1-.6-1.2-.3-.3-.8-.5-1.5-.5h-1.2v3.6h1.1c.7 0 1.2-.2 1.6-.5.4-.3.6-.7.6-1.4zm5 6a2.8 2.8 0 0 1-1.3-.4 2.8 2.8 0 0 1-.8-.9 4.3 4.3 0 0 1-.5-1.3 7.9 7.9 0 0 1-.2-1.6c0-.8.1-1.5.3-2 .2-.6.4-1.1.7-1.5a2.8 2.8 0 0 1 1.1-.8 3.2 3.2 0 0 1 1.3-.3c.6 0 1 .1 1.4.3a2.6 2.6 0 0 1 1 .9c.3.4.5.8.6 1.4a7 7 0 0 1 0 3.6c-.1.5-.3 1-.6 1.4a3 3 0 0 1-2 1.2c0 .4.2.7.5 1 .2.2.5.3 1 .3a1.8 1.8 0 0 0 1.2-.4l.5.8a2.8 2.8 0 0 1-.9.5 3 3 0 0 1-1 .1 3 3 0 0 1-.9-.1 2.1 2.1 0 0 1-.7-.4 2 2 0 0 1-.5-.8 2.9 2.9 0 0 1-.3-1zm2.6-4.3v-1.4a3.3 3.3 0 0 0-.4-1 1.9 1.9 0 0 0-.7-.8l-1-.2c-.3 0-.6 0-.9.2a2 2 0 0 0-.6.8l-.4 1a6.3 6.3 0 0 0-.1 1.3v1.4l.4 1.1.7.7c.3.2.6.3 1 .3l.9-.3c.3-.2.5-.4.6-.7l.4-1 .1-1.4zm4.7-3.4h-2v-1h5.1v1h-2v6.7h2v1h-5v-1h1.9v-6.7zm11.5 7.7h-1.3l-.6-2h-3.5l-.6 2H265l2.8-8.6h1.6l2.8 8.6zm-2.2-3-1.4-4.6-1.5 4.6h3zM161.4 40.2h-4.9v-8.6h1.2v7.6h3.7v1zm7.5 0h-1.5l-2.5-5.4-.7-1.7v7.1h-1v-8.6h1.4l2.4 5 .8 2v-7h1v8.6zm7.8 0h-1.2l-.1-5.4-.1-2-.4 1.2-1.3 3.4h-.8l-1.2-3.3-.4-1.3v2.1l-.1 5.3H170l.4-8.6h1.4l1.1 3.2.4 1.1.3-1 1.2-3.3h1.5l.4 8.6zm6.9 0h-1.2v-4H179v4h-1.2v-8.6h1.2v3.6h3.5v-3.6h1.2v8.6zm7.7 0h-1.1l-.2-5.4v-2l-.4 1.2-1.3 3.4h-.8l-1.2-3.3-.4-1.3v2.1l-.2 5.3h-1l.4-8.6h1.3l1.2 3.2.3 1.1.4-1 1.2-3.3h1.4l.4 8.6zm7 0h-1.6l-2.5-5.4-.7-1.7v7.1h-1v-8.6h1.4l2.4 5 .8 2v-7h1.1v8.6zm8-8.6-3 8.6h-1.5l-2.8-8.6h1.3l1.8 5.8.6 1.7.5-1.7 1.8-5.8h1.3zm3 8.7a2.8 2.8 0 0 1-1.1-.5 2.8 2.8 0 0 1-.9-.8 4.3 4.3 0 0 1-.5-1.3 7.8 7.8 0 0 1-.1-1.7c0-.8 0-1.4.2-2 .2-.6.5-1 .8-1.4a2.8 2.8 0 0 1 1-.9l1.3-.2c.6 0 1 0 1.5.3l1 .8.6 1.4.2 1.8a7 7 0 0 1-.2 1.9c-.2.5-.4 1-.7 1.3a3 3 0 0 1-2 1.3c0 .4.2.7.5 1 .2.1.6.3 1 .3a1.8 1.8 0 0 0 1.2-.5l.5.8a2.7 2.7 0 0 1-.9.5 3 3 0 0 1-.9.2 3 3 0 0 1-1-.2 2.1 2.1 0 0 1-.7-.4 2 2 0 0 1-.5-.7 2.9 2.9 0 0 1-.3-1zm2.8-4.4-.1-1.3a3.3 3.3 0 0 0-.4-1.1 1.9 1.9 0 0 0-.7-.7c-.2-.2-.6-.3-1-.3l-.9.3a2 2 0 0 0-.6.7 3.6 3.6 0 0 0-.4 1l-.1 1.3.1 1.5c0 .4.2.7.4 1 .1.3.3.6.6.7.3.2.6.3 1 .3.3 0 .7-.1 1-.3l.6-.7c.1-.3.3-.6.3-1l.2-1.4zm8.1 4.3h-1.5l-2.5-5.4-.7-1.7v7.1h-1v-8.6h1.4l2.4 5 .8 2v-7h1.1v8.6zm7.3-7.1a4.6 4.6 0 0 0-1-.4 4 4 0 0 0-1-.2c-.5 0-1 .1-1.3.3a2.5 2.5 0 0 0-.9.7l-.5 1a4.8 4.8 0 0 0-.2 1.4c0 .5 0 1 .2 1.4 0 .4.2.8.4 1l.9.8a3 3 0 0 0 1.5.2 6.2 6.2 0 0 0 .3 0 3.3 3.3 0 0 0 .5-.2v-2.7h-1.7v-1h2.9v4.4a5.4 5.4 0 0 1-1.2.4 5.9 5.9 0 0 1-1.2.1 4.3 4.3 0 0 1-1.6-.3 3.2 3.2 0 0 1-1.2-.8c-.3-.3-.6-.8-.7-1.3-.2-.6-.3-1.2-.3-2 0-.6 0-1.2.3-1.8a4 4 0 0 1 .8-1.4 3.5 3.5 0 0 1 1.3-1 4.3 4.3 0 0 1 1.6-.2 5.4 5.4 0 0 1 2.1.4v1.2zm15 7.1H241l-3.2-4.2v4.2h-1.2v-8.6h1.2v4l3.1-4h1.4l-3.4 4 3.5 4.6zm7.5-8.6-.6 8.6H248l-1-3-.3-1-.3 1-1 3h-1.5l-.6-8.6h1.1l.4 5.9V39l.5-1.4 1-3.2h.8l1.2 3.4.4 1.2v-1.2l.4-6.3h1zm7.1 4.2a6.9 6.9 0 0 1-.4 2.2 3.6 3.6 0 0 1-.5 1l-.8.6a4.2 4.2 0 0 1-1.1.5 6.3 6.3 0 0 1-1.5.1H251v-8.6h2.2c1.3 0 2.3.3 3 1 .6.7 1 1.8 1 3.2zm-1.2 0a6 6 0 0 0-.2-1.5c0-.4-.2-.7-.5-1a2 2 0 0 0-.8-.5 3.8 3.8 0 0 0-1.3-.2h-1v6.6h1c1.8 0 2.8-1.1 2.8-3.3zm8.2 2c0 .5 0 .8-.3 1.1a2.2 2.2 0 0 1-.6.8 3.2 3.2 0 0 1-1.1.5 5.7 5.7 0 0 1-1.4.1h-.7a13.9 13.9 0 0 1-.6 0 9.6 9.6 0 0 1-.6-.2 7 7 0 0 1-.5 0v-1.2l1.1.3a8.3 8.3 0 0 0 2.4 0l.6-.3c.2 0 .3-.2.4-.4V38a1 1 0 0 0-.1-.6 1.8 1.8 0 0 0-.5-.4 4.2 4.2 0 0 0-.7-.4l-.8-.3a13.7 13.7 0 0 1-.9-.4 3.6 3.6 0 0 1-.7-.4 2.3 2.3 0 0 1-.5-.7 1.9 1.9 0 0 1-.2-.9l.2-.8c.1-.3.3-.6.6-.8l1-.5c.4-.2.8-.2 1.4-.2a6.6 6.6 0 0 1 1 0 8.7 8.7 0 0 1 1 .2v1a7.4 7.4 0 0 0-1-.1 6.2 6.2 0 0 0-1-.1c-.7 0-1.2.1-1.5.3a1 1 0 0 0-.5 1l.2.5.5.5.8.3a48.4 48.4 0 0 1 2.3 1.2l.5.7.2.9zm7.7-2-.1 1.2a4.5 4.5 0 0 1-.3 1 3.6 3.6 0 0 1-.5 1l-.9.6a4.2 4.2 0 0 1-1 .5l-1.5.1h-1.9v-8.6h2.2c1.4 0 2.4.3 3 1 .7.7 1 1.8 1 3.2zm-1.2 0a6 6 0 0 0-.2-1.5l-.5-1a2 2 0 0 0-.9-.5 3.8 3.8 0 0 0-1.2-.2h-1v6.6h.9c2 0 2.9-1.1 2.9-3.3zM161.8 48.4h-2.5V56H158v-7.6h-2.5v-1h6.2v1zm7 7.3a5.5 5.5 0 0 1-2.1.4c-1.2 0-2.2-.3-2.8-1-.6-.8-1-1.8-1-3.3 0-.7.1-1.3.3-1.8.2-.6.4-1 .8-1.5a3.3 3.3 0 0 1 1.2-.9c.4-.2 1-.3 1.5-.3a5.4 5.4 0 0 1 2.1.4v1.2a4.2 4.2 0 0 0-1-.4 4 4 0 0 0-1-.1c-.4 0-.8 0-1.1.2-.3.1-.6.4-.8.7a3 3 0 0 0-.6 1 5 5 0 0 0-.1 1.4c0 1.1.2 2 .6 2.5.5.6 1.1.9 2 .9a4.3 4.3 0 0 0 2-.5v1.1zm4-7.3h-2v-1h5v1H174V55h2v1h-5.1v-1h2v-6.6zm11 3.2v1.2a4.5 4.5 0 0 1-.4 1 3.6 3.6 0 0 1-.5 1 3.1 3.1 0 0 1-.8.6 4.2 4.2 0 0 1-1.1.5 6.3 6.3 0 0 1-1.5.1h-1.8v-8.6h2.2c1.3 0 2.3.4 3 1 .6.8 1 1.8 1 3.2zm-1.2.1a6 6 0 0 0-.1-1.5c-.2-.4-.3-.8-.6-1a2 2 0 0 0-.8-.6 3.8 3.8 0 0 0-1.2-.2h-1V55h.8c2 0 3-1 3-3.3zm8.5-3.3h-2.5V56h-1.2v-7.6h-2.5v-1h6.2v1zm7.4 7.6H197l-3.2-4.2V56h-1.1v-8.6h1.1v4l3.1-4h1.4l-3.3 4.1 3.5 4.5zm6.6 0h-4.8v-8.6h4.8v1h-3.7V51h3.6v1h-3.6v3h3.7v1zm7.8-7a4.7 4.7 0 0 0-1-.5 4 4 0 0 0-1.1-.1 2.8 2.8 0 0 0-1.2.2 2.5 2.5 0 0 0-1 .7l-.5 1a4.8 4.8 0 0 0-.2 1.5l.2 1.4.5 1 .8.7a3 3 0 0 0 1.5.2h.3a4.3 4.3 0 0 0 .3 0l.2-.2v-2.7H210v-1h2.9v4.4a5.1 5.1 0 0 1-.6.3 5.9 5.9 0 0 1-1.8.3 4.3 4.3 0 0 1-1.6-.3 3.2 3.2 0 0 1-1.1-.8 3.8 3.8 0 0 1-.8-1.4c-.2-.5-.3-1.2-.3-1.9s.1-1.3.3-1.9a4 4 0 0 1 .8-1.4c.4-.4.8-.7 1.3-.9a4.3 4.3 0 0 1 1.7-.3 5.4 5.4 0 0 1 2 .4v1.2zm3.8-.6h-2v-1h5.1v1h-2V55h2v1h-5v-1h2v-6.6zm10.7 7.6h-5v-8.6h1.3V55h3.7v1zm11.3.1a2.8 2.8 0 0 1-1.2-.4 2.8 2.8 0 0 1-.8-.9 4.3 4.3 0 0 1-.5-1.3 7.9 7.9 0 0 1-.2-1.7c0-.7 0-1.4.3-2 .1-.6.4-1 .7-1.4a2.8 2.8 0 0 1 1-.8c.5-.2.9-.3 1.4-.3.5 0 1 .1 1.4.3.4.2.7.5 1 .9.3.4.5.8.6 1.3a7.4 7.4 0 0 1 0 3.7 4.4 4.4 0 0 1-.6 1.3 3 3 0 0 1-2 1.3c0 .4.2.7.4 1 .2.2.6.3 1 .3a1.8 1.8 0 0 0 1.2-.5l.6.9a2.8 2.8 0 0 1-1 .5 3 3 0 0 1-.9.1 3 3 0 0 1-1-.1 2.2 2.2 0 0 1-.7-.5 2 2 0 0 1-.5-.7 2.8 2.8 0 0 1-.2-1zm2.7-4.3-.1-1.4a3.3 3.3 0 0 0-.4-1 1.9 1.9 0 0 0-.7-.8c-.2-.2-.5-.2-1-.2a1.7 1.7 0 0 0-.9.2 2 2 0 0 0-.6.7 3.6 3.6 0 0 0-.4 1 6.3 6.3 0 0 0-.1 1.4l.1 1.4c0 .4.2.8.4 1 .1.4.4.6.6.8l1 .2c.4 0 .7 0 1-.2l.6-.8a3.6 3.6 0 0 0 .4-1 6.6 6.6 0 0 0 0-1.3zm8.9-4.4-3.1 5.6v3H246v-3l-3-5.6h1.3l1.7 3.2.7 1.2.5-1.1 1.8-3.3h1.3zm6.5 8.3a5.5 5.5 0 0 1-2.2.4c-1.2 0-2.1-.3-2.8-1-.6-.8-1-1.8-1-3.3 0-.7.2-1.3.3-1.8.2-.6.5-1 .8-1.5l1.2-.9a3.8 3.8 0 0 1 1.6-.3 5.4 5.4 0 0 1 2 .4v1.2a4.2 4.2 0 0 0-.9-.4 4 4 0 0 0-1-.1c-.5 0-.8 0-1.2.2-.3.1-.6.4-.8.7a3 3 0 0 0-.5 1 5 5 0 0 0-.2 1.4c0 1.1.2 2 .7 2.5.4.6 1 .9 2 .9l1-.1a5 5 0 0 0 1-.4v1.1zm3.8.4a2.8 2.8 0 0 1-1.1-.4 2.8 2.8 0 0 1-.9-.9 4.3 4.3 0 0 1-.5-1.3 7.8 7.8 0 0 1-.1-1.7c0-.7 0-1.4.2-2 .2-.6.5-1 .8-1.4a2.8 2.8 0 0 1 1-.8l1.3-.3c.6 0 1 .1 1.5.3a2.6 2.6 0 0 1 1 .9l.6 1.3.2 1.8a7 7 0 0 1-.2 1.9l-.6 1.3a3 3 0 0 1-2 1.3c0 .4.1.7.4 1 .2.2.6.3 1 .3a1.8 1.8 0 0 0 1.2-.5l.5.9a2.8 2.8 0 0 1-.8.5 3 3 0 0 1-1 .1 3 3 0 0 1-1-.1 2.1 2.1 0 0 1-.7-.5 2 2 0 0 1-.5-.7 2.9 2.9 0 0 1-.3-1zm2.8-4.3-.1-1.4a3.3 3.3 0 0 0-.4-1 1.9 1.9 0 0 0-.7-.8c-.2-.2-.5-.2-1-.2-.3 0-.6 0-.9.2a2 2 0 0 0-.6.7l-.4 1a6.3 6.3 0 0 0-.1 1.4l.1 1.4c0 .4.2.8.4 1 .1.4.4.6.6.8l1 .2c.3 0 .7 0 1-.2l.6-.8.4-1v-1.3zm7.7 4.2h-4.9v-8.6h4.9v1h-3.7V51h3.5v1h-3.5v3h3.7v1zm-113.4 99.2h-1.2l-.1-5.4-.1-2-.4 1.1-1.3 3.5h-.8l-1.2-3.3-.4-1.4v2.2l-.1 5.3H151l.4-8.6h1.4l1.1 3.2.4 1 .3-1 1.2-3.2h1.4l.5 8.6zm6.7 0h-5v-8.6h1.3v7.6h3.7v1zm7.5-6c0 .3 0 .7-.2 1-.1.4-.3.7-.6 1a3.1 3.1 0 0 1-1 .6c-.5.2-1 .3-1.6.3h-1v3h-1.2v-8.5h2.4l1.2.1c.4 0 .8.2 1 .5.4.2.6.4.8.8l.2 1.2zm-1.2 0c0-.5-.2-1-.5-1.2-.4-.3-.9-.5-1.5-.5h-1.2v3.6h1c.8 0 1.3-.2 1.7-.5.3-.3.5-.7.5-1.4zm8.5-1.2a4.7 4.7 0 0 0-1-.4 4 4 0 0 0-1-.1c-.5 0-1 0-1.3.2a2.5 2.5 0 0 0-.9.7l-.5 1a4.8 4.8 0 0 0-.2 1.5l.1 1.4.5 1c.2.3.5.6.9.7.3.2.7.2 1.2.2a4.5 4.5 0 0 0 .6 0 3.9 3.9 0 0 0 .5-.1v-2.8h-1.8v-1h3v4.5a5 5 0 0 1-.6.2 5.9 5.9 0 0 1-1.9.3 4.3 4.3 0 0 1-1.5-.3 3.2 3.2 0 0 1-1.2-.8c-.3-.4-.6-.8-.8-1.4l-.2-1.8c0-.8 0-1.4.3-2a4 4 0 0 1 .8-1.4 3.5 3.5 0 0 1 1.3-.9 4.3 4.3 0 0 1 1.6-.3 5.4 5.4 0 0 1 2 .5v1.1zm7.2 7.2h-5v-8.6h1.3v7.6h3.7v1zm8.2 0h-1.3l-.6-2h-3.5l-.6 2h-1.2l2.8-8.6h1.6l2.8 8.6zm-2.2-3-1.5-4.6-1.4 4.6h2.9zm8.6 3h-4.9v-8.6h1.2v7.6h3.7v1zm7.4 0h-5v-8.6h1.2v7.6h3.8v1zm7.3 0h-4.9v-8.6h1.2v7.6h3.7v1zm7.3 0h-4.9v-8.6h1.2v7.6h3.7v1zm15.5 0h-1.2l-.6-2H233l-.6 2h-1.2l2.9-8.6h1.5l2.8 8.6zm-2.2-3-1.4-4.6-1.4 4.6h2.8zm9.6 3h-1.3l-.6-2h-3.5l-.6 2h-1.2l2.8-8.6h1.6l2.8 8.6zm-2.2-3-1.5-4.6-1.4 4.6h2.9zm9.3-5.6-.6 8.6h-1.5l-1-3.1-.4-1-.3 1-1 3h-1.4l-.6-8.5h1.1l.3 5.8.1 1.6.4-1.3 1-3.2h.9l1.2 3.4.4 1.1v-1.2l.3-6.2h1zm7 1h-2.5v7.6h-1.2v-7.6h-2.5v-1h6.2v1zm7.8 7.6h-1.2l-.6-2h-3.6l-.5 2h-1.3l2.9-8.6h1.6l2.7 8.6zm-2.1-3-1.5-4.6-1.4 4.6h2.9zm9 3h-1.3l-1.2-2.8a3 3 0 0 0-.3-.5l-.3-.3a1 1 0 0 0-.4-.2 1.8 1.8 0 0 0-.5 0h-.5v3.8H269v-8.6h2.3l1.3.1.8.5c.3.2.4.4.5.7.2.3.2.6.2 1l-.1.7a2.1 2.1 0 0 1-.4.6 2.2 2.2 0 0 1-.5.5 2.6 2.6 0 0 1-.8.4c.2 0 .4.2.6.4l.5.8 1.4 2.9zm-1.8-6.3c0-.4-.1-.8-.4-1-.3-.2-.7-.4-1.2-.4h-1.1v2.9h1l.6-.1c.3 0 .5-.2.6-.3l.4-.5.1-.6zm-115.6 16-.2 1-.6 1a3.1 3.1 0 0 1-1 .7l-1.6.2h-1v3.1h-1.2v-8.6h2.4l1.2.1 1 .5.7.8c.2.3.3.7.3 1.2zm-1.2 0c0-.5-.2-.9-.6-1.2-.3-.3-.8-.4-1.5-.4h-1.2v3.5h1.1c.7 0 1.2-.1 1.6-.4.4-.3.6-.8.6-1.4zm8.6-1.6h-2.5v7.6h-1.1v-7.6h-2.6v-1h6.2v1zm7.5 3.2-.1 1.2a4.5 4.5 0 0 1-.3 1 3.6 3.6 0 0 1-.6 1l-.8.6a4.2 4.2 0 0 1-1.1.4 6.3 6.3 0 0 1-1.5.2H166v-8.6h2.2c1.3 0 2.3.3 3 1 .6.7 1 1.8 1 3.2zm-1.3 0a6 6 0 0 0-.1-1.5l-.5-1a2 2 0 0 0-1-.5 3.8 3.8 0 0 0-1.1-.2h-1v6.6h.8c2 0 3-1.1 3-3.3zm8.3-2.7a4.7 4.7 0 0 0-1-.4 4 4 0 0 0-1-.2c-.5 0-1 .1-1.3.3a2.5 2.5 0 0 0-.9.7l-.5 1a4.8 4.8 0 0 0-.2 1.4l.1 1.4.5 1c.2.4.5.6.9.8l1.2.2a5.4 5.4 0 0 0 .6 0 4.5 4.5 0 0 0 .5-.2V167h-1.8v-1h3v4.4a5 5 0 0 1-.6.2 5.9 5.9 0 0 1-1.9.3 4.3 4.3 0 0 1-1.5-.3 3.2 3.2 0 0 1-1.2-.8l-.8-1.3-.2-2c0-.6 0-1.3.3-1.8a4 4 0 0 1 .8-1.4c.3-.4.8-.7 1.3-1a4.3 4.3 0 0 1 1.6-.2 5.4 5.4 0 0 1 2 .4v1.2zm7.3 7.1H185l-2.5-5.4-.7-1.7v7.1h-1v-8.6h1.4l2.4 5 .8 2v-7h1.1v8.6zm8 0h-1.2l-.6-1.9h-3.5l-.6 1.9h-1.2l2.8-8.6h1.6l2.8 8.6zm-2.1-3-1.5-4.5-1.4 4.6h2.9zm8.8-4.1a4.6 4.6 0 0 0-1-.4 4 4 0 0 0-1.1-.2c-.5 0-.9.1-1.2.3a2.5 2.5 0 0 0-.9.7l-.5 1a4.8 4.8 0 0 0-.2 1.4l.1 1.4.5 1c.2.4.5.6.9.8l1.2.2a5.6 5.6 0 0 0 .5 0 4.3 4.3 0 0 0 .3-.1h.3V167h-1.8v-1h3v4.4a5 5 0 0 1-.7.2 5.9 5.9 0 0 1-1.8.3 4.3 4.3 0 0 1-1.5-.3 3.2 3.2 0 0 1-1.2-.8c-.4-.3-.6-.8-.8-1.3-.2-.6-.2-1.2-.2-2 0-.6 0-1.3.2-1.8a4 4 0 0 1 .9-1.4 3.5 3.5 0 0 1 1.2-1 4.3 4.3 0 0 1 1.7-.2 5.4 5.4 0 0 1 2 .4v1.2zm7.2 7.1h-5v-8.6h1.2v7.6h3.8v1zm7.3 0h-4.9v-8.6h1.2v7.6h3.7v1zm8.2 0h-1.3l-.6-1.9h-3.5l-.6 1.9h-1.2l2.8-8.6h1.6l2.8 8.6zm-2.2-3-1.5-4.5-1.4 4.6h2.9zm15.7 3h-4.8v-8.6h4.8v1h-3.7v2.6h3.6v1h-3.6v3h3.7v1zm7.8-6c0 .4 0 .7-.2 1-.1.4-.3.7-.6 1a3.1 3.1 0 0 1-1 .7l-1.6.2h-1v3.1h-1.2v-8.6h2.4l1.2.1a2.8 2.8 0 0 1 1 .5c.3.2.6.5.7.8.2.3.3.7.3 1.2zm-1.2 0c0-.5-.2-.9-.5-1.2-.4-.3-.9-.4-1.5-.4h-1.2v3.5h1c.7 0 1.3-.1 1.6-.4.4-.3.6-.8.6-1.4zm5 6a2.8 2.8 0 0 1-1.2-.4 2.8 2.8 0 0 1-.8-.8 4.3 4.3 0 0 1-.5-1.3 7.8 7.8 0 0 1-.2-1.7c0-.8 0-1.5.3-2 .1-.6.4-1 .7-1.4a2.8 2.8 0 0 1 1-.9l1.4-.2c.5 0 1 0 1.4.3l1 .8c.3.4.5.9.6 1.4l.2 1.8a7 7 0 0 1-.2 1.8l-.6 1.4a3 3 0 0 1-1 .9 3.1 3.1 0 0 1-1 .4c0 .4.2.7.4 1 .2.1.6.3 1 .3l.6-.1.6-.4.6.8a2.8 2.8 0 0 1-1 .5 3 3 0 0 1-.9.2 3 3 0 0 1-1-.2 2.2 2.2 0 0 1-.7-.4 2 2 0 0 1-.5-.7 2.9 2.9 0 0 1-.2-1zm2.7-4.3-.1-1.4a3.4 3.4 0 0 0-.4-1 1.9 1.9 0 0 0-.6-.7c-.3-.2-.6-.3-1-.3s-.7.1-1 .3a2 2 0 0 0-.6.7l-.4 1a6.3 6.3 0 0 0-.1 1.3l.1 1.4c0 .5.2.8.4 1.1.1.3.4.6.6.7.3.2.6.3 1 .3s.7-.1 1-.3l.6-.7a3.5 3.5 0 0 0 .4-1v-1.4zm4.6-3.3h-2v-1h5.2v1h-2v6.6h2v1h-5.1v-1h2v-6.6zm11.5 7.6h-1.2l-.6-1.9h-3.6l-.5 1.9h-1.3l2.9-8.6h1.6l2.7 8.6zm-2.1-3-1.5-4.5-1.4 4.6h2.9zm9.2 3h-1.1l-.2-5.4v-2l-.5 1.2-1.2 3.4h-.8l-1.2-3.3-.4-1.3v2.1l-.2 5.3h-1l.3-8.6h1.4l1.2 3.2.3 1.1.4-1 1.2-3.3h1.4l.4 8.6zm-117.8 15.7h-5V178h1.2v7.6h3.8v1zm7.4 0H163l-2.5-5.3-.7-1.8v7.1h-1V178h1.4l2.4 5.1.9 2v-7h1v8.5zm7.8 0h-1.1l-.2-5.3v-2l-.5 1.1-1.2 3.4h-.8l-1.2-3.3-.4-1.3v2.2l-.2 5.2h-1l.3-8.6h1.4l1.2 3.3.3 1 .4-1 1.2-3.3h1.4l.4 8.6zm7 0H178v-4h-3.6v4h-1.1V178h1.1v3.7h3.6v-3.7h1.1v8.6zm7.7 0h-1.2l-.1-5.3-.1-2-.4 1.1-1.3 3.4h-.8l-1.2-3.3-.3-1.3v2.2l-.2 5.2h-1.1l.4-8.6h1.4l1.1 3.3.4 1 .3-1 1.3-3.3h1.4l.4 8.6zm6.9 0h-1.6l-2.4-5.3-.8-1.8v7.1h-1V178h1.5l2.3 5.1.9 2v-7h1v8.5zm8-8.6-2.9 8.6h-1.5l-2.9-8.6h1.4l1.8 5.8.5 1.7.5-1.7 1.9-5.8h1.2zm3 8.7a2.8 2.8 0 0 1-1-.4 2.8 2.8 0 0 1-1-.9 4.3 4.3 0 0 1-.4-1.3 7.8 7.8 0 0 1-.2-1.7c0-.7.1-1.4.3-2l.7-1.4a2.9 2.9 0 0 1 1-.8l1.4-.3c.5 0 1 .1 1.4.3.4.2.8.5 1 .9.3.3.5.8.6 1.3a7.4 7.4 0 0 1 0 3.7 4.4 4.4 0 0 1-.6 1.3 3 3 0 0 1-1 .9 3 3 0 0 1-1 .4c0 .4.2.7.4 1a1.8 1.8 0 0 0 1.6.3l.7-.5.5.8a2.8 2.8 0 0 1-1 .6 3 3 0 0 1-.8.1 3 3 0 0 1-1-.1 2.2 2.2 0 0 1-.8-.5 2 2 0 0 1-.5-.7 2.9 2.9 0 0 1-.2-1zm2.8-4.3-.1-1.4a3.3 3.3 0 0 0-.4-1 1.9 1.9 0 0 0-.6-.8c-.3-.2-.6-.3-1-.3-.3 0-.7.1-1 .3a2 2 0 0 0-.6.7l-.4 1a6.3 6.3 0 0 0 0 1.4v1.4c.1.4.2.8.4 1 .2.4.4.6.7.8l1 .2c.3 0 .6 0 .9-.2l.6-.8.4-1 .1-1.3zm8.1 4.2h-1.5l-2.5-5.3-.7-1.8v7.1h-1V178h1.4l2.4 5.1.9 2v-7h1v8.5zm7.4-7.1a4.6 4.6 0 0 0-1-.4 4 4 0 0 0-1.1-.1 2.9 2.9 0 0 0-1.2.2 2.5 2.5 0 0 0-1 .7l-.5 1a4.8 4.8 0 0 0-.2 1.4l.2 1.5.5 1 .8.7a3 3 0 0 0 1.5.2h.3a4.6 4.6 0 0 0 .3 0l.2-.2v-2.7h-1.7v-1h2.9v4.4a5.5 5.5 0 0 1-1.2.4 5.9 5.9 0 0 1-1.2.2 4.3 4.3 0 0 1-1.6-.3 3.2 3.2 0 0 1-1.1-.8 3.8 3.8 0 0 1-.8-1.4c-.2-.5-.3-1.2-.3-1.9s.1-1.3.3-1.9a4 4 0 0 1 .9-1.4 3.5 3.5 0 0 1 1.2-.9 4.3 4.3 0 0 1 1.7-.3 5.4 5.4 0 0 1 2 .4v1.2zm14.9 7.1h-1.5l-3.2-4.2v4.2h-1.1V178h1.1v4l3.2-4h1.3l-3.3 4.1 3.5 4.5zm7.5-8.6-.5 8.6h-1.5l-1.1-3-.3-1-.3 1-1 3h-1.4l-.6-8.6h1l.4 5.9.1 1.6.4-1.4 1-3.2h.8l1.2 3.5.4 1v-1l.4-6.4h1zm7.2 4.2a7 7 0 0 1-.4 2.3 3.6 3.6 0 0 1-.6.9c-.2.2-.5.5-.8.6a4.2 4.2 0 0 1-1 .5 6.3 6.3 0 0 1-1.5.1h-1.9V178h2.2c1.4 0 2.3.4 3 1 .6.8 1 1.8 1 3.2zm-1.2.1a6 6 0 0 0-.2-1.5l-.5-1a2 2 0 0 0-.9-.6 3.8 3.8 0 0 0-1.2-.2h-1v6.6h.9c1.9 0 2.9-1 2.9-3.3zm8.1 2c0 .4 0 .8-.2 1a2.2 2.2 0 0 1-.7.8 3.2 3.2 0 0 1-1 .5 5.7 5.7 0 0 1-1.4.2 9 9 0 0 1-.7 0l-.7-.1a8.2 8.2 0 0 1-1-.2v-1.2a6 6 0 0 0 1 .3 8.1 8.1 0 0 0 2.4 0l.6-.2.4-.5a1.3 1.3 0 0 0 .1-.5 1 1 0 0 0-.2-.6 1.8 1.8 0 0 0-.5-.5 4.2 4.2 0 0 0-.7-.3l-.8-.4a13.4 13.4 0 0 1-.8-.3 3.6 3.6 0 0 1-.7-.5 2.3 2.3 0 0 1-.5-.6 1.9 1.9 0 0 1-.2-1c0-.2 0-.5.2-.8 0-.3.3-.5.5-.7.3-.3.6-.5 1-.6l1.4-.2a6.7 6.7 0 0 1 1 0 8.6 8.6 0 0 1 1 .3v1a7.5 7.5 0 0 0-1-.2 6.3 6.3 0 0 0-1 0c-.6 0-1.1 0-1.4.3a1 1 0 0 0-.5.9c0 .2 0 .4.2.6l.5.4.7.4a52 52 0 0 1 2.3 1.2c.3.1.4.4.5.6.2.3.2.6.2.9zm7.7-2v1.1a4.5 4.5 0 0 1-.4 1 3.6 3.6 0 0 1-.5 1c-.2.2-.5.5-.8.6a4.2 4.2 0 0 1-1.1.5 6.3 6.3 0 0 1-1.5.1h-1.8V178h2.2c1.3 0 2.3.4 3 1 .6.8 1 1.8 1 3.2zm-1.2 0a6 6 0 0 0-.2-1.5c0-.4-.2-.8-.5-1a2 2 0 0 0-.8-.6 3.8 3.8 0 0 0-1.3-.2h-1v6.6h1c1.9 0 2.8-1 2.8-3.3zm8.3-1.6c0 .3 0 .7-.2 1a2.6 2.6 0 0 1-.6 1 3.1 3.1 0 0 1-1 .6c-.5.2-1 .2-1.5.2H270v3.1h-1.2V178h2.4c.5 0 .9 0 1.2.2.4 0 .8.2 1 .4.4.2.6.5.8.8l.2 1.3zm-1.2 0c0-.5-.2-1-.5-1.3-.4-.3-.9-.4-1.5-.4H270v3.5h1c.8 0 1.3-.1 1.7-.4.3-.3.5-.8.5-1.4zm-115.9 14H155v7.7h-1.2v-7.6h-2.5v-1h6.2v1zm7 7.4a5.5 5.5 0 0 1-2 .4c-1.3 0-2.2-.4-2.9-1.1-.6-.7-1-1.8-1-3.2 0-.7.2-1.3.3-1.9.2-.6.5-1 .8-1.4.3-.4.7-.7 1.2-1l1.6-.2a5.4 5.4 0 0 1 2 .4v1.1a4.2 4.2 0 0 0-.9-.4 4 4 0 0 0-1-.1c-.5 0-.8 0-1.2.2l-.8.7a3 3 0 0 0-.5 1 5 5 0 0 0-.2 1.5c0 1 .2 2 .7 2.5.4.5 1 .8 2 .8a4.3 4.3 0 0 0 2-.5v1.2zm4-7.3h-2v-1h5.1v1h-2v6.6h2v1h-5v-1h1.9v-6.6zm11 3.2a6.9 6.9 0 0 1-.3 2.2 3.6 3.6 0 0 1-.5.9 3.1 3.1 0 0 1-.9.7 4.2 4.2 0 0 1-1 .4 6.3 6.3 0 0 1-1.5.2h-1.9v-8.6h2.2c1.4 0 2.4.3 3 1 .7.7 1 1.8 1 3.2zm-1.1 0a6 6 0 0 0-.2-1.5l-.5-1a2 2 0 0 0-.9-.6 3.8 3.8 0 0 0-1.2-.1h-1v6.6h.9c1.9 0 2.9-1.1 2.9-3.3zm8.4-3.2h-2.5v7.6H183v-7.6h-2.5v-1h6.2v1zm7.4 7.6h-1.5l-3.1-4.2v4.2h-1.2v-8.6h1.2v4l3-4h1.5l-3.4 4 3.5 4.6zm6.7 0h-4.9v-8.6h4.9v1H197v2.6h3.5v1h-3.5v3h3.7v1zm7.7-7.2a4.7 4.7 0 0 0-1-.4 3.9 3.9 0 0 0-1-.1 2.8 2.8 0 0 0-1.3.2 2.5 2.5 0 0 0-.9.7l-.5 1.1a4.8 4.8 0 0 0-.2 1.4l.1 1.4.5 1c.3.4.5.6.9.7a3 3 0 0 0 1.5.2 7.2 7.2 0 0 0 .6 0l.2-.1v-2.8h-1.7v-1h2.8v4.5a5.2 5.2 0 0 1-.5.2 5.9 5.9 0 0 1-1.8.3 4.3 4.3 0 0 1-1.6-.3 3.2 3.2 0 0 1-1.2-.8c-.3-.4-.6-.8-.8-1.4l-.2-1.8c0-.7 0-1.4.3-2a4 4 0 0 1 .8-1.4 3.5 3.5 0 0 1 1.3-.8 4.3 4.3 0 0 1 1.6-.4 5.4 5.4 0 0 1 2.1.5v1.1zm3.9-.4h-2v-1h5v1h-1.9v6.6h2v1h-5.1v-1h2v-6.6zm10.6 7.6h-4.9v-8.6h1.2v7.6h3.7v1zm11.3 0a2.8 2.8 0 0 1-1.2-.4 2.8 2.8 0 0 1-.8-.9 4.3 4.3 0 0 1-.5-1.3 7.9 7.9 0 0 1-.2-1.6c0-.8.1-1.5.3-2l.7-1.5a2.9 2.9 0 0 1 1.1-.8c.4-.2.8-.3 1.3-.3s1 .1 1.4.3a2.6 2.6 0 0 1 1 1c.3.3.5.7.6 1.3.2.5.2 1.1.2 1.8a7 7 0 0 1-.2 1.8c-.1.6-.3 1-.6 1.4a3 3 0 0 1-2 1.3c0 .3.2.6.4.9a1.8 1.8 0 0 0 2.2-.1l.6.8a2.8 2.8 0 0 1-.9.5 3 3 0 0 1-1 .1 3 3 0 0 1-.9-.1 2.2 2.2 0 0 1-.7-.4 2 2 0 0 1-.6-.8 2.9 2.9 0 0 1-.2-1zm2.7-4.3v-1.4a3.3 3.3 0 0 0-.4-1 1.9 1.9 0 0 0-.7-.8l-1-.2c-.3 0-.6 0-1 .3a2 2 0 0 0-.6.7c-.1.3-.3.6-.3 1l-.2 1.3c0 .5 0 1 .2 1.4 0 .4.2.8.3 1.1l.7.7c.2.2.6.3 1 .3l.9-.3c.2-.2.5-.4.6-.7l.4-1 .1-1.4zm9-4.3-3.2 5.5v3h-1.1v-3l-3.1-5.5h1.4l1.7 3.1.6 1.3.6-1.2 1.7-3.2h1.3zm6.4 8.3a5.5 5.5 0 0 1-2.1.4c-1.2 0-2.2-.4-2.8-1.1-.7-.7-1-1.8-1-3.2 0-.7.1-1.3.3-1.9.2-.6.4-1 .8-1.4l1.1-1a3.8 3.8 0 0 1 1.6-.2 5.4 5.4 0 0 1 2.1.4v1.1a4.2 4.2 0 0 0-1-.4 4 4 0 0 0-1-.1c-.4 0-.8 0-1.1.2l-.8.7a3 3 0 0 0-.6 1 5 5 0 0 0-.1 1.5c0 1 .2 2 .6 2.5.5.5 1.1.8 2 .8a4.3 4.3 0 0 0 1 0 5 5 0 0 0 1-.5v1.2zm3.9.4a2.8 2.8 0 0 1-1.2-.5 2.8 2.8 0 0 1-.8-.9 4.3 4.3 0 0 1-.5-1.3 7.8 7.8 0 0 1-.2-1.6c0-.8.1-1.5.3-2l.7-1.5a2.9 2.9 0 0 1 1-.8l1.4-.3c.5 0 1 .1 1.4.3.4.2.8.5 1 1 .3.3.5.7.6 1.3.2.5.2 1.1.2 1.8a7 7 0 0 1-.2 1.8 4.4 4.4 0 0 1-.6 1.4 3 3 0 0 1-1 .8 3.1 3.1 0 0 1-1 .5c0 .3.2.6.4.9a1.8 1.8 0 0 0 1.6.3l.7-.4.5.8a2.8 2.8 0 0 1-.9.5 3 3 0 0 1-1 .1 3 3 0 0 1-.9-.1 2.2 2.2 0 0 1-.8-.4 2 2 0 0 1-.5-.8 2.9 2.9 0 0 1-.2-1zm2.7-4.4-.1-1.4a3.3 3.3 0 0 0-.4-1 1.9 1.9 0 0 0-.6-.8l-1-.2a1.7 1.7 0 0 0-1 .3 2 2 0 0 0-.6.7c-.1.3-.3.6-.3 1l-.2 1.3.1 1.4.4 1.1.7.7c.2.2.5.3 1 .3l.9-.3.6-.7.4-1 .1-1.4zm7.7 4.3H262v-8.6h4.8v1H263v2.6h3.6v1H263v3h3.7v1zm8.5-8.6-2.9 8.6h-1.5l-2.9-8.6h1.3l1.9 5.8.5 1.7.5-1.7 1.9-5.8h1.2zm-112.1 35H162l-.2-5.3v-2l-.5 1.1-1.2 3.5h-.8l-1.2-3.3-.4-1.4v2.2l-.2 5.3h-1l.3-8.6h1.4l1.1 3.2.4 1.1.4-1 1.2-3.3h1.4l.4 8.6zm6.7 0H165v-8.5h1.2v7.6h3.7v1zm7.6-5.9-.2 1-.6 1a3.1 3.1 0 0 1-1 .6c-.5.2-1 .3-1.6.3h-1v3h-1.2v-8.5h2.4l1.2.1 1 .5c.3.2.5.4.7.8.2.3.3.7.3 1.2zm-1.2 0c0-.5-.2-1-.6-1.2-.3-.3-.8-.5-1.5-.5H173v3.6h1.1c.7 0 1.2-.2 1.6-.5.4-.3.6-.7.6-1.3zm8.4-1.2a4.7 4.7 0 0 0-1-.4 4 4 0 0 0-1-.1 2.8 2.8 0 0 0-1.2.2 2.5 2.5 0 0 0-1 .7 3.2 3.2 0 0 0-.5 1.1 4.8 4.8 0 0 0-.2 1.4c0 .5 0 1 .2 1.4 0 .4.2.8.5 1 .2.4.5.6.8.7a3 3 0 0 0 1.5.2h.3a3.8 3.8 0 0 0 .3 0 1.9 1.9 0 0 0 .2-.1v-2.8h-1.7v-1h2.9v4.5a5 5 0 0 1-.6.2 5.9 5.9 0 0 1-1.8.3 4.3 4.3 0 0 1-1.6-.3 3.2 3.2 0 0 1-1.2-.8c-.3-.4-.6-.8-.7-1.4a5.7 5.7 0 0 1 0-3.8 4 4 0 0 1 .8-1.4 3.5 3.5 0 0 1 1.3-.8 4.3 4.3 0 0 1 1.6-.4 5.4 5.4 0 0 1 2.1.5v1.1zm7.2 7.2H187v-8.6h1.2v7.6h3.7v1zm8.2 0h-1.3l-.6-1.9h-3.5l-.6 1.9h-1.2l2.8-8.6h1.6l2.8 8.6zm-2.2-3-1.4-4.6-1.5 4.7h3zm8.7 3h-5v-8.6h1.3v7.6h3.7v1zm7.3 0H209v-8.6h1.2v7.6h3.7v1zm7.3 0h-4.9v-8.6h1.2v7.6h3.7v1zm7.4 0h-5v-8.6h1.2v7.6h3.8v1zm15.5 0h-1.3l-.6-1.9h-3.5l-.6 1.9h-1.2l2.8-8.6h1.6l2.8 8.6zm-2.2-3-1.5-4.6-1.4 4.7h2.9zm9.5 3H250l-.6-1.9H246l-.6 1.9h-1.2l2.8-8.6h1.6l2.8 8.6zm-2.2-3-1.4-4.6-1.5 4.7h3zm9.3-5.6-.6 8.6h-1.5l-1-3-.3-1-.3 1-1 3h-1.5l-.5-8.6h1l.4 5.8v1.6l.5-1.3 1-3.2h.8l1.2 3.4.4 1.1v-1.2l.4-6.2h1zm7 1H263v7.6h-1.1v-7.6h-2.5v-1h6.2v1zm7.9 7.6H272l-.6-1.9H268l-.6 1.9h-1.2l2.8-8.6h1.6l2.8 8.6zm-2.2-3-1.4-4.6-1.5 4.7h2.9zm-108.4 12.7c0 .4 0 .7-.2 1-.1.4-.3.7-.6 1a3.1 3.1 0 0 1-1 .7l-1.6.2h-1v3.1H157V236h2.4c.4 0 .8 0 1.2.2.4 0 .8.2 1 .4.3.2.6.5.7.8l.3 1.2zm-1.2 0c0-.5-.2-.9-.5-1.2-.4-.3-.9-.4-1.5-.4h-1.2v3.5h1c.7 0 1.3-.1 1.6-.4.4-.3.6-.8.6-1.4zm8.7-1.6h-2.5v7.6h-1.2V237H164v-1h6.2v1zm7.4 3.2v1.2a4.5 4.5 0 0 1-.4 1 3.6 3.6 0 0 1-.5 1 3.1 3.1 0 0 1-.8.6 4.2 4.2 0 0 1-1.2.5 6.3 6.3 0 0 1-1.4.1h-1.8V236h2.2c1.3 0 2.3.4 3 1 .6.7.9 1.8.9 3.2zm-1.2.1a6 6 0 0 0-.2-1.5c0-.5-.3-.8-.5-1a2 2 0 0 0-.9-.6l-1.2-.2h-1v6.6h.9c2 0 2.9-1.1 2.9-3.3zm8.2-2.8a4.6 4.6 0 0 0-1-.4 4 4 0 0 0-1-.2c-.5 0-.9.1-1.2.3a2.5 2.5 0 0 0-1 .7l-.5 1a4.8 4.8 0 0 0-.2 1.4c0 .6 0 1 .2 1.4 0 .5.2.8.5 1.1l.8.7 1.3.2a4.7 4.7 0 0 0 .5 0 3.8 3.8 0 0 0 .5-.2v-2.7h-1.7v-1h2.9v4.4a5 5 0 0 1-.6.2 5.9 5.9 0 0 1-1.8.3 4.3 4.3 0 0 1-1.6-.2 3.2 3.2 0 0 1-1.2-.9c-.3-.3-.6-.8-.7-1.3-.2-.6-.3-1.2-.3-1.9s.1-1.3.3-1.9a4 4 0 0 1 .8-1.4 3.5 3.5 0 0 1 1.3-.9 4.3 4.3 0 0 1 1.6-.3 5.4 5.4 0 0 1 2.1.4v1.2zm7.4 7.1h-1.5l-2.5-5.4-.7-1.7v7.1h-1.1V236h1.5l2.3 5 .9 2v-7h1v8.6zm8 0h-1.3l-.6-1.9h-3.5l-.6 2h-1.2l2.8-8.7h1.6l2.8 8.6zm-2.2-3-1.4-4.5-1.5 4.6h3zm8.8-4.1a4.6 4.6 0 0 0-1-.4 4 4 0 0 0-1-.2c-.5 0-1 .1-1.3.3a2.5 2.5 0 0 0-.9.7l-.5 1a4.8 4.8 0 0 0-.2 1.4c0 .6 0 1 .2 1.4 0 .5.2.8.5 1.1l.8.7 1.2.2a4.7 4.7 0 0 0 .6 0 4 4 0 0 0 .5-.2v-2.7h-1.7v-1h2.9v4.4a5 5 0 0 1-.6.2 5.9 5.9 0 0 1-1.8.3 4.3 4.3 0 0 1-1.6-.2 3.2 3.2 0 0 1-1.2-.9c-.3-.3-.6-.8-.7-1.3-.2-.6-.3-1.2-.3-1.9s0-1.3.3-1.9a4 4 0 0 1 .8-1.4 3.5 3.5 0 0 1 1.3-.9 4.3 4.3 0 0 1 1.6-.3 5.4 5.4 0 0 1 2.1.4v1.2zm7.2 7.1H209V236h1.2v7.6h3.7v1zm7.3 0h-4.9V236h1.2v7.6h3.7v1zm8.2 0h-1.2l-.6-1.9h-3.6l-.6 2h-1.2l2.8-8.7h1.6l2.8 8.6zm-2.2-3-1.4-4.5-1.4 4.6h2.8zm15.8 3H238V236h4.9v1h-3.7v2.7h3.5v1h-3.5v3h3.7v1zm7.8-6-.2 1-.6 1a3.1 3.1 0 0 1-1.1.7l-1.5.2h-1v3.1H245V236h2.4c.4 0 .8 0 1.2.2.4 0 .7.2 1 .4l.7.8.3 1.2zm-1.3 0c0-.5-.1-.9-.5-1.2-.3-.3-.8-.4-1.5-.4h-1.2v3.5h1.1c.7 0 1.2-.1 1.6-.4.4-.3.5-.8.5-1.4zm5 6a2.8 2.8 0 0 1-1.2-.3 2.8 2.8 0 0 1-.8-1 4.3 4.3 0 0 1-.5-1.2 7.9 7.9 0 0 1-.2-1.7c0-.8.1-1.4.3-2l.7-1.4a2.8 2.8 0 0 1 1.1-.8c.4-.2.8-.3 1.3-.3s1 0 1.4.3c.4.2.8.5 1 .9.3.3.5.8.6 1.3a7.4 7.4 0 0 1 0 3.7 4.4 4.4 0 0 1-.6 1.3 3 3 0 0 1-2 1.3c0 .4.2.7.4 1a1.8 1.8 0 0 0 1.6.3l.7-.5.5.8a2.8 2.8 0 0 1-.9.5 3 3 0 0 1-1 .2 3 3 0 0 1-.9-.2 2.1 2.1 0 0 1-.7-.4 2.1 2.1 0 0 1-.6-.7 2.9 2.9 0 0 1-.2-1zm2.7-4.2a7.6 7.6 0 0 0 0-1.4 3.4 3.4 0 0 0-.4-1.1 1.9 1.9 0 0 0-.7-.7c-.3-.2-.6-.3-1-.3l-1 .3a2 2 0 0 0-.6.7l-.3 1a6.3 6.3 0 0 0-.2 1.3c0 .6 0 1 .2 1.5 0 .4.2.7.3 1 .2.4.4.6.7.8l1 .2c.3 0 .6 0 .9-.3.2-.1.5-.4.6-.7l.4-1 .1-1.3zm4.7-3.4h-2v-1h5.1v1h-2v6.6h2v1h-5v-1h1.9V237zm11.5 7.6H272l-.6-1.9H268l-.6 2h-1.2l2.8-8.7h1.6l2.8 8.6zm-2.2-3-1.4-4.5-1.5 4.6h2.9zm-108.6 18.8h-4.9v-8.7h1.2v7.7h3.7v1zm7.5 0h-1.5l-2.5-5.4-.7-1.7v7h-1.1v-8.6h1.5l2.4 5.1.8 2v-7h1v8.6zm7.8 0h-1.2l-.1-5.4-.1-2-.4 1.1-1.3 3.4h-.8l-1.2-3.2-.4-1.4v2.2l-.1 5.3H171l.4-8.7h1.4l1.1 3.3.4 1 .3-1 1.2-3.3h1.5l.4 8.7zm6.9 0h-1.2v-4H180v4h-1.2v-8.7h1.2v3.7h3.5v-3.7h1.2v8.7zm7.7 0h-1.1l-.2-5.4v-2l-.5 1.1-1.2 3.4h-.8l-1.2-3.2-.4-1.4v2.2l-.2 5.3h-1l.3-8.7h1.4l1.2 3.3.3 1 .4-1 1.2-3.3h1.4l.4 8.7zm6.9 0h-1.5l-2.5-5.4-.7-1.7v7h-1v-8.6h1.4l2.4 5.1.8 2v-7h1.1v8.6zm8-8.7-2.8 8.7h-1.6l-2.8-8.7h1.3l1.8 5.8.6 1.7.5-1.7 1.8-5.8h1.3zm3.1 8.7a2.8 2.8 0 0 1-1.1-.4 2.8 2.8 0 0 1-.9-.9 4.3 4.3 0 0 1-.5-1.3 7.8 7.8 0 0 1-.1-1.6c0-.8 0-1.5.2-2 .2-.6.5-1.1.8-1.5a2.8 2.8 0 0 1 1-.8 3.1 3.1 0 0 1 2.7 0c.5.2.8.5 1 .9l.7 1.4.2 1.8a7 7 0 0 1-.3 1.8c-.1.5-.3 1-.6 1.3a3 3 0 0 1-.9 1 3.1 3.1 0 0 1-1 .3c0 .4.1.7.4 1 .2.2.5.3 1 .3h.6l.6-.4.5.8a2.8 2.8 0 0 1-.9.5 3 3 0 0 1-.9.1 3 3 0 0 1-1-.1 2.2 2.2 0 0 1-.7-.5 2 2 0 0 1-.5-.7 2.9 2.9 0 0 1-.3-1zm2.8-4.3c0-.5 0-1-.2-1.4a3.3 3.3 0 0 0-.3-1 1.9 1.9 0 0 0-.7-.8c-.2-.2-.6-.2-1-.2-.3 0-.6 0-.9.2a2 2 0 0 0-.6.7l-.4 1.1a6.3 6.3 0 0 0-.1 1.3v1.4l.5 1c.1.4.3.6.6.8.3.2.6.2 1 .2.3 0 .6 0 .9-.2l.7-.7a3.5 3.5 0 0 0 .3-1.1l.2-1.3zm8 4.3h-1.4l-2.5-5.4-.7-1.7v7h-1.1v-8.6h1.5l2.4 5.1.8 2v-7h1v8.6zm7.4-7.2a4.6 4.6 0 0 0-1-.4 4 4 0 0 0-1-.1c-.5 0-1 0-1.3.2a2.5 2.5 0 0 0-.9.7l-.5 1a4.8 4.8 0 0 0-.2 1.5l.1 1.4.5 1c.3.3.5.6.9.7.3.2.7.2 1.2.2a5.6 5.6 0 0 0 .6 0 4.3 4.3 0 0 0 .3 0l.2-.1v-2.8h-1.7v-1h2.8v4.5a4.9 4.9 0 0 1-.5.2 5.9 5.9 0 0 1-1.8.3 4.3 4.3 0 0 1-1.6-.3 3.2 3.2 0 0 1-1.2-.8c-.3-.4-.6-.8-.8-1.4l-.2-1.9c0-.7 0-1.3.3-1.9a4 4 0 0 1 .8-1.4 3.5 3.5 0 0 1 1.3-.9 4.3 4.3 0 0 1 1.6-.3 5.4 5.4 0 0 1 2.1.5v1.1zm15 7.2H242l-3.2-4.3v4.3h-1.2v-8.7h1.2v4l3.1-4h1.4l-3.4 4.1 3.5 4.6zm7.5-8.7-.6 8.7H249l-1-3.1-.3-1-.4 1-1 3H245l-.6-8.6h1.1l.4 5.9v1.6l.5-1.4 1-3.2h.8l1.2 3.5.4 1.1V258l.3-6.3h1zm7.1 4.3v1.1a4.5 4.5 0 0 1-.4 1 3.6 3.6 0 0 1-.5 1l-.8.7a4.2 4.2 0 0 1-1.1.4 6.3 6.3 0 0 1-1.5.2h-1.8v-8.7h2.2c1.3 0 2.3.4 3 1 .6.8 1 1.8 1 3.3zm-1.2 0a6 6 0 0 0-.2-1.5c0-.4-.2-.8-.5-1a2 2 0 0 0-.8-.6 3.8 3.8 0 0 0-1.3-.2h-1v6.6h.9c2 0 3-1 3-3.3zm8.2 2c0 .4-.1.8-.3 1.1a2.2 2.2 0 0 1-.7.8 3.2 3.2 0 0 1-1 .4 5.7 5.7 0 0 1-1.4.2h-.7a10.2 10.2 0 0 1-1.2-.2 6.8 6.8 0 0 1-.5-.1v-1.2c.3.2.7.3 1.1.3a8.1 8.1 0 0 0 2.3 0l.7-.2.4-.4v-.6a1 1 0 0 0-.1-.6 1.8 1.8 0 0 0-.5-.4 4.2 4.2 0 0 0-.7-.4l-.9-.3a14.7 14.7 0 0 1-.8-.4 3.6 3.6 0 0 1-.7-.5 2.3 2.3 0 0 1-.5-.6 1.9 1.9 0 0 1-.2-.9c0-.3 0-.6.2-.9.1-.3.3-.5.6-.7.2-.3.6-.4 1-.6l1.4-.2a6.8 6.8 0 0 1 1 .1 8.7 8.7 0 0 1 1 .2v1a7.5 7.5 0 0 0-1-.2 6.2 6.2 0 0 0-1 0c-.7 0-1.2 0-1.5.3a1 1 0 0 0-.5.9l.2.6.5.4.7.4a48.5 48.5 0 0 1 2.4 1.2l.5.6.2 1zm7.7-2a7 7 0 0 1-.4 2.2 3.6 3.6 0 0 1-.6.9c-.2.2-.4.5-.8.7a4.2 4.2 0 0 1-1 .4 6.3 6.3 0 0 1-1.5.2h-1.9v-8.7h2.2c1.4 0 2.3.4 3 1 .7.8 1 1.8 1 3.3zm-1.2 0c0-.6 0-1-.2-1.5l-.5-1a2 2 0 0 0-.9-.6 3.8 3.8 0 0 0-1.2-.2h-1v6.6h.9c1.9 0 2.9-1 2.9-3.3zM8.7 155.1h-5v-8.6H5v7.6h3.7v1zm7.5-6c0 .3 0 .7-.2 1-.1.4-.3.7-.6 1a3.1 3.1 0 0 1-1 .6c-.5.2-1 .3-1.6.3h-1v3h-1.2v-8.5H13l1.2.1c.4 0 .7.2 1 .5.3.2.5.4.7.8.2.3.3.7.3 1.2zm-1.2 0c0-.5-.2-1-.6-1.2-.3-.3-.8-.5-1.5-.5h-1.1v3.6h1c.7 0 1.2-.2 1.6-.5.4-.3.6-.7.6-1.4zm8.4-1.2a4.7 4.7 0 0 0-1-.4 4 4 0 0 0-1-.1c-.5 0-.9 0-1.2.2a2.5 2.5 0 0 0-1 .7l-.5 1a4.8 4.8 0 0 0-.2 1.5c0 .5 0 1 .2 1.4 0 .4.3.8.5 1 .2.3.5.6.8.7.4.2.8.2 1.3.2a4.6 4.6 0 0 0 .5 0 3.9 3.9 0 0 0 .5-.1v-2.8h-1.7v-1h2.9v4.5a5 5 0 0 1-.6.2 5.9 5.9 0 0 1-1.8.3 4.3 4.3 0 0 1-1.6-.3 3.2 3.2 0 0 1-1.2-.8l-.7-1.4a5.7 5.7 0 0 1 0-3.8 4 4 0 0 1 .8-1.4 3.5 3.5 0 0 1 1.3-.9 4.3 4.3 0 0 1 1.7-.3 5.4 5.4 0 0 1 2 .5v1.1zm7.2 7.2h-4.9v-8.6H27v7.6h3.7v1zm8.2 0h-1.2l-.6-2h-3.6l-.6 2h-1.2l2.8-8.6H36l2.8 8.6zm-2.2-3-1.4-4.6-1.4 4.6h2.8zm8.7 3h-4.9v-8.6h1.2v7.6h3.7v1zm7.3 0h-4.9v-8.6H49v7.6h3.7v1zm7.4 0h-5v-8.6h1.2v7.6H60v1zm7.3 0h-5v-8.6h1.3v7.6h3.7v1zm15.5 0h-1.3l-.6-2h-3.5l-.6 2h-1.2l2.8-8.6H80l2.8 8.6zm-2.2-3-1.4-4.6-1.5 4.6h2.9zm9.5 3H89l-.6-2h-3.6l-.6 2H83l2.8-8.6h1.6l2.8 8.6zm-2.2-3-1.4-4.6-1.4 4.6h2.8zm9.3-5.6-.6 8.6h-1.5l-1-3.1-.3-1-.3 1-1 3h-1.4l-.6-8.5h1l.4 5.8.1 1.6.4-1.3 1-3.2h.8l1.2 3.4.4 1.1v-1.2l.4-6.2h1zm7 1h-2.4v7.6h-1.2v-7.6H98v-1h6.2v1zm8 7.6h-1.4l-.5-2h-3.6l-.6 2H105l2.8-8.6h1.6l2.8 8.6zm-2.3-3-1.4-4.6-1.5 4.6h3zm9.1 3h-1.3l-1.3-2.8a3 3 0 0 0-.3-.5 1.3 1.3 0 0 0-.3-.3 1 1 0 0 0-.4-.2 1.8 1.8 0 0 0-.4 0h-.6v3.8h-1.1v-8.6h2.3l1.2.1c.4.1.7.3.9.5l.5.7a2.5 2.5 0 0 1 0 1.7 2.1 2.1 0 0 1-.3.6 2.2 2.2 0 0 1-.6.5 2.6 2.6 0 0 1-.8.4c.3 0 .5.2.6.4l.6.8 1.3 2.9zm-1.8-6.3c0-.4-.2-.8-.5-1-.3-.2-.7-.4-1.2-.4h-1v2.9h.9l.7-.1.6-.3.3-.5.2-.6zm9.6 6.3h-1.3l-.6-2h-3.5l-.6 2h-1.2l2.8-8.6h1.6l2.8 8.6zm-2.2-3-1.5-4.6-1.4 4.6h2.9zm8.6 3h-4.9v-8.6h1.2v7.6h3.7v1zm7.1 0h-4.8v-8.6h4.8v1h-3.7v2.6h3.6v1h-3.6v3h3.7v1zm8.5-8.6-2.9 8.6h-1.6l-2.8-8.6h1.3l1.9 5.8.5 1.7.5-1.7 1.9-5.8h1.2zM9 163.2H6.5v7.6H5.3v-7.6H2.8v-1H9v1zm7.4 3.2v1.2a4.5 4.5 0 0 1-.4 1 3.6 3.6 0 0 1-.5 1 3 3 0 0 1-.8.6 4.2 4.2 0 0 1-1.2.4l-1.4.2h-1.8v-8.6h2.2c1.3 0 2.3.3 3 1 .6.7 1 1.8 1 3.2zm-1.2 0a6 6 0 0 0-.2-1.5c0-.4-.3-.7-.5-1a2 2 0 0 0-.8-.5 3.8 3.8 0 0 0-1.3-.2h-1v6.6h.9c2 0 2.9-1.1 2.9-3.3zm8.2-2.7a4.7 4.7 0 0 0-1-.4 4 4 0 0 0-1-.2c-.5 0-.9.1-1.2.3a2.5 2.5 0 0 0-1 .7l-.5 1a4.8 4.8 0 0 0-.2 1.4c0 .5 0 1 .2 1.4 0 .4.3.8.5 1 .2.4.5.6.8.8l1.3.2a5.6 5.6 0 0 0 .5 0l.3-.1a2 2 0 0 0 .2 0V167h-1.7v-1h2.9v4.4a5 5 0 0 1-.6.2 5.9 5.9 0 0 1-1.8.3 4.3 4.3 0 0 1-1.6-.3 3.2 3.2 0 0 1-1.2-.8c-.3-.3-.5-.8-.7-1.3-.2-.6-.3-1.2-.3-2 0-.6.1-1.3.3-1.8a4 4 0 0 1 .8-1.4l1.3-1a4.3 4.3 0 0 1 1.7-.2 5.4 5.4 0 0 1 2 .4v1.2zm7.4 7.1h-1.5l-2.5-5.4-.7-1.7v7.1H25v-8.6h1.5l2.4 5 .8 2v-7h1v8.6zm8 0h-1.2l-.6-1.9h-3.6l-.6 1.9h-1.2l2.8-8.6H36l2.8 8.6zm-2.2-3-1.4-4.5-1.4 4.6h2.8zm8.8-4.1a4.7 4.7 0 0 0-1-.4 4 4 0 0 0-1-.2c-.5 0-.9.1-1.2.3a2.5 2.5 0 0 0-1 .7l-.5 1a4.8 4.8 0 0 0-.2 1.4c0 .5 0 1 .2 1.4 0 .4.2.8.5 1 .2.4.5.6.8.8l1.3.2a5.6 5.6 0 0 0 .5 0l.3-.1a2 2 0 0 0 .2 0V167h-1.7v-1h2.9v4.4a5 5 0 0 1-.6.2 5.9 5.9 0 0 1-1.8.3 4.3 4.3 0 0 1-1.6-.3 3.2 3.2 0 0 1-1.2-.8c-.3-.3-.6-.8-.7-1.3-.2-.6-.3-1.2-.3-2 0-.6.1-1.3.3-1.8a4 4 0 0 1 .8-1.4l1.3-1a4.3 4.3 0 0 1 1.6-.2 5.4 5.4 0 0 1 2.1.4v1.2zm7.2 7.1h-4.9v-8.6H49v7.6h3.7v1zm7.4 0h-5v-8.6h1.2v7.6H60v1zm8.1 0H67l-.6-1.9h-3.6l-.6 1.9H61l2.9-8.6h1.5l2.8 8.6zm-2.2-3-1.4-4.5-1.4 4.6h2.8zm15.8 3h-4.9v-8.6h4.9v1H78v2.6h3.5v1H78v3h3.7v1zm7.8-6-.2 1-.6 1a3.1 3.1 0 0 1-1 .7l-1.6.2h-1v3.1h-1.2v-8.6h2.4l1.2.1 1 .5.7.8c.2.3.3.7.3 1.2zm-1.2 0c0-.5-.2-.9-.6-1.2-.3-.3-.8-.4-1.5-.4H85v3.5h1.1c.7 0 1.2-.1 1.6-.4.4-.3.6-.8.6-1.4zm5 6a2.8 2.8 0 0 1-1.3-.4 2.8 2.8 0 0 1-.8-.8 4.3 4.3 0 0 1-.5-1.3 7.8 7.8 0 0 1-.1-1.7c0-.8 0-1.5.2-2l.7-1.4a2.8 2.8 0 0 1 1.1-.9l1.3-.2c.6 0 1 0 1.4.3a2.6 2.6 0 0 1 1 .8l.7 1.4.2 1.8a7 7 0 0 1-.3 1.8 4.4 4.4 0 0 1-.6 1.4 3 3 0 0 1-.9.9l-1.1.4c0 .4.2.7.5 1 .2.1.5.3 1 .3l.6-.1.6-.4.5.8a2.8 2.8 0 0 1-.9.5 3 3 0 0 1-1 .2 3 3 0 0 1-.9-.2 2.2 2.2 0 0 1-.7-.4 2 2 0 0 1-.5-.7 2.9 2.9 0 0 1-.3-1zm2.7-4.3c0-.5 0-1-.2-1.4a3.4 3.4 0 0 0-.3-1 1.9 1.9 0 0 0-.7-.7c-.3-.2-.6-.3-1-.3l-.9.3a2 2 0 0 0-.6.7l-.4 1a6.3 6.3 0 0 0-.1 1.3v1.4l.4 1.1c.2.3.4.6.7.7.3.2.6.3 1 .3l.9-.3c.3-.2.5-.4.6-.7l.4-1a6.6 6.6 0 0 0 .2-1.4zm4.6-3.3h-2v-1h5.1v1h-2v6.6h2v1h-5v-1h1.9v-6.6zm11.5 7.6h-1.3l-.5-1.9h-3.6l-.6 1.9H105l2.8-8.6h1.6l2.8 8.6zm-2.2-3-1.4-4.5-1.5 4.6h3zm9.3 3H118l-.1-5.4v-2l-.5 1.2-1.2 3.4h-.8l-1.2-3.3-.4-1.3v2.1l-.2 5.3h-1.1l.4-8.6h1.4l1.1 3.2.4 1.1.4-1 1.2-3.3h1.4l.4 8.6zm6.4-7.6H122v2.8h3.4v1H122v3.8h-1.2v-8.6h4.8v1zm7.7 7.3a5.5 5.5 0 0 1-2.1.4c-1.2 0-2.2-.4-2.8-1-.7-.8-1-1.9-1-3.3 0-.7.1-1.3.3-1.9.2-.5.4-1 .8-1.4a3.4 3.4 0 0 1 1.2-.9 3.8 3.8 0 0 1 1.5-.3 5.4 5.4 0 0 1 2.1.4v1.2a4.2 4.2 0 0 0-1-.4 4 4 0 0 0-1-.2c-.4 0-.8.1-1.1.3a2.2 2.2 0 0 0-.8.6 3 3 0 0 0-.6 1 5 5 0 0 0-.1 1.5c0 1.1.2 2 .6 2.5.5.6 1.1.9 2 .9a4.3 4.3 0 0 0 2-.5v1zm7.4-6.8a4.7 4.7 0 0 0-1-.4 4 4 0 0 0-1-.2c-.5 0-1 .1-1.3.3a2.5 2.5 0 0 0-.9.7l-.5 1a4.8 4.8 0 0 0-.2 1.4c0 .5 0 1 .2 1.4 0 .4.2.8.4 1 .3.4.5.6.9.8l1.2.2a5.6 5.6 0 0 0 .6 0 4.6 4.6 0 0 0 .3-.1h.2V167h-1.7v-1h2.8v4.4a5 5 0 0 1-.5.2 5.9 5.9 0 0 1-1.8.3 4.3 4.3 0 0 1-1.6-.3 3.2 3.2 0 0 1-1.2-.8l-.8-1.3-.2-2c0-.6 0-1.3.3-1.8a4 4 0 0 1 .8-1.4l1.3-1a4.3 4.3 0 0 1 1.6-.2 5.4 5.4 0 0 1 2.1.4v1.2zm7.6 7.1H147l-1.3-2.8a3 3 0 0 0-.2-.5 1.3 1.3 0 0 0-.4-.3 1 1 0 0 0-.3-.2 1.8 1.8 0 0 0-.5 0h-.5v3.8h-1.2v-8.6h2.3c.5 0 .9 0 1.2.2.4 0 .7.2 1 .4l.4.7.2 1-.1.7a2.1 2.1 0 0 1-.4.7 2.2 2.2 0 0 1-.6.5 2.6 2.6 0 0 1-.7.3 1.3 1.3 0 0 1 .6.4l.5.9 1.3 2.8zm-1.8-6.2c0-.5-.2-.9-.5-1-.2-.3-.6-.4-1.2-.4h-1v2.8h1.6l.6-.4c.1 0 .3-.2.3-.4l.2-.6zm-137.7 22H7.3l-2.5-5.4-.7-1.8v7.1H3V178h1.4l2.4 5.1.8 2v-7h1.1v8.5zm7.8 0h-1.2l-.1-5.4-.1-2-.4 1.1-1.3 3.4h-.8l-1.1-3.3-.4-1.3v2.2l-.2 5.2H9.9l.4-8.6h1.4l1.1 3.3.4 1 .3-1 1.3-3.3h1.4l.4 8.6zm7 0h-1.3v-4h-3.5v4h-1.2v-8.7h1.2v3.7h3.5v-3.7h1.2v8.6zm7.6 0h-1.1l-.2-5.4v-2l-.4 1.1-1.3 3.4h-.8l-1.2-3.3-.4-1.3v2.2l-.2 5.2h-1l.4-8.6h1.3l1.2 3.3.3 1 .4-1 1.2-3.3h1.4l.4 8.6zm7 0h-1.6l-2.5-5.4-.7-1.8v7.1h-1V178h1.4l2.4 5.1.8 2v-7h1.1v8.5zm8-8.7-3 8.6h-1.5L39 178h1.3l1.9 5.8.5 1.7.5-1.7L45 178h1.3zm3 8.7a2.8 2.8 0 0 1-1.1-.4 2.8 2.8 0 0 1-.9-.9 4.3 4.3 0 0 1-.5-1.3 7.8 7.8 0 0 1-.1-1.7c0-.7 0-1.4.2-2 .2-.6.5-1 .8-1.4a2.9 2.9 0 0 1 1-.8l1.3-.3c.6 0 1 .1 1.5.3a2.6 2.6 0 0 1 1 .9c.3.3.4.8.6 1.3l.2 1.8a7 7 0 0 1-.2 1.9l-.6 1.3a3 3 0 0 1-1 .9 3 3 0 0 1-1 .4c0 .4.1.7.4 1 .2.2.6.3 1 .3l.6-.1c.2 0 .4-.2.6-.4l.5.8a2.8 2.8 0 0 1-.8.6 3 3 0 0 1-1 .1 3 3 0 0 1-1-.1 2.2 2.2 0 0 1-.7-.5 2 2 0 0 1-.5-.7 2.9 2.9 0 0 1-.2-1zm2.8-4.3-.1-1.4a3.3 3.3 0 0 0-.4-1 1.9 1.9 0 0 0-.7-.8c-.2-.2-.5-.3-1-.3l-.9.3a2 2 0 0 0-.6.7l-.4 1a6.3 6.3 0 0 0-.1 1.4l.1 1.4c0 .4.2.8.4 1 .1.4.4.6.6.8l1 .2c.3 0 .7 0 1-.2l.6-.8.4-1v-1.3zm8.1 4.2h-1.5l-2.5-5.3-.7-1.8v7.1h-1V178h1.4l2.4 5.1.8 2v-7h1.1v8.5zm7.3-7.1a4.7 4.7 0 0 0-1-.4 4 4 0 0 0-1-.1c-.5 0-1 0-1.3.2a2.5 2.5 0 0 0-.8.7c-.3.3-.5.6-.6 1a4.8 4.8 0 0 0-.2 1.4c0 .6 0 1 .2 1.5 0 .4.2.7.5 1l.8.7a3 3 0 0 0 1.5.2 7.2 7.2 0 0 0 .6 0 2 2 0 0 0 .2-.2v-2.7h-1.7v-1h2.9v4.4a5.5 5.5 0 0 1-1.2.4 5.9 5.9 0 0 1-1.2.2 4.3 4.3 0 0 1-1.6-.3 3.2 3.2 0 0 1-1.2-.8c-.3-.4-.6-.9-.7-1.4-.2-.5-.3-1.2-.3-1.9s0-1.3.3-1.9a4 4 0 0 1 .8-1.4 3.5 3.5 0 0 1 1.3-.9 4.3 4.3 0 0 1 1.6-.3 5.4 5.4 0 0 1 2.1.4v1.2zm15 7.1h-1.5l-3.2-4.2v4.2h-1.2V178h1.2v4l3.1-4h1.4l-3.4 4.1 3.5 4.5zm7.5-8.6-.6 8.6h-1.5l-1-3-.3-1-.3 1-1 3h-1.5l-.6-8.6h1.1l.4 5.9v1.6l.5-1.4 1-3.2h.8l1.2 3.5.4 1v-1l.4-6.4h1zm7.1 4.2v1.2c-.1.4-.2.8-.4 1a3.6 3.6 0 0 1-.5 1 3 3 0 0 1-.8.6 4.2 4.2 0 0 1-1.1.5l-1.5.1H91V178H93c1.3 0 2.3.4 3 1 .6.8 1 1.8 1 3.2zm-1.2.1a6 6 0 0 0-.1-1.5c-.2-.4-.3-.8-.6-1a2 2 0 0 0-.8-.6 3.8 3.8 0 0 0-1.3-.2h-1v6.6h1c1.9 0 2.8-1 2.8-3.3zm8.2 2c0 .4 0 .8-.2 1a2.2 2.2 0 0 1-.7.8 3.2 3.2 0 0 1-1.1.5 5.7 5.7 0 0 1-1.4.2 9 9 0 0 1-.6 0l-.7-.1a8.1 8.1 0 0 1-1-.2v-1.2l1 .3a8.1 8.1 0 0 0 2.4 0l.6-.2.4-.5a1.3 1.3 0 0 0 0-.5 1 1 0 0 0-.1-.6 1.8 1.8 0 0 0-.5-.5 4.3 4.3 0 0 0-.7-.3l-.8-.4a13.4 13.4 0 0 1-.9-.3 3.6 3.6 0 0 1-.7-.5 2.3 2.3 0 0 1-.5-.6 1.9 1.9 0 0 1-.2-1l.2-.8c.1-.3.3-.5.6-.7a2.9 2.9 0 0 1 1-.6l1.4-.2a6.8 6.8 0 0 1 1 0 8.7 8.7 0 0 1 1 .3v1a7.5 7.5 0 0 0-1-.2 6.3 6.3 0 0 0-1 0c-.7 0-1.2 0-1.5.3a1 1 0 0 0-.4.9l.1.6.5.4.8.4a52 52 0 0 1 2.3 1.2l.5.6.2.9zm7.7-2a7 7 0 0 1-.4 2.2 3.6 3.6 0 0 1-.5.9c-.3.2-.5.5-.9.6a4.2 4.2 0 0 1-1 .5 6.3 6.3 0 0 1-1.5.1h-1.8V178h2.1c1.4 0 2.4.4 3 1 .7.8 1 1.8 1 3.2zm-1.2 0c0-.6 0-1.1-.2-1.5l-.5-1a2 2 0 0 0-.9-.6 3.8 3.8 0 0 0-1.2-.2h-1v6.6h.9c2 0 2.9-1 2.9-3.3zm8.3-1.6c0 .3 0 .7-.2 1-.1.4-.3.7-.6 1a3.1 3.1 0 0 1-1 .6c-.5.2-1 .2-1.6.2h-1v3.1h-1.2V178h2.4c.4 0 .8 0 1.2.2a2.8 2.8 0 0 1 1 .4l.7.8c.2.4.3.8.3 1.3zm-1.2 0c0-.5-.2-1-.6-1.3-.3-.3-.8-.4-1.5-.4h-1.1v3.5h1c.7 0 1.2-.1 1.6-.4.4-.3.6-.8.6-1.4zm8.4 3.6c0 .4 0 .8-.3 1a2.2 2.2 0 0 1-.6.8 3.2 3.2 0 0 1-1.1.5 5.7 5.7 0 0 1-1.4.2 9 9 0 0 1-.7 0l-.6-.1a8.2 8.2 0 0 1-1-.2v-1.2a6 6 0 0 0 1 .3 8.1 8.1 0 0 0 2.4 0 1.9 1.9 0 0 0 .6-.2l.4-.5v-.5a1 1 0 0 0-.1-.6 1.8 1.8 0 0 0-.5-.5 4.2 4.2 0 0 0-.7-.3l-.8-.4a13.7 13.7 0 0 1-.9-.3 3.6 3.6 0 0 1-.7-.5 2.3 2.3 0 0 1-.5-.6 2 2 0 0 1-.2-1c0-.2 0-.5.2-.8.1-.3.3-.5.6-.7.2-.3.6-.5 1-.6l1.4-.2a6.7 6.7 0 0 1 1 0 8.6 8.6 0 0 1 1 .3v1a7.5 7.5 0 0 0-1-.2 6.3 6.3 0 0 0-1 0c-.7 0-1.2 0-1.5.3a1 1 0 0 0-.5.9l.2.6.5.4.7.4a52 52 0 0 1 2.4 1.2l.5.6.2.9zm7.4-4.8a4.7 4.7 0 0 0-1-.4 3.9 3.9 0 0 0-1-.1c-.5 0-1 0-1.3.2a2.5 2.5 0 0 0-.9.7l-.5 1a4.8 4.8 0 0 0-.2 1.4l.1 1.5.5 1c.2.3.5.5.9.7a3 3 0 0 0 1.5.2h.3a4.5 4.5 0 0 0 .2 0l.3-.2v-2.7h-1.8v-1h3v4.4a5.5 5.5 0 0 1-1.3.4 5.9 5.9 0 0 1-1.2.2 4.3 4.3 0 0 1-1.5-.3 3.2 3.2 0 0 1-1.2-.8c-.4-.4-.6-.9-.8-1.4-.2-.5-.2-1.2-.2-1.9s0-1.3.3-1.9a4 4 0 0 1 .8-1.4 3.5 3.5 0 0 1 1.2-.9 4.3 4.3 0 0 1 1.7-.3 5.4 5.4 0 0 1 2 .4v1.2zm7.5-.5h-2.5v7.6h-1.2V179h-2.5v-1h6.2v1zm7.4 7.6h-1.5l-3.1-4.2v4.2h-1.2V178h1.2v4l3-4h1.5l-3.4 4.1 3.5 4.5zM8.7 202a5.5 5.5 0 0 1-2.1.4c-1.2 0-2.2-.4-2.8-1.1-.6-.7-1-1.8-1-3.2 0-.7.1-1.3.3-1.9.2-.6.4-1 .8-1.4.3-.4.7-.7 1.2-1a3.8 3.8 0 0 1 1.5-.2 5.4 5.4 0 0 1 2.1.4v1.1a4.2 4.2 0 0 0-1-.4 4 4 0 0 0-1-.1c-.4 0-.8 0-1.1.2l-.8.7a3 3 0 0 0-.6 1 5 5 0 0 0-.1 1.5c0 1 .2 2 .6 2.5.5.5 1.1.8 2 .8a4.3 4.3 0 0 0 2-.5v1.2zm4-7.3h-2v-1h5v1h-1.9v6.6h2v1h-5.1v-1h2v-6.6zm11 3.2v1.2a4.5 4.5 0 0 1-.3 1 3.6 3.6 0 0 1-.6.9l-.8.7a4.2 4.2 0 0 1-1.1.4l-1.5.2h-1.8v-8.6h2.2c1.3 0 2.3.3 3 1 .6.7 1 1.8 1 3.2zm-1.2 0a6 6 0 0 0-.1-1.5c-.2-.4-.3-.7-.6-1a2 2 0 0 0-.8-.6 3.8 3.8 0 0 0-1.2-.1h-1v6.6h.8c2 0 3-1.1 3-3.3zm8.5-3.2h-2.5v7.6h-1.2v-7.6h-2.5v-1H31v1zm7.4 7.6h-1.5l-3.2-4.2v4.2h-1.1v-8.6h1.1v4l3.1-4h1.4l-3.3 4 3.5 4.6zm6.6 0h-4.8v-8.6H45v1h-3.7v2.6H45v1h-3.6v3H45v1zm7.8-7.2a4.7 4.7 0 0 0-1-.4 4 4 0 0 0-1.1-.1c-.5 0-.9 0-1.2.2a2.5 2.5 0 0 0-1 .7l-.5 1.1a4.8 4.8 0 0 0-.1 1.4l.1 1.4.5 1c.2.4.5.6.8.7a3 3 0 0 0 1.6.2 6.8 6.8 0 0 0 .5 0 2 2 0 0 0 .3-.1v-2.8h-1.8v-1h2.9v4.5a5.3 5.3 0 0 1-1.2.4 5.9 5.9 0 0 1-1.2 0 4.3 4.3 0 0 1-1.6-.2 3.2 3.2 0 0 1-1.1-.8 3.8 3.8 0 0 1-.8-1.4c-.2-.5-.3-1.1-.3-1.8s.1-1.4.3-2a4 4 0 0 1 .9-1.4 3.5 3.5 0 0 1 1.2-.8 4.3 4.3 0 0 1 1.7-.4 5.4 5.4 0 0 1 2 .5v1.1zm3.8-.4h-2v-1h5.1v1h-2v6.6h2v1h-5v-1h2v-6.6zm10.7 7.6h-5v-8.6h1.3v7.6h3.7v1zm11.3 0a2.8 2.8 0 0 1-1.2-.4 2.8 2.8 0 0 1-.8-.9 4.3 4.3 0 0 1-.5-1.3 7.9 7.9 0 0 1-.2-1.6c0-.8 0-1.5.3-2 .1-.6.4-1 .7-1.5a2.9 2.9 0 0 1 1-.8c.5-.2.9-.3 1.4-.3.5 0 1 .1 1.4.3a2.6 2.6 0 0 1 1 1c.3.3.5.7.6 1.3a7.3 7.3 0 0 1 .2 1.8 7 7 0 0 1-.2 1.8l-.6 1.4a3 3 0 0 1-2 1.3c0 .3.2.6.4.9.2.2.6.3 1 .3a1.8 1.8 0 0 0 1.2-.4l.6.8a2.8 2.8 0 0 1-1 .5 3 3 0 0 1-.9.1 3 3 0 0 1-1-.1 2.2 2.2 0 0 1-.7-.4 2 2 0 0 1-.5-.8 2.9 2.9 0 0 1-.2-1zm2.7-4.3-.1-1.4a3.3 3.3 0 0 0-.4-1 1.9 1.9 0 0 0-.6-.8l-1-.2c-.4 0-.7 0-1 .3a2 2 0 0 0-.6.7l-.4 1-.1 1.3.1 1.4.4 1.1.6.7c.3.2.6.3 1 .3s.7-.1 1-.3l.6-.7.4-1V198zm8.9-4.3-3 5.5v3h-1.3v-3l-3-5.5h1.4l1.6 3.1.7 1.3.5-1.2 1.8-3.2h1.3zm6.5 8.3a5.5 5.5 0 0 1-2.2.4c-1.2 0-2.1-.4-2.8-1.1-.6-.7-1-1.8-1-3.2 0-.7.2-1.3.3-1.9.2-.6.5-1 .8-1.4.3-.4.7-.7 1.2-1a3.8 3.8 0 0 1 1.6-.2 5.4 5.4 0 0 1 2 .4v1.1a4.2 4.2 0 0 0-.9-.4 4 4 0 0 0-1-.1c-.5 0-.8 0-1.2.2l-.8.7a3 3 0 0 0-.5 1 5 5 0 0 0-.2 1.5c0 1 .2 2 .7 2.5.4.5 1 .8 2 .8a4.3 4.3 0 0 0 2-.5v1.2zm3.9.4a2.8 2.8 0 0 1-1.2-.5 2.8 2.8 0 0 1-.9-.9 4.3 4.3 0 0 1-.5-1.3 7.9 7.9 0 0 1-.1-1.6c0-.8 0-1.5.3-2 .1-.6.4-1 .7-1.5a2.9 2.9 0 0 1 1-.8l1.3-.3c.6 0 1 .1 1.5.3a2.6 2.6 0 0 1 1 1c.3.3.5.7.6 1.3l.2 1.8a7 7 0 0 1-.2 1.8l-.6 1.4a3 3 0 0 1-2 1.3c0 .3.1.6.4.9.2.2.6.3 1 .3a1.8 1.8 0 0 0 1.2-.4l.5.8a2.8 2.8 0 0 1-.8.5 3 3 0 0 1-1 .1 3 3 0 0 1-1-.1 2.2 2.2 0 0 1-.7-.4 2 2 0 0 1-.5-.8 2.9 2.9 0 0 1-.2-1zm2.7-4.4-.1-1.4a3.3 3.3 0 0 0-.4-1 1.9 1.9 0 0 0-.7-.8l-1-.2c-.3 0-.6 0-.9.3a2 2 0 0 0-.6.7l-.4 1a6.3 6.3 0 0 0-.1 1.3l.1 1.4c0 .4.2.8.4 1.1.1.3.4.5.6.7.3.2.6.3 1 .3.3 0 .7-.1 1-.3l.6-.7.4-1V198zm7.7 4.3H106v-8.6h4.9v1h-3.7v2.6h3.5v1h-3.5v3h3.7v1zm8.5-8.6-3 8.6H115l-2.8-8.6h1.3l1.8 5.8.6 1.7.5-1.7 1.8-5.8h1.3zm7.3 0-3 5.5v3h-1.2v-3l-3.1-5.5h1.4l1.7 3.1.6 1.3.6-1.2 1.7-3.2h1.3zm6.6 2.6c0 .4 0 .7-.2 1a2.6 2.6 0 0 1-.6 1 3.1 3.1 0 0 1-1 .6c-.4.2-1 .3-1.5.3h-1v3h-1.2v-8.5h2.4l1.2.1 1 .5c.3.2.5.4.7.8.2.3.2.7.2 1.2zm-1.2 0c0-.5-.1-1-.5-1.2-.4-.3-.9-.5-1.5-.5H129v3.6h1c.8 0 1.3-.2 1.7-.5.4-.3.5-.7.5-1.3zm8.1 6h-4.8v-8.6h4.8v1h-3.7v2.6h3.6v1h-3.6v3h3.7v1zm7.6 0H143v-8.6h1.2v7.6h3.7v1zM7.4 228.8H6.2l-.1-5.4-.1-2-.4 1.1-1.3 3.5h-.8l-1.2-3.3-.4-1.4v2.2l-.1 5.3H.7l.4-8.6h1.4l1.1 3.2.4 1.1.3-1 1.2-3.3H7l.4 8.6zm6.7 0H9.2v-8.6h1.2v7.6H14v1zm7.5-6c0 .4 0 .7-.2 1-.1.4-.3.7-.6 1a3.1 3.1 0 0 1-1 .6l-1.5.3h-1.1v3H16v-8.5h2.4l1.2.1 1 .5c.4.2.6.4.8.8l.2 1.2zm-1.2 0c0-.5-.2-1-.5-1.2-.4-.3-.9-.5-1.5-.5h-1.2v3.6h1c.8 0 1.3-.2 1.7-.5.3-.3.5-.7.5-1.3zm8.5-1.2a4.7 4.7 0 0 0-1-.4 4 4 0 0 0-1-.1c-.5 0-1 0-1.3.2a2.5 2.5 0 0 0-.9.7 3.2 3.2 0 0 0-.5 1.1 4.8 4.8 0 0 0-.2 1.4l.1 1.4.5 1c.2.4.5.6.9.7a3 3 0 0 0 1.5.2 7.2 7.2 0 0 0 .5 0 1.9 1.9 0 0 0 .3-.1v-2.8H26v-1h3v4.5a5 5 0 0 1-.6.2 5.9 5.9 0 0 1-1.8.3 4.3 4.3 0 0 1-1.6-.3 3.2 3.2 0 0 1-1.2-.8c-.3-.4-.6-.8-.8-1.4l-.2-1.8c0-.7 0-1.4.3-2a4 4 0 0 1 .8-1.4 3.5 3.5 0 0 1 1.3-.8 4.3 4.3 0 0 1 1.6-.4 5.4 5.4 0 0 1 2 .5v1.1zm7.2 7.2h-5v-8.6h1.3v7.6H36v1zm8.2 0H43l-.6-1.9H39l-.6 1.9H37l2.8-8.6h1.6l2.8 8.6zm-2.2-3-1.5-4.6-1.4 4.7h2.9zm8.6 3h-4.9v-8.6H47v7.6h3.7v1zm7.4 0h-5v-8.6h1.2v7.6h3.8v1zm7.3 0h-4.9v-8.6h1.2v7.6h3.7v1zm7.3 0h-4.9v-8.6H69v7.6h3.7v1zm15.5 0H87l-.6-1.9h-3.6l-.6 1.9H81l2.9-8.6h1.5l2.8 8.6zm-2.2-3-1.4-4.6-1.4 4.7H86zm9.6 3h-1.3l-.6-1.9h-3.5l-.6 1.9h-1.2l2.8-8.6h1.6l2.8 8.6zm-2.2-3-1.5-4.6-1.4 4.7h2.9zm9.3-5.6-.6 8.6h-1.5l-1-3-.4-1-.3 1-1 3h-1.4l-.6-8.6H97l.3 5.8.1 1.6.5-1.3 1-3.2h.8l1.2 3.4.4 1.1v-1.2l.3-6.2h1zm7 1h-2.5v7.6H106v-7.6h-2.5v-1h6.2v1zm7.8 7.6h-1.2l-.6-1.9h-3.5l-.6 1.9h-1.2l2.8-8.6h1.6l2.7 8.6zm-2.1-3-1.5-4.6-1.4 4.7h2.9zm9 3h-1.3L122 226a3 3 0 0 0-.3-.5l-.3-.3a1 1 0 0 0-.4-.2 1.8 1.8 0 0 0-.5 0h-.5v3.8h-1.2v-8.6h2.3l1.3.1.8.5c.3.2.4.4.5.7.2.3.2.6.2 1l-.1.7a2.1 2.1 0 0 1-1 1.2 2.6 2.6 0 0 1-.7.3c.2 0 .4.2.6.4l.5.8 1.4 2.9zm-1.8-6.3c0-.4-.1-.8-.4-1-.3-.2-.7-.3-1.2-.3h-1.1v2.8h1.7l.5-.4.4-.4.1-.7zm9.6 6.3H131l-.5-1.9h-3.6l-.6 1.9H125l2.8-8.6h1.6l2.8 8.6zm-2.2-3-1.4-4.6-1.5 4.7h3zm8.7 3h-5v-8.6h1.3v7.6h3.7v1zm7 0H141v-8.6h4.8v1h-3.6v2.6h3.5v1h-3.5v3h3.6v1zm8.5-8.6-2.9 8.6h-1.5l-2.8-8.6h1.3l1.8 5.8.5 1.7.6-1.7 1.8-5.8h1.2zM7 238.5l-.2 1-.6 1a3.1 3.1 0 0 1-1 .7l-1.6.2h-1v3.1H1.3V236h2.4c.4 0 .8 0 1.2.2.4 0 .7.2 1 .4l.7.8.3 1.2zm-1.2 0c0-.5-.2-.9-.6-1.2-.3-.3-.8-.4-1.5-.4H2.5v3.5h1.1c.7 0 1.2-.1 1.6-.4.4-.3.6-.8.6-1.4zm8.7-1.6h-2.6v7.6h-1.1V237H8.2v-1h6.3v1zm7.4 3.2-.1 1.2a4.5 4.5 0 0 1-.3 1 3.6 3.6 0 0 1-.6 1 3.1 3.1 0 0 1-.8.6 4.2 4.2 0 0 1-1.1.5l-1.5.1h-1.8V236H18c1.3 0 2.3.4 3 1 .6.7 1 1.8 1 3.2zm-1.3.1a6 6 0 0 0-.1-1.5c-.1-.5-.3-.8-.5-1a2 2 0 0 0-.9-.6l-1.2-.2h-1v6.6h.8c2 0 3-1.1 3-3.3zm8.3-2.8a4.6 4.6 0 0 0-1-.4 4 4 0 0 0-1-.2c-.5 0-1 .1-1.3.3a2.5 2.5 0 0 0-.9.7l-.5 1a4.8 4.8 0 0 0-.2 1.4l.1 1.4c.1.5.3.8.5 1.1.2.3.5.5.9.7l1.2.2a4.6 4.6 0 0 0 .6 0 3.9 3.9 0 0 0 .5-.2v-2.7H26v-1h3v4.4a5 5 0 0 1-.6.2 5.9 5.9 0 0 1-1.8.3 4.3 4.3 0 0 1-1.6-.2 3.2 3.2 0 0 1-1.2-.9l-.8-1.3-.2-1.9c0-.7 0-1.3.3-1.9a4 4 0 0 1 .8-1.4 3.5 3.5 0 0 1 1.3-.9 4.3 4.3 0 0 1 1.6-.3 5.4 5.4 0 0 1 2 .4v1.2zm7.3 7.1h-1.5l-2.5-5.4-.7-1.7v7.1h-1V236h1.4l2.4 5 .8 2v-7h1.1v8.6zm8 0H43l-.6-1.9H39l-.6 2H37l2.8-8.7h1.6l2.8 8.6zm-2.1-3-1.5-4.5-1.4 4.6h2.9zm8.8-4.1a4.6 4.6 0 0 0-1-.4 4 4 0 0 0-1-.2c-.5 0-1 .1-1.3.3a2.5 2.5 0 0 0-.9.7l-.5 1a4.8 4.8 0 0 0-.2 1.4l.1 1.4c.1.5.3.8.5 1.1.2.3.5.5.9.7l1.2.2a4.7 4.7 0 0 0 .6 0 3.9 3.9 0 0 0 .5-.2v-2.7H48v-1h3v4.4a5 5 0 0 1-.7.2 5.9 5.9 0 0 1-1.8.3 4.3 4.3 0 0 1-1.5-.2 3.2 3.2 0 0 1-1.2-.9c-.4-.3-.6-.8-.8-1.3-.2-.6-.2-1.2-.2-1.9s0-1.3.2-1.9a4 4 0 0 1 .9-1.4 3.5 3.5 0 0 1 1.2-.9 4.3 4.3 0 0 1 1.7-.3 5.4 5.4 0 0 1 2 .4v1.2zm7.2 7.1h-5V236h1.2v7.6h3.8v1zm7.3 0h-4.9V236h1.2v7.6h3.7v1zm8.2 0h-1.3l-.6-1.9h-3.5l-.6 2h-1.2l2.8-8.7h1.6l2.8 8.6zm-2.2-3L70 237l-1.5 4.6h2.9zm15.7 3h-4.8V236H87v1h-3.7v2.7H87v1h-3.6v3h3.7v1zm7.8-6c0 .4 0 .7-.2 1-.1.4-.3.7-.6 1a3.1 3.1 0 0 1-1 .7l-1.6.2h-1v3.1h-1.2V236h2.4c.4 0 .8 0 1.2.2.4 0 .8.2 1 .4l.8.8.2 1.2zm-1.2 0c0-.5-.2-.9-.5-1.2-.4-.3-.9-.4-1.5-.4h-1.2v3.5h1c.8 0 1.3-.1 1.6-.4.4-.3.6-.8.6-1.4zm5 6a2.8 2.8 0 0 1-1.2-.3 2.8 2.8 0 0 1-.8-1 4.3 4.3 0 0 1-.5-1.2 7.8 7.8 0 0 1-.2-1.7c0-.8 0-1.4.3-2 .1-.6.4-1 .7-1.4a2.8 2.8 0 0 1 1-.8c.5-.2.9-.3 1.4-.3.5 0 1 0 1.4.3.4.2.7.5 1 .9.3.3.5.8.6 1.3a7.4 7.4 0 0 1 0 3.7 4.4 4.4 0 0 1-.6 1.3 3 3 0 0 1-2 1.3c0 .4.2.7.4 1 .2.2.6.3 1 .3l.6-.1.6-.4.6.8a2.8 2.8 0 0 1-1 .5 3 3 0 0 1-.9.2 3 3 0 0 1-1-.2 2.1 2.1 0 0 1-.7-.4 2 2 0 0 1-.5-.7 2.9 2.9 0 0 1-.2-1zm2.7-4.2-.1-1.4a3.3 3.3 0 0 0-.4-1.1 1.9 1.9 0 0 0-.6-.7c-.3-.2-.6-.3-1-.3s-.7.1-1 .3a2 2 0 0 0-.6.7l-.4 1a6.3 6.3 0 0 0-.1 1.3l.1 1.5.4 1 .6.8 1 .2c.4 0 .7 0 1-.3a2 2 0 0 0 .6-.7l.4-1a6.6 6.6 0 0 0 .1-1.3zm4.6-3.4h-2v-1h5.2v1h-2v6.6h2v1H104v-1h2V237zm11.5 7.6h-1.2l-.6-1.9h-3.5l-.6 2h-1.2l2.8-8.7h1.6l2.7 8.6zm-2.1-3-1.5-4.5-1.4 4.6h2.9zm9.2 3h-1.1l-.2-5.4v-2l-.4 1.2-1.3 3.4h-.8l-1.2-3.3-.4-1.3v2.1l-.2 5.3h-1l.4-8.6h1.3l1.2 3.2.3 1.1.4-1 1.2-3.3h1.4l.4 8.6zm6.5-7.6h-3.6v2.8h3.4v1h-3.4v3.8h-1.2V236h4.8v1zm7.6 7.3a5.5 5.5 0 0 1-2 .4c-1.3 0-2.2-.3-2.9-1-.6-.8-1-1.9-1-3.3 0-.7.2-1.3.3-1.9a4 4 0 0 1 .8-1.4c.3-.4.7-.7 1.2-.9a3.8 3.8 0 0 1 1.6-.3 5.4 5.4 0 0 1 2 .4v1.2a4.2 4.2 0 0 0-1-.4 4 4 0 0 0-1-.2c-.4 0-.7.1-1 .3a2.2 2.2 0 0 0-.9.6 3 3 0 0 0-.5 1 5 5 0 0 0-.2 1.5c0 1.1.2 2 .7 2.5.4.6 1 .9 2 .9a4.3 4.3 0 0 0 2-.5v1zm7.5-6.8a4.6 4.6 0 0 0-1-.4 4 4 0 0 0-1.1-.2c-.5 0-.9.1-1.2.3a2.5 2.5 0 0 0-1 .7l-.5 1a4.8 4.8 0 0 0-.2 1.4c0 .6 0 1 .2 1.4.1.5.3.8.5 1.1l.8.7 1.3.2a4.6 4.6 0 0 0 .5 0 3.9 3.9 0 0 0 .3-.1h.2v-2.8h-1.7v-1h2.9v4.4a5 5 0 0 1-.6.2 6 6 0 0 1-1.8.3 4.3 4.3 0 0 1-1.6-.2 3.2 3.2 0 0 1-1.2-.9c-.3-.3-.5-.8-.7-1.3-.2-.6-.3-1.2-.3-1.9s.1-1.3.3-1.9a4 4 0 0 1 .8-1.4 3.5 3.5 0 0 1 1.3-.9 4.3 4.3 0 0 1 1.7-.3 5.4 5.4 0 0 1 2 .4v1.2zm7.6 7.1h-1.3l-1.3-2.7a3 3 0 0 0-.3-.6l-.3-.3a1 1 0 0 0-.4-.2 1.8 1.8 0 0 0-.5 0h-.5v3.8H148V236h2.3c.5 0 1 0 1.3.2.3 0 .6.2.9.4l.5.8a2.5 2.5 0 0 1 0 1.6 2.1 2.1 0 0 1-.3.7 2.2 2.2 0 0 1-.6.5 2.6 2.6 0 0 1-.8.3c.2 0 .4.2.6.5.2.2.4.4.5.8l1.4 2.8zm-1.9-6.2c0-.5-.1-.8-.4-1-.3-.3-.7-.4-1.2-.4h-1.1v2.8h1.7l.5-.3.4-.5.1-.6zm-145.1 22h-5v-8.7H3v7.7h3.8v1zm7.4 0h-1.5l-2.4-5.4-.8-1.7v7h-1v-8.6h1.4l2.4 5.1.9 2v-7h1v8.6zm7.8 0H21l-.2-5.4v-2l-.4 1.1-1.3 3.4h-.8l-1.2-3.2-.4-1.4v2.2l-.2 5.3h-1l.3-8.7h1.4l1.2 3.3.3 1 .4-1 1.2-3.3h1.4l.4 8.7zm7 0h-1.2v-4h-3.6v4h-1.1v-8.7h1.1v3.7h3.6v-3.7H29v8.7zm7.7 0h-1.2l-.1-5.4v-2l-.5 1.1-1.2 3.4h-.8l-1.2-3.2-.4-1.4v2.2l-.2 5.3H30l.4-8.7h1.4l1.1 3.3.4 1 .4-1 1.2-3.3h1.4l.4 8.7zm6.9 0H42l-2.4-5.4-.7-1.7v7h-1.1v-8.6h1.5l2.3 5.1.9 2v-7h1v8.6zm8-8.7-2.9 8.7h-1.5l-2.8-8.7h1.3l1.8 5.8.5 1.7.6-1.7 1.8-5.8h1.2zm3 8.7a2.8 2.8 0 0 1-1-.4 2.8 2.8 0 0 1-1-.9 4.3 4.3 0 0 1-.4-1.3 7.8 7.8 0 0 1-.2-1.6c0-.8.1-1.5.3-2 .2-.6.4-1.1.7-1.5a2.8 2.8 0 0 1 1-.8l1.4-.3c.5 0 1 .1 1.4.3a2.6 2.6 0 0 1 1 .9c.3.4.5.8.6 1.4a7.4 7.4 0 0 1 0 3.6c-.1.5-.3 1-.6 1.3a3 3 0 0 1-2 1.3c0 .4.2.7.4 1a1.8 1.8 0 0 0 1.6.3l.7-.4.5.8a2.8 2.8 0 0 1-.9.5 3 3 0 0 1-1 .1 3 3 0 0 1-.9-.1 2.2 2.2 0 0 1-.8-.5 2 2 0 0 1-.5-.7 2.9 2.9 0 0 1-.2-1zm2.8-4.3-.1-1.4a3.4 3.4 0 0 0-.4-1 1.9 1.9 0 0 0-.6-.8c-.3-.2-.6-.2-1-.2-.3 0-.7 0-1 .2a2 2 0 0 0-.6.7c-.1.3-.3.7-.3 1.1a6.3 6.3 0 0 0-.2 1.3l.1 1.4c.1.4.2.8.4 1 .2.4.4.6.7.8.2.2.5.2 1 .2.3 0 .6 0 .9-.2l.6-.7.4-1.1a6.6 6.6 0 0 0 .1-1.3zm8.1 4.3H64l-2.4-5.4-.8-1.7v7h-1v-8.6h1.4l2.4 5.1.9 2v-7h1v8.6zM73 253a4.7 4.7 0 0 0-1-.4 4 4 0 0 0-1.1-.1c-.5 0-.9 0-1.2.2a2.5 2.5 0 0 0-.9.7l-.6 1a4.8 4.8 0 0 0-.1 1.5l.1 1.4.5 1c.2.3.5.6.8.7.4.2.8.2 1.3.2a5.6 5.6 0 0 0 .5 0 4.5 4.5 0 0 0 .6-.1v-2.8H70v-1H73v4.5a5 5 0 0 1-.6.2 5.9 5.9 0 0 1-1.8.3 4.3 4.3 0 0 1-1.6-.3 3.2 3.2 0 0 1-1.1-.8c-.4-.4-.6-.8-.8-1.4-.2-.5-.3-1.1-.3-1.9 0-.7.1-1.3.3-1.9a4 4 0 0 1 .9-1.4c.3-.4.7-.7 1.2-.9a4.3 4.3 0 0 1 1.7-.3 5.4 5.4 0 0 1 2 .5v1.1zm14.9 7.2h-1.5l-3.2-4.3v4.3H82v-8.7H83v4l3.2-4h1.3l-3.3 4.1 3.5 4.6zm7.5-8.7-.5 8.7h-1.5l-1-3.1-.4-1-.3 1-1 3h-1.4l-.6-8.6h1l.4 5.9.1 1.6.4-1.4 1-3.2h.9l1.1 3.5.4 1.1V258l.4-6.3h1zm7.2 4.3-.1 1.1a4.5 4.5 0 0 1-.3 1 3.6 3.6 0 0 1-.6 1 3 3 0 0 1-.8.7 4.2 4.2 0 0 1-1 .4l-1.5.2h-1.9v-8.7h2.2c1.4 0 2.3.4 3 1 .7.8 1 1.8 1 3.3zm-1.2 0a6 6 0 0 0-.2-1.5l-.5-1a2 2 0 0 0-.9-.6 3.8 3.8 0 0 0-1.2-.2h-1v6.6h.9c1.9 0 2.9-1 2.9-3.3zm8.1 2c0 .4 0 .8-.2 1.1a2.2 2.2 0 0 1-.7.8 3.2 3.2 0 0 1-1 .4 5.7 5.7 0 0 1-1.4.2 8.5 8.5 0 0 1-.7 0 10 10 0 0 1-1.2-.2 7 7 0 0 1-.5-.1v-1.2c.3.2.7.3 1 .3a8.2 8.2 0 0 0 2.4 0l.7-.2.3-.4.1-.6a1 1 0 0 0-.2-.6 1.8 1.8 0 0 0-.5-.4 4.2 4.2 0 0 0-.7-.4l-.8-.3a15 15 0 0 1-.8-.4 3.5 3.5 0 0 1-.7-.5 2.3 2.3 0 0 1-.5-.6 1.9 1.9 0 0 1-.2-.9c0-.3 0-.6.2-.9 0-.3.3-.5.5-.7.3-.3.6-.4 1-.6l1.5-.2a6.8 6.8 0 0 1 1 .1 8.7 8.7 0 0 1 .9.2v1a7.5 7.5 0 0 0-1-.2 6.2 6.2 0 0 0-1 0c-.6 0-1.1 0-1.4.3a1 1 0 0 0-.5.9c0 .2 0 .4.2.6l.5.4.7.4a52 52 0 0 1 2.4 1.2l.5.6.1 1zm7.7-2v1.1a4.5 4.5 0 0 1-.4 1 3.6 3.6 0 0 1-.5 1 3 3 0 0 1-.8.7 4.2 4.2 0 0 1-1.1.4 6.3 6.3 0 0 1-1.5.2H111v-8.7h2.2c1.3 0 2.3.4 3 1 .6.8 1 1.8 1 3.3zm-1.2 0a6 6 0 0 0-.1-1.5c-.2-.4-.3-.8-.6-1a2 2 0 0 0-.8-.6 3.8 3.8 0 0 0-1.2-.2h-1v6.6h.8c2 0 3-1 3-3.3zm8.3-1.6c0 .3 0 .7-.2 1-.1.4-.3.7-.6 1a3.1 3.1 0 0 1-1 .6c-.4.2-1 .3-1.5.3h-1.1v3h-1.2v-8.6h2.4c.5 0 .9 0 1.2.2.4 0 .8.2 1 .4.4.3.6.5.8.9l.2 1.2zm-1.2 0c0-.5-.2-1-.5-1.2-.4-.3-.9-.5-1.5-.5h-1.2v3.6h1c.8 0 1.3-.2 1.7-.5.3-.3.5-.8.5-1.4zm8.4 3.6c0 .4 0 .8-.2 1.1a2.2 2.2 0 0 1-.7.8 3.2 3.2 0 0 1-1 .4 5.7 5.7 0 0 1-1.4.2h-.7a10.2 10.2 0 0 1-1.2-.2 6.8 6.8 0 0 1-.5-.1v-1.2c.3.2.7.3 1 .3a8.2 8.2 0 0 0 2.4 0l.6-.2a1 1 0 0 0 .4-.4l.1-.6a1 1 0 0 0-.2-.6 1.8 1.8 0 0 0-.5-.4 4.1 4.1 0 0 0-.7-.4l-.8-.3a14.7 14.7 0 0 1-.8-.4 3.6 3.6 0 0 1-.7-.5 2.3 2.3 0 0 1-.5-.6 1.9 1.9 0 0 1-.2-.9c0-.3 0-.6.2-.9 0-.3.3-.5.5-.7.3-.3.6-.4 1-.6l1.4-.2a6.7 6.7 0 0 1 1 .1 8.6 8.6 0 0 1 1 .2v1a7.5 7.5 0 0 0-1-.2 6.2 6.2 0 0 0-1 0c-.6 0-1.1 0-1.4.3a1 1 0 0 0-.5.9c0 .2 0 .4.2.6l.5.4.7.4a52 52 0 0 1 2.3 1.2l.5.6c.2.3.2.6.2 1zm7.4-4.8a4.7 4.7 0 0 0-1-.4 4 4 0 0 0-1-.1c-.5 0-.9 0-1.3.2a2.5 2.5 0 0 0-.8.7c-.3.3-.5.7-.6 1a4.8 4.8 0 0 0-.2 1.5c0 .5 0 1 .2 1.4 0 .4.2.8.5 1 .2.3.5.6.8.7.4.2.8.2 1.2.2a5.6 5.6 0 0 0 .6 0 4.5 4.5 0 0 0 .5-.1v-2.8H136v-1h2.9v4.5a5 5 0 0 1-.6.2 5.8 5.8 0 0 1-1.8.3 4.3 4.3 0 0 1-1.6-.3 3.2 3.2 0 0 1-1.2-.8c-.3-.4-.6-.8-.7-1.4-.2-.5-.3-1.1-.3-1.9 0-.7.1-1.3.3-1.9a4 4 0 0 1 .8-1.4c.4-.4.8-.7 1.3-.9a4.3 4.3 0 0 1 1.6-.3 5.4 5.4 0 0 1 2.1.5v1.1zm7.6-.5h-2.5v7.7h-1.2v-7.7h-2.5v-1h6.2v1zm7.3 7.7h-1.4L149 256v4.3H148v-8.7h1.2v4l3.1-4h1.4l-3.4 4.1 3.5 4.6z" fill="#F7FAFB"/>
  <path opacity=".4" d="M100 113.7a1.5 1.5 0 0 0 2 0l9.6-9.5a1.5 1.5 0 1 0-2-2.2l-8.6 8.5-8.5-8.5a1.5 1.5 0 1 0-2 2.2l9.5 9.5zM11 129c-.4-21.7 5-41 13.4-55.7a62 62 0 0 1 30.8-29c5.5-1.9 11-2.3 16-.9a27 27 0 0 1 14.1 9.8c8.4 10.5 14.2 29.6 14.2 59.4h3c0-30-5.8-50-14.8-61.3A30 30 0 0 0 72 40.5a29.9 29.9 0 0 0-17.8 1 65 65 0 0 0-32.4 30.3C13.2 87.1 7.6 106.8 8 129h3z" fill="#3A7783"/>
  <path opacity=".4" d="M167.2 111.6a1.5 1.5 0 0 0 2.1 0l10-9a1.5 1.5 0 1 0-2-2.3l-8.9 8.2-8.1-8.9a1.5 1.5 0 0 0-2.2 2l9.1 10zM11 131.6c0-65 40.6-103.3 80.2-109a62 62 0 0 1 53.6 16.9c14.2 14.2 23.4 37.6 22 71l3 .1c1.4-34-8-58.2-23-73.2a65 65 0 0 0-56-17.7C49.6 25.5 8 65.2 8 131.7h3z" fill="#3A7783"/>
  <path opacity=".4" d="M135 88.2a1.5 1.5 0 0 0 2 0l9.6-9.5a1.5 1.5 0 1 0-2-2.2L136 85l-8.5-8.5a1.5 1.5 0 1 0-2 2.2l9.5 9.5zM11 127.7C12.5 71.5 43.8 39.9 74.2 33a48.8 48.8 0 0 1 41.5 8.3c11.2 8.8 18.8 24 18.8 45.8h3c0-22.5-7.8-38.6-19.9-48.2-12-9.5-28-12.4-44-8.8-32 7.2-64 40-65.6 97.4h3z" fill="#3A7783"/>
  <path opacity=".4" d="M223.2 131.1a1.5 1.5 0 0 0 2.2 0l9.7-9.2a1.5 1.5 0 0 0-2-2.2l-8.7 8.3-8.3-8.7a1.5 1.5 0 0 0-2.2 2l9.3 9.8zM11 129.7c0-69.9 54-110.4 107.5-113a98 98 0 0 1 73 25.1c19.5 18.5 32.3 47.5 31.3 88.3h3c1-41.4-12-71.3-32.3-90.5a101 101 0 0 0-75.2-26C63.5 16.4 8 58 8 129.6h3z" fill="#3A7783"/>
  <path opacity=".4" d="M185.8 78.6a1.5 1.5 0 0 0 2 0l9.6-9.5a1.5 1.5 0 1 0-2.1-2.1l-8.5 8.5-8.5-8.5a1.5 1.5 0 1 0-2 2.1l9.5 9.5zM11 130.6A115.1 115.1 0 0 1 97.8 16c22-5.6 44-3.8 60.3 6.1 16.2 10 27.2 28 27.2 55.6h3c0-28.5-11.4-47.6-28.7-58.1C142.4 9 119.6 7.3 97 13A118.1 118.1 0 0 0 8 130.7h3z" fill="#3A7783"/>
  <g opacity=".7" fill="#68A7A3" stroke="#014371">
    <path d="M243 161.3v39a7 7 0 0 1-7 7H124a7 7 0 0 1-7-7V153a7 7 0 0 1 7-7h27.3c2 0 4 .9 5.3 2.5l2.3 2.7a9 9 0 0 0 6.9 3.2h70a7 7 0 0 1 7 7z" stroke-width="2"/>
    <path d="M244.5 166.9H124.1a7 7 0 0 0-7 7v51.3a7 7 0 0 0 7 7h120.4a7 7 0 0 0 7-7v-51.3a7 7 0 0 0-7-7z" stroke-width="2"/>
    <path d="M236.2 168.8v39a7 7 0 0 1-7 7H117.3a7 7 0 0 1-7-7v-47.3a7 7 0 0 1 7-7h27.2c2 0 4 .9 5.4 2.5l2.3 2.7a9 9 0 0 0 6.8 3.2h70.2a7 7 0 0 1 7 7z" stroke-width="2"/>
    <path d="M237.7 175.7H117.3a7 7 0 0 0-7 7v51.4a7 7 0 0 0 7 7h120.4a7 7 0 0 0 7-7v-51.4a7 7 0 0 0-7-7z" stroke-width="2"/>
    <path d="M228.8 178v39.6a6.5 6.5 0 0 1-6.5 6.5H110.5a6.5 6.5 0 0 1-6.5-6.5v-48.1a6.5 6.5 0 0 1 6.5-6.5h27.2c2 0 3.7.8 5 2.3l2.3 2.8a9.5 9.5 0 0 0 7.3 3.4h70a6.5 6.5 0 0 1 6.5 6.5z" stroke-width="3"/>
    <path d="M230.9 184H110.5a6.5 6.5 0 0 0-6.5 6.5v52.2a6.5 6.5 0 0 0 6.5 6.5h120.4a6.5 6.5 0 0 0 6.5-6.5v-52.2a6.5 6.5 0 0 0-6.5-6.5z" stroke-width="3"/>
  </g>
</svg>