<svg viewBox="0 0 262 253" width="262" height="253" fill="none" xmlns="http://www.w3.org/2000/svg">
  <path d="M94 115H4v30h90v-30zm47-54H13v36h128V61zm117 48h-71v20h71v-20z" fill="#014371"/>
  <path opacity=".8" d="M155 154H55v35h100v-35z" fill="#014371"/>
  <path opacity=".7" d="M239 125H113v20h126v-20z" fill="#014371"/>
  <path opacity=".8" d="M214 74H84v38h130V74z" fill="#014371"/>
  <path d="M258 59h-90v20h90V59z" fill="#00639A"/>
  <path opacity=".9" d="M258 160h-67v20h67v-20z" fill="#126A9F"/>
  <path d="M248 219H140v21h108v-21zm-142 5H6v20h100v-20z" fill="#00639A"/>
  <path d="M226 176H100v21h126v-21z" fill="#126A9F"/>
  <path opacity=".9" d="M106 18H4v20h102V18z" fill="#126A9F"/>
  <path opacity=".8" d="M258 18H128v20h130V18z" fill="#014371"/>
  <path opacity=".8" d="M84 47H4v20h80V47z" fill="#126A9F"/>
  <path opacity=".4" d="M258 45H149v21h109V45z" fill="#126A9F"/>
  <path opacity=".6" d="M218 149H92v20h126v-20z" fill="#126A9F"/>
  <path opacity=".7" d="M77 177H4v20h73v-20z" fill="#00639A"/>
  <path opacity=".5" d="M170 101H42v22h128v-22zm25-99H65v25h130V2z" fill="#126A9F"/>
  <path opacity=".6" d="M180 35H55v22h125V35z" fill="#126A9F"/>
  <path opacity=".7" d="M74 151H4v20h70v-20zm121 58H67v20h128v-20z" fill="#126A9F"/>
</svg>