<svg viewBox="20 20 250 200" width="279" height="269" fill="none" xmlns="http://www.w3.org/2000/svg">
  <path d="M157.1 236.5a79.2 79.2 0 100-158.4 79.2 79.2 0 000 158.4z" fill="#F8A964" fill-opacity=".6" stroke="#ED933D" stroke-width="4"/>
  <path d="M210.8 59.4a18.8 18.8 0 100-37.6 18.8 18.8 0 000 37.6z" fill="#FABB4C" fill-opacity=".6" stroke="#F59A39" stroke-width="3"/>
  <path opacity=".6" d="M69.4 97.8a40.6 40.6 0 100-81.2 40.6 40.6 0 000 81.2z" fill="#F6C36B"/>
  <path opacity=".8" d="M69.4 95.8a38.6 38.6 0 100-77.2 38.6 38.6 0 000 77.2z" stroke="#EB9339" stroke-width="4"/>
  <path d="M207.9 161.6a15.9 15.9 0 100-31.8 15.9 15.9 0 000 31.8z" fill="#E0823F"/>
  <path d="M192.7 192a10.1 10.1 0 100-20.2 10.1 10.1 0 000 20.2z" fill="#EC8749" fill-opacity=".8"/>
  <path d="M152.8 110.8a10.1 10.1 0 100-20.2 10.1 10.1 0 000 20.2z" fill="#F08747"/>
  <path d="M135.8 171a10.5 10.5 0 100-21 10.5 10.5 0 000 21z" fill="#ED7D3C" fill-opacity=".8"/>
  <path d="M171.6 162.4a10.9 10.9 0 100-21.8 10.9 10.9 0 000 21.8z" fill="#EC8745" fill-opacity=".6"/>
  <path d="M115.5 138.4a5.4 5.4 0 100-10.8 5.4 5.4 0 000 10.8z" fill="#ED823C"/>
  <path d="M153.5 136.2a7.2 7.2 0 100-14.4 7.2 7.2 0 000 14.4z" fill="#EF7A32"/>
  <path d="M184.7 121.8a10.9 10.9 0 100-21.8 10.9 10.9 0 000 21.8z" fill="#E0823F" fill-opacity=".6"/>
  <path opacity=".7" d="M203.5 43.4a3.6 3.6 0 100-7.2 3.6 3.6 0 000 7.2z" fill="#ED7332"/>
  <path opacity=".8" d="M216.6 52.1a6.5 6.5 0 100-13 6.5 6.5 0 000 13z" fill="#EC7332" fill-opacity=".7"/>
  <path opacity=".5" d="M207.2 32.6a2.9 2.9 0 100-5.8 2.9 2.9 0 000 5.8z" fill="#EB7332"/>
  <path opacity=".8" d="M216.2 34.8a1.8 1.8 0 100-3.6 1.8 1.8 0 000 3.6z" fill="#EB7339"/>
  <path opacity=".5" d="M51.7 53.6a5.4 5.4 0 100-10.8 5.4 5.4 0 000 10.8z" fill="#F0A03E"/>
  <path opacity=".6" d="M73.1 39.1a3.6 3.6 0 100-7.2 3.6 3.6 0 000 7.2z" fill="#F19147"/>
  <path opacity=".8" d="M71.6 83.4a10.9 10.9 0 100-21.8 10.9 10.9 0 000 21.8z" fill="#F38E33"/>
  <path opacity=".8" d="M86.1 54.4a5.1 5.1 0 100-10.2 5.1 5.1 0 000 10.2z" fill="#F19838"/>
</svg>