<svg viewBox="0 0 279 269" width="279" height="269" fill="none" xmlns="http://www.w3.org/2000/svg"><g opacity=".85"><path opacity=".85" d="M228.866 56.02H50.134a4 4 0 00-4 4v178.732a4 4 0 004 4h178.732a4 4 0 004-4V60.02a4 4 0 00-4-4z" fill="#E4E8EB"/><path opacity=".85" d="M139.5 237.26c48.531 0 87.874-39.343 87.874-87.874 0-48.531-39.343-87.874-87.874-87.874-48.531 0-87.874 39.343-87.874 87.874 0 48.531 39.343 87.874 87.874 87.874z" fill="#8194A1"/><g opacity=".85" filter="url(#filter0_d)"><path opacity=".85" d="M97.76 95.17a4 4 0 014-4h59.504c1.061 0 2.078.42 2.828 1.17l9.068 9.069 9.068 9.068a3.995 3.995 0 011.172 2.828v83.707a4 4 0 01-4 4h-77.64a4 4 0 01-4-4V95.169z" fill="#E4E8EB"/></g><g opacity=".85" filter="url(#filter1_d)"><path opacity=".85" d="M162.921 91.17l10.239 10.239 10.24 10.239h-18.479a2 2 0 01-2-2V91.169z" fill="#D2DCE3"/></g><path opacity=".85" d="M109.294 108.744a1.648 1.648 0 000 3.295h29.657a1.647 1.647 0 100-3.295h-29.657zM109.293 117.532a1.647 1.647 0 100 3.295h47.233a1.647 1.647 0 000-3.295h-47.233zM141.621 181.165l19.092-19.092a3 3 0 10-4.242-4.243L142.5 171.801v-25.71h-6v25.71l-13.97-13.971a3.001 3.001 0 00-4.243 4.243l19.092 19.092a3 3 0 004.242 0zM161.469 184.755h-43.937v5.273h43.937v-5.273z" fill="#8194A1"/></g><defs><filter id="filter0_d" x="93.76" y="91.169" width="93.64" height="117.843" filterUnits="userSpaceOnUse" color-interpolation-filters="sRGB"><feFlood flood-opacity="0" result="BackgroundImageFix"/><feColorMatrix in="SourceAlpha" values="0 0 0 0 0 0 0 0 0 0 0 0 0 0 0 0 0 0 127 0"/><feOffset dy="4"/><feGaussianBlur stdDeviation="2"/><feColorMatrix values="0 0 0 0 0 0 0 0 0 0 0 0 0 0 0 0 0 0 0.25 0"/><feBlend in2="BackgroundImageFix" result="effect1_dropShadow"/><feBlend in="SourceGraphic" in2="effect1_dropShadow" result="shape"/></filter><filter id="filter1_d" x="158.921" y="91.169" width="28.479" height="28.479" filterUnits="userSpaceOnUse" color-interpolation-filters="sRGB"><feFlood flood-opacity="0" result="BackgroundImageFix"/><feColorMatrix in="SourceAlpha" values="0 0 0 0 0 0 0 0 0 0 0 0 0 0 0 0 0 0 127 0"/><feOffset dy="4"/><feGaussianBlur stdDeviation="2"/><feColorMatrix values="0 0 0 0 0 0 0 0 0 0 0 0 0 0 0 0 0 0 0.15 0"/><feBlend in2="BackgroundImageFix" result="effect1_dropShadow"/><feBlend in="SourceGraphic" in2="effect1_dropShadow" result="shape"/></filter></defs></svg>