<svg viewBox="0 0 253 107.7" width="253" height="107.7" xmlns="http://www.w3.org/2000/svg">
  <linearGradient id="SVGID_1_" gradientUnits="userSpaceOnUse" x1="0.8504" y1="53.7164" x2="108.9956" y2="53.7164">
    <stop offset="0" stop-color="#1b2a50"/>
    <stop offset="0.1156" stop-color="#1d315b"/>
    <stop offset="0.3191" stop-color="#214478"/>
    <stop offset="0.5864" stop-color="#2762a8"/>
    <stop offset="0.904" stop-color="#308cea"/>
    <stop offset="1" stop-color="#39f"/>
  </linearGradient>
  <path d="M105.7 56.9H86a3.3 3.3 0 0 1-3.3-3.3c0-1.8 1.5-3.3 3.3-3.3h19.7c1.8 0 3.3 1.5 3.3 3.3 0 1.9-1.5 3.3-3.3 3.3zM78.8 35c0-2.5-2-4.6-4.6-4.6s-4.6 2-4.6 4.6c0 1.3.5 2.4 1.3 3.2 3 3 3 7.9 0 10.9a4.6 4.6 0 0 0 3.3 7.8c2.6 0 4.6-2 4.6-4.6 0-1.3-.5-2.4-1.3-3.2-3-3-3-7.9 0-10.9.8-.8 1.3-1.9 1.3-3.2zm-2.2-14.5h-7.7a3.3 3.3 0 0 0-3.3 3.3c0 1.8 1.5 3.3 3.3 3.3h7.7c1.8 0 3.3-1.5 3.3-3.3 0-1.8-1.5-3.3-3.3-3.3zm5.5 26.6c1.9 0 3.4-1.5 3.4-3.4s-1.5-3.4-3.4-3.4a3.4 3.4 0 0 0-3.4 3.4c0 1.9 1.5 3.4 3.4 3.4zM55.9 13.8c0 1.8 1.5 3.3 3.3 3.3h26.3c1.8 0 3.3-1.5 3.3-3.3s-1.5-3.3-3.3-3.3H59.2a3.3 3.3 0 0 0-3.3 3.3zm28.8 10c0 1.8 1.5 3.3 3.3 3.3h7.7c1.8 0 3.3-1.5 3.3-3.3 0-1.8-1.5-3.3-3.3-3.3H88a3.3 3.3 0 0 0-3.3 3.3zM46.8 7.1h21.7c1.8 0 3.3-1.5 3.3-3.3S70.3.5 68.5.5H46.8C45 .5 43.5 2 43.5 3.8s1.5 3.3 3.3 3.3zm37.9 26.6c0 1.8 1.5 3.3 3.3 3.3h13.5c1.8 0 3.3-1.5 3.3-3.3 0-1.8-1.5-3.3-3.3-3.3H88a3.3 3.3 0 0 0-3.3 3.3zM42.9 64.9c0-2.5-2-4.6-4.6-4.6s-4.6 2-4.6 4.6c0 1.3.5 2.4 1.3 3.2 3 3 3 7.9 0 10.9a4.6 4.6 0 0 0 3.3 7.8c2.6 0 4.6-2 4.6-4.6 0-1.3-.5-2.4-1.3-3.2-3-3-3-7.9 0-10.9.8-.8 1.3-2 1.3-3.2zm7.9 15.3c-1.8 0-3.3 1.5-3.3 3.3s1.5 3.3 3.3 3.3h10.1c1.8 0 3.3-1.5 3.3-3.3s-1.5-3.3-3.3-3.3H50.8zm13.4-26.6c0-1.8-1.5-3.3-3.3-3.3H18.1a3.3 3.3 0 0 0-3.3 3.3c0 1.8 1.5 3.3 3.3 3.3h42.8c1.8 0 3.3-1.4 3.3-3.3zm-.8-19.9c0-1.8-1.5-3.3-3.3-3.3h-24a3.3 3.3 0 0 0-3.3 3.3c0 1.8 1.5 3.3 3.3 3.3h24.1c1.8 0 3.2-1.5 3.2-3.3zM53.9 47c.9 0 1.7-.4 2.3-1a5.4 5.4 0 0 1 7.8 0c.6.6 1.4 1 2.3 1 1.8 0 3.3-1.5 3.3-3.3s-1.5-3.3-3.3-3.3c-.9 0-1.7.4-2.3 1a5.4 5.4 0 0 1-7.8 0c-.6-.6-1.4-1-2.3-1-1.8 0-3.3 1.5-3.3 3.3s1.5 3.3 3.3 3.3zm-24 30c1.9 0 3.4-1.5 3.4-3.4s-1.5-3.4-3.4-3.4-3.4 1.5-3.4 3.4S28 77 29.9 77zm72.2 0c1.9 0 3.4-1.5 3.4-3.4s-1.5-3.4-3.4-3.4-3.4 1.5-3.4 3.4 1.5 3.4 3.4 3.4zM30.7 63.6c0-1.8-1.5-3.3-3.3-3.3h-7.2a3.3 3.3 0 0 0-3.3 3.3c0 1.8 1.5 3.3 3.3 3.3h7.2c1.8 0 3.3-1.5 3.3-3.3zm57.8-19.9c0 1.8 1.5 3.3 3.3 3.3h13c1.8 0 3.3-1.5 3.3-3.3 0-1.8-1.5-3.3-3.3-3.3h-13a3.3 3.3 0 0 0-3.3 3.3zm-19.6 56.5H51.6a3.3 3.3 0 0 0-3.3 3.3c0 1.8 1.5 3.3 3.3 3.3H69c1.8 0 3.3-1.5 3.3-3.3a3.4 3.4 0 0 0-3.4-3.3zm18.7-10H73a3.3 3.3 0 0 0-3.3 3.3c0 1.8 1.5 3.3 3.3 3.3h14.6c1.8 0 3.3-1.5 3.3-3.3 0-1.8-1.5-3.3-3.3-3.3zM41.8 100c-1.9 0-3.4 1.5-3.4 3.4s1.5 3.4 3.4 3.4 3.4-1.5 3.4-3.4-1.5-3.4-3.4-3.4zm23.9-6.5c0-1.8-1.5-3.3-3.3-3.3h-40a3.3 3.3 0 0 0-3.3 3.3c0 1.8 1.5 3.3 3.3 3.3h40c1.8 0 3.3-1.5 3.3-3.3zm39.4-33.2h-4.9a3.3 3.3 0 0 0-3.3 3.3c0 1.8 1.5 3.3 3.3 3.3h4.9c1.8 0 3.3-1.5 3.3-3.3-.1-1.8-1.5-3.3-3.3-3.3zM29.8 83.5c0-1.8-1.5-3.3-3.3-3.3H13.3c-1.8 0-3.3 1.5-3.3 3.3s1.5 3.3 3.3 3.3h13.2c1.8 0 3.3-1.5 3.3-3.3zm67-3.3h-25c-1.8 0-3.3 1.5-3.3 3.3s1.5 3.3 3.3 3.3h25c1.8 0 3.3-1.5 3.3-3.3s-1.5-3.3-3.3-3.3zM5.3 47H45c1.8 0 3.3-1.5 3.3-3.3 0-1.8-1.5-3.3-3.3-3.3H5.3A3.3 3.3 0 0 0 2 43.7C2 45.5 3.4 47 5.3 47zm9-20h44.2c1.8 0 3.3-1.5 3.3-3.3 0-1.8-1.5-3.3-3.3-3.3H14.3a3.3 3.3 0 0 0-3.3 3.3c0 1.9 1.5 3.3 3.3 3.3zm8.3 6.7c0 1.9 1.5 3.4 3.4 3.4s3.4-1.5 3.4-3.4-1.5-3.4-3.4-3.4-3.4 1.5-3.4 3.4zM8.4 37h7.8c1.8 0 3.3-1.5 3.3-3.3 0-1.8-1.5-3.3-3.3-3.3H8.4a3.3 3.3 0 0 0-3.3 3.3c0 1.8 1.5 3.3 3.3 3.3zm14.8 36.6c0-1.8-1.5-3.3-3.3-3.3H7.7c-1.8 0-3.3 1.5-3.3 3.3s1.5 3.3 3.3 3.3h12.2c1.8-.1 3.3-1.5 3.3-3.3zm1-56.5h10.5c1.8 0 3.3-1.5 3.3-3.3s-1.5-3.3-3.3-3.3H24.2c-1.8 0-3.3 1.5-3.3 3.3s1.5 3.3 3.3 3.3zm19.4-3.3c0 1.9 1.5 3.4 3.4 3.4s3.4-1.5 3.4-3.4-1.5-3.4-3.4-3.4-3.4 1.5-3.4 3.4zM11.3 66.9c1.8 0 3.3-1.5 3.3-3.3 0-1.8-1.5-3.3-3.3-3.3H4.9a3.3 3.3 0 0 0-3.3 3.3c0 1.8 1.5 3.3 3.3 3.3h6.4zm-7.2-10h4.5c1.8 0 3.3-1.5 3.3-3.3 0-1.8-1.5-3.3-3.3-3.3H4.1a3.3 3.3 0 0 0-3.3 3.3c.1 1.9 1.5 3.3 3.3 3.3z" fill="url(#SVGID_1_)"/>
  <path d="M47 68.6c0-4.7 3.7-8.5 8.9-8.5 2 0 3.5.4 5 1.3.6.4.7 1 .3 1.6l-.6.8c-.4.6-.9.6-1.6.3a6.5 6.5 0 0 0-3.1-.7 5 5 0 0 0-5.1 5.2 5 5 0 0 0 5.3 5.2c1 0 2-.2 2.9-.7v-2.5h-3c-.7 0-1.2-.4-1.2-1.1V69c0-.7.4-1.1 1.2-1.1h5.2c.7 0 1.2.4 1.2 1.1v4.7c0 .6-.2 1-.7 1.4A9.7 9.7 0 0 1 56 77c-5.4 0-9-3.8-9-8.4zm31.4 3.5c0 2.8-2.3 4.7-5.9 4.7h-6.1c-.7 0-1.2-.4-1.2-1.1V61.5c0-.7.4-1.1 1.2-1.1h5.4c3.3 0 5.8 1.7 5.8 4.5 0 1.4-.7 2.8-2.6 3.4 2.3.3 3.4 2.2 3.4 3.8zM69 63.3v4h2c2.1 0 3-1 3-2.1 0-1.2-1-1.9-2.4-1.9H69zm5.7 8.5c0-1.1-.9-2.1-3.1-2.1H69v4.1h3.4c1.5 0 2.3-.9 2.3-2zm5.1-3.2c0-4.6 3.5-8.5 9-8.5 2.1 0 3.7.6 5 1.6.6.4.7 1 .2 1.6l-.6.7c-.4.6-.9.6-1.6.2-.9-.5-2.1-.8-3.1-.8a5 5 0 0 0-5.3 5.2 5 5 0 0 0 5.3 5.2c1 0 2.2-.3 3.1-.8.6-.4 1.2-.4 1.6.2l.6.7c.4.6.4 1.1-.1 1.5-1.4 1-3 1.6-5.1 1.6-5.5 0-9-3.9-9-8.4zM135 18.4c0-4.5 3.6-8.1 8.3-8.1 1.9 0 3.4.4 4.9 1.2.5.3.6.8.3 1.3l-.4.5c-.3.5-.7.6-1.3.3-1.5-.8-2.4-.8-3.5-.8-3 0-5.3 2.4-5.3 5.5 0 2.8 1.9 5.4 5.5 5.4 1.1 0 2.2-.3 3.1-.8v-2.7h-3.1c-.6 0-.9-.4-.9-1V19c0-.6.3-.9.9-.9h4.9c.6 0 .9.3.9.9v4.5c0 .5-.2.9-.7 1.3a8.6 8.6 0 0 1-5.3 1.7 8.1 8.1 0 0 1-8.3-8.1zm17.4 6.9V11.5c0-.6.3-.9.9-.9h1.1c.6 0 .9.3.9.9v12.2h6.1c.6 0 1 .4 1 1v.6c0 .6-.4.9-1 .9h-8.2c-.5 0-.8-.3-.8-.9zm10.4-6.9a8 8 0 0 1 8.2-8 8 8 0 1 1 0 16 8 8 0 0 1-8.2-8zm13.4 0c0-3.1-2.2-5.5-5.2-5.5s-5.2 2.4-5.2 5.5 2.2 5.5 5.2 5.5c2.9 0 5.2-2.4 5.2-5.5zm17.7 3.5c0 2.6-2.2 4.3-5.4 4.3h-5.7c-.6 0-.9-.3-.9-.9V11.5c0-.6.3-.9.9-.9h5c3.1 0 5.3 1.6 5.3 4.1 0 1.4-.8 2.9-2.7 3.4 2.3.4 3.5 2.1 3.5 3.8zm-9-8.9v4.4h2.1c2.3 0 3.2-1.1 3.2-2.3 0-1.3-1.1-2.1-2.5-2.1h-2.8zm6.1 8.7c0-1.2-1-2.4-3.5-2.4h-2.7v4.4h3.6c1.6.1 2.6-.7 2.6-2zm4.1 3.4 5.3-13.7c.2-.5.6-.8 1.1-.8h1.4c.5 0 .9.2 1.1.8l5.3 13.7c.2.6 0 1.1-.7 1.1h-1.1c-.6 0-.9-.2-1.1-.8l-.9-2.3h-6.7l-.9 2.3c-.2.5-.5.8-1.1.8h-1.1c-.6 0-.9-.4-.6-1.1zm9.7-4.3-2.7-7.2-2.7 7.2h5.4zm6.6 4.5V11.5c0-.6.3-.9.9-.9h1.1c.6 0 .9.3.9.9v12.2h6.1c.6 0 1 .4 1 1v.6c0 .6-.4.9-1 .9h-8.2c-.4 0-.8-.3-.8-.9zM135 41.9c0-4.3 3.2-8 8.5-8 2 0 3.4.5 4.7 1.4.5.4.6.8.2 1.3l-.4.5c-.3.5-.8.6-1.3.2-.9-.5-2.1-.8-3.2-.8-3.5 0-5.5 2.5-5.5 5.5s2 5.5 5.5 5.5c1.1 0 2.3-.3 3.2-.8.6-.3 1-.3 1.3.2l.4.5c.3.5.3.9-.1 1.2a7.8 7.8 0 0 1-4.8 1.4c-5.3 0-8.5-3.7-8.5-8.1zm14.7 0a8 8 0 0 1 8.2-8 8 8 0 1 1 0 16 8 8 0 0 1-8.2-8zm13.4 0c0-3.1-2.2-5.5-5.2-5.5s-5.2 2.4-5.2 5.5 2.2 5.5 5.2 5.5c2.9 0 5.2-2.4 5.2-5.5zm11.2 2.1h-2.6v4.8c0 .6-.3.9-.9.9h-1.1c-.6 0-.9-.3-.9-.9V35.1c0-.6.3-.9.9-.9h5.9c3.2 0 5 2.3 5 5.1 0 2.3-1.3 4.2-3.5 4.7.2 1.6 1.1 3.7 2.6 3.7l1.1-.2c.6-.2.9-.1 1.1.4l.2.3c.2.5.2 1-.3 1.3-.7.4-1.6.6-2.5.6-3.8-.1-4.8-4.3-5-6.1zm.8-2.2c1.5 0 2.4-1.1 2.4-2.6s-1-2.6-2.4-2.6h-3.4v5.2h3.4zm12-5.2v4.3h5.4c.6 0 1 .3 1 .9v.4c0 .6-.4 1-1 1h-5.4v4h6.4c.6 0 .9.4.9 1v.6c0 .6-.3.9-.9.9h-8.4c-.6 0-.9-.3-.9-.9V35.1c0-.6.3-.9.9-.9h8.4c.6 0 .9.3.9.9v.6c0 .6-.3 1-.9 1h-6.4zM148 69c0 2.6-2.2 4.3-5.4 4.3h-5.7c-.6 0-.9-.3-.9-.9V58.6c0-.6.3-.9.9-.9h5c3.1 0 5.3 1.6 5.3 4.1 0 1.4-.8 2.9-2.7 3.4 2.3.3 3.5 2 3.5 3.8zm-9-9v4.4h2.1c2.3 0 3.2-1.1 3.2-2.3 0-1.3-1.1-2.1-2.5-2.1H139zm6.1 8.8c0-1.2-1-2.4-3.5-2.4H139v4.4h3.6c1.5.1 2.5-.8 2.5-2zm5.7 3.5V58.6c0-.6.3-.9.9-.9h1.1c.6 0 .9.3.9.9v13.7c0 .6-.3.9-.9.9h-1.1c-.6.1-.9-.3-.9-.9zm5.6-6.8a8 8 0 0 1 8.2-8 8 8 0 1 1 0 16 8 8 0 0 1-8.2-8zm13.4 0c0-3.1-2.3-5.5-5.2-5.5-3 0-5.2 2.4-5.2 5.5s2.2 5.5 5.2 5.5a5.4 5.4 0 0 0 5.2-5.5zm5.7 6.8V58.6c0-.6.3-.9.9-.9h4.7c4.9 0 8 3.5 8 7.8s-3.1 7.8-8 7.8h-4.7c-.5 0-.9-.4-.9-1zm5.5-1.5c3.2 0 5.2-2.3 5.2-5.3s-2-5.3-5.2-5.3h-2.5v10.6h2.5zm8.9 1.4 5.3-13.7c.2-.5.6-.8 1.1-.8h1.4c.5 0 .9.2 1.1.8l5.3 13.7c.2.6 0 1.1-.7 1.1h-1.1c-.6 0-.9-.2-1.1-.8l-.9-2.3h-6.7l-.9 2.3c-.2.5-.5.8-1.1.8h-1.1c-.6 0-.9-.5-.6-1.1zm9.8-4.3-2.7-7.2-2.7 7.2h5.4zm16.2-9.3v.6c0 .6-.3 1-.9 1h-4v12.2c0 .6-.3.9-.9.9h-1c-.6 0-.9-.3-.9-.9V60.2h-3.9c-.6 0-.9-.4-.9-1v-.6c0-.6.3-.9.9-.9h10.8c.4 0 .8.3.8.9zm-1 13.6 5.3-13.7c.2-.5.6-.8 1.1-.8h1.4c.5 0 .9.2 1.1.8l5.3 13.7c.2.6 0 1.1-.7 1.1h-1.1c-.6 0-.9-.2-1.1-.8l-.9-2.3h-6.7l-.9 2.3c-.2.5-.5.8-1.1.8h-1.1c-.5 0-.8-.5-.6-1.1zm9.8-4.3-2.7-7.2-2.7 7.2h5.4zm-83.2 23.2h-2.6v4.8c0 .6-.3.9-.9.9h-1.1c-.6 0-.9-.3-.9-.9V82.2c0-.6.3-.9.9-.9h5.9c3.2 0 5 2.3 5 5.1 0 2.3-1.3 4.2-3.5 4.7.2 1.6 1.1 3.7 2.6 3.7l1.1-.2c.6-.2.9-.1 1.1.4l.2.3c.2.5.2 1-.3 1.3-.7.4-1.6.6-2.5.6-3.8-.1-4.8-4.3-5-6.1zm.8-2.2c1.5 0 2.4-1.1 2.4-2.6s-1-2.6-2.4-2.6h-3.4v5.2h3.4zm12-5.2V88h5.4c.6 0 1 .3 1 .9v.4c0 .6-.4 1-1 1h-5.4v4h6.4c.6 0 .9.4.9 1v.6c0 .6-.3.9-.9.9h-8.4c-.6 0-.9-.3-.9-.9V82.2c0-.6.3-.9.9-.9h8.4c.6 0 .9.3.9.9v.6c0 .6-.3 1-.9 1h-6.4zm8.9 10.1c-.2-.6.1-1 .7-1.1l.8-.2c.6-.1.9.1 1.2.6.5.9 1.6 1.5 3 1.5 1.8 0 2.9-.8 2.9-2 0-1-.8-1.6-2-2.1l-2.2-.8c-2.4-.8-3.9-2.4-3.9-4.3 0-2.8 2.4-4.5 5.3-4.5 2.4 0 4.2 1.1 4.9 2.9.3.6 0 1-.6 1.2l-.7.2c-.6.2-.9 0-1.2-.6-.4-.8-1.3-1.2-2.4-1.2-1.3 0-2.4.7-2.4 1.9 0 .6.2 1.3 1.8 1.9l2.2.8c2.8.9 4 2.6 4 4.4 0 2.9-2.4 4.6-5.7 4.6-2.8.1-4.8-1.2-5.7-3.2zm13-4.8a8 8 0 0 1 8.2-8 8 8 0 1 1 0 16 8 8 0 0 1-8.2-8zm13.4 0c0-3.1-2.2-5.5-5.2-5.5s-5.2 2.4-5.2 5.5 2.2 5.5 5.2 5.5c2.9 0 5.2-2.4 5.2-5.5zm5.5 2v-8.8c0-.6.3-.9.9-.9h1.1c.6 0 .9.3.9.9V91c0 2.3 1.6 3.5 3.4 3.5s3.4-1.2 3.4-3.5v-8.8c0-.6.3-.9.9-.9h1.1c.6 0 .9.3.9.9V91c0 4-2.9 6.1-6.3 6.1s-6.3-2.1-6.3-6.1zm21.8.1h-2.6v4.8c0 .6-.3.9-.9.9h-1.1c-.6 0-.9-.3-.9-.9V82.2c0-.6.3-.9.9-.9h5.9c3.2 0 5 2.3 5 5.1 0 2.3-1.3 4.2-3.5 4.7.2 1.6 1.1 3.7 2.6 3.7l1.1-.2c.6-.2.9-.1 1.1.4l.2.3c.2.5.2 1-.3 1.3-.7.4-1.6.6-2.5.6-3.9-.1-4.9-4.3-5-6.1zm.8-2.2c1.5 0 2.4-1.1 2.4-2.6s-1-2.6-2.4-2.6h-3.4v5.2h3.4zm7.8.1c0-4.3 3.2-8 8.5-8 2 0 3.4.5 4.7 1.4.5.4.6.8.2 1.3l-.4.5c-.3.5-.8.6-1.3.2-.9-.5-2.1-.8-3.2-.8-3.5 0-5.5 2.5-5.5 5.5s2 5.5 5.5 5.5c1.1 0 2.3-.3 3.2-.8.6-.3 1-.3 1.3.2l.4.5c.3.5.3.9-.1 1.2a7.8 7.8 0 0 1-4.8 1.4c-5.3 0-8.5-3.7-8.5-8.1zm19-5.3V88h5.4c.6 0 1 .3 1 .9v.4c0 .6-.4 1-1 1h-5.4v4h6.4c.6 0 .9.4.9 1v.6c0 .6-.3.9-.9.9h-8.4c-.6 0-.9-.3-.9-.9V82.2c0-.6.3-.9.9-.9h8.4c.6 0 .9.3.9.9v.6c0 .6-.3 1-.9 1h-6.4z" fill="#1b2a50"/>
</svg>