<svg viewBox="0 0 21 20" fill="currentColor" xmlns="http://www.w3.org/2000/svg">
  <path d="M18.8 0H2.1A1.7 1.7 0 00.5 1.7V20l4.7-3.9h13.6a1.7 1.7 0 001.7-1.7V1.7A1.7 1.7 0 0018.8 0z" fill-opacity="30%"/>
  <path fill-rule="evenodd" d="M17.1 1.7H3.8a1.7 1.7 0 00-1.7 1.6v9.5a1.7 1.7 0 001.7 1.6h8.3l6.7 5.6V3.3a1.7 1.7 0 00-1.7-1.6zM10.5 6a1.7 1.7 0 11-3.4 0 1.7 1.7 0 013.4 0zm3.5 2a1.1 1.1 0 10-1.5-1.7A1.1 1.1 0 0014 8zm1.5 2.3s-.6-1.5-2.3-1.5c-.7 0-1.2.3-1.6.6a3.8 3.8 0 00-2.8-1.2c-2.4 0-3.3 1.9-3.3 1.9v1h10v-.8z" />
</svg>