<svg viewBox="0 0 288 280" width="288" height="280" fill="none"
	xmlns="http://www.w3.org/2000/svg">
	<path opacity=".4" d="M212.2 88.9V64.1h7.8c1.4 0 2.6.1 3.8.4 1.2.3 2.2.7 3.1 1.3.9.6 1.5 1.4 2 2.4s.7 2.2.7 3.6-.2 2.6-.7 3.6c-.5 1-1.2 1.9-2 2.5-.8.7-1.8 1.2-3 1.5-1.1.3-2.4.5-3.7.5h-3.6V89h-4.4v-.1zm4.4-12.6h3.2c3.6 0 5.5-1.5 5.5-4.5 0-1.6-.5-2.6-1.4-3.2-.9-.6-2.3-.9-4.2-.9h-3.1v8.6zm16.6 12.6V64.1h6.6c3.8 0 6.8 1 8.9 3.1 2.1 2.1 3.2 5.1 3.2 9.2 0 2.1-.3 3.9-.8 5.4-.5 1.6-1.3 2.9-2.4 4-1 1-2.3 1.8-3.7 2.4-1.4.5-3.1.8-4.9.8h-6.9v-.1zm4.4-3.6h1.9c2.5 0 4.5-.7 5.8-2.2 1.4-1.5 2.1-3.7 2.1-6.8 0-3-.7-5.3-2.1-6.7-1.4-1.4-3.3-2.1-5.8-2.1h-1.9v17.8zm18.3 3.6V64.1h7.9c1.3 0 2.5.1 3.5.3 1.1.2 2 .5 2.8 1 .8.5 1.4 1.1 1.9 1.9.5.8.7 1.7.7 2.9s-.3 2.3-.9 3.3c-.6 1-1.5 1.7-2.5 2.1v.2c1.4.3 2.5.9 3.4 1.9.9 1 1.4 2.3 1.4 4 0 1.2-.2 2.3-.7 3.2-.5.9-1.2 1.7-2 2.3-.8.6-1.8 1.1-3 1.4-1.2.3-2.4.4-3.8.4h-8.7v-.1zm4.4-14.6h3.2c1.7 0 3-.3 3.8-.9.8-.6 1.2-1.5 1.2-2.5 0-1.2-.4-2.1-1.2-2.6-.8-.5-2-.8-3.6-.8h-3.2v6.8h-.2zm0 11.2h3.7c1.8 0 3.2-.3 4.2-1s1.5-1.7 1.5-3.1c0-1.3-.5-2.3-1.4-2.8-1-.6-2.4-.9-4.3-.9h-3.7v7.8zM212.2 173.7v-24.9h7.8c1.4 0 2.6.1 3.8.4 1.2.3 2.2.7 3.1 1.3.9.6 1.5 1.4 2 2.4s.7 2.2.7 3.6-.2 2.6-.7 3.6c-.5 1-1.2 1.9-2 2.5-.8.7-1.8 1.2-3 1.5-1.1.3-2.4.5-3.7.5h-3.6v9.1h-4.4zm4.4-12.7h3.2c3.6 0 5.5-1.5 5.5-4.5 0-1.6-.5-2.6-1.4-3.2-.9-.6-2.3-.9-4.2-.9h-3.1v8.6zm16.6 12.7v-24.9h6.6c3.8 0 6.8 1 8.9 3.1 2.1 2.1 3.2 5.1 3.2 9.2 0 2.1-.3 3.9-.8 5.4-.5 1.6-1.3 2.9-2.4 4-1 1-2.3 1.8-3.7 2.4-1.4.5-3.1.8-4.9.8h-6.9zm4.4-3.6h1.9c2.5 0 4.5-.7 5.8-2.2 1.4-1.5 2.1-3.7 2.1-6.8 0-3-.7-5.3-2.1-6.6-1.4-1.4-3.3-2.1-5.8-2.1h-1.9v17.7zm18.3 3.6v-24.9h7.9c1.3 0 2.5.1 3.5.3 1.1.2 2 .5 2.8 1 .8.5 1.4 1.1 1.9 1.9.5.8.7 1.7.7 2.9s-.3 2.3-.9 3.3c-.6 1-1.5 1.7-2.5 2.1v.2c1.4.3 2.5.9 3.4 1.9.9 1 1.4 2.3 1.4 4 0 1.2-.2 2.3-.7 3.2-.5.9-1.2 1.7-2 2.3-.8.6-1.8 1.1-3 1.4-1.2.3-2.4.4-3.8.4h-8.7zm4.4-14.6h3.2c1.7 0 3-.3 3.8-1 .8-.6 1.2-1.5 1.2-2.5 0-1.2-.4-2.1-1.2-2.6-.8-.5-2-.8-3.6-.8h-3.2v6.9h-.2zm0 11.1h3.7c1.8 0 3.2-.3 4.2-1s1.5-1.7 1.5-3.1c0-1.3-.5-2.3-1.4-2.9-1-.6-2.4-.9-4.3-.9h-3.7v7.9zM11.9 121.9V97.1h7.8c1.4 0 2.6.1 3.8.4 1.2.3 2.2.7 3.1 1.3.9.6 1.5 1.4 2 2.4s.7 2.2.7 3.6-.2 2.6-.7 3.6c-.5 1-1.2 1.9-2 2.5-.8.7-1.8 1.2-3 1.5-1.1.3-2.4.5-3.7.5h-3.6v9.1h-4.4v-.1zm4.5-12.6h3.2c3.6 0 5.5-1.5 5.5-4.5 0-1.6-.5-2.6-1.4-3.2-.9-.6-2.3-.9-4.2-.9h-3.1v8.6zM33 121.9V97.1h6.6c3.8 0 6.8 1 8.9 3.1 2.1 2.1 3.2 5.1 3.2 9.2 0 2.1-.3 3.9-.8 5.4-.5 1.6-1.3 2.9-2.4 4-1 1-2.3 1.8-3.7 2.4-1.4.5-3.1.8-4.9.8H33v-.1zm4.4-3.5h1.9c2.5 0 4.5-.7 5.8-2.2 1.4-1.5 2.1-3.7 2.1-6.8 0-3-.7-5.3-2.1-6.7-1.4-1.4-3.3-2.1-5.8-2.1h-1.9v17.8zm18.2 3.5V97.1h7.9c1.3 0 2.5.1 3.5.3 1.1.2 2 .5 2.8 1 .8.5 1.4 1.1 1.9 1.9.5.8.7 1.7.7 2.9s-.3 2.3-.9 3.3c-.6 1-1.5 1.7-2.5 2.1v.2c1.4.3 2.5.9 3.4 1.9.9 1 1.4 2.3 1.4 4 0 1.2-.2 2.3-.7 3.2-.5.9-1.2 1.7-2 2.3-.8.6-1.8 1.1-3 1.4-1.2.3-2.4.4-3.8.4h-8.7v-.1zm4.4-14.6h3.2c1.7 0 3-.3 3.8-.9.8-.6 1.2-1.5 1.2-2.5 0-1.2-.4-2.1-1.2-2.6-.8-.5-2-.8-3.6-.8H60v6.8zm0 11.2h3.7c1.8 0 3.2-.3 4.2-1s1.5-1.7 1.5-3.1c0-1.3-.5-2.3-1.4-2.8-1-.6-2.4-.9-4.3-.9H60v7.8z" fill="#D2DCE3" fill-opacity=".4"/>
	<path opacity=".5" d="M13.8 35V10.1h8.4c1.3 0 2.5.1 3.6.4 1.1.3 2.1.7 2.9 1.3.8.6 1.4 1.3 1.9 2.2.5.9.7 2.1.7 3.5 0 1.9-.5 3.4-1.4 4.6-.9 1.2-2.1 2-3.6 2.5l6 10.4h-4.9L22 25.3h-3.8V35h-4.4zm4.4-13.2h3.5c1.7 0 3-.4 3.9-1.1.9-.7 1.4-1.8 1.4-3.2 0-1.4-.5-2.4-1.4-3-.9-.6-2.2-.8-3.9-.8h-3.5v8.1zm23.9 13.7c-1.3 0-2.5-.2-3.6-.6-1.1-.5-2.1-1.1-2.9-1.9-.8-.8-1.5-1.8-2-3s-.7-2.6-.7-4.1c0-1.5.2-2.9.7-4.1.5-1.2 1.1-2.2 1.9-3.1.8-.8 1.7-1.5 2.8-1.9 1-.5 2.1-.7 3.2-.7 1.3 0 2.4.2 3.3.6 1 .4 1.8 1 2.4 1.8.7.8 1.2 1.7 1.5 2.8.3 1.1.5 2.3.5 3.6 0 .4 0 .8-.1 1.2 0 .4-.1.7-.1.9H37.2c.2 1.7.8 3 1.7 3.9 1 .9 2.2 1.3 3.8 1.3.8 0 1.6-.1 2.2-.3.7-.3 1.4-.6 2.1-1l1.5 2.7c-.9.6-1.9 1.1-3 1.4-1 .3-2.2.5-3.4.5zm-4.9-11.6h8.3c0-1.4-.3-2.6-1-3.4-.6-.8-1.6-1.3-2.8-1.3-1.1 0-2.1.4-2.9 1.2-.9.8-1.4 2-1.6 3.5zM52.6 35V19.8h-2.5v-3.3l2.5-.2v-1.9c0-1 .1-1.8.3-2.7.2-.8.6-1.5 1.1-2.1.6-.6 1.2-1.1 2-1.4.8-.3 1.7-.5 2.8-.5.7 0 1.3.1 1.9.2.6.1 1.1.3 1.6.5l-.8 3.3c-.7-.3-1.4-.5-2.1-.5-1.6 0-2.4 1.1-2.4 3.2v2h3.6v3.5H57V35h-4.4zm17.6.5c-1.7 0-3.3-.3-4.9-1-1.5-.6-2.9-1.5-4.1-2.7l2.6-3c.9.8 1.9 1.5 3 2.1 1.1.5 2.3.8 3.4.8 1.4 0 2.5-.3 3.2-.9.7-.6 1.1-1.4 1.1-2.3 0-.5-.1-.9-.3-1.3-.2-.4-.4-.7-.8-.9-.3-.3-.7-.5-1.2-.8-.5-.2-1-.5-1.5-.7l-3.4-1.5-1.8-.9c-.6-.4-1.1-.8-1.6-1.4-.5-.5-.9-1.2-1.2-1.9-.3-.7-.4-1.5-.4-2.4 0-1 .2-1.9.6-2.7.4-.9 1-1.6 1.7-2.2.7-.6 1.6-1.1 2.6-1.5 1-.4 2.2-.5 3.4-.5 1.4 0 2.8.3 4.2.9 1.3.6 2.5 1.3 3.5 2.3l-2.2 2.8c-.8-.7-1.6-1.2-2.5-1.6-.9-.4-1.8-.6-2.9-.6-1.2 0-2.1.3-2.8.8-.7.5-1.1 1.2-1.1 2.1 0 .5.1.9.3 1.3.2.3.5.6.9.9.4.3.8.5 1.3.7l1.5.6 3.4 1.4c.7.3 1.4.7 2 1.1.6.4 1.1.9 1.6 1.4.5.5.8 1.2 1.1 1.9.3.7.4 1.5.4 2.4 0 1-.2 2-.6 2.9-.4.9-1 1.7-1.8 2.4s-1.7 1.2-2.8 1.6c-1.3.2-2.5.4-3.9.4zm19.6 0c-1.3 0-2.5-.2-3.6-.6-1.1-.5-2.1-1.1-2.9-1.9-.8-.8-1.5-1.8-2-3s-.7-2.6-.7-4.1c0-1.5.2-2.9.7-4.1.5-1.2 1.1-2.2 1.9-3.1.8-.8 1.7-1.5 2.8-1.9 1-.5 2.1-.7 3.2-.7 1.3 0 2.4.2 3.3.6 1 .4 1.8 1 2.4 1.8.7.8 1.2 1.7 1.5 2.8.3 1.1.5 2.3.5 3.6 0 .4 0 .8-.1 1.2 0 .4-.1.7-.1.9H84.9c.2 1.7.8 3 1.7 3.9 1 .9 2.2 1.3 3.8 1.3.8 0 1.6-.1 2.2-.3.7-.3 1.4-.6 2.1-1l1.5 2.7c-.9.6-1.9 1.1-3 1.4-1 .3-2.2.5-3.4.5zm-5-11.6h8.3c0-1.4-.3-2.6-1-3.4-.6-.8-1.6-1.3-2.8-1.3-1.1 0-2.1.4-2.9 1.2-.8.8-1.4 2-1.6 3.5zm26.4 18.5v-6.1l.2-3.1c-.7.7-1.5 1.2-2.4 1.7-.9.4-1.8.6-2.8.6-2.4 0-4.2-.8-5.6-2.5-1.4-1.7-2.1-4.1-2.1-7.2 0-1.5.2-2.9.6-4.1.5-1.2 1.1-2.2 1.8-3.1.7-.8 1.6-1.5 2.5-1.9 1-.5 2-.7 3-.7 1.1 0 2 .2 2.8.6.8.4 1.6.9 2.4 1.7h.1l.4-1.8h3.5v26h-4.4v-.1zm-3.9-10.6c1.4 0 2.7-.7 3.9-2.1V21c-.7-.6-1.3-1-1.9-1.2-.6-.2-1.2-.3-1.9-.3-1.2 0-2.2.5-3.1 1.6-.8 1.1-1.3 2.6-1.3 4.6 0 2 .4 3.6 1.1 4.6.8 1 1.8 1.5 3.2 1.5zM159 123.5c-1.6 0-3-.3-4.4-.8-1.4-.6-2.6-1.4-3.6-2.5s-1.8-2.4-2.4-4c-.6-1.6-.9-3.4-.9-5.5 0-2 .3-3.8.9-5.4.6-1.6 1.4-3 2.4-4.1 1-1.1 2.2-2 3.6-2.5 1.4-.6 2.9-.9 4.4-.9 1.6 0 3 .3 4.2 1 1.2.7 2.2 1.4 3 2.2l-2.4 2.8c-.7-.7-1.4-1.2-2.1-1.6-.8-.4-1.6-.6-2.6-.6s-2 .2-2.8.6c-.8.4-1.6 1-2.2 1.8-.6.8-1.1 1.7-1.4 2.8-.3 1.1-.5 2.4-.5 3.8 0 2.8.6 5.1 1.8 6.7 1.2 1.6 2.9 2.4 5 2.4 1.1 0 2.1-.2 3-.7.9-.5 1.6-1.1 2.4-1.9l2.4 2.8c-1 1.2-2.2 2.1-3.5 2.7-1.3.6-2.7.9-4.3.9zm10.2-.5V96.2h4.4v6.9l-.2 3.6c.8-.7 1.6-1.4 2.6-1.9 1-.6 2.1-.9 3.4-.9 2 0 3.5.6 4.4 1.9.9 1.3 1.4 3.1 1.4 5.5V123h-4.4v-11.1c0-1.5-.2-2.6-.7-3.3-.5-.6-1.2-.9-2.2-.9-.8 0-1.5.2-2.2.6-.6.4-1.3.9-2.1 1.7v13h-4.4zm20.2 0V98.2h15v3.7h-10.6v6.3h8.9v3.7h-8.9v7.3h10.9v3.7h-15.3v.1zm19 0V98.2h5l4.4 12.2c.3.8.5 1.6.8 2.4.3.8.5 1.6.8 2.4h.2c.3-.8.5-1.6.8-2.4.3-.8.5-1.6.8-2.4l4.3-12.2h5V123h-4.1v-11.4-1.9c.1-.7.1-1.4.2-2.1.1-.7.1-1.4.2-2.1.1-.7.1-1.3.2-1.9h-.2l-2 5.8-4.1 11.2h-2.6l-4.1-11.2-2-5.8h-.2c.1.6.1 1.2.2 1.9s.1 1.3.2 2.1c.1.7.1 1.4.2 2.1.1.7.1 1.3.1 1.9V123h-4.1zm26.9 0V98.2h7.9c1.3 0 2.5.1 3.5.3 1.1.2 2 .5 2.8 1 .8.5 1.4 1.1 1.9 1.9.5.8.7 1.7.7 2.9s-.3 2.3-.9 3.3c-.6 1-1.5 1.7-2.5 2.1v.2c1.4.3 2.5.9 3.4 1.9.9 1 1.4 2.3 1.4 4 0 1.2-.2 2.3-.7 3.2-.5.9-1.2 1.7-2 2.3-.8.6-1.8 1.1-3 1.4-1.2.3-2.4.4-3.8.4h-8.7v-.1zm4.4-14.6h3.2c1.7 0 3-.3 3.8-1 .8-.6 1.2-1.5 1.2-2.5 0-1.2-.4-2.1-1.2-2.6-.8-.5-2-.8-3.6-.8h-3.2v6.9h-.2zm0 11.2h3.7c1.8 0 3.2-.3 4.2-1s1.5-1.7 1.5-3.1c0-1.3-.5-2.3-1.4-2.9-1-.6-2.4-.9-4.3-.9h-3.7v7.9zm16.9 3.4V98.2h4.4v21.1h10.3v3.7h-14.7z" fill="#D2DCE3" fill-opacity=".4"/>
	<path opacity=".4" d="M158.5 40.5V15.7h15v3.7h-10.6v7h9v3.7h-9v10.4h-4.4zm22.2.5c-1.6 0-2.7-.5-3.3-1.4-.6-.9-.9-2.2-.9-3.8v-22h4.4v22.3c0 .5.1.9.3 1.1.2.2.4.3.6.3h.3c.1 0 .2 0 .4-.1l.6 3.3c-.7.1-1.5.3-2.4.3zm6.2 7.2c-.5 0-.9 0-1.3-.1s-.7-.1-1.1-.3l.8-3.4c.2.1.4.1.6.2.3.1.5.1.7.1 1 0 1.8-.3 2.4-.9.6-.6 1.1-1.3 1.4-2.3l.3-1.2-7.3-18.4h4.4L191 31c.3.8.5 1.7.8 2.6.3.9.6 1.8.8 2.7h.2c.2-.9.5-1.7.7-2.6.3-.9.5-1.8.7-2.6l2.8-9.2h4.2l-6.8 19.5c-.4 1.1-.8 2-1.3 2.8-.5.8-1 1.5-1.6 2.1-.6.6-1.3 1.1-2.1 1.4-.6.3-1.5.5-2.5.5zm16.8-7.7V15.7h7.9c1.3 0 2.5.1 3.5.3 1.1.2 2 .5 2.8 1 .8.5 1.4 1.1 1.9 1.9.5.8.7 1.7.7 2.9s-.3 2.3-.9 3.3c-.6 1-1.5 1.7-2.5 2.1v.2c1.4.3 2.5 1 3.4 1.9.9 1 1.4 2.3 1.4 4 0 1.2-.2 2.3-.7 3.2-.5.9-1.2 1.7-2 2.3-.8.6-1.8 1.1-3 1.4-1.2.3-2.4.4-3.8.4h-8.7v-.1zm4.4-14.6h3.2c1.7 0 3-.3 3.8-1 .8-.6 1.2-1.5 1.2-2.5 0-1.2-.4-2.1-1.2-2.6-.8-.5-2-.8-3.6-.8h-3.2v6.9h-.2zm0 11.2h3.7c1.8 0 3.2-.3 4.2-1s1.5-1.7 1.5-3.1c0-1.3-.5-2.3-1.4-2.9-1-.6-2.4-.9-4.3-.9h-3.7v7.9zm21.4 3.9c-1.6 0-3-.5-4-1.5s-1.5-2.3-1.5-4c0-1 .2-1.9.6-2.6.4-.8 1.1-1.5 2-2 .9-.6 2.1-1 3.4-1.4 1.4-.4 3.1-.7 5-.9 0-.5-.1-.9-.2-1.4-.1-.5-.3-.8-.6-1.2-.3-.4-.6-.6-1-.8-.4-.2-1-.3-1.6-.3-.9 0-1.8.2-2.7.5-.9.4-1.7.8-2.5 1.3l-1.6-2.9c1-.7 2.2-1.2 3.5-1.7 1.3-.5 2.7-.7 4.2-.7 2.3 0 4.1.7 5.2 2.1 1.2 1.4 1.7 3.4 1.7 6v11.1h-3.6l-.3-2.1h-.2c-.8.7-1.7 1.3-2.7 1.8-1 .4-2 .7-3.1.7zm1.4-3.5c.8 0 1.4-.2 2.1-.5.6-.4 1.3-.9 2-1.5v-4.2c-1.3.2-2.3.4-3.2.6-.9.3-1.6.5-2.1.9-.5.3-.9.7-1.1 1.1-.2.4-.3.8-.3 1.3 0 .8.3 1.4.8 1.8.3.3 1 .5 1.8.5zm17.7 3.5c-1.3 0-2.6-.2-3.8-.7-1.2-.5-2.3-1.1-3.2-1.9l2.1-2.8c.8.7 1.7 1.2 2.5 1.6.8.4 1.7.5 2.7.5 1 0 1.8-.2 2.2-.6.5-.4.7-1 .7-1.6 0-.4-.1-.7-.3-1-.2-.3-.5-.6-.9-.8-.4-.2-.8-.4-1.3-.6-.5-.2-1-.4-1.4-.6-.6-.2-1.2-.5-1.9-.8-.6-.3-1.2-.7-1.7-1.1-.5-.4-.9-.9-1.2-1.5-.3-.6-.5-1.3-.5-2.1 0-1.6.6-3 1.8-4 1.2-1 2.9-1.6 5-1.6 1.3 0 2.5.2 3.5.7 1 .5 1.9 1 2.7 1.6l-2 2.7c-.7-.5-1.3-.9-2-1.1-.7-.3-1.4-.5-2.1-.5-.9 0-1.6.2-2.1.6-.4.4-.6.9-.6 1.4 0 .4.1.7.3 1 .2.3.5.5.9.7l1.2.6c.5.2 1 .4 1.5.5.6.2 1.3.5 1.9.8.6.3 1.2.6 1.7 1.1.5.4.9 1 1.3 1.6.3.6.5 1.3.5 2.2 0 .8-.2 1.6-.5 2.3-.3.7-.8 1.3-1.4 1.8-.6.5-1.4.9-2.3 1.2-1.1.2-2.1.4-3.3.4zm18.1 0c-1.3 0-2.5-.2-3.6-.6-1.1-.5-2.1-1.1-2.9-1.9-.8-.8-1.5-1.8-2-3s-.7-2.6-.7-4.1c0-1.5.2-2.9.7-4.1.5-1.2 1.1-2.2 1.9-3.1.8-.8 1.7-1.5 2.8-1.9 1-.5 2.1-.7 3.2-.7 1.3 0 2.4.2 3.3.6 1 .4 1.8 1 2.4 1.8.7.8 1.2 1.7 1.5 2.8.3 1.1.5 2.3.5 3.6 0 .4 0 .8-.1 1.2 0 .4-.1.7-.1.9h-11.9c.2 1.7.8 3 1.7 3.9 1 .9 2.2 1.3 3.8 1.3.8 0 1.6-.1 2.2-.3.7-.3 1.4-.6 2.1-1l1.5 2.7c-.9.6-1.9 1.1-3 1.4-1 .3-2.1.5-3.3.5zm-5-11.6h8.3c0-1.4-.3-2.6-1-3.4-.6-.8-1.6-1.3-2.9-1.3-1.1 0-2.1.4-2.9 1.2-.8.8-1.3 2-1.5 3.5zM14.2 81.2V56.4h15v3.7H18.6v6.3h8.9v3.7h-8.9v7.3h10.9v3.7H14.2v.1zm19 0V62.6h3.6l.3 2.5h.2c.8-.8 1.7-1.5 2.7-2.1 1-.6 2.1-.9 3.4-.9 2 0 3.5.6 4.4 1.9.9 1.3 1.4 3.1 1.4 5.5v11.7h-4.4V70.1c0-1.5-.2-2.6-.7-3.3-.5-.6-1.2-1-2.2-1-.8 0-1.5.2-2.2.6-.6.4-1.3.9-2.1 1.7v13h-4.4v.1zm25.3.5c-1.3 0-2.6-.2-3.8-.7-1.2-.5-2.3-1.1-3.2-1.9l2.1-2.8c.8.7 1.7 1.2 2.5 1.6.8.4 1.7.5 2.7.5 1 0 1.8-.2 2.2-.6.5-.4.7-1 .7-1.6 0-.4-.1-.7-.3-1-.2-.3-.5-.6-.9-.8-.4-.2-.8-.4-1.3-.6-.5-.2-1-.4-1.4-.6-.6-.2-1.2-.5-1.9-.8-.6-.3-1.2-.7-1.7-1.1-.5-.4-.9-.9-1.2-1.5-.3-.6-.5-1.3-.5-2.1 0-1.6.6-3 1.8-4 1.2-1 2.9-1.6 5-1.6 1.3 0 2.5.2 3.5.7 1 .5 1.9 1 2.7 1.6l-2 2.7c-.7-.5-1.3-.9-2-1.1-.7-.3-1.4-.5-2.1-.5-.9 0-1.6.2-2.1.6-.4.4-.6.9-.6 1.4 0 .4.1.7.3 1 .2.3.5.5.9.7l1.2.6c.5.2 1 .4 1.5.5.6.2 1.3.5 1.9.8.6.3 1.2.6 1.7 1.1.5.4 1 1 1.3 1.6.3.6.5 1.3.5 2.2 0 .8-.2 1.6-.5 2.3-.3.7-.8 1.3-1.4 1.8-.6.5-1.4.9-2.3 1.2-1.1.2-2.1.4-3.3.4zm18.1 0c-1.3 0-2.5-.2-3.6-.6-1.1-.5-2.1-1.1-2.9-1.9-.8-.8-1.5-1.8-2-3s-.7-2.6-.7-4.1c0-1.5.2-2.9.7-4.1.5-1.2 1.1-2.2 1.9-3.1.8-.8 1.7-1.5 2.8-1.9 1-.5 2.1-.7 3.2-.7 1.3 0 2.4.2 3.3.6 1 .4 1.8 1 2.4 1.8.7.8 1.2 1.7 1.5 2.8.3 1.1.5 2.3.5 3.6 0 .4 0 .8-.1 1.2 0 .4-.1.7-.1.9H71.6c.2 1.7.8 3 1.7 3.9 1 .9 2.2 1.3 3.8 1.3.8 0 1.6-.1 2.2-.3.7-.3 1.4-.6 2.1-1l1.5 2.7c-.9.6-1.9 1.1-3 1.4-1 .3-2.1.5-3.3.5zm-5-11.6h8.3c0-1.4-.3-2.6-.9-3.4-.6-.8-1.6-1.3-2.9-1.3-1.1 0-2.1.4-2.9 1.2-.9.8-1.4 2-1.6 3.5zm15.1 11.1V62.6h3.6l.3 2.5h.2c.8-.8 1.6-1.5 2.5-2.1.9-.6 2-.9 3.2-.9 1.4 0 2.5.3 3.3.9.8.6 1.5 1.4 1.9 2.5.9-1 1.8-1.8 2.8-2.4 1-.6 2-.9 3.2-.9 2 0 3.4.6 4.4 1.9.9 1.3 1.4 3.1 1.4 5.5v11.7H109V70.1c0-1.5-.2-2.6-.7-3.3-.5-.6-1.2-1-2.1-1-1.2 0-2.5.8-3.9 2.3v13h-4.4v-11c0-1.5-.2-2.6-.7-3.3-.5-.6-1.2-1-2.2-1-1.2 0-2.5.8-3.9 2.3v13h-4.4v.1zm40 .5c-.9 0-1.7-.2-2.6-.6-.9-.4-1.7-1-2.5-1.8h-.1l-.4 2h-3.5V54.4h4.4v6.9l-.1 3.1c.8-.7 1.6-1.2 2.5-1.7.9-.4 1.9-.6 2.8-.6 1.2 0 2.2.2 3.1.7.9.4 1.7 1.1 2.3 1.9.6.8 1.1 1.8 1.4 3 .3 1.2.5 2.5.5 3.9 0 1.6-.2 3-.7 4.3-.4 1.2-1 2.3-1.7 3.2-.7.9-1.6 1.5-2.5 2-.8.3-1.8.6-2.9.6zm-.9-3.6c1.2 0 2.3-.5 3.1-1.6.8-1.1 1.3-2.7 1.3-4.8 0-1.9-.3-3.3-.9-4.4-.6-1-1.7-1.6-3.1-1.6-1.3 0-2.7.7-4.1 2.1v8.7c.7.6 1.3 1 1.9 1.2.6.2 1.2.4 1.8.4zm16.4 3.6c-1.6 0-2.7-.5-3.3-1.4-.6-.9-.9-2.2-.9-3.8v-22h4.4v22.3c0 .5.1.9.3 1.1.2.2.4.3.6.3h.3c.1 0 .2 0 .4-.1l.6 3.3c-.6.1-1.4.3-2.4.3zM14.4 165.9V141h15v3.7H18.8v7h9v3.7h-9v10.4h-4.4v.1zm22.1.5c-1.6 0-2.7-.5-3.3-1.4-.6-.9-1-2.2-1-3.8v-22h4.4v22.3c0 .5.1.9.3 1.1.2.2.4.3.6.3h.3c.1 0 .2 0 .4-.1l.6 3.3c-.5.2-1.3.3-2.3.3zm6.2 7.2c-.5 0-.9 0-1.3-.1s-.7-.1-1.1-.3l.8-3.4c.2 0 .4.1.6.2.3.1.5.1.7.1 1 0 1.8-.3 2.4-.9.6-.6 1.1-1.3 1.4-2.3l.3-1.2-7.3-18.4h4.4l3.2 9.2c.3.8.5 1.7.8 2.6.3.9.6 1.8.8 2.7h.2c.2-.9.5-1.7.7-2.6.3-.9.5-1.8.7-2.6l2.8-9.2H57l-6.8 19.5c-.4 1.1-.8 2-1.3 2.9-.5.8-1 1.5-1.6 2.1-.6.6-1.3 1.1-2.1 1.4-.6.2-1.4.3-2.5.3zm16.9-7.7V141h7.9c1.3 0 2.5.1 3.5.3 1.1.2 2 .5 2.8 1 .8.5 1.4 1.1 1.9 1.9.5.8.7 1.7.7 2.9s-.3 2.3-.9 3.3c-.6 1-1.5 1.7-2.5 2.1v.2c1.4.3 2.5 1 3.4 1.9.9 1 1.4 2.3 1.4 4 0 1.2-.2 2.3-.7 3.2-.5.9-1.2 1.7-2 2.3-.8.6-1.8 1.1-3 1.4-1.2.3-2.4.4-3.8.4h-8.7zm4.4-14.5h3.2c1.7 0 3-.3 3.8-.9.8-.6 1.2-1.5 1.2-2.5 0-1.2-.4-2.1-1.2-2.6-.8-.5-2-.8-3.6-.8H64v6.8zm0 11.1h3.7c1.8 0 3.2-.3 4.2-1s1.5-1.7 1.5-3.1c0-1.3-.5-2.3-1.4-2.8-1-.6-2.4-.9-4.3-.9H64v7.8zm21.3 3.9c-1.6 0-3-.5-4-1.5s-1.5-2.3-1.5-4c0-1 .2-1.9.6-2.6.4-.8 1.1-1.5 2-2 .9-.6 2.1-1 3.4-1.4 1.4-.4 3.1-.7 5-.9 0-.5-.1-.9-.2-1.4-.1-.5-.3-.8-.6-1.2-.3-.4-.6-.6-1-.8-.4-.2-1-.3-1.6-.3-.9 0-1.8.2-2.7.5-.9.4-1.7.8-2.5 1.3l-1.6-2.9c1-.7 2.2-1.2 3.5-1.7 1.3-.5 2.7-.7 4.2-.7 2.3 0 4.1.7 5.2 2.1 1.2 1.4 1.7 3.4 1.7 6V166h-3.6l-.3-2.1h-.2c-.8.7-1.7 1.3-2.7 1.8-1 .5-2 .7-3.1.7zm1.4-3.4c.8 0 1.4-.2 2.1-.5.6-.4 1.3-.9 2-1.5v-4.2c-1.3.2-2.3.4-3.2.6-.9.3-1.6.5-2.1.9-.5.3-.9.7-1.1 1.1-.2.4-.3.8-.3 1.3 0 .8.3 1.4.8 1.8.4.3 1 .5 1.8.5zm17.8 3.4c-1.3 0-2.6-.2-3.8-.7-1.2-.5-2.3-1.1-3.2-1.9l2.1-2.8c.8.7 1.7 1.2 2.5 1.6.8.4 1.7.5 2.7.5 1 0 1.8-.2 2.2-.6.5-.4.7-1 .7-1.6 0-.4-.1-.7-.3-1-.2-.3-.5-.6-.9-.8-.4-.2-.8-.4-1.3-.6-.5-.2-1-.4-1.4-.6-.6-.2-1.2-.5-1.9-.8-.6-.3-1.2-.7-1.7-1.1-.5-.4-.9-.9-1.2-1.5-.3-.6-.5-1.3-.5-2.1 0-1.6.6-3 1.8-4 1.2-1 2.9-1.6 5-1.6 1.3 0 2.5.2 3.5.7 1 .5 1.9 1 2.7 1.6l-2 2.7c-.7-.5-1.3-.9-2-1.1-.7-.3-1.4-.5-2.1-.5-.9 0-1.6.2-2.1.6-.4.4-.6.9-.6 1.4 0 .4.1.7.3 1 .2.3.5.5.9.7l1.2.6c.5.2 1 .4 1.5.5.6.2 1.3.5 1.9.8.6.3 1.2.6 1.7 1.1.5.4.9 1 1.3 1.6.3.6.5 1.3.5 2.2 0 .8-.2 1.6-.5 2.3-.3.7-.8 1.3-1.4 1.8-.6.5-1.4.9-2.3 1.2-1.1.3-2.2.4-3.3.4zm18 0c-1.3 0-2.5-.2-3.6-.6-1.1-.5-2.1-1.1-2.9-1.9-.8-.8-1.5-1.9-2-3-.5-1.2-.7-2.6-.7-4.1 0-1.5.2-2.9.7-4.1.5-1.2 1.1-2.2 1.9-3.1.8-.8 1.7-1.5 2.8-1.9 1-.5 2.1-.7 3.2-.7 1.3 0 2.4.2 3.3.6 1 .4 1.8 1 2.4 1.8.7.8 1.2 1.7 1.5 2.8.3 1.1.5 2.3.5 3.6 0 .4 0 .8-.1 1.2 0 .4-.1.7-.1.9h-11.9c.2 1.7.8 3 1.7 3.9 1 .9 2.2 1.3 3.8 1.3.8 0 1.6-.1 2.2-.3.7-.3 1.4-.6 2.1-1l1.5 2.7c-.9.6-1.9 1.1-3 1.4-1 .3-2.1.5-3.3.5zm-5-11.5h8.3c0-1.4-.3-2.6-.9-3.4-.6-.8-1.6-1.3-2.8-1.3-1.1 0-2.1.4-2.9 1.2-.9.8-1.5 1.9-1.7 3.5z" fill="#D2DCE3" fill-opacity=".4"/>
	<path d="M55.7 91.3l77 9.2v101.7l-77 10.1v-121z" fill="#ABC7D6"/>
	<path opacity=".5" d="M67.8 153.5l55 1.1m-39.5-38.5l38.4 2.6-38.4-2.6zm-15.5 48.4l53.9-2.2-53.9 2.2zm15.5-38.1l38.5 2.1-38.5-2.1zm-15.5 49.1l53.9-2.2-53.9 2.2zm0-41l55 2.6-55-2.6zm0 51l55-3.3-55 3.3zm0-41.9l55 2.3-55-2.3z" stroke="#8194A1"/>
	<path d="M100.8 107.8l77 9.2v101.7l-77 10.1v-121z" fill="#D2DCE3"/>
	<path d="M176.9 217.9l-75 9.9V109l75 9v99.9z" stroke="#D2DCE3" stroke-width="2"/>
	<path opacity=".5" d="M131.7 166.7l38.5.8m-38.5-38.2l38.4 2.6-38.4-2.6zM114 177.7l56.1-1.1-56.1 1.1zm17.7-38.1l38.5 2.1-38.5-2.1zm-17.7 49l51.7-1.8-51.7 1.8zm17.7-40.9l38.5 1.8-38.5-1.8zM114 199.8l55-4.4-55 4.4zm17.7-43l38.5 1.6-38.5-1.6z" stroke="#8194A1"/>
	<path d="M160.3 124.3l77 6.1v108.9l-77 6.1V124.3z" fill="#E4E8EB"/>
	<path opacity=".5" d="M173.5 184.3l38.5.8M173.5 147l38.4 2.6-38.4-2.6zm0 48.3l38.5.8-38.5-.8zm0-39.2l38.5 2.1-38.5-2.1zm0 49.1H212h-38.5zm0-39.9l38.5 1.8-38.5-1.8zm-.1 51l38.5-1.1-38.5 1.1zm.1-41.9L212 176l-38.5-1.6z" stroke="#8194A1"/>
	<path opacity=".5" d="M216.4 153l2.8 3.9 6.1-7.2" stroke="#8194A1" stroke-width="2"/>
	<path opacity=".5" d="M225.3 160.6l-9.3-.4c-.8 0-1.4-.7-1.4-1.5v-9.2c0-.9.7-1.5 1.6-1.5l9.2.5c.8 0 1.4.7 1.4 1.5v9.1c.1.9-.6 1.6-1.5 1.5z" stroke="#8194A1"/>
	<path opacity=".5" d="M116.3 148.6l2.8 3.9 6.1-7.2" stroke="#8194A1" stroke-width="2"/>
	<path opacity=".5" d="M125.2 156.2l-9.3-.4c-.8 0-1.4-.7-1.4-1.5v-9.2c0-.9.7-1.5 1.6-1.5l9.2.5c.8 0 1.4.7 1.4 1.5v9.1c.1.9-.6 1.6-1.5 1.5z" stroke="#8194A1"/>
	<path opacity=".5" d="M69 118.9l2.8 3.9 6.1-7.2" stroke="#8194A1" stroke-width="2"/>
	<path opacity=".5" d="M77.9 126.5l-9.3-.4c-.8 0-1.4-.7-1.4-1.5v-9.2c0-.9.7-1.5 1.6-1.5l9.2.5c.8 0 1.4.7 1.4 1.5v9.1c.1.9-.6 1.6-1.5 1.5zM125.2 139.7l-9.3-.4c-.8 0-1.4-.7-1.4-1.5v-9.2c0-.9.7-1.5 1.6-1.5l9.2.5c.8 0 1.4.7 1.4 1.5v9.1c.1.9-.6 1.6-1.5 1.5z" stroke="#8194A1"/>
	<path opacity=".5" d="M116.3 166.2l2.8 3.9 6.1-7.2" stroke="#8194A1" stroke-width="2"/>
	<path opacity=".5" d="M125.2 172.8l-9.3-.4c-.8 0-1.4-.7-1.4-1.5v-9.2c0-.9.7-1.5 1.6-1.5l9.2.5c.8 0 1.4.7 1.4 1.5v9.1c.1.8-.6 1.5-1.5 1.5z" stroke="#8194A1"/>
	<path opacity=".5" d="M216.4 171.3l2.8 4.4 6.1-8.3" stroke="#8194A1" stroke-width="2"/>
	<path opacity=".5" d="M225.4 177.8h-9.2c-.8 0-1.5-.7-1.5-1.5v-9.1c0-.9.7-1.5 1.6-1.5l9.2.4c.8 0 1.4.7 1.4 1.5v8.7c0 .8-.7 1.5-1.5 1.5z" stroke="#8194A1"/>
</svg>