<svg viewBox="0 0 287 269" width="287" height="269" fill="none" xmlns="http://www.w3.org/2000/svg">
  <g filter="url(#a)">
    <g filter="url(#b)">
      <path d="M216.14 247.87a5.5 5.5 0 1 0 .8 10.95 5.5 5.5 0 0 0-.8-10.95z" fill="#5C5CE8"/>
    </g>
    <path d="M228.32 248.95a5.5 5.5 0 1 0 .8 10.95 5.5 5.5 0 0 0-.8-10.95zm23.55-9.41a6.59 6.59 0 0 0-6.1 7.04 6.59 6.59 0 0 0 7.05 6.1 6.59 6.59 0 0 0 6.1-7.05 6.59 6.59 0 0 0-7.05-6.1z" fill="#7474CE"/>
    <g filter="url(#c)">
      <path d="M262.6 227.98a7.14 7.14 0 1 0 1.02 14.24 7.14 7.14 0 0 0-1.02-14.24z" fill="#5C5CE8"/>
    </g>
    <path d="M269.79 213.15a7.69 7.69 0 1 0 1.1 15.33 7.69 7.69 0 0 0-1.1-15.33z" fill="#7474CE"/>
    <g filter="url(#d)">
      <path d="M270.87 197.65a7.69 7.69 0 1 0 1.1 15.34 7.69 7.69 0 0 0-1.1-15.34z" fill="#5C5CE8"/>
    </g>
    <g filter="url(#e)">
      <path d="M268.59 181.3a7.69 7.69 0 1 0 1.1 15.33 7.69 7.69 0 0 0-1.1-15.34z" fill="#7474CE"/>
    </g>
    <g filter="url(#f)">
      <path d="M259.9 167.61a7.69 7.69 0 1 0 1.1 15.34 7.69 7.69 0 0 0-1.1-15.34z" fill="#5C5CE8"/>
    </g>
    <path d="M244.94 158.78a8.79 8.79 0 1 0 1.27 17.53 8.79 8.79 0 0 0-1.27-17.53z" fill="#7474CE"/>
    <g filter="url(#g)">
      <path d="M225.11 158.87a9.89 9.89 0 1 0 1.43 19.72 9.89 9.89 0 0 0-1.43-19.72z" fill="#5C5CE8"/>
    </g>
    <path d="M203.52 164.84a10.98 10.98 0 1 0 1.58 21.9 10.98 10.98 0 0 0-1.58-21.9z" fill="#7474CE"/>
    <g filter="url(#h)">
      <path d="M184.67 178.31a10.98 10.98 0 1 0 1.58 21.91 10.98 10.98 0 0 0-1.58-21.9z" fill="#5C5CE8"/>
    </g>
    <path d="M167.15 195a10.98 10.98 0 1 0 1.58 21.9 10.98 10.98 0 0 0-1.58-21.9z" fill="#7474CE"/>
    <g filter="url(#i)">
      <path d="M146.74 209.68a13.73 13.73 0 1 0 1.98 27.4 13.73 13.73 0 0 0-1.98-27.4z" fill="#5C5CE8"/>
    </g>
    <path d="M120.59 222.97a14.83 14.83 0 1 0 0 29.66 14.83 14.83 0 0 0 0-29.66z" fill="#7474CE"/>
    <path d="M89.28 227.37a15.38 15.38 0 1 0 0 30.75 15.38 15.38 0 0 0 0-30.75z" fill="#5C5CE8"/>
    <path d="M58.53 215.29a16.48 16.48 0 1 0 0 32.95 16.48 16.48 0 0 0 0-32.95z" fill="#7474CE"/>
    <g filter="url(#j)">
      <path d="M39.67 181.25a18.67 18.67 0 1 0 0 37.35 18.67 18.67 0 0 0 0-37.35z" fill="#5C5CE8"/>
    </g>
    <path d="M36.38 141.7a19.77 19.77 0 1 0 0 39.55 19.77 19.77 0 0 0 0-39.54z" fill="#7474CE"/>
    <g filter="url(#k)">
      <path d="M43.52 101.06a20.32 20.32 0 1 0 0 40.64 20.32 20.32 0 0 0 0-40.64z" fill="#5C5CE8"/>
    </g>
    <path d="M70.06 66.92a21.42 21.42 0 1 0 0 42.84 21.42 21.42 0 0 0 0-42.84z" fill="#7474CE"/>
    <g filter="url(#l)">
      <path d="M110.15 46.05a21.97 21.97 0 1 0 0 43.94 21.97 21.97 0 0 0 0-43.94z" fill="#5C5CE8"/>
    </g>
    <path d="M156.1 36.26a23.07 23.07 0 1 0 0 46.13 23.07 23.07 0 0 0 0-46.13z" fill="#7474CE"/>
    <g filter="url(#m)">
      <path d="M242.88 78a27.46 27.46 0 1 0 0 54.92 27.46 27.46 0 0 0 0-54.92z" fill="#5C5CE8"/>
    </g>
    <g filter="url(#n)">
      <path d="M240.3 245.88a5.5 5.5 0 1 0 .78 10.96 5.5 5.5 0 0 0-.79-10.96z" fill="#5C5CE8"/>
    </g>
  </g>
  <path fill-rule="evenodd" clip-rule="evenodd" d="M223.85 83.94a26.36 26.36 0 1 1 8.52-16.55 26.25 26.25 0 0 1-4.84 12.46l3.7 3 1.6-1.96 25.6 20.75-6.92 8.53-25.6-20.75 1.87-2.3-3.93-3.18zm3.56-17.12a21.36 21.36 0 1 1-42.45-4.9 21.36 21.36 0 0 1 42.45 4.9z" fill="#33206E"/>
  <path d="M174.68 39.21a1.35 1.35 0 0 1-.18.02c-.88.04-1.63-.8-1.67-1.86-.04-1.06.64-1.95 1.53-1.98.13 0 .25 0 .37.04 7.21.28 12.28 2.04 15.86 4.8 3.66 2.84 5.6 6.6 6.77 10.4.88 2.88 1.32 5.92 1.71 8.54l.33 2.13c.53 3.26 1.12 5.22 2.21 6.23.32.3.61.36 1.1.17.61-.23 1.38-.83 2.32-1.84 1.28-1.37 2.55-3.13 3.87-4.95.65-.9 1.32-1.83 2-2.73.98-1.28 2-2.52 3.01-3.4.96-.83 2.25-1.65 3.67-1.35 1.54.32 2.51 1.77 3.13 3.47.63 1.73 1.07 4.19 1.37 7.44.26 2.97.93 4.75 1.71 5.82a4.58 4.58 0 0 0 3.1 1.84c1.36.24 2.99.1 4.85-.24 1.26-.23 2.52-.54 3.84-.86l2-.48c2-.46 4.06-.86 6.01-.87a9.32 9.32 0 0 1 5.64 1.6c3.55 2.56 5.12 8.06 4.65 17.34h-.02c-.05.98-.7 1.76-1.53 1.8-.88.02-1.63-.8-1.67-1.87a2.37 2.37 0 0 1 0-.19h-.02c.46-9.05-1.2-12.5-3.09-13.86-1-.72-2.29-1.04-3.91-1.03-1.63 0-3.44.35-5.4.8l-1.87.44c-1.35.33-2.75.67-4.08.92-1.97.37-4 .57-5.86.25a7.75 7.75 0 0 1-5.1-3.15c-1.36-1.87-2.18-4.48-2.48-7.9-.28-3.13-.69-5.14-1.12-6.35-.22-.6-.42-.91-.55-1.07a.57.57 0 0 0-.11-.11l-.03-.01c-.03-.01-.37-.02-1.17.67-.73.64-1.58 1.63-2.53 2.88l-1.77 2.4v.01c-1.39 1.93-2.9 4.01-4.33 5.54a10.1 10.1 0 0 1-3.48 2.64 3.8 3.8 0 0 1-4.15-.82c-2.17-2-2.9-5.4-3.4-8.5l-.37-2.41a52.66 52.66 0 0 0-1.54-7.7c-.99-3.25-2.56-6.22-5.48-8.48-2.92-2.25-7.32-3.91-14.14-4.18z" fill="#00639A"/>
  <path fill-rule="evenodd" clip-rule="evenodd" d="M165 6a2 2 0 0 1-.26 1l-.13.24-.5.95a86.4 86.4 0 0 1-1.82 3.25 62.8 62.8 0 0 1-6.14 8.8c-2.37 2.74-5.34 5.43-8.56 6.05a6.7 6.7 0 0 1-5.1-1c-1.57-1.03-2.87-2.72-3.94-4.98-1.86-3.9-3.5-4.82-4.66-5-1.42-.2-3.1.47-5.56 1.76l-.9.48c-2.05 1.1-4.51 2.42-7.1 2.96-3.2.65-6.57.14-9.97-2.71-2.67-2.24-4.46-2.5-5.55-2.23-1.12.28-2.24 1.28-3.15 3.21-.9 1.9-1.44 4.36-1.56 6.86a17 17 0 0 0 .8 6.54 5.63 5.63 0 0 0 2.87 3.03c1.29.67 2.74 1.07 4.23 1.47l.33.09c.75.2 1.56.43 2.26.72.65.27 1.53.72 2.1 1.55.7.99.7 2.12.34 3.14a8.71 8.71 0 0 1-1.8 2.73c-1.06 1.17-1.54 2.96-1.67 5.15a32.17 32.17 0 0 0 .03 4.07c.03.73.07 1.45.07 2.05 0 .44-.02.9-.07 1.32-.05.4-.16.93-.42 1.42a2.63 2.63 0 0 1-1.7 1.36c-.78.2-1.48-.02-1.95-.22-.9-.4-1.87-1.21-2.92-2.24a76.1 76.1 0 0 1-4.19-4.55c-1.63-1.9-2.89-2.97-3.82-3.5-.9-.52-1.28-.43-1.4-.4-.18.07-.54.3-1.02 1.1-.47.77-.9 1.84-1.35 3.17-.3.93-.6 1.9-.9 2.93l-.4 1.34a42.56 42.56 0 0 1-1.55 4.43c-1.12 2.62-3 5.66-6.57 5.82-2.4.1-4.6-.12-6.4-1a6.69 6.69 0 0 1-3.64-4.74c-.46-2.06-.26-4.57.42-7.48.7-2.95 1.92-6.49 3.68-10.7.64-1.53.39-2.44-.13-3.11-.64-.83-1.95-1.62-4.02-2.17-4.11-1.08-10.09-.88-15.38.62a23 23 0 0 0-6.82 3.05c-1.83 1.27-3 2.7-3.51 4.22-.95 2.84.15 7.36 8.07 13.7a6.54 6.54 0 0 1 2.46 6.42 9.07 9.07 0 0 1-3.56 5.52 8.77 8.77 0 0 1-6.77 1.7c-2.58-.47-4.99-2.15-6.9-5.16-2.8-4.41-4.74-5.63-6-5.87-1.24-.24-2.5.32-4.52 1.63-.24.15-.48.3-.73.48-1.72 1.14-3.9 2.57-6.41 3.14-3.12.7-6.53.07-10.43-2.8a2 2 0 1 1 2.38-3.22c3.15 2.32 5.4 2.52 7.18 2.12 1.75-.4 3.25-1.38 5.02-2.54l.82-.54c1.93-1.25 4.47-2.77 7.46-2.2 2.97.57 5.7 3.05 8.61 7.65 1.45 2.29 2.99 3.15 4.24 3.37a4.76 4.76 0 0 0 3.66-.97 5.06 5.06 0 0 0 2-3 2.56 2.56 0 0 0-1.02-2.61C42.98 57.13 40 51 41.8 45.6c.86-2.59 2.75-4.66 5.03-6.25a27 27 0 0 1 8.03-3.62c5.82-1.64 12.54-1.93 17.48-.63 2.45.64 4.75 1.75 6.16 3.58 1.53 1.97 1.75 4.45.65 7.09a67.23 67.23 0 0 0-3.47 10.07c-.63 2.67-.69 4.49-.41 5.68.24 1.08.74 1.67 1.52 2.05.9.45 2.32.69 4.45.6.96-.05 1.97-.85 3.06-3.4.5-1.17.95-2.53 1.39-4l.37-1.25c.31-1.05.63-2.13.97-3.13.46-1.4 1.01-2.82 1.72-3.98a6.14 6.14 0 0 1 3.18-2.82c1.56-.53 3.16-.16 4.68.71 1.48.86 3.08 2.3 4.84 4.35a72.01 72.01 0 0 0 3.95 4.3l.23.22-.03-.74-.05-1c-.04-1.1-.06-2.34.01-3.6.15-2.47.72-5.39 2.7-7.59.4-.46.66-.8.81-1.04l-.03-.02c-.43-.17-1-.34-1.78-.55l-.38-.1c-1.42-.39-3.28-.89-4.98-1.78a9.59 9.59 0 0 1-4.74-5.15 20.9 20.9 0 0 1-1.06-8.14c.14-2.88.76-5.9 1.94-8.38 1.17-2.45 3.04-4.71 5.84-5.4 2.85-.68 5.92.42 9.06 3.05 2.42 2.03 4.55 2.28 6.6 1.86 1.97-.4 3.86-1.41 5.97-2.54l.97-.51c2.29-1.2 5.1-2.6 8-2.18 3.13.45 5.6 2.85 7.68 7.22.9 1.88 1.79 2.88 2.54 3.37.69.46 1.37.57 2.14.42 1.77-.35 3.97-2.05 6.28-4.74a58.9 58.9 0 0 0 5.73-8.21 80.98 80.98 0 0 0 1.73-3.1l.47-.89.07-.15.04-.07A2 2 0 0 1 165 6zm25 102.5-.01.19c-.27 2.29-.31 3.96-.21 5.17.1 1.22.34 1.84.53 2.15.16.23.3.3.51.35.29.06.7.04 1.32-.07l.63-.11c.44-.1.97-.2 1.39-.25.7-.09 1.62-.13 2.5.23.97.39 1.66 1.16 2.07 2.24.4 1.01.54 2.33.5 3.96a6.75 6.75 0 0 0 .36 2.8c.19.42.37.5.52.55.25.07.7.07 1.4-.15.7-.2 1.51-.56 2.41-1.03.9-.47 1.82-1.02 2.76-1.58l.1-.06c.9-.53 1.8-1.08 2.65-1.53.87-.45 1.78-.87 2.62-1.07.8-.2 1.96-.28 2.9.51a2.99 2.99 0 0 1 1.1 2.06 3.8 3.8 0 0 1-.45 1.97c-.38.79-1.04 1.66-1.62 2.44l-.47.62a8.56 8.56 0 0 0-1.53 2.82c-.19.77-.12 1.54.58 2.46 1.39 1.8 3.54 1.86 5.9 1.13a16.16 16.16 0 0 0 3.86-1.83l.17-.1.07-.05.03-.02.02-.02h.01a1.5 1.5 0 0 1 1.75 2.44v.01l-.03.02-.08.06a5.73 5.73 0 0 1-.13.08l-.17.11a19.94 19.94 0 0 1-4.57 2.16c-2.7.84-6.6 1.19-9.2-2.19a5.68 5.68 0 0 1-1.13-5c.36-1.48 1.25-2.8 2.01-3.85l.64-.86c.54-.71.94-1.25 1.19-1.76.08-.16.12-.27.13-.34a2.05 2.05 0 0 0-.26.04c-.46.11-1.1.38-1.9.81-.79.42-1.64.92-2.56 1.47l-.07.04a64.2 64.2 0 0 1-2.9 1.66c-.96.5-1.97.97-2.94 1.26-.95.28-2.03.44-3.06.15a3.8 3.8 0 0 1-2.49-2.22 9.56 9.56 0 0 1-.62-4.1 7.82 7.82 0 0 0-.3-2.83c-.17-.42-.32-.48-.38-.5-.14-.07-.42-.1-.98-.03-.36.04-.66.1-1 .17l-.9.17c-.69.11-1.56.22-2.42.05a3.73 3.73 0 0 1-2.45-1.67c-.59-.9-.9-2.1-1.02-3.56-.12-1.48-.05-3.36.23-5.76a1.5 1.5 0 0 1 2.99.19zm23.15 14.66zM141.4 99.49a6.1 6.1 0 0 1-4.55 1.56 6.12 6.12 0 0 1-4.37-1.94 10.66 10.66 0 0 1-1.99-3.4 64.47 64.47 0 0 1-.34-.89c-.28-.72-.49-1.26-.75-1.69a1.93 1.93 0 0 0-.18-.24c-.1.3-.2.77-.27 1.43-.08.7-.12 1.52-.16 2.41v.06c-.05.9-.1 1.86-.2 2.78-.1.9-.26 1.84-.55 2.66-.28.81-.76 1.7-1.6 2.27-.93.62-2 .71-3.1.43-1.06-.26-2.2-.88-3.46-1.8a8.78 8.78 0 0 0-2.4-1.35 1.37 1.37 0 0 0-.43-.08H117v.01h-.01c-.02.01-.14.09-.34.46a8.41 8.41 0 0 0-.33.7l-.33.7a5.19 5.19 0 0 1-1.27 1.76c-.7.6-1.6.89-2.66.78a8.1 8.1 0 0 1-3.23-1.24 32.5 32.5 0 0 1-4.34-3.25 1.5 1.5 0 0 1 2.01-2.24 29.66 29.66 0 0 0 3.94 2.95c1.01.6 1.63.79 1.97.82.26.03.32-.02.36-.06.11-.1.27-.3.49-.75l.19-.43a18 18 0 0 1 .53-1.11c.3-.54.77-1.25 1.58-1.69a3.65 3.65 0 0 1 2.86-.17c.96.29 2.04.9 3.29 1.8a7.7 7.7 0 0 0 2.42 1.32c.45.11.58.02.6 0 .08-.05.26-.23.45-.76.18-.5.3-1.19.4-2 .09-.82.13-1.7.18-2.6v-.11c.05-.86.1-1.75.18-2.55.09-.8.23-1.67.53-2.38.3-.71.93-1.62 2.14-1.8.76-.12 1.48 0 2.1.38.6.35 1 .86 1.29 1.33.42.68.76 1.59 1.07 2.38l.25.64a7.94 7.94 0 0 0 1.4 2.5c.53.55 1.21.95 2.3 1a3 3 0 0 0 2.32-.75c.54-.5.93-1.24 1.2-2.12a10.87 10.87 0 0 0 .46-3.33v-.06a2.26 2.26 0 0 0-.01-.16V91.6h.01a1.5 1.5 0 0 1 3-.22h.01v.13l.01.3a14.57 14.57 0 0 1-.57 4.22 7.73 7.73 0 0 1-2.05 3.45z" fill="#00639A"/>
  <defs>
    <filter id="a" x="16.61" y="36.26" width="263.04" height="230.04" filterUnits="userSpaceOnUse" color-interpolation-filters="sRGB">
      <feFlood flood-opacity="0" result="BackgroundImageFix"/>
      <feBlend in="SourceGraphic" in2="BackgroundImageFix" result="shape"/>
      <feColorMatrix in="SourceAlpha" values="0 0 0 0 0 0 0 0 0 0 0 0 0 0 0 0 0 0 127 0" result="hardAlpha"/>
      <feOffset dy="8"/>
      <feGaussianBlur stdDeviation="3"/>
      <feComposite in2="hardAlpha" operator="arithmetic" k2="-1" k3="1"/>
      <feColorMatrix values="0 0 0 0 0 0 0 0 0 0 0 0 0 0 0 0 0 0 0.2 0"/>
      <feBlend in2="shape" result="effect1_innerShadow"/>
    </filter>
    <filter id="b" x="211.04" y="247.85" width="10.98" height="16.98" filterUnits="userSpaceOnUse" color-interpolation-filters="sRGB">
      <feFlood flood-opacity="0" result="BackgroundImageFix"/>
      <feBlend in="SourceGraphic" in2="BackgroundImageFix" result="shape"/>
      <feColorMatrix in="SourceAlpha" values="0 0 0 0 0 0 0 0 0 0 0 0 0 0 0 0 0 0 127 0" result="hardAlpha"/>
      <feOffset dy="6"/>
      <feGaussianBlur stdDeviation="4"/>
      <feComposite in2="hardAlpha" operator="arithmetic" k2="-1" k3="1"/>
      <feColorMatrix values="0 0 0 0 0 0 0 0 0 0 0 0 0 0 0 0 0 0 0.25 0"/>
      <feBlend in2="shape" result="effect1_innerShadow"/>
    </filter>
    <filter id="c" x="255.97" y="227.96" width="14.28" height="18.28" filterUnits="userSpaceOnUse" color-interpolation-filters="sRGB">
      <feFlood flood-opacity="0" result="BackgroundImageFix"/>
      <feBlend in="SourceGraphic" in2="BackgroundImageFix" result="shape"/>
      <feColorMatrix in="SourceAlpha" values="0 0 0 0 0 0 0 0 0 0 0 0 0 0 0 0 0 0 127 0" result="hardAlpha"/>
      <feOffset dy="4"/>
      <feGaussianBlur stdDeviation="2"/>
      <feComposite in2="hardAlpha" operator="arithmetic" k2="-1" k3="1"/>
      <feColorMatrix values="0 0 0 0 0 0 0 0 0 0 0 0 0 0 0 0 0 0 0.25 0"/>
      <feBlend in2="shape" result="effect1_innerShadow"/>
    </filter>
    <filter id="d" x="263.2" y="197.1" width="16.45" height="20.45" filterUnits="userSpaceOnUse" color-interpolation-filters="sRGB">
      <feFlood flood-opacity="0" result="BackgroundImageFix"/>
      <feBlend in="SourceGraphic" in2="BackgroundImageFix" result="shape"/>
      <feColorMatrix in="SourceAlpha" values="0 0 0 0 0 0 0 0 0 0 0 0 0 0 0 0 0 0 127 0" result="hardAlpha"/>
      <feOffset dy="4"/>
      <feGaussianBlur stdDeviation="2"/>
      <feComposite in2="hardAlpha" operator="arithmetic" k2="-1" k3="1"/>
      <feColorMatrix values="0 0 0 0 0 0 0 0 0 0 0 0 0 0 0 0 0 0 0.25 0"/>
      <feBlend in2="shape" result="effect1_innerShadow"/>
    </filter>
    <filter id="e" x="261.45" y="181.28" width="15.38" height="19.38" filterUnits="userSpaceOnUse" color-interpolation-filters="sRGB">
      <feFlood flood-opacity="0" result="BackgroundImageFix"/>
      <feBlend in="SourceGraphic" in2="BackgroundImageFix" result="shape"/>
      <feColorMatrix in="SourceAlpha" values="0 0 0 0 0 0 0 0 0 0 0 0 0 0 0 0 0 0 127 0" result="hardAlpha"/>
      <feOffset dy="4"/>
      <feGaussianBlur stdDeviation="2"/>
      <feComposite in2="hardAlpha" operator="arithmetic" k2="-1" k3="1"/>
      <feColorMatrix values="0 0 0 0 0 0 0 0 0 0 0 0 0 0 0 0 0 0 0.25 0"/>
      <feBlend in2="shape" result="effect1_innerShadow"/>
    </filter>
    <filter id="f" x="252.76" y="167.59" width="15.38" height="19.38" filterUnits="userSpaceOnUse" color-interpolation-filters="sRGB">
      <feFlood flood-opacity="0" result="BackgroundImageFix"/>
      <feBlend in="SourceGraphic" in2="BackgroundImageFix" result="shape"/>
      <feColorMatrix in="SourceAlpha" values="0 0 0 0 0 0 0 0 0 0 0 0 0 0 0 0 0 0 127 0" result="hardAlpha"/>
      <feOffset dy="4"/>
      <feGaussianBlur stdDeviation="2"/>
      <feComposite in2="hardAlpha" operator="arithmetic" k2="-1" k3="1"/>
      <feColorMatrix values="0 0 0 0 0 0 0 0 0 0 0 0 0 0 0 0 0 0 0.25 0"/>
      <feBlend in2="shape" result="effect1_innerShadow"/>
    </filter>
    <filter id="g" x="215.94" y="158.85" width="19.77" height="25.77" filterUnits="userSpaceOnUse" color-interpolation-filters="sRGB">
      <feFlood flood-opacity="0" result="BackgroundImageFix"/>
      <feBlend in="SourceGraphic" in2="BackgroundImageFix" result="shape"/>
      <feColorMatrix in="SourceAlpha" values="0 0 0 0 0 0 0 0 0 0 0 0 0 0 0 0 0 0 127 0" result="hardAlpha"/>
      <feOffset dy="6"/>
      <feGaussianBlur stdDeviation="4"/>
      <feComposite in2="hardAlpha" operator="arithmetic" k2="-1" k3="1"/>
      <feColorMatrix values="0 0 0 0 0 0 0 0 0 0 0 0 0 0 0 0 0 0 0.25 0"/>
      <feBlend in2="shape" result="effect1_innerShadow"/>
    </filter>
    <filter id="h" x="173.71" y="177.52" width="23.49" height="29.49" filterUnits="userSpaceOnUse" color-interpolation-filters="sRGB">
      <feFlood flood-opacity="0" result="BackgroundImageFix"/>
      <feBlend in="SourceGraphic" in2="BackgroundImageFix" result="shape"/>
      <feColorMatrix in="SourceAlpha" values="0 0 0 0 0 0 0 0 0 0 0 0 0 0 0 0 0 0 127 0" result="hardAlpha"/>
      <feOffset dy="6"/>
      <feGaussianBlur stdDeviation="4"/>
      <feComposite in2="hardAlpha" operator="arithmetic" k2="-1" k3="1"/>
      <feColorMatrix values="0 0 0 0 0 0 0 0 0 0 0 0 0 0 0 0 0 0 0.25 0"/>
      <feBlend in2="shape" result="effect1_innerShadow"/>
    </filter>
    <filter id="i" x="133.99" y="209.65" width="27.46" height="33.46" filterUnits="userSpaceOnUse" color-interpolation-filters="sRGB">
      <feFlood flood-opacity="0" result="BackgroundImageFix"/>
      <feBlend in="SourceGraphic" in2="BackgroundImageFix" result="shape"/>
      <feColorMatrix in="SourceAlpha" values="0 0 0 0 0 0 0 0 0 0 0 0 0 0 0 0 0 0 127 0" result="hardAlpha"/>
      <feOffset dy="6"/>
      <feGaussianBlur stdDeviation="4"/>
      <feComposite in2="hardAlpha" operator="arithmetic" k2="-1" k3="1"/>
      <feColorMatrix values="0 0 0 0 0 0 0 0 0 0 0 0 0 0 0 0 0 0 0.25 0"/>
      <feBlend in2="shape" result="effect1_innerShadow"/>
    </filter>
    <filter id="j" x="21" y="181.25" width="37.35" height="45.35" filterUnits="userSpaceOnUse" color-interpolation-filters="sRGB">
      <feFlood flood-opacity="0" result="BackgroundImageFix"/>
      <feBlend in="SourceGraphic" in2="BackgroundImageFix" result="shape"/>
      <feColorMatrix in="SourceAlpha" values="0 0 0 0 0 0 0 0 0 0 0 0 0 0 0 0 0 0 127 0" result="hardAlpha"/>
      <feOffset dy="10"/>
      <feGaussianBlur stdDeviation="4"/>
      <feComposite in2="hardAlpha" operator="arithmetic" k2="-1" k3="1"/>
      <feColorMatrix values="0 0 0 0 0 0 0 0 0 0 0 0 0 0 0 0 0 0 0.25 0"/>
      <feBlend in2="shape" result="effect1_innerShadow"/>
    </filter>
    <filter id="k" x="23.2" y="101.06" width="40.64" height="48.64" filterUnits="userSpaceOnUse" color-interpolation-filters="sRGB">
      <feFlood flood-opacity="0" result="BackgroundImageFix"/>
      <feBlend in="SourceGraphic" in2="BackgroundImageFix" result="shape"/>
      <feColorMatrix in="SourceAlpha" values="0 0 0 0 0 0 0 0 0 0 0 0 0 0 0 0 0 0 127 0" result="hardAlpha"/>
      <feOffset dy="10"/>
      <feGaussianBlur stdDeviation="4"/>
      <feComposite in2="hardAlpha" operator="arithmetic" k2="-1" k3="1"/>
      <feColorMatrix values="0 0 0 0 0 0 0 0 0 0 0 0 0 0 0 0 0 0 0.25 0"/>
      <feBlend in2="shape" result="effect1_innerShadow"/>
    </filter>
    <filter id="l" x="88.18" y="46.05" width="43.94" height="51.94" filterUnits="userSpaceOnUse" color-interpolation-filters="sRGB">
      <feFlood flood-opacity="0" result="BackgroundImageFix"/>
      <feBlend in="SourceGraphic" in2="BackgroundImageFix" result="shape"/>
      <feColorMatrix in="SourceAlpha" values="0 0 0 0 0 0 0 0 0 0 0 0 0 0 0 0 0 0 127 0" result="hardAlpha"/>
      <feOffset dy="10"/>
      <feGaussianBlur stdDeviation="4"/>
      <feComposite in2="hardAlpha" operator="arithmetic" k2="-1" k3="1"/>
      <feColorMatrix values="0 0 0 0 0 0 0 0 0 0 0 0 0 0 0 0 0 0 0.25 0"/>
      <feBlend in2="shape" result="effect1_innerShadow"/>
    </filter>
    <filter id="m" x="215.42" y="78" width="54.92" height="62.92" filterUnits="userSpaceOnUse" color-interpolation-filters="sRGB">
      <feFlood flood-opacity="0" result="BackgroundImageFix"/>
      <feBlend in="SourceGraphic" in2="BackgroundImageFix" result="shape"/>
      <feColorMatrix in="SourceAlpha" values="0 0 0 0 0 0 0 0 0 0 0 0 0 0 0 0 0 0 127 0" result="hardAlpha"/>
      <feOffset dy="10"/>
      <feGaussianBlur stdDeviation="4"/>
      <feComposite in2="hardAlpha" operator="arithmetic" k2="-1" k3="1"/>
      <feColorMatrix values="0 0 0 0 0 0 0 0 0 0 0 0 0 0 0 0 0 0 0.25 0"/>
      <feBlend in2="shape" result="effect1_innerShadow"/>
    </filter>
    <filter id="n" x="235.19" y="245.87" width="10.98" height="16.98" filterUnits="userSpaceOnUse" color-interpolation-filters="sRGB">
      <feFlood flood-opacity="0" result="BackgroundImageFix"/>
      <feBlend in="SourceGraphic" in2="BackgroundImageFix" result="shape"/>
      <feColorMatrix in="SourceAlpha" values="0 0 0 0 0 0 0 0 0 0 0 0 0 0 0 0 0 0 127 0" result="hardAlpha"/>
      <feOffset dy="6"/>
      <feGaussianBlur stdDeviation="4"/>
      <feComposite in2="hardAlpha" operator="arithmetic" k2="-1" k3="1"/>
      <feColorMatrix values="0 0 0 0 0 0 0 0 0 0 0 0 0 0 0 0 0 0 0.25 0"/>
      <feBlend in2="shape" result="effect1_innerShadow"/>
    </filter>
  </defs>
</svg>