<svg viewBox="0 0 287 269" width="287" height="269" fill="none" xmlns="http://www.w3.org/2000/svg"><g filter="url(#filter0_i)"><g filter="url(#filter1_i)"><path d="M216.138 247.866a5.493 5.493 0 10.793 10.957 5.493 5.493 0 00-.793-10.957z" fill="#5C5CE8"/></g><path d="M228.318 248.946a5.493 5.493 0 10.793 10.957 5.493 5.493 0 00-.793-10.957zM251.867 239.536a6.59 6.59 0 00-6.098 7.048 6.59 6.59 0 007.048 6.098 6.59 6.59 0 006.098-7.048 6.59 6.59 0 00-7.048-6.098z" fill="#7474CE"/><g filter="url(#filter2_i)"><path d="M262.597 227.982a7.14 7.14 0 101.027 14.242 7.14 7.14 0 00-1.027-14.242z" fill="#5C5CE8"/></g><path d="M269.785 213.146a7.689 7.689 0 101.108 15.338 7.689 7.689 0 00-1.108-15.338z" fill="#7474CE"/><g filter="url(#filter3_i)"><path d="M270.868 197.65a7.689 7.689 0 101.108 15.338 7.689 7.689 0 00-1.108-15.338z" fill="#5C5CE8"/></g><g filter="url(#filter4_i)"><path d="M268.586 181.295a7.689 7.689 0 101.108 15.338 7.689 7.689 0 00-1.108-15.338z" fill="#7474CE"/></g><g filter="url(#filter5_i)"><path d="M259.895 167.612a7.689 7.689 0 101.108 15.338 7.689 7.689 0 00-1.108-15.338z" fill="#5C5CE8"/></g><path d="M244.94 158.781a8.788 8.788 0 101.267 17.53 8.788 8.788 0 00-1.267-17.53z" fill="#7474CE"/><g filter="url(#filter6_i)"><path d="M225.112 158.872c-5.446.393-9.541 5.127-9.148 10.572.393 5.446 5.127 9.541 10.572 9.148 5.446-.393 9.541-5.127 9.148-10.572-.393-5.446-5.127-9.541-10.572-9.148z" fill="#5C5CE8"/></g><path d="M203.518 164.836c-6.051.437-10.602 5.697-10.165 11.747.437 6.051 5.697 10.602 11.747 10.165 6.051-.437 10.602-5.697 10.165-11.747-.437-6.051-5.697-10.602-11.747-10.165z" fill="#7474CE"/><g filter="url(#filter7_i)"><path d="M184.668 178.311c-6.051.437-10.602 5.697-10.165 11.747.437 6.051 5.697 10.602 11.747 10.165 6.051-.437 10.602-5.697 10.165-11.747-.437-6.051-5.697-10.602-11.747-10.165z" fill="#5C5CE8"/></g><path d="M167.15 194.994c-6.051.437-10.602 5.697-10.165 11.747.437 6.051 5.697 10.602 11.747 10.165 6.051-.437 10.602-5.697 10.165-11.747-.437-6.051-5.697-10.602-11.747-10.165z" fill="#7474CE"/><g filter="url(#filter8_i)"><path d="M146.736 209.684c-7.563.547-13.252 7.121-12.706 14.684.547 7.563 7.121 13.252 14.684 12.706 7.563-.547 13.252-7.121 12.706-14.684-.547-7.563-7.121-13.252-14.684-12.706z" fill="#5C5CE8"/></g><path d="M120.588 222.972c-8.19 0-14.829 6.639-14.829 14.829 0 8.19 6.639 14.829 14.829 14.829 8.19 0 14.829-6.639 14.829-14.829 0-8.19-6.639-14.829-14.829-14.829z" fill="#7474CE"/><path d="M89.283 227.366c-8.493 0-15.378 6.885-15.378 15.378s6.885 15.378 15.378 15.378 15.378-6.885 15.378-15.378-6.885-15.378-15.378-15.378z" fill="#5C5CE8"/><path d="M58.532 215.288c-9.1 0-16.477 7.376-16.477 16.476 0 9.1 7.377 16.476 16.477 16.476 9.1 0 16.476-7.376 16.476-16.476 0-9.1-7.377-16.476-16.476-16.476z" fill="#7474CE"/><g filter="url(#filter9_i)"><path d="M39.673 181.249c-10.313 0-18.674 8.36-18.674 18.673 0 10.313 8.36 18.673 18.674 18.673 10.313 0 18.673-8.36 18.673-18.673 0-10.313-8.36-18.673-18.673-18.673z" fill="#5C5CE8"/></g><path d="M36.378 141.705c-10.92 0-19.772 8.852-19.772 19.772 0 10.92 8.852 19.772 19.772 19.772 10.92 0 19.771-8.852 19.771-19.772 0-10.92-8.852-19.772-19.771-19.772z" fill="#7474CE"/><g filter="url(#filter10_i)"><path d="M43.517 101.063c-11.223 0-20.32 9.098-20.32 20.321s9.098 20.321 20.32 20.321c11.223 0 20.321-9.098 20.321-20.321s-9.098-20.321-20.32-20.321z" fill="#5C5CE8"/></g><path d="M70.061 66.922c-11.83 0-21.419 9.59-21.419 21.42 0 11.829 9.59 21.419 21.42 21.419 11.829 0 21.419-9.59 21.419-21.42 0-11.83-9.59-21.419-21.42-21.419z" fill="#7474CE"/><g filter="url(#filter11_i)"><path d="M110.153 46.052c-12.133 0-21.969 9.836-21.969 21.968 0 12.133 9.836 21.969 21.969 21.969 12.133 0 21.968-9.836 21.968-21.969 0-12.132-9.835-21.968-21.968-21.968z" fill="#5C5CE8"/></g><path d="M156.105 36.256c-12.739 0-23.067 10.328-23.067 23.067 0 12.74 10.328 23.067 23.067 23.067 12.74 0 23.067-10.327 23.067-23.067s-10.327-23.067-23.067-23.067z" fill="#7474CE"/><g filter="url(#filter12_i)"><path d="M242.881 77.996c-15.166 0-27.461 12.295-27.461 27.461 0 15.166 12.295 27.461 27.461 27.461 15.166 0 27.461-12.295 27.461-27.461 0-15.166-12.295-27.46-27.461-27.46z" fill="#5C5CE8"/></g><g filter="url(#filter13_i)"><path d="M240.291 245.881a5.493 5.493 0 10.793 10.957 5.493 5.493 0 00-.793-10.957z" fill="#5C5CE8"/></g></g><path fill-rule="evenodd" clip-rule="evenodd" d="M223.852 83.936c-5.428 4.897-12.855 7.525-20.688 6.62-14.463-1.668-24.835-14.746-23.166-29.21 1.669-14.463 14.747-24.835 29.211-23.166 14.463 1.669 24.835 14.747 23.166 29.21a26.25 26.25 0 01-4.844 12.458l3.705 3.002 1.589-1.96 25.601 20.747-6.916 8.534-25.601-20.748 1.869-2.306-3.926-3.18zm3.556-17.119c-1.353 11.72-11.95 20.125-23.67 18.773-11.721-1.353-20.125-11.95-18.773-23.67 1.353-11.72 11.95-20.126 23.67-18.773 11.721 1.352 20.125 11.95 18.773 23.67z" fill="#33206E"/><path d="M174.682 39.213a1.35 1.35 0 01-.184.02c-.882.032-1.629-.803-1.668-1.865-.039-1.062.644-1.95 1.526-1.982.13-.005.256.01.378.04 7.21.279 12.272 2.041 15.854 4.811 3.66 2.83 5.611 6.584 6.77 10.393.879 2.885 1.326 5.918 1.713 8.54.11.748.216 1.463.325 2.131.531 3.255 1.124 5.215 2.215 6.227.317.294.61.365 1.106.174.603-.232 1.375-.83 2.318-1.84 1.278-1.372 2.548-3.132 3.864-4.954.655-.907 1.321-1.83 2.005-2.728.978-1.285 1.999-2.52 3.01-3.4.953-.83 2.242-1.652 3.666-1.354 1.54.322 2.513 1.77 3.132 3.475.628 1.732 1.072 4.185 1.364 7.443.266 2.968.933 4.744 1.716 5.815.756 1.035 1.763 1.607 3.09 1.84 1.367.24 2.998.106 4.863-.24 1.254-.234 2.52-.542 3.832-.861h.001l.003-.001c.654-.16 1.32-.321 2.001-.478 1.989-.458 4.057-.857 6.008-.867 1.953-.01 3.928.367 5.644 1.603 3.549 2.558 5.113 8.054 4.646 17.336l-.024-.002c-.042.977-.696 1.763-1.525 1.794-.882.032-1.629-.802-1.668-1.865a2.367 2.367 0 01.001-.188l-.024-.002c.456-9.046-1.207-12.5-3.089-13.855-.999-.72-2.291-1.041-3.912-1.032-1.624.008-3.438.344-5.396.795-.606.14-1.233.292-1.869.447-1.357.33-2.756.67-4.085.916-1.968.366-3.992.575-5.857.246-1.907-.336-3.71-1.245-5.1-3.146-1.363-1.865-2.177-4.481-2.484-7.901-.281-3.132-.683-5.142-1.122-6.351-.217-.597-.412-.912-.542-1.067a.569.569 0 00-.118-.114c-.015-.01-.021-.01-.025-.011-.035-.008-.375-.02-1.169.671-.736.641-1.58 1.637-2.532 2.888-.554.728-1.149 1.55-1.766 2.403l-.002.003c-1.392 1.925-2.899 4.01-4.327 5.543-1.045 1.122-2.223 2.153-3.481 2.638-1.364.525-2.842.4-4.155-.817-2.17-2.012-2.894-5.406-3.401-8.513-.13-.797-.249-1.599-.368-2.402-.38-2.57-.764-5.16-1.538-7.705-.987-3.24-2.566-6.218-5.486-8.475-2.911-2.251-7.312-3.91-14.134-4.176z" fill="#00639A"/><path fill-rule="evenodd" clip-rule="evenodd" d="M165 6c0 .362-.096.7-.264.994l-.122.242c-.115.224-.283.549-.498.954a86.405 86.405 0 01-1.824 3.25c-1.534 2.6-3.696 5.947-6.146 8.792-2.364 2.746-5.337 5.435-8.554 6.06-1.723.336-3.485.072-5.109-1-1.566-1.033-2.86-2.72-3.935-4.98-1.859-3.905-3.49-4.826-4.662-4.996-1.413-.205-3.096.465-5.551 1.757-.289.152-.588.313-.897.478-2.06 1.104-4.522 2.424-7.109 2.955-3.19.655-6.572.14-9.967-2.706-2.671-2.239-4.461-2.493-5.547-2.229-1.123.274-2.242 1.281-3.157 3.209-.898 1.892-1.438 4.361-1.561 6.864-.123 2.51.182 4.865.812 6.531.535 1.416 1.54 2.338 2.862 3.032 1.289.676 2.74 1.07 4.227 1.472l.329.09c.751.204 1.563.431 2.26.72.656.272 1.53.72 2.107 1.55.688.987.701 2.119.333 3.14-.33.917-.984 1.822-1.801 2.73-1.055 1.173-1.535 2.958-1.669 5.146-.065 1.065-.045 2.147-.004 3.197.011.29.024.585.038.88.032.724.065 1.443.065 2.05 0 .44-.015.894-.069 1.319-.05.4-.153.924-.412 1.418-.288.545-.825 1.146-1.701 1.362-.784.193-1.485-.017-1.949-.222-.899-.397-1.875-1.214-2.923-2.237-1.103-1.076-2.478-2.574-4.19-4.556-1.636-1.895-2.889-2.963-3.817-3.5-.901-.52-1.286-.426-1.4-.387-.185.062-.547.292-1.026 1.084-.468.773-.903 1.843-1.346 3.172-.31.932-.6 1.907-.902 2.932v.002c-.13.439-.263.887-.401 1.345-.448 1.484-.944 3.03-1.545 4.429-1.123 2.614-3.012 5.657-6.574 5.814-2.394.105-4.608-.118-6.395-1.001-1.91-.944-3.146-2.552-3.641-4.732-.468-2.061-.265-4.57.42-7.486.691-2.945 1.92-6.487 3.678-10.699.636-1.526.383-2.442-.135-3.112-.637-.824-1.948-1.619-4.022-2.164-4.106-1.079-10.081-.88-15.376.615-2.629.742-4.99 1.776-6.817 3.048-1.83 1.276-3.012 2.709-3.517 4.226-.942 2.833.155 7.36 8.07 13.691 2.173 1.739 2.87 4.143 2.46 6.429-.392 2.186-1.764 4.177-3.56 5.515-1.814 1.35-4.22 2.15-6.768 1.696-2.58-.46-4.987-2.146-6.897-5.157-2.796-4.41-4.74-5.63-5.998-5.87-1.238-.236-2.497.32-4.525 1.631-.233.15-.476.312-.73.48h-.001c-1.718 1.138-3.892 2.577-6.41 3.144-3.114.7-6.53.07-10.428-2.8l.002-.002a2 2 0 112.377-3.217l.003-.004c3.146 2.317 5.4 2.523 7.182 2.122 1.744-.393 3.247-1.379 5.019-2.54.267-.176.54-.355.822-.537 1.93-1.249 4.465-2.776 7.456-2.204 2.973.568 5.698 3.049 8.613 7.646 1.452 2.29 2.987 3.15 4.233 3.372 1.279.227 2.584-.156 3.668-.963 1.103-.822 1.818-1.966 2.003-3.002.168-.937-.067-1.843-1.03-2.613-8.18-6.544-11.15-12.674-9.357-18.065.863-2.593 2.75-4.663 5.035-6.255 2.29-1.595 5.092-2.792 8.022-3.62 5.821-1.643 12.54-1.932 17.481-.633 2.45.643 4.75 1.753 6.16 3.579 1.529 1.978 1.756 4.454.656 7.09-1.715 4.113-2.853 7.428-3.474 10.072-.629 2.675-.685 4.49-.413 5.686.245 1.078.748 1.663 1.525 2.047.9.445 2.318.686 4.45.592.962-.042 1.964-.84 3.057-3.384.506-1.18.949-2.542 1.39-4.005.124-.408.248-.828.374-1.253.311-1.053.631-2.135.964-3.135.468-1.404 1.016-2.816 1.72-3.98.695-1.149 1.696-2.315 3.185-2.816 1.56-.525 3.16-.161 4.674.713 1.487.858 3.08 2.306 4.84 4.344 1.684 1.95 2.973 3.35 3.956 4.308l.228.22c-.009-.233-.02-.48-.032-.74-.014-.314-.029-.65-.043-1.011-.042-1.091-.069-2.33.009-3.596.151-2.472.715-5.386 2.691-7.584.414-.46.668-.803.82-1.045l-.033-.014c-.429-.177-1.003-.346-1.78-.557l-.38-.102c-1.42-.383-3.284-.885-4.982-1.776-1.915-1.005-3.76-2.57-4.735-5.146-.879-2.325-1.206-5.262-1.064-8.14.142-2.885.764-5.9 1.943-8.385 1.162-2.448 3.037-4.71 5.84-5.392 2.842-.691 5.913.411 9.056 3.046 2.419 2.027 4.547 2.279 6.599 1.857 1.968-.404 3.859-1.411 5.97-2.536.319-.17.644-.343.974-.517 2.283-1.201 5.103-2.598 7.995-2.178 3.131.455 5.604 2.853 7.685 7.224.894 1.88 1.785 2.876 2.534 3.37.692.457 1.377.565 2.146.415 1.767-.343 3.963-2.05 6.275-4.736 2.227-2.586 4.249-5.704 5.73-8.213a80.982 80.982 0 001.737-3.094c.203-.383.361-.687.466-.894l.074-.146.035-.07A2 2 0 01165 6zM190 108.5c0 .063-.004.126-.012.187l.004.001c-.268 2.291-.315 3.962-.216 5.169.1 1.224.341 1.848.538 2.15.154.235.299.311.506.353.288.058.698.04 1.319-.065.17-.029.388-.072.628-.118.448-.088.971-.19 1.392-.243.709-.091 1.623-.132 2.501.223.966.391 1.662 1.162 2.073 2.24.389 1.016.539 2.329.499 3.968-.035 1.454.142 2.318.359 2.8.185.412.368.5.522.542.247.068.69.069 1.406-.143.697-.206 1.504-.567 2.402-1.039.892-.47 1.817-1.018 2.757-1.577l.105-.063c.892-.53 1.802-1.072 2.652-1.521.868-.458 1.776-.876 2.62-1.076.803-.189 1.957-.275 2.887.516.634.54 1.035 1.24 1.1 2.06.06.752-.176 1.433-.438 1.968-.384.786-1.042 1.657-1.628 2.433-.165.219-.324.43-.47.629-.749 1.025-1.314 1.94-1.527 2.815-.186.766-.116 1.543.586 2.457 1.382 1.797 3.537 1.866 5.904 1.129 1.139-.354 2.185-.862 2.956-1.289.383-.212.69-.4.899-.533l.164-.106.071-.047.033-.023.022-.015.011-.008.004.005a1.5 1.5 0 011.742 2.442l.003.005-.001.001-.01.007-.024.017-.083.056a5.733 5.733 0 01-.129.086l-.167.108c-.252.16-.612.381-1.056.626-.88.488-2.119 1.093-3.514 1.528-2.701.841-6.608 1.195-9.203-2.182-1.287-1.674-1.518-3.393-1.129-4.995.363-1.492 1.248-2.816 2.014-3.863.23-.314.444-.598.64-.86.534-.709.94-1.249 1.188-1.756.08-.164.117-.274.133-.342a2.053 2.053 0 00-.258.046c-.462.109-1.097.38-1.914.811-.781.412-1.633.919-2.551 1.465l-.073.044c-.931.554-1.922 1.142-2.894 1.653-.967.509-1.974.974-2.945 1.26-.95.281-2.028.441-3.06.157-1.124-.309-1.976-1.085-2.488-2.226-.481-1.07-.662-2.448-.622-4.103.036-1.471-.115-2.336-.301-2.824-.162-.423-.314-.485-.373-.508l-.001-.001c-.145-.059-.427-.097-.985-.026-.357.045-.658.105-1.005.175-.258.051-.542.108-.893.168-.688.116-1.559.222-2.421.047-.942-.19-1.815-.703-2.447-1.669-.589-.9-.901-2.091-1.021-3.554-.121-1.479-.054-3.365.227-5.76l.004.001a1.5 1.5 0 012.988.187zm23.154 14.657l-.012-.002c.008 0 .012.001.012.002zM141.401 99.487c-1.121 1.035-2.636 1.643-4.548 1.562-1.937-.082-3.351-.847-4.377-1.941-.974-1.038-1.556-2.33-1.984-3.4a64.475 64.475 0 01-.345-.886l-.001-.001c-.277-.722-.485-1.262-.749-1.689a1.934 1.934 0 00-.175-.245c-.106.303-.199.77-.271 1.429-.078.713-.118 1.525-.163 2.415l-.003.064c-.045.895-.095 1.86-.196 2.775-.1.906-.258 1.84-.548 2.664-.284.808-.757 1.688-1.61 2.265-.916.62-1.998.712-3.096.435-1.051-.265-2.196-.882-3.458-1.8-1.135-.826-1.9-1.208-2.393-1.357a1.37 1.37 0 00-.437-.075c-.03.002-.046.006-.051.007l-.003.001-.003.001-.002.001c-.017.009-.134.084-.337.457a8.411 8.411 0 00-.335.701c-.086.194-.183.415-.324.706-.254.525-.635 1.225-1.268 1.757-.708.594-1.61.884-2.668.775-.978-.1-2.04-.532-3.221-1.236-1.199-.715-2.624-1.773-4.343-3.249l.006-.007a1.5 1.5 0 012.004-2.232l.006-.007c1.651 1.418 2.933 2.358 3.929 2.952 1.014.604 1.634.791 1.977.826.251.026.313-.027.352-.06l.005-.005c.113-.095.267-.301.486-.753.05-.103.117-.252.193-.423l.001-.001c.158-.352.358-.795.531-1.113.297-.543.768-1.251 1.58-1.687.873-.469 1.854-.476 2.853-.174.962.29 2.042.893 3.292 1.802 1.123.817 1.908 1.187 2.424 1.317.453.114.581.021.601.007l.002-.001c.076-.052.258-.233.444-.761.18-.512.307-1.189.398-2.01.09-.814.136-1.693.182-2.6l.005-.106c.043-.856.088-1.743.174-2.543.089-.81.233-1.671.537-2.384.303-.713.929-1.62 2.133-1.805.765-.117 1.486.013 2.111.388.586.351.989.856 1.278 1.325.42.68.768 1.59 1.073 2.386l.001.004c.085.221.167.434.245.631.411 1.025.83 1.878 1.406 2.493.525.559 1.21.954 2.307 1 1.123.048 1.82-.288 2.311-.74.536-.496.934-1.237 1.207-2.122.27-.875.383-1.782.426-2.49.021-.35.025-.64.023-.838l-.001-.06a2.263 2.263 0 00-.004-.163l-.001-.023-.001-.029-.001-.008h.017a1.5 1.5 0 012.992-.217l.017-.001v.013l.002.026.004.088c.002.073.005.176.006.304.003.255-.002.614-.028 1.04-.051.846-.189 2.003-.551 3.177-.358 1.164-.97 2.455-2.045 3.448z" fill="#00639A"/><defs><filter id="filter0_i" x="16.606" y="36.256" width="263.039" height="230.041" filterUnits="userSpaceOnUse" color-interpolation-filters="sRGB"><feFlood flood-opacity="0" result="BackgroundImageFix"/><feBlend in="SourceGraphic" in2="BackgroundImageFix" result="shape"/><feColorMatrix in="SourceAlpha" values="0 0 0 0 0 0 0 0 0 0 0 0 0 0 0 0 0 0 127 0" result="hardAlpha"/><feOffset dy="8"/><feGaussianBlur stdDeviation="3"/><feComposite in2="hardAlpha" operator="arithmetic" k2="-1" k3="1"/><feColorMatrix values="0 0 0 0 0 0 0 0 0 0 0 0 0 0 0 0 0 0 0.2 0"/><feBlend in2="shape" result="effect1_innerShadow"/></filter><filter id="filter1_i" x="211.042" y="247.852" width="10.985" height="16.985" filterUnits="userSpaceOnUse" color-interpolation-filters="sRGB"><feFlood flood-opacity="0" result="BackgroundImageFix"/><feBlend in="SourceGraphic" in2="BackgroundImageFix" result="shape"/><feColorMatrix in="SourceAlpha" values="0 0 0 0 0 0 0 0 0 0 0 0 0 0 0 0 0 0 127 0" result="hardAlpha"/><feOffset dy="6"/><feGaussianBlur stdDeviation="4"/><feComposite in2="hardAlpha" operator="arithmetic" k2="-1" k3="1"/><feColorMatrix values="0 0 0 0 0 0 0 0 0 0 0 0 0 0 0 0 0 0 0.25 0"/><feBlend in2="shape" result="effect1_innerShadow"/></filter><filter id="filter2_i" x="255.971" y="227.963" width="14.28" height="18.28" filterUnits="userSpaceOnUse" color-interpolation-filters="sRGB"><feFlood flood-opacity="0" result="BackgroundImageFix"/><feBlend in="SourceGraphic" in2="BackgroundImageFix" result="shape"/><feColorMatrix in="SourceAlpha" values="0 0 0 0 0 0 0 0 0 0 0 0 0 0 0 0 0 0 127 0" result="hardAlpha"/><feOffset dy="4"/><feGaussianBlur stdDeviation="2"/><feComposite in2="hardAlpha" operator="arithmetic" k2="-1" k3="1"/><feColorMatrix values="0 0 0 0 0 0 0 0 0 0 0 0 0 0 0 0 0 0 0.25 0"/><feBlend in2="shape" result="effect1_innerShadow"/></filter><filter id="filter3_i" x="263.199" y="197.096" width="16.446" height="20.446" filterUnits="userSpaceOnUse" color-interpolation-filters="sRGB"><feFlood flood-opacity="0" result="BackgroundImageFix"/><feBlend in="SourceGraphic" in2="BackgroundImageFix" result="shape"/><feColorMatrix in="SourceAlpha" values="0 0 0 0 0 0 0 0 0 0 0 0 0 0 0 0 0 0 127 0" result="hardAlpha"/><feOffset dy="4"/><feGaussianBlur stdDeviation="2"/><feComposite in2="hardAlpha" operator="arithmetic" k2="-1" k3="1"/><feColorMatrix values="0 0 0 0 0 0 0 0 0 0 0 0 0 0 0 0 0 0 0.25 0"/><feBlend in2="shape" result="effect1_innerShadow"/></filter><filter id="filter4_i" x="261.451" y="181.275" width="15.379" height="19.379" filterUnits="userSpaceOnUse" color-interpolation-filters="sRGB"><feFlood flood-opacity="0" result="BackgroundImageFix"/><feBlend in="SourceGraphic" in2="BackgroundImageFix" result="shape"/><feColorMatrix in="SourceAlpha" values="0 0 0 0 0 0 0 0 0 0 0 0 0 0 0 0 0 0 127 0" result="hardAlpha"/><feOffset dy="4"/><feGaussianBlur stdDeviation="2"/><feComposite in2="hardAlpha" operator="arithmetic" k2="-1" k3="1"/><feColorMatrix values="0 0 0 0 0 0 0 0 0 0 0 0 0 0 0 0 0 0 0.25 0"/><feBlend in2="shape" result="effect1_innerShadow"/></filter><filter id="filter5_i" x="252.76" y="167.592" width="15.379" height="19.379" filterUnits="userSpaceOnUse" color-interpolation-filters="sRGB"><feFlood flood-opacity="0" result="BackgroundImageFix"/><feBlend in="SourceGraphic" in2="BackgroundImageFix" result="shape"/><feColorMatrix in="SourceAlpha" values="0 0 0 0 0 0 0 0 0 0 0 0 0 0 0 0 0 0 127 0" result="hardAlpha"/><feOffset dy="4"/><feGaussianBlur stdDeviation="2"/><feComposite in2="hardAlpha" operator="arithmetic" k2="-1" k3="1"/><feColorMatrix values="0 0 0 0 0 0 0 0 0 0 0 0 0 0 0 0 0 0 0.25 0"/><feBlend in2="shape" result="effect1_innerShadow"/></filter><filter id="filter6_i" x="215.938" y="158.846" width="19.773" height="25.773" filterUnits="userSpaceOnUse" color-interpolation-filters="sRGB"><feFlood flood-opacity="0" result="BackgroundImageFix"/><feBlend in="SourceGraphic" in2="BackgroundImageFix" result="shape"/><feColorMatrix in="SourceAlpha" values="0 0 0 0 0 0 0 0 0 0 0 0 0 0 0 0 0 0 127 0" result="hardAlpha"/><feOffset dy="6"/><feGaussianBlur stdDeviation="4"/><feComposite in2="hardAlpha" operator="arithmetic" k2="-1" k3="1"/><feColorMatrix values="0 0 0 0 0 0 0 0 0 0 0 0 0 0 0 0 0 0 0.25 0"/><feBlend in2="shape" result="effect1_innerShadow"/></filter><filter id="filter7_i" x="173.712" y="177.52" width="23.494" height="29.494" filterUnits="userSpaceOnUse" color-interpolation-filters="sRGB"><feFlood flood-opacity="0" result="BackgroundImageFix"/><feBlend in="SourceGraphic" in2="BackgroundImageFix" result="shape"/><feColorMatrix in="SourceAlpha" values="0 0 0 0 0 0 0 0 0 0 0 0 0 0 0 0 0 0 127 0" result="hardAlpha"/><feOffset dy="6"/><feGaussianBlur stdDeviation="4"/><feComposite in2="hardAlpha" operator="arithmetic" k2="-1" k3="1"/><feColorMatrix values="0 0 0 0 0 0 0 0 0 0 0 0 0 0 0 0 0 0 0.25 0"/><feBlend in2="shape" result="effect1_innerShadow"/></filter><filter id="filter8_i" x="133.994" y="209.648" width="27.462" height="33.462" filterUnits="userSpaceOnUse" color-interpolation-filters="sRGB"><feFlood flood-opacity="0" result="BackgroundImageFix"/><feBlend in="SourceGraphic" in2="BackgroundImageFix" result="shape"/><feColorMatrix in="SourceAlpha" values="0 0 0 0 0 0 0 0 0 0 0 0 0 0 0 0 0 0 127 0" result="hardAlpha"/><feOffset dy="6"/><feGaussianBlur stdDeviation="4"/><feComposite in2="hardAlpha" operator="arithmetic" k2="-1" k3="1"/><feColorMatrix values="0 0 0 0 0 0 0 0 0 0 0 0 0 0 0 0 0 0 0.25 0"/><feBlend in2="shape" result="effect1_innerShadow"/></filter><filter id="filter9_i" x="21" y="181.249" width="37.346" height="45.346" filterUnits="userSpaceOnUse" color-interpolation-filters="sRGB"><feFlood flood-opacity="0" result="BackgroundImageFix"/><feBlend in="SourceGraphic" in2="BackgroundImageFix" result="shape"/><feColorMatrix in="SourceAlpha" values="0 0 0 0 0 0 0 0 0 0 0 0 0 0 0 0 0 0 127 0" result="hardAlpha"/><feOffset dy="10"/><feGaussianBlur stdDeviation="4"/><feComposite in2="hardAlpha" operator="arithmetic" k2="-1" k3="1"/><feColorMatrix values="0 0 0 0 0 0 0 0 0 0 0 0 0 0 0 0 0 0 0.25 0"/><feBlend in2="shape" result="effect1_innerShadow"/></filter><filter id="filter10_i" x="23.197" y="101.063" width="40.642" height="48.642" filterUnits="userSpaceOnUse" color-interpolation-filters="sRGB"><feFlood flood-opacity="0" result="BackgroundImageFix"/><feBlend in="SourceGraphic" in2="BackgroundImageFix" result="shape"/><feColorMatrix in="SourceAlpha" values="0 0 0 0 0 0 0 0 0 0 0 0 0 0 0 0 0 0 127 0" result="hardAlpha"/><feOffset dy="10"/><feGaussianBlur stdDeviation="4"/><feComposite in2="hardAlpha" operator="arithmetic" k2="-1" k3="1"/><feColorMatrix values="0 0 0 0 0 0 0 0 0 0 0 0 0 0 0 0 0 0 0.25 0"/><feBlend in2="shape" result="effect1_innerShadow"/></filter><filter id="filter11_i" x="88.184" y="46.052" width="43.937" height="51.937" filterUnits="userSpaceOnUse" color-interpolation-filters="sRGB"><feFlood flood-opacity="0" result="BackgroundImageFix"/><feBlend in="SourceGraphic" in2="BackgroundImageFix" result="shape"/><feColorMatrix in="SourceAlpha" values="0 0 0 0 0 0 0 0 0 0 0 0 0 0 0 0 0 0 127 0" result="hardAlpha"/><feOffset dy="10"/><feGaussianBlur stdDeviation="4"/><feComposite in2="hardAlpha" operator="arithmetic" k2="-1" k3="1"/><feColorMatrix values="0 0 0 0 0 0 0 0 0 0 0 0 0 0 0 0 0 0 0.25 0"/><feBlend in2="shape" result="effect1_innerShadow"/></filter><filter id="filter12_i" x="215.42" y="77.996" width="54.921" height="62.921" filterUnits="userSpaceOnUse" color-interpolation-filters="sRGB"><feFlood flood-opacity="0" result="BackgroundImageFix"/><feBlend in="SourceGraphic" in2="BackgroundImageFix" result="shape"/><feColorMatrix in="SourceAlpha" values="0 0 0 0 0 0 0 0 0 0 0 0 0 0 0 0 0 0 127 0" result="hardAlpha"/><feOffset dy="10"/><feGaussianBlur stdDeviation="4"/><feComposite in2="hardAlpha" operator="arithmetic" k2="-1" k3="1"/><feColorMatrix values="0 0 0 0 0 0 0 0 0 0 0 0 0 0 0 0 0 0 0.25 0"/><feBlend in2="shape" result="effect1_innerShadow"/></filter><filter id="filter13_i" x="235.195" y="245.867" width="10.985" height="16.985" filterUnits="userSpaceOnUse" color-interpolation-filters="sRGB"><feFlood flood-opacity="0" result="BackgroundImageFix"/><feBlend in="SourceGraphic" in2="BackgroundImageFix" result="shape"/><feColorMatrix in="SourceAlpha" values="0 0 0 0 0 0 0 0 0 0 0 0 0 0 0 0 0 0 127 0" result="hardAlpha"/><feOffset dy="6"/><feGaussianBlur stdDeviation="4"/><feComposite in2="hardAlpha" operator="arithmetic" k2="-1" k3="1"/><feColorMatrix values="0 0 0 0 0 0 0 0 0 0 0 0 0 0 0 0 0 0 0.25 0"/><feBlend in2="shape" result="effect1_innerShadow"/></filter></defs></svg>