<svg viewBox="0 0 279 269" width="279" height="269" fill="none" xmlns="http://www.w3.org/2000/svg">
  <g opacity=".9">
    <path opacity=".9" d="M251 44H83a6 6 0 0 0-6 6v113.2a6 6 0 0 0 6 6H251a6 6 0 0 0 6-6V49.9a6 6 0 0 0-6-6z" fill="#4E5A71"/>
    <path opacity=".9" d="M248.6 56H85.3a4 4 0 0 0-4 4v93a4 4 0 0 0 4 4h163.3a4 4 0 0 0 4-4V60a4 4 0 0 0-4-4z" fill="#8194A1"/>
    <path d="M248.6 56H85.3a4 4 0 0 0-4 4v93a4 4 0 0 0 4 4h163.3a4 4 0 0 0 4-4V60a4 4 0 0 0-4-4z" stroke="#D2DCE3"/>
    <path d="M97.3 121v-7l10-3.2 7.6-2.7v-.2l-7.7-2.6-10-3.3v-6.8l26 10v5.7l-26 10zm26.9 13.7V130h26.9v4.7h-26.9z" fill="#E4E8EB"/>
    <path opacity=".9" fill-rule="evenodd" clip-rule="evenodd" d="M189 169.2h-44v9.8h-13.4a2 2 0 0 0-2 2v2.6a2 2 0 0 0 2 2h70.7a2 2 0 0 0 2-2V181a2 2 0 0 0-2-2H189v-9.8z" fill="#4E5A71"/>
  </g>
  <g opacity=".9">
    <path opacity=".9" d="M63 76.9H14a3 3 0 0 0-3 3V210a3 3 0 0 0 3 3h49a3 3 0 0 0 3-3V79.9a3 3 0 0 0-3-3z" fill="#4E5A71"/>
    <path d="M58.4 87.9h-40a2 2 0 0 0-2 2v2.6a2 2 0 0 0 2 2h40a2 2 0 0 0 2-2v-2.6a2 2 0 0 0-2-2zm0 9.9h-40a2 2 0 0 0-2 2v.4a2 2 0 0 0 2 2h40a2 2 0 0 0 2-2v-.4a2 2 0 0 0-2-2zm0 14.2h-40a2 2 0 0 0-2 2v25.7a2 2 0 0 0 2 2h40a2 2 0 0 0 2-2V114a2 2 0 0 0-2-2zm-28.6 85.7H23a1 1 0 0 0-1 1v6.8a1 1 0 0 0 1 1h6.8a1 1 0 0 0 1-1v-6.8a1 1 0 0 0-1-1z" fill="#E4E8EB"/>
    <path opacity=".9" d="M56.1 133h-4.6a1 1 0 0 0-1 1v4.5a1 1 0 0 0 1 1h4.6a1 1 0 0 0 1-1v-4.6a1 1 0 0 0-1-1z" fill="#4E5A71"/>
    <path d="M41.8 197.7H35a1 1 0 0 0-1 1v6.8a1 1 0 0 0 1 1h6.8a1 1 0 0 0 1-1v-6.8a1 1 0 0 0-1-1z" fill="#E4E8EB"/>
    <path opacity=".9" d="M56.1 115.3h-4.6a1 1 0 0 0-1 1v4.6a1 1 0 0 0 1 1h4.6a1 1 0 0 0 1-1v-4.6a1 1 0 0 0-1-1z" fill="#4E5A71"/>
    <path d="M54 197.7H47a1 1 0 0 0-1 1v6.8a1 1 0 0 0 1 1H54a1 1 0 0 0 1-1v-6.8a1 1 0 0 0-1-1z" fill="#E4E8EB"/>
    <path opacity=".9" d="M56.1 124.1h-4.6a1 1 0 0 0-1 1v4.6a1 1 0 0 0 1 1h4.6a1 1 0 0 0 1-1v-4.6a1 1 0 0 0-1-1z" fill="#4E5A71"/>
    <path d="M38.4 176.8a6.6 6.6 0 1 0 0-13.1 6.6 6.6 0 0 0 0 13.1z" fill="#E4E8EB"/>
  </g>
  <g opacity=".6">
    <path d="M231 191.1H74.4a4 4 0 0 0-4 4v36a4 4 0 0 0 4 4h156.8a4 4 0 0 0 4-4v-36a4 4 0 0 0-4-4z" fill="#4E5A71"/>
    <path d="M94.7 196.6h-4.8a2 2 0 0 0-2 2v4.8a2 2 0 0 0 2 2h4.8a2 2 0 0 0 2-2v-4.8a2 2 0 0 0-2-2zm0 12.1h-4.8a2 2 0 0 0-2 2v4.8a2 2 0 0 0 2 2h4.8a2 2 0 0 0 2-2v-4.8a2 2 0 0 0-2-2zm0 12h-4.8a2 2 0 0 0-2 2v4.9a2 2 0 0 0 2 2h4.8a2 2 0 0 0 2-2v-4.8a2 2 0 0 0-2-2zm-11-24h-4.8a2 2 0 0 0-2 2v4.7a2 2 0 0 0 2 2h4.8a2 2 0 0 0 2-2v-4.8a2 2 0 0 0-2-2zm0 12h-4.8a2 2 0 0 0-2 2v4.8a2 2 0 0 0 2 2h4.8a2 2 0 0 0 2-2v-4.8a2 2 0 0 0-2-2zm76.9-12h-4.8a2 2 0 0 0-2 2v4.7a2 2 0 0 0 2 2h4.8a2 2 0 0 0 2-2v-4.8a2 2 0 0 0-2-2zm0 12h-4.8a2 2 0 0 0-2 2v4.8a2 2 0 0 0 2 2h4.8a2 2 0 0 0 2-2v-4.8a2 2 0 0 0-2-2zm-33-12h-4.8a2 2 0 0 0-2 2v4.7a2 2 0 0 0 2 2h4.8a2 2 0 0 0 2-2v-4.8a2 2 0 0 0-2-2zm0 12h-4.8a2 2 0 0 0-2 2v4.8a2 2 0 0 0 2 2h4.8a2 2 0 0 0 2-2v-4.8a2 2 0 0 0-2-2zm66-12h-4.9a2 2 0 0 0-2 2v4.7a2 2 0 0 0 2 2h4.8a2 2 0 0 0 2-2v-4.8a2 2 0 0 0-2-2zm0 12h-4.9a2 2 0 0 0-2 2v4.8a2 2 0 0 0 2 2h4.8a2 2 0 0 0 2-2v-4.8a2 2 0 0 0-2-2zm-88-12H101a2 2 0 0 0-2 2v4.7a2 2 0 0 0 2 2h4.7a2 2 0 0 0 2-2v-4.8a2 2 0 0 0-2-2zm0 12H101a2 2 0 0 0-2 2v4.8a2 2 0 0 0 2 2h4.7a2 2 0 0 0 2-2v-4.8a2 2 0 0 0-2-2zm98.9 12H100.9a2 2 0 0 0-2 2v4.9a2 2 0 0 0 2 2h103.6a2 2 0 0 0 2-2v-4.8a2 2 0 0 0-2-2zm-33-24h-4.7a2 2 0 0 0-2 2v4.7a2 2 0 0 0 2 2h4.8a2 2 0 0 0 2-2v-4.8a2 2 0 0 0-2-2zm0 12h-4.7a2 2 0 0 0-2 2v4.8a2 2 0 0 0 2 2h4.8a2 2 0 0 0 2-2v-4.8a2 2 0 0 0-2-2zm-32.9-12h-4.8a2 2 0 0 0-2 2v4.7a2 2 0 0 0 2 2h4.8a2 2 0 0 0 2-2v-4.8a2 2 0 0 0-2-2zm0 12h-4.8a2 2 0 0 0-2 2v4.8a2 2 0 0 0 2 2h4.8a2 2 0 0 0 2-2v-4.8a2 2 0 0 0-2-2zm65.9-12h-4.8a2 2 0 0 0-2 2v4.7a2 2 0 0 0 2 2h4.8a2 2 0 0 0 2-2v-4.8a2 2 0 0 0-2-2zm0 12h-4.8a2 2 0 0 0-2 2v4.8a2 2 0 0 0 2 2h4.8a2 2 0 0 0 2-2v-4.8a2 2 0 0 0-2-2zm-87.9-12h-4.8a2 2 0 0 0-2 2v4.7a2 2 0 0 0 2 2h4.8a2 2 0 0 0 2-2v-4.8a2 2 0 0 0-2-2zm0 12h-4.8a2 2 0 0 0-2 2v4.8a2 2 0 0 0 2 2h4.8a2 2 0 0 0 2-2v-4.8a2 2 0 0 0-2-2zm66-12h-4.9a2 2 0 0 0-2 2v4.7a2 2 0 0 0 2 2h4.8a2 2 0 0 0 2-2v-4.8a2 2 0 0 0-2-2zm0 12h-4.9a2 2 0 0 0-2 2v4.8a2 2 0 0 0 2 2h4.8a2 2 0 0 0 2-2v-4.8a2 2 0 0 0-2-2zm-33-12h-4.8a2 2 0 0 0-2 2v4.7a2 2 0 0 0 2 2h4.8a2 2 0 0 0 2-2v-4.8a2 2 0 0 0-2-2zm0 12h-4.8a2 2 0 0 0-2 2v4.8a2 2 0 0 0 2 2h4.8a2 2 0 0 0 2-2v-4.8a2 2 0 0 0-2-2zm65.9-12h-4.8a2 2 0 0 0-2 2v4.7a2 2 0 0 0 2 2h4.8a2 2 0 0 0 2-2v-4.8a2 2 0 0 0-2-2zm0 12h-4.8a2 2 0 0 0-2 2v4.8a2 2 0 0 0 2 2h4.8a2 2 0 0 0 2-2v-4.8a2 2 0 0 0-2-2zm0 12h-4.8a2 2 0 0 0-2 2v4.9a2 2 0 0 0 2 2h4.8a2 2 0 0 0 2-2v-4.8a2 2 0 0 0-2-2zm11-24h-4.8a2 2 0 0 0-2 2v4.7a2 2 0 0 0 2 2h4.8a2 2 0 0 0 2-2v-4.8a2 2 0 0 0-2-2zm0 12h-4.8a2 2 0 0 0-2 2v4.8a2 2 0 0 0 2 2h4.8a2 2 0 0 0 2-2v-4.8a2 2 0 0 0-2-2zm0 12h-4.8a2 2 0 0 0-2 2v4.9a2 2 0 0 0 2 2h4.8a2 2 0 0 0 2-2v-4.8a2 2 0 0 0-2-2zm-142.8 0h-4.8a2 2 0 0 0-2 2v4.9a2 2 0 0 0 2 2h4.8a2 2 0 0 0 2-2v-4.8a2 2 0 0 0-2-2z" fill="#E4E8EB"/>
  </g>
  <g opacity=".9">
    <path opacity=".9" d="M239.5 220.9a10 10 0 0 1 10-10h8.5a10 10 0 0 1 10 10v20a14 14 0 0 1-14 14h-.5a14 14 0 0 1-14-14v-20z" fill="#4E5A71"/>
    <path d="M252.6 217.3a2 2 0 0 0-2-2h-3a6 6 0 0 0-6 6v5.2a2 2 0 0 0 2 2h7a2 2 0 0 0 2-2v-9.2zm13.2 4a6 6 0 0 0-6-6h-3a2 2 0 0 0-2 2v9.2a2 2 0 0 0 2 2h7a2 2 0 0 0 2-2v-5.2z" fill="#E4E8EB"/>
  </g>
</svg>