<svg viewBox="7 5 260 250" width="266" height="250" fill="none" xmlns="http://www.w3.org/2000/svg">
  <path d="M195.13 103.1c4.14 6.96 7.13 11.28 8.87 13.02.35.35.93 1.11 1.82 2.36.85 1.2 1.47 2 1.83 2.36.36 1.38.18 2.1-.53 2.1.35 1.02.84 2.67 1.56 4.94.7 2.27 1.2 3.92 1.56 4.95 0 1.02-.18 1.56-.54 1.56-.71 0-1.2-.18-1.56-.54-.71-1.38-1.02-2.27-1.02-2.58l1.51 5.66c0 1.02-.18 1.56-.53 1.56-.72 0-1.39-.54-2.1-1.56a56.85 56.85 0 00-2.58-5.7c.35 1.02.84 2.93 1.56 5.7 0 .7-.18 1.02-.54 1.02-.71.36-1.2.09-1.56-.8a5.63 5.63 0 01-.53-1.83 24.1 24.1 0 01-1.3-3.38c-.49-1.56-.98-2.68-1.29-3.4 0 .72.1 1.66.27 2.86.18 1.2.27 2 .27 2.36 0 1.03-.1 1.56-.27 1.56-.18 0-.62-.35-1.3-1.02-.35-.36-.53-.8-.53-1.3 0-.49-.17-.93-.53-1.29a164.7 164.7 0 00-1.83-6.24c-.89-2.76-1.47-4.85-1.83-6.23l-1.55-5.22a162.86 162.86 0 00-5.22-6.5 63.45 63.45 0 01-5.21-7.04c-3.84-4.5-5.88-6.96-6.24-7.31l-1.03-1.03c-.35-.35-.98-1.29-1.82-2.85a69.84 69.84 0 01-1.83-3.39c-.71-1.02-1.65-2.5-2.85-4.4-1.2-1.92-2.19-3.4-2.85-4.42-2.1-3.83-4.01-7.62-5.7-11.45-.36 0-.72-.71-1.03-2.1a187.6 187.6 0 01-2.1 12.21c-1.02 5.4-1.82 9.1-2.36 11.19-.53 2.1-.44 6.42.27 13.01.35 1.74.94 4.68 1.83 8.87.84 4.14 1.29 7.48 1.29 9.9 0 4.14.18 10.06.53 17.68.36 4.15.18 8.34-.53 12.48-.72 2.1-1.56 5.57-2.59 10.43a158.07 158.07 0 00-2.1 11.45 51.5 51.5 0 00.54 21.88c.72 3.47.54 8.69-.53 15.6-2.45 10.42-4.01 17.86-4.68 22.36v4.15c0 3.47.53 6.6 1.56 9.35.36.72 1.03 1.56 2.1 2.59 1.06 1.03 1.73 1.74 2.09 2.1.35 1.38.53 2.4.53 3.11-.35.36-.89.54-1.56.54h-6.77c-.71 0-1.56-.18-2.58-.54a59.77 59.77 0 01-3.66-3.12 7.14 7.14 0 01-.53-3.12c0-3.11.18-5.2.53-6.23 0-.72.1-1.56.27-2.59.18-1.02.27-1.74.27-2.1 0-6.59-.18-11.44-.54-14.56 0-1.38-.44-4.24-1.29-8.6-.9-4.33-1.11-7.71-.8-10.16a80 80 0 001.02-10.43c0-.71-.53-3.3-1.56-7.8a28.04 28.04 0 01-1.02-6.77v-15.6l-1.56-20.32c0-2.76.18-5.03.53-6.77 0-1.03-.35-1.56-1.02-1.56v13.01c0 1.38-.18 3.65-.54 6.77-.35 3.12-.53 5.4-.53 6.78a59.73 59.73 0 00-1.03 9.35c0 7.62-.7 14.04-2.09 19.25-.71 1.39-.71 4.02 0 7.8.71 6.6.53 12.66-.53 18.23l-1.56 9.36c0 .7-.1 1.73-.27 3.11-.18 1.39-.45 2.41-.8 3.13 0 .7.09 1.64.26 2.85.18 1.2.27 2.18.27 2.85v5.21c0 .71.09 1.56.27 2.59.18 1.02.27 1.73.27 2.1 0 1.73-.18 2.75-.54 3.11l-5.21 4.14H114.43l-1.56-.53c0-1.38.18-2.27.53-2.59l2.59-2.58c2.4-2.45 3.47-4.86 3.12-7.3 0-1.75.18-2.95.53-3.66.36-1.74.18-5.21-.53-10.43 0-.71-.63-3.65-1.83-8.87-1.2-5.21-2-9.35-2.36-12.47-.36-3.12 0-7.98 1.02-14.58.36-.35.54-1.1.54-2.36 0-1.2.18-2.18.53-2.85.36-6.24-.53-14.04-2.58-23.44a208.45 208.45 0 01-2.59-14.57v-7.8c0-1.74.18-4.23.54-7.53.36-3.3.53-5.8.53-7.53v-2.1c0-4.85.72-9.35 2.1-13.54l1.02-9.36c0-.35.1-1.11.27-2.36.18-1.2.27-2.18.27-2.85-.71-5.88-1.2-10.43-1.56-13.55-1.38-5.88-2.45-10.42-3.12-13.54v-1.56l-6.24 12.47c-.71 1.03-1.92 2.77-3.65 5.22-1.74 2.45-2.94 4.14-3.66 5.21-.35.71-1.02 1.92-2.1 3.65a21.58 21.58 0 01-2.58 3.66c0 .36-1.91 2.94-5.7 7.8-5.88 6.95-9.36 11.45-10.43 13.54-.35.36-.62 1.12-.8 2.36a9.18 9.18 0 01-.8 2.86 166.6 166.6 0 01-1.83 6.24c-.89 2.76-1.47 4.85-1.83 6.23-.35.36-.62.8-.8 1.3-.18.53-.27.98-.27 1.29 0 .35-.17.62-.53.8-.36.18-.71.27-1.02.27v-1.56-2.85-2.37c0 .72-.27 1.74-.8 3.12a47.11 47.11 0 00-1.3 3.66c0 1.74-.71 2.58-2.1 2.58-.35 0-.53-.53-.53-1.56.71-2.4 1.2-4.32 1.56-5.7a51.26 51.26 0 01-3.12 6.24c-.71 1.02-1.2 1.56-1.56 1.56-.35-.36-.53-1.03-.53-2.1l1.65-4.99c-.36.36-.54.8-.54 1.3 0 .48-.18.8-.53.8-.72.71-1.2 1.02-1.56 1.02-.31-.36-.5-1.07-.5-2.1.36-.7.85-2.18 1.57-4.4.71-2.28 1.2-3.93 1.56-4.95-1.39 0-1.56-.85-.54-2.59.36-.35.71-.84 1.03-1.55.35-.72.71-1.3 1.02-1.83a3.8 3.8 0 011.56-1.3c2.76-2.09 5.7-6.41 8.87-13 3.47-6.96 5.7-11.28 6.77-13.02 0-.35 2.1-3.47 6.24-9.36a22.3 22.3 0 002.58-3.38 41.16 41.16 0 002.1-3.39 144.7 144.7 0 009.9-20.8c2.09-6.25 6.4-10.26 13-12 3.48-.7 7.31-2.4 11.46-5.2.7-1.03 1.2-2.1 1.56-3.13v-3.65c0-.36-.1-.72-.27-1.03a2.34 2.34 0 01-.27-1.02 8.6 8.6 0 00-.53-2.1 8.1 8.1 0 01-.54-2.1h-.53c-1.03-.35-1.92-1.64-2.59-3.91-.71-2.27-.71-3.75 0-4.41l.54-.54h1.02c-.71-4.14-.18-7.44 1.56-9.9 1.38-2.4 3.83-3.96 7.3-4.67h1.57c1.74 0 2.94.18 3.65.53a9.69 9.69 0 016.24 4.68 11.24 11.24 0 011.56 9.9l1.56.53c.71.71.71 2.1 0 4.15-.71 2.09-1.56 3.47-2.58 4.14h-.54c0 1.02-.36 2.45-1.02 4.14-1.74 4.5-.9 7.62 2.58 9.36 5.88 3.12 9.36 4.86 10.43 5.21 6.6 1.74 11.1 6.07 13.54 13.02 2.41 7.97 6.24 15.95 11.46 23.93.35.7 1.2 1.73 2.58 3.12 1.38 1.38 2.27 2.58 2.59 3.65.75 2.14 3.16 7.49 7.35 16.17z" fill="#8E2E2C"/>
  <path d="M247.4 56.29c.53.54.97.96 1.3 1.26.34.3.8.76 1.42 1.37a13.23 13.23 0 012.52 3.33 6.19 6.19 0 011.1 3.63 4.7 4.7 0 01-.4 1.92c-.67 1.61-1.68 2.66-3.02 3.12-.47.2-1 .3-1.61.3-1.62 0-3.57-.63-5.85-1.91a30.14 30.14 0 01-6.85-5.65c.27.53.5 1.1.7 1.72a34.9 34.9 0 001.32 3.63 112.2 112.2 0 001.92 3.43c.13.13.13.25 0 .35-.14.1-.27.05-.4-.15-.42-.54-.81-1.07-1.22-1.57l-.9-1.1c-.2-.24-.34-.49-.4-.76l-.92-2.83a7.4 7.4 0 01-1.1-1.51c-.07-.2-.19-.71-.35-1.51-.18-.8-.29-1.39-.36-1.72-.53-.68-.94-1.28-1.2-1.82a13.4 13.4 0 01-1.32 3.33c-1.08 1.68-2.02 2.56-2.82 2.63-.2.06-.54.1-1.01.1s-.8-.04-1.01-.1c-.8-.07-1.75-.95-2.82-2.63-.4-.6-.84-1.72-1.31-3.33-.27.54-.68 1.14-1.21 1.82-.07.33-.2.9-.36 1.72-.17.8-.28 1.31-.35 1.5l-1.1 1.52a72.2 72.2 0 00-.91 2.83c-.07.26-.2.51-.4.76l-.91 1.1c-.4.5-.8 1.03-1.21 1.57-.14.2-.27.25-.4.15-.15-.1-.15-.22 0-.35.06-.07.38-.63.95-1.67l.96-1.76c.14-.2.57-1.42 1.31-3.63.14-.4.37-.98.7-1.72a30.17 30.17 0 01-6.84 5.65c-2.3 1.28-4.24 1.92-5.85 1.92-.53 0-1.08-.1-1.61-.3a5.14 5.14 0 01-3.02-3.13 4.7 4.7 0 01-.4-1.92 6.19 6.19 0 011.1-3.63 13.1 13.1 0 012.52-3.33c.6-.6 1.07-1.07 1.41-1.37.34-.3.77-.72 1.31-1.26s.91-.87 1.1-1.01c.95-.94 3.33-2.9 7.16-5.85-.53 0-.94-.03-1.2-.1-.2-.07-.52-.32-.96-.76a4.33 4.33 0 01-.86-1.07.93.93 0 00-.35-.35l-.55-.3c-.2-.1-.34-.18-.4-.25-.28-.2-.28-.34 0-.41.06-.07.22-.07.5 0 .33.14 1.37.84 3.12 2.12.13.07.31.1.55.1H217.97c1.07-.8 2.32-1.74 3.73-2.82v-.6l-.2-2.23c-.4-.54-.8-.84-1.2-.9-.2-.08-.54-.68-1.02-1.82a9.76 9.76 0 01-.15-1.26c-.04-.5-.1-.82-.2-.96a1 1 0 01-.16-.6c0-.27.04-.5.1-.71v-.3c-.33-.2-.63-.58-.9-1.11-.67-1.48-2.08-3.27-4.24-5.35-.2-.27-.25-.47-.15-.6.1-.14.28-.14.55 0 .27.06 1.14.92 2.63 2.57a24.5 24.5 0 012.32 2.77c0 .07.13.29.4.66.27.37.4.72.4 1.06.08.2.19.57.36 1.1.17.54.32 1.09.46 1.62.14.54.23.84.3.91 0 .07.1.16.3.25.2.1.44.2.71.25l.3.1v-.7c-.13-.14-.23-.37-.3-.71-.07-.4-.1-.74-.1-1.01s.1-.57.3-.91a4.22 4.22 0 011.16-1.31c.23-.2.35-.34.35-.4.14-.15.44-.24.9-.31-.53-.4-.93-.74-1.2-1.01-.34-.4-.67-.9-1.01-1.51-.07-.2-.07-.36 0-.46.07-.1.16-.18.3-.25l.2-.1c.87.87 1.31 1.54 1.31 2.02 0 .33.34.67 1.01 1 .34-.2.64-.3.9-.3l1.62.1H228.05l1.72-.1c.34.07.64.18.9.3.68-.33 1.02-.67 1.02-1 0-.2.12-.47.35-.8.23-.34.46-.61.66-.81l.3-.4c.07 0 .15.03.25.1a1 1 0 01.25.25c.07.1.07.25 0 .45-.34.6-.67 1.11-1.01 1.52a7.1 7.1 0 01-1.2.9c.46.14.76.27.9.41l.4.4.56.56c.16.17.37.42.6.76.23.34.35.64.35.9 0 .27-.03.61-.1 1.02-.14.33-.27.6-.4.8v.6c.87-.26 1.3-.46 1.3-.6.07-.07.17-.37.3-.9a30.94 30.94 0 01.82-2.73c0-.34.14-.69.4-1.06.27-.37.41-.59.41-.66.07-.2.84-1.12 2.32-2.77s2.35-2.5 2.63-2.58c.26-.13.45-.13.55 0 .1.14.05.34-.16.61-2.15 2.08-3.56 3.87-4.23 5.35-.14.27-.27.49-.41.65-.14.18-.27.29-.4.36l-.1.1c.19.74.19 1.28 0 1.62-.15.14-.22.46-.26.96-.03.5-.09.92-.16 1.26-.4 1.14-.74 1.75-1 1.81-.2.07-.41.17-.6.3-.2.14-.35.27-.41.41l-.2.2a46.8 46.8 0 00-.2 2.22v.6c1.2.95 2.45 1.89 3.73 2.83H239.29c.23 0 .4-.02.5-.05.1-.04.37-.22.8-.56.44-.33.9-.65 1.37-.95l1-.66c.41-.2.65-.17.72.1 0 .14-.07.24-.2.3-.07.07-.2.16-.4.26-.22.09-.4.2-.56.3a.87.87 0 00-.36.35c-.13.27-.42.62-.85 1.06-.44.45-.76.7-.96.76-.27.07-.67.1-1.2.1 3.83 2.97 6.2 4.92 7.15 5.86.19.2.56.53 1.1 1zm-38.11.92c-.2.13-.7.55-1.51 1.26-.8.7-1.4 1.26-1.76 1.66l-1.46 1.56a7.5 7.5 0 00-1.36 1.92c-.3.64-.5 1.26-.56 1.86.94-1 1.57-1.67 1.91-2.01a42.8 42.8 0 014.64-3.63c1-.74 5.87-5.38 14.62-13.92l-.4-.2c-.28.2-1.27.96-2.99 2.27a357 357 0 00-5.84 4.59 65.22 65.22 0 00-4.28 3.62c-.14.2-.48.54-1.01 1.02zm-6.35 10.09c.2.6.6 1.2 1.2 1.81a15 15 0 01.91-1.31c.4-.54 1.42-1.55 3.02-3.03.14-.07.94-.7 2.42-1.91a23.08 23.08 0 002.42-2.12 22.95 22.95 0 002.21-2.72c.2-.34.2-.8 0-1.42-.2-.61-.44-.9-.7-.9-.07 0-.46.31-1.16.95a109.32 109.32 0 00-3.68 3.48c-.2.14-.65.5-1.36 1.07-.7.57-1.38 1.1-2.02 1.56a18.35 18.35 0 00-3.57 3.33c.07.4.18.8.3 1.2zm19.16-10c1.2-3.43 1.91-5.88 2.11-7.37 0-.27.04-.57.1-.9a19.58 19.58 0 01.16-1.31c.04-.2.02-.45-.05-.72-.07-.27-.17-.5-.3-.7-.2.26-.48.53-.8.8-.27.27-.82.85-1.67 1.76-.84.9-1.33 1.4-1.46 1.46-.27.27-.3.78-.1 1.51 0 .14-.18.84-.5 2.12a14.46 14.46 0 01-2.22 3.94 19.6 19.6 0 01-2.72 3.32c-.07.14-.39.52-.96 1.16-.57.64-1.03 1.1-1.36 1.37-.6.53-.98.8-1.1.8l-.41.2.2-.3.85-.86 1.41-1.42 1.07-1.06c.27-.27.74-.84 1.41-1.72.68-.87 1.01-1.35 1.01-1.41.74-.8 1.42-2 2.02-3.54.54-1.35.8-2.11.8-2.32-.2-.68-.33-1.01-.4-1.01-.2 0-.78.52-1.72 1.56a14 14 0 00-1.72 2.22c-.27.48-.3.84-.1 1.1.06.08.13.11.19.11.2.27.1 1.05-.3 2.32-.27.75-1.01 1.55-2.22 2.42-.2.14-.97.78-2.32 1.92a55.09 55.09 0 01-2.32 1.92c-.2.14-.75.66-1.62 1.56l-1.61 1.67c-.4.34-.74.84-1.01 1.51.27.2.9.4 1.91.6.8.28 1.78.28 2.93 0 .14-.2.48-.5 1.06-.9.57-.4.93-.7 1.06-.9 1.75-2.16 2.9-3.44 3.43-3.84.2-.14 1.31-1.25 3.32-3.33a9.6 9.6 0 01-1.66 2.02 13.28 13.28 0 00-1.46 1.62c-.14.2-.67.85-1.62 1.97a53.07 53.07 0 01-1.71 1.97l-.6.6c.74-.27 1.47-.6 2.21-1 1.68-.95 3.43-2.62 5.24-5 1.83-2.4 3-4.37 3.55-5.92zm-3.94 3.73c.14-.4.3-.64.5-.7l-.1.3-.4.4zm4.74-21.48l-.2.8c.34 1.08 2.08 1.56 5.24 1.46 3.16-.1 4.9-.59 5.24-1.46 0-.07-.07-.34-.2-.8a8.75 8.75 0 01-1.91-1.32c0-.07-.13-.25-.36-.55a5.6 5.6 0 01-.6-.96 1.56 1.56 0 01-.16-1c-.6-.2-1.14-.28-1.61-.2-.14.13-.3.13-.5 0-.2.13-.34.13-.4 0-.41-.08-.88 0-1.42.2.06.26.01.58-.16.95s-.39.7-.66 1.01c-.26.3-.4.5-.4.55-.12.2-.76.64-1.9 1.32zm7.36 22.9c.6-.54 1.42-1.58 2.42-3.13l-.1-.2c-.14.2-.36.44-.66.71-.3.27-.87.57-1.72.9-.83.35-1.6.38-2.27.11-.67.27-1.4.25-2.16-.05a6.3 6.3 0 01-1.87-1.06l-.6-.6-.1.2a25.57 25.57 0 002.41 3.12c.34.34 1.01.37 2.02.1h.6c1.02.27 1.7.24 2.03-.1zm1.81-5.05c-.67.14-2.05.18-4.13.1-2.08.08-3.46.04-4.13-.1-.07.34-.18.68-.3 1.01a6.13 6.13 0 002.71 1.21h.7l.71-.2c.07.07.16.1.3.1l.3-.1.71.2h.7a6.09 6.09 0 002.72-1.2 7.35 7.35 0 01-.29-1.02zm17.24 12.92a4.1 4.1 0 002.02-.8c-.27-.8-.6-1.39-1-1.72-.2-.14-.75-.68-1.62-1.62a11.1 11.1 0 00-1.62-1.56c-.2-.1-.97-.75-2.32-1.92a49.2 49.2 0 00-2.32-1.97c-1.2-.87-1.95-1.68-2.22-2.42-.4-1.28-.5-2.05-.3-2.32l.1-.1c.27-.27.27-.65 0-1.11-.2-.4-.8-1.13-1.76-2.17a10.36 10.36 0 00-1.66-1.62c-.14-.03-.24.2-.3.66 0 .2-.04.34-.1.4 0 .2.26.98.8 2.33.6 1.55 1.24 2.72 1.9 3.53.08.07.43.54 1.07 1.42.64.87 1.12 1.48 1.46 1.81l1 .96c.54.5 1.04.98 1.47 1.42l.85.86c.14.13.2.23.2.3l-.5-.1c-.07-.07-.4-.38-1-.91-.35-.27-.8-.73-1.37-1.37-.57-.64-.93-1.03-1.06-1.16a26.27 26.27 0 01-2.63-3.23 15.8 15.8 0 01-2.22-4.03c-.4-1.28-.57-1.99-.5-2.12.2-.74.14-1.24-.2-1.5-.06-.08-.51-.56-1.36-1.47-.84-.9-1.4-1.46-1.66-1.67l-.8-.8c-.2.4-.24 1.31-.11 2.72.07.27.1.57.1.9.2 1.7.9 4.22 2.12 7.58.53 1.54 1.68 3.46 3.42 5.75 1.75 2.29 3.5 3.9 5.24 4.85.67.4 1.35.74 2.02 1a.97.97 0 01-.2-.3 1.42 1.42 0 00-.2-.3c-.2-.2-.79-.85-1.76-1.97-.97-1.1-1.49-1.76-1.56-1.97l-1.5-1.56a9.25 9.25 0 01-1.62-1.97l3.22 3.33c.68.4 1.85 1.68 3.53 3.83.34.4.91 1.01 1.72 1.82a8.7 8.7 0 003.23.29zm-4.23-14.43a57.85 57.85 0 00-4.18-3.53 2594.63 2594.63 0 00-8.42-6.66l-.4.2c8.66 8.47 13.5 13.09 14.51 13.82a45.2 45.2 0 014.64 3.63c.67.74 1.34 1.45 2.02 2.11a5.29 5.29 0 00-.6-1.86c-.34-.64-.81-1.3-1.42-1.97a39.91 39.91 0 00-5.04-4.74c-.54-.46-.91-.8-1.1-1zm-7.86 4.64l-.1-.2c.2.07.37.27.5.6v.11c-.2-.28-.34-.44-.4-.5zm14.5 8.58a8 8 0 001.22-1.72c.13-.4.23-.8.3-1.2-1.28-1.55-2.12-2.43-2.52-2.63a12.3 12.3 0 01-1.16-.86c-.64-.5-1.31-1.05-2.02-1.62a27.8 27.8 0 00-1.36-1.06c-.2-.2-.7-.65-1.46-1.36-.78-.71-1.51-1.39-2.22-2.02-.7-.64-1.1-1-1.16-1.07-.26 0-.5.3-.7.91-.21.6-.2 1.08 0 1.42.07.26.77 1.17 2.11 2.72.2.2 1.05.9 2.52 2.11a64.33 64.33 0 012.42 2.03 19.94 19.94 0 013.02 3.02c.34.42.68.86 1.02 1.33z" fill="#8E2E2C" fill-opacity=".45"/>
  <path d="M219.69 226.15h-.2c-1.35 0-2.8-.39-4.35-1.26a5.31 5.31 0 01-2.9-3.68c-.3-2.51-.3-5.8-.1-9.96.3-4.16.58-6.97.87-8.6.68-3.88 1.55-6.88 2.71-8.81a4.31 4.31 0 01.1-2.9 72 72 0 011.25-3.87c.68-1.94 1.55-4.45 2.71-7.35 1.16-3 2.13-4.94 2.9-5.8a6.61 6.61 0 015.42-2.52c.49 0 .78 0 1.07.1 2.42.67 4.06 1.64 4.83 3.09.49.87.68 2.22.68 4.06 0 1.55-1.55 6.87-4.55 15.96l-.48 1.26c-.2.68-.58 1.26-1.26 1.84.2.97 0 3-.29 6.1l-.1.76c-.57 5.23-1.06 9.97-1.35 14.32-.2 2.32-.97 4.07-2.42 5.32a6.64 6.64 0 01-4.54 1.94zm-2.03-32.7c.29.3.29.58 0 .97-.49.58-.88.97-.97 1.16-.2.29-.39.58-.68 1.06-.29.49-.58.97-.77 1.65-.2.58-.49 1.25-.68 2.03-.29.77-.48 1.64-.68 2.61-.19.97-.29 2.03-.38 3.29-.68 7.16-.58 12 .19 14.6.77 2.81 2.8 4.26 6 4.46h.1c1.06 0 2.22-.58 3.38-1.75a7.34 7.34 0 002.03-4.54c.1-2.03.2-3.87.49-5.8.28-1.84.48-3.58.77-5.13.29-1.55.38-2.52.48-3l.1-.87c.2-2.32.2-4.35-.1-6.1-.1-.19-.1-.29-.1-.48 0-.29.1-.48.2-.68a4.36 4.36 0 001.26-1.64l.29-1.26c2.9-9 4.45-14.12 4.45-15.48.1-1.06.1-1.93-.1-2.42-.1-.48-.48-1.06-1.16-1.74a6.68 6.68 0 00-3-1.45H228c-1.74 0-3.19.58-4.15 1.84-1.16 1.65-3.2 7.16-6.2 16.74-.28.87-.28 1.54 0 1.93zm30.37 31.73c-2.52 0-5.7-.39-9.48-1.06-5.22-1.07-8.51-2.33-9.96-3.97a7.48 7.48 0 01-1.55-6.2 5.78 5.78 0 012.9-4.25 9.29 9.29 0 014.74-1.06c1.45 0 3.2.2 5.22.68l.1.1c.87.19 2.9.57 6.1.96 3.19.39 5.6.58 7.25.58h2.71c3.96 0 6.67 1.06 8.03 3.1a6.37 6.37 0 01.77 5.7 7.67 7.67 0 01-4.06 4.16c-2.23.87-5.7 1.36-10.55 1.36-.96 0-1.54 0-1.74.1-.19-.2-.38-.2-.48-.2zm-12.87-15.38c-2.12 0-3.77.29-4.93.97a4.57 4.57 0 00-2.22 3.28c-.3 2.04.1 3.58 1.25 4.84 1.17 1.36 3.87 2.52 8.23 3.58 4.25 1.06 7.44 1.65 9.57 1.65h.3c.28-.1.86-.1 1.83-.1 5.32 0 9.2-.49 11.32-1.36a5.65 5.65 0 002.03-1.45 7.18 7.18 0 001.35-2.12 5.72 5.72 0 00-.58-4.74 3.78 3.78 0 00-2.51-1.65c-1.06-.2-2.7-.29-4.74-.29h-2.71c-3.48 0-7.64-.58-12.57-1.74l-.2-.1a25.84 25.84 0 00-5.42-.77zm15.1 1.74c1.54 0 3-.48 4.25-1.35a5.11 5.11 0 002.32-3.68c.3-1.84-.58-5.51-2.7-10.93-.4-1.07-.59-1.74-.78-2.23-1.16-3.19-2.51-7.54-4.06-12.96-.97-3.19-1.55-5.03-1.74-5.51-1.45-2.32-3.39-3.48-5.71-3.48-1.26 0-2.52.38-3.77 1.25-1.94.87-2.9 2.9-2.9 6.1.1 2.22.67 5.8 1.83 10.83 1.16 5.03 2.13 8.32 3 10.06v.2c3.1 6.38 5.61 10.06 7.55 11.12.77.39 1.74.58 2.7.58zm-11.9-38.11h.1a6.9 6.9 0 013.67-.87c1.74 0 3.2 1.16 4.45 3.38.1.1.2.39.29.87.1.49.2 1.16.39 1.94.19.77.29 1.54.58 2.22 1.54 5.42 2.9 9.77 4.06 13.16.2.48.48 1.26.87 2.22 2.03 5.13 2.9 8.52 2.61 10.16a3.7 3.7 0 01-1.74 2.52 5.24 5.24 0 01-3.38 1.06 3.8 3.8 0 01-2.04-.58c-2.12-1.06-4.45-4.26-6.96-9.38l-.1-.2a86.76 86.76 0 01-3.1-9.58c-1.25-4.54-1.93-7.83-1.93-9.76 0-1.75.2-3.2.58-4.46.39-1.16.68-1.93.97-2.12.2-.39.39-.49.68-.58z" fill="#8E2E2C" fill-opacity=".8"/>
  <path d="M77.97 166.75c-.13.51-.3 1.25-.48 2.2-.18.96-.38 1.8-.58 2.51-.2.71-.3 1.12-.3 1.25 0 2.31 1.16 6.68 3.47 13.09a32.46 32.46 0 011.63 9.05c.06 2.81-.3 5.19-1.06 7.11a34.14 34.14 0 01-1.93 4.24c-.5.9-1.02 1.66-1.53 2.3-.26.27-.74.62-1.45 1.06l-2.3 1.45c-.85.51-1.67.99-2.5 1.45l-2.04 1.06-.95.57a347.28 347.28 0 00-6.35 5.77c-.26.26-1.48.96-3.65 2.11-2.18 1.15-3.4 1.73-3.66 1.73a38.17 38.17 0 00-2.88 4.05c-.65 1.03-1.1 1.6-1.36 1.73l-1.53 1.73.96 8.28c0 .5.84 2.3 2.5 5.38a5.26 5.26 0 002.5 1.36c1.54.13 2.38.2 2.51.2.13.13.31.2.58.2 2.17-.27 3.4-.39 3.65-.39.27.13.45.32.58.58h.58l.57.77-.77-.2h-.77l-2.89.2h-.38v.2l1.54.2h1.35l.77.77h-1.15l.2.2H56.8l-2.3-.58c-1.8-.37-2.83-.64-3.09-.77l-.2-.2h-.2v.38l-.37-.2h-2.89l.2.2c.64.13 1.09.13 1.35 0 .13 0 .35.03.68.1.3.07.54.1.67.1l.96.77c-.51-.13-.84-.13-.96 0-.5.27-1.02.38-1.53.38-.26 0-.7-.06-1.35-.2l-4.43-.37c-1.03-.27-1.74-.45-2.11-.58-.27 0-.51-.07-.78-.2h-2.3c-.14-.13-.58-.2-1.36-.2-.77 0-1.22-.03-1.35-.1-.13-.06-1.09-.03-2.88.1H31.4c0-.26.71-.64 2.11-1.15 1.8-.13 2.76-.26 2.89-.38.26 0 .77-.33 1.53-.95.51-.52.7-.91.58-1.16a26.23 26.23 0 00-1.26-4.9 96.78 96.78 0 00-2.3-6.17c-.84-2-1.25-3.05-1.25-3.18-.14-.38-.96-1.06-2.51-2.03-1.55-.97-3.18-1.93-4.91-2.88a19.29 19.29 0 01-2.98-1.83c-.78-.64-2.03-2.11-3.76-4.43-1.73-2.33-2.74-3.86-2.98-4.62a3.08 3.08 0 01.2-1.83c.26-.7.5-1.25.77-1.63l.58-.77c-2.7-1.67-4.5-2.7-5.4-3.09-1.41-.5-2.63-1.6-3.65-3.27a.94.94 0 010-1.16c.26-.38.58-.64.96-.77l.57-.2c-1.93-2.44-3.21-3.9-3.85-4.43-.91-.64-1.36-1.73-1.36-3.28 0-.27.2-.38.58-.38H7.5c-2.06-1.02-3.46-2.04-4.23-3.08a20.85 20.85 0 01-2.5-5.4 2.35 2.35 0 010-1.34c.13-.38.26-.65.37-.78l.38-.2-.53-1.89c.14-.26.32-.44.58-.58.27-.13.58-.2.96-.2h.38c-.27-.37-.27-.88 0-1.53.13-.26.5-.38 1.15-.38h1.73l.96.2 3.85 1.73c.13-.38.32-.67.58-.87.26-.2.58-.23.95-.1.52.13 1.57.84 3.18 2.1 1.6 1.3 2.72 2 3.37 2.12.89.38 2.91.67 6.06.87 3.15.2 5.62.23 7.42.1.89-.13 2.1-.1 3.65.1 1.55.2 2.82.41 3.86.68l1.53.2c.27 0 .61-.04 1.06-.1.44-.07 1.25-.17 2.4-.3 1.16-.13 2.05-.17 2.7-.1.65.06 1.46-.07 2.41-.38.96-.31 2.05-.74 3.28-1.25l2.79-1.16c1.02-.38 2.02-1.41 2.98-3.08a43.69 43.69 0 002.88-6.34c.96-2.57 1.5-3.9 1.63-4.04a21.6 21.6 0 012.5-4.43 26.45 26.45 0 012.51-3.08l.96-1.16c.89-1.15 1.6-2 2.1-2.5l1.74-.78-.58-1.15a3.92 3.92 0 01.1-2.6c.31-.84.7-1.36 1.15-1.54.45-.2.88.1 1.26.88.26-.27.44-.58.57-.96.51-.5.96 0 1.35 1.53.14 0 .38-.3.78-.95a8.1 8.1 0 012.1 3.46c0 .38-.09.77-.29 1.15-.2.38-.41.65-.67.78l-.38.2 2.1 2.1c1.67.65 2.58 1.29 2.7 1.93l-3.27.78a19.36 19.36 0 00-2.1 4.99zm-30.6 76.21c0-1.41-.45-3.59-1.36-6.54-1.66-4.74-2.5-7.18-2.5-7.31-2.95.77-4.5 1.48-4.61 2.1-.14.51 0 1.7.37 3.56.38 1.87.65 2.99.78 3.36.13.14.48.75 1.05 1.83.58 1.1 1.1 2.08 1.54 2.99.44.89.67 1.41.67 1.53 0 .26.23.48.68.68.44.2.87.23 1.25.1.13 0 .31-.07.58-.2.9-.1 1.43-.81 1.55-2.1z" fill="#8E2E2C" fill-opacity=".6"/>
  <path d="M243.12 248.87l.32.31c.1.1.2.29.31.54.1.25.1.54 0 .85-.1.32-.25.46-.46.46-.2 0-.36.05-.45.16-.11.31-.41.16-.93-.46 0-.11-.2-.24-.62-.38a3.08 3.08 0 00-1.07-.24l-.46-.15a1.7 1.7 0 01-.46 1.54c-.31.2-.57.18-.77-.07-.2-.26-.32-.6-.32-1 0-.62-.36-.87-1.07-.77h-.78c-.1 0-.1-.2 0-.62.2-.2.32-.61.32-1.23v-2.46a36.49 36.49 0 01-3.08 2.78 9.75 9.75 0 01-3.55 2c-2.58.32-4.1.66-4.63 1.07-1.02.62-2.82 1.24-5.4 1.85-.72.2-3.19.46-7.4.77-.41.1-1.08.38-2 .86-.94.47-1.7.79-2.31 1a5.1 5.1 0 01-2.25-.25c-.86-.25-1.62-.49-2.24-.69l-.93-.46c-1.02-.61-1.39-1.8-1.07-3.55.2-1.44.2-2.62 0-3.55 0-.2.03-.7.08-1.47.04-.78.08-1.31.08-1.63 0-.31-.29-.7-.86-1.23-.56-.5-1-.82-1.3-.93-.12-.1-.58-.95-1.4-2.54-.82-1.6-1.3-2.39-1.46-2.39-.16 0-1-.17-2.55-.53a46.48 46.48 0 01-2.78-.7c-4.83-1.02-7.09-.66-6.78 1.08l.15.31a1.23 1.23 0 01-.4.84c-.15.14-.32.2-.53.16-.2-.05-.46-.26-.77-.62-.32-.36-.57-.7-.78-1l-.31-.45c0 1.34-.25 2.11-.78 2.3-.4.11-.72-.2-.93-.93 0-.1-.04-.2-.16-.31l-.45-1.7c-.11 0-.37.18-.78.54-.4.37-.77.45-1.07.24-.52-.41.05-1.6 1.69-3.55.2-.32.44-.85.7-1.63.25-.77.37-1.2.37-1.31 0-.1.08-.36.24-.77.16-.41.36-.94.62-1.55.25-.62.44-1.19.53-1.69.41-1.44 1.49-2.51 3.24-3.24 1.44-.5 2.78-1.39 4-2.62 3-2.98 4.59-4.92 4.8-5.86.09-.31-.26-.94-1.08-1.92-.82-.98-1.8-2.09-2.94-3.32l-1.84-2c-4.22-5.24-6.59-8.28-7.1-9.1-2.87-4.51-4.3-8.22-4.3-11.1 0-3.9.15-6.27.45-7.09.41-.7.71-.5.94.62v2.78c-.32 3.6 1.07 7.5 4.16 11.71.94 1.35 2.58 3.43 4.93 6.26 2.37 2.82 3.76 4.39 4.17 4.7 0 .11.23.38.7.85a33.47 33.47 0 003.24 2.86c.65.52 1.19.85 1.62 1 .4.16.77.12 1.07-.08.62-.5 2.3-1.23 5.08-2.16 2.78-.94 4.79-1.4 6.02-1.4 4.63 0 8.27.42 10.94 1.24 1.34.4 2.86 1.23 4.55 2.46a16.5 16.5 0 014.09 4.17 31.62 31.62 0 012 4.25c.71 1.8 1.34 3.36 1.85 4.7l.62 2c2.25 2.17 3.69 4.02 4.3 5.56.42 1.03.8 2.26 1.16 3.7.36 1.44.53 2.3.53 2.62l.08 1.15a43.77 43.77 0 00.56 4.4l-.32 3.54c1.14.2 1.96.41 2.46.62.21.11.38.31.54.61.16.3.28.62.38.94v.3h.03zm-36.55-8.17c0-.2.08-.56.24-1.07.16-.5.25-.87.31-1.07.05-.2-.03-.41-.23-.62-.62-.1-1.35.46-2.17 1.69a11.7 11.7 0 00-.75 1.77c-.12.36-.12.66 0 .93.09.25.31.38.61.38 1.33-.73 1.99-1.39 1.99-2zm1.39-7.56a37.6 37.6 0 012.54-3.08 4.16 4.16 0 012.54-1.39c.1-.1.08-.57-.07-1.39a5 5 0 00-.54-1.69c0-.1-.41-.64-1.23-1.62a40.33 40.33 0 01-2.25-2.94 8.03 8.03 0 01-1.15-2.08c-.1-1.03-.57-1.28-1.39-.78-.61.41-.93 1.14-.93 2.17a7.9 7.9 0 00.38 3.07c.36 1.24.38 2.12.08 2.63-.82 2.16-.98 3.64-.46 4.46l2.48 2.64zm9.57 12.95c.2-.62.16-1.4-.16-2.3a2.48 2.48 0 00-2-1.7 3.1 3.1 0 00-2.01.46c-.73.41-1.28.93-1.69 1.55l-.62.77c-.1.32-.04.62.16.93.2.32.41.54.62.7.2.16.53.31 1 .46.45.14.73.28.84.38.51.2 1.24.17 2.17-.08.91-.27 1.48-.65 1.69-1.17zm17.57-7.4c.71-.92 1.07-2.66 1.07-5.23 0-.94-.15-2.09-.45-3.48-.3-1.39-.57-2.08-.78-2.08-.72.2-1.8.57-3.23 1.07-2.37.82-4.1 1.28-5.25 1.4-1.34.2-2.36.92-3.08 2.16-.52.93-.77 1.8-.77 2.62 0 .82.13 1.43.38 1.84.25.41.54.62.85.62.2.11.5.08.86-.08l.85-.38.31-.16c.1-.1.21-.17.32-.23l.7-.38c.36-.2.61-.33.77-.38.16-.05.28-.03.38.08.1.93-.25 1.8-1.08 2.62-.2.1-.44.25-.7.46l-.45.38a.83.83 0 00-.16.31c-.04.16-.03.28.08.38.41.82 1.8 1.34 4.17 1.55 1.82.1 3.57-.93 5.21-3.08z" fill="#8E2E2C"/>
  <path d="M263.86 152.56c.36.08.3.44-.23 1.1-.22.38-.47.6-.76.67-.89.23-1.7.63-2.44 1.21-2.57 2.29-4.49 3.65-5.74 4.09-1.55.59-3.28 1.1-5.2 1.55-.8.14-1.9.12-3.25-.06-1.37-.18-2.34-.68-2.93-1.5a5 5 0 01-.71-2.42c-.1-1.11-.17-2.1-.17-2.99l.11-1.32a34.48 34.48 0 00-4.08-1.21l-2.1-.77c-.08.08-.18.15-.33.22-.15.08-.38.13-.71.17-.33.04-.58-.09-.72-.38-.22-.3-.96-.27-2.2.06a8.63 8.63 0 00-2.32.82c-.23.08-.3.44-.23 1.11.07.67.19 1.1.33 1.32.3.23.48.9.56 2.05a5.37 5.37 0 01-.56 2.93l-1.65 1.76c-1.1.67-2.2 1.15-3.31 1.44-.74.15-1.35.22-1.82.22a9.4 9.4 0 01-1.65-.16 8.87 8.87 0 00-1.27-.17c-1.32 0-2.84-.3-4.52-.89a8.85 8.85 0 01-3.32-1.2 17.8 17.8 0 00-2.26-.72c-.18-.03-.24-.12-.17-.27.07-.15.44-.23 1.1-.23h-.1c-.89-.37-1.35-.6-1.38-.7-.04-.12.02-.25.17-.4.58-.29 1.47-.55 2.64-.76-1.32.15-1.9.08-1.76-.23.3-.22.7-.4 1.2-.55.52-.15.97-.26 1.33-.33h.56l3.08.44c.67.44 1.55.81 2.65 1.1a6.17 6.17 0 002.76-.2l.67-.12c-1.55-2.43-2.4-4.16-2.55-5.19a7.36 7.36 0 01-.33-1.32c-.14-.74-.26-1.35-.32-1.82a4.52 4.52 0 01.16-1.82c.19-.74.54-1.44 1.06-2.1a12.7 12.7 0 013.42-3l.56-.1a14.49 14.49 0 01-2.43-7.4c-.08-1.77.12-3.72.6-5.86s.98-3.79 1.5-4.97l.77-1.87c-1.11-.37-1.81-1-2.1-1.88l-1.44-3.87a5.8 5.8 0 01.11-2.64c.88-1.7 1.33-2.62 1.33-2.76 0-.15-.04-.45-.12-.89 0-.5.04-.81.12-.88.22.15.4.33.55.56a5 5 0 01.33.55v.23c.06 1.47.06 2.32 0 2.54-.52 1.62-.56 2.55-.12 2.76.23.15.6.46 1.11.94.51.47.88.77 1.11.88.23.11.51.06.88-.17 1.4-2.43 2.17-3.98 2.32-4.63l.11.1c.45.53.89.34 1.33-.55.5-.96.44-1.58-.23-1.87v.11a4.2 4.2 0 013.09-1.76c1.62 0 2.87.47 3.75 1.43-.66.38-.7 1.03-.11 2 .44.73.88.87 1.32.43v-.11l.12.11c.29.96.6 1.77.94 2.44.32.66.6 1.1.82 1.32l.23.33c.44-.45.81-.77 1.1-1l1.33-1a7.84 7.84 0 01-1.11-2.43c-.15-.96 0-1.7.44-2.2 1.18-1.4 1.91-2.06 2.2-2 .15 0 .13.23-.05.68l-.61 1.49c-.23.55-.26.94-.11 1.16.06.23.32.58.76 1.06.45.47.67.93.67 1.38v2.2c-.14 1.99-.47 3.2-1 3.64l-1.87 1.44c.44.66.94 1.55 1.5 2.64.55 1.1 1.25 2.94 2.1 5.52.84 2.58 1.12 4.6.82 6.08l-1.55 6.74c1.91.58 3.24 1.4 3.98 2.43a6.64 6.64 0 011.65 4.52l-.88 6.3c.82.3 1.62.23 2.43-.23a18.4 18.4 0 002.6-1.99c1.5-1.25 2.66-1.99 3.48-2.2 2.2-.59 3.6-.74 4.2-.44.14.08.03.18-.34.32-1.17.6-1.76 1-1.76 1.22 1.25-.45 2.14-.56 2.65-.33.36.08.32.22-.12.44-.58.22-.88.44-.88.67h.94c.11 0 .2-.06.27-.06z" fill="#8E2E2C" fill-opacity=".35"/>
  <path d="M133.24 168.26c1.42.87 2.22 1.85 2.44 2.94.21 1.08-.12 1.76-.99 2.03a5.4 5.4 0 01-3.25-.25c-.12 0-.73-.18-1.87-.57a60.48 60.48 0 00-2.85-.9c-.76-.21-2.01-.48-3.75-.81a18.88 18.88 0 00-4.48-.4c-1.25.05-2.9.18-4.97.4-3.15.55-5.53 2.01-7.17 4.4a13.42 13.42 0 00-2.43 7.73c0 2.77.16 5.4.48 7.9.22.65.7 2.25 1.47 4.8a118.58 118.58 0 013.17 13.42c.48 2.6.7 5.1.65 7.49a26.2 26.2 0 01-.9 6.52c-.99 3.8-3.12 7.26-6.44 10.42-3.32 3.15-8.12 5.1-14.4 5.86a29.5 29.5 0 01-12.7-2.11 19.17 19.17 0 01-7.32-5.14 22.68 22.68 0 01-5.05-9.2c-2.17-7.6-3.8-14.44-4.89-20.5-1.08-6.09-1.57-9.87-1.47-11.4.1-1.52.17-2.72.17-3.6l2.6 10.26c3.69 11.72 7.44 19.64 11.24 23.77.86.99 1.81 1.9 2.85 2.77 1.03.87 2.52 1.85 4.48 2.94 1.95 1.08 4.2 1.6 6.75 1.54 2.55-.04 5.07-.78 7.57-2.2a11.39 11.39 0 003.67-3.25c.92-1.3 1.48-2.8 1.72-4.48.21-1.68.33-3.32.33-4.88 0-1.57-.25-3.39-.73-5.46a104.45 104.45 0 00-2.77-10.09c-.6-1.84-1-3.14-1.22-3.9a25.6 25.6 0 01.17-16.85 23.07 23.07 0 0110.59-12.62c2.5-1.2 5.2-1.9 8.13-2.11 2.93-.22 5.59-.05 7.99.48 2.38.55 4.61 1.2 6.66 1.95 2.07.77 3.64 1.47 4.72 2.12l1.8.98z" fill="#8E2E2C" fill-opacity=".6"/>
  <path d="M253.87 190.6c4.63 2.05 6.37 5.09 5.22 9.12-1.15 5.23-6.37 5.78-15.63 1.75-.86-.3-1.75-.7-2.6-1.3-23.15-11.56-40.83-15.93-52.98-13.04-1.44.59-2.44 1.89-3.04 3.89-.3.59-.14 1.52.45 2.81.6 1.3 1.3 2.67 2.18 4.11.86 1.45 1.3 2.45 1.3 3.04.3 0 .85.93 1.74 2.82a44.29 44.29 0 011.97 5c.44 1.45.85 3.4 1.3 5.85.44 2.45.36 4.41-.23 5.86-1.15 3.48-3.63 5.7-7.37 6.74-3.78 1-8.12-.22-13.04-3.7-4.63-3.49-5.23-9.12-1.74-16.94l5.63-13.04c.3-1.74 0-2.44-.86-2.18-.3 0-.59.15-.85.44-4.63 2.9-7.6 5.3-8.89 7.15-1.3 1.9-3.11 5.6-5.4 11.08a171.9 171.9 0 01-8.68 17.38c-3.19 5.22-6.89 8.04-11.08 8.48-4.18.45-7.52-.92-10-4.11-2.45-3.19-3.26-6.67-2.37-10.41a70.77 70.77 0 012.81-5.86c1-1.89 1.97-3.4 2.82-4.55a23.14 23.14 0 013.7-3.7l3.49-2.82c.7-.6 3.11-2.04 7.15-4.34a80.82 80.82 0 0112.15-6.07 73.59 73.59 0 0110.41-3.49l4.34-.85c-1.45-1.74-2.38-2.67-2.82-2.81a41.28 41.28 0 00-11.97-1.52c-9.26-.6-23 1.74-41.23 6.96-.85.3-2.67.93-5.41 1.96-2.74 1-5.37 1.97-7.82 2.82-2.44.85-4.93 1.6-7.37 2.19-2.45.59-4.34.59-5.63 0-1.3-.6-1.97-1.9-1.97-3.9.6-4.33 4.41-8.18 11.53-11.52 7.07-3.33 16.85-5.4 29.3-6.3a79.23 79.23 0 0141.68 7.82v.45h1.3c0-.86-.15-1.9-.45-3.04-1.14-5.48-1.14-8.97 0-10.41h4.78l.86-28.23c-4.04-4.63-7.38-6.97-10-6.97-1.16 0-2.34.3-3.49.85-1.15.6-1.89 1-2.19 1.3-.3.3-1 .15-2.18-.44-.6-.86-.6-1.75 0-2.6.6-.85 1.74-1.67 3.48-2.37 1.74-.7 3.48-1.22 5.23-1.52 3.74 0 6.78 2.9 9.1 8.67 0-7.22.16-14.41.45-21.49l.67-16.08c.15-3.63.22-5.7.22-6.3 0-.85-.74-2.1-2.18-3.7-1.45-1.6-2.04-2.96-1.75-4.11.86-3.74.45-7.08-1.3-10-.29-.6-.84-2.23-1.73-5-.85-2.75-1.6-4.42-2.19-5-.3-.6-.85-1.16-1.74-1.75-.85-.6-1.6-1.15-2.19-1.74-.59-.6-.92-1-1.07-1.3-.15-.3-.22-.6-.22-.85l-3.48-.85-3.04-2.6c-.6-.85-.45-1.59.44-2.18 1.74-1.15 3.63.6 5.63 5.22 1.45 1.45 2.6 2.19 3.49 2.19.3 0 .59-.3.85-.85.3 1.14.7 2.03 1.3 2.59 1.44 1.15 2.88 3.78 4.33 7.82l2.6 7.81c-1.45 5.49-1.45 8.41 0 8.67.84.3 1.44.23 1.73-.22.3-.44.45-1.15.45-2.18v-1.97c0-.3-.45-3.33-1.3-9.11-.85-5.78-1.15-8.97-.85-9.56.6-.85 1.07-2.74 1.52-5.63.44-2.9.67-4.49.67-4.78v-13c0-.6-1.6-1.3-4.78-2.2.3-.59.77-.84 1.51-.84.7 0 1.52.14 2.38.44l.85.44-2.19-7.37c.6-.3 1 .15 1.3 1.3l.85 1.74.45 2.19.44-5.23-.85-12.6-.45.45c-1.44.6-1.74-.7-.85-3.9l.85-2.58c.3.3.52.66.67 1.07.15.44.37 1.3.67 2.6.3 1.29 0 2.1-.85 2.36.59 2.04 1.14 4.04 1.74 6.08l1.74-5.63c1.15.6 1.44 1.44.85 2.6a24.22 24.22 0 01-2.6 3.88c.6 1.74 1 3.63 1.3 5.63 0 1.75-.59 4.49-1.74 8.27l.45.44h3.03c0-.6.45-1.07 1.3-1.52a14.5 14.5 0 013.04-1.07h1.74c.3 1.74-.85 2.89-3.48 3.48.3.6 0 1.3-.85 2.19-.86.89-1.75 1-2.6.44-.85-.6-1.44-.3-1.74.85v2.19l-.44 10c-.3.6-.6 1.22-.86 1.97-.3.74-.66 1.96-1.07 3.7-.4 1.74-.52 3.04-.22 3.9l1.3 10.4c3.18-2.6 4.77-4.63 4.77-6.07l1.75-7.38h1.3l3.03-6.07.85-.86c.3-.3.78-.7 1.52-1.3.7-.58 1.37-.58 1.97 0 .85.86-.15 2.34-3.04 4.34l-3.49 3.9c.3 0 .45.14.45.44 0 .59-.15 1-.45 1.3l.86-.86 1.07-1.07c.4-.41 1.15-.93 2.19-1.52 1-.6 1.81-.7 2.37-.45.6.3 0 1-1.74 2.19a107.2 107.2 0 01-5.64 3.48 4 4 0 00-.85 2.19c-.59 3.48-1.3 5.48-2.18 6.07-2.6 2.34-3.9 3.9-3.9 4.78-.59 5.23-.84 8.12-.84 8.67 0 .6.22 1.45.66 2.6.45 1.15.67 2.18.67 3.04V112.58l2.6-3.48c2.29-2.89 4.92-4.33 7.81-4.33 2.6 0 3.48 1.14 2.6 3.48-.3 1.15-1.38 1.74-3.27 1.74-1.89 0-2.96.15-3.26.44-1.74.6-3.89 1.75-6.52 3.49-1.15.85-1.3 6.07-.44 15.63a89.9 89.9 0 00-.86 12.15c2.04-4.33 4.04-7.66 6.08-10 2.04-2.3 5.08-4.04 9.11-5.22 4.04-1.15 6.67-1.15 7.82 0 1.74 1.74 1 2.89-2.18 3.48-5.78 1.15-9.41 2.19-10.86 3.04-3.48 2.33-6.96 5.93-10.41 10.85 0 10.41.15 16.34.44 17.79v12.6c.6-1.45 1.75-1.45 3.49 0 .59.59.92 1.22 1.07 1.96.15.74.22 1.3.22 1.74 0 .44-.14 1.07-.44 1.96-.3.85-.44 1.45-.44 1.74l-.86 3.9c9.86-2.9 21.27-3.82 34.31-2.82 12.97.85 24.27 3.52 33.83 7.89zm-89-131.15l-.85 3.49-7.37.85c-.85-.6-.45-1.45 1.3-2.6a6.4 6.4 0 00-2.19-2.59c-.3-.59 0-1 .85-1.3.85-.85 1.45-1.3 1.74-1.3-.85-.84-1.14-1.58-.85-2.18.3-.59.7-.85 1.3-.85l.85-.44 2.19 1.74 3.03-1.74c.3 0 .45.59.45 1.74v3.48l-.45 1.7zm6.08 0c.6 2.34.7 4.04.45 5.23a87.7 87.7 0 01-.86-4.78l-3.48-5.63c2.85 0 4.15 1.74 3.89 5.18zm7.37-16.93l1.3.85-1.3 2.6h-5.63v-2.19c-2.33 0-3.48-.44-3.48-1.3l3.04-1.3c-1.15-.58-1.9-1.14-2.19-1.73 0-.3.3-.52.85-.67.6-.15 1.15-.22 1.74-.22h.86l2.18-1.74c.3 0 .67.52 1.08 1.52.44 1 .77 1.96 1.07 2.81l.48 1.37zm6.08-16.04c3.74 1.45 6.07 1.45 6.96 0l-1.3-3.04 1.75-2.6h-2.6l-1.3-2.58c-.58 0-1 .22-1.29.66-.3.45-.6.93-.85 1.52v.45l-2.19 1.74v2.18c-.07 1.08.23 1.67.82 1.67zm11.7 26.05a194.47 194.47 0 00-2.18 5.63l.85 3.89c4.34.3 6.78.3 7.38 0v-2.6c.3-.3.66-.59 1.07-.85.44-.3.85-.7 1.3-1.3.44-.59.52-1.14.22-1.74-.3-.59-.74-.92-1.3-1.07-.59-.15-1-.22-1.3-.22h-.85c-.3-.3.15-1.45 1.3-3.49-.6 0-1.15.23-1.74.67a7.77 7.77 0 00-1.74 1.97l-.45.85c-.22.3-1.1-.3-2.55-1.74z" fill="#8E2E2C" fill-opacity=".5"/>
  <path d="M127.82 100.22c.63 0 1.07.1 1.3.33 1.07.44 1.81 1.82 2.25 4.19.44 2.37.33 4.52-.33 6.45-.22 1.08-.44 1.74-.63 1.93-1.08.63-.97 1.19.33 1.63a616.4 616.4 0 0020.04 2.9c1.52.21 4.96-.34 10.34-1.64 1.07-.44 2.9-1.18 5.48-2.26l4.53-2.26c3.44-1.51 6.3-2.15 8.57-1.93 2.26.22 3.89.64 4.85 1.3.96.66 1.65 1.3 2.1 1.93.63 1.93-.45 4.3-3.23 7.11l-4.02 4.03-2.1 2.1-1.13 1.12c-.11.11-.22.39-.33.8-.11.44-.11.86 0 1.3.1.44.27.9.5 1.46.22.55.68 1.18 1.46 1.93.74.74 1.65 1.57 2.75 2.42 2.6 2.37 3.78 4.91 3.56 7.58-.22 2.7-1.19 4.25-2.9 4.69-2.15.63-5.07-.11-8.7-2.26-.23 0-.92-.39-2.1-1.13a34.13 34.13 0 00-3.06-1.76 32.66 32.66 0 00-5.19-2.9c-.63-.44-2.7-1.52-6.14-3.22-4.08-1.93-7.75-2.9-10.97-2.9-1.3 0-1.93-.1-1.93-.33.22.22.27.6.16 1.13-.1.55-.27.97-.5 1.3-.22.33-.32.69-.32 1.13 0 1.07-.86 2.26-2.6 3.55-.22 0-1.93 1.35-5.18 4.03-3.22 2.7-5.07 4.16-5.49 4.35-1.07.44-2.14.97-3.22 1.63-1.3.63-2.04.96-2.26.96l-.33.34c-2.15.44-4.41-.45-6.78-2.6 0-.22-1.13-1.57-3.4-4.02-2.25-2.48-3.6-3.83-4.02-4.03-.44-.44-.96-.52-1.63-.33-3.22.64-4.96 1.08-5.18 1.3-.44.44-.55.63-.33.63.44 0 .44 1.4 0 4.2-.22 2.14-1.52 2.89-3.89 2.25l-9.04-4.19h-5.48c-9.05 0-16.49-.96-22.3-2.9-.45 0-1.88-.38-4.36-1.12-2.48-.75-5.49-1.63-9.04-2.6-3.56-.96-6.73-1.98-9.54-3.05-4.96-1.52-8.63-3.34-10.97-5.49-1.93-1.7-3.12-3.33-3.56-4.85-.44-1.08-.74-1.65-.96-1.77-.22-.1-.33-.57-.33-1.46 0-.85.22-1.51.63-1.92.63-.86 2.7-2.05 6.15-3.56 1.93-.86 5.04-1.82 9.37-2.9 3.67-.63 7.44-1.51 11.3-2.59a65.36 65.36 0 006.15-1.13c1.3-.3 2.15-.5 2.6-.5A125.94 125.94 0 0195.58 107c5.6 1.08 9.7.85 12.27-.63.63-.23 2.75-.97 6.31-2.27 3.56-1.29 5.43-1.92 5.65-1.92a16.96 16.96 0 018-1.96zm-95.47 18.25c.11-.11.28-.17.5-.17.22 0 .33.11.33.33h.96c-.22 0-.44.11-.63.33l-.33.34c-.22 0-.44.1-.63.33-.23.22-.45.63-.64 1.3.22.21.22.32 0 .32v-.33l-.33-.33v-.63c0-.22.11-.5.33-.8.2-.39.33-.58.44-.7zm1.13 4.99c.22.22.75.44 1.63.63v.63c0 .23-.28.4-.8.5-.55.11-.8.06-.8-.16a1.1 1.1 0 01-.33-.8c0-.3.1-.58.3-.8zm4.05-5.82c-.1 0-.27.11-.5.33-.43.44-.74.64-.96.64l-.63.33c.44-.22.8-.06 1.13.5.33.54.58 1.12.8 1.76.22.63.22 1.07 0 1.3l.63-1.94c0 .22.22.22.64 0h.33c.22 0 .33-.16.33-.5 0-.32-.11-.57-.33-.8a5.63 5.63 0 00-.97-1.29c-.19-.22-.35-.33-.47-.33zm1.14 4.22c.63.63.85 1.18.63 1.63-.44.44-.75.63-.97.63v.33l-1.46.5c-.33.1-.6-.17-.8-.8 1.08 0 1.52-.64 1.3-1.93l1.3-.36zm42.97-9.7c-9.48 0-16.15.22-20.04.63-1.52.22-3 .33-4.52.33-1.52 0-2.9.16-4.19.5-1.3.33-2.37.5-3.23.5-.44 0-.96-.06-1.62-.17a9.3 9.3 0 00-1.3-.17c-.22 0-.33.11-.33.33.64.44 1.19.86 1.63 1.3.44.44.74.63.96.63 1.3-.22 3.78-.63 7.45-1.3 1.07-.21 2.7-.43 4.85-.63 1.3-.22 9.32-.33 24.06-.33 14.75 0 22.77.11 24.07.33.85 0 1.3-.1 1.3-.33-1.08-.63-4.75-.96-10.98-.96-4.08-.22-7.44-.44-10-.64-1.77-.03-4.47-.03-8.1-.03zm2.26 5.81c-9.04 0-14.53.11-16.48.33-5.19.44-9.27.55-12.27.33-.44 0-1.02-.05-1.76-.16a10.9 10.9 0 01-1.63-.33 6.33 6.33 0 00-1.76-.17c0 .44.1.91.33 1.46.22.55.33.91.33 1.13.22 0 1.07-.05 2.59-.16 1.51-.11 2.37-.17 2.59-.17.63 0 2.7-.05 6.15-.16 3.44-.11 5.92-.39 7.44-.8 1.3-.22 5.93-.28 13.9-.17 7.96.11 12.04.22 12.26.33.22.11 1.13.11 2.76 0 1.62-.1 3.11-.05 4.52.17 1.4.22 3.72.44 6.95.63 3.22.22 5.01.39 5.32.5.33.1 2.53.16 6.61.16 7.75.22 12.38.55 13.9.97 1.51.44 3 .63 4.52.63 2.78.44 4.3.64 4.52.64.22 0 1.62.16 4.19.5 2.56.32 4.19.6 4.85.8.85.43 1.52.43 1.93 0 .22-.23.22-.45 0-.64-1.08-.64-2.37-.86-3.89-.64-.85 0-1.4-.05-1.62-.16a6.35 6.35 0 00-1.63-.33c-.86-.11-2.04-.28-3.56-.5-1.3-.44-2.48-.63-3.55-.63-1.08 0-2.6-.22-4.52-.64-5.19-.85-9.05-1.3-11.64-1.3-.44 0-1.51-.1-3.22-.32a319.14 319.14 0 00-24.23-1.3H83.9zm-22.3 7.11c-1.93 0-2.95.11-3.06.34-.1.22-.05.5.17.8.22.33.44.38.63.16a623 623 0 005.49-.17c3.44-.1 6.03-.05 7.74.17 1.93 0 3.89.11 5.82.33 1.93 0 3.67.11 5.18.33 2.6.44 6.73.63 12.43.63 5.71 0 8.66-.1 8.88-.33.86-.44 4.36-.52 10.5-.33 6.15.22 11.47.55 16 .97 2.36.22 4.18.55 5.48.96 1.07.44 2.9.75 5.48.97 2.6.22 4.64.44 6.15.63 2.79.44 4.41.44 4.85 0 .44-.44.22-.74-.63-.96-.44 0-1.19-.11-2.26-.33a43.11 43.11 0 01-4.2-.64 38.2 38.2 0 00-5.48-.63 67.25 67.25 0 01-5.81-.64c-4.3-1.07-16.8-1.51-37.47-1.3H85.53c-4.52-.63-11.41-.96-20.68-.96H61.6zm73.66 5.82c-.63 0-1.4.11-2.26.33-2.81 0-5.6.11-8.4.33-10.98.64-16.8 1.19-17.46 1.63-.22 0-1.3.1-3.22.33-6.9.63-11.3.85-13.24.63a46.37 46.37 0 00-5.18-.33c-1.93.22-3.39.17-4.35-.16-.97-.33-1.69-.33-2.1 0-.44.33-.63.55-.63.63 0 .11.22.28.63.5a7 7 0 012.26.33c1.08.44 4.85.63 11.3.63 6.45-.22 10.34-.33 11.64-.33 1.7-.22 2.7-.44 2.9-.63.85-.22 2.25-.44 4.18-.64.64 0 2.37-.22 5.18-.63 2.6-.22 4.52-.44 5.82-.64 2.15 0 4.2-.1 6.15-.33l6.45-.33c1.51-.22 2.37-.44 2.59-.63.22-.22-.11-.44-.96-.63-.22-.06-.67-.06-1.3-.06zm-41.02 12.6c-.44.44-.22 1.07.63 1.93 2.15 1.3 3.23 1.51 3.23.63 0-.22-.55-.63-1.63-1.3a62.58 62.58 0 00-2.23-1.26zm36.5-3.56h-1.93c-6.9.86-10.89 1.3-11.97 1.3-1.07.22-.85.44.64.63.85.22 1.7.33 2.59.33 2.79 0 5.93-.63 9.37-1.93l1.3-.33zm7.41-2.59c-.22 0-.85.33-1.93.97-1.51.44-2.59.74-3.22.96l-1.3.33h1.3c1.07-.22 2.15-.52 3.22-.96a7.67 7.67 0 001.93-.97v-.33zm22.14-8.71h1.46c2.79.22 5.38.97 7.75 2.26l.96.63h-.63c-.86-.22-1.63-.44-2.26-.63a66.41 66.41 0 00-3.56-.63c-2.81-.45-4.19-.86-4.19-1.3-.03-.22.14-.33.47-.33zm1.13 5.82c.44-.22 1.3-.11 2.6.33l1.29.96c-.22.44-1.08.44-2.6 0-1.29-.44-1.92-.85-1.92-1.3h.63zm5.82-10.34c3 0 4.68.1 5.01.33.34.22.34.44 0 .63-.33.22-.63.28-.96.17-.33-.11-1.46-.28-3.4-.5-2.8-.22-4.15-.38-4.02-.5.09-.08 1.22-.13 3.37-.13zm.63-4.22h.64c.85.22 1.7.33 2.59.33h.96c.22 0 .33.11.33.33 0 .22-.63.33-1.93.33-1.3 0-2.15-.1-2.59-.33-1.07-.44-1.07-.66 0-.66z" fill="#8E2E2C" fill-opacity=".3"/>
</svg>