<svg viewBox="0 0 300 270" width="279" height="270" fill="none" xmlns="http://www.w3.org/2000/svg">
  <g opacity=".9">
    <path opacity=".9" d="M73.4 72.3c0-1.8 1.6-3.3 3.5-3.3h133c2 0 3.5 1.5 3.5 3.3v163.4c0 1.8-1.6 3.3-3.5 3.3h-99.8c-.9 0-1.8-.4-2.5-1l-33.2-32.8c-.7-.6-1-1.4-1-2.3V72.3z" fill="#E4E8EB"/>
    <path opacity=".9" d="M73.4 72.3c0-1.8 1.6-3.3 3.5-3.3h133c2 0 3.5 1.5 3.5 3.3v163.4c0 1.8-1.6 3.3-3.5 3.3h-99.8c-.9 0-1.8-.4-2.5-1l-33.2-32.8c-.7-.6-1-1.4-1-2.3V72.3z" stroke="#8194A1"/>
    <path opacity=".9" d="M73.4 204.8h31.8c2 0 3.5 1.5 3.5 3.3V239L91 221.9l-17.6-17.1z" fill="#C2C3C4"/>
  </g>
  <path d="M62.8 117.3L53.1 98 46 93.7l-7.2-5 41.7-13.1L124.2 62l-18.4 35-18.1 36.7-17-21.4-7.9 5z" fill="#FCFEFF"/>
  <path d="M72.4 112.6L87.7 134 76.8 96l-6 3.8-5 3.3 6.6 9.4zM68.6 88.4l-29.8.6 7.8 4.4 6 3.2 7.7-3.8 8.3-4.4z" fill="#D2DCE3"/>
  <path d="M63 117l1.2-14.3 12.6-8.2 16.5-11 31-21.8L68 90.1l-14.7 7.7L63 117z" fill="#D2DCE3"/>
  <path d="M107 132.1v-8.9c.1 10.9 15.7 19.8 35 19.8 19.4 0 35-9 35-20v-1.2c-1.1 10.7-16.3 19.2-35 19.2-18.6 0-33.8-8.5-35-19.2 1.2-11.6 16.5-20.8 35-20.8 19.5 0 35.2 10 35.2 22.2v9c0 12.2-15.7 22.1-35.1 22.1-19.4 0-35.1-10-35.1-22.2zM177 145.4c-.6 4.2-3.1 8-7 11.3a6 6 0 012.1 4.6v6.7c3.2-3.3 5-7.2 5-11.4v-9a13.9 13.9 0 000-2.2z" fill="#4E5A71"/>
  <path d="M142 165.4c4.4 0 8.6-.5 12.4-1.4v9h-8a6 6 0 00-5.8 5.8c-18.7-.6-33.6-10.3-33.6-22.2v-9a14.3 14.3 0 01.2-2.2c1.7 11.3 16.7 20 34.9 20z" fill="#4E5A71"/>
  <path d="M146.5 191h7.9v8.6c-3.8 1-8 1.4-12.3 1.4-19.4 0-35.1-10-35.1-22.2v-9c0-.7 0-1.4.2-2.1 1.7 11 16.2 19.7 34 20 1 2 3 3.3 5.3 3.3zM177.2 173h-2c.9-1.7 1.5-3.5 1.8-5.3l.2 2.2v3.1z" fill="#4E5A71"/>
  <path d="M157.3 197a4 4 0 004 4h4a4 4 0 003.9-4v-9h9.9a4 4 0 003.9-4v-4a4 4 0 00-4-4h-9.8v-11a4 4 0 00-4-4h-4a4 4 0 00-3.9 4v11h-9.8a4 4 0 00-4 4v4a4 4 0 004 4h9.8v9z" fill="#4E5A71"/>
</svg>
