<svg viewBox="0 0 279 269" width="279" height="269" fill="none" xmlns="http://www.w3.org/2000/svg">
  <g opacity=".3">
    <path opacity=".5" d="M98.56 34.04H16.18a3 3 0 0 0-3 3v70.85a3 3 0 0 0 3 3h82.38a3 3 0 0 0 3-3V37.04a3 3 0 0 0-3-3z" fill="#4E5A71"/>
    <path opacity=".3" d="M97.14 44.6H17.6v61.49h79.55V44.6zm-76.01-4.8c0 1.06-.79 1.92-1.77 1.92-.97 0-1.77-.86-1.77-1.92s.8-1.92 1.77-1.92 1.77.86 1.77 1.92zm6.19 0c0 1.06-.8 1.92-1.77 1.92-.98 0-1.77-.86-1.77-1.92s.8-1.92 1.77-1.92c.98 0 1.77.86 1.77 1.92zm4.42 1.92c.97 0 1.76-.86 1.76-1.92s-.79-1.92-1.76-1.92-1.77.86-1.77 1.92.79 1.92 1.77 1.92z" fill="#F7FAFB"/>
    <path opacity=".3" d="M92.72 50.37h-70.7v23.06h70.7V50.37zM23.46 78.23a1.44 1.44 0 1 0 0 2.88h67.82a1.44 1.44 0 0 0 0-2.88H23.46zm0 5.76a1.44 1.44 0 1 0 0 2.89h67.82a1.44 1.44 0 1 0 0-2.89H23.46zm8.16 7.69h-8.6a1 1 0 0 0-1 1v9.53a1 1 0 0 0 1 1h8.6a1 1 0 0 0 1-1v-9.53a1 1 0 0 0-1-1zm60.1 0h-8.6a1 1 0 0 0-1 1v9.53a1 1 0 0 0 1 1h8.6a1 1 0 0 0 1-1v-9.53a1 1 0 0 0-1-1zm-15.02 0h-8.61a1 1 0 0 0-1 1v9.53a1 1 0 0 0 1 1h8.6a1 1 0 0 0 1-1v-9.53a1 1 0 0 0-1-1zm-15.03 0h-8.6a1 1 0 0 0-1 1v9.53a1 1 0 0 0 1 1h8.6a1 1 0 0 0 1-1v-9.53a1 1 0 0 0-1-1zm-15.02 0h-8.61a1 1 0 0 0-1 1v9.53a1 1 0 0 0 1 1h8.6a1 1 0 0 0 1-1v-9.53a1 1 0 0 0-1-1z" fill="#D2DCE3"/>
  </g>
  <g opacity=".5">
    <path opacity=".7" d="M253.92 75.76h-70.85a3 3 0 0 0-3 3v60.83a3 3 0 0 0 3 3h70.85a3 3 0 0 0 3-3V78.76a3 3 0 0 0-3-3z" fill="#4E5A71"/>
    <path opacity=".5" d="M253.08 84.95H183.9v53.46h69.17V84.95zm-66.1-4.18c0 .92-.69 1.67-1.53 1.67s-1.54-.75-1.54-1.67c0-.92.69-1.67 1.53-1.67s1.54.75 1.54 1.67zm5.38 0c0 .92-.69 1.67-1.54 1.67s-1.53-.75-1.53-1.67c0-.92.69-1.67 1.53-1.67s1.54.75 1.54 1.67zm3.84 1.67c.85 0 1.54-.75 1.54-1.67 0-.92-.69-1.67-1.53-1.67s-1.54.75-1.54 1.67c0 .92.69 1.67 1.54 1.67z" fill="#F7FAFB"/>
    <path opacity=".5" d="M249.24 89.96h-61.49v20.05h61.49V89.96zM189 114.2a1.25 1.25 0 0 0 0 2.5h58.98a1.25 1.25 0 0 0 0-2.5H189zm0 5.01a1.25 1.25 0 0 0 0 2.5h58.98a1.25 1.25 0 0 0 0-2.5H189zm6.97 6.68h-7.22a1 1 0 0 0-1 1v8.03a1 1 0 0 0 1 1h7.22a1 1 0 0 0 1-1v-8.03a1 1 0 0 0-1-1zm52.27 0H241a1 1 0 0 0-1 1v8.03a1 1 0 0 0 1 1h7.23a1 1 0 0 0 1-1v-8.03a1 1 0 0 0-1-1zm-13.07 0h-7.22a1 1 0 0 0-1 1v8.03a1 1 0 0 0 1 1h7.22a1 1 0 0 0 1-1v-8.03a1 1 0 0 0-1-1zm-13.06 0h-7.23a1 1 0 0 0-1 1v8.03a1 1 0 0 0 1 1h7.22a1 1 0 0 0 1-1v-8.03a1 1 0 0 0-1-1zm-13.07 0h-7.22a1 1 0 0 0-1 1v8.03a1 1 0 0 0 1 1h7.22a1 1 0 0 0 1-1v-8.03a1 1 0 0 0-1-1z" fill="#D2DCE3"/>
  </g>
  <g opacity=".6">
    <path opacity=".6" d="M160.6 76.86H45.82a3 3 0 0 0-3 3v142.22a3 3 0 0 0 3 3H160.6a3 3 0 0 0 3-3V79.86a3 3 0 0 0-3-3z" fill="#D2DCE3"/>
    <path opacity=".6" d="M160.6 76.86H45.82a3 3 0 0 0-3 3v142.22a3 3 0 0 0 3 3H160.6a3 3 0 0 0 3-3V79.86a3 3 0 0 0-3-3z" stroke="#8194A1"/>
  </g>
  <g opacity=".95">
    <path opacity=".95" d="M74.66 95.23a3 3 0 0 1 3-3h114.78a3 3 0 0 1 3 3v147.71a3 3 0 0 1-3 3h-86.08a3 3 0 0 1-2.15-.91L75.5 215.4a3 3 0 0 1-.85-2.1V95.24z" fill="#FDFDFD"/>
    <path opacity=".95" d="M74.66 95.23a3 3 0 0 1 3-3h114.78a3 3 0 0 1 3 3v147.71a3 3 0 0 1-3 3h-86.08a3 3 0 0 1-2.15-.91L75.5 215.4a3 3 0 0 1-.85-2.1V95.24z" stroke="#8194A1"/>
    <path opacity=".95" d="M74.66 215h27.43a3 3 0 0 1 3 3v27.94l-15.21-15.46L74.66 215z" fill="#C4C4C4"/>
    <path opacity=".95" d="M74.66 215h27.43a3 3 0 0 1 3 3v27.94l-15.21-15.46L74.66 215z" stroke="#8194A1"/>
  </g>
  <path d="M90.84 113.09a3 3 0 0 0-3 3v21.45a3 3 0 0 0 3 3h86.23a3 3 0 0 0 3-3v-21.45a3 3 0 0 0-3-3H90.84zm-1.1 32.94a3 3 0 0 0-3 3v15.96a3 3 0 0 0 3 3h24.74a3 3 0 0 0 3-3v-15.96a3 3 0 0 0-3-3H89.74zm-3 28.35a2 2 0 0 1 2-2h55.29a2 2 0 0 1 2 2v4.78a2 2 0 0 1-2 2h-55.3a2 2 0 0 1-2-2v-4.78zm2 14.47a2 2 0 0 0-2 2v4.78a2 2 0 0 0 2 2h28.94a2 2 0 0 0 2-2v-4.78a2 2 0 0 0-2-2H88.74z" fill="#D2DCE3"/>
  <path fill-rule="evenodd" clip-rule="evenodd" d="M190.4 158.74a4 4 0 0 0-4 4v11.92a28.23 28.23 0 0 0-4.22 1.96l-9.66-9.8a4 4 0 0 0-5.66-.05l-3.5 3.44a4 4 0 0 0-.03 5.65l9.39 9.54a28.28 28.28 0 0 0-2.76 5.17h-12.25a4 4 0 0 0-4 4v4.9a4 4 0 0 0 4 4h10.26a28.2 28.2 0 0 0 1.5 7.17l-5.94 5.97a4 4 0 0 0 .01 5.66l3.48 3.46a4 4 0 0 0 5.65-.01l3.97-3.99a28.36 28.36 0 0 0 9.76 6.1v4.33a4 4 0 0 0 4 4h4.9a4 4 0 0 0 4-4v-2.75a28.17 28.17 0 0 0 12.4-4.43l.34.35a4 4 0 0 0 5.65.04l3.5-3.44a4 4 0 0 0 .04-5.66l-.61-.62a28.16 28.16 0 0 0 3.84-12.17h2.67a4 4 0 0 0 4-4v-4.9a4 4 0 0 0-4-4h-4.66a28.38 28.38 0 0 0-5.84-8.99l5.04-5.05a4 4 0 0 0-.01-5.66l-3.48-3.46a4 4 0 0 0-5.66 0l-7.01 7.05a28.2 28.2 0 0 0-6.2-1.4v-10.33a4 4 0 0 0-4-4h-4.9zm5.81 56.67a14.17 14.17 0 1 0 0-28.33 14.17 14.17 0 0 0 0 28.33z" fill="#4E5A71"/>
  <path d="M182.41 131.47a3.22 3.22 0 0 1 0 4.55l-6.32 6.33-12.11-12.1 6.33-6.33a3.21 3.21 0 0 1 4.55 0l7.55 7.55z" fill="#4E5A71"/>
  <path fill-rule="evenodd" clip-rule="evenodd" d="m160.75 133.47-32.29 32.3v12.1h12.1l32.3-32.29-12.11-12.1zm-22.86 37.94h-2.97v-2.97l25.83-25.83 2.97 2.97-25.83 25.83z" fill="#4E5A71"/>
</svg>