<svg width="268" height="254" fill="none" xmlns="http://www.w3.org/2000/svg"><g filter="url(#filter0_i)"><g filter="url(#filter1_i)"><path d="M37.851 66.136a2.197 2.197 0 100-4.394 2.197 2.197 0 000 4.394z" fill="#00639A"/></g><g filter="url(#filter2_i)"><path d="M35.654 70.53a2.197 2.197 0 100-4.395 2.197 2.197 0 000 4.394z" fill="#00639A"/></g><g filter="url(#filter3_i)"><path d="M31.26 85.041a2.197 2.197 0 100-4.394 2.197 2.197 0 000 4.394z" fill="#00639A"/></g><g filter="url(#filter4_i)"><path d="M30.15 89.2a2.197 2.197 0 100-4.394 2.197 2.197 0 000 4.394z" fill="#00639A"/></g><g filter="url(#filter5_i)"><path d="M41.147 62.84a2.197 2.197 0 100-4.393 2.197 2.197 0 000 4.393z" fill="#00639A"/></g><g filter="url(#filter6_i)"><path d="M54.864 119.95a2.746 2.746 0 100-5.491 2.746 2.746 0 000 5.491z" fill="#00639A"/></g><g filter="url(#filter7_i)"><path d="M30.15 93.594a2.197 2.197 0 100-4.394 2.197 2.197 0 000 4.394z" fill="#00639A"/></g><g filter="url(#filter8_i)"><path d="M30.15 97.987a2.197 2.197 0 100-4.393 2.197 2.197 0 000 4.393z" fill="#00639A"/></g><g filter="url(#filter9_i)"><path d="M36.74 111.168a2.197 2.197 0 100-4.394 2.197 2.197 0 000 4.394z" fill="#00639A"/></g><g filter="url(#filter10_i)"><path d="M40.036 114.458a2.197 2.197 0 10-.001-4.394 2.197 2.197 0 000 4.394z" fill="#00639A"/></g><g filter="url(#filter11_i)"><path d="M44.43 116.655a2.197 2.197 0 10-.001-4.394 2.197 2.197 0 000 4.394z" fill="#00639A"/></g><g filter="url(#filter12_i)"><path d="M33.445 106.775a2.197 2.197 0 100-4.394 2.197 2.197 0 000 4.394z" fill="#00639A"/></g><g filter="url(#filter13_i)"><path d="M31.248 102.381a2.197 2.197 0 100-4.394 2.197 2.197 0 000 4.394z" fill="#00639A"/></g><g filter="url(#filter14_i)"><path d="M49.921 118.852a2.197 2.197 0 100-4.394 2.197 2.197 0 000 4.394z" fill="#00639A"/></g><path d="M60.906 119.95a3.295 3.295 0 100-6.59 3.295 3.295 0 000 6.59zM68.046 116.655a3.844 3.844 0 100-7.689 3.844 3.844 0 000 7.689zM74.087 111.163a4.394 4.394 0 100-8.787 4.394 4.394 0 000 8.787zM77.392 102.619a4.394 4.394 0 100-8.787 4.394 4.394 0 000 8.787zM79.579 78.76a4.943 4.943 0 11-9.886 0 4.943 4.943 0 019.886 0z" fill="#00639A"/><path d="M77.931 93.588a4.943 4.943 0 100-9.885 4.943 4.943 0 000 9.885zM66.398 76.014a5.492 5.492 0 100-10.985 5.492 5.492 0 000 10.985zM54.327 74.058a5.492 5.492 0 100-10.984 5.492 5.492 0 000 10.984z" fill="#00639A"/><path d="M30.161 81.746a6.59 6.59 0 100-13.181 6.59 6.59 0 000 13.18z" fill="#014371"/><g filter="url(#filter15_i)"><path d="M18.627 92.497a7.14 7.14 0 100-14.28 7.14 7.14 0 000 14.28z" fill="#00639A"/></g><path d="M10.388 106.776a7.69 7.69 0 100-15.379 7.69 7.69 0 000 15.379z" fill="#014371"/><g filter="url(#filter16_i)"><path d="M8.19 122.153a7.69 7.69 0 100-15.379 7.69 7.69 0 000 15.379z" fill="#00639A"/></g><g filter="url(#filter17_i)"><path d="M9.288 138.629a7.69 7.69 0 100-15.377 7.69 7.69 0 000 15.377z" fill="#014371"/></g><g filter="url(#filter18_i)"><path d="M16.969 152.903a7.689 7.689 0 100-15.378 7.69 7.69 0 000 15.378z" fill="#00639A"/></g><path d="M31.249 162.789a8.787 8.787 0 100-17.574 8.787 8.787 0 100 17.574z" fill="#014371"/><path d="M49.922 166.085c5.46 0 9.886-4.426 9.886-9.886 0-5.46-4.426-9.886-9.886-9.886-5.46 0-9.886 4.426-9.886 9.886 0 5.46 4.426 9.886 9.886 9.886z" fill="#00639A"/><path d="M71.89 163.888c6.067 0 10.985-4.918 10.985-10.984S77.957 141.92 71.89 141.92c-6.067 0-10.985 4.918-10.985 10.984s4.918 10.984 10.985 10.984z" fill="#014371"/><path d="M92.76 156.199c6.067 0 10.985-4.918 10.985-10.984s-4.918-10.984-10.984-10.984c-6.067 0-10.985 4.918-10.985 10.984s4.918 10.984 10.985 10.984z" fill="#00639A"/><path d="M112.532 146.313c6.066 0 10.984-4.918 10.984-10.984s-4.918-10.984-10.984-10.984-10.984 4.918-10.984 10.984 4.918 10.984 10.984 10.984z" fill="#014371"/><path d="M133.952 136.427c7.583 0 13.73-6.147 13.73-13.73s-6.147-13.73-13.73-13.73-13.73 6.147-13.73 13.73 6.147 13.73 13.73 13.73z" fill="#00639A"/><path d="M159.226 123.494c8.19 0 14.829-6.639 14.829-14.829 0-8.19-6.639-14.829-14.829-14.829-8.19 0-14.829 6.639-14.829 14.829 0 8.19 6.639 14.829 14.829 14.829z" fill="#014371"/><path d="M188.334 112.509c8.493 0 15.378-6.885 15.378-15.377 0-8.494-6.885-15.378-15.378-15.378s-15.378 6.884-15.378 15.377 6.885 15.378 15.378 15.378z" fill="#00639A"/><path d="M220.188 118.001c9.1 0 16.476-7.376 16.476-16.476 0-9.1-7.376-16.476-16.476-16.476-9.1 0-16.476 7.376-16.476 16.476 0 9.1 7.376 16.476 16.476 16.476z" fill="#014371"/><path d="M244.354 144.364c9.706 0 17.575-7.869 17.575-17.575s-7.869-17.575-17.575-17.575-17.575 7.869-17.575 17.575 7.869 17.575 17.575 17.575z" fill="#00639A"/><path d="M247.649 181.71c10.313 0 18.673-8.36 18.673-18.673 0-10.313-8.36-18.673-18.673-18.673-10.313 0-18.673 8.36-18.673 18.673 0 10.313 8.36 18.673 18.673 18.673z" fill="#014371"/><path d="M231.173 217.959c10.92 0 19.772-8.852 19.772-19.772 0-10.92-8.852-19.772-19.772-19.772-10.92 0-19.772 8.852-19.772 19.772 0 10.92 8.852 19.772 19.772 19.772z" fill="#00639A"/><path d="M194.915 239.685c11.526 0 20.87-9.344 20.87-20.87 0-11.526-9.344-20.87-20.87-20.87-11.526 0-20.87 9.344-20.87 20.87 0 11.526 9.344 20.87 20.87 20.87z" fill="#014371"/><path d="M150.977 249.812c12.133 0 21.968-9.835 21.968-21.968s-9.835-21.968-21.968-21.968-21.969 9.835-21.969 21.968 9.836 21.968 21.969 21.968z" fill="#00639A"/><path d="M104.843 253.106c12.739 0 23.067-10.328 23.067-23.067s-10.328-23.067-23.067-23.067c-12.74 0-23.067 10.328-23.067 23.067s10.328 23.067 23.067 23.067z" fill="#014371"/><g filter="url(#filter19_i)"><path d="M62.005 230.898c13.347 0 24.166-10.819 24.166-24.165 0-13.346-10.82-24.165-24.166-24.165S37.84 193.387 37.84 206.733c0 13.346 10.82 24.165 24.165 24.165z" fill="#00639A"/></g><path d="M42.244 75.156a5.492 5.492 0 100-10.984 5.492 5.492 0 000 10.984z" fill="#014371"/></g><g filter="url(#filter20_i)"><path fill-rule="evenodd" clip-rule="evenodd" d="M90.874 84.907c-1.625-2.019-2.61-4.94-2.815-8.813-.16-3.037.26-6.397 2.872-9.603 1.381-1.696 3.318-3.276 5.962-4.742-2.23-3.19-5.338-6.81-9.347-9.661-4.521-3.216-10.168-5.444-17.056-5.01-6.906.434-15.288 3.558-25.23 11.476a2 2 0 11-2.49-3.13c10.385-8.27 19.526-11.84 27.47-12.339 7.97-.5 14.505 2.102 19.624 5.743 4.722 3.359 8.255 7.608 10.677 11.164a56.992 56.992 0 014.587-1.69c2.303-.744 4.712-1.195 7.106-1.157 1.997-2.12 4.726-3.818 7.936-5.222 4.284-1.874 8.827-2.802 12.944-2.633 2.435-3.113 5.641-5.747 8.894-7.338 3.131-1.532 6.29-2.07 9.344-1.64.082-.194.17-.386.262-.574 1.51-3.07 4.257-5.114 8.324-6.001 2.178-.475 4.264-.531 6.224-.22.872-1.2 2.03-2.293 3.501-3.267 1.955-1.295 4.465-2.718 6.986-3.473 1.894-.568 4.112-.848 6.115-.088.308-.346.671-.74 1.073-1.152 1.23-1.259 3.032-2.896 4.905-3.732 2.704-1.206 5.343-1.204 7.738-.413 1.085-1.38 2.518-2.7 4.409-3.831 2.841-1.699 6.029-2.743 9.309-2.38 1.143-2.04 2.653-3.723 4.441-4.946 2.652-1.815 5.856-2.553 9.146-1.883 1.404.286 2.793.821 4.14 1.607 1.527-1.885 3.482-3.562 5.741-4.726 2.899-1.492 6.334-2.151 9.946-1.243.777.195 1.552.46 2.322.798 3.285-3.094 7.674-4.154 11.337-4.418 2.482-.179 4.768-.008 6.424.204a32.048 32.048 0 012.556.432l.156.035.014.004a2 2 0 11-.924 3.891 12.596 12.596 0 00-.567-.118 28.064 28.064 0 00-1.742-.276c-1.481-.19-3.488-.336-5.63-.182-2.864.207-5.742.925-7.996 2.607 1.539 1.187 3.042 2.704 4.49 4.578 3.212 4.158 4.771 7.863 5.009 11.048.244 3.247-.903 5.86-2.854 7.565-3.7 3.236-10.16 2.911-13.007-1.887-2.266-3.822-3.193-7.155-3.032-10.436.158-3.228 1.364-6.176 2.904-9.203.096-.188.194-.37.295-.55a10.215 10.215 0 00-.73-.213c-2.528-.635-4.967-.198-7.14.92-1.686.869-3.189 2.14-4.384 3.59a21.79 21.79 0 011.906 2.068c1.315 1.618 4.326 5.729 6.076 9.884.864 2.05 1.529 4.36 1.333 6.483-.102 1.097-.439 2.197-1.145 3.166-.711.975-1.709 1.696-2.937 2.165-2.013.767-3.946.656-5.631-.297-1.591-.9-2.742-2.427-3.585-4.085-1.681-3.31-2.519-7.913-2.804-12.189-.136-2.04.426-4.217 1.43-6.247a9.539 9.539 0 00-2.769-1.056c-2.177-.443-4.285.03-6.09 1.265-1.007.69-1.938 1.636-2.721 2.814 3.398 1.666 6.447 5.024 9.064 10.262 3.197 6.4 1.476 12.808-3.049 14.757-2.314.997-4.948.547-7.126-1.363-2.11-1.848-3.753-4.997-4.687-9.466-.877-4.196-.731-8.092.206-11.423-1.815.065-3.706.72-5.642 1.877a12.203 12.203 0 00-2.827 2.3c2.385 1.736 4.369 4.21 5.847 6.834 1.718 3.052 2.853 6.485 3.105 9.557.242 2.948-.302 6.206-2.789 8.001-1.006.726-2.143 1.08-3.335.95-1.146-.125-2.116-.674-2.893-1.322-1.509-1.262-2.72-3.271-3.649-5.216-.956-2-1.726-4.176-2.264-5.994-.517-1.746-.885-3.38-.924-4.233-.062-1.372.023-4.038 1.192-6.9-1.303-.262-2.648-.13-4.033.487-1.138.508-2.496 1.67-3.674 2.875-.246.251-.475.496-.684.725 1.788 1.782 4.166 4.595 6.123 7.662 1.311 2.053 2.494 4.315 3.179 6.545.675 2.201.938 4.618.066 6.8-.727 1.82-1.796 3.3-3.303 4.059-1.597.805-3.285.601-4.726-.169-2.689-1.435-4.871-4.955-6.147-9.281a27.993 27.993 0 01-.926-11.359c.151-1.214.36-2.237.555-3.022-.771-.147-1.771-.065-3.038.315-1.974.592-4.105 1.771-5.925 2.976-.595.395-1.106.801-1.542 1.22 3.254 1.54 5.986 4.204 7.977 7.657 1.454 2.52 3.338 5.824 4.13 8.907.4 1.557.577 3.254.138 4.862-.463 1.693-1.558 3.095-3.312 4.041-1.82.982-3.66 1.028-5.336.333-1.571-.652-2.847-1.89-3.862-3.211-2.032-2.643-3.519-6.285-4.44-8.986-1.146-3.36-1.903-6.73-1.467-9.867.057-.405.132-.802.228-1.192a13.166 13.166 0 00-3.595.297c-3.038.662-4.652 2.018-5.543 3.77 2.221.958 4.278 2.44 6.132 4.345 2.497 2.565 5.207 6.107 6.532 9.647.666 1.777 1.04 3.707.72 5.578-.333 1.947-1.391 3.662-3.259 4.926-2.062 1.396-4.241 1.547-6.232.667-1.84-.813-3.33-2.42-4.489-4.169-2.33-3.517-3.88-8.464-4.272-12.364-.203-2.016-.248-3.983-.027-5.825-2.069-.203-4.274.193-6.588 1.325-2.086 1.02-4.192 2.594-5.996 4.476 2.59.751 4.891 2.095 6.566 4.151 2.182 2.68 4.038 5.896 4.686 9.121.666 3.31.059 6.767-2.892 9.361-1.516 1.333-3.196 2.032-4.954 2.074-1.728.041-3.324-.557-4.708-1.445-2.718-1.745-4.968-4.83-6.488-7.888-1.971-3.966-1.279-8.299.574-12.063-2.805.21-5.831.966-8.78 2.256-1.761.77-3.25 1.59-4.479 2.46 3.483 1.262 6.526 3.885 8.823 8.144 1.564 2.898 2.013 6.046 1.353 8.775-.665 2.753-2.487 5.107-5.362 6.07-2.777.932-5.423.425-7.625-1.393-2.083-1.72-3.653-4.507-4.811-7.97-1.281-3.833-1.349-7.289-.147-10.335a20.772 20.772 0 00-3.166.77 54.794 54.794 0 00-3.665 1.321c.45.784.824 1.484 1.124 2.07a36.941 36.941 0 01.861 1.796l.047.109.013.031.004.01.001.003c.001.002.001.003-1.844.773h.003c1.846-.761 1.846-.76 1.847-.76l.001.003.003.007.009.024.019.045.013.034a32.42 32.42 0 01.477 1.307c.294.86.668 2.067.994 3.453.63 2.686 1.159 6.385.24 9.54-.556 1.911-1.999 3.495-3.656 4.55-1.677 1.069-3.783 1.736-5.93 1.616-2.197-.122-4.388-1.073-6.046-3.133zm10.176-15.924l-.002-.006-.034-.077c-.031-.07-.079-.18-.146-.324a33.075 33.075 0 00-.611-1.254 45.542 45.542 0 00-1.203-2.196c-2.412 1.307-3.99 2.625-5.022 3.891-1.765 2.168-2.108 4.41-1.978 6.866.176 3.347 1.005 5.36 1.936 6.517.898 1.115 2.004 1.583 3.152 1.647 1.199.067 2.487-.312 3.559-.995 1.092-.696 1.754-1.57 1.965-2.295.616-2.118.302-4.966-.295-7.508a32.901 32.901 0 00-1.206-3.97 8.932 8.932 0 00-.089-.23l-.021-.054-.001-.002-.004-.01zm12.971-7.673c-.077.12-.152.241-.223.362-1.287 2.21-1.585 4.987-.332 8.733 1.05 3.142 2.309 5.118 3.564 6.154 1.135.938 2.337 1.179 3.807.686 1.372-.46 2.351-1.587 2.745-3.218.401-1.656.169-3.797-.985-5.936-2.032-3.766-4.564-5.666-7.217-6.465a11.036 11.036 0 00-1.359-.316zm21.017-7.813c-.054.085-.106.17-.158.255-2.131 3.515-2.726 7.032-1.319 9.862 1.357 2.73 3.199 5.104 5.067 6.303.909.584 1.729.83 2.452.812.692-.016 1.496-.277 2.408-1.079 1.623-1.426 2.069-3.293 1.611-5.568-.474-2.361-1.917-4.992-3.865-7.383-1.337-1.641-3.467-2.75-6.196-3.202zm19.222-8.133c-.097 1.262-.06 2.687.1 4.28.337 3.358 1.708 7.66 3.627 10.556.966 1.458 1.932 2.348 2.771 2.72.69.304 1.415.327 2.373-.321.984-.666 1.413-1.438 1.558-2.288.158-.926.001-2.104-.523-3.502-1.052-2.812-3.346-5.89-5.652-8.259-1.364-1.4-2.791-2.46-4.254-3.186zm14.019-7.096a7.8 7.8 0 00-.159.822c-.304 2.19.202 4.832 1.291 8.026.888 2.604 2.207 5.734 3.825 7.839.809 1.053 1.568 1.682 2.225 1.954.552.23 1.131.258 1.903-.159.837-.451 1.192-.986 1.352-1.574.184-.673.158-1.6-.153-2.813-.632-2.458-2.209-5.282-3.721-7.903-1.694-2.939-3.938-5.06-6.563-6.192zm16.068-5.16a24.003 24.003 0 00.696 10.435c1.168 3.96 2.924 6.206 4.194 6.884.539.288.835.23 1.042.125.298-.15.854-.633 1.389-1.971.39-.976.372-2.354-.176-4.143-.54-1.76-1.524-3.682-2.727-5.566a44.6 44.6 0 00-4.418-5.765zm13.668-6.39a12.483 12.483 0 00-.806 4.973c.014.313.245 1.527.763 3.277.497 1.678 1.197 3.646 2.038 5.406.867 1.814 1.778 3.178 2.606 3.87.393.329.645.403.762.416.07.008.236.016.559-.217.737-.532 1.351-1.907 1.144-4.431-.197-2.402-1.119-5.282-2.605-7.921-1.226-2.178-2.768-4.07-4.461-5.373zm14.482-6.735c-.804 2.682-.991 5.974-.204 9.74.836 4 2.193 6.21 3.408 7.275 1.145 1.004 2.159 1.02 2.907.697 1.602-.69 3.668-4.063 1.054-9.295-2.367-4.738-4.849-7.248-7.165-8.417zm16.483-4.082c-.509 1.254-.728 2.433-.663 3.407.272 4.075 1.059 8.045 2.379 10.643.659 1.296 1.352 2.056 1.989 2.416.542.307 1.218.428 2.236.04.608-.232.936-.519 1.13-.784.198-.273.344-.645.394-1.178.105-1.136-.256-2.71-1.036-4.562-1.538-3.651-4.283-7.424-5.494-8.913-.31-.382-.622-.737-.935-1.068zm17.917-5.935c-.09.156-.176.316-.26.48-1.474 2.896-2.358 5.226-2.474 7.585-.113 2.305.501 4.866 2.478 8.199 1.397 2.356 4.851 2.738 6.934.917.941-.823 1.653-2.179 1.498-4.255-.161-2.139-1.259-5.112-4.187-8.902-1.344-1.74-2.683-3.053-3.989-4.024z" fill="#92D5F9"/></g><defs><filter id="filter0_i" x=".501" y="58.447" width="265.821" height="200.659" filterUnits="userSpaceOnUse" color-interpolation-filters="sRGB"><feFlood flood-opacity="0" result="BackgroundImageFix"/><feBlend in="SourceGraphic" in2="BackgroundImageFix" result="shape"/><feColorMatrix in="SourceAlpha" values="0 0 0 0 0 0 0 0 0 0 0 0 0 0 0 0 0 0 127 0" result="hardAlpha"/><feOffset dy="8"/><feGaussianBlur stdDeviation="3"/><feComposite in2="hardAlpha" operator="arithmetic" k2="-1" k3="1"/><feColorMatrix values="0 0 0 0 0 0 0 0 0 0 0 0 0 0 0 0 0 0 0.2 0"/><feBlend in2="shape" result="effect1_innerShadow"/></filter><filter id="filter1_i" x="35.654" y="61.742" width="4.394" height="10.394" filterUnits="userSpaceOnUse" color-interpolation-filters="sRGB"><feFlood flood-opacity="0" result="BackgroundImageFix"/><feBlend in="SourceGraphic" in2="BackgroundImageFix" result="shape"/><feColorMatrix in="SourceAlpha" values="0 0 0 0 0 0 0 0 0 0 0 0 0 0 0 0 0 0 127 0" result="hardAlpha"/><feOffset dy="8"/><feGaussianBlur stdDeviation="3"/><feComposite in2="hardAlpha" operator="arithmetic" k2="-1" k3="1"/><feColorMatrix values="0 0 0 0 0 0 0 0 0 0 0 0 0 0 0 0 0 0 0.1 0"/><feBlend in2="shape" result="effect1_innerShadow"/></filter><filter id="filter2_i" x="33.457" y="66.136" width="4.394" height="10.394" filterUnits="userSpaceOnUse" color-interpolation-filters="sRGB"><feFlood flood-opacity="0" result="BackgroundImageFix"/><feBlend in="SourceGraphic" in2="BackgroundImageFix" result="shape"/><feColorMatrix in="SourceAlpha" values="0 0 0 0 0 0 0 0 0 0 0 0 0 0 0 0 0 0 127 0" result="hardAlpha"/><feOffset dy="8"/><feGaussianBlur stdDeviation="3"/><feComposite in2="hardAlpha" operator="arithmetic" k2="-1" k3="1"/><feColorMatrix values="0 0 0 0 0 0 0 0 0 0 0 0 0 0 0 0 0 0 0.1 0"/><feBlend in2="shape" result="effect1_innerShadow"/></filter><filter id="filter3_i" x="29.062" y="80.647" width="4.394" height="10.394" filterUnits="userSpaceOnUse" color-interpolation-filters="sRGB"><feFlood flood-opacity="0" result="BackgroundImageFix"/><feBlend in="SourceGraphic" in2="BackgroundImageFix" result="shape"/><feColorMatrix in="SourceAlpha" values="0 0 0 0 0 0 0 0 0 0 0 0 0 0 0 0 0 0 127 0" result="hardAlpha"/><feOffset dy="8"/><feGaussianBlur stdDeviation="3"/><feComposite in2="hardAlpha" operator="arithmetic" k2="-1" k3="1"/><feColorMatrix values="0 0 0 0 0 0 0 0 0 0 0 0 0 0 0 0 0 0 0.2 0"/><feBlend in2="shape" result="effect1_innerShadow"/></filter><filter id="filter4_i" x="27.953" y="84.806" width="4.394" height="10.394" filterUnits="userSpaceOnUse" color-interpolation-filters="sRGB"><feFlood flood-opacity="0" result="BackgroundImageFix"/><feBlend in="SourceGraphic" in2="BackgroundImageFix" result="shape"/><feColorMatrix in="SourceAlpha" values="0 0 0 0 0 0 0 0 0 0 0 0 0 0 0 0 0 0 127 0" result="hardAlpha"/><feOffset dy="8"/><feGaussianBlur stdDeviation="3"/><feComposite in2="hardAlpha" operator="arithmetic" k2="-1" k3="1"/><feColorMatrix values="0 0 0 0 0 0 0 0 0 0 0 0 0 0 0 0 0 0 0.1 0"/><feBlend in2="shape" result="effect1_innerShadow"/></filter><filter id="filter5_i" x="38.95" y="58.447" width="4.394" height="10.394" filterUnits="userSpaceOnUse" color-interpolation-filters="sRGB"><feFlood flood-opacity="0" result="BackgroundImageFix"/><feBlend in="SourceGraphic" in2="BackgroundImageFix" result="shape"/><feColorMatrix in="SourceAlpha" values="0 0 0 0 0 0 0 0 0 0 0 0 0 0 0 0 0 0 127 0" result="hardAlpha"/><feOffset dy="8"/><feGaussianBlur stdDeviation="3"/><feComposite in2="hardAlpha" operator="arithmetic" k2="-1" k3="1"/><feColorMatrix values="0 0 0 0 0 0 0 0 0 0 0 0 0 0 0 0 0 0 0.1 0"/><feBlend in2="shape" result="effect1_innerShadow"/></filter><filter id="filter6_i" x="52.118" y="114.458" width="5.492" height="9.492" filterUnits="userSpaceOnUse" color-interpolation-filters="sRGB"><feFlood flood-opacity="0" result="BackgroundImageFix"/><feBlend in="SourceGraphic" in2="BackgroundImageFix" result="shape"/><feColorMatrix in="SourceAlpha" values="0 0 0 0 0 0 0 0 0 0 0 0 0 0 0 0 0 0 127 0" result="hardAlpha"/><feOffset dy="4"/><feGaussianBlur stdDeviation="2"/><feComposite in2="hardAlpha" operator="arithmetic" k2="-1" k3="1"/><feColorMatrix values="0 0 0 0 0 0 0 0 0 0 0 0 0 0 0 0 0 0 0.2 0"/><feBlend in2="shape" result="effect1_innerShadow"/></filter><filter id="filter7_i" x="27.953" y="89.2" width="4.394" height="10.394" filterUnits="userSpaceOnUse" color-interpolation-filters="sRGB"><feFlood flood-opacity="0" result="BackgroundImageFix"/><feBlend in="SourceGraphic" in2="BackgroundImageFix" result="shape"/><feColorMatrix in="SourceAlpha" values="0 0 0 0 0 0 0 0 0 0 0 0 0 0 0 0 0 0 127 0" result="hardAlpha"/><feOffset dy="8"/><feGaussianBlur stdDeviation="3"/><feComposite in2="hardAlpha" operator="arithmetic" k2="-1" k3="1"/><feColorMatrix values="0 0 0 0 0 0 0 0 0 0 0 0 0 0 0 0 0 0 0.2 0"/><feBlend in2="shape" result="effect1_innerShadow"/></filter><filter id="filter8_i" x="27.953" y="93.594" width="4.394" height="10.394" filterUnits="userSpaceOnUse" color-interpolation-filters="sRGB"><feFlood flood-opacity="0" result="BackgroundImageFix"/><feBlend in="SourceGraphic" in2="BackgroundImageFix" result="shape"/><feColorMatrix in="SourceAlpha" values="0 0 0 0 0 0 0 0 0 0 0 0 0 0 0 0 0 0 127 0" result="hardAlpha"/><feOffset dy="8"/><feGaussianBlur stdDeviation="3"/><feComposite in2="hardAlpha" operator="arithmetic" k2="-1" k3="1"/><feColorMatrix values="0 0 0 0 0 0 0 0 0 0 0 0 0 0 0 0 0 0 0.1 0"/><feBlend in2="shape" result="effect1_innerShadow"/></filter><filter id="filter9_i" x="34.544" y="106.774" width="4.394" height="10.394" filterUnits="userSpaceOnUse" color-interpolation-filters="sRGB"><feFlood flood-opacity="0" result="BackgroundImageFix"/><feBlend in="SourceGraphic" in2="BackgroundImageFix" result="shape"/><feColorMatrix in="SourceAlpha" values="0 0 0 0 0 0 0 0 0 0 0 0 0 0 0 0 0 0 127 0" result="hardAlpha"/><feOffset dy="8"/><feGaussianBlur stdDeviation="3"/><feComposite in2="hardAlpha" operator="arithmetic" k2="-1" k3="1"/><feColorMatrix values="0 0 0 0 0 0 0 0 0 0 0 0 0 0 0 0 0 0 0.2 0"/><feBlend in2="shape" result="effect1_innerShadow"/></filter><filter id="filter10_i" x="37.839" y="110.064" width="4.394" height="10.394" filterUnits="userSpaceOnUse" color-interpolation-filters="sRGB"><feFlood flood-opacity="0" result="BackgroundImageFix"/><feBlend in="SourceGraphic" in2="BackgroundImageFix" result="shape"/><feColorMatrix in="SourceAlpha" values="0 0 0 0 0 0 0 0 0 0 0 0 0 0 0 0 0 0 127 0" result="hardAlpha"/><feOffset dy="8"/><feGaussianBlur stdDeviation="3"/><feComposite in2="hardAlpha" operator="arithmetic" k2="-1" k3="1"/><feColorMatrix values="0 0 0 0 0 0 0 0 0 0 0 0 0 0 0 0 0 0 0.1 0"/><feBlend in2="shape" result="effect1_innerShadow"/></filter><filter id="filter11_i" x="42.233" y="112.261" width="4.394" height="10.394" filterUnits="userSpaceOnUse" color-interpolation-filters="sRGB"><feFlood flood-opacity="0" result="BackgroundImageFix"/><feBlend in="SourceGraphic" in2="BackgroundImageFix" result="shape"/><feColorMatrix in="SourceAlpha" values="0 0 0 0 0 0 0 0 0 0 0 0 0 0 0 0 0 0 127 0" result="hardAlpha"/><feOffset dy="8"/><feGaussianBlur stdDeviation="3"/><feComposite in2="hardAlpha" operator="arithmetic" k2="-1" k3="1"/><feColorMatrix values="0 0 0 0 0 0 0 0 0 0 0 0 0 0 0 0 0 0 0.2 0"/><feBlend in2="shape" result="effect1_innerShadow"/></filter><filter id="filter12_i" x="31.248" y="102.381" width="4.394" height="10.394" filterUnits="userSpaceOnUse" color-interpolation-filters="sRGB"><feFlood flood-opacity="0" result="BackgroundImageFix"/><feBlend in="SourceGraphic" in2="BackgroundImageFix" result="shape"/><feColorMatrix in="SourceAlpha" values="0 0 0 0 0 0 0 0 0 0 0 0 0 0 0 0 0 0 127 0" result="hardAlpha"/><feOffset dy="8"/><feGaussianBlur stdDeviation="3"/><feComposite in2="hardAlpha" operator="arithmetic" k2="-1" k3="1"/><feColorMatrix values="0 0 0 0 0 0 0 0 0 0 0 0 0 0 0 0 0 0 0.1 0"/><feBlend in2="shape" result="effect1_innerShadow"/></filter><filter id="filter13_i" x="29.051" y="97.987" width="4.394" height="10.394" filterUnits="userSpaceOnUse" color-interpolation-filters="sRGB"><feFlood flood-opacity="0" result="BackgroundImageFix"/><feBlend in="SourceGraphic" in2="BackgroundImageFix" result="shape"/><feColorMatrix in="SourceAlpha" values="0 0 0 0 0 0 0 0 0 0 0 0 0 0 0 0 0 0 127 0" result="hardAlpha"/><feOffset dy="8"/><feGaussianBlur stdDeviation="3"/><feComposite in2="hardAlpha" operator="arithmetic" k2="-1" k3="1"/><feColorMatrix values="0 0 0 0 0 0 0 0 0 0 0 0 0 0 0 0 0 0 0.2 0"/><feBlend in2="shape" result="effect1_innerShadow"/></filter><filter id="filter14_i" x="47.724" y="114.458" width="4.394" height="10.394" filterUnits="userSpaceOnUse" color-interpolation-filters="sRGB"><feFlood flood-opacity="0" result="BackgroundImageFix"/><feBlend in="SourceGraphic" in2="BackgroundImageFix" result="shape"/><feColorMatrix in="SourceAlpha" values="0 0 0 0 0 0 0 0 0 0 0 0 0 0 0 0 0 0 127 0" result="hardAlpha"/><feOffset dy="8"/><feGaussianBlur stdDeviation="3"/><feComposite in2="hardAlpha" operator="arithmetic" k2="-1" k3="1"/><feColorMatrix values="0 0 0 0 0 0 0 0 0 0 0 0 0 0 0 0 0 0 0.1 0"/><feBlend in2="shape" result="effect1_innerShadow"/></filter><filter id="filter15_i" x="11.488" y="78.217" width="14.28" height="18.279" filterUnits="userSpaceOnUse" color-interpolation-filters="sRGB"><feFlood flood-opacity="0" result="BackgroundImageFix"/><feBlend in="SourceGraphic" in2="BackgroundImageFix" result="shape"/><feColorMatrix in="SourceAlpha" values="0 0 0 0 0 0 0 0 0 0 0 0 0 0 0 0 0 0 127 0" result="hardAlpha"/><feOffset dy="4"/><feGaussianBlur stdDeviation="2"/><feComposite in2="hardAlpha" operator="arithmetic" k2="-1" k3="1"/><feColorMatrix values="0 0 0 0 0 0 0 0 0 0 0 0 0 0 0 0 0 0 0.25 0"/><feBlend in2="shape" result="effect1_innerShadow"/></filter><filter id="filter16_i" x=".501" y="106.775" width="15.378" height="19.378" filterUnits="userSpaceOnUse" color-interpolation-filters="sRGB"><feFlood flood-opacity="0" result="BackgroundImageFix"/><feBlend in="SourceGraphic" in2="BackgroundImageFix" result="shape"/><feColorMatrix in="SourceAlpha" values="0 0 0 0 0 0 0 0 0 0 0 0 0 0 0 0 0 0 127 0" result="hardAlpha"/><feOffset dy="4"/><feGaussianBlur stdDeviation="2"/><feComposite in2="hardAlpha" operator="arithmetic" k2="-1" k3="1"/><feColorMatrix values="0 0 0 0 0 0 0 0 0 0 0 0 0 0 0 0 0 0 0.25 0"/><feBlend in2="shape" result="effect1_innerShadow"/></filter><filter id="filter17_i" x="1.599" y="123.251" width="15.378" height="19.378" filterUnits="userSpaceOnUse" color-interpolation-filters="sRGB"><feFlood flood-opacity="0" result="BackgroundImageFix"/><feBlend in="SourceGraphic" in2="BackgroundImageFix" result="shape"/><feColorMatrix in="SourceAlpha" values="0 0 0 0 0 0 0 0 0 0 0 0 0 0 0 0 0 0 127 0" result="hardAlpha"/><feOffset dy="4"/><feGaussianBlur stdDeviation="2"/><feComposite in2="hardAlpha" operator="arithmetic" k2="-1" k3="1"/><feColorMatrix values="0 0 0 0 0 0 0 0 0 0 0 0 0 0 0 0 0 0 0.25 0"/><feBlend in2="shape" result="effect1_innerShadow"/></filter><filter id="filter18_i" x="9.28" y="137.525" width="15.378" height="19.378" filterUnits="userSpaceOnUse" color-interpolation-filters="sRGB"><feFlood flood-opacity="0" result="BackgroundImageFix"/><feBlend in="SourceGraphic" in2="BackgroundImageFix" result="shape"/><feColorMatrix in="SourceAlpha" values="0 0 0 0 0 0 0 0 0 0 0 0 0 0 0 0 0 0 127 0" result="hardAlpha"/><feOffset dy="4"/><feGaussianBlur stdDeviation="2"/><feComposite in2="hardAlpha" operator="arithmetic" k2="-1" k3="1"/><feColorMatrix values="0 0 0 0 0 0 0 0 0 0 0 0 0 0 0 0 0 0 0.25 0"/><feBlend in2="shape" result="effect1_innerShadow"/></filter><filter id="filter19_i" x="37.84" y="182.568" width="48.331" height="54.331" filterUnits="userSpaceOnUse" color-interpolation-filters="sRGB"><feFlood flood-opacity="0" result="BackgroundImageFix"/><feBlend in="SourceGraphic" in2="BackgroundImageFix" result="shape"/><feColorMatrix in="SourceAlpha" values="0 0 0 0 0 0 0 0 0 0 0 0 0 0 0 0 0 0 127 0" result="hardAlpha"/><feOffset dy="6"/><feGaussianBlur stdDeviation="4"/><feComposite in2="hardAlpha" operator="arithmetic" k2="-1" k3="1"/><feColorMatrix values="0 0 0 0 0 0 0 0 0 0 0 0 0 0 0 0 0 0 0.25 0"/><feBlend in2="shape" result="effect1_innerShadow"/></filter><filter id="filter20_i" x="42" y=".295" width="226" height="89.76" filterUnits="userSpaceOnUse" color-interpolation-filters="sRGB"><feFlood flood-opacity="0" result="BackgroundImageFix"/><feBlend in="SourceGraphic" in2="BackgroundImageFix" result="shape"/><feColorMatrix in="SourceAlpha" values="0 0 0 0 0 0 0 0 0 0 0 0 0 0 0 0 0 0 127 0" result="hardAlpha"/><feOffset dy="2"/><feGaussianBlur stdDeviation="1"/><feComposite in2="hardAlpha" operator="arithmetic" k2="-1" k3="1"/><feColorMatrix values="0 0 0 0 0 0 0 0 0 0 0 0 0 0 0 0 0 0 0.25 0"/><feBlend in2="shape" result="effect1_innerShadow"/></filter></defs></svg>