<svg viewBox="0 0 640 293" xmlns="http://www.w3.org/2000/svg">
  <path d="M199.7 106.1a11.4 11.4 0 1 1-22.8 0 11.4 11.4 0 0 1 22.8 0ZM334.4 144.5c-9.2 0-16.6 7.4-16.6 16.5v33.2a11 11 0 1 1-22.1 0V161a38.7 38.7 0 0 1 38.7-38.6h6.9a11 11 0 1 1 0 22h-7ZM433.9 163.8a42.7 42.7 0 1 1-85.5 0 42.7 42.7 0 0 1 85.5 0ZM391 141.7a22.1 22.1 0 1 0 0 44.2 22.1 22.1 0 0 0 0-44.2ZM483.7 183.2h-4.2c-9.2 0-16.6-7.5-16.6-16.6v-22.2h19.3a11 11 0 1 0 0-22H463v-5.6a11 11 0 1 0-22.1 0V166.6a38.7 38.7 0 0 0 38.7 38.7h4.2a11 11 0 1 0 0-22.1ZM293 135a38.7 38.7 0 0 0-38.7-38.6h-31.8c-6.1 0-11.1 4.9-11.1 11v86.8a11 11 0 1 0 22.1 0v-75.7h20.8a16.6 16.6 0 1 1 0 33.1h1.4-4.2a11 11 0 1 0 0 22.1h4.2-1.4A38.7 38.7 0 0 0 293 135ZM462.6 26.3a9.4 9.4 0 1 1-18.7 0 9.4 9.4 0 0 1 18.7 0ZM430.5 54.7a7.5 7.5 0 1 1-15 0 7.5 7.5 0 0 1 15 0ZM505.6 11.7a11.7 11.7 0 1 1-23.5 0 11.7 11.7 0 0 1 23.5 0ZM555.1 16.3a14.6 14.6 0 1 1-29.3 0 14.6 14.6 0 0 1 29.3 0ZM602.1 42a18.3 18.3 0 1 1-36.6 0 18.3 18.3 0 0 1 36.6 0ZM635.4 90.3a21 21 0 1 1-42 0 21 21 0 0 1 42 0ZM639.4 153.6a24.2 24.2 0 1 1-48.4 0 24.2 24.2 0 0 1 48.4 0ZM612.8 215.9a28 28 0 1 1-56 0 28 28 0 0 1 56 0ZM551.8 259.2a31.3 31.3 0 1 1-62.7 0 31.3 31.3 0 0 1 62.7 0ZM472.1 257.4a35.1 35.1 0 1 1-70.2 0 35.1 35.1 0 0 1 70.2 0ZM165.8 159.7v34.5a11 11 0 1 1-22.1 0v-34.5 1.3a16.6 16.6 0 0 0-33.1 0v33.2a11 11 0 1 1-22.2 0V161a38.7 38.7 0 1 1 77.4 0v-1.3ZM0 168v-60.6a11 11 0 0 1 22.1 0V168v-1.4a16.6 16.6 0 0 0 33.1 0v-59.2a11 11 0 0 1 22.2 0v59.2a38.7 38.7 0 1 1-77.4 0v1.4ZM199.3 194.2a11 11 0 1 1-22 0v-60.7a11 11 0 1 1 22 0v60.7Z" fill="#006F9D"/>
  <path class="beta" d="M222.2 286v-49H238c2.5 0 4.9.2 7 .6 2.1.4 4 1.1 5.5 2 1.6 1 2.8 2.2 3.7 3.7.9 1.6 1.3 3.5 1.3 5.7 0 2.4-.6 4.6-1.8 6.6a9.3 9.3 0 0 1-5 4v.4c2.7.6 5 1.9 6.7 3.8 1.8 1.9 2.7 4.5 2.7 7.8 0 2.4-.5 4.6-1.4 6.4-1 1.8-2.3 3.3-4 4.5a17.5 17.5 0 0 1-6 2.7c-2.2.5-4.7.8-7.4.8h-17Zm8.7-28.8h6.3c3.4 0 5.9-.6 7.4-1.9 1.5-1.2 2.3-2.9 2.3-5 0-2.4-.8-4.1-2.4-5.1-1.6-1-4-1.5-7.2-1.5h-6.4v13.5Zm0 22h7.4a15 15 0 0 0 8.3-1.9c2-1.4 3-3.4 3-6.2 0-2.6-1-4.4-3-5.6a15.9 15.9 0 0 0-8.3-1.8h-7.4v15.6ZM264.3 286v-49h29.6v7.3H273v12.5h17.6v7.4H273v14.4h21.6v7.4h-30.3ZM311.9 286v-41.7h-14.2v-7.4h37v7.4h-14.1V286h-8.7ZM347.3 259.9l-1.7 6H358l-1.7-6a259.2 259.2 0 0 1-4.5-16.2h-.3l-2 8.3-2.3 7.9ZM330.9 286l16-49H357l16 49H364l-3.9-13.3h-16.5l-3.8 13.3H331Z" fill="#93BDD4"/>
</svg>