<svg viewBox="0 0 29 20" xmlns="http://www.w3.org/2000/svg">
  <g clip-path="url(#youtube-clip0)">
    <path d="M11.2 13.7v-8l7.6 4-7.6 4zM28 4.3s-.3-2-1.2-2.8C25.8.4 24.6.4 24 .3 20 0 14.1 0 14.1 0s-6 0-9.9.3c-.5 0-1.7 0-2.8 1.2C.6 2.4.3 4.3.3 4.3S0 6.6 0 9v2.2c0 2.3.3 4.6.3 4.6s.3 2 1.1 2.8c1 1.1 2.5 1.1 3.1 1.2 2.3.2 9.6.3 9.6.3s6 0 9.9-.3c.6 0 1.8 0 2.8-1.2.9-.9 1.2-2.8 1.2-2.8l.2-4.6V8.9L28 4.3z" />
  </g>
  <defs>
    <clipPath id="youtube-clip0">
      <path d="M0 0h28.2v20H0z"/>
    </clipPath>
  </defs>
</svg>