<!-- sample rectangle -->
<svg viewBox="0 0 700 396" fill="none" xmlns="http://www.w3.org/2000/svg">
  <g clip-path="url(#a)">
    <g opacity=".9">
      <path opacity=".9" d="M67.57 142.7c20.93 46.38 50.48 87.8 100.3 109.55 1.78.77 3.5 1.65 5.18 2.63 51.61 30.34 132.46 23.95 170.94-22.8 1.36-1.61 2.81-3.13 4.36-4.55 15.1-14.16 14.9-27.45 45.02-44.21 55.9-31.1 110.75-9.34 159.16 23.18 36.08 24.24 75.12 57.1 131.16 62.9 29.34 3.04 12.06-12.73 2.83-15.57-122.85-37.91-129.19-71.16-169.67-87.5-71.57-28.89-141.31-18.09-182.77 44.32a49.69 49.69 0 0 1-5.48 6.83c-61.7 64.28-142.11 45.33-198.85-8.44a49.07 49.07 0 0 1-4.88-5.4c-20.94-26.71-45.03-64.34-52.19-96.37-5.07-22.65-19.57-24.95-17.4-3.45.4 3.64 1.23 7.21 2.45 10.66l8.14 23.77c.48 1.5 1.05 3 1.7 4.45Z" fill="#FCC695"/>
      <path opacity=".6" d="m20.5 195.89.05.06a5.02 5.02 0 0 0 7.09.39l51.05-45.71a5.02 5.02 0 0 0 .4-7.09l-.06-.05a5.01 5.01 0 0 0-7.08-.4l-51.06 45.72a5.01 5.01 0 0 0-.39 7.08ZM36.43 209.04l.05.05a5.01 5.01 0 0 0 7.08.4l45.7-40.92a5.02 5.02 0 0 0 .39-7.08l-.06-.06a5.01 5.01 0 0 0-7.08-.39l-45.7 40.91a5.02 5.02 0 0 0-.38 7.09ZM61.9 214.45l.06.05a5.01 5.01 0 0 0 7.09-.15l28.3-29.53a5.02 5.02 0 0 0-.15-7.1l-.06-.04a5.01 5.01 0 0 0-7.09.15l-28.3 29.53a5.01 5.01 0 0 0 .15 7.09ZM82.45 223.62l.06.05a5.02 5.02 0 0 0 7.06-.74l18.97-23.37a5.02 5.02 0 0 0-.73-7.06l-.06-.04a5.01 5.01 0 0 0-7.05.73l-18.98 23.37a5.01 5.01 0 0 0 .73 7.06ZM153.87 234.05h.08a5.02 5.02 0 0 0 5.12-4.9l.22-10.19a5.02 5.02 0 0 0-4.91-5.12h-.08a5.01 5.01 0 0 0-5.12 4.9l-.22 10.2a5.02 5.02 0 0 0 4.91 5.11ZM225.61 260.4h.08a5.01 5.01 0 0 0 5.01-5.01v-67.71a5.01 5.01 0 0 0-5.01-5.02h-.08a5.01 5.01 0 0 0-5.02 5.02v67.7a5.01 5.01 0 0 0 5.02 5.02ZM253.13 266.38h.07a5.01 5.01 0 0 0 4.55-5.45l-6.96-77.15a5.01 5.01 0 0 0-5.44-4.54h-.08a5.02 5.02 0 0 0-4.54 5.45l6.95 77.15a5.01 5.01 0 0 0 5.45 4.54Z" fill="#FCEE21"/>
      <path opacity=".9" d="M270.52 265.83h.08a5.01 5.01 0 0 0 4.54-5.45l-6.95-77.15a5.02 5.02 0 0 0-5.44-4.55h-.08a5.01 5.01 0 0 0-4.55 5.45l6.96 77.16a5.01 5.01 0 0 0 5.44 4.54ZM289.04 255.15l1.98-.18a4.06 4.06 0 0 0 3.68-4.4l-4.96-55.1a4.06 4.06 0 0 0-4.41-3.67l-1.98.18a4.06 4.06 0 0 0-3.68 4.4l4.96 55.09a4.06 4.06 0 0 0 4.41 3.68Z" fill="#FCED65"/>
      <path opacity=".6" d="m598.15 226.69.08-.02a5.02 5.02 0 0 0 4.03-5.83l-5.44-29.9a5.02 5.02 0 0 0-5.84-4.04h-.07a5.02 5.02 0 0 0-4.04 5.84l5.45 29.9a5.02 5.02 0 0 0 5.83 4.05ZM615.7 234.9h.08a5.02 5.02 0 0 0 4.04-5.84l-9.58-52.6a5.02 5.02 0 0 0-5.83-4.03l-.07.02a5.02 5.02 0 0 0-4.04 5.83l9.58 52.6a5.01 5.01 0 0 0 5.83 4.03ZM670.67 254.7l.08-.01a5.02 5.02 0 0 0 4.03-5.84l-20.45-112.32a5.01 5.01 0 0 0-5.83-4.03l-.08.01a5.02 5.02 0 0 0-4.03 5.83l20.45 112.32a5.02 5.02 0 0 0 5.83 4.04Z" fill="#FCEE21"/>
      <path opacity=".9" d="M9.62 199.9c38.35 35.2 95.21 42.38 140.23 19.74 34.4-17.31 46.02-31.63 87.29-33.94 62.9-3.54 65.78 57.13 173.34 79.2 57.73 11.83 175.54-46.54 225.7-111.16 12.31-15.87 29.16-35.33 40.14-52.56a6.67 6.67 0 0 0-.36-7.7l-.12-.15a6.64 6.64 0 0 0-10.55.16l-25.73 34.95c-41.1 50.75-81.11 72.16-143.73 104.52-21.19 10.94-84.95 20.36-105.94 9.3-102.98-54.28-117.39-74.7-150.13-72.08-88.1 7.06-91.17 65.38-181.74 38.69a6.7 6.7 0 0 1-1.06-.42L31.6 196.04a6.3 6.3 0 0 1-1.17-.73c-29-22.8-39.38-12.35-20.82 4.6Z" fill="#FCC695"/>
      <path opacity=".7" d="m366.12 232.02 1.97-.29a4.06 4.06 0 0 0 3.43-4.6l-1.74-11.97a4.06 4.06 0 0 0-4.6-3.43l-1.97.29a4.06 4.06 0 0 0-3.43 4.6l1.74 11.97a4.06 4.06 0 0 0 4.6 3.43Z" fill="#FCEE21"/>
      <path opacity=".9" d="m409.89 254.47 1.97-.29a4.06 4.06 0 0 0 3.43-4.6l-10.64-73.03a4.06 4.06 0 0 0-4.6-3.43l-1.97.29a4.06 4.06 0 0 0-3.43 4.6l10.64 73.03a4.06 4.06 0 0 0 4.6 3.43Z" fill="#FCED60"/>
      <path opacity=".6" d="m457.74 254.34.07-.01a5.02 5.02 0 0 0 4.04-5.83l-15.66-86a5.02 5.02 0 0 0-5.83-4.03l-.08.01a5.02 5.02 0 0 0-4.03 5.84l15.66 85.99a5.02 5.02 0 0 0 5.83 4.03Z" fill="#FCEE21"/>
      <path opacity=".9" d="m431.64 250.69 1.97-.29a4.06 4.06 0 0 0 3.43-4.6l-10.5-71.99a4.06 4.06 0 0 0-4.6-3.43l-1.96.29a4.06 4.06 0 0 0-3.43 4.6l10.49 71.99a4.06 4.06 0 0 0 4.6 3.43Z" fill="#FCED60"/>
      <path opacity=".6" d="m476 250.08.07-.01a5.01 5.01 0 0 0 3.96-5.89l-16.5-84.27a5.02 5.02 0 0 0-5.88-3.96l-.07.01a5.02 5.02 0 0 0-3.96 5.89l16.49 84.27a5.01 5.01 0 0 0 5.88 3.96ZM493.7 244.43l.08-.01a5.01 5.01 0 0 0 4.03-5.83l-12.32-67.67a5.02 5.02 0 0 0-5.83-4.04l-.08.02a5.02 5.02 0 0 0-4.03 5.83l12.32 67.67a5.02 5.02 0 0 0 5.83 4.03ZM511.78 233.8h.08a5.01 5.01 0 0 0 4.23-5.69l-7.15-49.1a5.01 5.01 0 0 0-5.69-4.24h-.07a5.01 5.01 0 0 0-4.24 5.7l7.15 49.1a5.01 5.01 0 0 0 5.69 4.24ZM530.53 224.76h.08a5.01 5.01 0 0 0 4.23-5.7l-4.38-30.08a5.02 5.02 0 0 0-5.68-4.23h-.08a5.02 5.02 0 0 0-4.24 5.7l4.38 30.07a5.01 5.01 0 0 0 5.69 4.24Z" fill="#FCEE21"/>
      <path opacity=".9" d="m389.7 248.36 1.95-.36a4.06 4.06 0 0 0 3.27-4.72l-10.27-56.38a4.06 4.06 0 0 0-4.72-3.26l-1.96.35a4.06 4.06 0 0 0-3.27 4.72l10.27 56.38a4.06 4.06 0 0 0 4.72 3.27Z" fill="#FCED60"/>
    </g>
    <g opacity=".8">
      <path opacity=".2" d="M262.55 320.94a4.7 4.7 0 0 0-6.6.87l-11.5 15.03a4.7 4.7 0 0 0 7.48 5.73l11.5-15.04a4.7 4.7 0 0 0-.88-6.6ZM600.18 271.7a3.68 3.68 0 1 0 4.2 6.03l20.23-14.08a3.68 3.68 0 1 0-4.2-6.03l-20.23 14.08ZM621.13 74.4a4.21 4.21 0 1 0 2.24-8.1l-27.23-7.51a4.21 4.21 0 1 0-2.23 8.12l27.22 7.5ZM640.26 56.7a4.21 4.21 0 1 0 5.72 6.18l20.72-19.19a4.21 4.21 0 1 0-5.72-6.17L640.26 56.7ZM635.22 100.2a4.21 4.21 0 1 0 8.21-1.85l-6.23-27.54a4.21 4.21 0 1 0-8.21 1.86l6.23 27.54ZM580.16 57.41a4.21 4.21 0 1 0 7.02-4.64L571.6 29.2a4.21 4.21 0 1 0-7.02 4.65l15.58 23.55ZM546.87 137.2a4.21 4.21 0 1 0-7.8 3.2l10.7 26.12a4.21 4.21 0 1 0 7.8-3.19l-10.7-26.13ZM570.99 103.2a4.21 4.21 0 1 0-5.72-6.17l-20.72 19.19a4.21 4.21 0 1 0 5.72 6.17L571 103.2Z" fill="#00F"/>
      <path opacity=".8" d="M221.7 280.98a14 14 0 1 0 0-28 14 14 0 0 0 0 28ZM77.34 266.04a10.37 10.37 0 1 0 0-20.73 10.37 10.37 0 0 0 0 20.73ZM265.62 328.72a14 14 0 1 0 0-28 14 14 0 0 0 0 28ZM141.04 284.62a14.44 14.44 0 1 0 0-28.89 14.44 14.44 0 0 0 0 28.89Z" fill="#F9EE9D"/>
      <path opacity=".8" d="m209.9 267.01-16.54 9.2a4.7 4.7 0 0 0-1.82 6.4v.01a4.7 4.7 0 0 0 6.4 1.83l16.54-9.2a4.7 4.7 0 0 0 1.82-6.4v-.02a4.7 4.7 0 0 0-6.4-1.82ZM148.99 275.36v.01a4.7 4.7 0 0 0 3.48 5.65l18.36 4.35a4.69 4.69 0 0 0 2.17-9.14l-18.37-4.35a4.69 4.69 0 0 0-5.64 3.48ZM129.83 270.51l-15.98 6.77a4.32 4.32 0 1 0 3.37 7.95l15.97-6.77a4.32 4.32 0 0 0-3.36-7.95ZM85.52 259.9a4.32 4.32 0 1 0-6.6 5.57l11.2 13.26a4.32 4.32 0 1 0 6.6-5.57l-11.2-13.26ZM202.45 340.22v.01a4.7 4.7 0 0 0 3.01 5.93l18 5.85a4.7 4.7 0 1 0 2.91-8.96l-18-5.85a4.7 4.7 0 0 0-5.92 3.02ZM179.58 342.97l-12.88 13.87a4.7 4.7 0 0 0 6.9 6.4l12.88-13.86a4.7 4.7 0 0 0-.24-6.65h-.01a4.7 4.7 0 0 0-6.65.24ZM184.37 295.1v.01a4.7 4.7 0 0 0-3.64 5.57l3.88 18.53a4.7 4.7 0 1 0 9.22-1.93l-3.89-18.53a4.7 4.7 0 0 0-5.57-3.64Z" fill="#DCDCF9"/>
      <path opacity=".8" d="M238.7 365.55a14 14 0 1 0 0-28 14 14 0 0 0 0 28Z" fill="#F9EE9D"/>
      <path opacity=".2" d="M582.61 120.67a5.03 5.03 0 0 0-7.12 7.11l13.89 13.89a5.03 5.03 0 0 0 7.12-7.12l-13.89-13.88ZM561.41 238.25a2.42 2.42 0 1 0-4.4-2L550.29 251a2.42 2.42 0 1 0 4.4 2l6.72-14.76Z" fill="#00F"/>
      <path opacity=".8" d="M192.27 350.84a15.75 15.75 0 1 0 0-31.5 15.75 15.75 0 0 0 0 31.5ZM183.14 299.62a15.75 15.75 0 1 0 0-31.5 15.75 15.75 0 0 0 0 31.5ZM557.5 185.08a12.56 12.56 0 1 0 0-25.13 12.56 12.56 0 0 0 0 25.13ZM563.98 34.85a10.48 10.48 0 1 0 0-20.96 10.48 10.48 0 0 0 0 20.96ZM552.28 262.3a8.25 8.25 0 1 0 0-16.48 8.25 8.25 0 0 0 0 16.49Z" fill="#F9EE9D"/>
      <path opacity=".8" d="m629.6 119.45-9.26 13.52a4.08 4.08 0 0 0 6.73 4.6l9.25-13.52a4.08 4.08 0 0 0-6.73-4.6Z" fill="#D7D7F4"/>
      <path opacity=".9" d="M632.26 80.72a13.47 13.47 0 1 0 0-26.94 13.47 13.47 0 0 0 0 26.94Z" fill="#F9EE9D"/>
      <path opacity=".8" d="M586.42 70.79a10.48 10.48 0 1 0 0-20.96 10.48 10.48 0 0 0 0 20.96ZM597.55 158.07a14.36 14.36 0 1 0 0-28.7 14.36 14.36 0 0 0 0 28.7ZM672.02 43.98a13.47 13.47 0 1 0 0-26.94 13.47 13.47 0 0 0 0 26.94ZM639.95 124.52a13.47 13.47 0 1 0 0-26.93 13.47 13.47 0 0 0 0 26.93ZM102.14 298.12a14.44 14.44 0 1 0 0-28.88 14.44 14.44 0 0 0 0 28.88ZM537.3 145.43a16.15 16.15 0 1 0 0-32.3 16.15 16.15 0 0 0 0 32.3Z" fill="#F9EE9D"/>
      <g opacity=".8" fill="#F7D2D2">
        <path opacity=".8" d="M508.33 52.23a7.26 7.26 0 1 0 0-14.53 7.26 7.26 0 0 0 0 14.53ZM143.94 331.76a8.04 8.04 0 1 0 0-16.08 8.04 8.04 0 0 0 0 16.08ZM463.87 314.76a3.82 3.82 0 1 0 0-7.64 3.82 3.82 0 0 0 0 7.64ZM148.45 155.23a12.56 12.56 0 1 0 0-25.13 12.56 12.56 0 0 0 0 25.13ZM585.65 31.63a5.04 5.04 0 1 0 0-10.08 5.04 5.04 0 0 0 0 10.08ZM682.93 163a9.3 9.3 0 1 0 0-18.62 9.3 9.3 0 0 0 0 18.61ZM537.08 320.9a5.6 5.6 0 1 0 0-11.2 5.6 5.6 0 0 0 0 11.2ZM574.98 185.93a4.14 4.14 0 1 0 0-8.29 4.14 4.14 0 0 0 0 8.29ZM492.99 158a3.53 3.53 0 1 0 0-7.07 3.53 3.53 0 0 0 0 7.06ZM613.44 103.96a3.54 3.54 0 1 0 0-7.08 3.54 3.54 0 0 0 0 7.08Z"/>
      </g>
      <g opacity=".3">
        <path opacity=".3" d="M31 154.08a15.06 15.06 0 1 0 0-30.12 15.06 15.06 0 0 0 0 30.12ZM35.97 268.92a11.49 11.49 0 1 0 0-22.97 11.49 11.49 0 0 0 0 22.97Z" fill="#7474CE"/>
        <path opacity=".3" d="M117.5 367.89a12.56 12.56 0 1 0 0-25.13 12.56 12.56 0 0 0 0 25.13Z" fill="#F59188"/>
        <path opacity=".3" d="M203.23 395.78a4.69 4.69 0 1 0 0-9.37 4.69 4.69 0 0 0 0 9.37ZM208.92 191.29a5.04 5.04 0 1 0 0-10.08 5.04 5.04 0 0 0 0 10.08Z" fill="#7474CE"/>
        <path opacity=".3" d="M192.47 167.47a6.12 6.12 0 1 0 0-12.24 6.12 6.12 0 0 0 0 12.24ZM220.43 332.04a4.78 4.78 0 1 0 0-9.56 4.78 4.78 0 0 0 0 9.56ZM265.77 395.29a9.07 9.07 0 1 0 0-18.15 9.07 9.07 0 0 0 0 18.15Z" fill="#F59188"/>
        <path opacity=".3" d="M74.7 330.5a7.63 7.63 0 1 0 0-15.25 7.63 7.63 0 0 0 0 15.25Z" fill="#7474CE"/>
        <path opacity=".3" d="M5.73 244.1a5.73 5.73 0 1 0 0-11.46 5.73 5.73 0 0 0 0 11.46Z" fill="#F59188"/>
        <path opacity=".3" d="M117.15 262.76a5.49 5.49 0 1 0 0-10.97 5.49 5.49 0 0 0 0 10.97Z" fill="#7474CE"/>
      </g>
      <g opacity=".8">
        <path opacity=".8" d="M555.2 268.65a3.74 3.74 0 0 0 2.51-6.9c-18.9-11.65-50.03-15.8-68.12-9.87-13.79 4.5-47.5 38.97-56.05 52.06-27.76 42.45-57.96 69.16-102.41 33.9-4.75-3.75-7.5-18.66-13.25-16.12a4.63 4.63 0 0 0-2.1 6.38c2.52 4.88 10.34 13.98 10.46 14.1 18.7 16.82 42.74 25.84 66.07 16.2 20.38-8.42 33.4-29.17 43.44-44.48l.25-.27c15.25-18.69 32.8-45.21 55.8-53.34 29.42-10.43 52.2 6.5 63.4 8.34Z" fill="#F7D2D2"/>
        <path opacity=".9" d="M320.92 340.59a4.69 4.69 0 1 0-4.83-8.03l-8.37 5.04a4.68 4.68 0 1 0 4.83 8.03l8.37-5.04ZM442.48 307.89a4.69 4.69 0 1 0-5.2 7.79l8.14 5.42a4.69 4.69 0 1 0 5.19-7.8l-8.13-5.41ZM480.56 267.2a4.69 4.69 0 1 0-6.9 6.34l6.6 7.2a4.69 4.69 0 1 0 6.9-6.34l-6.6-7.2ZM504.94 257.88a4.69 4.69 0 1 0-9.1 2.22l2.32 9.5a4.69 4.69 0 1 0 9.1-2.23l-2.32-9.5ZM526.91 260.06a4.69 4.69 0 1 0-9.18-1.85l-1.93 9.58a4.69 4.69 0 1 0 9.19 1.84l1.92-9.57ZM551.1 267.79a4.69 4.69 0 1 0-8.6-3.73l-3.88 8.97a4.69 4.69 0 1 0 8.6 3.72l3.88-8.96ZM337.79 353.48a4.68 4.68 0 1 0-8.1-4.72l-4.92 8.44a4.69 4.69 0 1 0 8.1 4.72l4.92-8.44ZM357.62 362.8a4.69 4.69 0 1 0-8.96-2.72l-2.84 9.35a4.69 4.69 0 1 0 8.97 2.72l2.83-9.35ZM380.57 364.94a4.68 4.68 0 1 0-9.27-1.32l-1.37 9.68a4.68 4.68 0 1 0 9.27 1.32l1.37-9.68ZM401.9 357.33a4.69 4.69 0 1 0-9 2.6l2.72 9.39a4.69 4.69 0 1 0 9-2.6l-2.72-9.4ZM420.38 341.45a4.68 4.68 0 1 0-7.32 5.84l6.1 7.63a4.68 4.68 0 1 0 7.31-5.84l-6.1-7.63ZM432.45 324.21a4.69 4.69 0 1 0-5.8 7.36l7.67 6.05a4.69 4.69 0 1 0 5.8-7.36l-7.67-6.05Z" fill="#B6F2B6"/>
      </g>
      <g opacity=".8">
        <path opacity=".8" d="M91.88 108.18c-5.69 27.72 3.9 56.95 43.43 70.6 28.36 9.8 157.09-14.51 151.18 87.03-1.3 22.21-8.03 47.32-15.99 67.65a2.9 2.9 0 0 0 1.62 3.52l2.27 1.08a2.46 2.46 0 0 0 2.91-.35c.26-.24.46-.53.6-.85l8.7-24.13C319 197.45 254.26 167.68 145.7 172.28c-.3 0-8.32-2.13-8.62-2.22-26.46-8.93-36.15-29.53-37.99-52.01-.95-11.63 3.45-12.87-5.93-11.44-.74.12-1.13.87-1.28 1.57Z" fill="#D7D7F4"/>
        <path opacity=".9" d="M98.3 106.35a3.96 3.96 0 1 0 .84 7.88l8.93-.95a3.96 3.96 0 0 0-.84-7.88l-8.93.95ZM98.86 127.43a3.96 3.96 0 1 0 2.5 7.53l8.53-2.84a3.96 3.96 0 1 0-2.5-7.52l-8.53 2.83ZM105.85 143.42a3.96 3.96 0 1 0 4.27 6.68l7.57-4.84a3.96 3.96 0 1 0-4.27-6.68l-7.57 4.84ZM127.32 166a3.96 3.96 0 0 0 6.57 4.44l5.04-7.44a3.96 3.96 0 0 0-6.57-4.45l-5.04 7.45ZM154.25 171.87a3.96 3.96 0 0 0 7.91.57l.64-8.97a3.96 3.96 0 0 0-7.9-.56l-.65 8.96ZM176.4 172.17a3.96 3.96 0 1 0 7.9.57l.65-8.97a3.96 3.96 0 1 0-7.91-.56l-.64 8.96ZM198.38 173.65a3.97 3.97 0 0 0 7.91.56l.64-8.96a3.96 3.96 0 1 0-7.9-.57l-.65 8.97ZM284.23 218.02a3.96 3.96 0 1 0 3.47 7.13l8.08-3.93a3.96 3.96 0 1 0-3.46-7.13l-8.09 3.93ZM289.63 231.04a3.97 3.97 0 0 0 2.54 7.53l8.54-2.88a3.97 3.97 0 1 0-2.54-7.53l-8.54 2.88ZM292.03 248.05a3.96 3.96 0 1 0 2.5 7.52l8.53-2.83a3.96 3.96 0 0 0-2.5-7.53l-8.53 2.84ZM287.99 295.05a3.96 3.96 0 1 0-.57 7.9l8.96.65a3.96 3.96 0 1 0 .57-7.91l-8.96-.64ZM293.55 265.86a3.96 3.96 0 1 0 .77 7.89l8.95-.88a3.96 3.96 0 1 0-.78-7.89l-8.94.88ZM285.42 314.36a3.96 3.96 0 0 0-1.22 7.84l8.88 1.38a3.96 3.96 0 1 0 1.22-7.84l-8.88-1.38ZM271.29 334.12a4.11 4.11 0 0 0 3.43 4.7l8.59 1.33a4.1 4.1 0 1 0 1.26-8.13l-8.6-1.33a4.11 4.11 0 0 0-4.68 3.43Z" fill="#B6F2B6"/>
      </g>
      <path opacity=".2" d="M585.4 231.78a2.42 2.42 0 1 0 .39-4.82l-16.16-1.32a2.42 2.42 0 1 0-.4 4.82l16.17 1.32Z" fill="#00F"/>
      <path opacity=".8" d="M562.46 237.7a8.65 8.65 0 1 0 0-17.3 8.65 8.65 0 0 0 0 17.3ZM598.84 234.5a8.56 8.56 0 0 0-.92-12.07 8.56 8.56 0 0 0-12.08.83 8.56 8.56 0 0 0 .92 12.07c3.6 3.1 9 2.73 12.08-.83Z" fill="#F9EE9D"/>
      <path opacity=".8" d="M625.94 268.93a10.75 10.75 0 1 0 0-21.5 10.75 10.75 0 0 0 0 21.5Z" fill="#FCF2A7"/>
      <path opacity=".8" d="M162.85 378.57a10.5 10.5 0 1 0 0-20.99 10.5 10.5 0 0 0 0 21Z" fill="#F9EE9D"/>
      <path opacity=".9" d="M453.55 292.06a17.73 17.73 0 1 0 0-35.45 17.73 17.73 0 0 0 0 35.45Z" fill="#FCF2A7"/>
      <path opacity=".8" d="M499.82 281.96a3.27 3.27 0 1 0-5.82 3l10.02 19.5a3.27 3.27 0 1 0 5.82-3l-10.02-19.5Z" fill="#DCDCF9"/>
      <path opacity=".8" d="M465.07 272.77a4.21 4.21 0 1 0-.46 8.4l28.2 1.56a4.21 4.21 0 1 0 .45-8.4l-28.19-1.56Z" fill="#DCDCF9"/>
      <path opacity=".9" d="M509.65 319.13a9.46 9.46 0 1 0 0-18.93 9.46 9.46 0 0 0 0 18.93Z" fill="#FCF2A7"/>
      <path opacity=".8" d="M499.82 286.27a11.97 11.97 0 0 0 2.86-16.69 11.97 11.97 0 0 0-16.62-3.2 11.97 11.97 0 0 0-2.87 16.69 11.97 11.97 0 0 0 16.63 3.2Z" fill="#FCF2A7"/>
      <path opacity=".2" d="M389.12 314.12a3.63 3.63 0 0 0 1.02 5.03l20.31 13.45a3.63 3.63 0 0 0 4.01-6.06l-20.3-13.44a3.63 3.63 0 0 0-5.04 1.02Z" fill="#00F"/>
      <path opacity=".8" d="M416.01 340.94a9.12 9.12 0 1 0 0-18.24 9.12 9.12 0 0 0 0 18.24Z" fill="#FCF2A7"/>
      <path opacity=".2" d="M357.1 331.45v.01a3.63 3.63 0 0 0 5.02 1.06l20.4-13.32a3.63 3.63 0 0 0 1.06-5.02h-.01a3.63 3.63 0 0 0-5.02-1.06l-20.4 13.31a3.63 3.63 0 0 0-1.05 5.02Z" fill="#00F"/>
      <path opacity=".8" d="M386.84 324.95a11.55 11.55 0 1 0 0-23.1 11.55 11.55 0 0 0 0 23.1Z" fill="#FCF09A"/>
    </g>
    
    <path d="M205.63 251.6a5.05 5.05 0 0 1-7.13-.39l-11.4-12.74-4.94-5.5-3.08-3.45a4.97 4.97 0 0 1-.86-1.44l-5.28-5.88 2.68-3.23a7 7 0 0 1 5.72-2.52l4.5 5.03c.37.42.67.9.87 1.4l1.23 1.37 8.81 9.85 9.28 10.34a5.04 5.04 0 0 1-.4 7.17Z" fill="#F9EE9D"/>
    <path d="M181.3 216.44a6.98 6.98 0 0 0-5.72 2.52l-2.67 3.23-7.9-8.82-10.92-12.2a5.04 5.04 0 1 1 7.51-6.73l8.92 9.96 10.78 12.04Z" fill="#F9EE9D"/>
    <path d="M187.1 238.46a19.8 19.8 0 0 1-8.95-.68l.1-.1 3.91-4.73 4.93 5.5ZM230.1 170.05l-16.14 21.8-2.96 3.98-9.76 13.17a19.82 19.82 0 0 1-4.5 25.08l-8.81-9.85a7 7 0 0 0-12.34-5.28l-2.67 3.23c-2.45 2.96-5.71 6.9-5.77 7a19.7 19.7 0 0 1-2.12-15.81 19.82 19.82 0 0 1 23.64-13.78l2.69-3.64 2.78-3.74 1.29-1.72 2.9-3.91 1-1.36 3.45-4.68 14.7-19.81a7.85 7.85 0 0 1 12.61 9.35l.02-.03Z" fill="#6969A3"/>
    <path d="M639.2 359.65a5.23 5.23 0 0 0 7.8-6.97l-71.08-79.38a5.23 5.23 0 1 0-7.8 6.98l71.08 79.38Z" fill="#F9EE9D"/>
  </g>
  <defs>
    <clipPath id="a">
      <path fill="#fff" d="M0 0h700v395.78H0z"/>
    </clipPath>
  </defs>
</svg>