<svg width="100%" height="100vh" viewBox="-20 105 150 100" preserveAspectRatio="xMidYMid meet" fill="none" xmlns="http://www.w3.org/2000/svg" style="display: block;">
  <rect x="12.21" y="150.32" width="80.88" height="9.16" rx="4.58" fill="#014371"/>
  <path d="M15.26 159.48h74.78l-4.14 15.64A20 20 0 0166.56 190h-28.1a20 20 0 01-19.4-15.2l-3.8-15.32z" fill="#126A9F"/>
  <rect x="28.12" y="165.87" width="6.91" height="16.42" rx="3.46" transform="rotate(-8.36 28.12 165.87)" fill="#014371"/>
  <rect width="6.91" height="16.42" rx="3.46" transform="scale(-1 1) rotate(-9.59 951.33 537.36)" fill="#014371"/>
  <rect width="6.91" height="16.42" rx="3.46" transform="scale(-1 1) rotate(-5.43 1713.17 741.93)" fill="#014371"/>
  <rect width="6.91" height="16.42" rx="3.46" transform="scale(-1 1) rotate(5.97 -1604.17 -377.26)" fill="#014371"/>
  <circle cx="54.17" cy="123.61" r="5.34" fill="#ABC7D6"/>
  <circle cx="54.17" cy="124.38" r="3.82" fill="#014371"/>
  <rect x="54.48" y="121.22" width="4.58" height="43.21" rx="2.29" transform="rotate(45 54.48 121.22)" fill="#ABC7D6"/>
  <rect width="4.58" height="43.21" rx="2.29" transform="scale(-1 1) rotate(45 -173.54 -5.1)" fill="#D2DCE3"/>
</svg>