<svg width="295" height="190" viewBox="-25 0 320 190" fill="none" xmlns="http://www.w3.org/2000/svg">
  <path d="M140.63 180.16a64.58 64.58 0 0064.55-64.56 64.58 64.58 0 00-64.55-64.55 64.58 64.58 0 00-64.56 64.55 64.58 64.58 0 0064.56 64.56z" fill="#6BF2F9"/>
  <path d="M69.82 121.33c6.71-7.94 10.76-15.57 9.08-17.02-1.68-1.45-8.55 3.81-15.26 11.83-6.72 7.93-10.76 15.56-9.08 17.01 1.75 1.45 8.54-3.81 15.26-11.83z" fill="#46D6FA"/>
  <path d="M56.7 133c1.06-1.37-3.74-6.8-10.69-12.13-6.94-5.34-13.43-8.55-14.5-7.18-1.06 1.38 3.74 6.8 10.69 12.14 7.02 5.34 13.5 8.54 14.5 7.17z" fill="#46D6FA"/>
  <path d="M32.5 112.93c.3-1.52-3.2-3.43-7.86-4.27-4.57-.84-8.54-.23-8.85 1.3-.3 1.52 3.2 3.43 7.86 4.27 4.66.84 8.62.23 8.85-1.3z" fill="#46D6FA"/>
  <path d="M20.6 117.66c6.41 0 11.52-1.22 11.52-2.67s-5.19-2.67-11.52-2.67c-6.33 0-11.52 1.22-11.52 2.67 0 1.53 5.19 2.67 11.52 2.67z" fill="#46D6FA"/>
  <path d="M32.35 114c1.07-.38 1.22-2.67.3-5.04-.91-2.36-2.51-3.96-3.5-3.58-1.07.38-1.23 2.67-.31 5.03.84 2.37 2.44 3.97 3.51 3.59z" fill="#46D6FA"/>
  <path opacity=".28" d="M202.74 128.27c0 3.5-2.13 13.35-5.26 18.62-2.67 4.5-4.5 7.93-10.53 14.19a54.2 54.2 0 01-15.11 11.14c-5.57 2.82-16.33 7.1-19.76 6.64-8.4-1.22 26.85-12.29 29.45-17.1 2.6-4.8 5.65-4.72 9.84-11.06 4.66-7.02 8.4-20.06 9.16-25.02.61-4.58 2.14-4.36 2.21 2.59z" fill="#00A6D5"/>
  <path d="M228.15 127.46c1.84-1.6-2.75-9.86-10.24-18.43-7.5-8.57-15.06-14.22-16.9-12.61-1.83 1.6 2.75 9.86 10.24 18.43 7.5 8.57 15.06 14.22 16.9 12.61z" fill="#46D6FA"/>
  <path d="M215.2 136.22c8.53-4.44 14.74-9.38 13.87-11.05-.87-1.67-8.48.58-17 5-8.53 4.44-14.73 9.39-13.87 11.06.87 1.66 8.48-.58 17-5.01z" fill="#46D6FA"/>
  <path d="M201.12 158.56c1.69-.24 2.48-4.53 1.78-9.6-.7-5.06-2.64-8.97-4.33-8.73-1.7.23-2.5 4.53-1.79 9.59.7 5.06 2.65 8.97 4.34 8.74z" fill="#46D6FA"/>
  <path d="M198.09 152.97c1.33-6.84 1.14-12.64-.43-12.95-1.57-.3-3.92 5-5.25 11.85s-1.14 12.65.43 12.95c1.57.3 3.92-5 5.25-11.85z" fill="#46D6FA"/>
  <path d="M207.38 145.35c.65-1.06-.73-3.1-3.1-4.55-2.36-1.46-4.8-1.79-5.46-.73-.65 1.06.74 3.1 3.1 4.56 2.37 1.45 4.81 1.78 5.46.72z" fill="#46D6FA"/>
  <path d="M288.36 83.7a6.32 6.32 0 006.33-6.33 6.32 6.32 0 00-6.33-6.33 6.32 6.32 0 00-6.34 6.33 6.32 6.32 0 006.34 6.34z" fill="#6BF2F9"/>
  <path d="M283.01 74.7c1 1 2.6 1 3.51 0 1-.99 1-2.6 0-3.5l-7.1-7.1c-.98-1-2.59-1-3.5 0-1 .99-1 2.6 0 3.5l7.1 7.1z" fill="#C3D7E2"/>
  <path d="M269.36 71.12a11.6 11.6 0 100-23.2 11.6 11.6 0 000 23.2z" fill="#46D6FA"/>
  <path d="M261.2 60.51a4.34 4.34 0 003.81-7.78L249.3 45.1a4.34 4.34 0 00-3.81 7.78l15.72 7.63z" fill="#C3D7E2"/>
  <path d="M229.83 68.75a20.61 20.61 0 000-41.2 20.61 20.61 0 00-20.6 20.6 20.71 20.71 0 0020.6 20.6z" fill="#00A6D5"/>
  <path d="M220.98 52.73a7.23 7.23 0 00-9.92-2.06L186.95 66.6a7.23 7.23 0 00-2.06 9.92 7.23 7.23 0 009.92 2.06l24.11-15.94a7.08 7.08 0 002.06-9.92z" fill="#C3D7E2"/>
  <path d="M240.67 37.85c.53-2.9-2.37-5.95-6.56-6.8-4.2-.83-8.1.92-8.63 3.82-.53 2.9 2.37 5.95 6.57 6.8 4.12.83 8-.85 8.62-3.82z" fill="#61D8E5"/>
  <path d="M6.18 12.36a6.15 6.15 0 006.18-6.18A6.15 6.15 0 006.18 0 6.16 6.16 0 000 6.18a6.2 6.2 0 006.18 6.18z" fill="#6BF2F9"/>
  <path d="M7.25 22.36a2.47 2.47 0 002.97 1.9 2.47 2.47 0 001.91-2.97L10 11.45a2.47 2.47 0 00-2.97-1.91 2.47 2.47 0 00-1.9 2.97l2.13 9.85z" fill="#C3D7E2"/>
  <path d="M14.04 40.37a11.6 11.6 0 10-11.6-11.6 11.7 11.7 0 0011.6 11.6z" fill="#46D6FA"/>
  <path d="M35.25 44.26c2.22.99 4.73 0 5.73-2.22.99-2.2 0-4.73-2.22-5.72l-15.95-7.1a4.3 4.3 0 00-5.72 2.22 4.3 4.3 0 002.21 5.72l15.95 7.1z" fill="#C3D7E2"/>
  <path d="M53.26 68.22a20.61 20.61 0 000-41.2 20.61 20.61 0 000 41.2z" fill="#00A6D5"/>
  <path d="M99.2 78.14a7.08 7.08 0 00-2.07-9.92l-24.1-15.95a7.08 7.08 0 00-9.93 2.06 7.08 7.08 0 002.06 9.92L89.28 80.2a7.23 7.23 0 009.91-2.06z" fill="#C3D7E2"/>
  <path d="M50.36 49.14c5.42-1.07 9.08-5.5 8.17-10-.84-4.42-5.95-7.24-11.37-6.18-5.42 1.07-9.08 5.5-8.17 10 .92 4.5 5.96 7.25 11.37 6.18z" fill="#6BF2F9"/>
  <path d="M142.31 124.38c17.91 0 32.43-10.08 32.43-22.51 0-12.43-14.52-22.51-32.43-22.51s-32.43 10.08-32.43 22.5c0 12.44 14.52 22.52 32.43 22.52z" fill="#46D6FA"/>
  <path d="M174.74 106.44c0 9.06-14.52 16.41-32.43 16.41s-32.43-7.34-32.43-16.4c0-4.77 4.03-9.07 10.46-12.07 5.78-2.7 13.5-4.34 21.97-4.34h.85c17.51.23 31.58 7.49 31.58 16.4z" fill="#fff"/>
  <circle cx="141.16" cy="106.06" r="14.5" fill="#6969A3"/>
  <path d="M176.26 103.76c0 2.5-1.45 4.83-4.02 6.88a4.53 4.53 0 001.26-2.97c0-4.36-7.78-8.11-18.88-9.73a79.8 79.8 0 00-5.8-.62 93.9 93.9 0 00-12.34-.05c-2 .14-3.94.34-5.8.57-11.41 1.56-19.49 5.37-19.49 9.81 0 .5.1 1 .3 1.45-1.53-1.65-2.38-3.46-2.38-5.35 0-6.44 9.75-11.9 23.2-13.77 6.85-.94 13.8-.94 20.65 0 13.53 1.87 23.3 7.33 23.3 13.78z" fill="#00A6D5"/>
  <path d="M137.35 112.17c2.95 0 5.34-3.08 5.34-6.87 0-3.8-2.4-6.87-5.34-6.87-2.95 0-5.34 3.08-5.34 6.87 0 3.8 2.39 6.87 5.34 6.87z" fill="#fff"/>
  <path d="M120.27 132c3.25 8.22 14.41 11.86 20.83 4.79-7.5 3.48-15.28 1.17-20.83-4.78z" fill="#6969A3"/>
  <rect x="12.21" y="150.32" width="80.88" height="9.16" rx="4.58" fill="#014371"/>
  <path d="M15.26 159.48h74.78l-4.14 15.64A20 20 0 0166.56 190h-28.1a20 20 0 01-19.4-15.2l-3.8-15.32z" fill="#126A9F"/>
  <rect x="28.12" y="165.87" width="6.91" height="16.42" rx="3.46" transform="rotate(-8.36 28.12 165.87)" fill="#014371"/>
  <rect width="6.91" height="16.42" rx="3.46" transform="scale(-1 1) rotate(-9.59 951.33 537.36)" fill="#014371"/>
  <rect width="6.91" height="16.42" rx="3.46" transform="scale(-1 1) rotate(-5.43 1713.17 741.93)" fill="#014371"/>
  <rect width="6.91" height="16.42" rx="3.46" transform="scale(-1 1) rotate(5.97 -1604.17 -377.26)" fill="#014371"/>
  <circle cx="54.17" cy="123.61" r="5.34" fill="#ABC7D6"/>
  <circle cx="54.17" cy="124.38" r="3.82" fill="#014371"/>
  <rect x="54.48" y="121.22" width="4.58" height="43.21" rx="2.29" transform="rotate(45 54.48 121.22)" fill="#ABC7D6"/>
  <rect width="4.58" height="43.21" rx="2.29" transform="scale(-1 1) rotate(45 -173.54 -5.1)" fill="#D2DCE3"/>
  <path d="M55.85 132.56c1.07-1.38-3.74-6.8-10.68-12.14-6.95-5.34-13.43-8.54-14.5-7.17-1.07 1.37 3.74 6.8 10.68 12.13 7.02 5.34 13.5 8.55 14.5 7.18z" fill="#46D6FA"/>
</svg>