<?xml version="1.0" standalone="no"?>
<!DOCTYPE svg PUBLIC "-//W3C//DTD SVG 20010904//EN"
 "http://www.w3.org/TR/2001/REC-SVG-20010904/DTD/svg10.dtd">
<svg version="1.0" xmlns="http://www.w3.org/2000/svg"
 width="700.000000pt" height="700.000000pt" viewBox="0 0 700.000000 700.000000"
 preserveAspectRatio="xMidYMid meet">
<metadata>
Created by potrace 1.14, written by Peter Selinger 2001-2017
</metadata>
<g transform="translate(0.000000,700.000000) scale(0.100000,-0.100000)"
fill="#000000" stroke="none">
<path d="M3280 6994 c-19 -2 -84 -9 -145 -14 -578 -56 -1180 -283 -1660 -625
-237 -169 -531 -446 -709 -670 -416 -521 -673 -1147 -748 -1820 -17 -154 -17
-585 0 -730 69 -588 254 -1099 567 -1570 126 -189 242 -332 410 -504 580 -595
1295 -943 2140 -1043 145 -17 576 -17 730 0 822 91 1556 447 2131 1034 203
206 348 390 487 618 274 449 432 915 499 1465 16 135 16 591 0 730 -100 846
-447 1557 -1043 2141 -555 542 -1249 874 -2029 970 -117 15 -553 27 -630 18z
m488 -893 c73 -38 112 -102 112 -186 0 -121 -84 -205 -206 -205 -97 0 -167 58
-194 159 -22 83 20 181 98 228 48 30 137 31 190 4z m839 -29 c44 -23 93 -74
119 -124 22 -42 29 -133 15 -185 -65 -238 -380 -263 -482 -38 -23 49 -25 161
-5 209 28 67 102 133 176 157 40 13 133 3 177 -19z m-1571 -271 c57 -26 87
-72 92 -140 3 -46 0 -62 -20 -91 -37 -55 -83 -80 -143 -80 -90 0 -156 61 -162
152 -5 71 25 124 87 156 54 27 92 28 146 3z m2276 -112 c71 -15 116 -39 165
-89 69 -68 88 -119 88 -230 0 -112 -21 -167 -92 -238 -62 -62 -121 -85 -218
-86 -68 -1 -88 3 -137 27 -229 112 -241 460 -19 580 43 24 101 42 148 46 7 1
36 -4 65 -10z m-2809 -431 c54 -28 75 -136 38 -192 -26 -39 -57 -55 -106 -56
-51 0 -97 28 -118 73 -21 43 -21 68 -3 110 31 75 115 104 189 65z m3411 -398
c113 -43 191 -125 227 -244 61 -197 -48 -407 -242 -467 -152 -48 -306 4 -403
135 -51 69 -69 139 -64 245 5 94 26 156 77 220 90 114 267 162 405 111z
m-4594 -897 c0 -482 4 -782 11 -823 23 -142 98 -244 215 -291 52 -20 76 -23
194 -23 117 0 143 3 191 22 72 29 137 85 172 151 56 101 57 117 57 954 l0 767
270 0 271 0 -3 -832 c-3 -822 -4 -834 -25 -910 -52 -182 -106 -281 -218 -393
-116 -116 -256 -190 -435 -230 -117 -26 -366 -31 -489 -11 -368 62 -605 254
-704 571 -45 143 -47 192 -47 1021 l0 784 270 0 270 0 0 -757z m2755 734 c173
-50 289 -118 411 -241 89 -91 149 -194 181 -316 27 -101 24 -330 -5 -435 -77
-273 -265 -458 -546 -540 -107 -30 -246 -45 -432 -45 l-144 0 -2 -377 -3 -378
-267 -3 -268 -2 0 1180 0 1181 508 -3 c444 -3 514 -6 567 -21z m1872 -919 c69
-25 146 -84 193 -147 196 -260 48 -633 -273 -692 -172 -32 -352 62 -432 224
-47 96 -62 176 -48 267 43 278 307 441 560 348z m-523 -1058 c125 -43 224
-132 282 -253 92 -193 58 -406 -88 -563 -187 -200 -498 -204 -693 -10 -192
193 -194 513 -5 705 133 134 329 182 504 121z m-2590 -606 c202 -52 379 -227
442 -439 25 -82 25 -258 0 -340 -64 -213 -239 -387 -446 -440 -93 -24 -272
-17 -355 15 -190 73 -341 241 -390 435 -19 77 -19 243 0 320 54 212 231 394
438 450 72 19 235 19 311 -1z m1419 -89 c235 -50 412 -258 434 -510 23 -272
-162 -527 -428 -590 -182 -42 -357 10 -494 149 -115 116 -165 237 -165 398 0
160 53 291 165 404 134 136 304 188 488 149z"/>
<path d="M3540 3920 l0 -370 113 0 c269 1 406 67 467 226 30 79 33 224 6 303
-22 63 -82 134 -140 163 -59 30 -174 47 -318 48 l-128 0 0 -370z"/>
</g>
</svg>
