<svg width="700" height="344" viewBox="0 0 700 344" fill="none" xmlns="http://www.w3.org/2000/svg">
  <g clip-path="url(#a)">
    <g opacity=".6">
      <path opacity=".9" d="M110.73 49.66c5 47 19.03 92.06 56.68 125.7a44.74 44.74 0 0 1 3.77 3.8c36.72 41.73 109.87 59.54 157.37 29.46a45.4 45.4 0 0 1 5.14-2.74c17.44-8.1 21.1-19.89 52.53-25.94 58.32-11.22 100.38 23.87 133.64 66.6 24.8 31.82 49.7 72.13 97.42 93.5 25 11.2 14.31-7.72 7.02-12.89-97.34-69.1-93.3-100.22-124.26-126.36-54.74-46.24-119.38-56.96-174.03-13.93a45.9 45.9 0 0 1-6.81 4.44c-73.05 38.8-138.43-1.25-172.86-65.1a44.83 44.83 0 0 1-2.73-6.17c-10.72-29.66-21.05-69.8-18.08-100.12 2.1-21.44-10.02-27.67-14.33-8.12a44.62 44.62 0 0 0-.98 10.12l.27 23.32c0 1.48.08 2.95.24 4.43Z" fill="#B6F2B6"/>
      <path opacity=".6" d="M621.34 205.53a4.65 4.65 0 0 0-5.13 4.12l-12.31 114.7a4.65 4.65 0 0 0 4.12 5.13h.01a4.65 4.65 0 0 0 5.12-4.13l12.32-114.7a4.65 4.65 0 0 0-4.13-5.12ZM598.64 221.8a4.65 4.65 0 0 0-5.13 4.13l-8.61 80.18a4.65 4.65 0 0 0 9.25 1l8.62-80.18a4.65 4.65 0 0 0-4.13-5.12ZM579.25 231.02a4.65 4.65 0 0 0-5.13 4.12l-6.08 56.62a4.65 4.65 0 1 0 9.25 1l6.09-56.62a4.65 4.65 0 0 0-4.13-5.12ZM558.06 243.92a4.65 4.65 0 0 0-5.13 4.12l-2.27 21.18a4.65 4.65 0 0 0 9.26 1l2.27-21.18a4.65 4.65 0 0 0-4.13-5.12ZM412.38 167.24h-.01a4.65 4.65 0 0 0-5.12 4.13l-9.04 84.19a4.65 4.65 0 0 0 4.12 5.12h.01a4.65 4.65 0 0 0 5.12-4.13l9.04-84.19a4.65 4.65 0 0 0-4.12-5.12ZM432.62 166.92a4.65 4.65 0 0 0-5.13 4.13l-9.32 86.81a4.65 4.65 0 0 0 4.12 5.13h.01a4.65 4.65 0 0 0 5.12-4.13l9.32-86.82a4.65 4.65 0 0 0-4.12-5.12ZM449.16 180.46a4.63 4.63 0 0 0-5.12 4.1l-8.54 76.87a4.63 4.63 0 0 0 9.22 1.02l8.54-76.87a4.63 4.63 0 0 0-4.1-5.12ZM393.97 168.53a4.65 4.65 0 0 0-5.13 4.13l-8.33 77.57a4.65 4.65 0 0 0 9.25 1l8.34-77.58a4.65 4.65 0 0 0-4.13-5.12ZM374.29 176.58a4.65 4.65 0 0 0-5.13 4.13l-5.65 52.61a4.65 4.65 0 0 0 9.25 1l5.66-52.62a4.65 4.65 0 0 0-4.13-5.12ZM354.86 183.09a4.65 4.65 0 0 0-5.12 4.13l-3.04 28.25a4.65 4.65 0 0 0 9.25 1L359 188.2a4.65 4.65 0 0 0-4.13-5.12ZM459.72 266.2h.01a4.65 4.65 0 0 0 5.24-3.98l9.28-67.88a4.65 4.65 0 1 0-9.22-1.26l-9.28 67.88a4.65 4.65 0 0 0 3.97 5.24ZM480.89 264.92a4.65 4.65 0 0 0 5.25-3.98l7.23-52.86a4.65 4.65 0 1 0-9.22-1.26l-7.24 52.86a4.65 4.65 0 0 0 3.98 5.24ZM500.45 256.53a4.65 4.65 0 0 0 5.26-3.95l4.26-30.1a4.65 4.65 0 0 0-9.22-1.3l-4.25 30.1a4.65 4.65 0 0 0 3.95 5.25ZM222.25 123.76a4.65 4.65 0 0 0-5.48 3.65l-13.38 67.03a4.65 4.65 0 1 0 9.13 1.82l13.38-67.03a4.65 4.65 0 0 0-3.65-5.47ZM239.84 124.48a4.65 4.65 0 0 0-5.48 3.65l-15.24 76.34a4.65 4.65 0 0 0 3.65 5.47h.01a4.65 4.65 0 0 0 5.47-3.64l15.24-76.34a4.65 4.65 0 0 0-3.65-5.48ZM115.58 17.36a4.65 4.65 0 0 0-6.58-.1L53.1 71.43a4.65 4.65 0 1 0 6.48 6.68l55.9-54.18a4.65 4.65 0 0 0 .1-6.58ZM120.72 37.03a4.65 4.65 0 0 0-6.58-.1L58.24 91.1a4.65 4.65 0 1 0 6.48 6.68l55.9-54.18a4.65 4.65 0 0 0 .1-6.58ZM119.84 61.56a4.65 4.65 0 0 0-6.57.26L77.5 100.58a4.65 4.65 0 0 0 6.84 6.31l35.77-38.76a4.65 4.65 0 0 0-.27-6.57ZM126.23 82.47a4.65 4.65 0 0 0-6.57.26L92.3 112.37a4.65 4.65 0 0 0 6.84 6.31l27.36-29.64a4.65 4.65 0 0 0-.27-6.57ZM131.06 103.77v-.01a4.65 4.65 0 0 0-6.58.26L109.75 120a4.65 4.65 0 1 0 6.84 6.31l14.73-15.96a4.65 4.65 0 0 0-.26-6.58ZM255.88 133.08a4.65 4.65 0 0 0-5.48 3.64l-14.5 72.62a4.65 4.65 0 0 0 3.65 5.47h.01a4.65 4.65 0 0 0 5.47-3.65l14.5-72.61a4.65 4.65 0 0 0-3.65-5.47ZM204.44 127.88a4.65 4.65 0 0 0-5.48 3.65l-10.76 53.92a4.65 4.65 0 0 0 9.13 1.82l10.76-53.92a4.65 4.65 0 0 0-3.65-5.47ZM187.88 132.13a4.65 4.65 0 0 0-5.48 3.65l-7.34 36.79a4.65 4.65 0 1 0 9.13 1.82l7.34-36.78a4.65 4.65 0 0 0-3.65-5.48ZM170.27 135.54a4.65 4.65 0 0 0-5.47 3.65l-3.6 18.05a4.65 4.65 0 0 0 9.13 1.82l3.6-18.05a4.65 4.65 0 0 0-3.66-5.47ZM256.18 216.26h.01c2.5.58 5-.98 5.57-3.48l14.76-64.17a4.65 4.65 0 1 0-9.07-2.09l-14.76 64.17c-.57 2.5.99 5 3.5 5.57ZM274.53 215.18c2.51.57 5-.99 5.58-3.5l11.17-48.58a4.65 4.65 0 0 0-9.07-2.09l-11.17 48.6c-.58 2.5.99 5 3.49 5.57ZM292.09 211.12c2.51.57 5-.99 5.58-3.5l6.01-26.14a4.65 4.65 0 0 0-9.07-2.09l-6.01 26.15c-.58 2.5.99 5 3.49 5.58Z" fill="#FCEE21"/>
      <path opacity=".9" d="M43.13 82.99c23.56 42.19 71.6 65.05 117.88 58.18 35.37-5.24 49.76-14.46 86.82-4.52 56.52 15.2 41.36 69.5 129.77 120.25 47.44 27.23 168.27 10.07 231.31-32.32 15.46-10.4 35.97-22.65 50.66-34.63a6.17 6.17 0 0 0 1.93-6.89l-.07-.17a6.14 6.14 0 0 0-9.34-2.9l-32.85 23.32c-51.02 32.76-92.52 40-157.1 50.3-21.86 3.48-80.81-6.76-96.09-22.61-75-77.81-81.72-100.01-111.37-107.23-79.73-19.46-99.39 31.1-171.46-18.8-.29-.21-.56-.44-.82-.69a26624 26624 0 0 1-18.73-18.32c-.3-.3-.58-.63-.81-.99C43.89 56.41 31.7 62.63 43.13 83Z" fill="#B6F2B6"/>
    </g>
    <path d="M204.17 248.85c13.54-23 39.06-37.6 76.25-22.6 26.69 10.74 104.04 107.83 164.4 32.8 13.2-16.4 24.33-38.23 31.52-57.45a2.8 2.8 0 0 1 3.42-1.45l2.32.65a2.32 2.32 0 0 1 1.76 3.03l-9.07 22.36C424.79 327.34 359.14 308 283.84 237.27c-.2-.2-7.36-3.68-7.63-3.78-24.8-10.13-44.9-1.7-60.53 12.94-8.1 7.58-5.7 11.17-11.57 4.34a1.66 1.66 0 0 1 .06-1.92Z" fill="#D7D7F4"/>
    <path opacity=".9" d="m218.67 260.78.4-.36a3.4 3.4 0 0 0 .23-4.88l-6.22-6.62a3.61 3.61 0 0 0-5-.22l-.4.36a3.39 3.39 0 0 0-.22 4.88l6.2 6.62a3.6 3.6 0 0 0 5.01.22ZM230.78 248.46l.47-.27a3.4 3.4 0 0 0 1.28-4.72l-4.62-7.76a3.61 3.61 0 0 0-4.84-1.25l-.48.27a3.4 3.4 0 0 0-1.28 4.71l4.63 7.76a3.61 3.61 0 0 0 4.84 1.26ZM243.5 243.5l.51-.14a3.44 3.44 0 0 0 2.44-4.26l-2.54-8.62a3.55 3.55 0 0 0-4.38-2.38l-.52.15a3.42 3.42 0 0 0-2.43 4.27l2.53 8.62a3.56 3.56 0 0 0 4.38 2.37ZM268.42 242.75l.55.07a3.52 3.52 0 0 0 3.96-2.98l1.17-8.89a3.46 3.46 0 0 0-3.06-3.87l-.54-.07a3.52 3.52 0 0 0-3.96 2.98l-1.18 8.89a3.46 3.46 0 0 0 3.06 3.87ZM284.95 254.61l.43.33a3.61 3.61 0 0 0 4.97-.65l5.57-7.12a3.4 3.4 0 0 0-.66-4.84l-.44-.33a3.62 3.62 0 0 0-4.96.65l-5.58 7.12a3.38 3.38 0 0 0 .67 4.84ZM301.1 268.16l.43.32a3.61 3.61 0 0 0 4.96-.64l5.57-7.12a3.4 3.4 0 0 0-.66-4.84l-.44-.32a3.61 3.61 0 0 0-4.96.64l-5.57 7.12a3.4 3.4 0 0 0 .66 4.84ZM317.88 280.8l.44.32a3.62 3.62 0 0 0 4.96-.65l5.58-7.12a3.4 3.4 0 0 0-.68-4.84l-.43-.32a3.61 3.61 0 0 0-4.96.64l-5.57 7.12a3.4 3.4 0 0 0 .66 4.84ZM335.8 291.31l.44.33a3.62 3.62 0 0 0 4.96-.65l5.58-7.12a3.39 3.39 0 0 0-.67-4.84l-.44-.32a3.62 3.62 0 0 0-4.96.64l-5.57 7.12a3.4 3.4 0 0 0 .67 4.84ZM357.72 300.35l.5.2a3.61 3.61 0 0 0 4.62-1.93l3.5-8.34a3.4 3.4 0 0 0-1.93-4.5l-.5-.2a3.62 3.62 0 0 0-4.61 1.94l-3.48 8.34a3.41 3.41 0 0 0 1.9 4.5ZM420.82 301.12l.5-.2a3.43 3.43 0 0 0 1.91-4.52l-3.54-8.27a3.61 3.61 0 0 0-4.63-1.86l-.5.2a3.42 3.42 0 0 0-1.91 4.51l3.54 8.27a3.57 3.57 0 0 0 4.63 1.87ZM399.65 305.55l.53-.12a3.42 3.42 0 0 0 2.6-4.15l-2.17-8.74a3.61 3.61 0 0 0-4.28-2.57l-.52.12a3.4 3.4 0 0 0-2.6 4.15l2.16 8.74a3.58 3.58 0 0 0 4.28 2.57ZM378.09 306.93l.54.06a3.41 3.41 0 0 0 3.79-3.11l.72-8.97a3.61 3.61 0 0 0-3.22-3.81l-.55-.05a3.41 3.41 0 0 0-3.79 3.1l-.72 8.97a3.57 3.57 0 0 0 3.23 3.8ZM436 293.99l.49-.27a3.4 3.4 0 0 0 1.28-4.71l-4.63-7.76a3.61 3.61 0 0 0-4.84-1.25l-.47.26a3.41 3.41 0 0 0-1.28 4.73l4.62 7.75a3.61 3.61 0 0 0 4.84 1.25ZM446.85 283.78l.47-.27a3.42 3.42 0 0 0 1.28-4.72l-4.62-7.75a3.62 3.62 0 0 0-4.85-1.26l-.47.27a3.41 3.41 0 0 0-1.28 4.72l4.63 7.76a3.61 3.61 0 0 0 4.84 1.25ZM476.52 244.1l.33-.42a3.38 3.38 0 0 0-.67-4.84l-7.3-5.45a3.62 3.62 0 0 0-4.96.65l-.33.41a3.4 3.4 0 0 0 .66 4.85l7.3 5.45a3.62 3.62 0 0 0 4.97-.66ZM461.05 269.97l.4-.36a3.39 3.39 0 0 0 .18-4.87l-6.27-6.55a3.62 3.62 0 0 0-5-.18l-.4.37a3.4 3.4 0 0 0-.17 4.87l6.25 6.58a3.62 3.62 0 0 0 5 .14ZM487.33 227.94l.29-.45a3.4 3.4 0 0 0-1.07-4.77l-7.78-4.84a3.62 3.62 0 0 0-4.89 1.05l-.3.44a3.39 3.39 0 0 0 1.09 4.77l7.73 4.84a3.61 3.61 0 0 0 4.93-1.04ZM491.56 209.14l.22-.51a3.53 3.53 0 0 0-2-4.67l-8.24-3.27a3.72 3.72 0 0 0-4.8 1.99l-.2.5a3.55 3.55 0 0 0 1.99 4.67l8.24 3.27a3.72 3.72 0 0 0 4.79-1.98Z" fill="#B6F2B6"/>
    <g>
      <path d="M5.27 249.79c-3.57-1.87-6.96 2.53-4.34 5.6 14.2 16.68 41.95 30.17 60.54 30.28 14.1.07 55.49-21.46 67.26-30.96 38.15-30.8 73.98-46.22 105.1.25 3.33 4.96 1.56 19.64 7.65 19.06a4.44 4.44 0 0 0 3.8-5.26c-.92-5.31-5.55-16.18-5.64-16.32-12.51-21.4-32.26-37.2-56.76-35.49-21.4 1.5-39.54 16.72-53.31 27.82l-.3.21c-19.6 12.62-43.64 31.83-67.4 32.22-30.44.52-46.68-22.26-56.6-27.41Z" fill="#FCDEDE"/>
      <path d="m258.91 257.25-.16-.64a4.34 4.34 0 0 0-5.12-3.22l-9.9 2.23a4.15 4.15 0 0 0-3.11 5.06l.16.64a4.34 4.34 0 0 0 5.12 3.22l9.89-2.23a4.19 4.19 0 0 0 3.12-5.06ZM121.56 248.35a4.53 4.53 0 0 0 7.1-5.63l-6.1-7.7a4.53 4.53 0 0 0-7.1 5.63l6.1 7.7ZM72.7 259.34l-.6.27a4.2 4.2 0 0 0-2.02 5.63l4.34 9.32a4.3 4.3 0 0 0 5.64 2.17l.6-.27a4.2 4.2 0 0 0 2.02-5.63l-4.34-9.32a4.3 4.3 0 0 0-5.64-2.17ZM54.65 261.65l-.65-.05a4.16 4.16 0 0 0-4.5 3.9l-.63 10.18a4.34 4.34 0 0 0 3.97 4.59l.65.05a4.14 4.14 0 0 0 4.5-3.89l.63-10.18a4.34 4.34 0 0 0-3.97-4.6ZM40.16 256.67l-.58-.32a4.18 4.18 0 0 0-5.75 1.57l-4.9 8.86a4.34 4.34 0 0 0 1.68 5.79l.58.32a4.17 4.17 0 0 0 5.78-1.57l4.89-8.86a4.34 4.34 0 0 0-1.7-5.79ZM21.73 244.59l-.5-.44a4.2 4.2 0 0 0-5.97.33l-6.65 7.61a4.27 4.27 0 0 0 .45 6l.5.45a4.21 4.21 0 0 0 5.97-.33l6.64-7.61a4.28 4.28 0 0 0-.44-6.01ZM245.83 232.73l-.44-.5a4.25 4.25 0 0 0-5.99-.39l-7.51 6.75a4.27 4.27 0 0 0-.26 6.01l.44.5a4.23 4.23 0 0 0 5.99.38l7.5-6.75a4.25 4.25 0 0 0 .27-6ZM228.33 214.9l-.54-.4a4.2 4.2 0 0 0-5.9 1.02l-5.71 8.35a4.3 4.3 0 0 0 1.13 5.93l.53.37a4.2 4.2 0 0 0 5.89-1.01l5.72-8.34a4.3 4.3 0 0 0-1.12-5.93ZM206.12 204.02l-.6-.3a4.16 4.16 0 0 0-5.64 1.91l-4.34 9.15a4.34 4.34 0 0 0 2 5.7l.6.3a4.15 4.15 0 0 0 4.65-.6c.41-.36.75-.81 1-1.31l4.33-9.14a4.34 4.34 0 0 0-2-5.7ZM178.77 201.06h-.66a4.15 4.15 0 0 0-4.34 4.07l-.2 10.19a4.34 4.34 0 0 0 4.16 4.42h.65a4.15 4.15 0 0 0 4.34-4.08l.2-10.21a4.34 4.34 0 0 0-4.15-4.4ZM151.25 209.01l-.6.23a4.16 4.16 0 0 0-2.41 5.46l3.7 9.6a4.34 4.34 0 0 0 5.48 2.52l.61-.23a4.2 4.2 0 0 0 2.41-5.46l-3.7-9.59a4.34 4.34 0 0 0-5.49-2.53ZM131.63 221.7l-.54.35a4.24 4.24 0 0 0-1.1 5.9l5.79 8.54a4.27 4.27 0 0 0 5.9 1.23l.53-.37a4.22 4.22 0 0 0 1.1-5.89l-5.78-8.54a4.26 4.26 0 0 0-5.9-1.22Z" fill="#F9EE9D"/>
    </g>
    <path d="M48.7 216v-13.84c0-2.84 1.03-5.59 2.9-7.73L162.33 68.71a10.32 10.32 0 0 1 7.74-3.57h29.2c5.86 0 10.61 5.06 10.61 11.29v182.94c0 6.23-4.75 11.29-10.6 11.29h-35.55c-5.86 0-10.61-5.06-10.61-11.3V97.82a3.55 3.55 0 0 1 3.43-3.65c3.97 0 6.03 5.06 3.34 8.13l-83.04 95.24a3.32 3.32 0 0 1-4.3.66 3.3 3.3 0 0 1-1.08-1.13c-1.5-2.43.13-5.67 2.89-5.67h161.87c5.86 0 10.6 5.07 10.6 11.3V216c0 6.24-4.74 11.3-10.6 11.3H59.3c-5.85 0-10.6-5.06-10.6-11.3ZM461.73 168.41c0 74.93-45.13 107.17-95.02 107.17-50.1 0-94.37-32.24-94.37-107.17 0-75.26 44.27-107.45 94.37-107.45 49.87 0 95.02 32.2 95.02 107.45Zm-95.02 90.21c19 0 34.35-17.76 34.35-90.21 0-72.97-15.35-90.72-34.35-90.72-19.22 0-33.7 17.43-33.7 90.72 0 72.78 14.48 90.21 33.7 90.21ZM484.06 216v-13.84c0-2.84 1.02-5.59 2.9-7.73L597.7 68.71a10.32 10.32 0 0 1 7.74-3.57h29.2c5.86 0 10.6 5.06 10.6 11.29v182.94c0 6.23-4.74 11.29-10.6 11.29H599.1c-5.86 0-10.6-5.06-10.6-11.3V97.82a3.55 3.55 0 0 1 3.43-3.65h2.56c3 0 4.55 3.8 2.52 6.14l-84.78 97.23a3.32 3.32 0 0 1-5.39-.47c-1.5-2.43.14-5.67 2.9-5.67H671.6c5.85 0 10.6 5.07 10.6 11.3V216c0 6.24-4.75 11.3-10.6 11.3H494.68c-5.87 0-10.62-5.06-10.62-11.3Z" fill="#F7D2D2"/>
    <path d="M39.53 207.06v-13.84c0-2.84 1.02-5.59 2.9-7.73L153.17 59.8a10.31 10.31 0 0 1 7.74-3.57h29.2c5.85 0 10.6 5.06 10.6 11.29v182.91c0 6.24-4.75 11.3-10.6 11.3h-35.55c-5.86 0-10.6-5.07-10.6-11.3V88.87a3.53 3.53 0 0 1 3.42-3.66c3.97 0 6.03 5.06 3.34 8.13l-83.04 95.25a3.3 3.3 0 0 1-5.38-.47c-1.5-2.43.13-5.66 2.9-5.66h161.88c5.86 0 10.61 5.06 10.61 11.28v13.32c0 6.23-4.75 11.29-10.6 11.29H50.13c-5.86 0-10.6-5.06-10.6-11.3ZM452.56 159.46c0 74.94-45.13 107.18-95.01 107.18-50.1 0-94.38-32.24-94.38-107.18 0-75.26 44.27-107.45 94.38-107.45 49.88 0 95.01 32.2 95.01 107.45Zm-95.01 90.22c18.99 0 34.35-17.76 34.35-90.22 0-72.96-15.36-90.72-34.35-90.72-19.22 0-33.71 17.44-33.71 90.72 0 72.79 14.5 90.22 33.7 90.22ZM474.9 207.06v-13.84c0-2.84 1.02-5.59 2.89-7.73L588.54 59.8a10.3 10.3 0 0 1 7.74-3.57h29.2c5.86 0 10.6 5.06 10.6 11.29v182.91c0 6.24-4.74 11.3-10.6 11.3h-35.55c-5.85 0-10.6-5.07-10.6-11.3V88.87a3.55 3.55 0 0 1 3.43-3.66h2.55c3 0 4.56 3.8 2.52 6.14l-84.77 97.25a3.31 3.31 0 0 1-5.39-.48c-1.5-2.43.14-5.66 2.9-5.66h161.9c5.86 0 10.61 5.06 10.61 11.28v13.32c0 6.23-4.75 11.29-10.6 11.29H485.5c-5.86 0-10.6-5.06-10.6-11.3Z" fill="#C788D3"/>
    <g>
      <path d="M429.86 187.08c-3.88-1.8-7.23 3.04-4.34 6.18 15.91 17.02 46.08 30 65.82 29.17 14.98-.62 57.91-25.54 69.95-36.22 39-34.63 76.33-52.8 111.71-4.93 3.77 5.1 2.63 20.8 9.06 19.88a4.7 4.7 0 0 0 3.79-5.78c-1.25-5.6-6.7-16.92-6.8-17.06-14.36-22.14-36.16-37.94-62.08-34.92-22.67 2.64-41.23 19.72-55.3 32.2-.09.09-.19.17-.3.24-20.2 14.38-44.84 35.96-70.03 37.57-32.3 2.07-50.72-21.33-61.48-26.33Z" fill="#FCDEDE"/>
      <path d="m699.81 182.5-.2-.68a4.61 4.61 0 0 0-5.6-3.18l-10.4 2.9a4.42 4.42 0 0 0-3.06 5.54l.2.68a4.6 4.6 0 0 0 5.59 3.17l10.42-2.9a4.46 4.46 0 0 0 3.05-5.54ZM553.4 179.8a4.82 4.82 0 0 0 7.25-6.32l-6.87-7.89a4.82 4.82 0 1 0-7.26 6.33l6.87 7.89ZM502 193.91l-.62.31a4.47 4.47 0 0 0-1.87 6.08l5.06 9.7a4.56 4.56 0 0 0 6.1 2l.61-.31a4.46 4.46 0 0 0 1.88-6.08l-5.06-9.7a4.57 4.57 0 0 0-6.1-2ZM482.93 197.26h-.72a4.42 4.42 0 0 0-4.59 4.34l-.17 10.85a4.64 4.64 0 0 0 4.44 4.68h.72a4.41 4.41 0 0 0 4.58-4.34l.18-10.84a4.62 4.62 0 0 0-4.44-4.7ZM467.28 192.68l-.62-.32a4.46 4.46 0 0 0-6.04 1.95l-4.76 9.64a4.6 4.6 0 0 0 2.08 6.09l.62.32a4.46 4.46 0 0 0 6.04-1.96l4.77-9.64a4.59 4.59 0 0 0-2.09-6.08ZM447.1 180.75l-.55-.44a4.47 4.47 0 0 0-6.33.64l-6.7 8.42a4.55 4.55 0 0 0 .78 6.36l.55.44a4.5 4.5 0 0 0 6.34-.64l6.68-8.42a4.55 4.55 0 0 0-.77-6.36ZM684.69 157.07l-.5-.5a4.52 4.52 0 0 0-6.37-.11l-7.65 7.54a4.52 4.52 0 0 0 0 6.4l.5.49a4.48 4.48 0 0 0 6.38.12l7.65-7.56a4.53 4.53 0 0 0-.01-6.38ZM665.2 138.97l-.59-.37a4.48 4.48 0 0 0-6.2 1.37l-5.67 9.14a4.59 4.59 0 0 0 1.49 6.25l.59.38a4.47 4.47 0 0 0 6.2-1.37l5.68-9.15a4.58 4.58 0 0 0-1.5-6.25ZM641.1 128.52l-.65-.28a4.43 4.43 0 0 0-5.9 2.3l-4.2 9.94a4.59 4.59 0 0 0 2.42 5.97l.64.28a4.42 4.42 0 0 0 5.9-2.31l4.2-9.93a4.6 4.6 0 0 0-2.42-5.97ZM611.85 126.72h-.73a4.4 4.4 0 0 0-4.4 4.54l.29 10.85a4.63 4.63 0 0 0 4.63 4.5h.72a4.43 4.43 0 0 0 4.4-4.55l-.28-10.85a4.64 4.64 0 0 0-4.63-4.5ZM583 136.5l-.63.28a4.45 4.45 0 0 0-2.3 5.92l4.4 10.02a4.59 4.59 0 0 0 5.96 2.41l.64-.27a4.46 4.46 0 0 0 2.3-5.92l-4.4-10.02a4.6 4.6 0 0 0-5.97-2.41ZM562.79 150.99l-.56.4a4.52 4.52 0 0 0-.88 6.32l6.51 8.8a4.54 4.54 0 0 0 6.32 1.01l.56-.41a4.52 4.52 0 0 0 .88-6.32l-6.5-8.8a4.54 4.54 0 0 0-6.33-1Z" fill="#F9EE9D"/>
    </g>
    <g>
      <path d="M120.01 192.02c15.91 21.42 42.88 33.15 78.25 14.24 25.38-13.56 91.8-118.44 159.9-50.37 14.9 14.9 28.32 35.39 37.54 53.72a2.8 2.8 0 0 0 3.55 1.1l2.24-.9a2.33 2.33 0 0 0 1.45-3.2l-11.44-21.25c-60.61-95.16-123.79-68.86-191.04 9.6-.19.22-6.92 4.46-7.17 4.6-23.57 12.76-44.46 6.5-61.58-6.34-8.87-6.66-6.88-10.5-11.97-3.08a1.66 1.66 0 0 0 .27 1.88Z" fill="#D7D7F4"/>
      <path opacity=".9" d="m133.15 178.64.43.31a3.4 3.4 0 0 1 .72 4.83l-5.45 7.23a3.62 3.62 0 0 1-4.95.76l-.44-.31a3.4 3.4 0 0 1-.72-4.83l5.45-7.23a3.62 3.62 0 0 1 4.96-.76ZM146.51 189.55l.5.2a3.4 3.4 0 0 1 1.78 4.56l-3.75 8.2a3.62 3.62 0 0 1-4.68 1.76l-.5-.21a3.4 3.4 0 0 1-1.78-4.56l3.75-8.2a3.61 3.61 0 0 1 4.68-1.75ZM159.68 193.1l.54.09a3.45 3.45 0 0 1 2.9 3.98l-1.59 8.85a3.56 3.56 0 0 1-4.1 2.82l-.53-.08a3.45 3.45 0 0 1-2.9-3.98l1.59-8.84a3.56 3.56 0 0 1 4.09-2.84ZM184.55 191.15l.54-.13a3.51 3.51 0 0 1 4.26 2.54l2.12 8.68a3.47 3.47 0 0 1-2.62 4.17l-.53.13a3.52 3.52 0 0 1-4.26-2.53l-2.13-8.68a3.47 3.47 0 0 1 2.62-4.18ZM199.69 177.58l.4-.37a3.61 3.61 0 0 1 5 .1l6.3 6.51a3.37 3.37 0 0 1 .66 3.8c-.19.4-.46.78-.8 1.08l-.39.37a3.62 3.62 0 0 1-5-.1l-6.32-6.52a3.37 3.37 0 0 1 .15-4.87ZM214.28 162.36l.4-.37a3.61 3.61 0 0 1 5 .1l6.32 6.51a3.38 3.38 0 0 1-.15 4.89l-.4.36a3.62 3.62 0 0 1-5-.1l-6.3-6.5a3.38 3.38 0 0 1 .13-4.89ZM229.62 148l.4-.38a3.61 3.61 0 0 1 5 .1l6.3 6.51a3.39 3.39 0 0 1-.14 4.89l-.39.37a3.61 3.61 0 0 1-5-.1l-6.32-6.51a3.43 3.43 0 0 1-.65-3.8c.19-.4.46-.78.8-1.09ZM246.3 135.6l.4-.37a3.62 3.62 0 0 1 5 .1l6.3 6.5a3.39 3.39 0 0 1-.13 4.89l-.4.37a3.61 3.61 0 0 1-5-.1l-6.31-6.51a3.4 3.4 0 0 1 .13-4.88ZM267.1 124.24l.5-.25a3.61 3.61 0 0 1 4.79 1.45l4.37 7.9a3.4 3.4 0 0 1-1.44 4.68l-.48.25a3.61 3.61 0 0 1-4.8-1.44l-4.37-7.92a3.4 3.4 0 0 1 1.44-4.67ZM329.79 116.66l.52.16a3.4 3.4 0 0 1 2.38 4.28l-2.63 8.61a3.61 3.61 0 0 1-4.4 2.35l-.52-.15a3.4 3.4 0 0 1-2.38-4.28l2.63-8.62a3.62 3.62 0 0 1 4.4-2.35ZM345.63 122.12l.5.2a3.4 3.4 0 0 1 1.78 4.56l-3.76 8.21a3.62 3.62 0 0 1-4.68 1.76l-.5-.2a3.42 3.42 0 0 1-1.78-4.56l3.76-8.2a3.61 3.61 0 0 1 4.68-1.77ZM357.5 131.1l.5.2a3.42 3.42 0 0 1 1.78 4.56l-3.76 8.21a3.62 3.62 0 0 1-4.67 1.78l-.5-.22a3.41 3.41 0 0 1-1.78-4.56l3.75-8.2a3.62 3.62 0 0 1 4.68-1.77ZM391.26 167.34l.38.38a3.4 3.4 0 0 1-.14 4.9l-6.67 6.19a3.62 3.62 0 0 1-5-.1l-.38-.39a3.42 3.42 0 0 1 .13-4.88l6.69-6.2a3.61 3.61 0 0 1 5 .1ZM373.11 143.28l.44.32a3.38 3.38 0 0 1 .72 4.83l-5.52 7.24a3.62 3.62 0 0 1-4.95.72l-.44-.32a3.38 3.38 0 0 1-.72-4.83l5.52-7.23a3.62 3.62 0 0 1 4.95-.72ZM403.77 182.25l.35.41a3.4 3.4 0 0 1-.56 4.86l-7.18 5.65a3.62 3.62 0 0 1-4.97-.51l-.34-.41a3.42 3.42 0 0 1 .56-4.86l7.17-5.64a3.62 3.62 0 0 1 4.97.5ZM410.02 200.47l.26.48a3.54 3.54 0 0 1-1.44 4.86l-7.84 4.14a3.72 3.72 0 0 1-4.99-1.44l-.26-.49a3.52 3.52 0 0 1 1.44-4.85l7.81-4.15a3.72 3.72 0 0 1 5.02 1.45Z" fill="#D4FFD4"/>
    </g>
    <g>
      <path d="M344 282.86a90.75 90.75 0 1 0 0-181.5 90.75 90.75 0 0 0 0 181.5Z" fill="#6BF2F9"/>
      <path d="M253.42 199.89c5.85-13.42 8.26-25.32 5.38-26.57-2.88-1.26-9.95 8.6-15.8 22.03-5.85 13.41-8.26 25.31-5.38 26.56 2.88 1.26 9.95-8.6 15.8-22.02Z" fill="#46D6FA"/>
      <path d="M260.16 222.37c12.18-1.77 21.78-5.13 21.44-7.52-.35-2.38-10.51-2.88-22.7-1.1-12.18 1.76-21.78 5.13-21.44 7.51.35 2.38 10.5 2.88 22.7 1.11Z" fill="#46D6FA"/>
      <path d="M299.08 230.25c1.4-1.7-1.58-6.46-6.65-10.63-5.07-4.18-10.31-6.2-11.7-4.5-1.4 1.69 1.58 6.44 6.65 10.62 5.07 4.18 10.3 6.2 11.7 4.5Z" fill="#46D6FA"/>
      <path d="M283.37 221.54c.11-3.57-1.1-6.5-2.69-6.56-1.6-.05-2.98 2.8-3.1 6.38-.1 3.56 1.1 6.5 2.7 6.55 1.59.05 2.98-2.8 3.09-6.37ZM442.31 225.05c3.08-.63 3.19-12.77.24-27.1-2.94-14.35-7.82-25.46-10.9-24.83-3.07.63-3.18 12.77-.24 27.1 2.95 14.35 7.83 25.46 10.9 24.83Z" fill="#46D6FA"/>
      <path opacity=".28" d="M431.3 209.91c0 4.94-2.99 18.73-7.41 26.2-3.76 6.35-6.34 11.16-14.78 19.91a79.04 79.04 0 0 1-21.27 15.7c-7.84 4-22.95 10.02-27.75 9.35-11.84-1.68 37.74-17.3 41.4-24.05 3.66-6.76 7.95-6.65 13.83-15.57 6.5-9.89 11.81-28.26 12.84-35.15.97-6.48 3.1-6.21 3.15 3.61Z" fill="#00A7D5"/>
      <path d="M531.35 168.83a8.88 8.88 0 1 0-16.28-7.1 8.88 8.88 0 0 0 16.28 7.1Z" fill="#6BF2F9"/>
      <path d="M522.34 160.84a3.5 3.5 0 0 1-4.56-1.98l-5.17-13.2a3.51 3.51 0 0 1 5.82-3.73c.32.34.57.73.74 1.16l5.17 13.2a3.52 3.52 0 0 1-2 4.56Z" fill="#C3D7E2"/>
      <path d="M508.8 147.88a16.27 16.27 0 1 0 0-32.55 16.27 16.27 0 0 0 0 32.55Z" fill="#46D6FA"/>
      <path d="M505.6 128.4a6.1 6.1 0 0 1-8.65-.1l-17.12-17.58a6.1 6.1 0 0 1 8.74-8.52l17.13 17.57a6.1 6.1 0 0 1-.1 8.63Z" fill="#C3D7E2"/>
      <path d="M461.78 117.84a28.93 28.93 0 1 0 0-57.86 28.93 28.93 0 0 0 0 57.86Z" fill="#00A6D5"/>
      <path d="m434.12 99.12-32.45 24.4a10.1 10.1 0 0 0 12.14 16.14l32.45-24.4a10.1 10.1 0 1 0-12.14-16.14Z" fill="#C3D7E2"/>
      <path d="M474.17 74.81c.66-4.97-3.66-9.64-9.64-10.44-5.99-.8-11.38 2.58-12.04 7.55-.66 4.97 3.65 9.65 9.64 10.44 5.98.8 11.37-2.58 12.04-7.55Z" fill="#61D8E5"/>
      <path d="M164.5 189.34a8.65 8.65 0 1 0-3.53-16.93 8.65 8.65 0 0 0 3.53 16.94Z" fill="#6BF2F9"/>
      <path d="M169.52 158.21a3.51 3.51 0 0 1 2.32 4.4l-4.18 13.54a3.52 3.52 0 1 1-6.73-2.08l4.18-13.51a3.53 3.53 0 0 1 4.4-2.35Z" fill="#C3D7E2"/>
      <path d="M174.92 163.04a16.27 16.27 0 1 0 0-32.54 16.27 16.27 0 0 0 0 32.54Z" fill="#46D6FA"/>
      <path d="M204.93 116.96a6.12 6.12 0 0 1-.08 8.64l-17.53 17.18a6.1 6.1 0 0 1-8.55-8.72l17.52-17.18a6.1 6.1 0 0 1 8.64.08Z" fill="#C3D7E2"/>
      <path d="M225.48 134.86a28.93 28.93 0 1 0 0-57.86 28.93 28.93 0 0 0 0 57.86Z" fill="#00A6D5"/>
      <path d="M238.53 110a10.1 10.1 0 0 0 4.27 13.63l35.97 18.81a10.1 10.1 0 0 0 13.63-4.26v-.01a10.1 10.1 0 0 0-4.26-13.63l-35.98-18.81a10.1 10.1 0 0 0-13.63 4.26Z" fill="#C3D7E2"/>
      <path d="M220.46 103.11c6.8-1.33 11.4-6.98 10.3-12.63-1.1-5.64-7.5-9.14-14.3-7.8-6.8 1.32-11.41 6.98-10.31 12.62 1.1 5.64 7.51 9.14 14.3 7.81Z" fill="#6BF2F9"/>
      <path d="M314.85 234.32a7.23 7.23 0 1 0 0-14.46 7.23 7.23 0 0 0 0 14.46Z" fill="#6969A3"/>
      <path d="M344.02 200.46c23.8 0 43.09-13.18 43.09-29.44s-19.3-29.44-43.09-29.44c-23.8 0-43.08 13.18-43.08 29.44s19.29 29.44 43.08 29.44Z" fill="#46D6FA"/>
      <path d="M348.48 201.2Z" fill="#00A6D5"/>
      <path d="M343.58 199.47c21.97 0 39.78-8.26 39.78-18.45 0-10.18-17.81-18.44-39.78-18.44-21.97 0-39.78 8.26-39.78 18.44 0 10.19 17.81 18.44 39.78 18.44Z" fill="#fff"/>
      <path d="M355.46 198.74a15.35 15.35 0 1 0 0-30.7 15.35 15.35 0 0 0 0 30.7Z" fill="#6969A3"/>
      <path d="M351.84 188.3a7.91 7.91 0 1 0 0-15.82 7.91 7.91 0 0 0 0 15.83Z" fill="#fff"/>
      <path d="M381.82 185a4.41 4.41 0 0 0 1.6-3.13c0-6.13-17.87-11.11-39.92-11.11-22.04 0-39.93 4.98-39.93 11.1 0 .54.14 1.06.39 1.53-1.96-1.73-3.05-3.61-3.05-5.61 0-8.4 19.27-15.2 43.03-15.2 23.77 0 43.04 6.8 43.04 15.2 0 2.6-1.87 5.06-5.16 7.22Z" fill="#00A6D5"/>
      <path d="M442.58 224.46c1.12-2.14-6.8-8.52-17.69-14.26-10.89-5.75-20.63-8.68-21.75-6.55-1.13 2.13 6.8 8.51 17.68 14.26 10.9 5.75 20.64 8.68 21.76 6.55Z" fill="#46D6FA"/>
      <path d="M403.95 203.65c1.09-1.91-2.67-6.09-8.38-9.34-5.71-3.24-11.22-4.33-12.3-2.42-1.09 1.9 2.67 6.08 8.38 9.33 5.7 3.25 11.22 4.33 12.3 2.43Z" fill="#46D6FA"/>
      <path d="M404.83 202.9c1.54-1.36-2.03-7.92-7.97-14.64-5.94-6.72-12-11.07-13.54-9.71-1.53 1.35 2.03 7.9 7.97 14.63 5.94 6.73 12 11.07 13.54 9.72Z" fill="#46D6FA"/>
      <path d="M398.85 209.03c3.34-1.27 5.58-3.5 5.02-5-.57-1.5-3.74-1.68-7.07-.41-3.34 1.27-5.59 3.5-5.02 5 .56 1.5 3.73 1.67 7.07.4ZM312.35 224.5c.65-1.95-5.73-5.82-14.25-8.65-8.51-2.82-15.94-3.53-16.58-1.58-.65 1.94 5.73 5.81 14.24 8.64 8.52 2.82 15.94 3.53 16.6 1.58Z" fill="#46D6FA"/>
    </g>
  </g>
  <defs>
    <clipPath id="a">
      <path fill="#fff" d="M0 0h700v343.53H0z"/>
    </clipPath>
  </defs>
</svg>