<svg width="700" height="421" viewBox="0 0 700 421" fill="none" xmlns="http://www.w3.org/2000/svg">
  <g clip-path="url(#a)">
    <g opacity=".6">
      <path opacity=".6" d="M65 238c14 43.9 36.2 84.2 78.7 109 1.5.8 3 1.8 4.3 2.9 43.2 32.6 116.6 35.3 156-2.7a46 46 0 0 1 4.4-3.6c15-11.1 16.3-23 45.1-35C407 286.5 454 311.8 494.1 346c30 25.5 61.6 59.2 111.3 70.2 26.1 5.9 12.2-10.1 4.2-13.6-106.4-47-108.6-77.5-143.3-96.4-61.3-33.5-125.1-31.1-169 20.7-1.6 2-3.5 3.8-5.6 5.5-62.1 51.4-132.4 25.9-177.8-28.4a44.3 44.3 0 0 1-3.8-5.3c-16-26.3-33.7-62.6-36.8-92.1-2.2-20.9-15-24.5-15.3-5 0 3.3.4 6.7 1 9.9l4.9 22.2 1 4.2Z" fill="#FCC695"/>
      <path opacity=".6" d="m13.2 282.6 1.3 1.8c1 1.6 3.3 2 4.8.8l52.4-37c1.6-1 2-3.2.9-4.8l-1.3-1.8a3.5 3.5 0 0 0-4.8-.8l-52.5 37a3.5 3.5 0 0 0-.8 4.8ZM26.8 296.9l1.3 1.8c1 1.6 3.2 2 4.8.8L80 266.3c1.6-1 2-3.3.8-4.8l-1.2-1.8a3.5 3.5 0 0 0-4.9-.9l-47 33.3a3.5 3.5 0 0 0-.9 4.8ZM50.5 304.7l1.4 1.7a3.5 3.5 0 0 0 5 .4l30.1-25a3.5 3.5 0 0 0 .5-4.8l-1.4-1.7a3.5 3.5 0 0 0-5-.5l-30.1 25a3.5 3.5 0 0 0-.5 4.9Z" fill="#FCEE21"/>
      <path opacity=".6" d="m68.8 314.4 1.5 1.6a3.5 3.5 0 0 0 5 0l21-20.4a3.5 3.5 0 0 0 0-5l-1.5-1.5a3.5 3.5 0 0 0-5 0l-21 20.4a3.5 3.5 0 0 0 0 5ZM134.3 329.3l2.1.3c2 .2 3.7-1.1 4-3l1.5-11.2c.3-2-1-3.7-3-4l-2.1-.3c-2-.2-3.7 1.1-4 3l-1.5 11.2c-.3 2 1 3.7 3 4ZM149.7 339.3l2.2.3c1.9.1 3.6-1.3 3.8-3.2l2.8-29.2c.2-1.9-1.2-3.6-3.1-3.8l-2.2-.2c-2-.2-3.6 1.2-3.8 3.1l-2.9 29.3c-.1 1.9 1.3 3.6 3.2 3.7ZM169.9 352h2.2c1.9 0 3.5-1.5 3.5-3.4l1.4-52.2c0-2-1.5-3.5-3.4-3.6h-2.2c-1.9 0-3.5 1.4-3.5 3.4l-1.4 52.2c0 2 1.5 3.5 3.4 3.6ZM187.9 362.7l2.2.1c2 0 3.5-1.5 3.6-3.4l1.7-66.7c0-2-1.5-3.6-3.4-3.6h-2.2c-1.9-.1-3.5 1.4-3.5 3.3l-1.8 66.8c0 1.9 1.5 3.5 3.4 3.5ZM211.6 367l2.2.1c2 0 3.5-1.4 3.6-3.4l1.9-72.2c0-1.9-1.5-3.5-3.4-3.5h-2.2c-2-.1-3.5 1.4-3.6 3.3l-1.9 72.2c0 2 1.5 3.5 3.4 3.6ZM233.4 369.9h2.2c2 0 3.5-1.4 3.6-3.4l1.9-72.1c0-2-1.5-3.6-3.4-3.6h-2.2c-2-.1-3.5 1.4-3.6 3.3l-1.9 72.2c0 2 1.5 3.5 3.4 3.6ZM253.2 361.1h2.2c1.9.1 3.5-1.4 3.6-3.3l1.5-50.4c0-2-1.5-3.6-3.4-3.6H255c-2-.1-3.5 1.4-3.6 3.3l-1.5 50.4c0 2 1.5 3.6 3.4 3.6Z" fill="#FCED65"/>
      <path opacity=".6" d="m530.6 363 2.2-.1c1.9-.1 3.4-1.8 3.2-3.7l-1.7-29.6c-.2-2-1.8-3.4-3.7-3.3l-2.2.1c-2 .1-3.4 1.8-3.3 3.7l1.8 29.6c.1 2 1.8 3.4 3.7 3.3ZM571.4 386.2l2.2-.1c1.9-.1 3.4-1.8 3.2-3.7l-4.6-72.3c-.1-1.9-1.8-3.3-3.7-3.2l-2.2.1c-2 .2-3.4 1.8-3.2 3.7l4.6 72.3c.1 1.9 1.8 3.4 3.7 3.2ZM555.3 379.2l2.2-.1c2-.2 3.4-1.8 3.3-3.7l-3.5-54.6c-.2-2-1.8-3.4-3.7-3.2l-2.2.1c-2 .1-3.4 1.8-3.3 3.7l3.5 54.6c.2 1.9 1.8 3.3 3.7 3.2ZM590.5 403.2l2.2-.1c1.9-.1 3.3-1.8 3.2-3.7l-6.8-113.9c-.1-2-1.8-3.4-3.7-3.3l-2.2.2c-2 0-3.4 1.7-3.3 3.7l6.9 113.9c0 1.9 1.7 3.4 3.7 3.2Z" fill="#FCEE21"/>
      <path opacity=".6" d="M7 283.4c30.7 35.6 81 48 123.9 32.4 32.7-12 44.7-23.6 82-21.4 57 3.4 53.1 58.3 147.5 89.3 50.6 16.7 162.6-23.4 214.5-76.2 12.7-13 29.9-28.7 41.6-43a6 6 0 0 0 .4-7v-.2a6 6 0 0 0-9.5-.9l-26.8 28.7c-42.3 41.3-80.5 56.4-140.2 78.9-20.2 7.6-78.5 9.4-96.1-2.7-87-59.6-97.7-79.5-127.4-80.5-80-3-88.8 49.1-167.4 15.7l-1-.5-21.4-13.8-1-.8c-23.7-23.5-34-15.2-19.2 2Z" fill="#FCC695"/>
      <path opacity=".7" d="M323.7 349.5h2.3c1.9 0 3.4-1.7 3.3-3.6l-.3-11.3c0-2-1.7-3.5-3.6-3.4h-2.2c-1.9.1-3.4 1.7-3.3 3.6l.3 11.4c0 1.9 1.6 3.4 3.5 3.3Z" fill="#FCEE21"/>
      <path opacity=".6" d="M360.7 374.3h2.2c2-.1 3.5-1.7 3.4-3.6l-2-67.2c0-2-1.6-3.4-3.5-3.4l-2.2.1c-2 0-3.4 1.7-3.4 3.6l2 67.1c0 2 1.6 3.4 3.5 3.4ZM401.5 378.3l2.2-.2c2-.1 3.4-1.8 3.3-3.7l-5.2-81c-.1-2-1.8-3.4-3.7-3.3l-2.2.2c-2 .1-3.4 1.8-3.3 3.7l5.2 81c.2 2 1.8 3.4 3.7 3.3ZM380.7 373.2h2.2c1.9-.1 3.4-1.7 3.4-3.7l-2-66.2c0-1.9-1.6-3.4-3.5-3.3h-2.2c-2 0-3.5 1.7-3.4 3.6l2 66.2c0 2 1.6 3.4 3.5 3.4ZM418.6 375.3l2.2-.1c2 0 3.5-1.7 3.4-3.6l-2.3-79.8c0-1.9-1.6-3.4-3.6-3.3h-2.2c-1.9 0-3.4 1.7-3.3 3.6l2.3 79.8c0 2 1.6 3.4 3.5 3.4ZM436.3 374l2.2-.1c1.9-.1 3.3-1.8 3.2-3.7l-4.1-64.2c-.1-2-1.8-3.4-3.7-3.3l-2.2.2c-1.9 0-3.3 1.7-3.2 3.7l4 64.2c.2 1.9 1.9 3.3 3.8 3.2ZM453.6 366.4h2.2c2-.1 3.4-1.7 3.4-3.6l-1.4-47c0-2-1.6-3.5-3.5-3.4H452c-1.9.1-3.4 1.7-3.3 3.6l1.3 47c0 2 1.7 3.5 3.6 3.4ZM471.4 360.2h2.2c2 0 3.4-1.7 3.4-3.6L476 327c0-2-1.6-3.4-3.5-3.4h-2.2c-2 .1-3.5 1.7-3.4 3.6l.8 29.7c0 1.9 1.7 3.4 3.6 3.3ZM343.3 366.6l2.2-.1c1.9-.1 3.3-1.8 3.2-3.7l-3.3-52.2c-.2-1.9-1.8-3.3-3.7-3.2l-2.2.1c-2 .2-3.4 1.8-3.3 3.7l3.4 52.2c.1 1.9 1.7 3.4 3.7 3.2Z" fill="#FCED60"/>
    </g>
    <path d="M207 184.8v16.4a8.8 8.8 0 0 1-8.9 8.9h-74.8a4.8 4.8 0 0 0-4.8 4.8v33.7a4.8 4.8 0 0 0 5 4.7h4.4c17 0 32.5 2.7 46.3 8a75.6 75.6 0 0 1 32.5 22.6 50.4 50.4 0 0 1 11.6 32.5c0 19-8.8 34.5-26.4 46.4-17.7 11.9-40.8 17.8-69.6 17.8-23 0-43.6-3-61.8-9.2a8.8 8.8 0 0 1-6-8.4v-14.5a8.8 8.8 0 0 1 11.8-8.3c16.5 6 32.5 9 47.8 9 15 0 27.4-3 37.4-9s15-13.7 15-23c0-10.4-5.8-18.5-17.2-24.3-11.5-5.9-27-8.8-46.7-8.8-8.6 0-17 .7-25.5 1.8a4.8 4.8 0 0 1-5.5-4.7V180.7a4.8 4.8 0 0 1 4.8-4.8h121.7a8.8 8.8 0 0 1 8.9 8.9ZM354.9 173.3c28.2 0 50.6 9.2 67.2 27.6 16.5 18.5 24.8 43.6 24.8 75.5 0 32.2-8.1 57.7-24.5 76.3-16.4 18.6-38.7 27.9-67.1 27.9-28.7 0-51.5-9.3-68.2-27.7-16.7-18.5-25-43.8-25-75.9 0-32 8.3-57.3 25-75.9 16.5-18.5 39.2-27.8 67.8-27.8Zm-41 104.9c0 46.2 13.7 69.3 41 69.3 26.6 0 40-24.3 40-73 0-45.3-13.5-68-40.4-68-27 0-40.5 23.9-40.5 71.7ZM553.2 173.3c25.8 0 46.6 4.7 62.4 14 15.9 9.3 23.8 21.6 23.8 37 0 19-11 33.6-32.8 43.6a2.4 2.4 0 0 0 .2 4.5 61 61 0 0 1 27.4 17 45.9 45.9 0 0 1 11.4 31.2c0 17.9-8.7 32.4-26 43.4-17.3 11.1-40 16.6-68.2 16.6-19.8 0-39.4-3-58.1-9.3a8.9 8.9 0 0 1-6-8.4v-15.6a8.8 8.8 0 0 1 12.1-8.2 148 148 0 0 0 19 6.4c9.5 2.5 19.2 3.7 29 3.7 13 0 23.7-2.6 32-8 8.3-5.3 12.5-12.3 12.5-20.9 0-9.4-4.6-17-13.8-22.6a72 72 0 0 0-37.7-8.5 3.2 3.2 0 0 1-3.2-3.2v-25.8a2.4 2.4 0 0 1 2.4-2.4 71 71 0 0 0 35-7.1c8.3-4.8 12.5-11.3 12.5-19.4 0-8-4-14.4-12.2-19.3a59.8 59.8 0 0 0-31.1-7.3c-13 .1-25.8 2-38.3 5.6a8.9 8.9 0 0 1-11.2-8.5v-13.1a8.8 8.8 0 0 1 6.4-8.6c15.8-4.5 33.3-6.8 52.5-6.8Z" fill="#F7D2D2"/>
    <path d="M199.6 173.7v16.5a8.8 8.8 0 0 1-8.9 8.8H116a4.8 4.8 0 0 0-4.8 4.8v33.7a4.8 4.8 0 0 0 5.1 4.8h4.3c17 0 32.5 2.7 46.3 8a75.6 75.6 0 0 1 32.5 22.5 50.4 50.4 0 0 1 11.7 32.6c0 19-8.9 34.4-26.5 46.3-17.6 12-40.8 17.9-69.6 17.9-23 0-43.6-3.1-61.8-9.3a8.8 8.8 0 0 1-6-8.4v-14.5A8.8 8.8 0 0 1 59 329c16.5 6 32.4 9 47.8 9 14.9 0 27.3-3 37.3-9 10-6 15-13.7 15-23 0-10.3-5.8-18.4-17.2-24.3-11.4-5.8-27-8.7-46.7-8.7-8.5 0-17 .6-25.5 1.8a4.8 4.8 0 0 1-5.5-4.8V169.7a4.8 4.8 0 0 1 4.8-4.8h121.7a8.8 8.8 0 0 1 8.9 8.8ZM347.5 162.3c28.2 0 50.6 9.2 67.2 27.6 16.6 18.4 24.9 43.6 24.9 75.5 0 32.2-8.2 57.6-24.6 76.2-16.4 18.6-38.7 28-67 28-28.8 0-51.5-9.3-68.3-27.8-16.7-18.4-25-43.7-25-75.9 0-32 8.3-57.3 25-75.8 16.6-18.6 39.2-27.8 67.8-27.8ZM306.6 267c0 46.2 13.6 69.3 41 69.3 26.6 0 39.9-24.3 39.9-72.9 0-45.4-13.5-68.1-40.4-68.1-27 0-40.5 23.9-40.5 71.7ZM545.8 162.3c25.8 0 46.6 4.6 62.5 14 15.8 9.2 23.7 21.5 23.7 36.9 0 19-11 33.6-32.8 43.7a2.4 2.4 0 0 0 .2 4.4 61 61 0 0 1 27.4 17 45.9 45.9 0 0 1 11.4 31.2c0 18-8.6 32.4-26 43.5-17.2 11-40 16.6-68.2 16.5-19.7.1-39.3-3-58-9.3a8.8 8.8 0 0 1-6.1-8.3v-15.7A8.9 8.9 0 0 1 492 328a148 148 0 0 0 19 6.5c9.4 2.4 19.1 3.7 28.9 3.7 13 0 23.7-2.7 32-8 8.4-5.4 12.5-12.4 12.5-21 0-9.4-4.6-17-13.8-22.6a72 72 0 0 0-37.7-8.5 3.2 3.2 0 0 1-3.2-3.2v-25.7a2.4 2.4 0 0 1 2.4-2.4 71 71 0 0 0 35-7.2c8.3-4.8 12.5-11.2 12.5-19.3 0-8-4-14.5-12.2-19.3a59.8 59.8 0 0 0-31.1-7.3c-13 0-25.8 2-38.2 5.5a8.9 8.9 0 0 1-11.3-8.5v-13.1a8.8 8.8 0 0 1 6.4-8.5c15.8-4.6 33.3-6.8 52.5-6.8Z" fill="#B5B5EA"/>
    <path d="m89.8 166.1-17.7 16.5a3.6 3.6 0 1 0 4.9 5.2l17.7-16.4a3.6 3.6 0 1 0-4.9-5.3Z" fill="#D7D7F4"/>
    <path d="M128 248.8a8.9 8.9 0 1 0 0-17.7 8.9 8.9 0 0 0 0 17.7ZM182.4 264.7a12.4 12.4 0 1 0 0-24.7 12.4 12.4 0 0 0 0 24.7Z" fill="#FCF09A"/>
    <path d="m189.6 279.5-15.3 8.5a4.4 4.4 0 1 0 4.2 7.7L194 287a4.4 4.4 0 1 0-4.3-7.6ZM173 252.5l-14 6a3.4 3.4 0 0 0-1.9 4.5l.2.5a3.4 3.4 0 0 0 4.5 1.8l14.2-6a3.4 3.4 0 0 0 1.8-4.5l-.2-.4a3.4 3.4 0 0 0-4.5-1.9ZM130 243l-.5.3a3.4 3.4 0 0 0-.4 4.8l10 11.8a3.4 3.4 0 0 0 4.8.4l.4-.4a3.4 3.4 0 0 0 .4-4.8l-10-11.7a3.4 3.4 0 0 0-4.8-.4ZM167 355l-14 10.6a4.4 4.4 0 1 0 5.2 7l14.1-10.6a4.4 4.4 0 1 0-5.3-7ZM174 312a4.4 4.4 0 1 0-8.6 1.7L169 331a4.4 4.4 0 1 0 8.6-1.8l-3.6-17.3Z" fill="#DCDCF9"/>
    <path d="M321.9 357.4a15.2 15.2 0 1 0 0-30.4 15.2 15.2 0 0 0 0 30.4ZM176.2 360.5a14.7 14.7 0 1 0 0-29.4 14.7 14.7 0 0 0 0 29.4ZM167.7 312.8a14.7 14.7 0 1 0 0-29.4 14.7 14.7 0 0 0 0 29.4ZM66.1 205.5a12.3 12.3 0 1 0 0-24.6 12.3 12.3 0 0 0 0 24.6ZM149.2 276.3a12.4 12.4 0 1 0 0-24.7 12.4 12.4 0 0 0 0 24.7Z" fill="#FCF09A"/>
    <g opacity=".3">
      <path opacity=".3" d="M141.5 156.4a12.9 12.9 0 1 0 0-25.8 12.9 12.9 0 0 0 0 25.8ZM211.2 237.3a9.8 9.8 0 1 0 0-19.7 9.8 9.8 0 0 0 0 19.7Z" fill="#7474CE"/>
      <path opacity=".3" d="M139.4 316.8a10.7 10.7 0 1 0 0-21.5 10.7 10.7 0 0 0 0 21.5Z" fill="#F59188"/>
      <path opacity=".3" d="M233.4 406.3a4 4 0 1 0 0-8 4 4 0 0 0 0 8ZM206.6 168a4.3 4.3 0 1 0 0-8.7 4.3 4.3 0 0 0 0 8.6Z" fill="#7474CE"/>
      <path opacity=".3" d="M222.3 193.2a7.8 7.8 0 1 0 0-15.5 7.8 7.8 0 0 0 0 15.5ZM308.3 384.5a7.8 7.8 0 1 0 0-15.6 7.8 7.8 0 0 0 0 15.6Z" fill="#F59188"/>
      <path opacity=".3" d="M119.8 276a6.5 6.5 0 1 0 0-13.1 6.5 6.5 0 0 0 0 13Z" fill="#7474CE"/>
      <path opacity=".3" d="M116 213.1a4.9 4.9 0 1 0 0-9.8 4.9 4.9 0 0 0 0 9.8Z" fill="#F59188"/>
      <path opacity=".3" d="M147.3 237.2a4.7 4.7 0 1 0 0-9.4 4.7 4.7 0 0 0 0 9.4Z" fill="#7474CE"/>
    </g>
    <g opacity=".3">
      <path opacity=".3" d="M422.7 397.3a12.9 12.9 0 1 0 0-25.7 12.9 12.9 0 0 0 0 25.7ZM527.7 364.6a9.8 9.8 0 1 0 0-19.6 9.8 9.8 0 0 0 0 19.6Z" fill="#7474CE"/>
      <path opacity=".3" d="M513 260.1a10.7 10.7 0 1 0 0-21.5 10.7 10.7 0 0 0 0 21.5Z" fill="#F59188"/>
      <path opacity=".3" d="M645 227.3a4 4 0 1 0 0-8 4 4 0 0 0 0 8ZM487.7 409a4.3 4.3 0 1 0 0-8.5 4.3 4.3 0 0 0 0 8.6Z" fill="#7474CE"/>
      <path opacity=".3" d="M513 403.4a7.8 7.8 0 1 0 0-15.5 7.8 7.8 0 0 0 0 15.5ZM692.2 294.5a7.8 7.8 0 1 0 0-15.5 7.8 7.8 0 0 0 0 15.5Z" fill="#F59188"/>
      <path opacity=".3" d="M476.1 275a6.5 6.5 0 1 0 0-13.1 6.5 6.5 0 0 0 0 13Z" fill="#7474CE"/>
      <path opacity=".3" d="M438.4 321.6a4.9 4.9 0 1 0 0-9.8 4.9 4.9 0 0 0 0 9.8Z" fill="#F59188"/>
      <path opacity=".3" d="M477.8 319a4.7 4.7 0 1 0 0-9.3 4.7 4.7 0 0 0 0 9.4Z" fill="#7474CE"/>
    </g>
    <path d="M37 309.6c13.7 22.6 39 36.5 74.7 20.6 25.7-11.3 98.3-110 159-36.7 13.2 16 24.6 37.5 32.1 56.5a2.7 2.7 0 0 0 3.4 1.4l2.2-.8a2.3 2.3 0 0 0 1.6-3l-9.4-22c-51.2-99.7-114.5-78.8-186-6.4-.1.2-7 3.8-7.2 4-23.9 10.7-43.6 2.7-59.2-11.5-8-7.3-5.9-11-11.3-4a1.7 1.7 0 0 0 0 1.9Z" fill="#D7D7F4"/>
    <path opacity=".9" d="M40.2 304.2a3.7 3.7 0 0 0 5.6 5l5.5-6.4a3.7 3.7 0 0 0-5.6-4.9l-5.5 6.3ZM54 318.3a3.7 3.7 0 1 0 6.5 3.5l4-7.3a3.7 3.7 0 0 0-6.5-3.6l-4 7.4ZM69 324.8a3.7 3.7 0 0 0 7.2 1.9l2-8.2a3.7 3.7 0 0 0-7.1-1.8l-2.1 8.1ZM98 326.6a3.7 3.7 0 0 0 7.4-1.2l-1.3-8.3a3.7 3.7 0 0 0-7.3 1.2l1.3 8.3ZM120.3 313.4a3.7 3.7 0 0 0 5.7-4.6l-5.2-6.6a3.7 3.7 0 1 0-5.8 4.7l5.3 6.5ZM135.6 299.5a3.7 3.7 0 0 0 5.8-4.6l-5.3-6.6a3.7 3.7 0 1 0-5.8 4.7l5.3 6.5ZM151.6 286.5a3.7 3.7 0 0 0 5.8-4.6l-5.3-6.6a3.7 3.7 0 1 0-5.8 4.7l5.3 6.5ZM239.1 263a3.7 3.7 0 1 0 7 2.7l3-7.8a3.7 3.7 0 0 0-7-2.7l-3 7.8ZM252.3 267.9a3.7 3.7 0 1 0 6.5 3.5l4-7.4a3.7 3.7 0 0 0-6.5-3.5l-4 7.4ZM263.1 277.8a3.7 3.7 0 1 0 6.5 3.5l4-7.3a3.7 3.7 0 0 0-6.5-3.6l-4 7.4ZM290.3 312.5a3.7 3.7 0 1 0 4.6 5.8l6.6-5.3a3.7 3.7 0 1 0-4.7-5.7l-6.5 5.2ZM275.5 289a3.7 3.7 0 0 0 5.6 5l5.5-6.4a3.7 3.7 0 0 0-5.5-4.9l-5.6 6.3ZM300.9 327.4a3.7 3.7 0 0 0 4.1 6.1l7-4.7a3.7 3.7 0 1 0-4.2-6.1l-7 4.7ZM304.8 344.6a3.8 3.8 0 0 0 4.3 6.3l6.7-4.5a3.8 3.8 0 0 0-4.3-6.4l-6.7 4.6Z" fill="#B6F2B6"/>
    <path d="M260.4 339a3.6 3.6 0 1 0-4.3 5.9l19.4 14.4a3.6 3.6 0 1 0 4.3-5.8L260.4 339ZM362 375.7a3.6 3.6 0 1 0-7.2 0V400a3.6 3.6 0 1 0 7.2 0v-24.2ZM331.3 345.5a3.6 3.6 0 1 0-3.6 6.2l20.9 12a3.6 3.6 0 1 0 3.6-6.1l-21-12.1ZM309.5 343.3l-20.9 12a3.6 3.6 0 1 0 3.6 6.3l21-12.1a3.6 3.6 0 1 0-3.7-6.2ZM240.4 340.2l-18.2 16a3.6 3.6 0 1 0 4.8 5.4l18.1-16a3.6 3.6 0 1 0-4.7-5.4Z" fill="#DCDCF9"/>
    <path d="M250.4 349.5a12.9 12.9 0 1 0 0-25.8 12.9 12.9 0 0 0 0 25.8ZM285.7 374.1a11.5 11.5 0 1 0 0-23 11.5 11.5 0 0 0 0 23Z" fill="#F9EE9D"/>
    <path opacity=".9" d="M358.6 420.8a10.4 10.4 0 1 0 0-20.9 10.4 10.4 0 0 0 0 20.9Z" fill="#FCF2A7"/>
    <path d="M360.2 379.1c7.1-1 12.1-7.7 11.1-15s-7.6-12.4-14.7-11.4c-7.2 1-12.2 7.7-11.2 15s7.7 12.4 14.8 11.4Z" fill="#FCF2A7"/>
    <path d="M147.6 385a9.8 9.8 0 1 0 0-19.6 9.8 9.8 0 0 0 0 19.5ZM513.8 176.6a8.9 8.9 0 1 0 0-17.7 8.9 8.9 0 0 0 0 17.7ZM560 211.4a12.4 12.4 0 1 0 0-24.7 12.4 12.4 0 0 0 0 24.7Z" fill="#FCF09A"/>
    <path d="m601.7 259.5-15.4 8.6a4.4 4.4 0 1 0 4.3 7.7l15.4-8.6a4.4 4.4 0 1 0-4.3-7.7ZM551.3 195.8l-15.3.4a3.4 3.4 0 0 0-3.4 3.6v.5c.1 1.9 1.7 3.4 3.6 3.3l15.4-.5c1.8 0 3.3-1.6 3.3-3.5v-.5c-.1-2-1.7-3.4-3.6-3.3ZM514.5 171.3l-.5.1a3.4 3.4 0 0 0-2 4.4l4.9 14.5a3.4 3.4 0 0 0 4.4 2.2l.5-.2a3.4 3.4 0 0 0 2-4.4l-4.9-14.5a3.4 3.4 0 0 0-4.4-2.1ZM579.1 335.1l-14 10.5a4.4 4.4 0 1 0 5.2 7l14-10.5a4.4 4.4 0 1 0-5.2-7ZM586 292a4.4 4.4 0 1 0-8.5 1.9l3.6 17.2a4.4 4.4 0 1 0 8.6-1.8L586 292Z" fill="#DCDCF9"/>
    <path d="M588.2 340.6a14.7 14.7 0 1 0 0-29.4 14.7 14.7 0 0 0 0 29.4ZM579.7 292.9a14.7 14.7 0 1 0 0-29.4 14.7 14.7 0 0 0 0 29.4ZM524.9 210.1a12.4 12.4 0 1 0 0-24.7 12.4 12.4 0 0 0 0 24.7ZM559.6 365a9.8 9.8 0 1 0 0-19.5 9.8 9.8 0 0 0 0 19.5ZM216.8 379.2a13 13 0 1 0 0-26 13 13 0 0 0 0 26Z" fill="#FCF09A"/>
    <g>
      <path d="M348.7 287.4a92.5 92.5 0 1 0 0-185 92.5 92.5 0 0 0 0 185Z" fill="#6BF2F9"/>
      <path d="M238 190.8c14.2-4.8 24.8-11.1 23.8-14.2-1-3-13.3-1.6-27.4 3.3-14.2 4.8-24.8 11.1-23.7 14.2 1 3 13.3 1.5 27.4-3.3Z" fill="#46D6FA"/>
      <path d="M230 181c9-8.7 14.8-17.3 13-19-1.7-1.8-10.3 4-19.2 12.7-9 8.9-14.8 17.4-13 19.2 1.6 1.7 10.3-4 19.2-12.8ZM472.3 216.8c2.4-2.2-3.6-13-13.4-24.2s-19.7-18.6-22.1-16.5c-2.4 2 3.6 12.9 13.4 24.1 9.8 11.3 19.7 18.7 22.1 16.6Z" fill="#46D6FA"/>
      <path opacity=".3" d="M437.7 213c0 5-3 19.1-7.6 26.7-3.8 6.5-6.4 11.4-15 20.3a80.3 80.3 0 0 1-21.7 16c-8 4.1-23.4 10.2-28.3 9.6-12-1.8 38.5-17.7 42.2-24.6 3.7-6.8 8.1-6.7 14-15.8 6.7-10.1 12.1-28.8 13.2-35.8 1-6.7 3.1-6.4 3.2 3.6Z" fill="#00A7D5"/>
      <path d="M326.9 225.1c-6.1 5.7-26-15-26-15 6.7 3 21.1 10.4 26 15Z" fill="#6969A3"/>
      <path d="M436.8 18A9 9 0 1 0 433.5.2a9 9 0 0 0 3.3 17.8Z" fill="#6BF2F9"/>
      <path d="M438.4 10.6a3.6 3.6 0 0 0 1 5l11.9 8.2a3.6 3.6 0 0 0 4-6l-12-8a3.6 3.6 0 0 0-5 .8Z" fill="#C3D7E2"/>
      <path d="M462.4 51.4a17.4 17.4 0 1 0 0-34.7 17.4 17.4 0 0 0 0 34.7Z" fill="#46D6FA"/>
      <path d="M462.5 38a6.5 6.5 0 0 0-4 8.2L467 71a6.5 6.5 0 0 0 12.3-4.2L470.8 42a6.5 6.5 0 0 0-8.3-4Z" fill="#C3D7E2"/>
      <path d="M476.6 127.7a29.5 29.5 0 1 0 0-59 29.5 29.5 0 0 0 0 59Z" fill="#00A6D5"/>
      <path d="m449.6 101.8-34.5 22.9a10.3 10.3 0 0 0 11.4 17.2L461 119a10.3 10.3 0 1 0-11.4-17.2Z" fill="#C3D7E2"/>
      <path d="M490.8 91.8c1-5-3.1-10-9.2-11.1-6-1.2-11.7 1.9-12.6 6.9-1 5 3 10 9.1 11.2 6 1.2 11.7-2 12.7-7Z" fill="#61D8E5"/>
      <path d="M301.8 58.2a8.8 8.8 0 1 0-8.5-15.4 8.8 8.8 0 0 0 8.5 15.4Z" fill="#6BF2F9"/>
      <path d="M270.5 49a3.6 3.6 0 0 1 3.8-3.2l14.4 1a3.6 3.6 0 0 1 2.1 6.4c-.7.6-1.6 1-2.6.8l-14.4-1a3.6 3.6 0 0 1-3.3-4Z" fill="#C3D7E2"/>
      <path d="M263.6 67.5a16.6 16.6 0 1 0 0-33.2 16.6 16.6 0 0 0 0 33.2Z" fill="#46D6FA"/>
      <path d="M232.7 77.6a6.2 6.2 0 0 1 .5-8.8l18.7-16.6a6.2 6.2 0 0 1 8.3 9.4L241.4 78a6.2 6.2 0 0 1-8.7-.5Z" fill="#C3D7E2"/>
      <path d="M223.5 127a29.5 29.5 0 1 0 0-59 29.5 29.5 0 0 0 0 59Z" fill="#00A6D5"/>
      <path d="M237.6 107a10.3 10.3 0 0 0 3 14.2L275 144a10.3 10.3 0 1 0 11.4-17.2L251.8 104a10.3 10.3 0 0 0-14.3 3Z" fill="#C3D7E2"/>
      <path d="M218.2 95c6-1.3 10.1-6.3 9.1-11.3-1-5-6.6-8-12.6-7-6 1.2-10.2 6.3-9.2 11.3 1 5 6.6 8 12.7 7Z" fill="#6BF2F9"/>
      <path d="M455.1 228.4c11.5-5 20.1-11 19.1-13.2-1-2.3-11.1 0-22.7 5-11.5 5-20 10.9-19 13.2.9 2.2 11 0 22.6-5Z" fill="#46D6FA"/>
      <path d="M437 257.5c2.1-.3 3.2-6 2.2-12.6-.9-6.6-3.4-11.7-5.6-11.4-2.2.3-3.3 6-2.4 12.5 1 6.7 3.5 11.8 5.7 11.5Z" fill="#46D6FA"/>
      <path d="M433 250.2c1.7-9 1.4-16.6-.6-17-2-.4-5.2 6.6-6.9 15.5-1.7 9-1.5 16.6.6 17 2 .4 5-6.5 6.8-15.5Z" fill="#46D6FA"/>
      <path d="M445.1 240.2c.9-1.4-1-4-4-6-3.1-1.9-6.3-2.3-7.2-1-.9 1.5 1 4.1 4 6 3.2 2 6.4 2.4 7.2 1ZM256 166.4c7.3-.3 13-2.5 13-4.8-.2-2.3-6.1-3.9-13.4-3.5-7.2.3-13 2.5-12.9 4.8.2 2.3 6.1 3.9 13.3 3.5Z" fill="#46D6FA"/>
      <path d="M260.5 158.4c9-3.9 15.6-8.6 14.7-10.6-.8-2-8.8-.6-17.8 3.3-9 3.8-15.5 8.5-14.7 10.6.9 2 8.9.5 17.8-3.3Z" fill="#46D6FA"/>
      <path d="M252.1 173.1c1.3-1.2.1-4.4-2.5-7.2s-5.8-4.2-7-3c-1.3 1.2-.2 4.4 2.5 7.2 2.6 2.8 5.8 4.2 7 3ZM348.7 202.2c24.3 0 44-12 44-26.6 0-14.6-19.7-26.5-44-26.5-24.2 0-43.9 11.9-43.9 26.5 0 14.7 19.7 26.6 44 26.6Z" fill="#46D6FA"/>
      <path d="M391.9 182.3c0 11-19 19.9-42.4 19.9s-42.4-9-42.4-20c0-5.7 5.3-11 13.7-14.6a74 74 0 0 1 28.7-5.3h1.1c22.9.3 41.3 9.1 41.3 20Z" fill="#fff"/>
      <path d="M351.7 169.8v.5a15.7 15.7 0 0 1-31.3 0v-.5c0-.8 0-1.5.2-2.2a71.6 71.6 0 0 1 28.2-5.3h1c1.3 2.3 2 4.9 1.9 7.5Z" fill="#6969A3"/>
      <path d="M333 178.6a6.6 6.6 0 1 0 0-13.2 6.6 6.6 0 0 0 0 13.2Z" fill="#fff"/>
      <path d="M395.6 176.2c0 3.3-2 6.3-5.5 9 1-1 1.6-2.4 1.7-3.9 0-5.6-10.6-10.5-25.7-12.6a113.4 113.4 0 0 0-24.7-.9l-7.9.7c-15.5 2-26.5 7-26.5 12.8 0 .7.1 1.3.4 1.9a10 10 0 0 1-3.3-7c0-8.3 13.3-15.4 31.6-17.9 9.3-1.2 18.8-1.2 28.1 0 18.5 2.4 31.8 9.5 31.8 18Z" fill="#00A6D5"/>
    </g>
  </g>
  <defs>
    <clipPath id="a">
      <path fill="#fff" d="M0 0h700v420.8H0z"/>
    </clipPath>
  </defs>
</svg>