<svg xmlns="http://www.w3.org/2000/svg" viewBox="0 0 622.4 566.4">
  <defs>
    <style>
      .cls-12{fill:#f7d2d2}.cls-6{fill:#c3d7e2}.cls-9{fill:#fff171}.cls-10{fill:#fcc695}.cls-11{fill:#fcee21}.cls-14{fill:#6969a3}.cls-16{fill:#6bf2f9}.cls-17{fill:#46d6fa}.cls-18{fill:#00a6d5}.cls-21{fill:#fff}
    </style>
  </defs>
  <g id="Layer_2" data-name="Layer 2">
    <g id="no_page_results" data-name="no page results">
      <path d="M546 356c7 0 1 98-87 103-125 8-94 79-148 74-19-2-44-22-44-22-67-4-8-35-96-36-47 0-104-43-79-72 14-16 63-19 76-16 54 12 67-67 225-36 24 5 45 4 153 5Z" style="opacity:.8;fill:#f7d2d2"/>
      <path style="fill:#f5ffff" d="m564 367-183 11-79-94 212-43 50 126z"/>
      <path style="fill:#f7f7f7" d="m538 348-61-58-65-25 93-4 33 87z"/>
      <path style="fill:#b5b5ea" d="m287 370-154 33-97-105 168-75 83 147z"/>
      <path d="M355 481c-53-28-16-68 47-80 15-3 0 53 58 34 21-7 75-32 88-22 8 7-1 35-13 40-19 9-38 8-49 22-18 23 12 43-26 53-25 6-39-11-59-17-13-3-44 15-52 7-6-6 14-33 6-37Z" style="opacity:.6;fill:#f9ee9d"/>
      <path class="cls-6" d="m180 240-76 43-23 34-29-35 128-42z"/>
      <path d="M257 337c0 37-35 32-77 32-28 0-67 12-80-7-8-11 17-31 17-44 0-14-44-37-36-48 14-18 57 5 84 5 20 0 37-11 51 0 16 13 41 42 41 62Z" style="fill:#b6f2b6;opacity:.9"/>
      <g id="DNA" style="opacity:.6">
        <path class="cls-9" d="M195 435a4 4 0 0 0 5 3l27-2a5 5 0 0 0 4-4 4 4 0 0 0-4-4l-27 2a5 5 0 0 0-5 5Z"/>
        <path class="cls-10" d="M95 78c48 8 92 22 120 57a35 35 0 0 0 3 4 99 99 0 0 1 1 139 48 48 0 0 0-3 4c-12 15-25 18-37 45-22 50 6 89 44 121 28 23 66 47 79 90 7 23-11 12-15 6-53-89-86-88-108-116-37-51-36-108 18-153a50 50 0 0 0 6-6c54-62 24-121-35-155a44 44 0 0 0-6-3c-29-11-68-22-100-21-23 0-27-11-6-13a56 56 0 0 1 11-1l24 2h4Z"/>
        <path class="cls-9" d="M71 83a6 6 0 0 0 7-1l40-52a4 4 0 0 0-2-6 6 6 0 0 0-7 2L69 78a4 4 0 0 0 2 5Zm26 1a6 6 0 0 0 7-2l32-40c2-2 1-4-1-5a6 6 0 0 0-7 1L96 78c-2 2-1 5 1 6Zm21 4a6 6 0 0 0 7-1l23-24c1-2 1-4-1-6a6 6 0 0 0-7 1l-23 25c-2 2-1 4 1 5Zm18 6c2 1 5 2 6 0l15-12c1-1 1-3-2-5h-6l-14 12c-2 1-1 3 1 5Zm21 40c0 3 4 4 9 3l16-4c4-1 8-3 7-6 0-2-4-3-9-2l-16 4c-4 1-8 3-7 5Zm-6 15c0 3 3 4 7 3l40-7c4-1 6-3 6-5s-4-4-7-3l-40 7c-4 1-7 3-6 5Zm21 100c0 2 3 3 7 3l40-7c4-1 6-3 6-6 0-2-4-3-7-2l-40 7c-4 0-7 3-6 5Zm-31-79c0 3 3 4 6 3l64-15c4-1 6-4 5-6 0-2-3-3-6-3l-64 16c-3 1-6 3-5 5Zm5 16c1 3 3 4 6 3l71-17c3-1 5-3 5-5-1-3-3-4-6-3l-71 17c-3 1-5 3-5 5Zm0 12c0 2 3 3 6 3l78-10c3 0 5-2 5-5 0-2-2-4-5-3l-79 10c-3 0-5 2-5 5Zm4 18c0 2 3 4 6 3l78-10c3 0 5-2 5-4 0-3-2-4-5-4l-79 10c-3 0-5 3-5 5Zm17 16c0 3 3 4 6 4l54-7c3 0 5-2 5-5 0-2-3-4-6-3l-54 7c-3 0-5 2-5 4Zm42 251c0 2 2 4 4 3l28-3c2 0 4-2 4-4s-2-4-4-3l-28 3c-2 0-4 2-4 4Zm-28 37c0 2 3 4 6 4l83-8c3-1 6-3 6-5s-3-4-6-4l-83 8c-3 1-6 3-6 5Zm19-20c0 2 2 4 4 3l55-5c3 0 5-2 5-5 0-2-2-4-5-3l-55 5c-2 0-4 2-4 5Zm-37 40c0 3 2 4 4 4l117-12c3-1 5-3 5-5s-2-4-5-4l-117 13c-2 0-4 2-4 4Z"/>
        <path class="cls-10" d="M118 17c42 21 60 64 46 105-11 31-23 44-17 77 8 50 69 38 111 117 23 42-13 149-68 204-13 14-30 32-45 44a8 8 0 0 1-8 2c-4-1-5-5-2-8l30-29c43-45 57-81 78-138 7-20 4-72-11-86-74-68-97-74-100-100-10-71 48-88 4-152a5 5 0 0 0-1-1l-17-17a5 5 0 0 0-1-1c-28-17-19-28 1-17Z"/>
        <path class="cls-11" d="M197 296c0 3 2 4 5 4l11-1c2 0 5-2 5-4 0-3-3-4-5-4l-11 1c-3 0-5 2-5 4Z"/>
        <path class="cls-9" d="M163 332c0 2 3 4 5 4l74-6c2-1 5-3 5-5s-3-4-5-4l-74 6c-2 1-5 3-5 5Z"/>
        <path class="cls-11" d="M153 366c0 3 2 4 5 4l89-5c3 0 5-2 6-4 0-2-3-4-5-4l-89 5c-3 0-6 2-6 4Zm1-16c0 2 3 4 6 4l80-6c3-1 6-3 6-5s-2-4-6-4l-80 7c-3 0-6 2-6 4Zm-2 35c0 2 2 4 5 3l87-7c3 0 6-2 6-4 0-3-3-4-6-4l-87 7c-3 0-5 3-5 5Zm17 12c-1 2 2 4 5 4l70-4c2 0 5-2 5-4 0-3-2-4-5-4l-70 4c-3 0-5 2-5 4Zm11 17c0 2 2 4 5 4l51-4c2-1 5-3 5-5s-3-4-5-4l-51 5c-3 0-5 2-5 4Z"/>
        <path class="cls-9" d="M171 314c0 2 2 4 5 4l56-3c3-1 5-3 6-5 0-2-3-4-5-4l-57 3c-3 1-5 3-5 5Z"/>
      </g>
      <ellipse class="cls-12" cx="466.1" cy="197.6" rx="8.7" ry="8.9" transform="rotate(-29 466 198)"/>
      <ellipse class="cls-12" cx="484.4" cy="181.5" rx="11.6" ry="11.9" transform="rotate(-29 484 182)"/>
      <ellipse class="cls-12" cx="508.4" cy="198.9" rx="8.7" ry="8.9" transform="rotate(-29 508 199)"/>
      <ellipse class="cls-12" cx="520.4" cy="222.1" rx="8.7" ry="8.9" transform="rotate(-28 520 219)"/>
      <ellipse class="cls-12" cx="456.4" cy="221.1" rx="8.7" ry="8.9" transform="rotate(-29 456 221)"/>
      <ellipse class="cls-12" cx="454.5" cy="249.2" rx="8.7" ry="8.9" transform="rotate(-29 455 249)"/>
      <ellipse class="cls-12" cx="468" cy="282.4" rx="8.7" ry="8.9" transform="rotate(-29 468 282)"/>
      <ellipse class="cls-12" cx="520.6" cy="245.7" rx="8.7" ry="8.9" transform="rotate(-29 521 246)"/>
      <ellipse class="cls-12" cx="517.8" cy="269.6" rx="8.7" ry="8.9" transform="rotate(-29 518 270)"/>
      <ellipse class="cls-12" cx="501.7" cy="288.5" rx="8.7" ry="8.9" transform="rotate(-29 502 288)"/>
      <ellipse class="cls-12" cx="463.9" cy="162.2" rx="8.7" ry="8.9" transform="rotate(-29 464 162)"/>
      <ellipse class="cls-12" cx="505.4" cy="161.9" rx="8.7" ry="8.9" transform="rotate(-29 505 162)"/>
      <ellipse class="cls-12" cx="510.6" cy="143.6" rx="5.8" ry="5.9" transform="rotate(-29 511 144)"/>
      <ellipse class="cls-12" cx="454.1" cy="140.5" rx="5.8" ry="5.9" transform="rotate(-29 454 140)"/>
      <ellipse class="cls-12" cx="451.7" cy="121.5" rx="5.8" ry="5.9" transform="rotate(-29 452 122)"/>
      <ellipse class="cls-12" cx="512.7" cy="125.5" rx="5.8" ry="5.9" transform="rotate(-29 513 126)"/>
      <ellipse class="cls-12" cx="451" cy="105.6" rx="5.8" ry="5.9" transform="rotate(-29 451 106)"/>
      <ellipse class="cls-12" cx="516.8" cy="106.4" rx="5.8" ry="5.9" transform="rotate(-29 517 106)"/>
      <ellipse class="cls-12" cx="514.1" cy="86.8" rx="2.9" ry="3" transform="rotate(-29 514 87)"/>
      <ellipse class="cls-12" cx="453" cy="86.3" rx="2.9" ry="3" transform="rotate(-29 453 86)"/>
      <ellipse class="cls-10" cx="503.5" cy="396" rx="8.3" ry="8.7" transform="rotate(-27 503 396)"/>
      <ellipse class="cls-10" cx="485.6" cy="410.9" rx="11.1" ry="11.7" transform="rotate(-27 486 411)"/>
      <ellipse class="cls-10" cx="462.8" cy="393.1" rx="8.3" ry="8.7" transform="rotate(-27 463 393)"/>
      <ellipse class="cls-10" cx="451.7" cy="370" rx="8.3" ry="8.7" transform="rotate(-27 452 370)"/>
      <ellipse class="cls-10" cx="513.2" cy="373.4" rx="8.3" ry="8.7" transform="rotate(-27 513 373)"/>
      <ellipse class="cls-10" cx="515.5" cy="346.1" rx="8.3" ry="8.7" transform="rotate(-27 515 346)"/>
      <ellipse class="cls-10" cx="503.1" cy="313.2" rx="8.3" ry="8.7" transform="rotate(-27 503 313)"/>
      <ellipse class="cls-10" cx="451.9" cy="347" rx="8.3" ry="8.7" transform="rotate(-27 452 347)"/>
      <ellipse class="cls-10" cx="455.1" cy="323.9" rx="8.3" ry="8.7" transform="rotate(-27 455 324)"/>
      <ellipse class="cls-10" cx="470.9" cy="306" rx="8.3" ry="8.7" transform="rotate(-27 471 306)"/>
      <ellipse class="cls-10" cx="504.9" cy="430.6" rx="8.3" ry="8.7" transform="rotate(-27 505 431)"/>
      <ellipse class="cls-10" cx="465" cy="429.2" rx="8.3" ry="8.7" transform="rotate(-27 465 429)"/>
      <ellipse class="cls-10" cx="459.7" cy="447" rx="5.5" ry="5.8" transform="rotate(-27 460 447)"/>
      <ellipse class="cls-10" cx="514" cy="452.1" rx="5.5" ry="5.8" transform="rotate(-27 514 452)"/>
      <ellipse class="cls-10" cx="515.9" cy="470.7" rx="5.5" ry="5.8" transform="rotate(-27 516 471)"/>
      <ellipse class="cls-10" cx="457.4" cy="464.5" rx="5.5" ry="5.8" transform="rotate(-27 457 464)"/>
      <ellipse class="cls-10" cx="516.3" cy="486.2" rx="5.5" ry="5.8" transform="rotate(-27 516 486)"/>
      <ellipse class="cls-10" cx="453.1" cy="483" rx="5.5" ry="5.8" transform="rotate(-27 453 483)"/>
      <ellipse class="cls-10" cx="455.4" cy="502.1" rx="2.8" ry="2.9" transform="rotate(-27 455 502)"/>
      <ellipse class="cls-10" cx="514" cy="505" rx="2.8" ry="2.9" transform="rotate(-27 514 505)"/>
    </g>
  </g>
</svg>
