<svg xmlns="http://www.w3.org/2000/svg" viewBox="0 0 697.2 653.9">
  <defs>
    <style>
      .cls-2{fill:#61d8e5}.cls-3{fill:#d9e021}.cls-6{fill:#fcc695}.cls-7{fill:#fcee21}.cls-8{fill:#fced65}.cls-10{fill:#fced60}.cls-11{fill:#00f;opacity:.2}.cls-13{fill:#f9eb6e}.cls-13,.cls-16,.cls-23{opacity:.9}.cls-14{fill:#fcf09a}.cls-15{fill:#dcdcf9}.cls-16,.cls-17{fill:#fcf2a7}.cls-18{fill:#f9ee9d}.cls-19{fill:#f7d2d2}.cls-21{fill:#7474ce}.cls-22{fill:#f59188}.cls-23{fill:#b6f2b6}.cls-28{fill:#6bf2f9}.cls-29{fill:#46d6fa}.cls-30{fill:#6969a3}.cls-32{fill:#c3d7e2}.cls-33{fill:#00a6d5}
    </style>
  </defs>
  <g id="Layer_2" data-name="Layer 2">
    <g id="dna" opacity=".5">
      <path class="cls-2" d="M645 99c-48 3-94 15-129 51a43 43 0 0 1-4 4c-44 35-66 108-38 157a47 47 0 0 1 3 5c7 18 19 22 23 54 9 60-29 100-73 132-34 23-76 46-99 93-13 25 7 15 12 8 75-95 106-89 134-119 49-53 63-118 22-175a46 46 0 0 1-4-7c-36-75 8-139 74-171a45 45 0 0 1 6-2c31-9 72-18 102-13 22 3 28-9 9-14a45 45 0 0 0-10-2l-24-1h-4Z"/>
      <rect class="cls-3" x="620.7" y="33.9" width="9.5" height="73.5" rx="4.7" transform="rotate(-21 625 71)"/>
      <rect class="cls-3" x="601.7" y="44.1" width="9.5" height="66.8" rx="4.7" transform="rotate(-21 606 77)"/>
      <rect class="cls-3" x="586.2" y="65.9" width="9.5" height="47.7" rx="4.7" transform="rotate(-25 591 90)"/>
      <rect class="cls-3" x="570.9" y="81.5" width="9.5" height="37.6" rx="4.7" transform="rotate(-30 576 100)"/>
      <rect class="cls-3" x="539.2" y="140.4" width="9.5" height="18.9" rx="4.7" transform="rotate(-68 544 150)"/>
      <rect class="cls-3" x="534.1" y="146.8" width="9.5" height="37.6" rx="4.7" transform="rotate(-70 539 166)"/>
      <rect class="cls-3" x="528.2" y="154" width="9.5" height="61.3" rx="4.7" transform="rotate(-74 533 185)"/>
      <rect class="cls-3" x="520" y="163.8" width="9.5" height="76.3" rx="4.7" transform="rotate(-74 525 202)"/>
      <rect class="cls-3" x="512.3" y="184.4" width="9.5" height="81.9" rx="4.7" transform="rotate(-74 517 225)"/>
      <rect class="cls-3" x="503.9" y="205.6" width="9.5" height="81.9" rx="4.7" transform="rotate(-74 509 247)"/>
      <rect class="cls-3" x="495.9" y="234.4" width="9.5" height="59.4" rx="4.7" transform="rotate(-74 501 264)"/>
      <rect class="cls-3" x="411" y="518.5" width="9.5" height="37.9" rx="4.7" transform="rotate(-79 416 537)"/>
      <rect class="cls-3" x="401.8" y="536.4" width="9.5" height="82.1" rx="4.7" transform="rotate(-79 407 577)"/>
      <rect class="cls-3" x="403.9" y="529.6" width="9.5" height="63.8" rx="4.7" transform="rotate(-79 409 561)"/>
      <rect class="cls-3" x="398" y="533" width="9.5" height="125" rx="4.7" transform="rotate(-79 403 596)"/>
      <path d="M615 30c-44 21-69 68-65 115 4 36 12 51 1 88-19 56-72 38-128 125-30 46-18 169 21 234 10 16 21 38 33 53a6 6 0 0 0 6 2h1a6 6 0 0 0 3-9l-22-34c-30-53-36-95-43-161-2-22 11-81 28-95 82-72 104-78 113-107 24-80-26-102 28-172a7 7 0 0 1 0-1l20-18a6 6 0 0 1 1-1c29-17 24-30 3-19Z" fill="#45cebd"/>
      <rect class="cls-3" x="471" y="323.7" width="9.5" height="18.9" rx="4.7" transform="rotate(-77 476 333)"/>
      <rect class="cls-3" x="464.9" y="331.9" width="9.5" height="76.7" rx="4.7" transform="rotate(-77 470 370)"/>
      <rect class="cls-3" x="457.8" y="364.5" width="9.5" height="91.2" rx="4.7" transform="rotate(-79 463 410)"/>
      <rect class="cls-3" x="460.4" y="352.6" width="9.5" height="75.7" rx="4.7" transform="rotate(-77 465 390)"/>
      <rect class="cls-3" x="455.4" y="384.6" width="9.5" height="89.8" rx="4.7" transform="rotate(-77 460 429)"/>
      <rect class="cls-3" x="444.6" y="407.5" width="9.5" height="73.8" rx="4.7" transform="rotate(-79 449 444)"/>
      <rect class="cls-3" x="438.8" y="435.1" width="9.5" height="55.8" rx="4.7" transform="rotate(-77 444 463)"/>
      <rect class="cls-3" x="431.6" y="461.6" width="9.5" height="37.9" rx="4.7" transform="rotate(-77 436 481)"/>
      <rect class="cls-3" x="469.7" y="321.3" width="9.5" height="61.3" rx="4.7" transform="rotate(-79 474 352)"/>
    </g>
    <g id="dna2" opacity=".6">
      <path class="cls-6" d="M182 600c39-27 71-62 83-111a44 44 0 0 1 1-5c19-52-1-125-50-152a46 46 0 0 1-5-4c-16-11-28-9-49-33-38-46-27-100-6-150 16-37 39-78 35-131-2-27-14-8-15 0-13 119-42 131-50 171-14 70 7 132 72 159a46 46 0 0 1 7 4c69 45 66 122 27 183a46 46 0 0 1-4 6c-21 24-51 52-80 64-19 9-19 23 0 17a45 45 0 0 0 10-4l20-12 4-2Z"/>
      <rect class="cls-7" x="208.4" y="577.3" width="9.4" height="73.1" rx="4.7" transform="rotate(127 213 614)"/>
      <rect class="cls-7" x="220.9" y="564.9" width="9.4" height="66.4" rx="4.7" transform="rotate(127 226 598)"/>
      <rect class="cls-7" x="227.7" y="556" width="9.4" height="47.4" rx="4.7" transform="rotate(123 232 580)"/>
      <rect class="cls-8" x="235.1" y="544" width="9.4" height="37.4" rx="4.7" transform="rotate(118 240 563)"/>
      <rect class="cls-8" x="235.9" y="494.8" width="9.4" height="18.8" rx="4.7" transform="rotate(80 241 504)"/>
      <rect class="cls-8" x="232.1" y="469.6" width="9.4" height="37.4" rx="4.7" transform="rotate(78 237 488)"/>
      <rect class="cls-8" x="227.1" y="438.6" width="9.4" height="60.9" rx="4.7" transform="rotate(74 232 469)"/>
      <rect class="cls-8" x="225" y="412.2" width="9.4" height="75.8" rx="4.7" transform="rotate(74 230 450)"/>
      <rect class="cls-8" x="219.3" y="385.5" width="9.4" height="81.5" rx="4.7" transform="rotate(74 224 426)"/>
      <rect class="cls-8" x="215.3" y="363.3" width="9.4" height="81.5" rx="4.7" transform="rotate(74 220 404)"/>
      <rect class="cls-8" x="212.9" y="355.4" width="9.4" height="59" rx="4.7" transform="rotate(74 218 385)"/>
      <rect class="cls-7" x="141.8" y="90.5" width="9.4" height="37.6" rx="4.7" transform="rotate(69 146 109)"/>
      <rect class="cls-7" x="128.7" y="29.8" width="9.4" height="81.7" rx="4.7" transform="rotate(69 133 71)"/>
      <rect class="cls-7" x="135.2" y="53.6" width="9.4" height="63.4" rx="4.7" transform="rotate(69 140 85)"/>
      <rect class="cls-7" x="122.5" y="-8.8" width="9.4" height="124.3" rx="4.7" transform="rotate(69 127 53)"/>
      <path class="cls-6" d="M244 643c26-41 22-95-6-132-22-28-37-36-46-74-14-57 41-70 42-172 1-55-73-152-141-187-16-9-37-21-55-28a6 6 0 0 0-7 2 6 6 0 0 0 2 10l37 17c53 29 80 62 120 113 14 18 34 75 27 96-32 103-48 120-40 150 22 79 76 72 67 159a6 6 0 0 1 0 1l-7 25a6 6 0 0 1-1 2c-16 30-4 38 8 18Z"/>
      <rect x="197.8" y="304.1" width="9.4" height="18.8" rx="4.7" transform="rotate(71 203 313)" opacity=".7" fill="#fcee21"/>
      <rect class="cls-10" x="183.6" y="240.8" width="9.4" height="76.3" rx="4.7" transform="rotate(71 188 279)"/>
      <rect class="cls-10" x="168.8" y="196.2" width="9.4" height="90.7" rx="4.7" transform="rotate(69 173 242)"/>
      <rect class="cls-10" x="176.9" y="221.9" width="9.4" height="75.3" rx="4.7" transform="rotate(71 182 259)"/>
      <rect class="cls-10" x="160.7" y="179.2" width="9.4" height="89.3" rx="4.7" transform="rotate(71 165 224)"/>
      <rect class="cls-10" x="162" y="168.9" width="9.4" height="73.4" rx="4.7" transform="rotate(69 167 206)"/>
      <rect class="cls-10" x="157.2" y="159" width="9.4" height="55.5" rx="4.7" transform="rotate(71 162 187)"/>
      <rect class="cls-10" x="154.1" y="149.4" width="9.4" height="37.6" rx="4.7" transform="rotate(71 159 168)"/>
      <rect class="cls-10" x="189.1" y="266.5" width="9.4" height="60.9" rx="4.7" transform="rotate(69 194 297)"/>
    </g>
    <g id="bacground">
      <rect class="cls-11" x="175.8" y="509.3" width="11.9" height="35.8" rx="6" transform="rotate(37 182 527)"/>
      <rect class="cls-11" x="309.1" y="462.6" width="9.8" height="42.5" rx="4.9" transform="rotate(-154 314 484)"/>
      <rect class="cls-11" x="388.1" y="419.6" width="9.8" height="42.5" rx="4.9" transform="rotate(-56 393 441)"/>
      <rect class="cls-11" x="434.1" y="76.6" width="9.8" height="42.5" rx="4.9" transform="rotate(105 439 98)"/>
      <rect class="cls-11" x="486.1" y="57.6" width="9.8" height="42.5" rx="4.9" transform="rotate(-133 491 79)"/>
      <rect class="cls-11" x="466.1" y="98.6" width="9.8" height="42.5" rx="4.9" transform="rotate(167 471 120)"/>
      <rect class="cls-11" x="396.1" y="49.6" width="9.8" height="42.5" rx="4.9" transform="rotate(147 401 71)"/>
      <rect class="cls-11" x="343.1" y="163.6" width="9.8" height="42.5" rx="4.9" transform="rotate(-23 348 185)"/>
      <circle cx="307" cy="305.8" r="196.6" opacity=".3" fill="#fcee21"/>
      <rect class="cls-11" x="358.1" y="114.6" width="9.8" height="42.5" rx="4.9" transform="rotate(47 363 136)"/>
      <rect class="cls-11" x="267.1" y="124.6" width="9.8" height="42.5" rx="4.9" transform="rotate(47 272 146)"/>
      <circle class="cls-13" cx="141" cy="444.9" r="17.7"/>
      <circle class="cls-14" cx="38.4" cy="387.3" r="12"/>
      <circle class="cls-13" cx="196.4" cy="505.1" r="17.7"/>
      <circle class="cls-14" cx="112.3" cy="404.1" r="16.8"/>
      <rect class="cls-15" x="100.6" y="450" width="35.8" height="11.9" rx="6" transform="rotate(-29 119 456)"/>
      <rect class="cls-15" x="76.9" y="408" width="30.2" height="10" rx="4.7" transform="rotate(-23 92 413)"/>
      <rect class="cls-15" x="45.5" y="388" width="10" height="30.2" rx="4.7" transform="rotate(-40 51 403)"/>
      <rect class="cls-15" x="127.7" y="525" width="11.9" height="35.8" rx="6" transform="rotate(-72 134 543)"/>
      <rect class="cls-15" x="66.1" y="547.7" width="35.8" height="11.9" rx="6" transform="rotate(-47 84 554)"/>
      <rect class="cls-15" x="91.6" y="480" width="11.9" height="35.8" rx="6" transform="rotate(-12 98 498)"/>
      <circle class="cls-16" cx="301.4" cy="526" r="20.6"/>
      <circle class="cls-14" cx="162.5" cy="551.6" r="17.7"/>
      <circle class="cls-17" cx="411.4" cy="453" r="12.3"/>
      <rect class="cls-11" x="412.7" y="104.5" width="11.7" height="46.3" rx="5.4" transform="rotate(-52 419 128)"/>
      <rect class="cls-11" x="267.1" y="76.6" width="9.8" height="42.5" rx="4.9" transform="rotate(-23 272 98)"/>
      <circle class="cls-14" cx="103.8" cy="530.9" r="19.9"/>
      <circle class="cls-14" cx="92.3" cy="466.2" r="19.9"/>
      <circle class="cls-13" cx="356.6" cy="211.8" r="14.6"/>
      <circle class="cls-18" cx="387.1" cy="48.9" r="12.2"/>
      <circle class="cls-18" cx="248.5" cy="167.8" r="16.7"/>
      <rect class="cls-11" x="460.1" y="150.5" width="9.5" height="28.5" rx="4.4" transform="rotate(34 469 169)"/>
      <circle class="cls-18" cx="466.4" cy="98.6" r="15.6"/>
      <circle class="cls-18" cx="413.2" cy="90.6" r="12.2"/>
      <circle class="cls-18" cx="436.1" cy="146.4" r="16.7"/>
      <circle class="cls-18" cx="512.5" cy="56" r="15.6"/>
      <circle class="cls-18" cx="475.3" cy="149.4" r="15.6"/>
      <circle class="cls-14" cx="67.2" cy="419.8" r="16.8"/>
      <circle class="cls-18" cx="339.2" cy="158.6" r="18.7"/>
      <circle class="cls-18" cx="286.7" cy="124.3" r="16.7"/>
      <g id="circles">
        <circle class="cls-19" cx="540.6" cy="137.7" r="17.5"/>
        <circle class="cls-19" cx="611.9" cy="175" r="14.6"/>
        <circle class="cls-19" cx="555" cy="331.4" r="4.4"/>
        <circle class="cls-19" cx="619.9" cy="390.1" r="14.6"/>
        <circle class="cls-19" cx="620.3" cy="98.4" r="5.8"/>
        <circle class="cls-19" cx="684.9" cy="138.9" r="10.5"/>
        <circle class="cls-19" cx="681.9" cy="384.5" r="6.5"/>
        <circle class="cls-19" cx="601.6" cy="288.8" r="10.5"/>
        <circle class="cls-19" cx="538.1" cy="270.5" r="5.5"/>
        <circle class="cls-19" cx="603.5" cy="216.1" r="4.1"/>
      </g>
      <g id="circles-2" data-name="circles" opacity=".3">
        <circle class="cls-21" cx="56.8" cy="271.5" r="17.5"/>
        <circle class="cls-21" cx="151.3" cy="385.3" r="13.3"/>
        <circle class="cls-22" cx="54" cy="491.9" r="14.6"/>
        <circle class="cls-21" cx="181.5" cy="622.5" r="5.4"/>
        <circle class="cls-21" cx="145.1" cy="298.7" r="5.8"/>
        <circle class="cls-22" cx="166.4" cy="328.4" r="10.5"/>
        <circle class="cls-22" cx="283.1" cy="587.8" r="10.5"/>
        <circle class="cls-21" cx="27.3" cy="442.3" r="8.8"/>
        <circle class="cls-22" cx="22.3" cy="359.2" r="6.7"/>
        <circle class="cls-21" cx="64.6" cy="392.1" r="6.4"/>
      </g>
      <g id="spirale_1" data-name="spirale 1">
        <path class="cls-19" d="M675 316c5-2 5-9 0-10-29-5-69 6-88 22-15 12-38 71-42 91-13 65-36 113-108 92-7-2-18-19-24-13a6 6 0 0 0 1 9l19 12c32 11 65 10 89-14 20-20 26-52 30-75a4 4 0 0 1 0-1c10-30 18-71 42-92 30-27 66-18 81-21Z"/>
        <rect class="cls-23" x="411.3" y="508.2" width="12.3" height="25.1" rx="6.2" transform="rotate(37 417 521)"/>
        <rect class="cls-23" x="556.5" y="413.9" width="12.3" height="25.1" rx="6.2" transform="rotate(-79 563 427)"/>
        <rect class="cls-23" x="580.6" y="346.6" width="12.3" height="25.1" rx="6.2" transform="rotate(-65 587 359)"/>
        <rect class="cls-23" x="601.2" y="323.7" width="12.3" height="25.1" rx="6.2" transform="rotate(-36 606 334)"/>
        <rect class="cls-23" x="625.3" y="314.1" width="12.3" height="25.1" rx="6.2" transform="rotate(-11 631 327)"/>
        <rect class="cls-23" x="440" y="519.5" width="12.3" height="25.1" rx="6.2" transform="rotate(8 446 532)"/>
        <rect class="cls-23" x="470.1" y="522.4" width="12.3" height="25.1" rx="6.2" transform="rotate(-5 476 535)"/>
        <rect class="cls-23" x="500.2" y="514.4" width="12.3" height="25.1" rx="6.2" transform="rotate(-14 506 527)"/>
        <rect class="cls-23" x="525.9" y="495.6" width="12.3" height="25.1" rx="6.2" transform="rotate(-38 532 508)"/>
        <rect class="cls-23" x="543.9" y="466.9" width="12.3" height="25.1" rx="6.2" transform="rotate(-61 550 479)"/>
        <rect class="cls-23" x="551.8" y="439.1" width="12.3" height="25.1" rx="6.2" transform="rotate(-74 558 452)"/>
      </g>
      <g id="spirale2">
        <path d="M23 231c-25 26-35 63-2 105 23 30 177 93 101 197-17 23-42 45-64 61a4 4 0 0 0-1 5l2 3a3 3 0 0 0 4 1l26-20c114-100 66-177-53-247l-7-8c-22-28-19-56-5-82 7-13 13-11 2-16a2 2 0 0 0-3 1Z" fill="#d7d7f4"/>
        <rect class="cls-23" x="29.1" y="229.8" width="10.1" height="21.5" rx="5" transform="rotate(-63 34 240)"/>
        <rect class="cls-23" x="16.6" y="251.8" width="10.1" height="21.5" rx="5" transform="rotate(-75 22 263)"/>
        <rect class="cls-23" x="14.4" y="272.4" width="10.1" height="21.5" rx="5" transform="rotate(-90 19 283)"/>
        <rect class="cls-23" x="23.2" y="308.6" width="10.1" height="21.5" rx="5" transform="rotate(-113 28 319)"/>
        <rect class="cls-23" x="48" y="329.5" width="10.1" height="21.5" rx="5" transform="rotate(-143 53 340)"/>
        <rect class="cls-23" x="71.4" y="345.1" width="10.1" height="21.5" rx="5" transform="rotate(-143 76 356)"/>
        <rect class="cls-23" x="93.8" y="361.9" width="10.1" height="21.5" rx="5" transform="rotate(-143 99 373)"/>
        <rect class="cls-23" x="152.2" y="475.5" width="10.1" height="21.5" rx="5" transform="rotate(-83 157 486)"/>
        <rect class="cls-23" x="148.5" y="496" width="10.1" height="21.5" rx="5" transform="rotate(-76 153 506)"/>
        <rect class="cls-23" x="139" y="513.5" width="10.1" height="21.5" rx="5" transform="rotate(-75 144 524)"/>
        <rect class="cls-23" x="99.6" y="561.9" width="10.1" height="21.5" rx="5" transform="rotate(-53 105 573)"/>
        <rect class="cls-23" x="126.9" y="534.4" width="10.1" height="21.5" rx="5" transform="rotate(-63 132 545)"/>
        <rect class="cls-23" x="82.9" y="580.8" width="10.1" height="21.5" rx="5" transform="rotate(-48 88 592)"/>
        <rect class="cls-23" x="61.1" y="591.7" width="10.4" height="21.5" rx="5.2" transform="rotate(-48 66 602)"/>
      </g>
      <g id="magnifying_glass" data-name="magnifying glass">
        <rect x="549.9" y="326.8" width="79.3" height="230.8" rx="39.7" transform="rotate(-64 589 442)" fill="#b5b5ea"/>
        <path d="M308 87a220 220 0 1 0 0 441 220 220 0 0 0 220-220c0-122-98-221-220-221Zm0 412a190 190 0 1 1 0-381 190 190 0 0 1 0 381Z" fill="#c788d3"/>
        <path d="M308 128a180 180 0 1 1-128 53 179 179 0 0 1 128-53m0-10a190 190 0 1 0 0 381 190 190 0 0 0 0-381Z" fill="#e8caea"/>
      </g>
      <rect class="cls-11" x="273.1" y="22.6" width="9.8" height="42.5" rx="4.9" transform="rotate(47 278 44)"/>
      <rect class="cls-15" x="346.1" y="566.6" width="9.8" height="42.5" rx="4.9"/>
      <rect class="cls-15" x="321.1" y="521.6" width="9.8" height="42.5" rx="4.9" transform="rotate(-60 326 543)"/>
      <rect class="cls-11" x="345.1" y="419.6" width="9.8" height="42.5" rx="4.9" transform="rotate(-123 350 441)"/>
      <circle class="cls-18" cx="257.8" cy="66.8" r="17.5"/>
      <circle class="cls-18" cx="300.3" cy="23.5" r="15.6"/>
      <circle class="cls-16" cx="351.3" cy="618.5" r="14.1"/>
      <ellipse class="cls-17" cx="350.9" cy="558.2" rx="17.7" ry="18.1" transform="rotate(-8 351 558)"/>
      <circle class="cls-17" cx="325.3" cy="457.9" r="18.8"/>
      <circle class="cls-14" cx="372.2" cy="428.2" r="15.5"/>
      <circle class="cls-14" cx="66.7" cy="572.5" r="13.3"/>
    </g>
    <g id="proteins_3" data-name="proteins 3">
      <circle class="cls-28" cx="309.5" cy="327.1" r="125.5"/>
      <ellipse class="cls-29" cx="455.8" cy="333.2" rx="7.9" ry="36.6" transform="rotate(-40 456 333)"/>
      <ellipse class="cls-29" cx="499.8" cy="342.1" rx="30.8" ry="6" transform="rotate(-38 500 342)"/>
      <ellipse class="cls-29" cx="538.6" cy="319" rx="16.4" ry="5.5" transform="rotate(-10 539 319)"/>
      <ellipse class="cls-29" cx="545.5" cy="326" rx="22.5" ry="5.1"/>
      <ellipse class="cls-29" cx="525.9" cy="315.6" rx="8.9" ry="4" transform="rotate(-69 526 316)"/>
      <ellipse class="cls-29" cx="165.8" cy="333.2" rx="36.6" ry="7.9" transform="rotate(-50 166 333)"/>
      <ellipse class="cls-29" cx="121.9" cy="342.1" rx="6" ry="30.8" transform="rotate(-52 122 342)"/>
      <ellipse class="cls-29" cx="83.1" cy="319" rx="5.5" ry="16.4" transform="rotate(-80 83 319)"/>
      <ellipse class="cls-29" cx="76.2" cy="326" rx="22.5" ry="5.1"/>
      <ellipse class="cls-29" cx="95.8" cy="315.6" rx="4" ry="8.9" transform="rotate(-21 96 316)"/>
      <path class="cls-30" d="M255 337c28-56 67-85 102-18-54-45-58-28-102 18ZM365 353c3 23-29 14-39 18l-53 16c21-10 69-30 92-34Z"/>
      <path d="M430 352c0 7-4 26-10 36-5 9-9 15-21 28a109 109 0 0 1-29 21c-11 6-32 14-38 13-17-2 52-24 57-33s11-9 19-22c9-13 16-39 18-48 1-9 4-9 4 5Z" fill="#00a7d5" opacity=".3"/>
      <circle class="cls-28" cx="596.6" cy="252.8" r="12.3"/>
      <rect class="cls-32" x="577.8" y="222.6" width="9.7" height="29.3" rx="4.9" transform="rotate(135 583 237)"/>
      <circle class="cls-29" cx="559.7" cy="218.1" r="22.5"/>
      <rect class="cls-32" x="523.9" y="179.6" width="16.9" height="50.8" rx="8.4" transform="rotate(116 532 205)"/>
      <circle class="cls-33" cx="482.9" cy="196" r="40"/>
      <rect class="cls-32" x="416.7" y="186" width="27.9" height="84.1" rx="14" transform="rotate(57 431 228)"/>
      <ellipse class="cls-2" cx="490.3" cy="172.8" rx="10.5" ry="15.1" transform="rotate(-79 490 174)"/>
      <circle class="cls-28" cx="48" cy="114.4" r="12"/>
      <rect class="cls-32" x="47.9" y="120.6" width="9.7" height="29.3" rx="4.9" transform="rotate(168 53 135)"/>
      <circle class="cls-29" cx="63.4" cy="158.4" r="22.5"/>
      <rect class="cls-32" x="84.1" y="148.4" width="16.9" height="50.8" rx="8.4" transform="rotate(114 93 174)"/>
      <circle class="cls-33" cx="139.6" cy="195" r="40"/>
      <rect class="cls-32" x="179.9" y="189" width="27.9" height="84.1" rx="14" transform="rotate(123 194 231)"/>
      <ellipse class="cls-28" cx="130.9" cy="182.3" rx="19.3" ry="16" transform="rotate(-11 131 182)"/>
    </g>
  </g>
</svg>