<svg width="279" height="269" fill="none" xmlns="http://www.w3.org/2000/svg"><g opacity=".6"><path opacity=".8" d="M207.9 161.6c8.781 0 15.9-7.119 15.9-15.9s-7.119-15.9-15.9-15.9-15.9 7.119-15.9 15.9 7.119 15.9 15.9 15.9z" fill="#CC8B54"/><path opacity=".6" d="M192.7 192c5.578 0 10.1-4.522 10.1-10.1 0-5.578-4.522-10.1-10.1-10.1-5.578 0-10.1 4.522-10.1 10.1 0 5.578 4.522 10.1 10.1 10.1z" fill="#F08747"/><path opacity=".8" d="M152.8 110.8c5.578 0 10.1-4.522 10.1-10.1 0-5.578-4.522-10.1-10.1-10.1-5.578 0-10.1 4.522-10.1 10.1 0 5.578 4.522 10.1 10.1 10.1z" fill="#F08747"/><path opacity=".8" d="M135.8 171c5.799 0 10.5-4.701 10.5-10.5s-4.701-10.5-10.5-10.5-10.5 4.701-10.5 10.5 4.701 10.5 10.5 10.5z" fill="#E78449"/><path opacity=".6" d="M171.6 162.4c6.02 0 10.9-4.88 10.9-10.9 0-6.02-4.88-10.9-10.9-10.9-6.02 0-10.9 4.88-10.9 10.9 0 6.02 4.88 10.9 10.9 10.9z" fill="#DC7E42"/><path opacity=".8" d="M115.5 138.4a5.4 5.4 0 100-10.8 5.4 5.4 0 000 10.8z" fill="#E78449"/><path opacity=".6" d="M153.5 136.2a7.2 7.2 0 10-.001-14.401 7.2 7.2 0 00.001 14.401z" fill="#F08747"/><path opacity=".6" d="M184.7 121.8c6.02 0 10.9-4.88 10.9-10.9 0-6.02-4.88-10.9-10.9-10.9-6.02 0-10.9 4.88-10.9 10.9 0 6.02 4.88 10.9 10.9 10.9z" fill="#E7844B"/></g><g opacity=".6"><path opacity=".7" d="M203.5 43.4a3.6 3.6 0 100-7.2 3.6 3.6 0 000 7.2z" fill="#ED7332"/><path opacity=".8" d="M216.6 52.1a6.5 6.5 0 100-13 6.5 6.5 0 000 13z" fill="#EC7332" fill-opacity=".7"/><path opacity=".5" d="M207.2 32.6a2.9 2.9 0 100-5.8 2.9 2.9 0 000 5.8z" fill="#EB7332"/><path opacity=".8" d="M216.2 34.8a1.8 1.8 0 100-3.6 1.8 1.8 0 000 3.6z" fill="#EB7339"/></g><g opacity=".6"><path opacity=".6" d="M157.1 236.5c43.741 0 79.2-35.459 79.2-79.2s-35.459-79.2-79.2-79.2-79.2 35.459-79.2 79.2 35.459 79.2 79.2 79.2z" fill="#F7D2D2" fill-opacity=".3" stroke="#E58033" stroke-width="4"/><path opacity=".5" d="M210.8 59.4c10.383 0 18.8-8.417 18.8-18.8 0-10.383-8.417-18.8-18.8-18.8-10.383 0-18.8 8.417-18.8 18.8 0 10.383 8.417 18.8 18.8 18.8z" stroke="#EC7332" stroke-width="3"/><g opacity=".8"><path opacity=".8" d="M69.4 97.8c22.423 0 40.6-18.177 40.6-40.6 0-22.423-18.177-40.6-40.6-40.6-22.423 0-40.6 18.177-40.6 40.6 0 22.423 18.177 40.6 40.6 40.6z" fill="#F7D2D2" fill-opacity=".39"/><path opacity=".8" d="M69.4 95.8c21.318 0 38.6-17.282 38.6-38.6S90.718 18.6 69.4 18.6 30.8 35.882 30.8 57.2s17.282 38.6 38.6 38.6z" stroke="#D38E4E" stroke-opacity=".7" stroke-width="4"/></g></g><g opacity=".6"><path opacity=".5" d="M51.7 53.6a5.4 5.4 0 100-10.8 5.4 5.4 0 000 10.8z" fill="#E78445" fill-opacity=".7"/><path opacity=".6" d="M73.1 39.1a3.6 3.6 0 100-7.2 3.6 3.6 0 000 7.2z" fill="#EB7332" fill-opacity=".7"/><path opacity=".8" d="M71.6 83.4c6.02 0 10.9-4.88 10.9-10.9 0-6.02-4.88-10.9-10.9-10.9-6.02 0-10.9 4.88-10.9 10.9 0 6.02 4.88 10.9 10.9 10.9z" fill="#F08947" fill-opacity=".9"/><path opacity=".8" d="M86.1 54.4a5.1 5.1 0 100-10.2 5.1 5.1 0 000 10.2z" fill="#E78445" fill-opacity=".7"/></g></svg>