<svg width="288" height="280" viewBox="0 0 288 280" fill="none" xmlns="http://www.w3.org/2000/svg">
<path opacity="0.4" d="M212.2 88.9V64.1H220C221.4 64.1 222.6 64.2 223.8 64.5C225 64.8 226 65.2 226.9 65.8C227.8 66.4 228.4 67.2 228.9 68.2C229.4 69.2 229.6 70.4 229.6 71.8C229.6 73.2 229.4 74.4 228.9 75.4C228.4 76.4 227.7 77.3 226.9 77.9C226.1 78.6 225.1 79.1 223.9 79.4C222.8 79.7 221.5 79.9 220.2 79.9H216.6V89H212.2V88.9ZM216.6 76.3H219.8C223.4 76.3 225.3 74.8 225.3 71.8C225.3 70.2 224.8 69.2 223.9 68.6C223 68 221.6 67.7 219.7 67.7H216.6V76.3ZM233.2 88.9V64.1H239.8C243.6 64.1 246.6 65.1 248.7 67.2C250.8 69.3 251.9 72.3 251.9 76.4C251.9 78.5 251.6 80.3 251.1 81.8C250.6 83.4 249.8 84.7 248.7 85.8C247.7 86.8 246.4 87.6 245 88.2C243.6 88.7 241.9 89 240.1 89H233.2V88.9ZM237.6 85.3H239.5C242 85.3 244 84.6 245.3 83.1C246.7 81.6 247.4 79.4 247.4 76.3C247.4 73.3 246.7 71 245.3 69.6C243.9 68.2 242 67.5 239.5 67.5H237.6V85.3ZM255.9 88.9V64.1H263.8C265.1 64.1 266.3 64.2 267.3 64.4C268.4 64.6 269.3 64.9 270.1 65.4C270.9 65.9 271.5 66.5 272 67.3C272.5 68.1 272.7 69 272.7 70.2C272.7 71.4 272.4 72.5 271.8 73.5C271.2 74.5 270.3 75.2 269.3 75.6V75.8C270.7 76.1 271.8 76.7 272.7 77.7C273.6 78.7 274.1 80 274.1 81.7C274.1 82.9 273.9 84 273.4 84.9C272.9 85.8 272.2 86.6 271.4 87.2C270.6 87.8 269.6 88.3 268.4 88.6C267.2 88.9 266 89 264.6 89H255.9V88.9ZM260.3 74.3H263.5C265.2 74.3 266.5 74 267.3 73.4C268.1 72.8 268.5 71.9 268.5 70.9C268.5 69.7 268.1 68.8 267.3 68.3C266.5 67.8 265.3 67.5 263.7 67.5H260.5V74.3H260.3ZM260.3 85.5H264C265.8 85.5 267.2 85.2 268.2 84.5C269.2 83.8 269.7 82.8 269.7 81.4C269.7 80.1 269.2 79.1 268.3 78.6C267.3 78 265.9 77.7 264 77.7H260.3V85.5Z" fill="#D2DCE3"/>
<path opacity="0.4" d="M212.2 173.7V148.8H220C221.4 148.8 222.6 148.9 223.8 149.2C225 149.5 226 149.9 226.9 150.5C227.8 151.1 228.4 151.9 228.9 152.9C229.4 153.9 229.6 155.1 229.6 156.5C229.6 157.9 229.4 159.1 228.9 160.1C228.4 161.1 227.7 162 226.9 162.6C226.1 163.3 225.1 163.8 223.9 164.1C222.8 164.4 221.5 164.6 220.2 164.6H216.6V173.7H212.2ZM216.6 161H219.8C223.4 161 225.3 159.5 225.3 156.5C225.3 154.9 224.8 153.9 223.9 153.3C223 152.7 221.6 152.4 219.7 152.4H216.6V161ZM233.2 173.7V148.8H239.8C243.6 148.8 246.6 149.8 248.7 151.9C250.8 154 251.9 157 251.9 161.1C251.9 163.2 251.6 165 251.1 166.5C250.6 168.1 249.8 169.4 248.7 170.5C247.7 171.5 246.4 172.3 245 172.9C243.6 173.4 241.9 173.7 240.1 173.7H233.2ZM237.6 170.1H239.5C242 170.1 244 169.4 245.3 167.9C246.7 166.4 247.4 164.2 247.4 161.1C247.4 158.1 246.7 155.8 245.3 154.5C243.9 153.1 242 152.4 239.5 152.4H237.6V170.1ZM255.9 173.7V148.8H263.8C265.1 148.8 266.3 148.9 267.3 149.1C268.4 149.3 269.3 149.6 270.1 150.1C270.9 150.6 271.5 151.2 272 152C272.5 152.8 272.7 153.7 272.7 154.9C272.7 156.1 272.4 157.2 271.8 158.2C271.2 159.2 270.3 159.9 269.3 160.3V160.5C270.7 160.8 271.8 161.4 272.7 162.4C273.6 163.4 274.1 164.7 274.1 166.4C274.1 167.6 273.9 168.7 273.4 169.6C272.9 170.5 272.2 171.3 271.4 171.9C270.6 172.5 269.6 173 268.4 173.3C267.2 173.6 266 173.7 264.6 173.7H255.9ZM260.3 159.1H263.5C265.2 159.1 266.5 158.8 267.3 158.1C268.1 157.5 268.5 156.6 268.5 155.6C268.5 154.4 268.1 153.5 267.3 153C266.5 152.5 265.3 152.2 263.7 152.2H260.5V159.1H260.3ZM260.3 170.2H264C265.8 170.2 267.2 169.9 268.2 169.2C269.2 168.5 269.7 167.5 269.7 166.1C269.7 164.8 269.2 163.8 268.3 163.2C267.3 162.6 265.9 162.3 264 162.3H260.3V170.2Z" fill="#D2DCE3"/>
<path opacity="0.4" d="M11.9 121.9V97.1H19.7C21.1 97.1 22.3 97.2 23.5 97.5C24.7 97.8 25.7 98.2 26.6 98.8C27.5 99.4 28.1 100.2 28.6 101.2C29.1 102.2 29.3 103.4 29.3 104.8C29.3 106.2 29.1 107.4 28.6 108.4C28.1 109.4 27.4 110.3 26.6 110.9C25.8 111.6 24.8 112.1 23.6 112.4C22.5 112.7 21.2 112.9 19.9 112.9H16.3V122H11.9V121.9ZM16.4 109.3H19.6C23.2 109.3 25.1 107.8 25.1 104.8C25.1 103.2 24.6 102.2 23.7 101.6C22.8 101 21.4 100.7 19.5 100.7H16.4V109.3ZM33 121.9V97.1H39.6C43.4 97.1 46.4 98.1 48.5 100.2C50.6 102.3 51.7 105.3 51.7 109.4C51.7 111.5 51.4 113.3 50.9 114.8C50.4 116.4 49.6 117.7 48.5 118.8C47.5 119.8 46.2 120.6 44.8 121.2C43.4 121.7 41.7 122 39.9 122H33V121.9ZM37.4 118.4H39.3C41.8 118.4 43.8 117.7 45.1 116.2C46.5 114.7 47.2 112.5 47.2 109.4C47.2 106.4 46.5 104.1 45.1 102.7C43.7 101.3 41.8 100.6 39.3 100.6H37.4V118.4ZM55.6 121.9V97.1H63.5C64.8 97.1 66 97.2 67 97.4C68.1 97.6 69 97.9 69.8 98.4C70.6 98.9 71.2 99.5 71.7 100.3C72.2 101.1 72.4 102 72.4 103.2C72.4 104.4 72.1 105.5 71.5 106.5C70.9 107.5 70 108.2 69 108.6V108.8C70.4 109.1 71.5 109.7 72.4 110.7C73.3 111.7 73.8 113 73.8 114.7C73.8 115.9 73.6 117 73.1 117.9C72.6 118.8 71.9 119.6 71.1 120.2C70.3 120.8 69.3 121.3 68.1 121.6C66.9 121.9 65.7 122 64.3 122H55.6V121.9ZM60 107.3H63.2C64.9 107.3 66.2 107 67 106.4C67.8 105.8 68.2 104.9 68.2 103.9C68.2 102.7 67.8 101.8 67 101.3C66.2 100.8 65 100.5 63.4 100.5H60V107.3ZM60 118.5H63.7C65.5 118.5 66.9 118.2 67.9 117.5C68.9 116.8 69.4 115.8 69.4 114.4C69.4 113.1 68.9 112.1 68 111.6C67 111 65.6 110.7 63.7 110.7H60V118.5Z" fill="#D2DCE3"/>
<path opacity="0.5" d="M13.8 35V10.1H22.2C23.5 10.1 24.7 10.2 25.8 10.5C26.9 10.8 27.9 11.2 28.7 11.8C29.5 12.4 30.1 13.1 30.6 14C31.1 14.9 31.3 16.1 31.3 17.5C31.3 19.4 30.8 20.9 29.9 22.1C29 23.3 27.8 24.1 26.3 24.6L32.3 35H27.4L22 25.3H18.2V35H13.8ZM18.2 21.8H21.7C23.4 21.8 24.7 21.4 25.6 20.7C26.5 20 27 18.9 27 17.5C27 16.1 26.5 15.1 25.6 14.5C24.7 13.9 23.4 13.7 21.7 13.7H18.2V21.8ZM42.1 35.5C40.8 35.5 39.6 35.3 38.5 34.9C37.4 34.4 36.4 33.8 35.6 33C34.8 32.2 34.1 31.2 33.6 30C33.1 28.8 32.9001 27.4 32.9001 25.9C32.9001 24.4 33.1 23 33.6 21.8C34.1 20.6 34.7001 19.6 35.5 18.7C36.3 17.9 37.2 17.2 38.3 16.8C39.3 16.3 40.4 16.1 41.5 16.1C42.8 16.1 43.9 16.3 44.8 16.7C45.8 17.1 46.6001 17.7 47.2001 18.5C47.9001 19.3 48.4001 20.2 48.7001 21.3C49 22.4 49.2001 23.6 49.2001 24.9C49.2001 25.3 49.2 25.7 49.1 26.1C49.1 26.5 49 26.8 49 27H37.2001C37.4001 28.7 38.0001 30 38.9001 30.9C39.9001 31.8 41.1 32.2 42.7001 32.2C43.5 32.2 44.3001 32.1 44.9001 31.9C45.6001 31.6 46.3 31.3 47 30.9L48.5 33.6C47.6 34.2 46.6 34.7 45.5 35C44.5 35.3 43.3 35.5 42.1 35.5ZM37.2001 23.9H45.5C45.5 22.5 45.2001 21.3 44.5 20.5C43.9 19.7 42.9001 19.2 41.7001 19.2C40.6 19.2 39.6 19.6 38.8 20.4C37.9 21.2 37.4001 22.4 37.2001 23.9ZM52.6 35V19.8H50.1V16.5L52.6 16.3V14.4C52.6 13.4 52.7001 12.6 52.9001 11.7C53.1001 10.9 53.5 10.2 54 9.60001C54.6 9.00001 55.2001 8.50001 56 8.20001C56.8 7.90001 57.7001 7.70001 58.8 7.70001C59.5 7.70001 60.1001 7.80001 60.7001 7.90001C61.3 8.00001 61.8 8.20001 62.3 8.40001L61.5 11.7C60.8 11.4 60.1001 11.2 59.4001 11.2C57.8001 11.2 57 12.3 57 14.4V16.4H60.6V19.9H57V35H52.6ZM70.2 35.5C68.5 35.5 66.9001 35.2 65.3001 34.5C63.8001 33.9 62.4001 33 61.2001 31.8L63.8 28.8C64.7001 29.6 65.7001 30.3 66.8001 30.9C67.9001 31.4 69.1 31.7 70.2 31.7C71.6 31.7 72.7001 31.4 73.4001 30.8C74.1001 30.2 74.5 29.4 74.5 28.5C74.5 28 74.4 27.6 74.2 27.2C74 26.8 73.8001 26.5 73.4001 26.3C73.1001 26 72.7 25.8 72.2 25.5C71.7 25.3 71.2 25 70.7 24.8L67.3001 23.3C66.7001 23 66.1 22.7 65.5 22.4C64.9001 22 64.4001 21.6 63.9001 21C63.4001 20.5 63 19.8 62.7001 19.1C62.4001 18.4 62.3 17.6 62.3 16.7C62.3 15.7 62.5 14.8 62.9001 14C63.3001 13.1 63.9 12.4 64.6 11.8C65.3 11.2 66.2 10.7 67.2 10.3C68.2 9.90001 69.4 9.80001 70.6 9.80001C72 9.80001 73.4001 10.1 74.8001 10.7C76.1001 11.3 77.3 12 78.3 13L76.1 15.8C75.3 15.1 74.5 14.6 73.6 14.2C72.7 13.8 71.8 13.6 70.7 13.6C69.5 13.6 68.6001 13.9 67.9001 14.4C67.2001 14.9 66.8001 15.6 66.8001 16.5C66.8001 17 66.9 17.4 67.1 17.8C67.3 18.1 67.6 18.4 68 18.7C68.4001 19 68.8001 19.2 69.3001 19.4C69.8001 19.6 70.3001 19.8 70.8001 20L74.2 21.4C74.9 21.7 75.6 22.1 76.2 22.5C76.8 22.9 77.3 23.4 77.8 23.9C78.3 24.4 78.6 25.1 78.9 25.8C79.2001 26.5 79.3 27.3 79.3 28.2C79.3 29.2 79.1 30.2 78.7 31.1C78.3 32 77.7001 32.8 76.9001 33.5C76.1001 34.2 75.2 34.7 74.1 35.1C72.8 35.3 71.6 35.5 70.2 35.5ZM89.8 35.5C88.5 35.5 87.3 35.3 86.2 34.9C85.1 34.4 84.1001 33.8 83.3 33C82.5 32.2 81.8 31.2 81.3 30C80.8 28.8 80.6 27.4 80.6 25.9C80.6 24.4 80.8 23 81.3 21.8C81.8 20.6 82.4 19.6 83.2 18.7C84 17.9 84.9 17.2 86 16.8C87 16.3 88.1 16.1 89.2 16.1C90.5 16.1 91.6 16.3 92.5 16.7C93.5 17.1 94.3 17.7 94.9 18.5C95.6 19.3 96.1 20.2 96.4 21.3C96.7001 22.4 96.9 23.6 96.9 24.9C96.9 25.3 96.9 25.7 96.8 26.1C96.8 26.5 96.7 26.8 96.7 27H84.9C85.1 28.7 85.7 30 86.6 30.9C87.6 31.8 88.8 32.2 90.4 32.2C91.2001 32.2 92 32.1 92.6 31.9C93.3 31.6 94 31.3 94.7 30.9L96.2 33.6C95.3 34.2 94.3 34.7 93.2 35C92.2 35.3 91 35.5 89.8 35.5ZM84.8 23.9H93.1C93.1 22.5 92.8 21.3 92.1 20.5C91.5 19.7 90.5 19.2 89.3 19.2C88.2001 19.2 87.2001 19.6 86.4 20.4C85.6 21.2 85 22.4 84.8 23.9ZM111.2 42.4V36.3L111.4 33.2C110.7 33.9 109.9 34.4 109 34.9C108.1 35.3 107.2 35.5 106.2 35.5C103.8 35.5 102 34.7 100.6 33C99.2 31.3 98.5 28.9 98.5 25.8C98.5 24.3 98.7 22.9 99.1 21.7C99.6 20.5 100.2 19.5 100.9 18.6C101.6 17.8 102.5 17.1 103.4 16.7C104.4 16.2 105.4 16 106.4 16C107.5 16 108.4 16.2 109.2 16.6C110 17 110.8 17.5 111.6 18.3H111.7L112.1 16.5H115.6V42.5H111.2V42.4ZM107.3 31.8C108.7 31.8 110 31.1 111.2 29.7V21C110.5 20.4 109.9 20 109.3 19.8C108.7 19.6 108.1 19.5 107.4 19.5C106.2 19.5 105.2 20 104.3 21.1C103.5 22.2 103 23.7 103 25.7C103 27.7 103.4 29.3 104.1 30.3C104.9 31.3 105.9 31.8 107.3 31.8Z" fill="#D2DCE3"/>
<path opacity="0.5" d="M159 123.5C157.4 123.5 156 123.2 154.6 122.7C153.2 122.1 152 121.3 151 120.2C150 119.1 149.2 117.8 148.6 116.2C148 114.6 147.7 112.8 147.7 110.7C147.7 108.7 148 106.9 148.6 105.3C149.2 103.7 150 102.3 151 101.2C152 100.1 153.2 99.2 154.6 98.7C156 98.1 157.5 97.8 159 97.8C160.6 97.8 162 98.1 163.2 98.8C164.4 99.5 165.4 100.2 166.2 101L163.8 103.8C163.1 103.1 162.4 102.6 161.7 102.2C160.9 101.8 160.1 101.6 159.1 101.6C158.1 101.6 157.1 101.8 156.3 102.2C155.5 102.6 154.7 103.2 154.1 104C153.5 104.8 153 105.7 152.7 106.8C152.4 107.9 152.2 109.2 152.2 110.6C152.2 113.4 152.8 115.7 154 117.3C155.2 118.9 156.9 119.7 159 119.7C160.1 119.7 161.1 119.5 162 119C162.9 118.5 163.6 117.9 164.4 117.1L166.8 119.9C165.8 121.1 164.6 122 163.3 122.6C162 123.2 160.6 123.5 159 123.5ZM169.2 123V96.2H173.6V103.1L173.4 106.7C174.2 106 175 105.3 176 104.8C177 104.2 178.1 103.9 179.4 103.9C181.4 103.9 182.9 104.5 183.8 105.8C184.7 107.1 185.2 108.9 185.2 111.3V123H180.8V111.9C180.8 110.4 180.6 109.3 180.1 108.6C179.6 108 178.9 107.7 177.9 107.7C177.1 107.7 176.4 107.9 175.7 108.3C175.1 108.7 174.4 109.2 173.6 110V123H169.2ZM189.4 123V98.2H204.4V101.9H193.8V108.2H202.7V111.9H193.8V119.2H204.7V122.9H189.4V123ZM208.4 123V98.2H213.4L217.8 110.4C218.1 111.2 218.3 112 218.6 112.8C218.9 113.6 219.1 114.4 219.4 115.2H219.6C219.9 114.4 220.1 113.6 220.4 112.8C220.7 112 220.9 111.2 221.2 110.4L225.5 98.2H230.5V123H226.4V111.6C226.4 111 226.4 110.4 226.4 109.7C226.5 109 226.5 108.3 226.6 107.6C226.7 106.9 226.7 106.2 226.8 105.5C226.9 104.8 226.9 104.2 227 103.6H226.8L224.8 109.4L220.7 120.6H218.1L214 109.4L212 103.6H211.8C211.9 104.2 211.9 104.8 212 105.5C212.1 106.2 212.1 106.8 212.2 107.6C212.3 108.3 212.3 109 212.4 109.7C212.5 110.4 212.5 111 212.5 111.6V123H208.4ZM235.3 123V98.2H243.2C244.5 98.2 245.7 98.3 246.7 98.5C247.8 98.7 248.7 99 249.5 99.5C250.3 100 250.9 100.6 251.4 101.4C251.9 102.2 252.1 103.1 252.1 104.3C252.1 105.5 251.8 106.6 251.2 107.6C250.6 108.6 249.7 109.3 248.7 109.7V109.9C250.1 110.2 251.2 110.8 252.1 111.8C253 112.8 253.5 114.1 253.5 115.8C253.5 117 253.3 118.1 252.8 119C252.3 119.9 251.6 120.7 250.8 121.3C250 121.9 249 122.4 247.8 122.7C246.6 123 245.4 123.1 244 123.1H235.3V123ZM239.7 108.4H242.9C244.6 108.4 245.9 108.1 246.7 107.4C247.5 106.8 247.9 105.9 247.9 104.9C247.9 103.7 247.5 102.8 246.7 102.3C245.9 101.8 244.7 101.5 243.1 101.5H239.9V108.4H239.7ZM239.7 119.6H243.4C245.2 119.6 246.6 119.3 247.6 118.6C248.6 117.9 249.1 116.9 249.1 115.5C249.1 114.2 248.6 113.2 247.7 112.6C246.7 112 245.3 111.7 243.4 111.7H239.7V119.6ZM256.6 123V98.2H261V119.3H271.3V123H256.6Z" fill="#D2DCE3"/>
<path opacity="0.4" d="M158.5 40.5V15.7H173.5V19.4H162.9V26.4H171.9V30.1H162.9V40.5H158.5ZM180.7 41C179.1 41 178 40.5 177.4 39.6C176.8 38.7 176.5 37.4 176.5 35.8V13.8H180.9V36.1C180.9 36.6 181 37 181.2 37.2C181.4 37.4 181.6 37.5 181.8 37.5C181.9 37.5 182 37.5 182.1 37.5C182.2 37.5 182.3 37.5 182.5 37.4L183.1 40.7C182.4 40.8 181.6 41 180.7 41ZM186.9 48.2C186.4 48.2 186 48.2 185.6 48.1C185.2 48 184.9 48 184.5 47.8L185.3 44.4C185.5 44.5 185.7 44.5 185.9 44.6C186.2 44.7 186.4 44.7 186.6 44.7C187.6 44.7 188.4 44.4 189 43.8C189.6 43.2 190.1 42.5 190.4 41.5L190.7 40.3L183.4 21.9H187.8L191 31C191.3 31.8 191.5 32.7 191.8 33.6C192.1 34.5 192.4 35.4 192.6 36.3H192.8C193 35.4 193.3 34.6 193.5 33.7C193.8 32.8 194 31.9 194.2 31.1L197 21.9H201.2L194.4 41.4C194 42.5 193.6 43.4 193.1 44.2C192.6 45 192.1 45.7 191.5 46.3C190.9 46.9 190.2 47.4 189.4 47.7C188.8 48 187.9 48.2 186.9 48.2ZM203.7 40.5V15.7H211.6C212.9 15.7 214.1 15.8 215.1 16C216.2 16.2 217.1 16.5 217.9 17C218.7 17.5 219.3 18.1 219.8 18.9C220.3 19.7 220.5 20.6 220.5 21.8C220.5 23 220.2 24.1 219.6 25.1C219 26.1 218.1 26.8 217.1 27.2V27.4C218.5 27.7 219.6 28.4 220.5 29.3C221.4 30.3 221.9 31.6 221.9 33.3C221.9 34.5 221.7 35.6 221.2 36.5C220.7 37.4 220 38.2 219.2 38.8C218.4 39.4 217.4 39.9 216.2 40.2C215 40.5 213.8 40.6 212.4 40.6H203.7V40.5ZM208.1 25.9H211.3C213 25.9 214.3 25.6 215.1 24.9C215.9 24.3 216.3 23.4 216.3 22.4C216.3 21.2 215.9 20.3 215.1 19.8C214.3 19.3 213.1 19 211.5 19H208.3V25.9H208.1ZM208.1 37.1H211.8C213.6 37.1 215 36.8 216 36.1C217 35.4 217.5 34.4 217.5 33C217.5 31.7 217 30.7 216.1 30.1C215.1 29.5 213.7 29.2 211.8 29.2H208.1V37.1ZM229.5 41C227.9 41 226.5 40.5 225.5 39.5C224.5 38.5 224 37.2 224 35.5C224 34.5 224.2 33.6 224.6 32.9C225 32.1 225.7 31.4 226.6 30.9C227.5 30.3 228.7 29.9 230 29.5C231.4 29.1 233.1 28.8 235 28.6C235 28.1 234.9 27.7 234.8 27.2C234.7 26.7 234.5 26.4 234.2 26C233.9 25.6 233.6 25.4 233.2 25.2C232.8 25 232.2 24.9 231.6 24.9C230.7 24.9 229.8 25.1 228.9 25.4C228 25.8 227.2 26.2 226.4 26.7L224.8 23.8C225.8 23.1 227 22.6 228.3 22.1C229.6 21.6 231 21.4 232.5 21.4C234.8 21.4 236.6 22.1 237.7 23.5C238.9 24.9 239.4 26.9 239.4 29.5V40.6H235.8L235.5 38.5H235.3C234.5 39.2 233.6 39.8 232.6 40.3C231.6 40.7 230.6 41 229.5 41ZM230.9 37.5C231.7 37.5 232.3 37.3 233 37C233.6 36.6 234.3 36.1 235 35.5V31.3C233.7 31.5 232.7 31.7 231.8 31.9C230.9 32.2 230.2 32.4 229.7 32.8C229.2 33.1 228.8 33.5 228.6 33.9C228.4 34.3 228.3 34.7 228.3 35.2C228.3 36 228.6 36.6 229.1 37C229.4 37.3 230.1 37.5 230.9 37.5ZM248.6 41C247.3 41 246 40.8 244.8 40.3C243.6 39.8 242.5 39.2 241.6 38.4L243.7 35.6C244.5 36.3 245.4 36.8 246.2 37.2C247 37.6 247.9 37.7 248.9 37.7C249.9 37.7 250.7 37.5 251.1 37.1C251.6 36.7 251.8 36.1 251.8 35.5C251.8 35.1 251.7 34.8 251.5 34.5C251.3 34.2 251 33.9 250.6 33.7C250.2 33.5 249.8 33.3 249.3 33.1C248.8 32.9 248.3 32.7 247.9 32.5C247.3 32.3 246.7 32 246 31.7C245.4 31.4 244.8 31 244.3 30.6C243.8 30.2 243.4 29.7 243.1 29.1C242.8 28.5 242.6 27.8 242.6 27C242.6 25.4 243.2 24 244.4 23C245.6 22 247.3 21.4 249.4 21.4C250.7 21.4 251.9 21.6 252.9 22.1C253.9 22.6 254.8 23.1 255.6 23.7L253.6 26.4C252.9 25.9 252.3 25.5 251.6 25.3C250.9 25 250.2 24.8 249.5 24.8C248.6 24.8 247.9 25 247.4 25.4C247 25.8 246.8 26.3 246.8 26.8C246.8 27.2 246.9 27.5 247.1 27.8C247.3 28.1 247.6 28.3 248 28.5C248.4 28.7 248.8 28.9 249.2 29.1C249.7 29.3 250.2 29.5 250.7 29.6C251.3 29.8 252 30.1 252.6 30.4C253.2 30.7 253.8 31 254.3 31.5C254.8 31.9 255.2 32.5 255.6 33.1C255.9 33.7 256.1 34.4 256.1 35.3C256.1 36.1 255.9 36.9 255.6 37.6C255.3 38.3 254.8 38.9 254.2 39.4C253.6 39.9 252.8 40.3 251.9 40.6C250.8 40.8 249.8 41 248.6 41ZM266.7 41C265.4 41 264.2 40.8 263.1 40.4C262 39.9 261 39.3 260.2 38.5C259.4 37.7 258.7 36.7 258.2 35.5C257.7 34.3 257.5 32.9 257.5 31.4C257.5 29.9 257.7 28.5 258.2 27.3C258.7 26.1 259.3 25.1 260.1 24.2C260.9 23.4 261.8 22.7 262.9 22.3C263.9 21.8 265 21.6 266.1 21.6C267.4 21.6 268.5 21.8 269.4 22.2C270.4 22.6 271.2 23.2 271.8 24C272.5 24.8 273 25.7 273.3 26.8C273.6 27.9 273.8 29.1 273.8 30.4C273.8 30.8 273.8 31.2 273.7 31.6C273.7 32 273.6 32.3 273.6 32.5H261.7C261.9 34.2 262.5 35.5 263.4 36.4C264.4 37.3 265.6 37.7 267.2 37.7C268 37.7 268.8 37.6 269.4 37.4C270.1 37.1 270.8 36.8 271.5 36.4L273 39.1C272.1 39.7 271.1 40.2 270 40.5C269 40.8 267.9 41 266.7 41ZM261.7 29.4H270C270 28 269.7 26.8 269 26C268.4 25.2 267.4 24.7 266.1 24.7C265 24.7 264 25.1 263.2 25.9C262.4 26.7 261.9 27.9 261.7 29.4Z" fill="#D2DCE3"/>
<path opacity="0.4" d="M14.2 81.2V56.4H29.2V60.1H18.6V66.4H27.5V70.1H18.6V77.4H29.5V81.1H14.2V81.2ZM33.2 81.2V62.6H36.8L37.1 65.1H37.3C38.1 64.3 39 63.6 40 63C41 62.4 42.1 62.1 43.4 62.1C45.4 62.1 46.9 62.7 47.8 64C48.7 65.3 49.2 67.1 49.2 69.5V81.2H44.8V70.1C44.8 68.6 44.6 67.5 44.1 66.8C43.6 66.2 42.9 65.8 41.9 65.8C41.1 65.8 40.4 66 39.7 66.4C39.1 66.8 38.4 67.3 37.6 68.1V81.1H33.2V81.2ZM58.5 81.7C57.2 81.7 55.9 81.5 54.7 81C53.5 80.5 52.4 79.9 51.5 79.1L53.6 76.3C54.4 77 55.3 77.5 56.1 77.9C56.9 78.3 57.8 78.4 58.8 78.4C59.8 78.4 60.6 78.2 61 77.8C61.5 77.4 61.7 76.8 61.7 76.2C61.7 75.8 61.6 75.5 61.4 75.2C61.2 74.9 60.9 74.6 60.5 74.4C60.1 74.2 59.7 74 59.2 73.8C58.7 73.6 58.2 73.4 57.8 73.2C57.2 73 56.6 72.7 55.9 72.4C55.3 72.1 54.7 71.7 54.2 71.3C53.7 70.9 53.3 70.4 53 69.8C52.7 69.2 52.5 68.5 52.5 67.7C52.5 66.1 53.1 64.7 54.3 63.7C55.5 62.7 57.2 62.1 59.3 62.1C60.6 62.1 61.8 62.3 62.8 62.8C63.8 63.3 64.7 63.8 65.5 64.4L63.5 67.1C62.8 66.6 62.2 66.2 61.5 66C60.8 65.7 60.1 65.5 59.4 65.5C58.5 65.5 57.8 65.7 57.3 66.1C56.9 66.5 56.7 67 56.7 67.5C56.7 67.9 56.8 68.2 57 68.5C57.2 68.8 57.5 69 57.9 69.2C58.3 69.4 58.7 69.6 59.1 69.8C59.6 70 60.1 70.2 60.6 70.3C61.2 70.5 61.9 70.8 62.5 71.1C63.1 71.4 63.7 71.7 64.2 72.2C64.7 72.6 65.2 73.2 65.5 73.8C65.8 74.4 66 75.1 66 76C66 76.8 65.8 77.6 65.5 78.3C65.2 79 64.7 79.6 64.1 80.1C63.5 80.6 62.7 81 61.8 81.3C60.7 81.5 59.7 81.7 58.5 81.7ZM76.6 81.7C75.3 81.7 74.1 81.5 73 81.1C71.9 80.6 70.9 80 70.1 79.2C69.3 78.4 68.6 77.4 68.1 76.2C67.6 75 67.4 73.6 67.4 72.1C67.4 70.6 67.6 69.2 68.1 68C68.6 66.8 69.2 65.8 70 64.9C70.8 64.1 71.7 63.4 72.8 63C73.8 62.5 74.9 62.3 76 62.3C77.3 62.3 78.4 62.5 79.3 62.9C80.3 63.3 81.1 63.9 81.7 64.7C82.4 65.5 82.9 66.4 83.2 67.5C83.5 68.6 83.7 69.8 83.7 71.1C83.7 71.5 83.7 71.9 83.6 72.3C83.6 72.7 83.5 73 83.5 73.2H71.6C71.8 74.9 72.4 76.2 73.3 77.1C74.3 78 75.5 78.4 77.1 78.4C77.9 78.4 78.7 78.3 79.3 78.1C80 77.8 80.7 77.5 81.4 77.1L82.9 79.8C82 80.4 81 80.9 79.9 81.2C78.9 81.5 77.8 81.7 76.6 81.7ZM71.6 70.1H79.9C79.9 68.7 79.6 67.5 79 66.7C78.4 65.9 77.4 65.4 76.1 65.4C75 65.4 74 65.8 73.2 66.6C72.3 67.4 71.8 68.6 71.6 70.1ZM86.7 81.2V62.6H90.3L90.6 65.1H90.8C91.6 64.3 92.4 63.6 93.3 63C94.2 62.4 95.3 62.1 96.5 62.1C97.9 62.1 99 62.4 99.8 63C100.6 63.6 101.3 64.4 101.7 65.5C102.6 64.5 103.5 63.7 104.5 63.1C105.5 62.5 106.5 62.2 107.7 62.2C109.7 62.2 111.1 62.8 112.1 64.1C113 65.4 113.5 67.2 113.5 69.6V81.3H109V70.1C109 68.6 108.8 67.5 108.3 66.8C107.8 66.2 107.1 65.8 106.2 65.8C105 65.8 103.7 66.6 102.3 68.1V81.1H97.9V70.1C97.9 68.6 97.7 67.5 97.2 66.8C96.7 66.2 96 65.8 95 65.8C93.8 65.8 92.5 66.6 91.1 68.1V81.1H86.7V81.2ZM126.7 81.7C125.8 81.7 125 81.5 124.1 81.1C123.2 80.7 122.4 80.1 121.6 79.3H121.5L121.1 81.3H117.6V54.4H122V61.3L121.9 64.4C122.7 63.7 123.5 63.2 124.4 62.7C125.3 62.3 126.3 62.1 127.2 62.1C128.4 62.1 129.4 62.3 130.3 62.8C131.2 63.2 132 63.9 132.6 64.7C133.2 65.5 133.7 66.5 134 67.7C134.3 68.9 134.5 70.2 134.5 71.6C134.5 73.2 134.3 74.6 133.8 75.9C133.4 77.1 132.8 78.2 132.1 79.1C131.4 80 130.5 80.6 129.6 81.1C128.8 81.4 127.8 81.7 126.7 81.7ZM125.8 78.1C127 78.1 128.1 77.6 128.9 76.5C129.7 75.4 130.2 73.8 130.2 71.7C130.2 69.8 129.9 68.4 129.3 67.3C128.7 66.3 127.6 65.7 126.2 65.7C124.9 65.7 123.5 66.4 122.1 67.8V76.5C122.8 77.1 123.4 77.5 124 77.7C124.6 77.9 125.2 78.1 125.8 78.1ZM142.2 81.7C140.6 81.7 139.5 81.2 138.9 80.3C138.3 79.4 138 78.1 138 76.5V54.5H142.4V76.8C142.4 77.3 142.5 77.7 142.7 77.9C142.9 78.1 143.1 78.2 143.3 78.2C143.4 78.2 143.5 78.2 143.6 78.2C143.7 78.2 143.8 78.2 144 78.1L144.6 81.4C144 81.5 143.2 81.7 142.2 81.7Z" fill="#D2DCE3"/>
<path opacity="0.4" d="M14.4 165.9V141H29.4V144.7H18.8V151.7H27.8V155.4H18.8V165.8H14.4V165.9ZM36.5 166.4C34.9 166.4 33.8 165.9 33.2 165C32.6 164.1 32.2 162.8 32.2 161.2V139.2H36.6V161.5C36.6 162 36.7 162.4 36.9 162.6C37.1 162.8 37.3 162.9 37.5 162.9C37.6 162.9 37.7 162.9 37.8 162.9C37.9 162.9 38 162.9 38.2 162.8L38.8 166.1C38.3 166.3 37.5 166.4 36.5 166.4ZM42.7 173.6C42.2 173.6 41.8 173.6 41.4 173.5C41 173.4 40.7 173.4 40.3 173.2L41.1 169.8C41.3 169.8 41.5 169.9 41.7 170C42 170.1 42.2 170.1 42.4 170.1C43.4 170.1 44.2 169.8 44.8 169.2C45.4 168.6 45.9 167.9 46.2 166.9L46.5 165.7L39.2 147.3H43.6L46.8 156.5C47.1 157.3 47.3 158.2 47.6 159.1C47.9 160 48.2 160.9 48.4 161.8H48.6C48.8 160.9 49.1 160.1 49.3 159.2C49.6 158.3 49.8 157.4 50 156.6L52.8 147.4H57L50.2 166.9C49.8 168 49.4 168.9 48.9 169.8C48.4 170.6 47.9 171.3 47.3 171.9C46.7 172.5 46 173 45.2 173.3C44.6 173.5 43.8 173.6 42.7 173.6ZM59.6 165.9V141H67.5C68.8 141 70 141.1 71 141.3C72.1 141.5 73 141.8 73.8 142.3C74.6 142.8 75.2 143.4 75.7 144.2C76.2 145 76.4 145.9 76.4 147.1C76.4 148.3 76.1 149.4 75.5 150.4C74.9 151.4 74 152.1 73 152.5V152.7C74.4 153 75.5 153.7 76.4 154.6C77.3 155.6 77.8 156.9 77.8 158.6C77.8 159.8 77.6 160.9 77.1 161.8C76.6 162.7 75.9 163.5 75.1 164.1C74.3 164.7 73.3 165.2 72.1 165.5C70.9 165.8 69.7 165.9 68.3 165.9H59.6ZM64 151.4H67.2C68.9 151.4 70.2 151.1 71 150.5C71.8 149.9 72.2 149 72.2 148C72.2 146.8 71.8 145.9 71 145.4C70.2 144.9 69 144.6 67.4 144.6H64V151.4ZM64 162.5H67.7C69.5 162.5 70.9 162.2 71.9 161.5C72.9 160.8 73.4 159.8 73.4 158.4C73.4 157.1 72.9 156.1 72 155.6C71 155 69.6 154.7 67.7 154.7H64V162.5ZM85.3 166.4C83.7 166.4 82.3 165.9 81.3 164.9C80.3 163.9 79.8 162.6 79.8 160.9C79.8 159.9 80 159 80.4 158.3C80.8 157.5 81.5 156.8 82.4 156.3C83.3 155.7 84.5 155.3 85.8 154.9C87.2 154.5 88.9 154.2 90.8 154C90.8 153.5 90.7 153.1 90.6 152.6C90.5 152.1 90.3 151.8 90 151.4C89.7 151 89.4 150.8 89 150.6C88.6 150.4 88 150.3 87.4 150.3C86.5 150.3 85.6 150.5 84.7 150.8C83.8 151.2 83 151.6 82.2 152.1L80.6 149.2C81.6 148.5 82.8 148 84.1 147.5C85.4 147 86.8 146.8 88.3 146.8C90.6 146.8 92.4 147.5 93.5 148.9C94.7 150.3 95.2 152.3 95.2 154.9V166H91.6L91.3 163.9H91.1C90.3 164.6 89.4 165.2 88.4 165.7C87.4 166.2 86.4 166.4 85.3 166.4ZM86.7 163C87.5 163 88.1 162.8 88.8 162.5C89.4 162.1 90.1 161.6 90.8 161V156.8C89.5 157 88.5 157.2 87.6 157.4C86.7 157.7 86 157.9 85.5 158.3C85 158.6 84.6 159 84.4 159.4C84.2 159.8 84.1 160.2 84.1 160.7C84.1 161.5 84.4 162.1 84.9 162.5C85.3 162.8 85.9 163 86.7 163ZM104.5 166.4C103.2 166.4 101.9 166.2 100.7 165.7C99.5 165.2 98.4 164.6 97.5 163.8L99.6 161C100.4 161.7 101.3 162.2 102.1 162.6C102.9 163 103.8 163.1 104.8 163.1C105.8 163.1 106.6 162.9 107 162.5C107.5 162.1 107.7 161.5 107.7 160.9C107.7 160.5 107.6 160.2 107.4 159.9C107.2 159.6 106.9 159.3 106.5 159.1C106.1 158.9 105.7 158.7 105.2 158.5C104.7 158.3 104.2 158.1 103.8 157.9C103.2 157.7 102.6 157.4 101.9 157.1C101.3 156.8 100.7 156.4 100.2 156C99.7 155.6 99.3 155.1 99 154.5C98.7 153.9 98.5 153.2 98.5 152.4C98.5 150.8 99.1 149.4 100.3 148.4C101.5 147.4 103.2 146.8 105.3 146.8C106.6 146.8 107.8 147 108.8 147.5C109.8 148 110.7 148.5 111.5 149.1L109.5 151.8C108.8 151.3 108.2 150.9 107.5 150.7C106.8 150.4 106.1 150.2 105.4 150.2C104.5 150.2 103.8 150.4 103.3 150.8C102.9 151.2 102.7 151.7 102.7 152.2C102.7 152.6 102.8 152.9 103 153.2C103.2 153.5 103.5 153.7 103.9 153.9C104.3 154.1 104.7 154.3 105.1 154.5C105.6 154.7 106.1 154.9 106.6 155C107.2 155.2 107.9 155.5 108.5 155.8C109.1 156.1 109.7 156.4 110.2 156.9C110.7 157.3 111.1 157.9 111.5 158.5C111.8 159.1 112 159.8 112 160.7C112 161.5 111.8 162.3 111.5 163C111.2 163.7 110.7 164.3 110.1 164.8C109.5 165.3 108.7 165.7 107.8 166C106.7 166.3 105.6 166.4 104.5 166.4ZM122.5 166.4C121.2 166.4 120 166.2 118.9 165.8C117.8 165.3 116.8 164.7 116 163.9C115.2 163.1 114.5 162 114 160.9C113.5 159.7 113.3 158.3 113.3 156.8C113.3 155.3 113.5 153.9 114 152.7C114.5 151.5 115.1 150.5 115.9 149.6C116.7 148.8 117.6 148.1 118.7 147.7C119.7 147.2 120.8 147 121.9 147C123.2 147 124.3 147.2 125.2 147.6C126.2 148 127 148.6 127.6 149.4C128.3 150.2 128.8 151.1 129.1 152.2C129.4 153.3 129.6 154.5 129.6 155.8C129.6 156.2 129.6 156.6 129.5 157C129.5 157.4 129.4 157.7 129.4 157.9H117.5C117.7 159.6 118.3 160.9 119.2 161.8C120.2 162.7 121.4 163.1 123 163.1C123.8 163.1 124.6 163 125.2 162.8C125.9 162.5 126.6 162.2 127.3 161.8L128.8 164.5C127.9 165.1 126.9 165.6 125.8 165.9C124.8 166.2 123.7 166.4 122.5 166.4ZM117.5 154.9H125.8C125.8 153.5 125.5 152.3 124.9 151.5C124.3 150.7 123.3 150.2 122.1 150.2C121 150.2 120 150.6 119.2 151.4C118.3 152.2 117.7 153.3 117.5 154.9Z" fill="#D2DCE3"/>
<path d="M55.7 91.3L132.7 100.5V202.2L55.7 212.3V91.3Z" fill="#ABC7D6"/>
<path opacity="0.5" d="M67.8 153.5L122.8 154.6M83.3 116.1L121.7 118.7L83.3 116.1ZM67.8 164.5L121.7 162.3L67.8 164.5ZM83.3 126.4L121.8 128.5L83.3 126.4ZM67.8 175.5L121.7 173.3L67.8 175.5ZM67.8 134.5L122.8 137.1L67.8 134.5ZM67.8 185.5L122.8 182.2L67.8 185.5ZM67.8 143.6L122.8 145.9L67.8 143.6Z" stroke="#8194A1"/>
<path d="M100.8 107.8L177.8 117V218.7L100.8 228.8V107.8Z" fill="#D2DCE3"/>
<path d="M176.9 217.9L101.9 227.8V109L176.9 118V217.9Z" stroke="#D2DCE3" stroke-width="2"/>
<path opacity="0.5" d="M131.7 166.7L170.2 167.5M131.7 129.3L170.1 131.9L131.7 129.3ZM114 177.7L170.1 176.6L114 177.7ZM131.7 139.6L170.2 141.7L131.7 139.6ZM114 188.6L165.7 186.8L114 188.6ZM131.7 147.7L170.2 149.5L131.7 147.7ZM114 199.8L169 195.4L114 199.8ZM131.7 156.8L170.2 158.4L131.7 156.8Z" stroke="#8194A1"/>
<path d="M160.3 124.3L237.3 130.4V239.3L160.3 245.4V124.3Z" fill="#E4E8EB"/>
<path opacity="0.5" d="M173.5 184.3L212 185.1M173.5 147L211.9 149.6L173.5 147ZM173.5 195.3L212 196.1L173.5 195.3ZM173.5 156.1L212 158.2L173.5 156.1ZM173.5 205.2H212H173.5ZM173.5 165.3L212 167.1L173.5 165.3ZM173.4 216.3L211.9 215.2L173.4 216.3ZM173.5 174.4L212 176L173.5 174.4Z" stroke="#8194A1"/>
<path opacity="0.5" d="M216.4 153L219.2 156.9L225.3 149.7" stroke="#8194A1" stroke-width="2"/>
<path opacity="0.5" d="M225.3 160.6L216 160.2C215.2 160.2 214.6 159.5 214.6 158.7V149.5C214.6 148.6 215.3 148 216.2 148L225.4 148.5C226.2 148.5 226.8 149.2 226.8 150V159.1C226.9 160 226.2 160.7 225.3 160.6Z" stroke="#8194A1"/>
<path opacity="0.5" d="M116.3 148.6L119.1 152.5L125.2 145.3" stroke="#8194A1" stroke-width="2"/>
<path opacity="0.5" d="M125.2 156.2L115.9 155.8C115.1 155.8 114.5 155.1 114.5 154.3V145.1C114.5 144.2 115.2 143.6 116.1 143.6L125.3 144.1C126.1 144.1 126.7 144.8 126.7 145.6V154.7C126.8 155.6 126.1 156.3 125.2 156.2Z" stroke="#8194A1"/>
<path opacity="0.5" d="M69 118.9L71.8 122.8L77.9 115.6" stroke="#8194A1" stroke-width="2"/>
<path opacity="0.5" d="M77.9 126.5L68.6 126.1C67.8 126.1 67.2 125.4 67.2 124.6V115.4C67.2 114.5 67.9 113.9 68.8 113.9L78 114.4C78.8 114.4 79.4 115.1 79.4 115.9V125C79.5 125.9 78.8 126.6 77.9 126.5Z" stroke="#8194A1"/>
<path opacity="0.5" d="M125.2 139.7L115.9 139.3C115.1 139.3 114.5 138.6 114.5 137.8V128.6C114.5 127.7 115.2 127.1 116.1 127.1L125.3 127.6C126.1 127.6 126.7 128.3 126.7 129.1V138.2C126.8 139.1 126.1 139.8 125.2 139.7Z" stroke="#8194A1"/>
<path opacity="0.5" d="M116.3 166.2L119.1 170.1L125.2 162.9" stroke="#8194A1" stroke-width="2"/>
<path opacity="0.5" d="M125.2 172.8L115.9 172.4C115.1 172.4 114.5 171.7 114.5 170.9V161.7C114.5 160.8 115.2 160.2 116.1 160.2L125.3 160.7C126.1 160.7 126.7 161.4 126.7 162.2V171.3C126.8 172.1 126.1 172.8 125.2 172.8Z" stroke="#8194A1"/>
<path opacity="0.5" d="M216.4 171.3L219.2 175.7L225.3 167.4" stroke="#8194A1" stroke-width="2"/>
<path opacity="0.5" d="M225.4 177.8H216.2C215.4 177.8 214.7 177.1 214.7 176.3V167.2C214.7 166.3 215.4 165.7 216.3 165.7L225.5 166.1C226.3 166.1 226.9 166.8 226.9 167.6V176.3C226.9 177.1 226.2 177.8 225.4 177.8Z" stroke="#8194A1"/>
</svg>
