<svg width="262" height="254" fill="none" xmlns="http://www.w3.org/2000/svg"><path d="M193.8 238.6a5 5 0 10-.001-10.001 5 5 0 00.001 10.001z" fill="#5C5CE8"/><path d="M204.9 239.6a5 5 0 10-.001-10.001 5 5 0 00.001 10.001zM226.4 233a6 6 0 100-12 6 6 0 000 12z" fill="#7474CE"/><path d="M236.3 223.5a6.5 6.5 0 100-13 6.5 6.5 0 000 13z" fill="#5C5CE8"/><path d="M242.8 211a7 7 0 100-14 7 7 0 000 14z" fill="#7474CE"/><path d="M243.8 196.9a7 7 0 100-14 7 7 0 000 14z" fill="#5C5CE8"/><path d="M241.7 182a7 7 0 100-14 7 7 0 000 14z" fill="#7474CE"/><path d="M233.8 169.6a7 7 0 100-14 7 7 0 000 14z" fill="#5C5CE8"/><path d="M220.3 163.5a8 8 0 100-16 8 8 0 000 16z" fill="#7474CE"/><path d="M202.3 165.6a9 9 0 009-9 9 9 0 00-9-9 9 9 0 00-9 9 9 9 0 009 9z" fill="#5C5CE8"/><path d="M182.7 173c5.523 0 10-4.477 10-10s-4.477-10-10-10-10 4.477-10 10 4.477 10 10 10z" fill="#7474CE"/><path d="M165.6 185.3c5.523 0 10-4.477 10-10s-4.477-10-10-10-10 4.477-10 10 4.477 10 10 10z" fill="#5C5CE8"/><path d="M149.6 200.5c5.523 0 10-4.477 10-10s-4.477-10-10-10-10 4.477-10 10 4.477 10 10 10z" fill="#7474CE"/><path d="M131.2 218.9c6.904 0 12.5-5.596 12.5-12.5s-5.596-12.5-12.5-12.5-12.5 5.596-12.5 12.5 5.596 12.5 12.5 12.5z" fill="#5C5CE8"/><path d="M106.5 233c7.456 0 13.5-6.044 13.5-13.5s-6.044-13.5-13.5-13.5S93 212.044 93 219.5s6.044 13.5 13.5 13.5z" fill="#7474CE"/><path d="M78 238c7.732 0 14-6.268 14-14s-6.268-14-14-14-14 6.268-14 14 6.268 14 14 14z" fill="#5C5CE8"/><path d="M50 229c8.284 0 15-6.716 15-15 0-8.284-6.716-15-15-15-8.284 0-15 6.716-15 15 0 8.284 6.716 15 15 15z" fill="#7474CE"/><path d="M32.8 202c9.389 0 17-7.611 17-17s-7.611-17-17-17-17 7.611-17 17 7.611 17 17 17z" fill="#5C5CE8"/><path d="M29.8 168c9.941 0 18-8.059 18-18s-8.059-18-18-18-18 8.059-18 18 8.059 18 18 18z" fill="#7474CE"/><path d="M36.3 132c10.217 0 18.5-8.283 18.5-18.5S46.517 95 36.3 95s-18.5 8.283-18.5 18.5S26.083 132 36.3 132z" fill="#5C5CE8"/><path d="M60.5 102.9c10.77 0 19.5-8.73 19.5-19.5s-8.73-19.5-19.5-19.5S41 72.63 41 83.4s8.73 19.5 19.5 19.5z" fill="#7474CE"/><path d="M97 84.9c11.046 0 20-8.954 20-20s-8.954-20-20-20-20 8.954-20 20 8.954 20 20 20z" fill="#5C5CE8"/><path d="M138.8 78c11.598 0 21-9.402 21-21s-9.402-21-21-21-21 9.402-21 21 9.402 21 21 21z" fill="#7474CE"/><path d="M217.8 124c13.807 0 25-11.193 25-25s-11.193-25-25-25-25 11.193-25 25 11.193 25 25 25zM215.8 236.8a5 5 0 10-.001-10.001 5 5 0 00.001 10.001z" fill="#5C5CE8"/><path fill-rule="evenodd" clip-rule="evenodd" d="M184.4 37.6c-13.255 0-24 10.745-24 24s10.745 24 24 24c6.205 0 11.86-2.355 16.121-6.22l3.579 2.92-1.7 2.1 23.3 18.9 6.3-7.8-23.3-18.9-1.4 1.8-3.447-2.74A23.89 23.89 0 00208.4 61.6c0-13.255-10.745-24-24-24zm-19 24c0-10.493 8.507-19 19-19s19 8.507 19 19-8.507 19-19 19-19-8.507-19-19z" fill="#33206E"/><path d="M6.2 64c12.8 9.4 18-12.8 28.4 3.6 6.1 9.7 16.5-.8 10.8-5.3C16 38.8 74.3 31.5 68 46.7c-6.3 15.2-4.6 19.6 3.7 19.3 8.2-.4 4.6-27.2 16.9-12.9 12.4 14.3 3.4-1.5 8.9-7.6s-7-2.5-9.7-9.7c-2.7-7.3.9-24 11.5-15.1s19-12.2 26.1 2.9c7.2 15.1 20.1-11.6 20.1-11.6" stroke="#00639A" stroke-width="4"/><path d="M126.8 85.5s.1 8.4-5.4 8.1c-5.5-.2-4.2-8-7.4-7.5s1.4 16-7.3 9.7c-8.7-6.3-2.2 9.3-14.4-1.2M201.1 124.2s-8.3 5.6-11.9.9c-3.6-4.7 5.1-8.8 2.4-11-2.7-2.3-15.1 11.7-14.8.3.3-11.3-10.9 4.4-8.9-12.7" stroke="#00639A" stroke-width="3"/><path d="M147.9 37.2c32.6 1.9 19.5 24.4 26.7 30.3 7.2 5.9 21.3-27.8 22.8-3.5 1.5 24.2 35.5-13.6 34.8 21.7" stroke="#00639A" stroke-width="4"/></svg>