<svg width="287" height="269" viewBox="0 0 287 269" fill="none" xmlns="http://www.w3.org/2000/svg">
<g filter="url(#filter0_i)">
<g filter="url(#filter1_i)">
<path d="M216.138 247.866C213.113 248.085 210.838 250.714 211.056 253.74C211.275 256.765 213.904 259.04 216.93 258.822C219.955 258.603 222.23 255.974 222.012 252.948C221.793 249.923 219.164 247.648 216.138 247.866Z" fill="#5C5CE8"/>
</g>
<path d="M228.318 248.946C225.293 249.165 223.018 251.794 223.236 254.82C223.455 257.845 226.084 260.12 229.11 259.902C232.135 259.683 234.41 257.054 234.192 254.028C233.973 251.003 231.344 248.728 228.318 248.946Z" fill="#7474CE"/>
<path d="M251.867 239.536C248.237 239.798 245.506 242.953 245.769 246.584C246.031 250.214 249.186 252.945 252.817 252.682C256.447 252.42 259.178 249.265 258.915 245.634C258.653 242.004 255.498 239.273 251.867 239.536Z" fill="#7474CE"/>
<g filter="url(#filter2_i)">
<path d="M262.597 227.982C258.664 228.266 255.706 231.684 255.99 235.617C256.274 239.55 259.692 242.508 263.625 242.224C267.558 241.94 270.516 238.522 270.232 234.589C269.948 230.656 266.53 227.698 262.597 227.982Z" fill="#5C5CE8"/>
</g>
<path d="M269.785 213.146C265.55 213.452 262.364 217.133 262.67 221.369C262.976 225.604 266.657 228.79 270.893 228.484C275.128 228.178 278.314 224.497 278.008 220.261C277.702 216.026 274.021 212.84 269.785 213.146Z" fill="#7474CE"/>
<g filter="url(#filter3_i)">
<path d="M270.868 197.65C266.633 197.956 263.447 201.637 263.753 205.873C264.059 210.108 267.74 213.294 271.976 212.988C276.211 212.682 279.397 209.001 279.091 204.765C278.785 200.53 275.104 197.344 270.868 197.65Z" fill="#5C5CE8"/>
</g>
<g filter="url(#filter4_i)">
<path d="M268.586 181.295C264.351 181.601 261.165 185.282 261.471 189.518C261.777 193.753 265.458 196.939 269.694 196.633C273.929 196.327 277.115 192.646 276.809 188.41C276.503 184.175 272.822 180.989 268.586 181.295Z" fill="#7474CE"/>
</g>
<g filter="url(#filter5_i)">
<path d="M259.895 167.612C255.66 167.918 252.474 171.599 252.78 175.835C253.086 180.07 256.767 183.256 261.003 182.95C265.238 182.644 268.424 178.963 268.118 174.727C267.812 170.492 264.131 167.306 259.895 167.612Z" fill="#5C5CE8"/>
</g>
<path d="M244.94 158.781C240.099 159.131 236.459 163.338 236.808 168.179C237.158 173.02 241.366 176.66 246.206 176.311C251.047 175.961 254.687 171.754 254.338 166.913C253.988 162.072 249.781 158.432 244.94 158.781Z" fill="#7474CE"/>
<g filter="url(#filter6_i)">
<path d="M225.112 158.872C219.666 159.265 215.571 163.999 215.964 169.444C216.357 174.89 221.091 178.985 226.536 178.592C231.982 178.199 236.077 173.465 235.684 168.02C235.291 162.574 230.557 158.479 225.112 158.872Z" fill="#5C5CE8"/>
</g>
<path d="M203.518 164.836C197.467 165.273 192.916 170.533 193.353 176.583C193.79 182.634 199.05 187.185 205.1 186.748C211.151 186.311 215.702 181.051 215.265 175.001C214.828 168.95 209.568 164.399 203.518 164.836Z" fill="#7474CE"/>
<g filter="url(#filter7_i)">
<path d="M184.668 178.311C178.617 178.748 174.066 184.008 174.503 190.058C174.94 196.109 180.2 200.66 186.25 200.223C192.301 199.786 196.852 194.526 196.415 188.476C195.978 182.425 190.718 177.874 184.668 178.311Z" fill="#5C5CE8"/>
</g>
<path d="M167.15 194.994C161.099 195.431 156.548 200.691 156.985 206.741C157.422 212.792 162.682 217.343 168.732 216.906C174.783 216.469 179.334 211.209 178.897 205.159C178.46 199.108 173.2 194.557 167.15 194.994Z" fill="#7474CE"/>
<g filter="url(#filter8_i)">
<path d="M146.736 209.684C139.173 210.231 133.484 216.805 134.03 224.368C134.577 231.931 141.151 237.62 148.714 237.074C156.277 236.527 161.966 229.953 161.42 222.39C160.873 214.827 154.299 209.138 146.736 209.684Z" fill="#5C5CE8"/>
</g>
<path d="M120.588 222.972C112.398 222.972 105.759 229.611 105.759 237.801C105.759 245.991 112.398 252.63 120.588 252.63C128.778 252.63 135.417 245.991 135.417 237.801C135.417 229.611 128.778 222.972 120.588 222.972Z" fill="#7474CE"/>
<path d="M89.2831 227.366C80.7901 227.366 73.9051 234.251 73.9051 242.744C73.9051 251.237 80.7901 258.122 89.2831 258.122C97.7761 258.122 104.661 251.237 104.661 242.744C104.661 234.251 97.7761 227.366 89.2831 227.366Z" fill="#5C5CE8"/>
<path d="M58.5315 215.288C49.4318 215.288 42.0551 222.664 42.0551 231.764C42.0551 240.864 49.4318 248.24 58.5315 248.24C67.6312 248.24 75.0079 240.864 75.0079 231.764C75.0079 222.664 67.6312 215.288 58.5315 215.288Z" fill="#7474CE"/>
<g filter="url(#filter9_i)">
<path d="M39.6727 181.249C29.3598 181.249 20.9995 189.609 20.9995 199.922C20.9995 210.235 29.3598 218.595 39.6727 218.595C49.9856 218.595 58.3459 210.235 58.3459 199.922C58.3459 189.609 49.9856 181.249 39.6727 181.249Z" fill="#5C5CE8"/>
</g>
<path d="M36.3776 141.705C25.458 141.705 16.6059 150.557 16.6059 161.477C16.6059 172.397 25.458 181.249 36.3776 181.249C47.2972 181.249 56.1493 172.397 56.1493 161.477C56.1493 150.557 47.2972 141.705 36.3776 141.705Z" fill="#7474CE"/>
<g filter="url(#filter10_i)">
<path d="M43.5174 101.063C32.2945 101.063 23.1965 110.161 23.1965 121.384C23.1965 132.607 32.2945 141.705 43.5174 141.705C54.7403 141.705 63.8383 132.607 63.8383 121.384C63.8383 110.161 54.7403 101.063 43.5174 101.063Z" fill="#5C5CE8"/>
</g>
<path d="M70.0615 66.922C58.2319 66.922 48.6422 76.5118 48.6422 88.3413C48.6422 100.171 58.2319 109.761 70.0615 109.761C81.891 109.761 91.4808 100.171 91.4808 88.3413C91.4808 76.5118 81.891 66.922 70.0615 66.922Z" fill="#7474CE"/>
<g filter="url(#filter11_i)">
<path d="M110.153 46.0519C98.0201 46.0519 88.1845 55.8875 88.1845 68.0204C88.1845 80.1533 98.0201 89.9889 110.153 89.9889C122.286 89.9889 132.121 80.1533 132.121 68.0204C132.121 55.8875 122.286 46.0519 110.153 46.0519Z" fill="#5C5CE8"/>
</g>
<path d="M156.105 36.2562C143.366 36.2562 133.038 46.5836 133.038 59.3231C133.038 72.0626 143.366 82.39 156.105 82.39C168.845 82.39 179.172 72.0626 179.172 59.3231C179.172 46.5836 168.845 36.2562 156.105 36.2562Z" fill="#7474CE"/>
<g filter="url(#filter12_i)">
<path d="M242.881 77.9964C227.715 77.9964 215.42 90.2909 215.42 105.457C215.42 120.623 227.715 132.918 242.881 132.918C258.047 132.918 270.342 120.623 270.342 105.457C270.342 90.2909 258.047 77.9964 242.881 77.9964Z" fill="#5C5CE8"/>
</g>
<g filter="url(#filter13_i)">
<path d="M240.291 245.881C237.266 246.1 234.991 248.729 235.209 251.755C235.428 254.78 238.057 257.055 241.083 256.837C244.108 256.618 246.383 253.989 246.165 250.963C245.946 247.938 243.317 245.663 240.291 245.881Z" fill="#5C5CE8"/>
</g>
</g>
<path fill-rule="evenodd" clip-rule="evenodd" d="M223.852 83.9361C218.424 88.8329 210.997 91.4607 203.164 90.5567C188.701 88.8876 178.329 75.8096 179.998 61.3462C181.667 46.8827 194.745 36.5108 209.209 38.1799C223.672 39.849 234.044 52.927 232.375 67.3905C231.836 72.0582 230.109 76.2998 227.531 79.8481L231.236 82.8503L232.825 80.8893L258.426 101.637L251.51 110.171L225.909 89.423L227.778 87.1172L223.852 83.9361ZM227.408 66.8173C226.055 78.5375 215.458 86.9422 203.738 85.5897C192.017 84.2372 183.613 73.6396 184.965 61.9194C186.318 50.1991 196.915 41.7944 208.635 43.147C220.356 44.4995 228.76 55.0971 227.408 66.8173Z" fill="#33206E"/>
<path d="M174.682 39.213C174.622 39.2236 174.56 39.2301 174.498 39.2324C173.616 39.2649 172.869 38.4303 172.83 37.3682C172.791 36.3061 173.474 35.4187 174.356 35.3862C174.486 35.3814 174.612 35.3953 174.734 35.4259C181.944 35.7049 187.006 37.4671 190.588 40.2372C194.248 43.0671 196.199 46.8209 197.358 50.63C198.237 53.5153 198.684 56.5482 199.071 59.1703C199.181 59.9183 199.287 60.6328 199.396 61.301C199.927 64.5557 200.52 66.5165 201.611 67.5278C201.928 67.8217 202.221 67.8927 202.717 67.7016C203.32 67.4696 204.092 66.8728 205.035 65.8615C206.313 64.4897 207.583 62.7301 208.899 60.9075C209.554 60.0009 210.22 59.0781 210.904 58.1802C211.882 56.8954 212.903 55.6602 213.914 54.7804C214.867 53.9509 216.156 53.128 217.58 53.4256C219.12 53.7476 220.093 55.1966 220.712 56.9007C221.34 58.6327 221.784 61.0861 222.076 64.3435C222.342 67.3124 223.009 69.0875 223.792 70.1585C224.548 71.1937 225.555 71.7657 226.882 71.9992C228.249 72.2398 229.88 72.1048 231.745 71.7581C232.999 71.525 234.265 71.2168 235.577 70.8976L235.578 70.8974L235.581 70.8967C236.235 70.7375 236.901 70.5756 237.582 70.4188C239.571 69.9611 241.639 69.5624 243.59 69.5521C245.543 69.5419 247.518 69.9186 249.234 71.1551C252.783 73.7125 254.347 79.2093 253.88 88.4912L253.856 88.4893C253.814 89.4659 253.16 90.2522 252.331 90.2828C251.449 90.3153 250.702 89.4806 250.663 88.4185C250.661 88.355 250.661 88.2922 250.664 88.23L250.64 88.2281C251.096 79.1815 249.433 75.7288 247.551 74.3729C246.552 73.6529 245.26 73.332 243.639 73.3405C242.015 73.349 240.201 73.6853 238.243 74.136C237.637 74.2755 237.01 74.4279 236.374 74.5826C235.017 74.9124 233.618 75.2525 232.289 75.4995C230.321 75.8654 228.297 76.0735 226.432 75.7451C224.525 75.4095 222.722 74.5003 221.332 72.5992C219.969 70.7339 219.155 68.1177 218.848 64.6975C218.567 61.5657 218.165 59.5564 217.726 58.3467C217.509 57.7501 217.314 57.4347 217.184 57.2801C217.123 57.2072 217.083 57.177 217.066 57.1661C217.051 57.1564 217.045 57.1551 217.041 57.1545C217.006 57.147 216.666 57.1346 215.872 57.826C215.136 58.467 214.292 59.4629 213.34 60.7139C212.786 61.4416 212.191 62.2634 211.574 63.1171L211.572 63.1199V63.1206C210.18 65.045 208.673 67.1306 207.245 68.6628C206.2 69.7852 205.022 70.8162 203.764 71.3006C202.4 71.8258 200.922 71.7018 199.609 70.484C197.439 68.472 196.715 65.0779 196.208 61.9713C196.078 61.1736 195.959 60.3723 195.84 59.5692C195.46 56.9985 195.076 54.4093 194.302 51.8637C193.315 48.6233 191.736 45.6463 188.816 43.3887C185.905 41.1377 181.504 39.4799 174.682 39.213Z" fill="#00639A"/>
<path fill-rule="evenodd" clip-rule="evenodd" d="M165 6C165 6.36163 164.904 6.70084 164.736 6.99356C164.706 7.05296 164.665 7.13416 164.614 7.23551C164.499 7.46049 164.331 7.78481 164.116 8.18966C163.685 8.99884 163.063 10.1326 162.292 11.4397C160.758 14.0391 158.596 17.3869 156.146 20.2322C153.782 22.9777 150.809 25.6669 147.592 26.2926C145.869 26.6278 144.107 26.3638 142.483 25.2924C140.917 24.2591 139.623 22.5713 138.548 20.3122C136.689 16.4069 135.058 15.4862 133.886 15.3159C132.473 15.1106 130.79 15.7815 128.335 17.0728C128.046 17.2251 127.747 17.3856 127.438 17.551C125.378 18.655 122.916 19.9748 120.329 20.5062C117.139 21.1611 113.757 20.6469 110.362 17.8004C107.691 15.5614 105.901 15.3072 104.815 15.5713C103.692 15.8449 102.573 16.8521 101.658 18.78C100.76 20.6719 100.22 23.1412 100.097 25.6438C99.9737 28.1547 100.279 30.5092 100.909 32.1753C101.444 33.5907 102.449 34.5129 103.771 35.207C105.06 35.8832 106.511 36.2763 107.998 36.6788L108.327 36.7682C109.078 36.9726 109.89 37.2005 110.587 37.4891C111.243 37.7609 112.117 38.2096 112.694 39.0382C113.382 40.0256 113.395 41.1578 113.027 42.1796C112.697 43.0956 112.043 44.0009 111.226 44.9093C110.171 46.0823 109.691 47.8671 109.557 50.0554C109.492 51.1202 109.512 52.2021 109.553 53.2517C109.564 53.5413 109.577 53.837 109.591 54.1316C109.623 54.856 109.656 55.5752 109.656 56.1823C109.656 56.6221 109.641 57.076 109.587 57.5008C109.537 57.9009 109.434 58.4246 109.175 58.9186C108.887 59.4643 108.35 60.0653 107.474 60.2809C106.69 60.4742 105.989 60.2644 105.525 60.0594C104.626 59.6621 103.65 58.8446 102.602 57.8219C101.499 56.7462 100.124 55.2478 98.4122 53.266C96.7759 51.3715 95.5233 50.3026 94.5948 49.7668C93.6936 49.2467 93.3087 49.3403 93.1947 49.3786C93.0096 49.4409 92.6477 49.6712 92.1691 50.4625C91.7011 51.2363 91.2661 52.3058 90.8228 53.6354C90.5124 54.5666 90.2238 55.5424 89.9208 56.5667L89.9202 56.5688C89.7902 57.008 89.6577 57.4562 89.5196 57.9137C89.0716 59.3979 88.5756 60.9432 87.9746 62.3427C86.8522 64.9565 84.9633 68.0004 81.4009 68.157C79.0069 68.2623 76.7925 68.0391 75.006 67.1557C73.0965 66.2116 71.8601 64.6043 71.3647 62.4239C70.8965 60.3629 71.0997 57.8541 71.7845 54.9385C72.4764 51.9929 73.7051 48.4512 75.4625 44.239C76.0994 42.7126 75.8457 41.7973 75.3276 41.1268C74.6914 40.3034 73.3798 39.5082 71.3059 38.9632C67.2003 37.8842 61.2245 38.083 55.9297 39.5777C53.301 40.3198 50.9395 41.3545 49.1134 42.6265C47.2826 43.9017 46.1007 45.3346 45.5959 46.8521C44.6535 49.6846 45.7505 54.2114 53.6656 60.543C55.8393 62.2818 56.5352 64.6861 56.1256 66.9715C55.7338 69.1577 54.3618 71.1493 52.5665 72.4866C50.7523 73.8379 48.3464 74.6376 45.7983 74.1834C43.218 73.7235 40.8108 72.0366 38.9013 69.0256C36.1051 64.6164 34.1615 63.3969 32.9032 63.1564C31.6645 62.9196 30.4064 63.4753 28.3779 64.7873C28.1451 64.9379 27.902 65.0988 27.6489 65.2663L27.6467 65.2678C25.9292 66.4048 23.7547 67.8443 21.2366 68.4106C18.123 69.111 14.7078 68.4817 10.8092 65.6116L10.8114 65.6086C10.3191 65.2443 10 64.6594 10 64C10 62.8954 10.8954 62 12 62C12.4451 62 12.8563 62.1454 13.1886 62.3914L13.1908 62.3884C16.3368 64.7046 18.5901 64.9106 20.3735 64.5095C22.1173 64.1173 23.6203 63.1314 25.3919 61.9693C25.6592 61.794 25.9326 61.6146 26.2138 61.4327C28.1443 60.1841 30.6786 58.6567 33.6704 59.2286C36.6427 59.7967 39.3678 62.2777 42.2833 66.8749C43.7353 69.1645 45.2703 70.0245 46.5165 70.2466C47.7949 70.4744 49.0997 70.0914 50.184 69.2837C51.2872 68.462 52.0015 67.3185 52.1873 66.282C52.3553 65.3449 52.1201 64.439 51.1576 63.669C42.9768 57.1249 40.0064 50.9946 41.7996 45.6044C42.6626 43.0106 44.5493 40.9407 46.8347 39.3488C49.1248 37.7537 51.9271 36.5567 54.8567 35.7297C60.6784 34.0862 67.3969 33.7969 72.3383 35.0955C74.7878 35.7392 77.0877 36.8492 78.4981 38.6745C80.0266 40.6526 80.2543 43.1293 79.1545 45.7652C77.4386 49.8778 76.3007 53.1929 75.6795 55.8373C75.0513 58.5118 74.9948 60.3263 75.2667 61.5232C75.5115 62.6008 76.0152 63.186 76.792 63.57C77.6917 64.0149 79.11 64.2557 81.2414 64.162C82.2045 64.1197 83.2063 63.3226 84.2988 60.7784C84.8053 59.5989 85.2479 58.2359 85.6894 56.7732C85.8127 56.3647 85.937 55.9446 86.0626 55.52C86.3742 54.4665 86.6942 53.3848 87.0274 52.3854C87.4954 50.9814 88.0425 49.5693 88.7473 48.4041C89.4415 47.2563 90.4432 46.0902 91.9322 45.5892C93.4923 45.0644 95.0922 45.4279 96.6062 46.3017C98.0929 47.1597 99.6859 48.6084 101.446 50.6459C103.13 52.5963 104.419 53.9957 105.402 54.9544C105.481 55.0313 105.557 55.1044 105.63 55.1739C105.621 54.9406 105.61 54.6946 105.598 54.4338C105.584 54.1196 105.569 53.7839 105.555 53.4228C105.513 52.3318 105.486 51.0929 105.564 49.8273C105.715 47.3548 106.279 44.4408 108.255 42.243C108.669 41.7829 108.923 41.4398 109.075 41.1981L109.042 41.1842C108.613 41.0068 108.039 40.8384 107.262 40.627C107.139 40.5938 107.013 40.5597 106.882 40.5246C105.462 40.1421 103.598 39.64 101.9 38.7492C99.9855 37.7445 98.1397 36.1782 97.1655 33.6029C96.2862 31.2782 95.9594 28.3411 96.101 25.4638C96.2429 22.5783 96.865 19.5629 98.0443 17.0783C99.2064 14.6298 101.081 12.3685 103.884 11.6862C106.726 10.9945 109.797 12.0971 112.94 14.7321C115.359 16.7595 117.487 17.0106 119.539 16.5892C121.507 16.185 123.398 15.1777 125.509 14.0528C125.828 13.8827 126.153 13.7098 126.483 13.5359C128.766 12.3347 131.586 10.9385 134.478 11.3585C137.609 11.8135 140.082 14.2106 142.163 18.5824C143.057 20.4619 143.948 21.4579 144.697 21.9525C145.389 22.409 146.074 22.5171 146.843 22.3675C148.61 22.0238 150.806 20.3165 153.118 17.631C155.345 15.045 157.367 11.9271 158.848 9.4185C159.584 8.17161 160.177 7.09082 160.585 6.32395C160.788 5.94077 160.946 5.63669 161.051 5.43028C161.08 5.37402 161.104 5.32504 161.125 5.2837C161.139 5.25756 161.15 5.23448 161.16 5.21455C161.465 4.50043 162.174 4 163 4C164.105 4 165 4.89543 165 6Z" fill="#00639A"/>
<path fill-rule="evenodd" clip-rule="evenodd" d="M190 108.5C190 108.563 189.996 108.626 189.988 108.687L189.992 108.688C189.724 110.979 189.677 112.65 189.776 113.857C189.876 115.081 190.117 115.705 190.314 116.007C190.468 116.242 190.613 116.318 190.82 116.36C191.108 116.418 191.518 116.4 192.139 116.295C192.309 116.266 192.527 116.223 192.767 116.177C193.215 116.089 193.738 115.987 194.159 115.934C194.868 115.843 195.782 115.802 196.66 116.157C197.626 116.548 198.322 117.319 198.733 118.397C199.122 119.413 199.272 120.726 199.232 122.365C199.197 123.819 199.374 124.683 199.591 125.165C199.776 125.577 199.959 125.665 200.113 125.707C200.36 125.775 200.803 125.776 201.519 125.564C202.216 125.358 203.023 124.997 203.921 124.525C204.813 124.055 205.738 123.507 206.678 122.948L206.783 122.885C207.675 122.355 208.585 121.813 209.435 121.364C210.303 120.906 211.211 120.488 212.055 120.288C212.858 120.099 214.012 120.013 214.942 120.804C215.576 121.344 215.977 122.044 216.042 122.864C216.102 123.616 215.866 124.297 215.604 124.832C215.22 125.618 214.562 126.489 213.976 127.265C213.811 127.484 213.652 127.695 213.506 127.894C212.757 128.919 212.192 129.834 211.979 130.709C211.793 131.475 211.863 132.252 212.565 133.166C213.947 134.963 216.102 135.032 218.469 134.295C219.608 133.941 220.654 133.433 221.425 133.006C221.808 132.794 222.115 132.606 222.324 132.473C222.388 132.432 222.443 132.396 222.488 132.367C222.515 132.349 222.539 132.333 222.559 132.32C222.572 132.311 222.583 132.304 222.592 132.297C222.601 132.291 222.608 132.286 222.614 132.282L222.625 132.274C222.625 132.274 222.625 132.274 222.629 132.279C222.874 132.103 223.175 132 223.5 132C224.328 132 225 132.672 225 133.5C225 134.004 224.752 134.449 224.371 134.721C224.375 134.726 224.374 134.726 224.374 134.726L224.373 134.727L224.363 134.734L224.339 134.751C224.319 134.764 224.291 134.783 224.256 134.807C224.221 134.831 224.178 134.86 224.127 134.893C224.078 134.925 224.022 134.961 223.96 135.001C223.708 135.161 223.348 135.382 222.904 135.627C222.024 136.115 220.785 136.72 219.39 137.155C216.689 137.996 212.782 138.35 210.187 134.973C208.9 133.299 208.669 131.58 209.058 129.978C209.421 128.486 210.306 127.162 211.072 126.115C211.302 125.801 211.516 125.517 211.712 125.255C212.246 124.546 212.652 124.006 212.9 123.499C212.98 123.335 213.017 123.225 213.033 123.157C212.974 123.163 212.89 123.176 212.775 123.203C212.313 123.312 211.678 123.583 210.861 124.014C210.08 124.426 209.228 124.933 208.31 125.479L208.237 125.523C207.306 126.077 206.315 126.665 205.343 127.176C204.376 127.685 203.369 128.15 202.398 128.436C201.448 128.717 200.37 128.877 199.338 128.593C198.214 128.284 197.362 127.508 196.85 126.367C196.369 125.297 196.188 123.919 196.228 122.264C196.264 120.793 196.113 119.928 195.927 119.44C195.765 119.017 195.613 118.955 195.554 118.932L195.553 118.931C195.408 118.872 195.126 118.834 194.568 118.905C194.211 118.95 193.91 119.01 193.563 119.08C193.305 119.131 193.021 119.188 192.67 119.248C191.982 119.364 191.111 119.47 190.249 119.295C189.307 119.105 188.434 118.592 187.802 117.626C187.213 116.726 186.901 115.535 186.781 114.072C186.66 112.593 186.727 110.707 187.008 108.312L187.012 108.313C187.104 107.573 187.735 107 188.5 107C189.328 107 190 107.672 190 108.5ZM213.154 123.157C213.153 123.157 213.15 123.156 213.142 123.155C213.15 123.155 213.154 123.156 213.154 123.157Z" fill="#00639A"/>
<path fill-rule="evenodd" clip-rule="evenodd" d="M141.401 99.4875C140.28 100.522 138.765 101.13 136.853 101.049C134.916 100.967 133.502 100.202 132.476 99.1078C131.502 98.0696 130.92 96.7785 130.492 95.7079C130.363 95.3852 130.25 95.0912 130.147 94.8224L130.146 94.8208C129.869 94.099 129.661 93.5589 129.397 93.1321C129.327 93.0189 129.268 92.9407 129.222 92.8873C129.116 93.1897 129.023 93.6566 128.951 94.316C128.873 95.029 128.833 95.8412 128.788 96.7315L128.785 96.795C128.74 97.6901 128.69 98.6553 128.589 99.5695C128.489 100.476 128.331 101.41 128.041 102.234C127.757 103.042 127.284 103.922 126.431 104.499C125.515 105.119 124.433 105.211 123.335 104.934C122.284 104.669 121.139 104.052 119.877 103.134C118.742 102.308 117.977 101.926 117.484 101.777C117.247 101.706 117.11 101.699 117.047 101.702C117.017 101.704 117.001 101.708 116.996 101.709C116.995 101.709 116.994 101.71 116.993 101.71C116.992 101.71 116.991 101.711 116.99 101.711L116.988 101.712C116.971 101.721 116.854 101.796 116.651 102.169C116.515 102.418 116.425 102.622 116.316 102.87C116.23 103.064 116.133 103.285 115.992 103.576C115.738 104.101 115.357 104.801 114.724 105.333C114.016 105.927 113.114 106.217 112.056 106.108C111.078 106.008 110.016 105.576 108.835 104.872C107.636 104.157 106.211 103.099 104.492 101.623L104.498 101.616C104.192 101.341 104 100.943 104 100.5C104 99.6715 104.672 99 105.5 99C105.885 99 106.237 99.1452 106.502 99.3839L106.508 99.3773C108.159 100.795 109.441 101.735 110.437 102.329C111.451 102.933 112.071 103.12 112.414 103.155C112.665 103.181 112.727 103.128 112.766 103.095L112.771 103.09C112.884 102.995 113.038 102.789 113.257 102.337C113.307 102.234 113.374 102.085 113.45 101.914L113.451 101.913C113.609 101.561 113.809 101.118 113.982 100.8C114.279 100.257 114.75 99.5485 115.562 99.113C116.435 98.644 117.416 98.6367 118.415 98.9386C119.377 99.2293 120.457 99.8319 121.707 100.741C122.83 101.558 123.615 101.928 124.131 102.058C124.584 102.172 124.712 102.079 124.732 102.065L124.734 102.064C124.81 102.012 124.992 101.831 125.178 101.303C125.358 100.791 125.485 100.114 125.576 99.2929C125.666 98.4794 125.712 97.6002 125.758 96.6922L125.763 96.5868C125.806 95.7312 125.851 94.8436 125.937 94.0441C126.026 93.2338 126.17 92.3726 126.474 91.6598C126.777 90.9468 127.403 90.0391 128.607 89.8549C129.372 89.7378 130.093 89.8685 130.718 90.2435C131.304 90.5944 131.707 91.0993 131.996 91.5677C132.416 92.2476 132.764 93.1574 133.069 93.9544L133.07 93.9577C133.155 94.1794 133.237 94.3924 133.315 94.5891C133.726 95.6137 134.145 96.467 134.721 97.0815C135.246 97.6406 135.931 98.0363 137.028 98.0828C138.151 98.1304 138.848 97.7944 139.339 97.3411C139.875 96.846 140.273 96.1051 140.546 95.2196C140.816 94.3454 140.929 93.438 140.972 92.7301C140.993 92.3808 140.997 92.0909 140.995 91.8922L140.994 91.8318C140.994 91.7989 140.993 91.7693 140.992 91.7432C140.992 91.7139 140.991 91.6889 140.99 91.6688C140.99 91.6604 140.989 91.6528 140.989 91.6461C140.989 91.6335 140.988 91.6238 140.988 91.6174L140.987 91.6095C140.987 91.6096 140.987 91.6097 141.004 91.6086C141.001 91.5727 141 91.5365 141 91.5C141 90.6715 141.672 90 142.5 90C143.292 90 143.941 90.6137 143.996 91.3914C144.013 91.3904 144.013 91.3905 144.013 91.3906V91.3919V91.4038L144.015 91.4303C144.016 91.4519 144.017 91.4813 144.019 91.518C144.021 91.5913 144.024 91.6941 144.025 91.8221C144.028 92.0775 144.023 92.4359 143.997 92.8629C143.946 93.7076 143.808 94.865 143.446 96.0394C143.088 97.2026 142.476 98.4944 141.401 99.4875Z" fill="#00639A"/>
<defs>
<filter id="filter0_i" x="16.6059" y="36.2562" width="263.039" height="230.041" filterUnits="userSpaceOnUse" color-interpolation-filters="sRGB">
<feFlood flood-opacity="0" result="BackgroundImageFix"/>
<feBlend mode="normal" in="SourceGraphic" in2="BackgroundImageFix" result="shape"/>
<feColorMatrix in="SourceAlpha" type="matrix" values="0 0 0 0 0 0 0 0 0 0 0 0 0 0 0 0 0 0 127 0" result="hardAlpha"/>
<feOffset dy="8"/>
<feGaussianBlur stdDeviation="3"/>
<feComposite in2="hardAlpha" operator="arithmetic" k2="-1" k3="1"/>
<feColorMatrix type="matrix" values="0 0 0 0 0 0 0 0 0 0 0 0 0 0 0 0 0 0 0.2 0"/>
<feBlend mode="normal" in2="shape" result="effect1_innerShadow"/>
</filter>
<filter id="filter1_i" x="211.042" y="247.852" width="10.9847" height="16.9847" filterUnits="userSpaceOnUse" color-interpolation-filters="sRGB">
<feFlood flood-opacity="0" result="BackgroundImageFix"/>
<feBlend mode="normal" in="SourceGraphic" in2="BackgroundImageFix" result="shape"/>
<feColorMatrix in="SourceAlpha" type="matrix" values="0 0 0 0 0 0 0 0 0 0 0 0 0 0 0 0 0 0 127 0" result="hardAlpha"/>
<feOffset dy="6"/>
<feGaussianBlur stdDeviation="4"/>
<feComposite in2="hardAlpha" operator="arithmetic" k2="-1" k3="1"/>
<feColorMatrix type="matrix" values="0 0 0 0 0 0 0 0 0 0 0 0 0 0 0 0 0 0 0.25 0"/>
<feBlend mode="normal" in2="shape" result="effect1_innerShadow"/>
</filter>
<filter id="filter2_i" x="255.971" y="227.963" width="14.2801" height="18.2801" filterUnits="userSpaceOnUse" color-interpolation-filters="sRGB">
<feFlood flood-opacity="0" result="BackgroundImageFix"/>
<feBlend mode="normal" in="SourceGraphic" in2="BackgroundImageFix" result="shape"/>
<feColorMatrix in="SourceAlpha" type="matrix" values="0 0 0 0 0 0 0 0 0 0 0 0 0 0 0 0 0 0 127 0" result="hardAlpha"/>
<feOffset dy="4"/>
<feGaussianBlur stdDeviation="2"/>
<feComposite in2="hardAlpha" operator="arithmetic" k2="-1" k3="1"/>
<feColorMatrix type="matrix" values="0 0 0 0 0 0 0 0 0 0 0 0 0 0 0 0 0 0 0.25 0"/>
<feBlend mode="normal" in2="shape" result="effect1_innerShadow"/>
</filter>
<filter id="filter3_i" x="263.199" y="197.096" width="16.4458" height="20.4458" filterUnits="userSpaceOnUse" color-interpolation-filters="sRGB">
<feFlood flood-opacity="0" result="BackgroundImageFix"/>
<feBlend mode="normal" in="SourceGraphic" in2="BackgroundImageFix" result="shape"/>
<feColorMatrix in="SourceAlpha" type="matrix" values="0 0 0 0 0 0 0 0 0 0 0 0 0 0 0 0 0 0 127 0" result="hardAlpha"/>
<feOffset dy="4"/>
<feGaussianBlur stdDeviation="2"/>
<feComposite in2="hardAlpha" operator="arithmetic" k2="-1" k3="1"/>
<feColorMatrix type="matrix" values="0 0 0 0 0 0 0 0 0 0 0 0 0 0 0 0 0 0 0.25 0"/>
<feBlend mode="normal" in2="shape" result="effect1_innerShadow"/>
</filter>
<filter id="filter4_i" x="261.451" y="181.275" width="15.3786" height="19.3786" filterUnits="userSpaceOnUse" color-interpolation-filters="sRGB">
<feFlood flood-opacity="0" result="BackgroundImageFix"/>
<feBlend mode="normal" in="SourceGraphic" in2="BackgroundImageFix" result="shape"/>
<feColorMatrix in="SourceAlpha" type="matrix" values="0 0 0 0 0 0 0 0 0 0 0 0 0 0 0 0 0 0 127 0" result="hardAlpha"/>
<feOffset dy="4"/>
<feGaussianBlur stdDeviation="2"/>
<feComposite in2="hardAlpha" operator="arithmetic" k2="-1" k3="1"/>
<feColorMatrix type="matrix" values="0 0 0 0 0 0 0 0 0 0 0 0 0 0 0 0 0 0 0.25 0"/>
<feBlend mode="normal" in2="shape" result="effect1_innerShadow"/>
</filter>
<filter id="filter5_i" x="252.76" y="167.592" width="15.3786" height="19.3786" filterUnits="userSpaceOnUse" color-interpolation-filters="sRGB">
<feFlood flood-opacity="0" result="BackgroundImageFix"/>
<feBlend mode="normal" in="SourceGraphic" in2="BackgroundImageFix" result="shape"/>
<feColorMatrix in="SourceAlpha" type="matrix" values="0 0 0 0 0 0 0 0 0 0 0 0 0 0 0 0 0 0 127 0" result="hardAlpha"/>
<feOffset dy="4"/>
<feGaussianBlur stdDeviation="2"/>
<feComposite in2="hardAlpha" operator="arithmetic" k2="-1" k3="1"/>
<feColorMatrix type="matrix" values="0 0 0 0 0 0 0 0 0 0 0 0 0 0 0 0 0 0 0.25 0"/>
<feBlend mode="normal" in2="shape" result="effect1_innerShadow"/>
</filter>
<filter id="filter6_i" x="215.938" y="158.846" width="19.7725" height="25.7725" filterUnits="userSpaceOnUse" color-interpolation-filters="sRGB">
<feFlood flood-opacity="0" result="BackgroundImageFix"/>
<feBlend mode="normal" in="SourceGraphic" in2="BackgroundImageFix" result="shape"/>
<feColorMatrix in="SourceAlpha" type="matrix" values="0 0 0 0 0 0 0 0 0 0 0 0 0 0 0 0 0 0 127 0" result="hardAlpha"/>
<feOffset dy="6"/>
<feGaussianBlur stdDeviation="4"/>
<feComposite in2="hardAlpha" operator="arithmetic" k2="-1" k3="1"/>
<feColorMatrix type="matrix" values="0 0 0 0 0 0 0 0 0 0 0 0 0 0 0 0 0 0 0.25 0"/>
<feBlend mode="normal" in2="shape" result="effect1_innerShadow"/>
</filter>
<filter id="filter7_i" x="173.712" y="177.52" width="23.4941" height="29.4941" filterUnits="userSpaceOnUse" color-interpolation-filters="sRGB">
<feFlood flood-opacity="0" result="BackgroundImageFix"/>
<feBlend mode="normal" in="SourceGraphic" in2="BackgroundImageFix" result="shape"/>
<feColorMatrix in="SourceAlpha" type="matrix" values="0 0 0 0 0 0 0 0 0 0 0 0 0 0 0 0 0 0 127 0" result="hardAlpha"/>
<feOffset dy="6"/>
<feGaussianBlur stdDeviation="4"/>
<feComposite in2="hardAlpha" operator="arithmetic" k2="-1" k3="1"/>
<feColorMatrix type="matrix" values="0 0 0 0 0 0 0 0 0 0 0 0 0 0 0 0 0 0 0.25 0"/>
<feBlend mode="normal" in2="shape" result="effect1_innerShadow"/>
</filter>
<filter id="filter8_i" x="133.994" y="209.648" width="27.4618" height="33.4618" filterUnits="userSpaceOnUse" color-interpolation-filters="sRGB">
<feFlood flood-opacity="0" result="BackgroundImageFix"/>
<feBlend mode="normal" in="SourceGraphic" in2="BackgroundImageFix" result="shape"/>
<feColorMatrix in="SourceAlpha" type="matrix" values="0 0 0 0 0 0 0 0 0 0 0 0 0 0 0 0 0 0 127 0" result="hardAlpha"/>
<feOffset dy="6"/>
<feGaussianBlur stdDeviation="4"/>
<feComposite in2="hardAlpha" operator="arithmetic" k2="-1" k3="1"/>
<feColorMatrix type="matrix" values="0 0 0 0 0 0 0 0 0 0 0 0 0 0 0 0 0 0 0.25 0"/>
<feBlend mode="normal" in2="shape" result="effect1_innerShadow"/>
</filter>
<filter id="filter9_i" x="20.9995" y="181.249" width="37.3464" height="45.3464" filterUnits="userSpaceOnUse" color-interpolation-filters="sRGB">
<feFlood flood-opacity="0" result="BackgroundImageFix"/>
<feBlend mode="normal" in="SourceGraphic" in2="BackgroundImageFix" result="shape"/>
<feColorMatrix in="SourceAlpha" type="matrix" values="0 0 0 0 0 0 0 0 0 0 0 0 0 0 0 0 0 0 127 0" result="hardAlpha"/>
<feOffset dy="10"/>
<feGaussianBlur stdDeviation="4"/>
<feComposite in2="hardAlpha" operator="arithmetic" k2="-1" k3="1"/>
<feColorMatrix type="matrix" values="0 0 0 0 0 0 0 0 0 0 0 0 0 0 0 0 0 0 0.25 0"/>
<feBlend mode="normal" in2="shape" result="effect1_innerShadow"/>
</filter>
<filter id="filter10_i" x="23.1965" y="101.063" width="40.6418" height="48.6418" filterUnits="userSpaceOnUse" color-interpolation-filters="sRGB">
<feFlood flood-opacity="0" result="BackgroundImageFix"/>
<feBlend mode="normal" in="SourceGraphic" in2="BackgroundImageFix" result="shape"/>
<feColorMatrix in="SourceAlpha" type="matrix" values="0 0 0 0 0 0 0 0 0 0 0 0 0 0 0 0 0 0 127 0" result="hardAlpha"/>
<feOffset dy="10"/>
<feGaussianBlur stdDeviation="4"/>
<feComposite in2="hardAlpha" operator="arithmetic" k2="-1" k3="1"/>
<feColorMatrix type="matrix" values="0 0 0 0 0 0 0 0 0 0 0 0 0 0 0 0 0 0 0.25 0"/>
<feBlend mode="normal" in2="shape" result="effect1_innerShadow"/>
</filter>
<filter id="filter11_i" x="88.1845" y="46.0519" width="43.937" height="51.937" filterUnits="userSpaceOnUse" color-interpolation-filters="sRGB">
<feFlood flood-opacity="0" result="BackgroundImageFix"/>
<feBlend mode="normal" in="SourceGraphic" in2="BackgroundImageFix" result="shape"/>
<feColorMatrix in="SourceAlpha" type="matrix" values="0 0 0 0 0 0 0 0 0 0 0 0 0 0 0 0 0 0 127 0" result="hardAlpha"/>
<feOffset dy="10"/>
<feGaussianBlur stdDeviation="4"/>
<feComposite in2="hardAlpha" operator="arithmetic" k2="-1" k3="1"/>
<feColorMatrix type="matrix" values="0 0 0 0 0 0 0 0 0 0 0 0 0 0 0 0 0 0 0.25 0"/>
<feBlend mode="normal" in2="shape" result="effect1_innerShadow"/>
</filter>
<filter id="filter12_i" x="215.42" y="77.9964" width="54.9212" height="62.9212" filterUnits="userSpaceOnUse" color-interpolation-filters="sRGB">
<feFlood flood-opacity="0" result="BackgroundImageFix"/>
<feBlend mode="normal" in="SourceGraphic" in2="BackgroundImageFix" result="shape"/>
<feColorMatrix in="SourceAlpha" type="matrix" values="0 0 0 0 0 0 0 0 0 0 0 0 0 0 0 0 0 0 127 0" result="hardAlpha"/>
<feOffset dy="10"/>
<feGaussianBlur stdDeviation="4"/>
<feComposite in2="hardAlpha" operator="arithmetic" k2="-1" k3="1"/>
<feColorMatrix type="matrix" values="0 0 0 0 0 0 0 0 0 0 0 0 0 0 0 0 0 0 0.25 0"/>
<feBlend mode="normal" in2="shape" result="effect1_innerShadow"/>
</filter>
<filter id="filter13_i" x="235.195" y="245.867" width="10.9847" height="16.9847" filterUnits="userSpaceOnUse" color-interpolation-filters="sRGB">
<feFlood flood-opacity="0" result="BackgroundImageFix"/>
<feBlend mode="normal" in="SourceGraphic" in2="BackgroundImageFix" result="shape"/>
<feColorMatrix in="SourceAlpha" type="matrix" values="0 0 0 0 0 0 0 0 0 0 0 0 0 0 0 0 0 0 127 0" result="hardAlpha"/>
<feOffset dy="6"/>
<feGaussianBlur stdDeviation="4"/>
<feComposite in2="hardAlpha" operator="arithmetic" k2="-1" k3="1"/>
<feColorMatrix type="matrix" values="0 0 0 0 0 0 0 0 0 0 0 0 0 0 0 0 0 0 0.25 0"/>
<feBlend mode="normal" in2="shape" result="effect1_innerShadow"/>
</filter>
</defs>
</svg>
