<svg width="279" height="269" fill="none" xmlns="http://www.w3.org/2000/svg"><g opacity=".9"><path opacity=".9" d="M251.032 43.937H82.89a6 6 0 00-6 6v113.22a6 6 0 006 6h168.142a6 6 0 006-6V49.937a6 6 0 00-6-6z" fill="#4E5A71"/><path opacity=".9" d="M248.638 56.02H85.284a4 4 0 00-4 4v93.055a4 4 0 004 4h163.354a4 4 0 004-4V60.02a4 4 0 00-4-4z" fill="#8194A1"/><path d="M248.638 56.02H85.284a4 4 0 00-4 4v93.055a4 4 0 004 4h163.354a4 4 0 004-4V60.02a4 4 0 00-4-4z" stroke="#D2DCE3"/><path d="M97.294 120.916v-6.837l9.944-3.277 7.628-2.655v-.226l-7.628-2.656-9.944-3.277v-6.836l25.99 10v5.763l-25.99 10.001zm26.907 13.786v-4.69h26.894v4.69h-26.894z" fill="#E4E8EB"/><path opacity=".9" fill-rule="evenodd" clip-rule="evenodd" d="M188.929 169.158h-43.937v9.886h-13.378a2 2 0 00-2 2v2.59a2 2 0 002 2h70.693a2 2 0 002-2v-2.59a2 2 0 00-2-2h-13.378v-9.886z" fill="#4E5A71"/></g><g opacity=".9"><path opacity=".9" d="M62.906 76.89H13.984a3 3 0 00-3 3v130.205a3 3 0 003 3h48.922a3 3 0 003-3V79.89a3 3 0 00-3-3z" fill="#4E5A71"/><path d="M58.414 87.874H18.477a2 2 0 00-2 2v2.59a2 2 0 002 2h39.937a2 2 0 002-2v-2.59a2 2 0 00-2-2zM58.414 97.76H18.477a2 2 0 00-2 2v.394a2 2 0 002 2h39.937a2 2 0 002-2v-.394a2 2 0 00-2-2zM58.414 112.039H18.477a2 2 0 00-2 2v25.658a2 2 0 002 2h39.937a2 2 0 002-2v-25.658a2 2 0 00-2-2zM29.756 197.716H22.97a1 1 0 00-1 1v6.787a1 1 0 001 1h6.787a1 1 0 001-1v-6.787a1 1 0 00-1-1z" fill="#E4E8EB"/><path opacity=".9" d="M56.118 132.909h-4.59a1 1 0 00-1 1v4.591a1 1 0 001 1h4.59a1 1 0 001-1v-4.591a1 1 0 00-1-1z" fill="#4E5A71"/><path d="M41.839 197.716H35.05a1 1 0 00-1 1v6.787a1 1 0 001 1h6.788a1 1 0 001-1v-6.787a1 1 0 00-1-1z" fill="#E4E8EB"/><path opacity=".9" d="M56.118 115.335h-4.59a1 1 0 00-1 1v4.591a1 1 0 001 1h4.59a1 1 0 001-1v-4.591a1 1 0 00-1-1z" fill="#4E5A71"/><path d="M53.922 197.716h-6.788a1 1 0 00-1 1v6.787a1 1 0 001 1h6.788a1 1 0 001-1v-6.787a1 1 0 00-1-1z" fill="#E4E8EB"/><path opacity=".9" d="M56.118 124.122h-4.59a1 1 0 00-1 1v4.591a1 1 0 001 1h4.59a1 1 0 001-1v-4.591a1 1 0 00-1-1z" fill="#4E5A71"/><path d="M38.445 176.847a6.59 6.59 0 100-13.182 6.59 6.59 0 000 13.182z" fill="#E4E8EB"/></g><g opacity=".6"><path d="M231.063 191.126H74.299a4 4 0 00-4 4v35.937a4 4 0 004 4h156.764a4 4 0 004-4v-35.937a4 4 0 00-4-4z" fill="#4E5A71"/><path d="M94.661 196.618h-4.787a2 2 0 00-2 2v4.787a2 2 0 002 2h4.787a2 2 0 002-2v-4.787a2 2 0 00-2-2zM94.661 208.701h-4.787a2 2 0 00-2 2v4.787a2 2 0 002 2h4.787a2 2 0 002-2v-4.787a2 2 0 00-2-2zM94.661 220.784h-4.787a2 2 0 00-2 2v4.787a2 2 0 002 2h4.787a2 2 0 002-2v-4.787a2 2 0 00-2-2zM83.677 196.618H78.89a2 2 0 00-2 2v4.787a2 2 0 002 2h4.787a2 2 0 002-2v-4.787a2 2 0 00-2-2zM83.677 208.701H78.89a2 2 0 00-2 2v4.787a2 2 0 002 2h4.787a2 2 0 002-2v-4.787a2 2 0 00-2-2zM160.567 196.618h-4.787a2 2 0 00-2 2v4.787a2 2 0 002 2h4.787a2 2 0 002-2v-4.787a2 2 0 00-2-2zM160.567 208.701h-4.787a2 2 0 00-2 2v4.787a2 2 0 002 2h4.787a2 2 0 002-2v-4.787a2 2 0 00-2-2zM127.614 196.618h-4.787a2 2 0 00-2 2v4.787a2 2 0 002 2h4.787a2 2 0 002-2v-4.787a2 2 0 00-2-2zM127.614 208.701h-4.787a2 2 0 00-2 2v4.787a2 2 0 002 2h4.787a2 2 0 002-2v-4.787a2 2 0 00-2-2zM193.519 196.618h-4.787a2 2 0 00-2 2v4.787a2 2 0 002 2h4.787a2 2 0 002-2v-4.787a2 2 0 00-2-2zM193.519 208.701h-4.787a2 2 0 00-2 2v4.787a2 2 0 002 2h4.787a2 2 0 002-2v-4.787a2 2 0 00-2-2zM105.646 196.618h-4.788a2 2 0 00-2 2v4.787a2 2 0 002 2h4.788a2 2 0 002-2v-4.787a2 2 0 00-2-2zM105.646 208.701h-4.788a2 2 0 00-2 2v4.787a2 2 0 002 2h4.788a2 2 0 002-2v-4.787a2 2 0 00-2-2zM204.504 220.784H100.858a2 2 0 00-2 2v4.787a2 2 0 002 2h103.646a2 2 0 002-2v-4.787a2 2 0 00-2-2zM171.551 196.618h-4.787a2 2 0 00-2 2v4.787a2 2 0 002 2h4.787a2 2 0 002-2v-4.787a2 2 0 00-2-2zM171.551 208.701h-4.787a2 2 0 00-2 2v4.787a2 2 0 002 2h4.787a2 2 0 002-2v-4.787a2 2 0 00-2-2zM138.598 196.618h-4.787a2 2 0 00-2 2v4.787a2 2 0 002 2h4.787a2 2 0 002-2v-4.787a2 2 0 00-2-2zM138.598 208.701h-4.787a2 2 0 00-2 2v4.787a2 2 0 002 2h4.787a2 2 0 002-2v-4.787a2 2 0 00-2-2zM204.504 196.618h-4.787a2 2 0 00-2 2v4.787a2 2 0 002 2h4.787a2 2 0 002-2v-4.787a2 2 0 00-2-2zM204.504 208.701h-4.787a2 2 0 00-2 2v4.787a2 2 0 002 2h4.787a2 2 0 002-2v-4.787a2 2 0 00-2-2zM116.63 196.618h-4.787a2 2 0 00-2 2v4.787a2 2 0 002 2h4.787a2 2 0 002-2v-4.787a2 2 0 00-2-2zM116.63 208.701h-4.787a2 2 0 00-2 2v4.787a2 2 0 002 2h4.787a2 2 0 002-2v-4.787a2 2 0 00-2-2zM182.535 196.618h-4.787a2 2 0 00-2 2v4.787a2 2 0 002 2h4.787a2 2 0 002-2v-4.787a2 2 0 00-2-2zM182.535 208.701h-4.787a2 2 0 00-2 2v4.787a2 2 0 002 2h4.787a2 2 0 002-2v-4.787a2 2 0 00-2-2zM149.582 196.618h-4.787a2 2 0 00-2 2v4.787a2 2 0 002 2h4.787a2 2 0 002-2v-4.787a2 2 0 00-2-2zM149.582 208.701h-4.787a2 2 0 00-2 2v4.787a2 2 0 002 2h4.787a2 2 0 002-2v-4.787a2 2 0 00-2-2zM215.488 196.618h-4.787a2 2 0 00-2 2v4.787a2 2 0 002 2h4.787a2 2 0 002-2v-4.787a2 2 0 00-2-2zM215.488 208.701h-4.787a2 2 0 00-2 2v4.787a2 2 0 002 2h4.787a2 2 0 002-2v-4.787a2 2 0 00-2-2zM215.488 220.784h-4.787a2 2 0 00-2 2v4.787a2 2 0 002 2h4.787a2 2 0 002-2v-4.787a2 2 0 00-2-2zM226.472 196.618h-4.787a2 2 0 00-2 2v4.787a2 2 0 002 2h4.787a2 2 0 002-2v-4.787a2 2 0 00-2-2zM226.472 208.701h-4.787a2 2 0 00-2 2v4.787a2 2 0 002 2h4.787a2 2 0 002-2v-4.787a2 2 0 00-2-2zM226.472 220.784h-4.787a2 2 0 00-2 2v4.787a2 2 0 002 2h4.787a2 2 0 002-2v-4.787a2 2 0 00-2-2zM83.677 220.784H78.89a2 2 0 00-2 2v4.787a2 2 0 002 2h4.787a2 2 0 002-2v-4.787a2 2 0 00-2-2z" fill="#E4E8EB"/></g><g opacity=".9"><path opacity=".9" d="M239.457 220.898c0-5.523 4.477-10 10-10h8.559c5.523 0 10 4.477 10 10v19.937c0 7.732-6.268 14-14 14h-.559c-7.732 0-14-6.268-14-14v-19.937z" fill="#4E5A71"/><path d="M252.638 217.292a2 2 0 00-2-2h-2.984a6 6 0 00-6 6v5.181a2 2 0 002 2h6.984a2 2 0 002-2v-9.181zM265.819 221.292a6 6 0 00-6-6h-2.984a2 2 0 00-2 2v9.181a2 2 0 002 2h6.984a2 2 0 002-2v-5.181z" fill="#E4E8EB"/></g></svg>