<svg width="279" height="269" fill="none" xmlns="http://www.w3.org/2000/svg"><path d="M202.128 109.105c4.145 6.951 7.13 11.274 8.868 13.012.356.356.936 1.114 1.827 2.361.847 1.203 1.471 2.006 1.827 2.362.356 1.381.178 2.094-.535 2.094.357 1.025.847 2.674 1.56 4.947.713 2.272 1.203 3.921 1.56 4.946 0 1.025-.179 1.56-.535 1.56-.713 0-1.203-.179-1.56-.535-.713-1.382-1.025-2.273-1.025-2.585l1.515 5.66c0 1.024-.178 1.559-.534 1.559-.713 0-1.382-.535-2.095-1.559-.356-1.025-1.203-2.942-2.584-5.704.356 1.025.846 2.941 1.559 5.704 0 .712-.178 1.024-.534 1.024-.713.357-1.204.09-1.56-.802-.356-.846-.535-1.47-.535-1.827-.356-.713-.802-1.827-1.292-3.386-.49-1.56-.98-2.674-1.292-3.387 0 .713.089 1.649.267 2.852.178 1.203.267 2.005.267 2.362 0 1.025-.089 1.559-.267 1.559-.178 0-.624-.356-1.292-1.025a1.782 1.782 0 01-.535-1.292c0-.49-.178-.936-.535-1.292-.356-1.382-.98-3.476-1.827-6.239a110.037 110.037 0 01-1.827-6.238l-1.559-5.214c-1.025-1.381-2.763-3.565-5.214-6.506-2.451-2.941-4.144-5.302-5.213-7.04-3.833-4.501-5.883-6.952-6.239-7.308l-1.025-1.025c-.356-.357-.98-1.292-1.827-2.852a69.875 69.875 0 01-1.827-3.387c-.713-1.025-1.649-2.495-2.852-4.411-1.203-1.916-2.183-3.387-2.852-4.412-2.094-3.832-4.01-7.62-5.703-11.452-.357 0-.713-.713-1.025-2.094-.357 2.763-1.025 6.862-2.095 12.21-1.025 5.391-1.827 9.09-2.361 11.184-.535 2.095-.446 6.417.267 13.012.356 1.738.936 4.679 1.827 8.868.847 4.144 1.292 7.486 1.292 9.892 0 4.144.178 10.071.535 17.691a48.876 48.876 0 01-.535 12.477c-.713 2.094-1.559 5.57-2.584 10.427-1.025 4.857-1.738 8.689-2.095 11.452-1.381 7.62-1.203 14.928.535 21.88.713 3.475.535 8.689-.535 15.596-2.451 10.427-4.01 17.869-4.679 22.369v4.145c0 3.475.535 6.595 1.56 9.357.357.713 1.025 1.56 2.094 2.585 1.07 1.025 1.738 1.738 2.095 2.094.356 1.382.534 2.407.534 3.119-.356.357-.891.535-1.559.535h-6.773c-.713 0-1.56-.178-2.585-.535-1.738-1.381-2.941-2.45-3.654-3.119-.356-.713-.535-1.738-.535-3.119 0-3.119.179-5.214.535-6.239 0-.713.089-1.559.267-2.584.179-1.025.268-1.738.268-2.094 0-6.595-.178-11.453-.535-14.572 0-1.381-.446-4.233-1.292-8.6-.891-4.322-1.114-7.709-.802-10.16.713-4.857 1.025-8.333 1.025-10.427 0-.713-.535-3.298-1.56-7.798-.713-2.763-1.025-5.036-1.025-6.774v-15.596l-1.56-20.32c0-2.762.179-5.035.535-6.773 0-1.025-.356-1.56-1.025-1.56v13.012c0 1.382-.178 3.654-.534 6.774-.357 3.119-.535 5.391-.535 6.773-.713 4.144-1.025 7.308-1.025 9.358 0 7.619-.713 14.036-2.094 19.25-.713 1.381-.713 4.01 0 7.798.713 6.595.534 12.655-.535 18.225l-1.56 9.358c0 .713-.089 1.738-.267 3.119-.178 1.382-.446 2.407-.802 3.12 0 .713.089 1.648.267 2.852.178 1.203.267 2.183.267 2.851v5.214c0 .713.09 1.56.268 2.585.178 1.024.267 1.737.267 2.094 0 1.738-.178 2.763-.535 3.119l-5.213 4.144h-7.798l-1.56-.534c0-1.382.178-2.273.535-2.585l2.584-2.584c2.407-2.451 3.476-4.858 3.12-7.308 0-1.738.178-2.941.534-3.654.357-1.738.179-5.214-.534-10.428 0-.713-.624-3.654-1.827-8.867-1.204-5.214-2.006-9.358-2.362-12.477-.357-3.12 0-7.977 1.025-14.572.356-.356.535-1.114.535-2.361 0-1.204.178-2.184.534-2.852.357-6.239-.534-14.037-2.584-23.439-1.025-4.857-1.916-9.715-2.585-14.572v-7.798c0-1.738.178-4.233.535-7.531.356-3.297.535-5.793.535-7.53v-2.095c0-4.857.713-9.358 2.094-13.546l1.025-9.358c0-.357.089-1.114.267-2.362.179-1.203.268-2.183.268-2.852-.713-5.882-1.204-10.427-1.56-13.546-1.381-5.882-2.451-10.427-3.119-13.547v-1.56l-6.239 12.478c-.713 1.025-1.916 2.763-3.654 5.213-1.738 2.451-2.941 4.144-3.654 5.214-.356.713-1.025 1.916-2.094 3.654-1.025 1.738-1.916 2.941-2.585 3.654 0 .356-1.916 2.941-5.703 7.798-5.882 6.952-9.358 11.452-10.428 13.547-.356.356-.623 1.114-.802 2.361-.178 1.203-.445 2.184-.802 2.852-.356 1.382-.98 3.476-1.827 6.239a109.583 109.583 0 00-1.827 6.238 3.515 3.515 0 00-.802 1.293c-.178.534-.267.98-.267 1.292 0 .356-.178.624-.535.802a2.344 2.344 0 01-1.025.267v-1.559-2.852-2.362c0 .713-.267 1.738-.802 3.119-.535 1.382-.98 2.585-1.292 3.654 0 1.738-.713 2.585-2.095 2.585-.356 0-.534-.535-.534-1.56.713-2.406 1.203-4.322 1.56-5.704-1.382 3.12-2.452 5.214-3.12 6.239-.713 1.025-1.203 1.56-1.56 1.56-.356-.357-.534-1.025-.534-2.095l1.648-4.991a1.786 1.786 0 00-.534 1.293c0 .49-.179.802-.535.802-.713.713-1.203 1.025-1.56 1.025-.312-.357-.49-1.07-.49-2.095.357-.713.847-2.183 1.56-4.411.713-2.273 1.203-3.922 1.56-4.947-1.382 0-1.56-.846-.535-2.584.356-.357.713-.847 1.024-1.56.357-.713.713-1.292 1.025-1.827.357-.534.847-.935 1.56-1.292 2.763-2.094 5.704-6.417 8.868-13.012 3.475-6.951 5.704-11.274 6.773-13.012 0-.356 2.094-3.475 6.239-9.357.712-.713 1.56-1.827 2.584-3.387 1.025-1.56 1.738-2.674 2.094-3.387 3.476-5.882 6.774-12.833 9.893-20.81 2.094-6.238 6.417-10.248 13.012-11.986 3.475-.713 7.308-2.407 11.452-5.214.713-1.025 1.203-2.094 1.559-3.12v-3.653c0-.357-.089-.713-.267-1.025a2.343 2.343 0 01-.267-1.025c0-.356-.179-1.025-.535-2.094-.357-1.025-.535-1.738-.535-2.095h-.535c-1.024-.356-1.916-1.648-2.584-3.921-.713-2.273-.713-3.743 0-4.412l.535-.534h1.025c-.713-4.144-.179-7.442 1.559-9.893 1.382-2.406 3.832-3.966 7.308-4.679h1.56c1.738 0 2.941.179 3.654.535 2.763.713 4.857 2.273 6.238 4.679 2.095 3.12 2.585 6.417 1.56 9.892l1.56.535c.713.713.713 2.095 0 4.144-.713 2.095-1.56 3.476-2.585 4.145h-.535c0 1.024-.356 2.45-1.025 4.144-1.737 4.5-.891 7.62 2.585 9.357 5.882 3.12 9.358 4.858 10.427 5.214 6.595 1.738 11.096 6.06 13.547 13.012 2.406 7.976 6.238 15.953 11.452 23.929.356.713 1.203 1.738 2.584 3.12 1.382 1.38 2.273 2.584 2.585 3.653.757 2.14 3.164 7.486 7.352 16.176z" fill="#8E2E2C"/><path d="M254.395 62.29c.535.535.975.959 1.312 1.261.336.302.802.76 1.415 1.365s1.07 1.14 1.416 1.616c.336.475.707 1.045 1.104 1.719.406.674.691 1.278.855 1.814.164.536.25 1.14.25 1.814a4.7 4.7 0 01-.405 1.918c-.674 1.616-1.683 2.661-3.021 3.128a4.137 4.137 0 01-1.614.302c-1.614 0-3.565-.64-5.843-1.918-2.149-1.21-4.437-3.093-6.853-5.65.267.536.5 1.106.707 1.72.743 2.22 1.174 3.43 1.312 3.628.069.138.389.725.958 1.762.57 1.046.889 1.599.958 1.668.138.138.138.25 0 .354-.138.103-.267.052-.405-.156-.406-.535-.803-1.062-1.209-1.563a63.211 63.211 0 00-.906-1.106 1.869 1.869 0 01-.405-.76l-.907-2.826c-.535-.604-.906-1.105-1.104-1.511-.07-.2-.19-.709-.354-1.512-.173-.804-.285-1.383-.354-1.72-.535-.673-.941-1.278-1.209-1.814-.474 1.616-.906 2.722-1.311 3.326-1.079 1.685-2.02 2.558-2.823 2.627-.198.069-.535.103-1.01.103-.474 0-.802-.034-1.009-.103-.803-.07-1.752-.942-2.823-2.627-.405-.604-.837-1.719-1.312-3.326-.267.536-.673 1.14-1.208 1.814-.069.337-.19.908-.354 1.72-.172.803-.285 1.313-.354 1.511l-1.104 1.512c-.475 1.417-.777 2.359-.907 2.826a1.87 1.87 0 01-.405.76c-.199.233-.501.605-.907 1.106-.405.5-.802 1.028-1.208 1.563-.138.199-.267.25-.406.156-.138-.104-.138-.216 0-.354.069-.07.389-.622.958-1.668.57-1.045.889-1.633.959-1.762.138-.199.569-1.417 1.311-3.629.139-.406.372-.976.708-1.719-2.417 2.557-4.704 4.44-6.853 5.65-2.287 1.279-4.238 1.918-5.843 1.918a4.638 4.638 0 01-1.614-.302c-1.346-.475-2.356-1.512-3.021-3.128a4.7 4.7 0 01-.405-1.918c0-.674.086-1.278.25-1.814s.457-1.14.854-1.814c.406-.674.769-1.244 1.105-1.72a13.1 13.1 0 011.416-1.615c.612-.605 1.07-1.063 1.415-1.365.337-.302.768-.726 1.312-1.261.535-.536.906-.873 1.105-1.011.94-.942 3.323-2.894 7.155-5.849-.535 0-.941-.035-1.209-.104-.198-.069-.517-.32-.958-.76-.44-.44-.725-.786-.854-1.063-.069-.138-.19-.25-.354-.354a10.989 10.989 0 00-.552-.302c-.199-.104-.337-.181-.406-.25-.268-.2-.268-.338 0-.407.069-.069.233-.069.501 0 .336.139 1.381.838 3.124 2.117.138.07.319.104.552.104H224.972a429.68 429.68 0 003.729-2.825v-.605l-.199-2.22c-.406-.536-.803-.839-1.208-.908-.199-.069-.535-.674-1.01-1.814a9.753 9.753 0 01-.155-1.261c-.035-.501-.104-.821-.199-.96-.103-.137-.155-.336-.155-.604 0-.268.034-.501.103-.708v-.303c-.336-.198-.638-.57-.906-1.106-.673-1.477-2.08-3.265-4.238-5.347-.198-.268-.25-.467-.155-.605.104-.138.285-.138.552 0 .268.069 1.14.924 2.624 2.574 1.476 1.65 2.253 2.575 2.322 2.774 0 .069.138.285.405.656.268.372.406.726.406 1.063.069.199.181.57.354 1.106.164.535.319 1.08.457 1.615.139.536.233.838.303.907 0 .07.103.156.302.251.198.095.44.19.707.25l.302.104v-.708c-.138-.139-.233-.372-.302-.709a6.237 6.237 0 01-.103-1.01c0-.268.103-.57.302-.908a4.22 4.22 0 01.552-.76c.164-.164.371-.354.604-.553.233-.198.354-.337.354-.406.138-.138.44-.233.907-.302-.536-.406-.941-.743-1.209-1.011a10.033 10.033 0 01-1.01-1.512c-.069-.199-.069-.354 0-.458a.737.737 0 01.302-.25l.199-.104c.872.873 1.312 1.546 1.312 2.022 0 .336.336.673 1.01 1.01.336-.198.638-.302.906-.302l1.614.104h.302l1.718-.104c.336.07.638.173.906.302.673-.337 1.01-.674 1.01-1.01 0-.2.12-.467.353-.804.234-.337.458-.605.656-.803l.303-.406c.069 0 .155.034.25.103.103.07.181.156.25.25.069.105.069.251 0 .459a9.953 9.953 0 01-1.01 1.512c-.267.267-.673.57-1.208.907.466.138.768.268.906.406l.406.406.552.553c.164.173.371.423.604.76.233.337.354.64.354.907 0 .268-.034.605-.103 1.011-.138.337-.268.605-.406.803v.605c.872-.268 1.312-.466 1.312-.605.069-.069.164-.371.302-.907.138-.535.285-1.071.457-1.615.164-.536.285-.907.354-1.106 0-.337.138-.691.406-1.063.268-.371.406-.587.406-.656.069-.199.837-1.123 2.321-2.774 1.476-1.65 2.348-2.505 2.624-2.574.268-.138.458-.138.553 0 .103.138.051.337-.156.605-2.149 2.082-3.564 3.87-4.238 5.347a3.628 3.628 0 01-.405.657 1.242 1.242 0 01-.406.354l-.103.104c.198.743.198 1.278 0 1.615-.139.139-.216.458-.251.96a9.757 9.757 0 01-.155 1.26c-.406 1.141-.742 1.755-1.01 1.815-.198.07-.406.173-.604.302-.199.139-.337.268-.406.406l-.198.2c-.138 1.347-.199 2.081-.199 2.22v.604c1.209.942 2.451 1.884 3.729 2.825h1.363c.233 0 .406-.017.501-.052.104-.034.371-.216.803-.552.44-.337.889-.657 1.363-.96.466-.302.803-.518 1.01-.656.406-.199.639-.164.708.104 0 .138-.069.233-.199.302-.069.07-.198.156-.405.25a4.697 4.697 0 00-.553.303.87.87 0 00-.353.354c-.139.268-.423.622-.855 1.063-.44.44-.759.69-.958.76-.268.07-.673.104-1.208.104 3.832 2.963 6.214 4.907 7.155 5.849.19.198.561.535 1.096 1.002zm-38.106.916c-.198.138-.707.552-1.51 1.26-.803.71-1.398 1.262-1.761 1.66-.371.406-.854.924-1.458 1.563-.605.64-1.062 1.279-1.364 1.918-.302.64-.492 1.261-.552 1.866a94.536 94.536 0 011.907-2.013c.742-.743 2.287-1.952 4.635-3.628 1.01-.743 5.877-5.382 14.621-13.927-.139-.069-.268-.138-.406-.199-.268.2-1.26.96-2.978 2.273a356.396 356.396 0 00-5.843 4.587c-2.183 1.754-3.616 2.963-4.281 3.629-.138.198-.475.535-1.01 1.01zm-6.352 10.09c.199.605.604 1.21 1.208 1.814.337-.535.639-.976.907-1.313.405-.535 1.415-1.546 3.02-3.023.139-.07.941-.709 2.417-1.918 1.476-1.21 2.287-1.918 2.417-2.117 1.415-1.616 2.149-2.523 2.218-2.721.198-.337.198-.804 0-1.417-.199-.614-.44-.907-.708-.907-.069 0-.457.32-1.156.959-.708.639-1.45 1.33-2.219 2.064-.776.743-1.26 1.21-1.458 1.417-.199.138-.656.493-1.364 1.063a55.623 55.623 0 01-2.019 1.564c-.639.475-1.028.777-1.157.907-.337.198-1.139 1.01-2.417 2.419.078.397.182.803.311 1.21zm19.161-9.996c1.208-3.43 1.916-5.883 2.114-7.369 0-.268.035-.57.104-.907 0-.138.017-.337.052-.605.034-.268.069-.5.103-.708.035-.199.017-.44-.052-.709a2.489 2.489 0 00-.302-.708 4.673 4.673 0 01-.802.803c-.268.268-.82.856-1.666 1.763-.837.907-1.329 1.4-1.459 1.46-.267.268-.302.777-.103 1.512 0 .138-.173.838-.501 2.116-.337 1.08-1.079 2.385-2.218 3.94-1.01 1.477-1.916 2.592-2.719 3.326-.069.138-.388.519-.958 1.158-.569.64-1.027 1.097-1.364 1.365-.604.535-.975.803-1.104.803l-.406.199.199-.302.854-.856 1.415-1.417 1.062-1.062c.268-.268.742-.838 1.416-1.72.673-.872 1.009-1.347 1.009-1.416.743-.804 1.416-1.987 2.02-3.534.535-1.348.803-2.116.803-2.324-.199-.674-.337-1.01-.406-1.01-.198 0-.777.518-1.718 1.563-.958 1.097-1.527 1.814-1.726 2.22-.267.476-.302.838-.103 1.106.069.07.138.104.198.104.199.268.104 1.045-.302 2.324-.267.743-1.01 1.546-2.218 2.419-.198.138-.975.778-2.322 1.918-1.346 1.14-2.114 1.78-2.321 1.918-.199.138-.743.656-1.614 1.564-.872.907-1.416 1.46-1.614 1.667-.406.337-.743.838-1.01 1.512.267.199.906.406 1.916.605.803.267 1.778.267 2.926 0 .138-.2.483-.502 1.061-.907.57-.407.924-.709 1.062-.908 1.743-2.15 2.891-3.43 3.426-3.835.199-.139 1.312-1.245 3.323-3.327-.138.337-.69 1.011-1.665 2.022-.976 1.01-1.459 1.546-1.459 1.615-.138.2-.673.856-1.614 1.97-.941 1.106-1.51 1.763-1.718 1.97l-.604.605a15.778 15.778 0 002.218-1.011c1.683-.942 3.427-2.61 5.239-4.994 1.83-2.401 3.004-4.371 3.548-5.918zm-3.936 3.733c.138-.406.302-.64.501-.709l-.104.303c-.06.077-.199.207-.397.406zm4.738-21.486l-.198.803c.336 1.08 2.08 1.564 5.239 1.46 3.159-.104 4.902-.587 5.239-1.46 0-.069-.069-.337-.199-.803-1.139-.674-1.778-1.106-1.916-1.313 0-.07-.121-.251-.354-.553a5.588 5.588 0 01-.604-.96 1.556 1.556 0 01-.155-1.01c-.604-.199-1.139-.268-1.614-.199-.138.138-.302.138-.501 0-.198.138-.336.138-.405 0-.406-.069-.872 0-1.416.199.069.268.017.587-.155.959a4.178 4.178 0 01-.656 1.01c-.268.303-.406.493-.406.553-.121.2-.759.64-1.899 1.314zm7.363 22.903c.604-.536 1.415-1.582 2.416-3.128l-.103-.199c-.139.2-.354.441-.656.709-.302.268-.872.57-1.718.907-.837.337-1.597.371-2.27.104-.673.267-1.398.25-2.166-.052-.777-.303-1.398-.657-1.864-1.063l-.605-.605-.103.2c1.07 1.546 1.881 2.59 2.416 3.127.337.337 1.01.371 2.02.103h.604c1.019.268 1.692.234 2.029-.103zm1.812-5.046c-.673.138-2.054.173-4.134.104-2.08.069-3.461.034-4.134-.104a6.365 6.365 0 01-.303 1.011c1.071.743 1.986 1.14 2.719 1.21H233.922l.708-.2c.069.07.164.104.302.104l.302-.103c.268.069.501.138.708.198H236.641c.742-.069 1.649-.466 2.719-1.209a7.358 7.358 0 01-.285-1.01zm17.236 12.916c.872-.138 1.545-.406 2.02-.803-.268-.804-.605-1.383-1.01-1.72-.199-.138-.743-.674-1.614-1.615-.872-.942-1.416-1.46-1.614-1.564-.199-.104-.976-.743-2.322-1.918-1.346-1.175-2.115-1.832-2.322-1.97-1.208-.872-1.95-1.684-2.218-2.419-.405-1.278-.5-2.047-.302-2.324l.104-.103c.267-.268.267-.64 0-1.106-.199-.406-.794-1.123-1.761-2.169-.975-1.045-1.528-1.58-1.666-1.615-.138-.035-.233.19-.302.656 0 .2-.034.337-.103.406 0 .2.267.977.802 2.324.604 1.547 1.243 2.722 1.916 3.534.069.069.423.535 1.062 1.417.639.872 1.122 1.477 1.459 1.814.138.138.466.458 1.009.959a48.42 48.42 0 011.459 1.417l.854.855c.139.138.199.233.199.302l-.501-.103c-.069-.07-.405-.372-1.009-.907-.337-.268-.795-.726-1.364-1.365-.57-.64-.924-1.028-1.062-1.158-.742-.743-1.614-1.814-2.624-3.231-1.139-1.616-1.881-2.963-2.218-4.035-.405-1.278-.569-1.987-.5-2.116.198-.743.138-1.244-.199-1.512-.069-.07-.518-.553-1.363-1.46-.838-.907-1.399-1.46-1.666-1.668l-.803-.803c-.198.406-.233 1.313-.103 2.721.069.268.103.57.103.907.199 1.685.906 4.208 2.115 7.569.535 1.546 1.683 3.464 3.426 5.753 1.744 2.29 3.496 3.905 5.239 4.847.673.406 1.347.743 2.02 1.01a.974.974 0 01-.199-.302 1.415 1.415 0 00-.198-.302c-.199-.199-.794-.855-1.761-1.97-.975-1.106-1.493-1.762-1.562-1.97-.069-.069-.57-.587-1.511-1.563-.94-.977-1.475-1.633-1.614-1.97 2.02 2.082 3.09 3.197 3.228 3.326.674.406 1.847 1.685 3.53 3.836.337.406.907 1.01 1.718 1.814 1.415.329 2.486.424 3.228.294zm-4.229-14.428c-.673-.674-2.063-1.849-4.186-3.533a2594.635 2594.635 0 00-5.593-4.44 236.649 236.649 0 00-2.822-2.221c-.138.069-.268.138-.406.199 8.665 8.475 13.507 13.088 14.517 13.822 2.348 1.685 3.893 2.895 4.635 3.629a52.488 52.488 0 002.02 2.117c-.069-.605-.268-1.227-.605-1.866-.336-.64-.802-1.296-1.415-1.97a43.877 43.877 0 00-1.614-1.72 39.912 39.912 0 00-1.916-1.762c-.811-.7-1.312-1.123-1.51-1.261a21.135 21.135 0 01-1.105-.994zm-7.863 4.64l-.104-.2c.199.07.372.269.501.606v.103a6.896 6.896 0 00-.397-.51zm14.509 8.579c.535-.605.94-1.175 1.208-1.72.138-.406.233-.803.302-1.21-1.277-1.546-2.115-2.418-2.52-2.626-.138-.069-.518-.354-1.157-.855-.638-.501-1.312-1.045-2.019-1.615-.708-.57-1.157-.925-1.364-1.063a73.872 73.872 0 00-1.459-1.365c-.776-.709-1.51-1.382-2.218-2.022-.708-.639-1.096-.993-1.156-1.062-.268 0-.501.302-.708.907-.207.605-.199 1.08 0 1.417.069.267.768 1.175 2.114 2.721.199.199 1.045.907 2.521 2.117s2.287 1.883 2.416 2.021c1.614 1.417 2.624 2.42 3.021 3.024.345.423.682.855 1.019 1.33z" fill="#8E2E2C" fill-opacity=".45"/><path d="M226.687 232.147h-.193c-1.355 0-2.806-.386-4.353-1.257-1.548-.774-2.516-2.031-2.903-3.676-.29-2.515-.29-5.804-.096-9.964.29-4.159.58-6.965.87-8.609.677-3.869 1.548-6.868 2.709-8.803-.29-.774-.29-1.741.097-2.902.193-.677.58-1.935 1.257-3.869.677-1.935 1.548-4.45 2.709-7.352 1.161-2.999 2.128-4.934 2.902-5.804 1.354-1.645 3.095-2.515 5.417-2.515.484 0 .774 0 1.064.096 2.418.678 4.063 1.645 4.837 3.096.483.871.677 2.225.677 4.063 0 1.548-1.548 6.868-4.547 15.961l-.483 1.258c-.194.677-.581 1.257-1.258 1.838.194.967 0 2.998-.29 6.094l-.097.774c-.58 5.223-1.064 9.963-1.354 14.316-.194 2.322-.967 4.063-2.418 5.321-1.355 1.257-2.902 1.934-4.547 1.934zm-2.031-32.696c.29.29.29.581 0 .968-.484.58-.871.967-.968 1.16-.193.291-.387.581-.677 1.064-.29.484-.58.968-.774 1.645-.193.58-.483 1.257-.677 2.031-.29.774-.484 1.645-.677 2.612-.194.968-.29 2.032-.387 3.289-.677 7.159-.58 11.995.193 14.607.774 2.805 2.806 4.256 5.998 4.45h.097c1.064 0 2.225-.581 3.385-1.741 1.161-1.161 1.838-2.709 2.032-4.547.097-2.031.193-3.869.484-5.804.29-1.838.483-3.579.773-5.127.291-1.548.387-2.515.484-2.999l.097-.87c.193-2.322.193-4.353-.097-6.095-.097-.193-.097-.29-.097-.483 0-.29.097-.484.194-.677.677-.581 1.064-1.161 1.257-1.645l.291-1.257c2.902-8.997 4.449-14.124 4.449-15.478.097-1.064.097-1.935-.096-2.418-.097-.484-.484-1.064-1.161-1.741-.677-.581-1.645-1.161-2.999-1.451h-.774c-1.741 0-3.192.58-4.159 1.837-1.161 1.645-3.193 7.159-6.191 16.736-.291.87-.291 1.547 0 1.934zm30.374 31.729c-2.515 0-5.707-.387-9.48-1.064-5.223-1.064-8.512-2.322-9.963-3.966-1.355-1.645-1.935-3.676-1.548-6.191.387-2.031 1.354-3.386 2.902-4.256 1.354-.774 2.902-1.064 4.74-1.064 1.451 0 3.192.193 5.224.677l.096.096c.871.194 2.902.581 6.095.968 3.192.387 5.61.58 7.255.58h2.708c3.966 0 6.675 1.064 8.029 3.096 1.161 1.838 1.451 3.772.774 5.707-.29.871-.871 1.741-1.644 2.515a7.677 7.677 0 01-2.419 1.645c-2.225.87-5.707 1.354-10.544 1.354-.967 0-1.548 0-1.741.097-.194-.194-.387-.194-.484-.194zm-12.865-15.381c-2.129 0-3.773.291-4.934.968s-1.935 1.741-2.225 3.289c-.29 2.031.097 3.579 1.258 4.836 1.161 1.355 3.869 2.515 8.222 3.58 4.256 1.064 7.449 1.644 9.577 1.644h.29c.29-.097.871-.097 1.838-.097 5.32 0 9.19-.483 11.318-1.354.774-.29 1.354-.774 2.031-1.451.581-.677 1.064-1.354 1.355-2.128.483-1.741.29-3.386-.581-4.74a3.776 3.776 0 00-2.515-1.645c-1.064-.193-2.708-.29-4.74-.29h-2.708c-3.483 0-7.642-.58-12.576-1.741l-.193-.097c-2.128-.483-3.966-.774-5.417-.774zm15.09 1.742c1.548 0 2.999-.484 4.256-1.355 1.355-.967 2.129-2.128 2.322-3.676.29-1.838-.58-5.513-2.709-10.931-.386-1.064-.58-1.741-.773-2.225-1.161-3.192-2.515-7.545-4.063-12.962-.968-3.192-1.548-5.03-1.741-5.514-1.451-2.321-3.386-3.482-5.708-3.482-1.257 0-2.515.387-3.772 1.257-1.935.871-2.902 2.902-2.902 6.095.096 2.224.677 5.804 1.837 10.834 1.161 5.03 2.129 8.319 2.999 10.06v.194c3.096 6.384 5.611 10.06 7.546 11.124.773.387 1.741.581 2.708.581zm-11.898-38.114h.097c.967-.58 2.128-.87 3.675-.87 1.742 0 3.193 1.16 4.45 3.385.097.097.194.387.29.871.097.484.194 1.161.387 1.935.194.773.291 1.547.581 2.224 1.548 5.418 2.902 9.771 4.063 13.156.193.484.483 1.258.87 2.225 2.032 5.127 2.902 8.513 2.612 10.157-.193.968-.677 1.838-1.741 2.515-.968.774-2.128 1.065-3.386 1.065-.774 0-1.354-.194-2.031-.581-2.128-1.064-4.45-4.256-6.965-9.383l-.097-.194c-.774-1.838-1.838-5.03-3.095-9.576-1.258-4.547-1.935-7.836-1.935-9.77 0-1.742.193-3.193.58-4.45.387-1.161.677-1.935.968-2.128.193-.387.387-.484.677-.581z" fill="#8E2E2C" fill-opacity=".8"/><path d="M84.967 172.75c-.132.51-.297 1.252-.478 2.208a30.638 30.638 0 01-.577 2.504c-.197.709-.296 1.121-.296 1.253 0 2.307 1.153 6.674 3.46 13.084 1.022 3.213 1.566 6.229 1.632 9.047.066 2.818-.297 5.191-1.055 7.119s-1.417 3.345-1.928 4.235a17.536 17.536 0 01-1.532 2.307c-.264.263-.742.609-1.45 1.054-.71.445-1.484.94-2.308 1.45-.84.511-1.664.989-2.504 1.451-.84.444-1.516.807-2.027 1.054l-.956.577c-3.856 3.46-5.965 5.388-6.344 5.767-.264.264-1.483.956-3.659 2.11-2.175 1.153-3.394 1.73-3.658 1.73-.132.132-.478.577-1.055 1.351a38.107 38.107 0 00-1.829 2.703c-.642 1.021-1.087 1.598-1.351 1.73l-1.532 1.73.955 8.273c0 .51.84 2.307 2.505 5.388.643.643 1.467 1.088 2.505 1.351 1.532.132 2.373.198 2.505.198.131.132.313.198.576.198 2.175-.264 3.395-.379 3.659-.379.263.132.445.313.576.577h.577l.577.774-.775-.198h-.774l-2.884.198h-.379v.198l1.533.198h1.35l.775.774h-1.153l.198.198h-4.038c-.51-.132-1.285-.33-2.307-.577-1.796-.379-2.818-.643-3.081-.774l-.198-.198h-.198v.379l-.379-.198H54.761l.198.198c.643.132 1.088.132 1.351 0 .132 0 .346.033.676.099.313.066.544.099.676.099l.956.774c-.511-.132-.84-.132-.956 0a3.287 3.287 0 01-1.533.379c-.264 0-.708-.066-1.351-.198l-4.433-.379c-1.021-.263-1.73-.444-2.11-.576-.263 0-.51-.066-.774-.198h-2.307c-.132-.132-.576-.198-1.35-.198-.775 0-1.22-.033-1.352-.099-.132-.066-1.088-.033-2.884.099h-1.153c0-.263.708-.642 2.109-1.153 1.796-.132 2.752-.264 2.884-.379.263 0 .774-.33 1.532-.956.511-.511.709-.906.577-1.154-.132-1.153-.544-2.785-1.253-4.91a97.13 97.13 0 00-2.306-6.163c-.84-1.994-1.253-3.049-1.253-3.181-.132-.379-.956-1.054-2.505-2.027a101.566 101.566 0 00-4.91-2.883c-1.73-.956-2.736-1.566-2.983-1.83-.774-.642-2.027-2.109-3.757-4.432-1.73-2.324-2.736-3.856-2.983-4.614-.132-.511-.066-1.121.198-1.829.264-.709.51-1.253.774-1.632l.577-.774c-2.702-1.665-4.498-2.703-5.388-3.082-1.418-.511-2.637-1.598-3.659-3.279-.263-.379-.263-.775 0-1.154.264-.379.577-.642.956-.774l.577-.198c-1.928-2.439-3.213-3.905-3.856-4.433-.906-.642-1.351-1.73-1.351-3.279 0-.264.197-.379.576-.379h1.533c-2.06-1.022-3.46-2.043-4.235-3.081-1.022-1.533-1.862-3.329-2.505-5.389-.132-.511-.132-.956 0-1.351.132-.379.264-.643.38-.775l.378-.198-.527-1.895c.132-.263.313-.445.577-.576.263-.132.576-.198.955-.198h.38c-.264-.379-.264-.89 0-1.533.131-.263.51-.379 1.153-.379h1.73l.956.198 3.856 1.73c.132-.379.313-.675.577-.873.263-.198.576-.231.955-.099.511.132 1.566.841 3.18 2.109 1.6 1.286 2.72 1.994 3.363 2.11.89.379 2.916.675 6.064.873 3.147.198 5.619.231 7.415.099.89-.132 2.11-.099 3.658.099 1.55.198 2.818.412 3.856.675l1.533.198c.264 0 .61-.033 1.055-.099a88.666 88.666 0 012.405-.296c1.154-.132 2.044-.165 2.703-.099.643.066 1.45-.066 2.406-.379.956-.313 2.043-.742 3.28-1.253 1.219-.51 2.141-.889 2.784-1.153 1.022-.379 2.027-1.417 2.983-3.082.956-1.664 1.928-3.79 2.883-6.344.956-2.571 1.5-3.905 1.632-4.037a21.6 21.6 0 012.505-4.433c1.021-1.417 1.862-2.439 2.504-3.082l.956-1.153c.89-1.154 1.599-1.994 2.11-2.505l1.73-.774c-.264-.511-.445-.89-.577-1.154a3.915 3.915 0 01.099-2.603c.313-.841.708-1.352 1.153-1.533.445-.198.874.099 1.253.873.263-.263.445-.576.577-.955.51-.511.955 0 1.35 1.532.133 0 .38-.313.775-.956 1.022 1.022 1.73 2.176 2.11 3.461 0 .379-.1.774-.297 1.153-.198.379-.412.643-.676.775l-.379.198 2.11 2.109c1.664.643 2.57 1.285 2.702 1.928l-3.28.774c-1.12 2.044-1.828 3.708-2.092 4.994zm-30.601 76.214c0-1.418-.445-3.593-1.351-6.542-1.665-4.746-2.505-7.185-2.505-7.317-2.95.775-4.499 1.483-4.614 2.109-.132.511 0 1.698.379 3.56s.643 2.982.774 3.361c.132.132.478.742 1.055 1.83a108.371 108.371 0 011.533 2.982c.444.89.675 1.417.675 1.533 0 .263.23.478.676.675.445.198.873.231 1.252.099.132 0 .313-.066.577-.198.906-.098 1.434-.807 1.549-2.092z" fill="#8E2E2C" fill-opacity=".6"/><path d="M250.122 254.867l.315.316c.095.094.206.284.316.537.095.252.095.536 0 .852-.11.316-.252.458-.458.458-.205 0-.363.047-.458.158-.11.316-.41.158-.931-.458 0-.11-.205-.237-.616-.379-.41-.158-.774-.237-1.074-.237l-.457-.158c.094.616-.048 1.137-.458 1.548-.316.205-.569.173-.774-.079-.205-.253-.316-.6-.316-.995 0-.616-.363-.868-1.073-.774h-.774c-.111 0-.111-.205 0-.615.205-.206.316-.616.316-1.232v-2.463c-1.137 1.137-2.163 2.053-3.079 2.779-1.232 1.026-2.416 1.689-3.553 2.005-2.573.316-4.105.663-4.626 1.074-1.026.616-2.826 1.231-5.4 1.847-.726.205-3.189.458-7.405.774-.41.094-1.073.379-2.005.852-.931.474-1.689.79-2.305.995-.616.095-1.358.032-2.242-.237a58.905 58.905 0 01-2.242-.695l-.932-.457c-1.026-.616-1.389-1.8-1.073-3.553.205-1.437.205-2.621 0-3.552 0-.206.031-.695.079-1.469.047-.773.079-1.31.079-1.626 0-.316-.285-.711-.853-1.232-.568-.505-.995-.821-1.311-.931-.11-.095-.568-.948-1.389-2.542-.821-1.595-1.31-2.384-1.468-2.384-.158 0-.995-.174-2.542-.537-1.548-.363-2.463-.584-2.779-.695-4.832-1.026-7.089-.663-6.789 1.074l.157.316c0 .11-.031.236-.079.378a1.039 1.039 0 01-.315.458c-.158.142-.332.206-.537.158-.205-.047-.458-.252-.774-.616a10.754 10.754 0 01-.773-.994l-.316-.458c0 1.342-.253 2.116-.774 2.305-.41.111-.726-.205-.931-.931 0-.095-.048-.206-.158-.316l-.458-1.69c-.111 0-.363.174-.774.537-.41.363-.774.442-1.074.237-.521-.411.048-1.595 1.69-3.553.205-.315.442-.852.695-1.626.252-.773.379-1.2.379-1.31 0-.095.078-.363.236-.774.158-.41.364-.931.616-1.547.253-.616.442-1.184.537-1.69.41-1.436 1.484-2.51 3.237-3.236 1.436-.506 2.779-1.39 4.01-2.621 2.984-2.984 4.579-4.927 4.784-5.858.095-.316-.252-.947-1.073-1.926a95.678 95.678 0 00-2.937-3.316c-1.137-1.232-1.753-1.895-1.848-2.005-4.215-5.242-6.584-8.274-7.089-9.095-2.873-4.515-4.31-8.226-4.31-11.099 0-3.9.158-6.268.458-7.09.41-.71.71-.505.931.616v2.779c-.316 3.6 1.074 7.5 4.169 11.716.931 1.342 2.573 3.426 4.926 6.252 2.368 2.826 3.757 4.389 4.168 4.705 0 .111.237.379.695.853.458.473.947.931 1.468 1.389a33.47 33.47 0 001.768 1.468c.664.521 1.2.853 1.627.995.41.158.773.126 1.073-.079.616-.505 2.306-1.231 5.084-2.163 2.779-.931 4.784-1.389 6.016-1.389 4.626 0 8.273.41 10.942 1.231 1.342.411 2.858 1.232 4.547 2.463 1.689 1.232 3.063 2.621 4.089 4.169.616 1.026 1.279 2.447 2.006 4.247.71 1.8 1.342 3.363 1.847 4.705l.616 2.005c2.257 2.163 3.694 4.011 4.31 5.558.41 1.026.789 2.258 1.153 3.694.363 1.437.536 2.306.536 2.621 0 .111.032.49.079 1.153.048.663.127 1.437.237 2.305.095.869.205 1.563.316 2.084l-.316 3.553c1.137.205 1.958.41 2.463.616.205.11.379.315.537.615.158.3.284.616.379.932v.3h.032zm-36.552-8.163c0-.205.079-.568.237-1.074.158-.505.253-.868.316-1.073.047-.205-.032-.411-.237-.616-.616-.095-1.342.458-2.163 1.689-.111.206-.237.458-.379.774a6.842 6.842 0 00-.379.995c-.111.363-.111.663 0 .931.095.253.316.379.616.379 1.326-.726 1.989-1.389 1.989-2.005zm1.39-7.563c.931-1.231 1.768-2.258 2.542-3.079.773-.821 1.626-1.279 2.542-1.389.094-.095.079-.569-.079-1.39s-.332-1.389-.537-1.689c0-.095-.411-.647-1.232-1.626a40.328 40.328 0 01-2.242-2.937c-.663-.979-1.058-1.674-1.152-2.084-.111-1.026-.569-1.279-1.39-.774-.616.411-.931 1.137-.931 2.163-.111.821.031 1.848.379 3.079.363 1.232.379 2.116.079 2.621-.821 2.163-.979 3.647-.458 4.468l2.479 2.637zm9.568 12.947c.205-.616.158-1.389-.158-2.305-.316-.916-.979-1.484-2.005-1.69-.616-.094-1.279.048-2.006.458a4.862 4.862 0 00-1.689 1.548l-.616.773c-.11.316-.047.616.158.932.205.316.411.537.616.695.205.158.537.315.995.458.457.142.742.284.852.378.505.206 1.232.174 2.163-.079.916-.268 1.484-.647 1.69-1.168zm17.573-7.389c.71-.932 1.073-2.668 1.073-5.242 0-.932-.157-2.084-.457-3.474-.3-1.389-.569-2.084-.774-2.084-.726.205-1.8.569-3.237 1.074-2.368.821-4.105 1.279-5.242 1.389-1.342.206-2.368.932-3.079 2.163-.521.932-.773 1.8-.773 2.621s.126 1.437.379 1.848c.252.41.536.615.852.615.206.111.49.079.853-.079.363-.157.647-.284.852-.378l.316-.158a1.51 1.51 0 01.316-.237c.095-.048.332-.174.695-.379.363-.205.616-.332.773-.379.158-.047.285-.032.379.079.095.931-.252 1.8-1.073 2.621-.206.11-.442.252-.695.458-.253.205-.411.331-.458.379a.827.827 0 00-.158.315c-.047.158-.031.285.079.379.411.821 1.8 1.342 4.168 1.548 1.816.11 3.569-.932 5.211-3.079z" fill="#8E2E2C"/><path d="M270.861 158.559c.362.079.294.441-.226 1.108-.227.374-.475.589-.769.668a6.386 6.386 0 00-2.432 1.21c-2.578 2.284-4.489 3.641-5.745 4.082a39.952 39.952 0 01-5.191 1.55c-.814.147-1.9.124-3.257-.057-1.368-.181-2.341-.678-2.929-1.493-.373-.52-.61-1.323-.712-2.431-.102-1.108-.17-2.104-.17-2.986l.113-1.323c-2.205-.735-3.573-1.142-4.082-1.21l-2.104-.769a1.363 1.363 0 01-.328.226c-.147.079-.384.125-.712.17-.328.034-.577-.091-.713-.385-.226-.294-.961-.271-2.205.057-1.255.328-2.024.611-2.318.825-.226.08-.294.442-.226 1.109.067.667.181 1.108.328 1.323.294.226.475.905.554 2.047.068 1.142-.113 2.115-.554 2.929l-1.652 1.764c-1.108.667-2.205 1.142-3.313 1.436-.735.147-1.346.227-1.821.227a9.403 9.403 0 01-1.651-.17c-.622-.113-1.052-.17-1.267-.17-1.323 0-2.838-.294-4.523-.882-.882-.079-1.991-.475-3.314-1.21a17.809 17.809 0 00-1.266-.441 10.67 10.67 0 00-.995-.271c-.181-.034-.238-.125-.17-.272.068-.147.441-.226 1.108-.226h-.113c-.882-.373-1.346-.611-1.38-.712-.034-.114.023-.238.17-.385.588-.294 1.47-.554 2.646-.769-1.323.147-1.911.079-1.764-.226.294-.226.701-.407 1.21-.554.509-.147.961-.26 1.323-.328h.554l3.088.441c.667.441 1.549.814 2.646 1.108.441.068.905.091 1.38.057a5.646 5.646 0 001.38-.272l.667-.113c-1.55-2.431-2.398-4.162-2.545-5.191-.079-.147-.181-.588-.328-1.323a35.621 35.621 0 01-.328-1.821c-.079-.475-.022-1.085.17-1.82.181-.735.531-1.437 1.052-2.104.667-.814 1.323-1.47 1.99-1.99.667-.509 1.142-.848 1.436-.995l.554-.114c-1.549-2.431-2.352-4.896-2.431-7.396-.079-1.764.124-3.72.611-5.858.475-2.137.972-3.788 1.493-4.964l.769-1.878c-1.109-.362-1.81-.995-2.104-1.877l-1.436-3.868c-.147-1.176-.113-2.058.113-2.646.882-1.696 1.323-2.612 1.323-2.759 0-.147-.034-.441-.113-.882 0-.509.034-.815.113-.883.226.147.407.328.554.555.147.226.26.407.328.554v.226c.068 1.47.068 2.318 0 2.544-.52 1.618-.554 2.545-.113 2.76.226.147.588.464 1.108.938.509.475.882.769 1.109.883.226.113.509.056.882-.17 1.402-2.431 2.171-3.981 2.318-4.637l.113.113c.441.521.882.328 1.323-.554.509-.961.441-1.583-.226-1.877v.113c.882-1.108 1.911-1.696 3.088-1.764 1.617 0 2.872.475 3.754 1.436-.667.373-.701 1.029-.113 1.99.441.736.882.883 1.323.441v-.113l.113.113c.294.962.611 1.765.939 2.432.328.667.611 1.108.825 1.323l.227.328a11.79 11.79 0 011.108-.995l1.323-.995c-.667-1.109-1.029-1.912-1.108-2.432-.147-.961 0-1.696.441-2.205 1.176-1.402 1.911-2.058 2.205-1.99.147 0 .125.226-.056.667-.181.441-.385.938-.611 1.493-.226.554-.26.938-.113 1.164.068.227.328.577.769 1.052.441.475.667.939.667 1.38v2.205c-.147 1.99-.475 3.201-.995 3.642l-1.877 1.436c.441.667.938 1.549 1.492 2.646s1.256 2.941 2.104 5.519c.848 2.578 1.119 4.603.825 6.073l-1.549 6.74c1.911.588 3.234 1.402 3.981 2.432 1.176 1.47 1.73 2.985 1.651 4.523l-.882 6.299c.814.294 1.617.226 2.431-.226.226-.068 1.086-.735 2.59-1.99 1.504-1.256 2.669-1.991 3.483-2.206 2.205-.588 3.608-.735 4.196-.441.147.08.034.181-.328.328-1.176.588-1.764.996-1.764 1.21 1.255-.441 2.137-.554 2.646-.328.362.08.328.227-.113.441-.588.227-.882.442-.882.668h.938c.114 0 .193-.057.272-.057z" fill="#8E2E2C" fill-opacity=".35"/><path d="M140.241 174.262c1.417.867 2.217 1.851 2.434 2.934.217 1.084-.117 1.767-.983 2.034-.867.267-1.951.183-3.251-.25-.117 0-.734-.183-1.867-.567a61.687 61.687 0 00-2.851-.9c-.767-.217-2.017-.483-3.751-.817-1.733-.333-3.234-.467-4.484-.4-1.25.05-2.9.183-4.968.4-3.15.55-5.534 2.017-7.168 4.401-1.633 2.384-2.434 4.968-2.434 7.735 0 2.767.167 5.401.484 7.902.217.65.7 2.25 1.467 4.801.75 2.55 1.35 4.784 1.784 6.668.433 1.9.9 4.151 1.383 6.751.484 2.601.7 5.101.65 7.485-.05 2.384-.35 4.551-.9 6.518-.983 3.801-3.117 7.269-6.435 10.419-3.317 3.151-8.118 5.101-14.403 5.868-1.733.1-3.634.034-5.7-.25-2.068-.267-4.402-.9-7.002-1.867-2.601-.967-5.051-2.684-7.319-5.134-2.267-2.451-3.967-5.502-5.05-9.202-2.168-7.602-3.802-14.437-4.885-20.505-1.084-6.084-1.567-9.869-1.467-11.402.1-1.517.167-2.717.167-3.584l2.6 10.252c3.684 11.719 7.435 19.637 11.236 23.772.867.983 1.817 1.9 2.85 2.767 1.034.867 2.518 1.85 4.485 2.934 1.95 1.083 4.2 1.6 6.751 1.55 2.55-.05 5.068-.783 7.569-2.2 1.517-.867 2.733-1.951 3.667-3.251.917-1.3 1.484-2.801 1.717-4.484.217-1.684.333-3.318.333-4.885 0-1.567-.25-3.384-.733-5.451a146.716 146.716 0 00-1.3-5.201 104.816 104.816 0 00-1.467-4.884c-.6-1.851-1.001-3.151-1.217-3.901-1.85-5.751-1.784-11.369.166-16.854 1.951-5.484 5.485-9.685 10.586-12.619 2.501-1.2 5.201-1.901 8.135-2.117 2.934-.217 5.585-.05 7.985.483 2.384.55 4.618 1.2 6.668 1.951 2.067.766 3.634 1.467 4.718 2.117l1.8.983z" fill="#8E2E2C" fill-opacity=".6"/><path d="M260.867 196.61c4.631 2.037 6.372 5.075 5.224 9.114-1.149 5.224-6.373 5.78-15.635 1.741a10.61 10.61 0 01-2.594-1.297c-23.155-11.559-40.828-15.931-52.98-13.041-1.445.593-2.446 1.889-3.038 3.89-.297.593-.149 1.519.444 2.816a37.638 37.638 0 002.186 4.112c.852 1.445 1.297 2.446 1.297 3.038.296 0 .852.927 1.741 2.816.852 1.89 1.519 3.557 1.964 5.002.444 1.445.852 3.408 1.297 5.854.444 2.445.37 4.409-.223 5.854-1.148 3.482-3.631 5.705-7.373 6.743-3.779 1-8.113-.223-13.041-3.705-4.631-3.483-5.224-9.115-1.741-16.932l5.631-13.041c.297-1.742 0-2.446-.852-2.186-.296 0-.593.148-.852.444-4.631 2.89-7.595 5.298-8.892 7.151-1.297 1.889-3.112 5.594-5.409 11.078-2.334 5.483-5.224 11.3-8.67 17.376-3.186 5.224-6.891 8.04-11.078 8.484-4.186.445-7.521-.926-10.003-4.112-2.445-3.187-3.26-6.669-2.371-10.411.852-2.038 1.815-3.965 2.816-5.854 1-1.89 1.963-3.409 2.815-4.557.853-1.149 2.112-2.371 3.705-3.705a578.665 578.665 0 013.483-2.816c.704-.593 3.112-2.038 7.151-4.335 3.742-2.297 7.817-4.334 12.152-6.076 4.335-1.741 7.817-2.89 10.411-3.482l4.335-.853c-1.445-1.741-2.372-2.667-2.816-2.815-.445-.149-1.667-.445-3.705-.852-2.038-.445-4.78-.667-8.262-.667-9.263-.593-23.008 1.741-41.236 6.965-.852.296-2.668.926-5.409 1.964-2.742 1-5.373 1.963-7.818 2.815a79.34 79.34 0 01-7.373 2.186c-2.445.593-4.335.593-5.631 0-1.297-.593-1.964-1.889-1.964-3.89.593-4.335 4.409-8.188 11.522-11.522 7.077-3.335 16.858-5.41 29.307-6.299 14.745-1.148 28.639 1.445 41.68 7.818v.444h1.297c0-.852-.148-1.889-.445-3.038-1.148-5.483-1.148-8.966 0-10.411h4.78l.852-28.231c-4.038-4.632-7.373-6.966-10.003-6.966-1.149 0-2.335.297-3.483.852-1.149.593-1.89 1.001-2.186 1.297-.296.297-1 .148-2.186-.444-.593-.853-.593-1.742 0-2.594.593-.852 1.741-1.667 3.483-2.371 1.741-.704 3.482-1.223 5.224-1.519 3.742 0 6.78 2.89 9.114 8.67 0-7.225.148-14.413.444-21.489.297-7.077.519-12.449.667-16.08.149-3.63.223-5.705.223-6.298 0-.852-.741-2.112-2.186-3.705-1.445-1.593-2.038-2.964-1.742-4.113.853-3.742.445-7.076-1.296-10.003-.297-.593-.852-2.223-1.742-5.002-.852-2.741-1.593-4.408-2.186-5.001-.296-.593-.852-1.149-1.741-1.742-.852-.592-1.593-1.148-2.186-1.74-.593-.594-.926-1.001-1.074-1.297a1.95 1.95 0 01-.223-.853l-3.482-.852-3.038-2.593c-.593-.852-.445-1.593.444-2.186 1.742-1.149 3.631.593 5.632 5.224 1.445 1.445 2.593 2.186 3.483 2.186.296 0 .592-.297.852-.852.296 1.148.704 2.037 1.296 2.593 1.445 1.149 2.89 3.78 4.335 7.817l2.594 7.818c-1.445 5.483-1.445 8.41 0 8.67.852.296 1.445.222 1.741-.223.296-.444.445-1.148.445-2.186v-1.963c0-.297-.445-3.335-1.297-9.115-.852-5.78-1.149-8.965-.852-9.558.592-.852 1.074-2.742 1.519-5.632.444-2.89.667-4.483.667-4.78V51.154c0-.592-1.594-1.296-4.78-2.185.297-.593.778-.853 1.519-.853.704 0 1.519.149 2.371.445l.853.445-2.186-7.373c.592-.297 1 .148 1.296 1.297l.852 1.74.445 2.187.445-5.224-.852-12.597-.445.445c-1.445.592-1.741-.704-.852-3.89l.852-2.594c.296.296.519.667.667 1.074.148.445.37 1.297.667 2.594.296 1.296 0 2.112-.852 2.37.592 2.039 1.148 4.04 1.741 6.077l1.741-5.631c1.149.592 1.445 1.444.852 2.593-.592 1.148-1.445 2.445-2.593 3.89.593 1.742 1 3.631 1.297 5.632 0 1.741-.593 4.483-1.742 8.262l.445.444h3.038c0-.593.445-1.074 1.297-1.519.852-.444 1.889-.778 3.038-1.074h1.741c.296 1.741-.852 2.89-3.483 3.483.297.592 0 1.296-.852 2.185-.852.89-1.741 1-2.593.445-.852-.593-1.445-.296-1.741.852v2.186l-.445 10.003a16.421 16.421 0 00-.852 1.964c-.297.741-.667 1.964-1.075 3.705-.407 1.741-.518 3.038-.222 3.89l1.297 10.411c3.186-2.593 4.779-4.631 4.779-6.076l1.741-7.373h1.297l3.038-6.076.852-.852c.297-.296.778-.704 1.519-1.297.704-.593 1.371-.593 1.964 0 .852.852-.148 2.334-3.038 4.335l-3.483 3.89c.297 0 .445.148.445.445 0 .593-.148 1-.445 1.296l.852-.852 1.075-1.074c.407-.408 1.148-.926 2.186-1.52 1-.592 1.815-.703 2.371-.444.593.297 0 1-1.741 2.186a107.259 107.259 0 01-5.632 3.483c-.593.852-.852 1.593-.852 2.186-.593 3.482-1.297 5.483-2.186 6.076-2.593 2.334-3.89 3.89-3.89 4.78-.593 5.223-.852 8.113-.852 8.669 0 .593.222 1.445.667 2.593.444 1.149.667 2.186.667 3.038v14.338l2.593-3.482c2.297-2.89 4.928-4.335 7.817-4.335 2.594 0 3.483 1.149 2.594 3.483-.296 1.148-1.371 1.741-3.26 1.741-1.89 0-2.964.148-3.261.445-1.741.592-3.89 1.741-6.52 3.482-1.149.852-1.297 6.076-.445 15.635a89.892 89.892 0 00-.852 12.152c2.037-4.334 4.038-7.669 6.076-10.003 2.038-2.297 5.076-4.038 9.114-5.224 4.038-1.149 6.669-1.149 7.818 0 1.741 1.741 1 2.89-2.186 3.483-5.78 1.148-9.411 2.186-10.856 3.038-3.483 2.334-6.965 5.928-10.411 10.855 0 10.411.148 16.339.445 17.784v12.597c.593-1.445 1.741-1.445 3.482 0 .593.593.927 1.222 1.075 1.963.148.741.222 1.297.222 1.742 0 .444-.148 1.074-.444 1.963-.297.852-.445 1.445-.445 1.742l-.852 3.89c9.855-2.89 21.266-3.816 34.308-2.816 12.967.852 24.267 3.52 33.826 7.892zM171.874 65.454l-.852 3.483-7.373.852c-.852-.593-.445-1.445 1.297-2.593-.593-1.149-1.297-2.038-2.186-2.594-.297-.592 0-1 .852-1.296.852-.852 1.445-1.297 1.741-1.297-.852-.852-1.148-1.593-.852-2.186.297-.593.704-.852 1.297-.852l.852-.445 2.186 1.742 3.038-1.742c.296 0 .445.593.445 1.742v3.482l-.445 1.704zm6.076 0c.593 2.335.704 4.039.445 5.225a87.678 87.678 0 01-.852-4.78l-3.483-5.631c2.853 0 4.149 1.74 3.89 5.186zm7.373-16.931l1.297.852-1.297 2.593h-5.632v-2.185c-2.334 0-3.482-.445-3.482-1.297l3.038-1.297c-1.149-.593-1.89-1.148-2.186-1.741 0-.297.296-.519.852-.667a7.018 7.018 0 011.741-.222h.853l2.185-1.742c.297 0 .667.519 1.075 1.52.444 1 .778 1.963 1.074 2.815l.482 1.37zm6.076-16.043c3.742 1.445 6.076 1.445 6.965 0l-1.296-3.037 1.741-2.594h-2.594l-1.296-2.593c-.593 0-1.001.222-1.297.666a9.653 9.653 0 00-.852 1.52v.444l-2.186 1.741v2.186c-.074 1.075.222 1.668.815 1.668zm11.708 26.046c-1.149 2.89-1.89 4.78-2.186 5.632l.852 3.89c4.335.296 6.78.296 7.373 0v-2.594a6.4 6.4 0 011.074-.852c.445-.296.852-.704 1.297-1.296.445-.593.519-1.149.222-1.742-.296-.593-.741-.926-1.297-1.074-.592-.148-1-.222-1.296-.222h-.852c-.297-.297.148-1.445 1.296-3.483-.592 0-1.148.222-1.741.667-.593.444-1.149 1.074-1.741 1.964l-.445.852c-.222.296-1.111-.297-2.556-1.742z" fill="#8E2E2C" fill-opacity=".5"/><path d="M134.817 106.219c.634 0 1.075.11 1.295.33 1.076.441 1.82 1.82 2.261 4.19.441 2.371.331 4.521-.331 6.451-.22 1.075-.441 1.737-.634 1.93-1.075.634-.965 1.185.331 1.626a616.405 616.405 0 0020.041 2.895c1.516.22 4.962-.331 10.338-1.627 1.075-.441 2.894-1.185 5.486-2.26l4.52-2.261c3.446-1.516 6.313-2.15 8.574-1.929 2.26.22 3.887.634 4.852 1.295.964.662 1.654 1.296 2.095 1.93.634 1.93-.441 4.301-3.226 7.112l-4.024 4.025-2.096 2.095-1.13 1.13c-.11.111-.22.386-.331.8-.11.441-.11.854 0 1.296.111.441.276.909.497 1.461.22.551.689 1.185 1.461 1.929a28.931 28.931 0 002.756 2.426c2.592 2.371 3.777 4.907 3.557 7.581-.221 2.702-1.186 4.245-2.895 4.686-2.15.635-5.072-.11-8.711-2.26-.221 0-.91-.386-2.095-1.13-1.186-.745-2.206-1.351-3.06-1.765-2.371-1.516-4.08-2.481-5.183-2.894-.634-.441-2.701-1.516-6.147-3.225-4.08-1.93-7.747-2.895-10.972-2.895-1.296 0-1.93-.11-1.93-.331.221.221.276.607.166 1.13-.11.552-.276.965-.496 1.296a1.946 1.946 0 00-.331 1.13c0 1.076-.855 2.261-2.591 3.557-.221 0-1.93 1.35-5.183 4.024-3.225 2.702-5.072 4.163-5.486 4.356-1.075.441-2.15.965-3.225 1.626-1.296.634-2.04.965-2.261.965l-.331.331c-2.15.441-4.41-.441-6.781-2.591 0-.221-1.13-1.572-3.391-4.025-2.26-2.481-3.611-3.832-4.025-4.025-.441-.441-.964-.524-1.626-.331-3.225.634-4.962 1.075-5.183 1.296-.441.441-.551.634-.33.634.441 0 .441 1.406 0 4.19-.221 2.15-1.517 2.895-3.887 2.261l-9.042-4.19h-5.486c-9.042 0-16.485-.965-22.302-2.895-.44 0-1.874-.386-4.355-1.13a345.363 345.363 0 00-9.042-2.592c-3.557-.964-6.727-1.984-9.539-3.059-4.962-1.517-8.628-3.336-10.971-5.486-1.93-1.709-3.115-3.336-3.556-4.852-.441-1.075-.745-1.654-.965-1.764-.22-.111-.331-.579-.331-1.461 0-.855.22-1.517.634-1.93.634-.855 2.702-2.04 6.147-3.556 1.93-.855 5.045-1.82 9.373-2.895 3.667-.634 7.443-1.516 11.303-2.591.22 0 .964-.11 2.26-.331a64.575 64.575 0 003.887-.799c1.296-.304 2.15-.497 2.591-.497 12.488-2.37 24.756-2.894 36.83-1.626 5.596 1.075 9.704.855 12.267-.634.634-.221 2.757-.965 6.313-2.261 3.556-1.295 5.431-1.929 5.651-1.929 2.509-1.323 5.21-1.957 7.995-1.957zm-95.465 18.249c.11-.11.276-.166.496-.166.221 0 .331.111.331.331H41.144c-.22 0-.441.111-.634.331l-.33.331c-.221 0-.442.11-.635.331-.22.22-.44.634-.634 1.295.22.221.22.331 0 .331v-.331l-.33-.33v-.635c0-.22.11-.496.33-.799.193-.386.331-.579.441-.689zm1.13 4.989c.221.221.745.442 1.627.635v.634c0 .22-.276.385-.8.496-.55.11-.799.055-.799-.166-.22-.22-.33-.496-.33-.799 0-.303.11-.579.303-.8zm4.053-5.816c-.11 0-.276.11-.496.331-.442.441-.745.634-.965.634l-.634.33c.44-.22.8-.055 1.13.497.33.551.579 1.13.8 1.764.22.634.22 1.075 0 1.296l.634-1.93c0 .22.22.22.634 0h.33c.22 0 .331-.165.331-.496 0-.331-.11-.579-.33-.8-.221-.441-.552-.854-.965-1.295-.194-.221-.359-.331-.47-.331zm1.13 4.218c.634.634.855 1.185.634 1.626-.441.441-.744.634-.965.634v.331c-.634.22-1.13.386-1.46.496-.332.11-.607-.165-.8-.799 1.075 0 1.516-.634 1.295-1.93l1.296-.358zm42.977-9.704c-9.483 0-16.154.221-20.041.634a31.118 31.118 0 01-4.521.331c-1.516 0-2.895.165-4.19.496-1.296.331-2.371.496-3.226.496-.44 0-.965-.055-1.626-.165-.634-.11-1.075-.166-1.296-.166-.22 0-.33.111-.33.331.633.441 1.185.855 1.626 1.296.44.441.744.634.965.634 1.295-.221 3.776-.634 7.443-1.296 1.075-.22 2.701-.441 4.852-.634 1.295-.22 9.317-.331 24.066-.331 14.748 0 22.77.111 24.066.331.854 0 1.295-.11 1.295-.331-1.075-.634-4.741-.964-10.971-.964-4.08-.221-7.444-.441-10.007-.634-1.765-.028-4.466-.028-8.105-.028zm2.26 5.817c-9.041 0-14.527.11-16.485.33-5.182.442-9.262.552-12.267.331-.44 0-1.02-.055-1.764-.165-.745-.11-1.296-.221-1.627-.331-.33-.11-.91-.165-1.764-.165 0 .441.11.909.33 1.461.221.551.332.909.332 1.13.22 0 1.075-.055 2.591-.165 1.516-.111 2.37-.166 2.591-.166.634 0 2.702-.055 6.148-.165 3.446-.111 5.927-.386 7.443-.8 1.295-.22 5.927-.275 13.894-.165 7.966.11 12.046.22 12.267.331.22.11 1.13.11 2.757 0 1.626-.111 3.115-.055 4.521.165 1.406.221 3.721.441 6.946.634 3.226.221 5.018.386 5.321.496.331.111 2.536.166 6.616.166 7.746.22 12.378.551 13.894.965 1.516.441 3.005.634 4.521.634 2.784.441 4.3.634 4.521.634.22 0 1.626.165 4.19.496 2.564.331 4.19.606 4.852.799.854.441 1.516.441 1.929 0 .221-.22.221-.441 0-.634-1.075-.634-2.37-.854-3.887-.634-.854 0-1.405-.055-1.626-.165-.221-.11-.744-.221-1.626-.331-.855-.11-2.04-.276-3.557-.496-1.295-.441-2.481-.634-3.556-.634-1.075 0-2.591-.221-4.521-.634-5.182-.855-9.042-1.296-11.633-1.296-.441 0-1.516-.11-3.225-.331-6.258-.634-14.335-1.075-24.232-1.295H90.902zm-22.301 7.112c-1.93 0-2.95.11-3.06.331-.11.22-.055.496.165.799.22.331.441.386.634.166.22 0 2.04-.056 5.486-.166 3.446-.11 6.037-.055 7.747.166 1.93 0 3.886.11 5.816.33 1.93 0 3.666.111 5.183.331 2.591.441 6.726.634 12.432.634 5.707 0 8.656-.11 8.877-.331.855-.441 4.356-.523 10.503-.33 6.147.22 11.468.551 15.989.964 2.371.221 4.19.552 5.486.965 1.075.441 2.894.745 5.486.965 2.591.221 4.631.441 6.147.634 2.784.441 4.411.441 4.852 0 .441-.441.22-.744-.634-.965-.441 0-1.186-.11-2.261-.33-1.929-.221-3.335-.442-4.19-.635-.855-.22-2.702-.441-5.486-.634-2.812-.22-4.741-.441-5.816-.634-4.301-1.075-16.789-1.516-37.464-1.295H92.529c-4.521-.634-11.413-.965-20.675-.965H68.6zm73.659 5.817c-.634 0-1.406.11-2.261.33-2.812 0-5.596.111-8.408.331-10.971.634-16.788 1.186-17.45 1.627-.22 0-1.295.11-3.225.33-6.892.634-11.302.855-13.232.634-1.93-.22-3.666-.33-5.183-.33-1.93.22-3.39.165-4.355-.166-.965-.331-1.682-.331-2.095 0-.441.331-.634.552-.634.634 0 .111.22.276.634.497.854 0 1.626.11 2.26.33 1.075.441 4.852.634 11.303.634 6.45-.22 10.337-.33 11.633-.33 1.709-.221 2.702-.442 2.894-.634.855-.221 2.261-.442 4.191-.635.634 0 2.37-.22 5.182-.634 2.592-.22 4.521-.441 5.817-.634 2.15 0 4.19-.11 6.147-.33l6.451-.331c1.516-.221 2.371-.441 2.591-.634.221-.221-.11-.441-.965-.634-.22-.055-.661-.055-1.295-.055zm-41.02 12.598c-.441.441-.22 1.075.634 1.929 2.15 1.296 3.226 1.517 3.226.634 0-.22-.552-.634-1.627-1.295a62.013 62.013 0 00-2.233-1.268zm36.499-3.556h-1.93c-6.892.854-10.889 1.295-11.964 1.295-1.075.221-.855.441.634.634.855.221 1.709.331 2.591.331 2.785 0 5.927-.634 9.373-1.93l1.296-.33zm7.415-2.592c-.22 0-.854.331-1.929.965-1.517.441-2.592.744-3.226.965l-1.295.331h1.295a17.967 17.967 0 003.226-.965c1.075-.441 1.709-.744 1.929-.965v-.331zm22.137-8.711h1.461c2.784.221 5.375.965 7.746 2.261l.965.634h-.634a55.922 55.922 0 01-2.261-.634 64.47 64.47 0 00-3.556-.634c-2.812-.442-4.19-.855-4.19-1.296-.028-.221.138-.331.469-.331zm1.13 5.817c.441-.221 1.296-.111 2.591.331l1.296.964c-.221.441-1.075.441-2.591 0-1.296-.441-1.93-.854-1.93-1.295h.634zm5.817-10.338c3.004 0 4.686.11 5.017.331.331.22.331.441 0 .634-.331.22-.634.276-.965.165-.331-.11-1.461-.275-3.391-.496-2.812-.22-4.162-.386-4.025-.496.083-.083 1.213-.138 3.364-.138zm.634-4.218h.634c.854.221 1.709.331 2.591.331h.965c.22 0 .331.11.331.331 0 .22-.634.331-1.93.331-1.296 0-2.15-.111-2.591-.331-1.076-.441-1.076-.662 0-.662z" fill="#8E2E2C" fill-opacity=".3"/></svg>