<svg width="279" height="269" viewBox="0 0 279 269" fill="none" xmlns="http://www.w3.org/2000/svg">
<path d="M202.128 109.105C206.273 116.056 209.258 120.379 210.996 122.117C211.352 122.473 211.932 123.231 212.823 124.478C213.67 125.681 214.294 126.484 214.65 126.84C215.006 128.221 214.828 128.934 214.115 128.934C214.472 129.959 214.962 131.608 215.675 133.881C216.388 136.153 216.878 137.802 217.235 138.827C217.235 139.852 217.056 140.387 216.7 140.387C215.987 140.387 215.497 140.208 215.14 139.852C214.427 138.47 214.115 137.579 214.115 137.267L215.63 142.927C215.63 143.951 215.452 144.486 215.096 144.486C214.383 144.486 213.714 143.951 213.001 142.927C212.645 141.902 211.798 139.985 210.417 137.223C210.773 138.248 211.263 140.164 211.976 142.927C211.976 143.639 211.798 143.951 211.442 143.951C210.729 144.308 210.238 144.041 209.882 143.149C209.526 142.303 209.347 141.679 209.347 141.322C208.991 140.609 208.545 139.495 208.055 137.936C207.565 136.376 207.075 135.262 206.763 134.549C206.763 135.262 206.852 136.198 207.03 137.401C207.208 138.604 207.297 139.406 207.297 139.763C207.297 140.788 207.208 141.322 207.03 141.322C206.852 141.322 206.406 140.966 205.738 140.297C205.381 139.941 205.203 139.495 205.203 139.005C205.203 138.515 205.025 138.069 204.668 137.713C204.312 136.331 203.688 134.237 202.841 131.474C201.95 128.712 201.371 126.617 201.014 125.236L199.455 120.022C198.43 118.641 196.692 116.457 194.241 113.516C191.79 110.575 190.097 108.214 189.028 106.476C185.195 101.975 183.145 99.5242 182.789 99.1678L181.764 98.1429C181.408 97.7864 180.784 96.8506 179.937 95.291C179.046 93.7313 178.467 92.6173 178.11 91.9043C177.397 90.8794 176.461 89.4089 175.258 87.4928C174.055 85.5767 173.075 84.1062 172.406 83.0813C170.312 79.2491 168.396 75.4614 166.703 71.6291C166.346 71.6291 165.99 70.9162 165.678 69.5348C165.321 72.2976 164.653 76.3972 163.583 81.7445C162.558 87.1363 161.756 90.8349 161.222 92.9292C160.687 95.0236 160.776 99.346 161.489 105.941C161.845 107.679 162.425 110.62 163.316 114.809C164.163 118.953 164.608 122.295 164.608 124.701C164.608 128.845 164.786 134.772 165.143 142.392C165.499 146.536 165.321 150.725 164.608 154.869C163.895 156.963 163.049 160.439 162.024 165.296C160.999 170.153 160.286 173.985 159.929 176.748C158.548 184.368 158.726 191.676 160.464 198.628C161.177 202.103 160.999 207.317 159.929 214.224C157.478 224.651 155.919 232.093 155.25 236.593C155.25 237.975 155.25 239.356 155.25 240.738C155.25 244.213 155.785 247.333 156.81 250.095C157.167 250.808 157.835 251.655 158.904 252.68C159.974 253.705 160.642 254.418 160.999 254.774C161.355 256.156 161.533 257.181 161.533 257.893C161.177 258.25 160.642 258.428 159.974 258.428H153.201C152.488 258.428 151.641 258.25 150.616 257.893C148.878 256.512 147.675 255.443 146.962 254.774C146.606 254.061 146.427 253.036 146.427 251.655C146.427 248.536 146.606 246.441 146.962 245.416C146.962 244.703 147.051 243.857 147.229 242.832C147.408 241.807 147.497 241.094 147.497 240.738C147.497 234.143 147.319 229.285 146.962 226.166C146.962 224.785 146.516 221.933 145.67 217.566C144.779 213.244 144.556 209.857 144.868 207.406C145.581 202.549 145.893 199.073 145.893 196.979C145.893 196.266 145.358 193.681 144.333 189.181C143.62 186.418 143.308 184.145 143.308 182.407C143.308 175.456 143.308 170.287 143.308 166.811L141.748 146.491C141.748 143.729 141.927 141.456 142.283 139.718C142.283 138.693 141.927 138.158 141.258 138.158V151.17C141.258 152.552 141.08 154.824 140.724 157.944C140.367 161.063 140.189 163.335 140.189 164.717C139.476 168.861 139.164 172.025 139.164 174.075C139.164 181.694 138.451 188.111 137.07 193.325C136.357 194.706 136.357 197.335 137.07 201.123C137.783 207.718 137.604 213.778 136.535 219.348L134.975 228.706C134.975 229.419 134.886 230.444 134.708 231.825C134.53 233.207 134.262 234.232 133.906 234.945C133.906 235.658 133.995 236.593 134.173 237.797C134.351 239 134.44 239.98 134.44 240.648V245.862C134.44 246.575 134.53 247.422 134.708 248.447C134.886 249.471 134.975 250.184 134.975 250.541C134.975 252.279 134.797 253.304 134.44 253.66L129.227 257.804C128.87 257.804 128.425 257.804 127.935 257.804C127.444 257.804 126.464 257.804 125.083 257.804H121.429L119.869 257.27C119.869 255.888 120.047 254.997 120.404 254.685L122.988 252.101C125.395 249.65 126.464 247.243 126.108 244.793C126.108 243.055 126.286 241.852 126.642 241.139C126.999 239.401 126.821 235.925 126.108 230.711C126.108 229.998 125.484 227.057 124.281 221.844C123.077 216.63 122.275 212.486 121.919 209.367C121.562 206.247 121.919 201.39 122.944 194.795C123.3 194.439 123.479 193.681 123.479 192.434C123.479 191.23 123.657 190.25 124.013 189.582C124.37 183.343 123.479 175.545 121.429 166.143C120.404 161.286 119.513 156.428 118.844 151.571C118.844 149.833 118.844 147.249 118.844 143.773C118.844 142.035 119.022 139.54 119.379 136.242C119.735 132.945 119.914 130.449 119.914 128.712V126.617C119.914 121.76 120.627 117.259 122.008 113.071L123.033 103.713C123.033 103.356 123.122 102.599 123.3 101.351C123.479 100.148 123.568 99.1678 123.568 98.4993C122.855 92.6173 122.364 88.0721 122.008 84.9528C120.627 79.0708 119.557 74.5256 118.889 71.4063V69.8467C117.507 72.6095 115.413 76.7982 112.65 82.3238C111.937 83.3487 110.734 85.0865 108.996 87.5374C107.258 89.9882 106.055 91.6815 105.342 92.751C104.986 93.464 104.317 94.6671 103.248 96.405C102.223 98.1429 101.332 99.346 100.663 100.059C100.663 100.415 98.7472 103 94.9596 107.857C89.0775 114.809 85.6018 119.309 84.5323 121.404C84.1758 121.76 83.9085 122.518 83.7302 123.765C83.552 124.968 83.2846 125.949 82.9281 126.617C82.5717 127.999 81.9478 130.093 81.1011 132.856C80.2099 135.619 79.6306 137.713 79.2742 139.094C78.9177 139.451 78.6503 139.896 78.4721 140.387C78.2938 140.921 78.2047 141.367 78.2047 141.679C78.2047 142.035 78.0265 142.303 77.67 142.481C77.3135 142.659 76.957 142.748 76.6451 142.748V141.189C76.6451 140.476 76.6451 139.54 76.6451 138.337C76.6451 137.134 76.6451 136.331 76.6451 135.975C76.6451 136.688 76.3777 137.713 75.843 139.094C75.3082 140.476 74.8626 141.679 74.5507 142.748C74.5507 144.486 73.8377 145.333 72.4563 145.333C72.0999 145.333 71.9216 144.798 71.9216 143.773C72.6346 141.367 73.1248 139.451 73.4812 138.069C72.0999 141.189 71.0304 143.283 70.362 144.308C69.649 145.333 69.1588 145.868 68.8024 145.868C68.4459 145.511 68.2676 144.843 68.2676 143.773L69.9164 138.782C69.5599 139.139 69.3816 139.584 69.3816 140.075C69.3816 140.565 69.2034 140.877 68.8469 140.877C68.1339 141.59 67.6438 141.902 67.2873 141.902C66.9754 141.545 66.7971 140.832 66.7971 139.807C67.1536 139.094 67.6438 137.624 68.3567 135.396C69.0697 133.123 69.5599 131.474 69.9164 130.449C68.535 130.449 68.3567 129.603 69.3816 127.865C69.7381 127.508 70.0946 127.018 70.4065 126.305C70.763 125.592 71.1195 125.013 71.4314 124.478C71.7879 123.944 72.2781 123.543 72.9911 123.186C75.7538 121.092 78.6949 116.769 81.8587 110.174C85.3344 103.223 87.5625 98.9004 88.6319 97.1625C88.6319 96.806 90.7263 93.6868 94.8705 87.8047C95.5834 87.0918 96.4301 85.9777 97.455 84.4181C98.4799 82.8585 99.1929 81.7445 99.5493 81.0315C103.025 75.1495 106.323 68.198 109.442 60.2216C111.536 53.9831 115.859 49.9726 122.454 48.2347C125.929 47.5217 129.762 45.8284 133.906 43.0211C134.619 41.9962 135.109 40.9267 135.465 39.9018V36.2478C135.465 35.8913 135.376 35.5349 135.198 35.2229C135.02 34.8665 134.931 34.51 134.931 34.198C134.931 33.8416 134.752 33.1731 134.396 32.1037C134.039 31.0788 133.861 30.3658 133.861 30.0093H133.326C132.302 29.6528 131.41 28.3606 130.742 26.088C130.029 23.8154 130.029 22.3449 130.742 21.6764L131.277 21.1417C131.633 21.1417 131.99 21.1417 132.302 21.1417C131.589 16.9976 132.123 13.7 133.861 11.2492C135.243 8.84292 137.693 7.28329 141.169 6.57031H142.729C144.467 6.57031 145.67 6.74856 146.383 7.10504C149.146 7.81802 151.24 9.37765 152.621 11.7839C154.716 14.9032 155.206 18.2007 154.181 21.6764L155.741 22.2112C156.454 22.9241 156.454 24.3055 155.741 26.3553C155.028 28.4497 154.181 29.8311 153.156 30.4995H152.621C152.621 31.5244 152.265 32.9503 151.596 34.6436C149.859 39.1443 150.705 42.2636 154.181 44.0014C160.063 47.1207 163.539 48.8586 164.608 49.215C171.203 50.9529 175.704 55.2753 178.155 62.2268C180.561 70.2032 184.393 78.1796 189.607 86.156C189.963 86.869 190.81 87.8939 192.191 89.2752C193.573 90.6566 194.464 91.8598 194.776 92.9292C195.533 95.0682 197.94 100.415 202.128 109.105Z" fill="#8E2E2C"/>
<path d="M254.395 62.2897C254.93 62.8253 255.37 63.2487 255.707 63.551C256.043 63.8534 256.509 64.3113 257.122 64.9161C257.735 65.5208 258.192 66.0564 258.538 66.5316C258.874 67.0068 259.245 67.577 259.642 68.2508C260.048 68.9247 260.333 69.5294 260.497 70.0651C260.661 70.6007 260.747 71.2055 260.747 71.8793C260.747 72.5532 260.609 73.1925 260.342 73.7973C259.668 75.4128 258.659 76.4582 257.321 76.9247C256.846 77.1234 256.311 77.2271 255.707 77.2271C254.093 77.2271 252.142 76.5878 249.864 75.3092C247.715 74.0997 245.427 72.2163 243.011 69.659C243.278 70.1947 243.511 70.7649 243.718 71.3783C244.461 73.5986 244.892 74.8081 245.03 75.0068C245.099 75.145 245.419 75.7325 245.988 76.7692C246.558 77.8146 246.877 78.3675 246.946 78.4366C247.084 78.5748 247.084 78.6871 246.946 78.7908C246.808 78.8945 246.679 78.8426 246.541 78.6353C246.135 78.0997 245.738 77.5727 245.332 77.0716C244.927 76.5705 244.625 76.199 244.426 75.9658C244.228 75.7325 244.09 75.4819 244.021 75.2055L243.114 72.3804C242.579 71.7757 242.208 71.2746 242.01 70.8685C241.94 70.6698 241.82 70.1601 241.656 69.3567C241.483 68.5532 241.371 67.9744 241.302 67.6374C240.767 66.9636 240.361 66.3588 240.093 65.8232C239.619 67.4387 239.187 68.5446 238.782 69.1493C237.703 70.834 236.762 71.7066 235.959 71.7757C235.761 71.8448 235.424 71.8793 234.949 71.8793C234.475 71.8793 234.147 71.8448 233.94 71.7757C233.137 71.7066 232.188 70.834 231.117 69.1493C230.712 68.5446 230.28 67.4301 229.805 65.8232C229.538 66.3588 229.132 66.9636 228.597 67.6374C228.528 67.9744 228.407 68.5446 228.243 69.3567C228.071 70.1601 227.958 70.6698 227.889 70.8685L226.785 72.3804C226.31 73.7973 226.008 74.739 225.878 75.2055C225.809 75.4733 225.68 75.7238 225.473 75.9658C225.274 76.199 224.972 76.5705 224.566 77.0716C224.161 77.5727 223.764 78.0997 223.358 78.6353C223.22 78.834 223.091 78.8858 222.952 78.7908C222.814 78.6871 222.814 78.5748 222.952 78.4366C223.021 78.3675 223.341 77.8146 223.91 76.7692C224.48 75.7238 224.799 75.1364 224.869 75.0068C225.007 74.8081 225.438 73.5899 226.18 71.3783C226.319 70.9722 226.552 70.402 226.888 69.659C224.471 72.2163 222.184 74.0997 220.035 75.3092C217.748 76.5878 215.797 77.2271 214.192 77.2271C213.657 77.2271 213.113 77.1234 212.578 76.9247C211.232 76.4496 210.222 75.4128 209.557 73.7973C209.29 73.1925 209.152 72.5532 209.152 71.8793C209.152 71.2055 209.238 70.6007 209.402 70.0651C209.566 69.5294 209.859 68.9247 210.256 68.2508C210.662 67.577 211.025 67.0068 211.361 66.5316C211.698 66.0651 212.164 65.5208 212.777 64.9161C213.389 64.3113 213.847 63.8534 214.192 63.551C214.529 63.2487 214.96 62.8253 215.504 62.2897C216.039 61.7541 216.41 61.4171 216.609 61.2789C217.549 60.3372 219.932 58.3847 223.764 55.4301C223.229 55.4301 222.823 55.3955 222.555 55.3264C222.357 55.2573 222.038 55.0067 221.597 54.5661C221.157 54.1255 220.872 53.78 220.743 53.5035C220.674 53.3653 220.553 53.253 220.389 53.1493C220.216 53.0456 220.035 52.9506 219.837 52.8469C219.638 52.7432 219.5 52.6655 219.431 52.5964C219.163 52.3977 219.163 52.2594 219.431 52.1903C219.5 52.1212 219.664 52.1212 219.932 52.1903C220.268 52.3286 221.313 53.0283 223.056 54.307C223.194 54.3761 223.375 54.4106 223.608 54.4106C223.841 54.4106 224.074 54.4106 224.316 54.4106C224.549 54.4106 224.774 54.4106 224.972 54.4106C226.042 53.6072 227.294 52.6655 228.701 51.5856C228.701 51.2486 228.701 51.0499 228.701 50.9808L228.502 48.7605C228.096 48.2249 227.699 47.9225 227.294 47.8534C227.095 47.7843 226.759 47.1795 226.284 46.0391C226.215 45.7022 226.163 45.2789 226.129 44.7778C226.094 44.2767 226.025 43.957 225.93 43.8188C225.827 43.6806 225.775 43.4819 225.775 43.2141C225.775 42.9462 225.809 42.713 225.878 42.5056V42.2033C225.542 42.0046 225.24 41.6331 224.972 41.0974C224.299 39.6201 222.892 37.8318 220.734 35.7497C220.536 35.4819 220.484 35.2832 220.579 35.1449C220.683 35.0067 220.864 35.0067 221.131 35.1449C221.399 35.214 222.271 36.0693 223.755 37.7195C225.231 39.3696 226.008 40.294 226.077 40.4927C226.077 40.5618 226.215 40.7778 226.482 41.1493C226.75 41.5208 226.888 41.875 226.888 42.2119C226.957 42.4106 227.069 42.7821 227.242 43.3177C227.406 43.8534 227.561 44.3976 227.699 44.9333C227.838 45.4689 227.932 45.7713 228.002 45.8404C228.002 45.9095 228.105 45.9959 228.304 46.091C228.502 46.186 228.744 46.281 229.011 46.3415L229.313 46.4452C229.313 46.2465 229.313 46.0046 229.313 45.7367C229.175 45.5985 229.08 45.3653 229.011 45.0283C228.942 44.6223 228.908 44.2853 228.908 44.0175C228.908 43.7497 229.011 43.4473 229.21 43.1104C229.408 42.7735 229.598 42.5229 229.762 42.3501C229.926 42.186 230.133 41.9959 230.366 41.7972C230.599 41.5985 230.72 41.4603 230.72 41.3912C230.858 41.2529 231.16 41.1579 231.627 41.0888C231.091 40.6827 230.686 40.3458 230.418 40.078C230.082 39.6719 229.745 39.1709 229.408 38.5661C229.339 38.3674 229.339 38.2119 229.408 38.1082C229.477 38.0045 229.572 37.9268 229.71 37.8577L229.909 37.754C230.781 38.6266 231.221 39.3004 231.221 39.7756C231.221 40.1125 231.557 40.4495 232.231 40.7864C232.567 40.5877 232.869 40.484 233.137 40.484L234.751 40.5877H234.854H235.053L236.771 40.484C237.107 40.5531 237.409 40.6568 237.677 40.7864C238.35 40.4495 238.687 40.1125 238.687 39.7756C238.687 39.5769 238.807 39.3091 239.04 38.9722C239.274 38.6352 239.498 38.3674 239.696 38.1687L239.999 37.7626C240.068 37.7626 240.154 37.7972 240.249 37.8663C240.352 37.9354 240.43 38.0218 240.499 38.1169C240.568 38.2205 240.568 38.3674 240.499 38.5747C240.162 39.1795 239.826 39.6806 239.489 40.0866C239.222 40.3544 238.816 40.6568 238.281 40.9938C238.747 41.132 239.049 41.2616 239.187 41.3998C239.256 41.4689 239.386 41.5985 239.593 41.8059C239.8 42.0132 239.981 42.1946 240.145 42.3588C240.309 42.5316 240.516 42.7821 240.749 43.119C240.982 43.456 241.103 43.7583 241.103 44.0262C241.103 44.294 241.069 44.6309 241 45.037C240.862 45.3739 240.732 45.6417 240.594 45.8404V46.4452C241.466 46.1774 241.906 45.9786 241.906 45.8404C241.975 45.7713 242.07 45.4689 242.208 44.9333C242.346 44.3976 242.493 43.862 242.665 43.3177C242.829 42.7821 242.95 42.4106 243.019 42.2119C243.019 41.875 243.157 41.5208 243.425 41.1493C243.693 40.7778 243.831 40.5618 243.831 40.4927C243.9 40.294 244.668 39.3696 246.152 37.7195C247.628 36.0693 248.5 35.214 248.776 35.1449C249.044 35.0067 249.234 35.0067 249.329 35.1449C249.432 35.2832 249.38 35.4819 249.173 35.7497C247.024 37.8318 245.609 39.6201 244.935 41.0974C244.797 41.3652 244.668 41.5899 244.53 41.754C244.392 41.9268 244.262 42.0391 244.124 42.1082L244.021 42.2119C244.219 42.9549 244.219 43.4905 244.021 43.8275C243.882 43.9657 243.805 44.2853 243.77 44.7864C243.736 45.2875 243.684 45.7108 243.615 46.0478C243.209 47.1882 242.873 47.8015 242.605 47.862C242.407 47.9311 242.199 48.0348 242.001 48.1644C241.802 48.3026 241.664 48.4322 241.595 48.5704L241.397 48.7692C241.259 50.1169 241.198 50.8512 241.198 50.9895C241.198 51.1277 241.198 51.3264 241.198 51.5942C242.407 52.5359 243.649 53.4776 244.927 54.4193C245.125 54.4193 245.35 54.4193 245.583 54.4193C245.816 54.4193 246.049 54.4193 246.29 54.4193C246.523 54.4193 246.696 54.402 246.791 54.3674C246.895 54.3329 247.162 54.1514 247.594 53.8145C248.034 53.4776 248.483 53.1579 248.957 52.8556C249.423 52.5532 249.76 52.3372 249.967 52.199C250.373 52.0003 250.606 52.0348 250.675 52.3026C250.675 52.4409 250.606 52.5359 250.476 52.605C250.407 52.6741 250.278 52.7605 250.071 52.8556C249.864 52.9506 249.682 53.0543 249.518 53.1579C249.346 53.2616 249.234 53.3739 249.165 53.5121C249.026 53.78 248.742 54.1342 248.31 54.5748C247.87 55.0154 247.551 55.2659 247.352 55.335C247.084 55.4042 246.679 55.4387 246.144 55.4387C249.976 58.402 252.358 60.3458 253.299 61.2875C253.489 61.4862 253.86 61.8232 254.395 62.2897ZM216.289 63.2055C216.091 63.3437 215.582 63.7584 214.779 64.4668C213.976 65.1752 213.381 65.7281 213.018 66.1256C212.647 66.5316 212.164 67.05 211.56 67.6893C210.955 68.3286 210.498 68.9679 210.196 69.6072C209.894 70.2465 209.704 70.8685 209.644 71.4733C210.576 70.4711 211.214 69.7973 211.551 69.4603C212.293 68.7174 213.838 67.5078 216.186 65.8318C217.196 65.0888 222.063 60.4495 230.807 51.9052C230.668 51.8361 230.539 51.767 230.401 51.7065C230.133 51.9052 229.141 52.6655 227.423 53.9787C225.706 55.2918 223.764 56.821 221.58 58.5661C219.397 60.3199 217.964 61.5294 217.299 62.1947C217.161 62.3934 216.824 62.7303 216.289 63.2055ZM209.937 73.2962C210.136 73.901 210.541 74.5057 211.145 75.1105C211.482 74.5748 211.784 74.1342 212.052 73.7973C212.457 73.2616 213.467 72.2508 215.072 70.7735C215.211 70.7044 216.013 70.0651 217.489 68.8556C218.965 67.6461 219.776 66.9377 219.906 66.7389C221.321 65.1234 222.055 64.2163 222.124 64.0176C222.322 63.6806 222.322 63.2141 222.124 62.6007C221.925 61.9873 221.684 61.6936 221.416 61.6936C221.347 61.6936 220.959 62.0132 220.26 62.6525C219.552 63.2919 218.81 63.983 218.041 64.7173C217.265 65.4603 216.781 65.9269 216.583 66.1342C216.384 66.2724 215.927 66.6266 215.219 67.1968C214.511 67.767 213.838 68.294 213.2 68.7606C212.561 69.2357 212.172 69.5381 212.043 69.6677C211.706 69.8664 210.904 70.6785 209.626 72.0867C209.704 72.4841 209.808 72.8902 209.937 73.2962ZM229.098 63.3005C230.306 59.8707 231.014 57.4171 231.212 55.9312C231.212 55.6633 231.247 55.361 231.316 55.024C231.316 54.8858 231.333 54.6871 231.368 54.4193C231.402 54.1514 231.437 53.9182 231.471 53.7108C231.506 53.5121 231.488 53.2702 231.419 53.0024C231.35 52.7346 231.247 52.5013 231.117 52.294C230.919 52.5618 230.643 52.8296 230.315 53.0975C230.047 53.3653 229.495 53.9527 228.649 54.8599C227.812 55.767 227.32 56.2594 227.19 56.3199C226.923 56.5877 226.888 57.0975 227.087 57.8318C227.087 57.97 226.914 58.6698 226.586 59.9484C226.249 61.0284 225.507 62.3329 224.368 63.888C223.358 65.3653 222.452 66.4798 221.649 67.2141C221.58 67.3523 221.261 67.7325 220.691 68.3718C220.122 69.0111 219.664 69.469 219.327 69.7368C218.723 70.2724 218.352 70.5402 218.223 70.5402L217.817 70.739L218.016 70.4366C218.154 70.2983 218.438 70.0133 218.87 69.5813C219.31 69.1407 219.776 68.6742 220.285 68.1644C220.795 67.6547 221.14 67.3091 221.347 67.1018C221.615 66.834 222.089 66.2638 222.763 65.3826C223.436 64.51 223.772 64.0348 223.772 63.9657C224.515 63.1623 225.188 61.9787 225.792 60.4322C226.327 59.0845 226.595 58.3156 226.595 58.1083C226.396 57.4344 226.258 57.0975 226.189 57.0975C225.991 57.0975 225.412 57.6158 224.471 58.6612C223.513 59.7584 222.944 60.4754 222.745 60.8815C222.478 61.3566 222.443 61.7195 222.642 61.9873C222.711 62.0564 222.78 62.091 222.84 62.091C223.039 62.3588 222.944 63.1363 222.538 64.415C222.271 65.158 221.528 65.9614 220.32 66.834C220.122 66.9722 219.345 67.6115 217.998 68.7519C216.652 69.8923 215.884 70.5316 215.677 70.6698C215.478 70.8081 214.934 71.3264 214.063 72.2336C213.191 73.1407 212.647 73.6936 212.449 73.901C212.043 74.2379 211.706 74.739 211.439 75.4128C211.706 75.6115 212.345 75.8189 213.355 76.0176C214.158 76.2854 215.133 76.2854 216.281 76.0176C216.419 75.8189 216.764 75.5165 217.342 75.1105C217.912 74.7044 218.266 74.402 218.404 74.2033C220.147 72.0521 221.295 70.7735 221.83 70.3675C222.029 70.2292 223.142 69.1234 225.153 67.0413C225.015 67.3783 224.463 68.0521 223.488 69.0629C222.512 70.0737 222.029 70.6094 222.029 70.6785C221.891 70.8772 221.356 71.5338 220.415 72.6482C219.474 73.7541 218.905 74.4107 218.697 74.618C218.43 74.8858 218.223 75.0932 218.093 75.2228C218.835 74.9549 219.569 74.618 220.311 74.212C221.994 73.2703 223.738 71.6029 225.55 69.2184C227.38 66.8167 228.554 64.8469 229.098 63.3005ZM225.162 67.0327C225.3 66.6266 225.464 66.3934 225.663 66.3243L225.559 66.6266C225.499 66.7044 225.36 66.834 225.162 67.0327ZM229.9 45.5467L229.702 46.3501C230.038 47.4301 231.782 47.9139 234.941 47.8102C238.1 47.7065 239.843 47.2227 240.18 46.3501C240.18 46.281 240.111 46.0132 239.981 45.5467C238.842 44.8728 238.203 44.4408 238.065 44.2335C238.065 44.1644 237.944 43.983 237.711 43.6806C237.478 43.3782 237.271 43.0586 237.107 42.7216C236.935 42.3847 236.891 42.0478 236.952 41.7108C236.348 41.5121 235.813 41.443 235.338 41.5121C235.2 41.6503 235.036 41.6503 234.837 41.5121C234.639 41.6503 234.501 41.6503 234.432 41.5121C234.026 41.443 233.56 41.5121 233.016 41.7108C233.085 41.9786 233.033 42.2983 232.861 42.6698C232.688 43.0413 232.472 43.3782 232.205 43.6806C231.937 43.983 231.799 44.173 231.799 44.2335C231.678 44.4322 231.04 44.8728 229.9 45.5467ZM237.263 68.4495C237.867 67.9139 238.678 66.8685 239.679 65.3221L239.576 65.1234C239.437 65.3221 239.222 65.564 238.92 65.8318C238.618 66.0996 238.048 66.402 237.202 66.7389C236.365 67.0759 235.605 67.1104 234.932 66.8426C234.259 67.1104 233.534 67.0932 232.766 66.7908C231.989 66.4884 231.368 66.1342 230.902 65.7281L230.297 65.1234L230.194 65.3221C231.264 66.8685 232.075 67.9139 232.61 68.4495C232.947 68.7865 233.62 68.821 234.63 68.5532H235.234C236.253 68.821 236.926 68.7865 237.263 68.4495ZM239.075 63.4042C238.402 63.5424 237.021 63.577 234.941 63.5078C232.861 63.577 231.48 63.5424 230.807 63.4042C230.738 63.7411 230.634 64.078 230.504 64.415C231.575 65.158 232.49 65.5554 233.223 65.6245C233.361 65.6245 233.525 65.6245 233.724 65.6245C233.793 65.6245 233.862 65.6245 233.922 65.6245L234.63 65.4258C234.699 65.4949 234.794 65.5294 234.932 65.5294L235.234 65.4258C235.502 65.4949 235.735 65.564 235.942 65.6245C236.011 65.6245 236.08 65.6245 236.14 65.6245C236.339 65.6245 236.512 65.6245 236.641 65.6245C237.383 65.5554 238.29 65.158 239.36 64.415C239.239 64.078 239.144 63.7411 239.075 63.4042ZM256.311 76.32C257.183 76.1817 257.856 75.9139 258.331 75.5165C258.063 74.713 257.726 74.1342 257.321 73.7973C257.122 73.659 256.578 73.1234 255.707 72.1817C254.835 71.24 254.291 70.7217 254.093 70.618C253.894 70.5143 253.117 69.875 251.771 68.7001C250.425 67.5251 249.656 66.8685 249.449 66.7303C248.241 65.8577 247.499 65.0456 247.231 64.3113C246.826 63.0327 246.731 62.2638 246.929 61.9873L247.033 61.8836C247.3 61.6158 247.3 61.2443 247.033 60.7778C246.834 60.3718 246.239 59.6547 245.272 58.6093C244.297 57.564 243.744 57.0283 243.606 56.9938C243.468 56.9592 243.373 57.1839 243.304 57.6504C243.304 57.8491 243.27 57.9873 243.201 58.0564C243.201 58.2551 243.468 59.0327 244.003 60.3804C244.607 61.9268 245.246 63.1018 245.919 63.9139C245.988 63.983 246.342 64.4495 246.981 65.3307C247.62 66.2033 248.103 66.8081 248.44 67.145C248.578 67.2832 248.906 67.6029 249.449 68.104C249.984 68.605 250.476 69.0802 250.908 69.5208C251.348 69.9614 251.633 70.2465 251.762 70.3761C251.901 70.5143 251.961 70.6094 251.961 70.6785L251.46 70.5748C251.391 70.5057 251.055 70.2033 250.451 69.6677C250.114 69.3999 249.656 68.942 249.087 68.3027C248.517 67.6634 248.163 67.2746 248.025 67.145C247.283 66.402 246.411 65.3307 245.401 63.9139C244.262 62.2983 243.52 60.9506 243.183 59.8793C242.778 58.6007 242.614 57.8923 242.683 57.7627C242.881 57.0197 242.821 56.5186 242.484 56.2508C242.415 56.1817 241.966 55.6979 241.121 54.7908C240.283 53.8836 239.722 53.3307 239.455 53.1234C239.187 52.8556 238.92 52.5877 238.652 52.3199C238.454 52.726 238.419 53.6331 238.549 55.0413C238.618 55.3091 238.652 55.6115 238.652 55.9484C238.851 57.6331 239.558 60.1558 240.767 63.5165C241.302 65.0629 242.45 66.9809 244.193 69.2703C245.937 71.5597 247.689 73.1752 249.432 74.1169C250.105 74.523 250.779 74.8599 251.452 75.1277C251.383 75.0586 251.314 74.9636 251.253 74.8254C251.184 74.6871 251.115 74.5921 251.055 74.523C250.856 74.3243 250.261 73.6677 249.294 72.5532C248.319 71.4474 247.801 70.7908 247.732 70.5834C247.663 70.5143 247.162 69.996 246.221 69.0197C245.281 68.0435 244.746 67.3869 244.607 67.05C246.627 69.132 247.697 70.2465 247.835 70.3761C248.509 70.7822 249.682 72.0608 251.365 74.212C251.702 74.618 252.272 75.2228 253.083 76.0262C254.498 76.3545 255.569 76.4496 256.311 76.32ZM252.082 61.8923C251.409 61.2184 250.019 60.0435 247.896 58.3588C245.781 56.6741 243.917 55.1968 242.303 53.9182C240.689 52.6396 239.748 51.8966 239.481 51.6979C239.343 51.767 239.213 51.8361 239.075 51.8966C247.74 60.3718 252.582 64.9852 253.592 65.7195C255.94 67.4042 257.485 68.6137 258.227 69.348C258.9 70.091 259.573 70.7994 260.247 71.4647C260.178 70.8599 259.979 70.2379 259.642 69.5986C259.306 68.9593 258.84 68.3027 258.227 67.6288C257.623 66.9549 257.088 66.3847 256.613 65.9096C256.138 65.443 255.508 64.8469 254.697 64.1471C253.886 63.4474 253.385 63.024 253.187 62.8858C252.651 62.4279 252.28 62.091 252.082 61.8923ZM244.219 66.5316L244.115 66.3329C244.314 66.402 244.487 66.6007 244.616 66.9377V67.0413C244.418 66.7649 244.279 66.6007 244.219 66.5316ZM258.728 75.1105C259.263 74.5057 259.668 73.9355 259.936 73.3912C260.074 72.9852 260.169 72.5878 260.238 72.1817C258.961 70.6353 258.123 69.7627 257.718 69.5554C257.58 69.4863 257.2 69.2012 256.561 68.7001C255.923 68.199 255.249 67.6547 254.542 67.0845C253.834 66.5143 253.385 66.1601 253.178 66.0219C252.979 65.8232 252.487 65.3653 251.719 64.6569C250.943 63.9484 250.209 63.2746 249.501 62.6353C248.793 61.996 248.405 61.6417 248.345 61.5726C248.077 61.5726 247.844 61.875 247.637 62.4798C247.43 63.0845 247.438 63.5597 247.637 63.8966C247.706 64.1644 248.405 65.0716 249.751 66.618C249.95 66.8167 250.796 67.5251 252.272 68.7346C253.748 69.9441 254.559 70.618 254.688 70.7562C256.302 72.1731 257.312 73.1752 257.709 73.78C258.054 74.2033 258.391 74.6353 258.728 75.1105Z" fill="#8E2E2C" fill-opacity="0.45"/>
<path d="M226.687 232.147C226.59 232.147 226.494 232.147 226.494 232.147C225.139 232.147 223.688 231.761 222.141 230.89C220.593 230.116 219.625 228.859 219.238 227.214C218.948 224.699 218.948 221.41 219.142 217.25C219.432 213.091 219.722 210.285 220.012 208.641C220.689 204.772 221.56 201.773 222.721 199.838C222.431 199.064 222.431 198.097 222.818 196.936C223.011 196.259 223.398 195.001 224.075 193.067C224.752 191.132 225.623 188.617 226.784 185.715C227.945 182.716 228.912 180.781 229.686 179.911C231.04 178.266 232.781 177.396 235.103 177.396C235.587 177.396 235.877 177.396 236.167 177.492C238.585 178.17 240.23 179.137 241.004 180.588C241.487 181.459 241.681 182.813 241.681 184.651C241.681 186.199 240.133 191.519 237.134 200.612L236.651 201.87C236.457 202.547 236.07 203.127 235.393 203.708C235.587 204.675 235.393 206.706 235.103 209.802L235.006 210.576C234.426 215.799 233.942 220.539 233.652 224.892C233.458 227.214 232.685 228.955 231.234 230.213C229.879 231.47 228.332 232.147 226.687 232.147ZM224.656 199.451C224.946 199.741 224.946 200.032 224.656 200.419C224.172 200.999 223.785 201.386 223.688 201.579C223.495 201.87 223.301 202.16 223.011 202.643C222.721 203.127 222.431 203.611 222.237 204.288C222.044 204.868 221.754 205.545 221.56 206.319C221.27 207.093 221.076 207.964 220.883 208.931C220.689 209.899 220.593 210.963 220.496 212.22C219.819 219.379 219.916 224.215 220.689 226.827C221.463 229.632 223.495 231.083 226.687 231.277H226.784C227.848 231.277 229.009 230.696 230.169 229.536C231.33 228.375 232.007 226.827 232.201 224.989C232.298 222.958 232.394 221.12 232.685 219.185C232.975 217.347 233.168 215.606 233.458 214.058C233.749 212.51 233.845 211.543 233.942 211.059L234.039 210.189C234.232 207.867 234.232 205.836 233.942 204.094C233.845 203.901 233.845 203.804 233.845 203.611C233.845 203.321 233.942 203.127 234.039 202.934C234.716 202.353 235.103 201.773 235.296 201.289L235.587 200.032C238.489 191.035 240.036 185.908 240.036 184.554C240.133 183.49 240.133 182.619 239.94 182.136C239.843 181.652 239.456 181.072 238.779 180.395C238.102 179.814 237.134 179.234 235.78 178.944C235.587 178.944 235.296 178.944 235.103 178.944H235.006C233.265 178.944 231.814 179.524 230.847 180.781C229.686 182.426 227.654 187.94 224.656 197.517C224.365 198.387 224.365 199.064 224.656 199.451ZM255.03 231.18C252.515 231.18 249.323 230.793 245.55 230.116C240.327 229.052 237.038 227.794 235.587 226.15C234.232 224.505 233.652 222.474 234.039 219.959C234.426 217.928 235.393 216.573 236.941 215.703C238.295 214.929 239.843 214.639 241.681 214.639C243.132 214.639 244.873 214.832 246.905 215.316L247.001 215.412C247.872 215.606 249.903 215.993 253.096 216.38C256.288 216.767 258.706 216.96 260.351 216.96C260.544 216.96 261.028 216.96 261.705 216.96C262.189 216.96 262.672 216.96 263.059 216.96C267.025 216.96 269.734 218.024 271.088 220.056C272.249 221.894 272.539 223.828 271.862 225.763C271.572 226.634 270.991 227.504 270.218 228.278C269.444 229.052 268.67 229.536 267.799 229.923C265.574 230.793 262.092 231.277 257.255 231.277C256.288 231.277 255.707 231.277 255.514 231.374C255.32 231.18 255.127 231.18 255.03 231.18ZM242.165 215.799C240.036 215.799 238.392 216.09 237.231 216.767C236.07 217.444 235.296 218.508 235.006 220.056C234.716 222.087 235.103 223.635 236.264 224.892C237.425 226.247 240.133 227.407 244.486 228.472C248.742 229.536 251.935 230.116 254.063 230.116C254.256 230.116 254.353 230.116 254.353 230.116C254.643 230.019 255.224 230.019 256.191 230.019C261.511 230.019 265.381 229.536 267.509 228.665C268.283 228.375 268.863 227.891 269.54 227.214C270.121 226.537 270.604 225.86 270.895 225.086C271.378 223.345 271.185 221.7 270.314 220.346C269.734 219.475 268.863 218.895 267.799 218.701C266.735 218.508 265.091 218.411 263.059 218.411C262.866 218.411 262.382 218.411 261.705 218.411C261.221 218.411 260.834 218.411 260.351 218.411C256.868 218.411 252.709 217.831 247.775 216.67L247.582 216.573C245.454 216.09 243.616 215.799 242.165 215.799ZM257.255 217.541C258.803 217.541 260.254 217.057 261.511 216.186C262.866 215.219 263.64 214.058 263.833 212.51C264.123 210.672 263.253 206.997 261.124 201.579C260.738 200.515 260.544 199.838 260.351 199.354C259.19 196.162 257.836 191.809 256.288 186.392C255.32 183.2 254.74 181.362 254.547 180.878C253.096 178.557 251.161 177.396 248.839 177.396C247.582 177.396 246.324 177.783 245.067 178.653C243.132 179.524 242.165 181.555 242.165 184.748C242.261 186.972 242.842 190.552 244.002 195.582C245.163 200.612 246.131 203.901 247.001 205.642V205.836C250.097 212.22 252.612 215.896 254.547 216.96C255.32 217.347 256.288 217.541 257.255 217.541ZM245.357 179.427H245.454C246.421 178.847 247.582 178.557 249.129 178.557C250.871 178.557 252.322 179.717 253.579 181.942C253.676 182.039 253.773 182.329 253.869 182.813C253.966 183.297 254.063 183.974 254.256 184.748C254.45 185.521 254.547 186.295 254.837 186.972C256.385 192.39 257.739 196.743 258.9 200.128C259.093 200.612 259.383 201.386 259.77 202.353C261.802 207.48 262.672 210.866 262.382 212.51C262.189 213.478 261.705 214.348 260.641 215.025C259.673 215.799 258.513 216.09 257.255 216.09C256.481 216.09 255.901 215.896 255.224 215.509C253.096 214.445 250.774 211.253 248.259 206.126L248.162 205.932C247.388 204.094 246.324 200.902 245.067 196.356C243.809 191.809 243.132 188.52 243.132 186.586C243.132 184.844 243.325 183.393 243.712 182.136C244.099 180.975 244.389 180.201 244.68 180.008C244.873 179.621 245.067 179.524 245.357 179.427Z" fill="#8E2E2C" fill-opacity="0.8"/>
<path d="M84.967 172.75C84.8351 173.26 84.6704 174.002 84.4891 174.958C84.3078 175.913 84.1101 176.754 83.9123 177.462C83.7146 178.171 83.6157 178.583 83.6157 178.715C83.6157 181.022 84.7692 185.389 87.0763 191.799C88.0979 195.012 88.6417 198.028 88.7077 200.846C88.7736 203.664 88.411 206.037 87.653 207.965C86.895 209.893 86.2358 211.31 85.725 212.2C85.2142 213.106 84.7033 213.864 84.1925 214.507C83.9288 214.77 83.4509 215.116 82.7424 215.561C82.0338 216.006 81.2593 216.501 80.4353 217.011C79.5949 217.522 78.771 218 77.9306 218.462C77.0901 218.906 76.4145 219.269 75.9037 219.516L74.9479 220.093C71.0919 223.553 68.9826 225.481 68.6036 225.86C68.3399 226.124 67.1205 226.816 64.9453 227.97C62.7701 229.123 61.5507 229.7 61.287 229.7C61.1552 229.832 60.8092 230.277 60.2324 231.051C59.6556 231.826 59.0459 232.716 58.4033 233.754C57.7606 234.775 57.3157 235.352 57.052 235.484L55.5195 237.214L56.4753 245.487C56.4753 245.997 57.3157 247.794 58.98 250.875C59.6227 251.518 60.4466 251.963 61.4848 252.226C63.0173 252.358 63.8577 252.424 63.9896 252.424C64.1214 252.556 64.3027 252.622 64.5663 252.622C66.7415 252.358 67.9609 252.243 68.2246 252.243C68.4882 252.375 68.6695 252.556 68.8013 252.82C69.065 252.82 69.2463 252.82 69.3781 252.82L69.9549 253.594L69.1804 253.396C68.9167 253.396 68.6695 253.396 68.4059 253.396L65.5221 253.594H65.1431V253.792L66.6756 253.99C66.9392 253.99 67.3842 253.99 68.0268 253.99L68.8013 254.764H68.2246C68.0928 254.764 67.895 254.764 67.6478 254.764L67.8456 254.962C65.7857 254.962 64.451 254.962 63.8083 254.962C63.2974 254.83 62.5229 254.632 61.5013 254.385C59.7051 254.006 58.6834 253.742 58.4197 253.611L58.222 253.413H58.0243V253.792L57.6452 253.594H56.1127C55.9809 253.594 55.536 253.594 54.7615 253.594L54.9592 253.792C55.6019 253.924 56.0468 253.924 56.3105 253.792C56.4423 253.792 56.6565 253.825 56.9861 253.891C57.2992 253.957 57.5299 253.99 57.6617 253.99L58.6175 254.764C58.1066 254.632 57.7771 254.632 57.6617 254.764C57.1509 255.028 56.64 255.143 56.1292 255.143C55.8655 255.143 55.4206 255.077 54.7779 254.945L50.3452 254.566C49.3235 254.303 48.6149 254.122 48.2359 253.99C47.9722 253.99 47.725 253.924 47.4614 253.792C46.0442 253.792 45.2862 253.792 45.1544 253.792C45.0225 253.66 44.5776 253.594 43.8031 253.594C43.0286 253.594 42.5837 253.561 42.4519 253.495C42.32 253.429 41.3643 253.462 39.5681 253.594C39.4362 253.594 39.2385 253.594 38.9913 253.594H38.4146C38.4146 253.331 39.1231 252.952 40.5238 252.441C42.32 252.309 43.2758 252.177 43.4076 252.062C43.6713 252.062 44.1821 251.732 44.9401 251.106C45.451 250.595 45.6487 250.2 45.5169 249.952C45.3851 248.799 44.9731 247.167 44.2645 245.042C43.5559 242.932 42.7814 240.873 41.9575 238.879C41.1171 236.885 40.7051 235.83 40.7051 235.698C40.5733 235.319 39.7493 234.644 38.2003 233.671C36.6513 232.699 35.0199 231.743 33.2897 230.788C31.5594 229.832 30.5542 229.222 30.307 228.958C29.5325 228.316 28.2801 226.849 26.5499 224.526C24.8196 222.202 23.8144 220.67 23.5672 219.912C23.4354 219.401 23.5013 218.791 23.765 218.083C24.0286 217.374 24.2758 216.83 24.5395 216.451L25.1162 215.677C22.4137 214.012 20.6175 212.974 19.7277 212.595C18.3105 212.084 17.0911 210.997 16.0694 209.316C15.8057 208.937 15.8057 208.541 16.0694 208.162C16.3331 207.783 16.6462 207.52 17.0252 207.388L17.6019 207.19C15.6739 204.751 14.3886 203.285 13.7459 202.757C12.8396 202.115 12.3946 201.027 12.3946 199.478C12.3946 199.214 12.5924 199.099 12.9714 199.099C13.3504 199.099 13.68 199.099 13.9272 199.099H14.5039C12.4441 198.077 11.0434 197.056 10.2689 196.018C9.24721 194.485 8.4068 192.689 7.76413 190.629C7.6323 190.118 7.6323 189.673 7.76413 189.278C7.89595 188.899 8.02778 188.635 8.14314 188.503L8.52215 188.305L7.99483 186.41C8.12666 186.147 8.30792 185.965 8.57158 185.834C8.83524 185.702 9.14834 185.636 9.52735 185.636H9.90636C9.6427 185.257 9.6427 184.746 9.90636 184.103C10.0382 183.84 10.4172 183.724 11.0599 183.724C11.7025 183.724 12.2793 183.724 12.7901 183.724L13.7459 183.922L17.6019 185.652C17.7338 185.273 17.915 184.977 18.1787 184.779C18.4423 184.581 18.7554 184.548 19.1344 184.68C19.6453 184.812 20.6999 185.521 22.3148 186.789C23.9133 188.075 25.0338 188.783 25.6765 188.899C26.5664 189.278 28.5932 189.574 31.7407 189.772C34.8881 189.97 37.3599 190.003 39.1561 189.871C40.046 189.739 41.2654 189.772 42.8144 189.97C44.3634 190.168 45.6322 190.382 46.6704 190.645L48.2029 190.843C48.4666 190.843 48.8126 190.81 49.2576 190.744C49.7025 190.678 50.51 190.58 51.6635 190.448C52.817 190.316 53.7068 190.283 54.366 190.349C55.0087 190.415 55.8161 190.283 56.7719 189.97C57.7276 189.657 58.8152 189.228 60.0511 188.717C61.2706 188.207 62.1934 187.828 62.836 187.564C63.8577 187.185 64.8629 186.147 65.8187 184.482C66.7745 182.818 67.7467 180.692 68.7025 178.138C69.6582 175.567 70.202 174.233 70.3339 174.101C70.9765 172.568 71.8005 171.085 72.8386 169.668C73.8603 168.251 74.7007 167.229 75.3434 166.586L76.2992 165.433C77.189 164.279 77.8976 163.439 78.4084 162.928L80.1387 162.154C79.8751 161.643 79.6938 161.264 79.562 161C79.2983 160.11 79.3313 159.237 79.6608 158.397C79.9739 157.556 80.3694 157.045 80.8143 156.864C81.2593 156.666 81.6877 156.963 82.0667 157.737C82.3304 157.474 82.5116 157.161 82.6435 156.782C83.1543 156.271 83.5992 156.782 83.9947 158.314C84.1266 158.314 84.3737 158.001 84.7692 157.358C85.7909 158.38 86.4995 159.534 86.8785 160.819C86.8785 161.198 86.7796 161.593 86.5819 161.972C86.3842 162.351 86.1699 162.615 85.9063 162.747L85.5273 162.945L87.6365 165.054C89.3009 165.697 90.2072 166.339 90.339 166.982L87.0598 167.756C85.9392 169.8 85.2306 171.464 84.967 172.75ZM54.366 248.964C54.366 247.546 53.9211 245.371 53.0147 242.422C51.3504 237.676 50.51 235.237 50.51 235.105C47.5603 235.88 46.0113 236.588 45.8959 237.214C45.7641 237.725 45.8959 238.912 46.2749 240.774C46.6539 242.636 46.9176 243.756 47.0494 244.135C47.1812 244.267 47.5273 244.877 48.1041 245.965C48.6808 247.052 49.1917 248.041 49.6366 248.947C50.0815 249.837 50.3122 250.364 50.3122 250.48C50.3122 250.743 50.5429 250.958 50.9878 251.155C51.4328 251.353 51.8612 251.386 52.2402 251.254C52.372 251.254 52.5533 251.188 52.817 251.056C53.7233 250.958 54.2506 250.249 54.366 248.964Z" fill="#8E2E2C" fill-opacity="0.6"/>
<path d="M250.122 254.867C250.216 254.962 250.327 255.072 250.437 255.183C250.532 255.277 250.643 255.467 250.753 255.72C250.848 255.972 250.848 256.256 250.753 256.572C250.643 256.888 250.501 257.03 250.295 257.03C250.09 257.03 249.932 257.077 249.837 257.188C249.727 257.504 249.427 257.346 248.906 256.73C248.906 256.62 248.701 256.493 248.29 256.351C247.88 256.193 247.516 256.114 247.216 256.114L246.759 255.956C246.853 256.572 246.711 257.093 246.301 257.504C245.985 257.709 245.732 257.677 245.527 257.425C245.322 257.172 245.211 256.825 245.211 256.43C245.211 255.814 244.848 255.562 244.138 255.656C243.727 255.656 243.474 255.656 243.364 255.656C243.253 255.656 243.253 255.451 243.364 255.041C243.569 254.835 243.68 254.425 243.68 253.809C243.68 253.193 243.68 252.625 243.68 252.12V251.346C242.543 252.483 241.517 253.399 240.601 254.125C239.369 255.151 238.185 255.814 237.048 256.13C234.475 256.446 232.943 256.793 232.422 257.204C231.396 257.82 229.596 258.435 227.022 259.051C226.296 259.256 223.833 259.509 219.617 259.825C219.207 259.919 218.544 260.204 217.612 260.677C216.681 261.151 215.923 261.467 215.307 261.672C214.691 261.767 213.949 261.704 213.065 261.435C212.196 261.183 211.439 260.946 210.823 260.74L209.891 260.283C208.865 259.667 208.502 258.483 208.818 256.73C209.023 255.293 209.023 254.109 208.818 253.178C208.818 252.972 208.849 252.483 208.897 251.709C208.944 250.936 208.976 250.399 208.976 250.083C208.976 249.767 208.691 249.372 208.123 248.851C207.555 248.346 207.128 248.03 206.812 247.92C206.702 247.825 206.244 246.972 205.423 245.378C204.602 243.783 204.113 242.994 203.955 242.994C203.797 242.994 202.96 242.82 201.413 242.457C199.865 242.094 198.95 241.873 198.634 241.762C193.802 240.736 191.545 241.099 191.845 242.836L192.002 243.152C192.002 243.262 191.971 243.388 191.923 243.53C191.876 243.688 191.766 243.846 191.608 243.988C191.45 244.13 191.276 244.194 191.071 244.146C190.866 244.099 190.613 243.894 190.297 243.53C189.981 243.167 189.729 242.836 189.524 242.536L189.208 242.078C189.208 243.42 188.955 244.194 188.434 244.383C188.024 244.494 187.708 244.178 187.503 243.452C187.503 243.357 187.455 243.246 187.345 243.136L186.887 241.446C186.776 241.446 186.524 241.62 186.113 241.983C185.703 242.346 185.339 242.425 185.039 242.22C184.518 241.809 185.087 240.625 186.729 238.667C186.934 238.352 187.171 237.815 187.424 237.041C187.676 236.268 187.803 235.841 187.803 235.731C187.803 235.636 187.881 235.368 188.039 234.957C188.197 234.547 188.403 234.026 188.655 233.41C188.908 232.794 189.097 232.226 189.192 231.72C189.602 230.284 190.676 229.21 192.429 228.484C193.865 227.978 195.208 227.094 196.439 225.863C199.423 222.879 201.018 220.936 201.223 220.005C201.318 219.689 200.971 219.058 200.15 218.079C199.328 217.1 198.35 215.995 197.213 214.763C196.076 213.531 195.46 212.868 195.365 212.758C191.15 207.516 188.781 204.484 188.276 203.663C185.403 199.148 183.966 195.437 183.966 192.564C183.966 188.664 184.124 186.296 184.424 185.474C184.834 184.764 185.134 184.969 185.355 186.09C185.355 186.817 185.355 187.732 185.355 188.869C185.039 192.469 186.429 196.369 189.524 200.585C190.455 201.927 192.097 204.011 194.45 206.837C196.818 209.663 198.207 211.226 198.618 211.542C198.618 211.653 198.855 211.921 199.313 212.395C199.771 212.868 200.26 213.326 200.781 213.784C201.286 214.242 201.886 214.731 202.549 215.252C203.213 215.773 203.749 216.105 204.176 216.247C204.586 216.405 204.949 216.373 205.249 216.168C205.865 215.663 207.555 214.937 210.333 214.005C213.112 213.074 215.117 212.616 216.349 212.616C220.975 212.616 224.622 213.026 227.291 213.847C228.633 214.258 230.149 215.079 231.838 216.31C233.527 217.542 234.901 218.931 235.927 220.479C236.543 221.505 237.206 222.926 237.933 224.726C238.643 226.526 239.275 228.089 239.78 229.431L240.396 231.436C242.653 233.599 244.09 235.447 244.706 236.994C245.116 238.02 245.495 239.252 245.859 240.688C246.222 242.125 246.395 242.994 246.395 243.309C246.395 243.42 246.427 243.799 246.474 244.462C246.522 245.125 246.601 245.899 246.711 246.767C246.806 247.636 246.916 248.33 247.027 248.851L246.711 252.404C247.848 252.609 248.669 252.814 249.174 253.02C249.379 253.13 249.553 253.335 249.711 253.635C249.869 253.935 249.995 254.251 250.09 254.567V254.867H250.122ZM213.57 246.704C213.57 246.499 213.649 246.136 213.807 245.63C213.965 245.125 214.06 244.762 214.123 244.557C214.17 244.352 214.091 244.146 213.886 243.941C213.27 243.846 212.544 244.399 211.723 245.63C211.612 245.836 211.486 246.088 211.344 246.404C211.202 246.72 211.06 247.051 210.965 247.399C210.854 247.762 210.854 248.062 210.965 248.33C211.06 248.583 211.281 248.709 211.581 248.709C212.907 247.983 213.57 247.32 213.57 246.704ZM214.96 239.141C215.891 237.91 216.728 236.883 217.502 236.062C218.275 235.241 219.128 234.783 220.044 234.673C220.138 234.578 220.123 234.104 219.965 233.283C219.807 232.462 219.633 231.894 219.428 231.594C219.428 231.499 219.017 230.947 218.196 229.968C217.375 228.989 216.633 228.01 215.954 227.031C215.291 226.052 214.896 225.357 214.802 224.947C214.691 223.921 214.233 223.668 213.412 224.173C212.796 224.584 212.481 225.31 212.481 226.336C212.37 227.157 212.512 228.184 212.86 229.415C213.223 230.647 213.239 231.531 212.939 232.036C212.118 234.199 211.96 235.683 212.481 236.504L214.96 239.141ZM224.528 252.088C224.733 251.472 224.686 250.699 224.37 249.783C224.054 248.867 223.391 248.299 222.365 248.093C221.749 247.999 221.086 248.141 220.359 248.551C219.633 248.962 219.08 249.483 218.67 250.099L218.054 250.872C217.944 251.188 218.007 251.488 218.212 251.804C218.417 252.12 218.623 252.341 218.828 252.499C219.033 252.657 219.365 252.814 219.823 252.957C220.28 253.099 220.565 253.241 220.675 253.335C221.18 253.541 221.907 253.509 222.838 253.256C223.754 252.988 224.322 252.609 224.528 252.088ZM242.101 244.699C242.811 243.767 243.174 242.031 243.174 239.457C243.174 238.525 243.017 237.373 242.717 235.983C242.417 234.594 242.148 233.899 241.943 233.899C241.217 234.104 240.143 234.468 238.706 234.973C236.338 235.794 234.601 236.252 233.464 236.362C232.122 236.568 231.096 237.294 230.385 238.525C229.864 239.457 229.612 240.325 229.612 241.146C229.612 241.967 229.738 242.583 229.991 242.994C230.243 243.404 230.527 243.609 230.843 243.609C231.049 243.72 231.333 243.688 231.696 243.53C232.059 243.373 232.343 243.246 232.548 243.152L232.864 242.994C232.959 242.899 233.07 242.82 233.18 242.757C233.275 242.709 233.512 242.583 233.875 242.378C234.238 242.173 234.491 242.046 234.648 241.999C234.806 241.952 234.933 241.967 235.027 242.078C235.122 243.009 234.775 243.878 233.954 244.699C233.748 244.809 233.512 244.951 233.259 245.157C233.006 245.362 232.848 245.488 232.801 245.536C232.754 245.583 232.691 245.694 232.643 245.851C232.596 246.009 232.612 246.136 232.722 246.23C233.133 247.051 234.522 247.572 236.89 247.778C238.706 247.888 240.459 246.846 242.101 244.699Z" fill="#8E2E2C"/>
<path d="M270.861 158.559C271.223 158.638 271.155 159 270.635 159.667C270.408 160.041 270.16 160.256 269.866 160.335C268.984 160.561 268.169 160.957 267.434 161.545C264.856 163.829 262.945 165.186 261.689 165.627C260.14 166.215 258.41 166.736 256.498 167.177C255.684 167.324 254.598 167.301 253.241 167.12C251.873 166.939 250.9 166.442 250.312 165.627C249.939 165.107 249.702 164.304 249.6 163.196C249.498 162.088 249.43 161.092 249.43 160.21L249.543 158.887C247.338 158.152 245.97 157.745 245.461 157.677L243.357 156.908C243.278 156.987 243.176 157.055 243.029 157.134C242.882 157.213 242.645 157.259 242.317 157.304C241.989 157.338 241.74 157.213 241.604 156.919C241.378 156.625 240.643 156.648 239.399 156.976C238.144 157.304 237.375 157.587 237.081 157.801C236.855 157.881 236.787 158.243 236.855 158.91C236.922 159.577 237.036 160.018 237.183 160.233C237.477 160.459 237.658 161.138 237.737 162.28C237.805 163.422 237.624 164.395 237.183 165.209L235.531 166.973C234.423 167.64 233.326 168.115 232.218 168.409C231.483 168.556 230.872 168.636 230.397 168.636C229.922 168.636 229.368 168.579 228.746 168.466C228.124 168.353 227.694 168.296 227.479 168.296C226.156 168.296 224.641 168.002 222.956 167.414C222.074 167.335 220.965 166.939 219.642 166.204C219.269 166.057 218.851 165.91 218.376 165.763C217.901 165.616 217.561 165.526 217.381 165.492C217.2 165.458 217.143 165.367 217.211 165.22C217.279 165.073 217.652 164.994 218.319 164.994H218.206C217.324 164.621 216.86 164.383 216.826 164.282C216.792 164.168 216.849 164.044 216.996 163.897C217.584 163.603 218.466 163.343 219.642 163.128C218.319 163.275 217.731 163.207 217.878 162.902C218.172 162.676 218.579 162.495 219.088 162.348C219.597 162.201 220.049 162.088 220.411 162.02H220.965L224.053 162.461C224.72 162.902 225.602 163.275 226.699 163.569C227.14 163.637 227.604 163.66 228.079 163.626C228.554 163.592 229.017 163.501 229.459 163.354L230.126 163.241C228.576 160.81 227.728 159.079 227.581 158.05C227.502 157.903 227.4 157.462 227.253 156.727C227.106 155.992 226.993 155.381 226.925 154.906C226.846 154.431 226.903 153.821 227.095 153.086C227.276 152.351 227.626 151.649 228.147 150.982C228.814 150.168 229.47 149.512 230.137 148.992C230.804 148.483 231.279 148.144 231.573 147.997L232.127 147.883C230.578 145.452 229.775 142.987 229.696 140.487C229.617 138.723 229.82 136.767 230.307 134.629C230.782 132.492 231.279 130.841 231.8 129.665L232.569 127.787C231.46 127.425 230.759 126.792 230.465 125.91L229.029 122.042C228.882 120.866 228.916 119.984 229.142 119.396C230.024 117.7 230.465 116.784 230.465 116.637C230.465 116.49 230.431 116.196 230.352 115.755C230.352 115.246 230.386 114.94 230.465 114.872C230.691 115.019 230.872 115.2 231.019 115.427C231.166 115.653 231.279 115.834 231.347 115.981V116.207C231.415 117.677 231.415 118.525 231.347 118.751C230.827 120.369 230.793 121.296 231.234 121.511C231.46 121.658 231.822 121.975 232.342 122.449C232.851 122.924 233.224 123.218 233.451 123.332C233.677 123.445 233.96 123.388 234.333 123.162C235.735 120.731 236.504 119.181 236.651 118.525L236.764 118.638C237.205 119.159 237.646 118.966 238.087 118.084C238.596 117.123 238.528 116.501 237.861 116.207V116.32C238.743 115.212 239.772 114.624 240.949 114.556C242.566 114.556 243.821 115.031 244.703 115.992C244.036 116.365 244.002 117.021 244.59 117.982C245.031 118.718 245.472 118.865 245.913 118.423V118.31L246.026 118.423C246.32 119.385 246.637 120.188 246.965 120.855C247.293 121.522 247.576 121.963 247.79 122.178L248.017 122.506C248.458 122.065 248.831 121.737 249.125 121.511L250.448 120.516C249.781 119.407 249.419 118.604 249.34 118.084C249.193 117.123 249.34 116.388 249.781 115.879C250.957 114.477 251.692 113.821 251.986 113.889C252.133 113.889 252.111 114.115 251.93 114.556C251.749 114.997 251.545 115.494 251.319 116.049C251.093 116.603 251.059 116.987 251.206 117.213C251.274 117.44 251.534 117.79 251.975 118.265C252.416 118.74 252.642 119.204 252.642 119.645V121.85C252.495 123.84 252.167 125.051 251.647 125.492L249.77 126.928C250.211 127.595 250.708 128.477 251.262 129.574C251.816 130.671 252.518 132.515 253.366 135.093C254.214 137.671 254.485 139.696 254.191 141.166L252.642 147.906C254.553 148.494 255.876 149.308 256.623 150.338C257.799 151.808 258.353 153.323 258.274 154.861L257.392 161.16C258.206 161.454 259.009 161.386 259.823 160.934C260.049 160.866 260.909 160.199 262.413 158.944C263.917 157.688 265.082 156.953 265.896 156.738C268.101 156.15 269.504 156.003 270.092 156.297C270.239 156.377 270.126 156.478 269.764 156.625C268.588 157.213 268 157.621 268 157.835C269.255 157.394 270.137 157.281 270.646 157.507C271.008 157.587 270.974 157.734 270.533 157.948C269.945 158.175 269.651 158.39 269.651 158.616C269.798 158.616 269.967 158.616 270.148 158.616C270.329 158.616 270.476 158.616 270.589 158.616C270.703 158.616 270.782 158.559 270.861 158.559Z" fill="#8E2E2C" fill-opacity="0.35"/>
<path d="M140.241 174.262C141.658 175.129 142.458 176.113 142.675 177.196C142.892 178.28 142.558 178.963 141.692 179.23C140.825 179.497 139.741 179.413 138.441 178.98C138.324 178.98 137.707 178.797 136.574 178.413C135.44 178.03 134.49 177.73 133.723 177.513C132.956 177.296 131.706 177.03 129.972 176.696C128.239 176.363 126.738 176.229 125.488 176.296C124.238 176.346 122.588 176.479 120.52 176.696C117.37 177.246 114.986 178.713 113.352 181.097C111.719 183.481 110.918 186.065 110.918 188.832C110.918 191.599 111.085 194.233 111.402 196.734C111.619 197.384 112.102 198.984 112.869 201.535C113.619 204.085 114.219 206.319 114.653 208.203C115.086 210.103 115.553 212.354 116.036 214.954C116.52 217.555 116.736 220.055 116.686 222.439C116.636 224.823 116.336 226.99 115.786 228.957C114.803 232.758 112.669 236.226 109.351 239.376C106.034 242.527 101.233 244.477 94.9483 245.244C93.2146 245.344 91.3142 245.278 89.2471 244.994C87.18 244.727 84.8461 244.094 82.2456 243.127C79.645 242.16 77.1945 240.443 74.9273 237.993C72.6602 235.542 70.9598 232.491 69.8762 228.791C67.7091 221.189 66.0754 214.354 64.9919 208.286C63.9083 202.202 63.4249 198.417 63.5249 196.884C63.6249 195.367 63.6916 194.167 63.6916 193.3L66.2921 203.552C69.9763 215.271 73.7271 223.189 77.5279 227.324C78.3947 228.307 79.345 229.224 80.3785 230.091C81.4121 230.958 82.8957 231.941 84.8628 233.025C86.8132 234.108 89.0637 234.625 91.6142 234.575C94.1648 234.525 96.682 233.792 99.1825 232.375C100.7 231.508 101.916 230.424 102.85 229.124C103.767 227.824 104.334 226.323 104.567 224.64C104.784 222.956 104.9 221.322 104.9 219.755C104.9 218.188 104.65 216.371 104.167 214.304C103.684 212.237 103.25 210.503 102.867 209.103C102.483 207.686 102 206.069 101.4 204.219C100.8 202.368 100.399 201.068 100.183 200.318C98.3323 194.567 98.399 188.949 100.349 183.464C102.3 177.98 105.834 173.779 110.935 170.845C113.436 169.645 116.136 168.944 119.07 168.728C122.004 168.511 124.655 168.678 127.055 169.211C129.439 169.761 131.673 170.411 133.723 171.162C135.79 171.928 137.357 172.629 138.441 173.279L140.241 174.262Z" fill="#8E2E2C" fill-opacity="0.6"/>
<path d="M260.867 196.61C265.498 198.647 267.239 201.685 266.091 205.724C264.942 210.948 259.718 211.504 250.456 207.465C249.604 207.169 248.715 206.761 247.862 206.168C224.707 194.609 207.034 190.237 194.882 193.127C193.437 193.72 192.436 195.016 191.844 197.017C191.547 197.61 191.695 198.536 192.288 199.833C192.881 201.13 193.585 202.5 194.474 203.945C195.326 205.39 195.771 206.391 195.771 206.983C196.067 206.983 196.623 207.91 197.512 209.799C198.364 211.689 199.031 213.356 199.476 214.801C199.92 216.246 200.328 218.209 200.773 220.655C201.217 223.1 201.143 225.064 200.55 226.509C199.402 229.991 196.919 232.214 193.177 233.252C189.398 234.252 185.064 233.029 180.136 229.547C175.505 226.064 174.912 220.432 178.395 212.615L184.026 199.574C184.323 197.832 184.026 197.128 183.174 197.388C182.878 197.388 182.581 197.536 182.322 197.832C177.691 200.722 174.727 203.13 173.43 204.983C172.133 206.872 170.318 210.577 168.021 216.061C165.687 221.544 162.797 227.361 159.351 233.437C156.165 238.661 152.46 241.477 148.273 241.921C144.087 242.366 140.752 240.995 138.27 237.809C135.825 234.622 135.01 231.14 135.899 227.398C136.751 225.36 137.714 223.433 138.715 221.544C139.715 219.654 140.678 218.135 141.53 216.987C142.383 215.838 143.642 214.616 145.235 213.282C146.829 211.985 147.977 211.059 148.718 210.466C149.422 209.873 151.83 208.428 155.869 206.131C159.611 203.834 163.686 201.797 168.021 200.055C172.356 198.314 175.838 197.165 178.432 196.573L182.767 195.72C181.322 193.979 180.395 193.053 179.951 192.905C179.506 192.756 178.284 192.46 176.246 192.053C174.208 191.608 171.466 191.386 167.984 191.386C158.721 190.793 144.976 193.127 126.748 198.351C125.896 198.647 124.08 199.277 121.339 200.315C118.597 201.315 115.966 202.278 113.521 203.13C111.076 203.982 108.594 204.723 106.148 205.316C103.703 205.909 101.813 205.909 100.517 205.316C99.22 204.723 98.5531 203.427 98.5531 201.426C99.1459 197.091 102.962 193.238 110.075 189.904C117.152 186.569 126.933 184.494 139.382 183.605C154.127 182.457 168.021 185.05 181.062 191.423V191.867C181.655 191.867 182.063 191.867 182.359 191.867C182.359 191.015 182.211 189.978 181.914 188.829C180.766 183.346 180.766 179.863 181.914 178.418H186.694L187.546 150.187C183.508 145.555 180.173 143.221 177.543 143.221C176.394 143.221 175.208 143.518 174.06 144.073C172.911 144.666 172.17 145.074 171.874 145.37C171.578 145.667 170.874 145.518 169.688 144.926C169.095 144.073 169.095 143.184 169.688 142.332C170.281 141.48 171.429 140.665 173.171 139.961C174.912 139.257 176.653 138.738 178.395 138.442C182.137 138.442 185.175 141.332 187.509 147.112C187.509 139.887 187.657 132.699 187.953 125.623C188.25 118.546 188.472 113.174 188.62 109.543C188.769 105.913 188.843 103.838 188.843 103.245C188.843 102.393 188.102 101.133 186.657 99.54C185.212 97.9469 184.619 96.5761 184.915 95.4275C185.768 91.6855 185.36 88.3511 183.619 85.4242C183.322 84.8314 182.767 83.2012 181.877 80.4225C181.025 77.6809 180.284 76.0136 179.691 75.4208C179.395 74.828 178.839 74.2723 177.95 73.6795C177.098 73.0867 176.357 72.531 175.764 71.9382C175.171 71.3454 174.838 70.9379 174.69 70.6415C174.542 70.3451 174.467 70.0487 174.467 69.7893L170.985 68.9372L167.947 66.3437C167.354 65.4916 167.502 64.7506 168.391 64.1578C170.133 63.0093 172.022 64.7506 174.023 69.3818C175.468 70.8267 176.616 71.5677 177.506 71.5677C177.802 71.5677 178.098 71.2713 178.358 70.7156C178.654 71.8641 179.062 72.7533 179.654 73.309C181.099 74.4576 182.544 77.0881 183.989 81.1265L186.583 88.9439C185.138 94.4272 185.138 97.3541 186.583 97.6135C187.435 97.9099 188.028 97.8358 188.324 97.3912C188.62 96.9466 188.769 96.2426 188.769 95.2053C188.769 94.2049 188.769 93.538 188.769 93.2416C188.769 92.9452 188.324 89.9072 187.472 84.1275C186.62 78.3477 186.323 75.1615 186.62 74.5687C187.212 73.7166 187.694 71.827 188.139 68.9372C188.583 66.0473 188.806 64.4542 188.806 64.1578V51.1534C188.806 50.5606 187.212 49.8567 184.026 48.9675C184.323 48.3747 184.804 48.1154 185.545 48.1154C186.249 48.1154 187.064 48.2636 187.916 48.56L188.769 49.0046L186.583 41.6317C187.175 41.3353 187.583 41.7799 187.879 42.9285L188.731 44.6698L189.176 46.8557L189.621 41.6317L188.769 29.0349L188.324 29.4795C186.879 30.0723 186.583 28.7756 187.472 25.5893L188.324 22.9958C188.62 23.2922 188.843 23.6627 188.991 24.0703C189.139 24.5149 189.361 25.367 189.658 26.6637C189.954 27.9605 189.658 28.7756 188.806 29.0349C189.398 31.0726 189.954 33.0733 190.547 35.111L192.288 29.4795C193.437 30.0723 193.733 30.9244 193.14 32.073C192.548 33.2215 191.695 34.5182 190.547 35.9632C191.14 37.7045 191.547 39.594 191.844 41.5947C191.844 43.336 191.251 46.0777 190.102 49.8567L190.547 50.3013H193.585C193.585 49.7085 194.03 49.2269 194.882 48.7823C195.734 48.3377 196.771 48.0042 197.92 47.7078H199.661C199.957 49.4492 198.809 50.5977 196.178 51.1905C196.475 51.7833 196.178 52.4872 195.326 53.3764C194.474 54.2656 193.585 54.3767 192.733 53.821C191.881 53.2282 191.288 53.5246 190.992 54.6731C190.992 55.5253 190.992 56.2663 190.992 56.8591L190.547 66.8624C190.251 67.4552 189.954 68.085 189.695 68.826C189.398 69.567 189.028 70.7897 188.62 72.531C188.213 74.2723 188.102 75.569 188.398 76.4212L189.695 86.8321C192.881 84.2386 194.474 82.2009 194.474 80.756L196.215 73.3831C196.808 73.3831 197.216 73.3831 197.512 73.3831L200.55 67.307C200.847 67.0106 201.143 66.7142 201.402 66.4549C201.699 66.1585 202.18 65.7509 202.921 65.1581C203.625 64.5653 204.292 64.5653 204.885 65.1581C205.737 66.0103 204.737 67.4923 201.847 69.4929L198.364 73.3831C198.661 73.3831 198.809 73.5313 198.809 73.8277C198.809 74.4205 198.661 74.828 198.364 75.1244L199.216 74.2723C199.513 73.9759 199.883 73.6054 200.291 73.1979C200.698 72.7903 201.439 72.2716 202.477 71.6788C203.477 71.0861 204.292 70.9749 204.848 71.2342C205.441 71.5306 204.848 72.2346 203.107 73.4202C201.365 74.5687 199.476 75.7543 197.475 76.9028C196.882 77.755 196.623 78.4959 196.623 79.0887C196.03 82.5714 195.326 84.5721 194.437 85.1648C191.844 87.499 190.547 89.055 190.547 89.9442C189.954 95.1682 189.695 98.0581 189.695 98.6138C189.695 99.2066 189.917 100.059 190.362 101.207C190.806 102.356 191.029 103.393 191.029 104.245C191.029 104.542 191.029 105.542 191.029 107.283C191.029 109.025 191.029 110.692 191.029 112.285C191.029 113.878 191.029 115.99 191.029 118.583L193.622 115.101C195.919 112.211 198.55 110.766 201.439 110.766C204.033 110.766 204.922 111.915 204.033 114.249C203.737 115.397 202.662 115.99 200.773 115.99C198.883 115.99 197.809 116.138 197.512 116.435C195.771 117.027 193.622 118.176 190.992 119.917C189.843 120.769 189.695 125.993 190.547 135.552C189.954 139.887 189.695 143.962 189.695 147.704C191.732 143.37 193.733 140.035 195.771 137.701C197.809 135.404 200.847 133.663 204.885 132.477C208.923 131.328 211.554 131.328 212.703 132.477C214.444 134.218 213.703 135.367 210.517 135.96C204.737 137.108 201.106 138.146 199.661 138.998C196.178 141.332 192.696 144.926 189.25 149.853C189.25 160.264 189.398 166.192 189.695 167.637V180.234C190.288 178.789 191.436 178.789 193.177 180.234C193.77 180.827 194.104 181.456 194.252 182.197C194.4 182.938 194.474 183.494 194.474 183.939C194.474 184.383 194.326 185.013 194.03 185.902C193.733 186.754 193.585 187.347 193.585 187.644L192.733 191.534C202.588 188.644 213.999 187.718 227.041 188.718C240.008 189.57 251.308 192.238 260.867 196.61ZM171.874 65.4545L171.022 68.9372L163.649 69.7893C162.797 69.1965 163.204 68.3444 164.946 67.1959C164.353 66.0473 163.649 65.1581 162.76 64.6024C162.463 64.0096 162.76 63.6021 163.612 63.3057C164.464 62.4535 165.057 62.0089 165.353 62.0089C164.501 61.1568 164.205 60.4158 164.501 59.823C164.798 59.2302 165.205 58.9709 165.798 58.9709L166.65 58.5263L168.836 60.2676L171.874 58.5263C172.17 58.5263 172.319 59.1191 172.319 60.2676C172.319 61.4161 172.319 62.6017 172.319 63.7503L171.874 65.4545ZM177.95 65.4545C178.543 67.7886 178.654 69.4929 178.395 70.6785C178.098 69.2336 177.802 67.6405 177.543 65.8991L174.06 60.2676C176.913 60.2676 178.209 62.0089 177.95 65.4545ZM185.323 48.5229L186.62 49.3751L185.323 51.9685C182.433 51.9685 180.544 51.9685 179.691 51.9685V49.7826C177.357 49.7826 176.209 49.338 176.209 48.4859L179.247 47.1891C178.098 46.5964 177.357 46.0406 177.061 45.4478C177.061 45.1514 177.357 44.9291 177.913 44.7809C178.506 44.6327 179.062 44.5586 179.654 44.5586H180.507L182.692 42.8173C182.989 42.8173 183.359 43.336 183.767 44.3363C184.211 45.3367 184.545 46.3 184.841 47.1521L185.323 48.5229ZM191.399 32.4805C195.141 33.9254 197.475 33.9254 198.364 32.4805L197.068 29.4425L198.809 26.849H196.215L194.919 24.2555C194.326 24.2555 193.918 24.4778 193.622 24.9224C193.326 25.367 193.029 25.8487 192.77 26.4414V26.886L190.584 28.6274C190.584 28.9238 190.584 29.6277 190.584 30.8133C190.51 31.8877 190.806 32.4805 191.399 32.4805ZM203.107 58.5263C201.958 61.4161 201.217 63.3057 200.921 64.1578L201.773 68.048C206.108 68.3444 208.553 68.3444 209.146 68.048V65.4545C209.442 65.1581 209.813 64.8617 210.22 64.6024C210.665 64.306 211.072 63.8985 211.517 63.3057C211.962 62.7129 212.036 62.1571 211.739 61.5643C211.443 60.9715 210.998 60.6381 210.442 60.4899C209.85 60.3417 209.442 60.2676 209.146 60.2676H208.294C207.997 59.9712 208.442 58.8227 209.59 56.785C208.998 56.785 208.442 57.0073 207.849 57.4518C207.256 57.8964 206.7 58.5263 206.108 59.4155L205.663 60.2676C205.441 60.564 204.552 59.9712 203.107 58.5263Z" fill="#8E2E2C" fill-opacity="0.5"/>
<path d="M134.817 106.219C135.451 106.219 135.892 106.329 136.112 106.549C137.188 106.99 137.932 108.369 138.373 110.739C138.814 113.11 138.704 115.26 138.042 117.19C137.822 118.265 137.601 118.927 137.408 119.12C136.333 119.754 136.443 120.305 137.739 120.746C144.41 121.821 151.081 122.786 157.78 123.641C159.296 123.861 162.742 123.31 168.118 122.014C169.193 121.573 171.012 120.829 173.604 119.754C176.195 118.458 177.683 117.714 178.124 117.493C181.57 115.977 184.437 115.343 186.698 115.564C188.958 115.784 190.585 116.198 191.55 116.859C192.514 117.521 193.204 118.155 193.645 118.789C194.279 120.719 193.204 123.09 190.419 125.901C188.683 127.638 187.359 128.961 186.395 129.926C185.43 130.891 184.713 131.608 184.299 132.021C183.665 132.655 183.28 133.041 183.169 133.151C183.059 133.262 182.949 133.537 182.838 133.951C182.728 134.392 182.728 134.805 182.838 135.247C182.949 135.688 183.114 136.156 183.335 136.708C183.555 137.259 184.024 137.893 184.796 138.637C185.54 139.382 186.45 140.209 187.552 141.063C190.144 143.434 191.329 145.97 191.109 148.644C190.888 151.346 189.923 152.889 188.214 153.33C186.064 153.965 183.142 153.22 179.503 151.07C179.282 151.07 178.593 150.684 177.408 149.94C176.222 149.195 175.202 148.589 174.348 148.175C171.977 146.659 170.268 145.694 169.165 145.281C168.531 144.84 166.464 143.765 163.018 142.056C158.938 140.126 155.271 139.161 152.046 139.161C150.75 139.161 150.116 139.051 150.116 138.83C150.337 139.051 150.392 139.437 150.282 139.96C150.172 140.512 150.006 140.925 149.786 141.256C149.565 141.587 149.455 141.945 149.455 142.386C149.455 143.462 148.6 144.647 146.864 145.943C146.643 145.943 144.934 147.293 141.681 149.967C138.456 152.669 136.609 154.13 136.195 154.323C135.12 154.764 134.045 155.288 132.97 155.949C131.674 156.583 130.93 156.914 130.709 156.914L130.378 157.245C128.228 157.686 125.968 156.804 123.597 154.654C123.597 154.433 122.467 153.082 120.206 150.629C117.946 148.148 116.595 146.797 116.181 146.604C115.74 146.163 115.217 146.08 114.555 146.273C111.33 146.907 109.593 147.348 109.372 147.569C108.931 148.01 108.821 148.203 109.042 148.203C109.483 148.203 109.483 149.609 109.042 152.393C108.821 154.543 107.525 155.288 105.155 154.654L96.1127 150.464H90.6268C81.5849 150.464 74.1418 149.499 68.3251 147.569C67.8841 147.569 66.4506 147.183 63.9696 146.439C61.4885 145.694 58.4837 144.812 54.9276 143.847C51.3714 142.883 48.2012 141.863 45.3894 140.788C40.4273 139.271 36.7609 137.452 34.4177 135.302C32.488 133.593 31.3027 131.966 30.8616 130.45C30.4205 129.375 30.1173 128.796 29.8968 128.686C29.6762 128.575 29.5659 128.107 29.5659 127.225C29.5659 126.37 29.7865 125.708 30.2 125.295C30.834 124.44 32.9016 123.255 36.3474 121.739C38.2771 120.884 41.3922 119.919 45.7202 118.844C49.3866 118.21 53.1633 117.328 57.0227 116.253C57.2432 116.253 57.9875 116.143 59.2832 115.922C60.5788 115.702 61.8745 115.426 63.1701 115.123C64.4658 114.819 65.3203 114.626 65.7614 114.626C78.2493 112.256 90.5166 111.732 102.591 113C108.187 114.075 112.295 113.855 114.858 112.366C115.492 112.145 117.615 111.401 121.171 110.105C124.727 108.81 126.602 108.176 126.822 108.176C129.331 106.853 132.032 106.219 134.817 106.219ZM39.3522 124.468C39.4625 124.358 39.6279 124.302 39.8484 124.302C40.069 124.302 40.1792 124.413 40.1792 124.633H40.8133H41.1441C40.9236 124.633 40.703 124.744 40.51 124.964L40.1792 125.295C39.9587 125.295 39.7382 125.405 39.5452 125.626C39.3247 125.846 39.1041 126.26 38.9112 126.921C39.1317 127.142 39.1317 127.252 38.9112 127.252V126.921L38.5804 126.591C38.5804 126.37 38.5804 126.149 38.5804 125.956C38.5804 125.736 38.6906 125.46 38.9112 125.157C39.1041 124.771 39.242 124.578 39.3522 124.468ZM40.4825 129.457C40.703 129.678 41.2268 129.899 42.1089 130.092V130.726C42.1089 130.946 41.8333 131.111 41.3095 131.222C40.7581 131.332 40.51 131.277 40.51 131.056C40.2895 130.836 40.1792 130.56 40.1792 130.257C40.1792 129.954 40.2895 129.678 40.4825 129.457ZM44.5348 123.641C44.4246 123.641 44.2592 123.751 44.0386 123.972C43.5975 124.413 43.2943 124.606 43.0738 124.606L42.4397 124.936C42.8808 124.716 43.2392 124.881 43.57 125.433C43.9008 125.984 44.1489 126.563 44.3694 127.197C44.59 127.831 44.59 128.272 44.3694 128.493L45.0035 126.563C45.0035 126.783 45.224 126.783 45.6375 126.563H45.9683C46.1888 126.563 46.2991 126.398 46.2991 126.067C46.2991 125.736 46.1888 125.488 45.9683 125.267C45.7478 124.826 45.417 124.413 45.0035 123.972C44.8105 123.751 44.6451 123.641 44.5348 123.641ZM45.6651 127.859C46.2991 128.493 46.5197 129.044 46.2991 129.485C45.858 129.926 45.5548 130.119 45.3343 130.119V130.45C44.7002 130.67 44.204 130.836 43.8732 130.946C43.5424 131.056 43.2667 130.781 43.0738 130.147C44.1489 130.147 44.59 129.513 44.3694 128.217L45.6651 127.859ZM88.642 118.155C79.159 118.155 72.4878 118.376 68.6008 118.789C67.0846 119.01 65.596 119.12 64.0798 119.12C62.5636 119.12 61.1853 119.285 59.8896 119.616C58.594 119.947 57.5189 120.112 56.6643 120.112C56.2232 120.112 55.6995 120.057 55.0379 119.947C54.4038 119.837 53.9627 119.781 53.7422 119.781C53.5217 119.781 53.4114 119.892 53.4114 120.112C54.0454 120.553 54.5968 120.967 55.0379 121.408C55.4789 121.849 55.7822 122.042 56.0027 122.042C57.2983 121.821 59.7794 121.408 63.4458 120.746C64.5209 120.526 66.1474 120.305 68.2976 120.112C69.5932 119.892 77.6152 119.781 92.3636 119.781C107.112 119.781 115.134 119.892 116.43 120.112C117.284 120.112 117.725 120.002 117.725 119.781C116.65 119.147 112.984 118.817 106.754 118.817C102.674 118.596 99.3104 118.376 96.7467 118.183C94.9824 118.155 92.2809 118.155 88.642 118.155ZM90.9025 123.972C81.8605 123.972 76.3747 124.082 74.4174 124.302C69.2349 124.744 65.1549 124.854 62.1501 124.633C61.7091 124.633 61.1302 124.578 60.3859 124.468C59.6415 124.358 59.0902 124.247 58.7594 124.137C58.4286 124.027 57.8497 123.972 56.9951 123.972C56.9951 124.413 57.1054 124.881 57.3259 125.433C57.5465 125.984 57.6567 126.342 57.6567 126.563C57.8773 126.563 58.7318 126.508 60.248 126.398C61.7642 126.287 62.6188 126.232 62.8393 126.232C63.4734 126.232 65.5409 126.177 68.9868 126.067C72.4326 125.956 74.9137 125.681 76.4298 125.267C77.7255 125.047 82.3567 124.992 90.3236 125.102C98.2905 125.212 102.37 125.322 102.591 125.433C102.811 125.543 103.721 125.543 105.348 125.433C106.974 125.322 108.463 125.378 109.869 125.598C111.275 125.819 113.59 126.039 116.815 126.232C120.041 126.453 121.833 126.618 122.136 126.728C122.467 126.839 124.672 126.894 128.752 126.894C136.498 127.114 141.13 127.445 142.646 127.859C144.162 128.3 145.651 128.493 147.167 128.493C149.951 128.934 151.467 129.127 151.688 129.127C151.908 129.127 153.314 129.292 155.878 129.623C158.442 129.954 160.068 130.229 160.73 130.422C161.584 130.863 162.246 130.863 162.659 130.422C162.88 130.202 162.88 129.981 162.659 129.788C161.584 129.154 160.289 128.934 158.772 129.154C157.918 129.154 157.367 129.099 157.146 128.989C156.925 128.879 156.402 128.768 155.52 128.658C154.665 128.548 153.48 128.382 151.963 128.162C150.668 127.721 149.482 127.528 148.407 127.528C147.332 127.528 145.816 127.307 143.886 126.894C138.704 126.039 134.844 125.598 132.253 125.598C131.812 125.598 130.737 125.488 129.028 125.267C122.77 124.633 114.693 124.192 104.796 123.972C100.468 123.972 95.837 123.972 90.9025 123.972ZM68.6008 131.084C66.6711 131.084 65.6511 131.194 65.5409 131.415C65.4306 131.635 65.4857 131.911 65.7063 132.214C65.9268 132.545 66.1474 132.6 66.3403 132.38C66.5609 132.38 68.3803 132.324 71.8262 132.214C75.272 132.104 77.8633 132.159 79.5725 132.38C81.5022 132.38 83.4594 132.49 85.3891 132.71C87.3188 132.71 89.0555 132.821 90.5717 133.041C93.163 133.482 97.2981 133.675 103.004 133.675C108.711 133.675 111.66 133.565 111.881 133.344C112.736 132.903 116.237 132.821 122.384 133.014C128.531 133.234 133.852 133.565 138.373 133.978C140.744 134.199 142.563 134.53 143.859 134.943C144.934 135.384 146.753 135.688 149.345 135.908C151.936 136.129 153.976 136.349 155.492 136.542C158.276 136.983 159.903 136.983 160.344 136.542C160.785 136.101 160.564 135.798 159.71 135.577C159.269 135.577 158.524 135.467 157.449 135.247C155.52 135.026 154.114 134.805 153.259 134.612C152.404 134.392 150.557 134.171 147.773 133.978C144.961 133.758 143.032 133.537 141.957 133.344C137.656 132.269 125.168 131.828 104.493 132.049C97.8218 132.049 93.8246 132.049 92.529 132.049C88.008 131.415 81.1162 131.084 71.8537 131.084H68.6008ZM142.26 136.901C141.626 136.901 140.854 137.011 139.999 137.231C137.187 137.231 134.403 137.342 131.591 137.562C120.62 138.196 114.803 138.748 114.141 139.189C113.921 139.189 112.846 139.299 110.916 139.519C104.024 140.153 99.6137 140.374 97.684 140.153C95.7543 139.933 94.0176 139.823 92.5014 139.823C90.5717 140.043 89.1107 139.988 88.1458 139.657C87.181 139.326 86.4642 139.326 86.0507 139.657C85.6097 139.988 85.4167 140.209 85.4167 140.291C85.4167 140.402 85.6372 140.567 86.0507 140.788C86.9053 140.788 87.6772 140.898 88.3112 141.118C89.3863 141.559 93.163 141.752 99.6137 141.752C106.064 141.532 109.951 141.422 111.247 141.422C112.956 141.201 113.949 140.98 114.141 140.788C114.996 140.567 116.402 140.346 118.332 140.153C118.966 140.153 120.702 139.933 123.514 139.519C126.106 139.299 128.035 139.078 129.331 138.885C131.481 138.885 133.521 138.775 135.478 138.555L141.929 138.224C143.445 138.003 144.3 137.783 144.52 137.59C144.741 137.369 144.41 137.149 143.555 136.956C143.335 136.901 142.894 136.901 142.26 136.901ZM101.24 149.499C100.799 149.94 101.02 150.574 101.874 151.428C104.024 152.724 105.1 152.945 105.1 152.062C105.1 151.842 104.548 151.428 103.473 150.767C102.398 150.133 101.654 149.719 101.24 149.499ZM137.739 145.943H135.809C128.917 146.797 124.92 147.238 123.845 147.238C122.77 147.459 122.99 147.679 124.479 147.872C125.334 148.093 126.188 148.203 127.07 148.203C129.855 148.203 132.997 147.569 136.443 146.273L137.739 145.943ZM145.154 143.351C144.934 143.351 144.3 143.682 143.225 144.316C141.708 144.757 140.633 145.06 139.999 145.281L138.704 145.612H139.999C141.074 145.391 142.15 145.088 143.225 144.647C144.3 144.206 144.934 143.903 145.154 143.682V143.351ZM167.291 134.64C167.621 134.64 168.09 134.64 168.752 134.64C171.536 134.861 174.127 135.605 176.498 136.901L177.463 137.535H176.829C175.974 137.314 175.202 137.094 174.568 136.901C173.493 136.68 172.308 136.459 171.012 136.267C168.2 135.825 166.822 135.412 166.822 134.971C166.794 134.75 166.96 134.64 167.291 134.64ZM168.421 140.457C168.862 140.236 169.717 140.346 171.012 140.788L172.308 141.752C172.087 142.193 171.233 142.193 169.717 141.752C168.421 141.311 167.787 140.898 167.787 140.457H168.421ZM174.238 130.119C177.242 130.119 178.924 130.229 179.255 130.45C179.586 130.67 179.586 130.891 179.255 131.084C178.924 131.304 178.621 131.36 178.29 131.249C177.959 131.139 176.829 130.974 174.899 130.753C172.087 130.533 170.737 130.367 170.874 130.257C170.957 130.174 172.087 130.119 174.238 130.119ZM174.872 125.901C175.092 125.901 175.313 125.901 175.506 125.901C176.36 126.122 177.215 126.232 178.097 126.232C178.538 126.232 178.841 126.232 179.062 126.232C179.282 126.232 179.393 126.342 179.393 126.563C179.393 126.783 178.759 126.894 177.463 126.894C176.167 126.894 175.313 126.783 174.872 126.563C173.796 126.122 173.796 125.901 174.872 125.901Z" fill="#8E2E2C" fill-opacity="0.3"/>
</svg>
