<svg width="279" height="269" fill="none" xmlns="http://www.w3.org/2000/svg"><g opacity=".3"><path opacity=".5" d="M98.561 34.037H16.176a3 3 0 00-3 3v70.857a3 3 0 003 3H98.56a3 3 0 003.001-3V37.037a3 3 0 00-3-3z" fill="#4E5A71"/><path opacity=".3" d="M97.142 44.605H17.595v61.485h79.547V44.605zM21.13 39.801c0 1.061-.79 1.922-1.767 1.922-.976 0-1.768-.86-1.768-1.922 0-1.06.792-1.921 1.768-1.921s1.768.86 1.768 1.921zM27.317 39.801c0 1.061-.79 1.922-1.767 1.922-.977 0-1.768-.86-1.768-1.922 0-1.06.791-1.921 1.768-1.921.976 0 1.767.86 1.767 1.921zM31.737 41.723c.976 0 1.768-.86 1.768-1.922 0-1.06-.792-1.921-1.768-1.921s-1.768.86-1.768 1.921.791 1.922 1.768 1.922z" fill="#F7FAFB"/><path opacity=".3" d="M92.723 50.37H22.014v23.056h70.709V50.37zM23.456 78.23a1.441 1.441 0 100 2.882h67.826a1.441 1.441 0 000-2.882H23.456zM23.456 83.994a1.441 1.441 0 100 2.882h67.826a1.441 1.441 0 100-2.882H23.456zM31.62 91.68h-8.605a1 1 0 00-1 1v9.528a1 1 0 001 1h8.606a1 1 0 001-1V92.68a1 1 0 00-1-1zM91.723 91.68h-8.606a1 1 0 00-1 1v9.528a1 1 0 001 1h8.606a1 1 0 001-1V92.68a1 1 0 00-1-1zM76.698 91.68H68.09a1 1 0 00-1 1v9.528a1 1 0 001 1h8.607a1 1 0 001-1V92.68a1 1 0 00-1-1zM61.672 91.68h-8.606a1 1 0 00-1 1v9.528a1 1 0 001 1h8.606a1 1 0 001-1V92.68a1 1 0 00-1-1zM46.647 91.68H38.04a1 1 0 00-1 1v9.528a1 1 0 001 1h8.607a1 1 0 001-1V92.68a1 1 0 00-1-1z" fill="#D2DCE3"/></g><g opacity=".5"><path opacity=".7" d="M253.922 75.76h-70.857a3 3 0 00-3 3v60.831a3 3 0 003 3h70.857a3 3 0 003-3V78.759a3 3 0 00-3-3z" fill="#4E5A71"/><path opacity=".5" d="M253.079 84.949h-69.171v53.465h69.171V84.949zM186.982 80.772c0 .922-.688 1.67-1.537 1.67s-1.537-.748-1.537-1.67c0-.923.688-1.671 1.537-1.671s1.537.748 1.537 1.67zM192.362 80.772c0 .922-.688 1.67-1.537 1.67s-1.537-.748-1.537-1.67c0-.923.688-1.671 1.537-1.671s1.537.748 1.537 1.67zM196.205 82.442c.849 0 1.537-.748 1.537-1.67 0-.923-.688-1.671-1.537-1.671s-1.537.748-1.537 1.67c0 .923.688 1.671 1.537 1.671z" fill="#F7FAFB"/><path opacity=".5" d="M249.237 89.961h-61.486v20.05h61.486v-20.05zM189.004 114.188a1.253 1.253 0 000 2.506h58.98a1.253 1.253 0 000-2.506h-58.98zM189.004 119.2a1.253 1.253 0 000 2.506h58.979a1.253 1.253 0 000-2.506h-58.979zM195.974 125.883h-7.223a1 1 0 00-1 1v8.025a1 1 0 001 1h7.223a1 1 0 001-1v-8.025a1 1 0 00-1-1zM248.237 125.883h-7.223a1 1 0 00-1 1v8.025a1 1 0 001 1h7.223a1 1 0 001-1v-8.025a1 1 0 00-1-1zM235.171 125.883h-7.223a1 1 0 00-1 1v8.025a1 1 0 001 1h7.223a1 1 0 001-1v-8.025a1 1 0 00-1-1zM222.105 125.883h-7.223a1 1 0 00-1 1v8.025a1 1 0 001 1h7.223a1 1 0 001-1v-8.025a1 1 0 00-1-1zM209.039 125.883h-7.223a1 1 0 00-1 1v8.025a1 1 0 001 1h7.223a1 1 0 001-1v-8.025a1 1 0 00-1-1z" fill="#D2DCE3"/></g><g opacity=".6"><path opacity=".6" d="M160.596 76.857H45.821a3 3 0 00-3 3v142.224a3 3 0 003 3h114.775a3 3 0 003-3V79.857a3 3 0 00-3-3z" fill="#D2DCE3"/><path opacity=".6" d="M160.596 76.857H45.821a3 3 0 00-3 3v142.224a3 3 0 003 3h114.775a3 3 0 003-3V79.857a3 3 0 00-3-3z" stroke="#8194A1"/></g><g opacity=".95"><path opacity=".95" d="M74.662 95.229a3 3 0 013-3h114.775a3 3 0 013 3v147.714a3 3 0 01-3 3h-86.073c-.812 0-1.59-.33-2.155-.913l-28.702-29.634a3 3 0 01-.846-2.087V95.229z" fill="#FDFDFD"/><path opacity=".95" d="M74.662 95.229a3 3 0 013-3h114.775a3 3 0 013 3v147.714a3 3 0 01-3 3h-86.073c-.812 0-1.59-.33-2.155-.913l-28.702-29.634a3 3 0 01-.846-2.087V95.229z" stroke="#8194A1"/><path opacity=".95" d="M74.662 215.007h27.431a3 3 0 013 3v27.936l-15.216-15.468-15.215-15.468z" fill="#C4C4C4"/><path opacity=".95" d="M74.662 215.007h27.431a3 3 0 013 3v27.936l-15.216-15.468-15.215-15.468z" stroke="#8194A1"/></g><path d="M90.837 113.09a3 3 0 00-3 3v21.449a3 3 0 003 3h86.229a3 3 0 003-3V116.09a3 3 0 00-3-3H90.837zM89.74 146.029a3 3 0 00-3 3v15.959a3 3 0 003 3h24.742a3 3 0 003-3v-15.959a3 3 0 00-3-3H89.739zM86.74 174.38a2 2 0 012-2h55.289a2 2 0 012 2v4.783a2 2 0 01-2 2h-55.29a2 2 0 01-2-2v-4.783zM88.74 188.849a2 2 0 00-2 2v4.784a2 2 0 002 2h28.938a2 2 0 002-2v-4.784a2 2 0 00-2-2H88.739z" fill="#D2DCE3"/><path fill-rule="evenodd" clip-rule="evenodd" d="M190.402 158.743a4 4 0 00-4 4v11.913a28.227 28.227 0 00-4.218 1.968l-9.665-9.813a4 4 0 00-5.657-.044l-3.493 3.441a4 4 0 00-.043 5.657l9.394 9.539a28.277 28.277 0 00-2.759 5.167h-12.247a4 4 0 00-4 4v4.904a4 4 0 004 4h10.254a28.197 28.197 0 001.509 7.167l-5.944 5.967a4 4 0 00.01 5.657l3.474 3.46a4 4 0 005.657-.01l3.968-3.984a28.364 28.364 0 009.76 6.102v4.329a4 4 0 004 4h4.903a4 4 0 004-4v-2.75a28.166 28.166 0 0012.392-4.433l.339.345a4 4 0 005.657.043l3.494-3.441a4 4 0 00.043-5.656l-.61-.62a28.158 28.158 0 003.844-12.176h2.669a4 4 0 004-4v-4.904a4 4 0 00-4-4h-4.662a28.381 28.381 0 00-5.843-8.978l5.039-5.058a4 4 0 00-.011-5.657l-3.474-3.461a4 4 0 00-5.657.011l-7.015 7.042a28.192 28.192 0 00-6.205-1.393v-10.334a4 4 0 00-4-4h-4.903zm5.813 56.669c7.824 0 14.167-6.343 14.167-14.167s-6.343-14.167-14.167-14.167-14.167 6.343-14.167 14.167 6.343 14.167 14.167 14.167z" fill="#4E5A71"/><path d="M182.415 131.471a3.216 3.216 0 010 4.553l-6.329 6.328-12.108-12.108 6.329-6.328a3.213 3.213 0 014.552 0l7.556 7.555z" fill="#4E5A71"/><path fill-rule="evenodd" clip-rule="evenodd" d="M160.749 133.473l-32.288 32.288v12.108h12.108l32.289-32.288-12.109-12.108zm-22.859 37.939h-2.971v-2.971l25.831-25.831 2.97 2.971-25.83 25.831z" fill="#4E5A71"/></svg>