<svg width="268" height="254" viewBox="0 0 268 254" fill="none" xmlns="http://www.w3.org/2000/svg">
<g filter="url(#filter0_i)">
<g filter="url(#filter1_i)">
<path d="M37.8511 66.1356C39.0644 66.1356 40.0479 65.152 40.0479 63.9387C40.0479 62.7254 39.0644 61.7419 37.8511 61.7419C36.6378 61.7419 35.6542 62.7254 35.6542 63.9387C35.6542 65.152 36.6378 66.1356 37.8511 66.1356Z" fill="#00639A"/>
</g>
<g filter="url(#filter2_i)">
<path d="M35.654 70.5293C36.8673 70.5293 37.8509 69.5457 37.8509 68.3324C37.8509 67.1191 36.8673 66.1356 35.654 66.1356C34.4407 66.1356 33.4572 67.1191 33.4572 68.3324C33.4572 69.5457 34.4407 70.5293 35.654 70.5293Z" fill="#00639A"/>
</g>
<g filter="url(#filter3_i)">
<path d="M31.2593 85.0411C32.4726 85.0411 33.4561 84.0575 33.4561 82.8442C33.4561 81.6309 32.4726 80.6473 31.2593 80.6473C30.046 80.6473 29.0624 81.6309 29.0624 82.8442C29.0624 84.0575 30.046 85.0411 31.2593 85.0411Z" fill="#00639A"/>
</g>
<g filter="url(#filter4_i)">
<path d="M30.1498 89.1999C31.3631 89.1999 32.3466 88.2163 32.3466 87.003C32.3466 85.7897 31.3631 84.8062 30.1498 84.8062C28.9365 84.8062 27.9529 85.7897 27.9529 87.003C27.9529 88.2163 28.9365 89.1999 30.1498 89.1999Z" fill="#00639A"/>
</g>
<g filter="url(#filter5_i)">
<path d="M41.1466 62.8402C42.3599 62.8402 43.3434 61.8567 43.3434 60.6434C43.3434 59.4301 42.3599 58.4465 41.1466 58.4465C39.9333 58.4465 38.9497 59.4301 38.9497 60.6434C38.9497 61.8567 39.9333 62.8402 41.1466 62.8402Z" fill="#00639A"/>
</g>
<g filter="url(#filter6_i)">
<path d="M54.8643 119.95C56.3809 119.95 57.6103 118.721 57.6103 117.204C57.6103 115.687 56.3809 114.458 54.8643 114.458C53.3477 114.458 52.1182 115.687 52.1182 117.204C52.1182 118.721 53.3477 119.95 54.8643 119.95Z" fill="#00639A"/>
</g>
<g filter="url(#filter7_i)">
<path d="M30.1498 93.5936C31.3631 93.5936 32.3466 92.61 32.3466 91.3967C32.3466 90.1834 31.3631 89.1999 30.1498 89.1999C28.9365 89.1999 27.9529 90.1834 27.9529 91.3967C27.9529 92.61 28.9365 93.5936 30.1498 93.5936Z" fill="#00639A"/>
</g>
<g filter="url(#filter8_i)">
<path d="M30.1498 97.9873C31.3631 97.9873 32.3466 97.0037 32.3466 95.7904C32.3466 94.5771 31.3631 93.5936 30.1498 93.5936C28.9365 93.5936 27.9529 94.5771 27.9529 95.7904C27.9529 97.0037 28.9365 97.9873 30.1498 97.9873Z" fill="#00639A"/>
</g>
<g filter="url(#filter9_i)">
<path d="M36.7403 111.168C37.9536 111.168 38.9372 110.184 38.9372 108.971C38.9372 107.758 37.9536 106.774 36.7403 106.774C35.527 106.774 34.5435 107.758 34.5435 108.971C34.5435 110.184 35.527 111.168 36.7403 111.168Z" fill="#00639A"/>
</g>
<g filter="url(#filter10_i)">
<path d="M40.0356 114.458C41.2489 114.458 42.2324 113.474 42.2324 112.261C42.2324 111.048 41.2489 110.064 40.0356 110.064C38.8223 110.064 37.8387 111.048 37.8387 112.261C37.8387 113.474 38.8223 114.458 40.0356 114.458Z" fill="#00639A"/>
</g>
<g filter="url(#filter11_i)">
<path d="M44.4293 116.655C45.6426 116.655 46.6262 115.671 46.6262 114.458C46.6262 113.245 45.6426 112.261 44.4293 112.261C43.216 112.261 42.2325 113.245 42.2325 114.458C42.2325 115.671 43.216 116.655 44.4293 116.655Z" fill="#00639A"/>
</g>
<g filter="url(#filter12_i)">
<path d="M33.4451 106.775C34.6584 106.775 35.6419 105.791 35.6419 104.578C35.6419 103.365 34.6584 102.381 33.4451 102.381C32.2318 102.381 31.2482 103.365 31.2482 104.578C31.2482 105.791 32.2318 106.775 33.4451 106.775Z" fill="#00639A"/>
</g>
<g filter="url(#filter13_i)">
<path d="M31.2482 102.381C32.4615 102.381 33.445 101.397 33.445 100.184C33.445 98.9707 32.4615 97.9872 31.2482 97.9872C30.0349 97.9872 29.0513 98.9707 29.0513 100.184C29.0513 101.397 30.0349 102.381 31.2482 102.381Z" fill="#00639A"/>
</g>
<g filter="url(#filter14_i)">
<path d="M49.9214 118.852C51.1347 118.852 52.1183 117.868 52.1183 116.655C52.1183 115.442 51.1347 114.458 49.9214 114.458C48.7081 114.458 47.7245 115.442 47.7245 116.655C47.7245 117.868 48.7081 118.852 49.9214 118.852Z" fill="#00639A"/>
</g>
<path d="M60.9057 119.95C62.7256 119.95 64.201 118.475 64.201 116.655C64.201 114.835 62.7256 113.36 60.9057 113.36C59.0858 113.36 57.6104 114.835 57.6104 116.655C57.6104 118.475 59.0858 119.95 60.9057 119.95Z" fill="#00639A"/>
<path d="M68.0455 116.655C70.1687 116.655 71.89 114.934 71.89 112.811C71.89 110.688 70.1687 108.967 68.0455 108.967C65.9222 108.967 64.201 110.688 64.201 112.811C64.201 114.934 65.9222 116.655 68.0455 116.655Z" fill="#00639A"/>
<path d="M74.0869 111.163C76.5134 111.163 78.4806 109.196 78.4806 106.769C78.4806 104.342 76.5134 102.375 74.0869 102.375C71.6603 102.375 69.6932 104.342 69.6932 106.769C69.6932 109.196 71.6603 111.163 74.0869 111.163Z" fill="#00639A"/>
<path d="M77.3921 102.619C79.8187 102.619 81.7858 100.652 81.7858 98.225C81.7858 95.7984 79.8187 93.8313 77.3921 93.8313C74.9655 93.8313 72.9984 95.7984 72.9984 98.225C72.9984 100.652 74.9655 102.619 77.3921 102.619Z" fill="#00639A"/>
<path d="M79.579 78.76C79.5789 81.4899 77.3657 83.7028 74.6358 83.7026C71.9059 83.7024 69.693 81.4893 69.6932 78.7594C69.6934 76.0295 71.9066 73.8166 74.6365 73.8168C77.3664 73.817 79.5792 76.0301 79.579 78.76Z" fill="#00639A"/>
<path d="M77.9314 93.5883C80.6613 93.5883 82.8743 91.3753 82.8743 88.6454C82.8743 85.9155 80.6613 83.7025 77.9314 83.7025C75.2015 83.7025 72.9885 85.9155 72.9885 88.6454C72.9885 91.3753 75.2015 93.5883 77.9314 93.5883Z" fill="#00639A"/>
<path d="M66.398 76.0137C69.4312 76.0137 71.8901 73.5548 71.8901 70.5216C71.8901 67.4884 69.4312 65.0295 66.398 65.0295C63.3648 65.0295 60.9059 67.4884 60.9059 70.5216C60.9059 73.5548 63.3648 76.0137 66.398 76.0137Z" fill="#00639A"/>
<path d="M54.3271 74.0583C57.3603 74.0583 59.8192 71.5994 59.8192 68.5662C59.8192 65.533 57.3603 63.0741 54.3271 63.0741C51.2939 63.0741 48.835 65.533 48.835 68.5662C48.835 71.5994 51.2939 74.0583 54.3271 74.0583Z" fill="#00639A"/>
<path d="M30.1614 81.7458C33.8012 81.7458 36.7519 78.7951 36.7519 75.1552C36.7519 71.5153 33.8012 68.5647 30.1614 68.5647C26.5215 68.5647 23.5708 71.5153 23.5708 75.1552C23.5708 78.7951 26.5215 81.7458 30.1614 81.7458Z" fill="#014371"/>
<g filter="url(#filter15_i)">
<path d="M18.6273 92.4966C22.5705 92.4966 25.767 89.3 25.767 85.3568C25.767 81.4136 22.5705 78.217 18.6273 78.217C14.6841 78.217 11.4875 81.4136 11.4875 85.3568C11.4875 89.3 14.6841 92.4966 18.6273 92.4966Z" fill="#00639A"/>
</g>
<path d="M10.3881 106.776C14.6346 106.776 18.0771 103.333 18.0771 99.0866C18.0771 94.8401 14.6346 91.3976 10.3881 91.3976C6.1416 91.3976 2.69913 94.8401 2.69913 99.0866C2.69913 103.333 6.1416 106.776 10.3881 106.776Z" fill="#014371"/>
<g filter="url(#filter16_i)">
<path d="M8.19028 122.153C12.4368 122.153 15.8793 118.71 15.8793 114.464C15.8793 110.217 12.4368 106.775 8.19028 106.775C3.94378 106.775 0.501312 110.217 0.501312 114.464C0.501312 118.71 3.94378 122.153 8.19028 122.153Z" fill="#00639A"/>
</g>
<g filter="url(#filter17_i)">
<path d="M9.28757 138.629C13.5341 138.629 16.9765 135.187 16.9765 130.94C16.9765 126.694 13.5341 123.251 9.28757 123.251C5.04107 123.251 1.5986 126.694 1.5986 130.94C1.5986 135.187 5.04107 138.629 9.28757 138.629Z" fill="#014371"/>
</g>
<g filter="url(#filter18_i)">
<path d="M16.969 152.903C21.2155 152.903 24.658 149.461 24.658 145.214C24.658 140.968 21.2155 137.525 16.969 137.525C12.7225 137.525 9.28003 140.968 9.28003 145.214C9.28003 149.461 12.7225 152.903 16.969 152.903Z" fill="#00639A"/>
</g>
<path d="M31.2486 162.789C36.1017 162.789 40.036 158.855 40.036 154.002C40.036 149.149 36.1017 145.215 31.2486 145.215C26.3954 145.215 22.4612 149.149 22.4612 154.002C22.4612 158.855 26.3954 162.789 31.2486 162.789Z" fill="#014371"/>
<path d="M49.9219 166.085C55.3817 166.085 59.8077 161.659 59.8077 156.199C59.8077 150.739 55.3817 146.313 49.9219 146.313C44.4621 146.313 40.0361 150.739 40.0361 156.199C40.0361 161.659 44.4621 166.085 49.9219 166.085Z" fill="#00639A"/>
<path d="M71.8905 163.888C77.9569 163.888 82.8747 158.97 82.8747 152.904C82.8747 146.838 77.9569 141.92 71.8905 141.92C65.8241 141.92 60.9063 146.838 60.9063 152.904C60.9063 158.97 65.8241 163.888 71.8905 163.888Z" fill="#014371"/>
<path d="M92.7606 156.199C98.827 156.199 103.745 151.281 103.745 145.215C103.745 139.149 98.827 134.231 92.7606 134.231C86.6942 134.231 81.7764 139.149 81.7764 145.215C81.7764 151.281 86.6942 156.199 92.7606 156.199Z" fill="#00639A"/>
<path d="M112.532 146.313C118.598 146.313 123.516 141.395 123.516 135.329C123.516 129.263 118.598 124.345 112.532 124.345C106.466 124.345 101.548 129.263 101.548 135.329C101.548 141.395 106.466 146.313 112.532 146.313Z" fill="#014371"/>
<path d="M133.952 136.427C141.535 136.427 147.682 130.28 147.682 122.697C147.682 115.114 141.535 108.967 133.952 108.967C126.369 108.967 120.222 115.114 120.222 122.697C120.222 130.28 126.369 136.427 133.952 136.427Z" fill="#00639A"/>
<path d="M159.226 123.494C167.416 123.494 174.055 116.855 174.055 108.665C174.055 100.475 167.416 93.8363 159.226 93.8363C151.036 93.8363 144.397 100.475 144.397 108.665C144.397 116.855 151.036 123.494 159.226 123.494Z" fill="#014371"/>
<path d="M188.334 112.509C196.827 112.509 203.712 105.624 203.712 97.1315C203.712 88.6385 196.827 81.7536 188.334 81.7536C179.841 81.7536 172.956 88.6385 172.956 97.1315C172.956 105.624 179.841 112.509 188.334 112.509Z" fill="#00639A"/>
<path d="M220.188 118.001C229.288 118.001 236.664 110.625 236.664 101.525C236.664 92.4253 229.288 85.0486 220.188 85.0486C211.088 85.0486 203.712 92.4253 203.712 101.525C203.712 110.625 211.088 118.001 220.188 118.001Z" fill="#014371"/>
<path d="M244.354 144.364C254.06 144.364 261.929 136.495 261.929 126.789C261.929 117.083 254.06 109.214 244.354 109.214C234.648 109.214 226.779 117.083 226.779 126.789C226.779 136.495 234.648 144.364 244.354 144.364Z" fill="#00639A"/>
<path d="M247.649 181.71C257.962 181.71 266.322 173.35 266.322 163.037C266.322 152.724 257.962 144.364 247.649 144.364C237.336 144.364 228.976 152.724 228.976 163.037C228.976 173.35 237.336 181.71 247.649 181.71Z" fill="#014371"/>
<path d="M231.173 217.959C242.093 217.959 250.945 209.107 250.945 198.187C250.945 187.267 242.093 178.415 231.173 178.415C220.253 178.415 211.401 187.267 211.401 198.187C211.401 209.107 220.253 217.959 231.173 217.959Z" fill="#00639A"/>
<path d="M194.915 239.685C206.441 239.685 215.785 230.341 215.785 218.815C215.785 207.289 206.441 197.945 194.915 197.945C183.389 197.945 174.045 207.289 174.045 218.815C174.045 230.341 183.389 239.685 194.915 239.685Z" fill="#014371"/>
<path d="M150.977 249.812C163.11 249.812 172.945 239.977 172.945 227.844C172.945 215.711 163.11 205.876 150.977 205.876C138.844 205.876 129.008 215.711 129.008 227.844C129.008 239.977 138.844 249.812 150.977 249.812Z" fill="#00639A"/>
<path d="M104.843 253.106C117.582 253.106 127.91 242.778 127.91 230.039C127.91 217.3 117.582 206.972 104.843 206.972C92.1035 206.972 81.7761 217.3 81.7761 230.039C81.7761 242.778 92.1035 253.106 104.843 253.106Z" fill="#014371"/>
<g filter="url(#filter19_i)">
<path d="M62.0055 230.898C75.3516 230.898 86.1708 220.079 86.1708 206.733C86.1708 193.387 75.3516 182.568 62.0055 182.568C48.6594 182.568 37.8402 193.387 37.8402 206.733C37.8402 220.079 48.6594 230.898 62.0055 230.898Z" fill="#00639A"/>
</g>
<path d="M42.2444 75.1561C45.2776 75.1561 47.7365 72.6972 47.7365 69.664C47.7365 66.6308 45.2776 64.1719 42.2444 64.1719C39.2112 64.1719 36.7523 66.6308 36.7523 69.664C36.7523 72.6972 39.2112 75.1561 42.2444 75.1561Z" fill="#014371"/>
</g>
<g filter="url(#filter20_i)">
<path fill-rule="evenodd" clip-rule="evenodd" d="M90.8737 84.9075C89.2488 82.8881 88.2633 79.9664 88.0591 76.0939C87.899 73.0565 88.3199 69.6967 90.9308 66.4911C92.312 64.7953 94.2486 63.2146 96.893 61.7486C94.6626 58.5599 91.5549 54.9395 87.5458 52.0879C83.0248 48.8723 77.378 46.6444 70.4905 47.0774C63.5837 47.5116 55.2015 50.6364 45.2592 58.5539C44.9154 58.8329 44.4772 59 44 59C42.8954 59 42 58.1046 42 57C42 56.3598 42.3008 55.7899 42.7687 55.4238C53.1546 47.1534 62.2957 43.5846 70.2395 43.0852C78.2096 42.5842 84.7453 45.1874 89.8642 48.8284C94.5858 52.1867 98.1187 56.4359 100.541 59.9918C101.926 59.408 103.452 58.8449 105.128 58.3027C107.431 57.5578 109.84 57.1067 112.234 57.1454C114.231 55.0247 116.96 53.327 120.17 51.9228C124.454 50.0493 128.997 49.1207 133.114 49.2903C135.549 46.1774 138.755 43.5429 142.008 41.9518C145.139 40.4202 148.298 39.8817 151.352 40.312C151.434 40.1179 151.522 39.9265 151.614 39.7378C153.124 36.6674 155.871 34.6238 159.938 33.7366C162.116 33.2616 164.202 33.206 166.162 33.5167C167.034 32.3172 168.192 31.224 169.663 30.2496C171.618 28.955 174.128 27.5324 176.649 26.7767C178.543 26.2087 180.761 25.9291 182.764 26.6895C183.072 26.3431 183.435 25.9494 183.837 25.5372C185.067 24.2784 186.869 22.641 188.742 21.8054C191.446 20.5993 194.085 20.6014 196.48 21.3923C197.565 20.0112 198.998 18.6918 200.889 17.561C203.73 15.8622 206.918 14.8177 210.198 15.1812C211.341 13.1402 212.851 11.4576 214.639 10.2345C217.291 8.41952 220.495 7.68188 223.785 8.35163C225.189 8.63757 226.578 9.17297 227.925 9.95941C229.452 8.07399 231.407 6.39667 233.666 5.23342C236.565 3.74055 240 3.08164 243.612 3.98985C244.389 4.18515 245.164 4.45027 245.934 4.78844C249.219 1.6941 253.608 0.63446 257.271 0.370417C259.753 0.191472 262.039 0.36219 263.695 0.573752C264.526 0.679987 265.208 0.797677 265.687 0.890134C265.927 0.936399 266.117 0.976461 266.251 1.00578C266.317 1.02044 266.37 1.03243 266.407 1.04118L266.421 1.0445C267.324 1.23802 268 2.04003 268 3.00001C268 4.10458 267.105 5.00001 266 5.00001C265.826 5.00001 265.658 4.97784 265.497 4.93616C265.474 4.93084 265.438 4.92275 265.391 4.91235C265.29 4.89003 265.134 4.85706 264.93 4.81777C264.522 4.73913 263.925 4.63563 263.188 4.54151C261.707 4.35235 259.7 4.20569 257.558 4.36005C254.694 4.56653 251.816 5.28492 249.562 6.96692C251.101 8.1542 252.604 9.6708 254.052 11.5446C257.264 15.7027 258.823 19.408 259.061 22.593C259.305 25.8402 258.158 28.4529 256.207 30.1584C252.507 33.3937 246.047 33.069 243.2 28.2706C240.934 24.4493 240.007 21.1159 240.168 17.8349C240.326 14.6072 241.532 11.6586 243.072 8.63161C243.168 8.4443 243.266 8.26106 243.367 8.08181C243.121 8.00025 242.878 7.9296 242.637 7.86915C240.109 7.2336 237.67 7.67084 235.497 8.78959C233.811 9.65801 232.308 10.929 231.113 12.379C231.767 13.0001 232.404 13.6893 233.019 14.4467C234.334 16.0648 237.345 20.1759 239.095 24.3307C239.959 26.3818 240.624 28.6919 240.428 30.8145C240.326 31.9114 239.989 33.0114 239.283 33.9795C238.572 34.9548 237.574 35.6764 236.346 36.1446C234.333 36.9125 232.4 36.8015 230.715 35.8485C229.124 34.9486 227.973 33.4211 227.13 31.7632C225.449 28.4536 224.611 23.8504 224.326 19.5742C224.19 17.5337 224.752 15.3571 225.756 13.3267C224.809 12.7941 223.878 12.4527 222.987 12.2712C220.81 11.8281 218.702 12.301 216.897 13.5356C215.89 14.2251 214.959 15.172 214.176 16.3496C217.574 18.0157 220.623 21.374 223.24 26.6119C226.437 33.0118 224.716 39.4197 220.191 41.3689C217.877 42.3659 215.243 41.916 213.065 40.0064C210.955 38.1577 209.312 35.0087 208.378 30.5404C207.501 26.3437 207.647 22.4483 208.584 19.1167C206.769 19.1816 204.878 19.8366 202.942 20.994C201.786 21.6853 200.859 22.4689 200.115 23.2943C202.5 25.0305 204.484 27.5044 205.962 30.1283C207.68 33.1799 208.815 36.6134 209.067 39.6847C209.309 42.6333 208.765 45.8912 206.278 47.6863C205.272 48.4121 204.135 48.7666 202.943 48.6361C201.797 48.5107 200.827 47.9625 200.05 47.3136C198.541 46.052 197.33 44.0426 196.401 42.0983C195.445 40.0986 194.675 37.9222 194.137 36.1037C193.62 34.3579 193.252 32.7236 193.213 31.871C193.151 30.4994 193.236 27.8327 194.405 24.9704C193.102 24.7086 191.757 24.8405 190.372 25.4584C189.234 25.966 187.876 27.128 186.698 28.3326C186.452 28.5844 186.223 28.8291 186.014 29.0577C187.802 30.8398 190.18 33.6532 192.137 36.72C193.448 38.7734 194.631 41.035 195.316 43.265C195.991 45.4663 196.254 47.8828 195.382 50.0647C194.655 51.8842 193.586 53.3649 192.079 54.1239C190.482 54.9286 188.794 54.7252 187.353 53.9555C184.664 52.5195 182.482 48.9997 181.206 44.674C179.889 40.2098 179.92 36.2047 180.28 33.315C180.431 32.1006 180.64 31.0776 180.835 30.2926C180.064 30.1458 179.064 30.2283 177.797 30.6082C175.823 31.2 173.692 32.3791 171.872 33.5845C171.277 33.9786 170.766 34.3853 170.33 34.8048C173.584 36.3434 176.316 39.0085 178.307 42.4613C179.761 44.9812 181.645 48.2847 182.437 51.3675C182.837 52.9255 183.014 54.6223 182.575 56.2302C182.112 57.923 181.017 59.3251 179.263 60.2712C177.443 61.2526 175.603 61.2991 173.927 60.6037C172.356 59.9516 171.08 58.7132 170.065 57.3927C168.033 54.7501 166.546 51.1075 165.625 48.4066C164.479 45.0463 163.722 41.6777 164.158 38.5399C164.215 38.1353 164.29 37.7378 164.386 37.3477C163.231 37.279 162.03 37.3745 160.791 37.6447C157.753 38.3074 156.139 39.6627 155.248 41.4146C157.469 42.3733 159.526 43.8554 161.38 45.7599C163.877 48.3252 166.587 51.8666 167.912 55.4065C168.578 57.1839 168.952 59.1142 168.632 60.9851C168.299 62.9322 167.241 64.6469 165.373 65.911C163.311 67.3071 161.132 67.4578 159.141 66.5781C157.301 65.7646 155.811 64.1579 154.652 62.4092C152.322 58.8918 150.772 53.945 150.38 50.0445C150.177 48.0288 150.132 46.0624 150.353 44.2203C148.284 44.0167 146.079 44.4131 143.765 45.545C141.679 46.5654 139.573 48.1388 137.769 50.0209C140.359 50.7724 142.66 52.1161 144.335 54.1725C146.517 56.8511 148.373 60.0682 149.021 63.2932C149.687 66.6038 149.08 70.0602 146.129 72.6545C144.613 73.987 142.933 74.6862 141.175 74.728C139.447 74.7691 137.851 74.1713 136.467 73.2832C133.749 71.5383 131.499 68.4537 129.979 65.3948C128.008 61.4294 128.7 57.0961 130.553 53.3316C127.748 53.5421 124.722 54.2978 121.773 55.5876C120.012 56.358 118.523 57.1776 117.294 58.0478C120.777 59.3103 123.82 61.9329 126.117 66.1916C127.681 69.0903 128.13 72.2377 127.47 74.9668C126.805 77.7201 124.983 80.0744 122.108 81.0379C119.331 81.9688 116.685 81.4618 114.483 79.6438C112.4 77.9243 110.83 75.1372 109.672 71.6735C108.391 67.8412 108.323 64.3855 109.525 61.3395C108.49 61.5018 107.431 61.7618 106.359 62.1086C105.015 62.5432 103.797 62.9846 102.694 63.4303C103.144 64.214 103.518 64.9138 103.818 65.5005C104.121 66.0919 104.348 66.5697 104.502 66.9045C104.579 67.0719 104.638 67.2037 104.679 67.2961C104.699 67.3423 104.714 67.3787 104.726 67.4048L104.739 67.4362L104.743 67.446L104.744 67.4494C104.745 67.4507 104.745 67.4518 102.9 68.2225L102.903 68.2214C104.749 67.4609 104.749 67.4613 104.75 67.4617V67.4627L104.751 67.4652L104.754 67.4725L104.763 67.4955L104.782 67.5408L104.795 67.5746C104.822 67.6418 104.859 67.7375 104.905 67.8591C104.997 68.1023 105.125 68.4499 105.272 68.8816C105.566 69.7427 105.94 70.9493 106.266 72.3349C106.896 75.0206 107.425 78.7198 106.506 81.8749C105.95 83.7864 104.507 85.3701 102.85 86.4256C101.173 87.494 99.067 88.1607 96.92 88.0411C94.7226 87.9187 92.532 86.9684 90.8737 84.9075ZM101.05 68.983L101.048 68.9772C101.041 68.9616 101.03 68.9359 101.014 68.9005C100.983 68.8298 100.935 68.7205 100.868 68.5763C100.736 68.2878 100.532 67.8599 100.257 67.3215C99.9465 66.7146 99.5459 65.969 99.0539 65.1256C96.6425 66.4334 95.0638 67.7506 94.0323 69.0171C92.267 71.1845 91.9241 73.4265 92.0536 75.8833C92.23 79.2299 93.0591 81.2429 93.9901 82.3999C94.8878 83.5155 95.9944 83.9834 97.1424 84.0473C98.341 84.114 99.6287 83.7351 100.701 83.052C101.793 82.3561 102.455 81.4825 102.666 80.7574C103.282 78.6391 102.968 75.7914 102.371 73.2486C102.083 72.02 101.749 70.942 101.486 70.172C101.355 69.7881 101.243 69.4836 101.165 69.2785C101.127 69.176 101.096 69.0985 101.076 69.0486L101.055 68.995L101.054 68.9929L101.05 68.983ZM114.021 61.3104C113.944 61.4303 113.869 61.551 113.798 61.6724C112.511 63.8822 112.213 66.6586 113.466 70.4052C114.516 73.5475 115.775 75.5232 117.03 76.5591C118.165 77.4967 119.367 77.7378 120.837 77.2453C122.209 76.7855 123.188 75.6585 123.582 74.0268C123.983 72.371 123.751 70.2298 122.597 68.0908C120.565 64.3247 118.033 62.4246 115.38 61.6257C114.937 61.4924 114.483 61.3877 114.021 61.3104ZM135.038 53.4973C134.984 53.5819 134.932 53.6669 134.88 53.752C132.749 57.2667 132.154 60.7842 133.561 63.6145C134.918 66.3447 136.76 68.7182 138.628 69.917C139.537 70.5009 140.357 70.7463 141.08 70.7291C141.772 70.7127 142.576 70.4521 143.488 69.6504C145.111 68.2238 145.557 66.3567 145.099 64.0816C144.625 61.7209 143.182 59.09 141.234 56.6986C139.897 55.058 137.767 53.9486 135.038 53.4973ZM154.26 45.3642C154.163 46.626 154.2 48.0512 154.36 49.6446C154.697 53.0016 156.068 57.3044 157.987 60.2C158.953 61.6578 159.919 62.5485 160.758 62.9196C161.448 63.2245 162.173 63.2471 163.131 62.5987C164.115 61.9327 164.544 61.1615 164.689 60.3114C164.847 59.3852 164.69 58.207 164.166 56.8088C163.114 53.9974 160.82 50.919 158.514 48.5501C157.15 47.1498 155.723 46.0901 154.26 45.3642ZM168.279 38.2679C168.211 38.538 168.159 38.8122 168.12 39.0904C167.816 41.2804 168.322 43.9221 169.411 47.1156C170.299 49.7201 171.618 52.8499 173.236 54.9547C174.045 56.0077 174.804 56.6367 175.461 56.9093C176.013 57.1384 176.592 57.1666 177.364 56.7504C178.201 56.2989 178.556 55.7636 178.716 55.1757C178.9 54.5028 178.874 53.5757 178.563 52.3631C177.931 49.9048 176.354 47.0807 174.842 44.4598C173.148 41.5211 170.904 39.3999 168.279 38.2679ZM184.347 33.1072C184.312 33.3311 184.279 33.5651 184.249 33.8086C183.941 36.2861 183.915 39.7199 185.043 43.5424C186.211 47.5035 187.967 49.7488 189.237 50.4273C189.776 50.7148 190.072 50.6561 190.279 50.5516C190.577 50.4014 191.133 49.919 191.668 48.5806C192.058 47.6046 192.04 46.2266 191.492 44.4384C190.952 42.6789 189.968 40.756 188.765 38.8718C187.349 36.6529 185.716 34.618 184.347 33.1072ZM198.015 26.7183C197.226 28.7569 197.162 30.6479 197.209 31.6907C197.223 32.0042 197.454 33.218 197.972 34.9685C198.469 36.6463 199.169 38.6144 200.01 40.3736C200.877 42.1883 201.788 43.5523 202.616 44.2448C203.009 44.5729 203.261 44.647 203.378 44.6598C203.448 44.6675 203.614 44.6761 203.937 44.4428C204.674 43.9106 205.288 42.5363 205.081 40.012C204.884 37.6103 203.962 34.73 202.476 32.091C201.25 29.9135 199.708 28.0212 198.015 26.7183ZM212.497 19.9831C211.693 22.6653 211.506 25.9568 212.293 29.7221C213.129 33.7225 214.486 35.9338 215.701 36.9982C216.846 38.0018 217.86 38.0179 218.608 37.6954C220.21 37.0056 222.276 33.6321 219.662 28.3996C217.295 23.6622 214.813 21.1516 212.497 19.9831ZM228.98 15.9015C228.471 17.1548 228.252 18.3343 228.317 19.3082C228.589 23.3832 229.376 27.3533 230.696 29.9513C231.355 31.2472 232.048 32.007 232.685 32.367C233.227 32.6739 233.903 32.7954 234.921 32.4073C235.529 32.1751 235.857 31.8884 236.051 31.6229C236.249 31.3505 236.395 30.9776 236.445 30.4453C236.55 29.3094 236.189 27.7354 235.409 25.8832C233.871 22.2316 231.126 18.4595 229.915 16.9695C229.605 16.5881 229.293 16.2325 228.98 15.9015ZM246.897 9.96599C246.807 10.122 246.721 10.282 246.637 10.446C245.163 13.3423 244.279 15.6723 244.163 18.031C244.05 20.3364 244.664 22.8971 246.641 26.2299C248.038 28.5856 251.492 28.9676 253.575 27.1469C254.516 26.3244 255.228 24.9684 255.073 22.892C254.912 20.7534 253.814 17.78 250.886 13.9899C249.542 12.2503 248.203 10.9365 246.897 9.96599Z" fill="#92D5F9"/>
</g>
<defs>
<filter id="filter0_i" x="0.501312" y="58.4465" width="265.821" height="200.659" filterUnits="userSpaceOnUse" color-interpolation-filters="sRGB">
<feFlood flood-opacity="0" result="BackgroundImageFix"/>
<feBlend mode="normal" in="SourceGraphic" in2="BackgroundImageFix" result="shape"/>
<feColorMatrix in="SourceAlpha" type="matrix" values="0 0 0 0 0 0 0 0 0 0 0 0 0 0 0 0 0 0 127 0" result="hardAlpha"/>
<feOffset dy="8"/>
<feGaussianBlur stdDeviation="3"/>
<feComposite in2="hardAlpha" operator="arithmetic" k2="-1" k3="1"/>
<feColorMatrix type="matrix" values="0 0 0 0 0 0 0 0 0 0 0 0 0 0 0 0 0 0 0.2 0"/>
<feBlend mode="normal" in2="shape" result="effect1_innerShadow"/>
</filter>
<filter id="filter1_i" x="35.6542" y="61.7419" width="4.3937" height="10.3937" filterUnits="userSpaceOnUse" color-interpolation-filters="sRGB">
<feFlood flood-opacity="0" result="BackgroundImageFix"/>
<feBlend mode="normal" in="SourceGraphic" in2="BackgroundImageFix" result="shape"/>
<feColorMatrix in="SourceAlpha" type="matrix" values="0 0 0 0 0 0 0 0 0 0 0 0 0 0 0 0 0 0 127 0" result="hardAlpha"/>
<feOffset dy="8"/>
<feGaussianBlur stdDeviation="3"/>
<feComposite in2="hardAlpha" operator="arithmetic" k2="-1" k3="1"/>
<feColorMatrix type="matrix" values="0 0 0 0 0 0 0 0 0 0 0 0 0 0 0 0 0 0 0.1 0"/>
<feBlend mode="normal" in2="shape" result="effect1_innerShadow"/>
</filter>
<filter id="filter2_i" x="33.4572" y="66.1356" width="4.3937" height="10.3937" filterUnits="userSpaceOnUse" color-interpolation-filters="sRGB">
<feFlood flood-opacity="0" result="BackgroundImageFix"/>
<feBlend mode="normal" in="SourceGraphic" in2="BackgroundImageFix" result="shape"/>
<feColorMatrix in="SourceAlpha" type="matrix" values="0 0 0 0 0 0 0 0 0 0 0 0 0 0 0 0 0 0 127 0" result="hardAlpha"/>
<feOffset dy="8"/>
<feGaussianBlur stdDeviation="3"/>
<feComposite in2="hardAlpha" operator="arithmetic" k2="-1" k3="1"/>
<feColorMatrix type="matrix" values="0 0 0 0 0 0 0 0 0 0 0 0 0 0 0 0 0 0 0.1 0"/>
<feBlend mode="normal" in2="shape" result="effect1_innerShadow"/>
</filter>
<filter id="filter3_i" x="29.0624" y="80.6473" width="4.3937" height="10.3937" filterUnits="userSpaceOnUse" color-interpolation-filters="sRGB">
<feFlood flood-opacity="0" result="BackgroundImageFix"/>
<feBlend mode="normal" in="SourceGraphic" in2="BackgroundImageFix" result="shape"/>
<feColorMatrix in="SourceAlpha" type="matrix" values="0 0 0 0 0 0 0 0 0 0 0 0 0 0 0 0 0 0 127 0" result="hardAlpha"/>
<feOffset dy="8"/>
<feGaussianBlur stdDeviation="3"/>
<feComposite in2="hardAlpha" operator="arithmetic" k2="-1" k3="1"/>
<feColorMatrix type="matrix" values="0 0 0 0 0 0 0 0 0 0 0 0 0 0 0 0 0 0 0.2 0"/>
<feBlend mode="normal" in2="shape" result="effect1_innerShadow"/>
</filter>
<filter id="filter4_i" x="27.9529" y="84.8062" width="4.3937" height="10.3937" filterUnits="userSpaceOnUse" color-interpolation-filters="sRGB">
<feFlood flood-opacity="0" result="BackgroundImageFix"/>
<feBlend mode="normal" in="SourceGraphic" in2="BackgroundImageFix" result="shape"/>
<feColorMatrix in="SourceAlpha" type="matrix" values="0 0 0 0 0 0 0 0 0 0 0 0 0 0 0 0 0 0 127 0" result="hardAlpha"/>
<feOffset dy="8"/>
<feGaussianBlur stdDeviation="3"/>
<feComposite in2="hardAlpha" operator="arithmetic" k2="-1" k3="1"/>
<feColorMatrix type="matrix" values="0 0 0 0 0 0 0 0 0 0 0 0 0 0 0 0 0 0 0.1 0"/>
<feBlend mode="normal" in2="shape" result="effect1_innerShadow"/>
</filter>
<filter id="filter5_i" x="38.9497" y="58.4465" width="4.3937" height="10.3937" filterUnits="userSpaceOnUse" color-interpolation-filters="sRGB">
<feFlood flood-opacity="0" result="BackgroundImageFix"/>
<feBlend mode="normal" in="SourceGraphic" in2="BackgroundImageFix" result="shape"/>
<feColorMatrix in="SourceAlpha" type="matrix" values="0 0 0 0 0 0 0 0 0 0 0 0 0 0 0 0 0 0 127 0" result="hardAlpha"/>
<feOffset dy="8"/>
<feGaussianBlur stdDeviation="3"/>
<feComposite in2="hardAlpha" operator="arithmetic" k2="-1" k3="1"/>
<feColorMatrix type="matrix" values="0 0 0 0 0 0 0 0 0 0 0 0 0 0 0 0 0 0 0.1 0"/>
<feBlend mode="normal" in2="shape" result="effect1_innerShadow"/>
</filter>
<filter id="filter6_i" x="52.1182" y="114.458" width="5.49212" height="9.49212" filterUnits="userSpaceOnUse" color-interpolation-filters="sRGB">
<feFlood flood-opacity="0" result="BackgroundImageFix"/>
<feBlend mode="normal" in="SourceGraphic" in2="BackgroundImageFix" result="shape"/>
<feColorMatrix in="SourceAlpha" type="matrix" values="0 0 0 0 0 0 0 0 0 0 0 0 0 0 0 0 0 0 127 0" result="hardAlpha"/>
<feOffset dy="4"/>
<feGaussianBlur stdDeviation="2"/>
<feComposite in2="hardAlpha" operator="arithmetic" k2="-1" k3="1"/>
<feColorMatrix type="matrix" values="0 0 0 0 0 0 0 0 0 0 0 0 0 0 0 0 0 0 0.2 0"/>
<feBlend mode="normal" in2="shape" result="effect1_innerShadow"/>
</filter>
<filter id="filter7_i" x="27.9529" y="89.1999" width="4.3937" height="10.3937" filterUnits="userSpaceOnUse" color-interpolation-filters="sRGB">
<feFlood flood-opacity="0" result="BackgroundImageFix"/>
<feBlend mode="normal" in="SourceGraphic" in2="BackgroundImageFix" result="shape"/>
<feColorMatrix in="SourceAlpha" type="matrix" values="0 0 0 0 0 0 0 0 0 0 0 0 0 0 0 0 0 0 127 0" result="hardAlpha"/>
<feOffset dy="8"/>
<feGaussianBlur stdDeviation="3"/>
<feComposite in2="hardAlpha" operator="arithmetic" k2="-1" k3="1"/>
<feColorMatrix type="matrix" values="0 0 0 0 0 0 0 0 0 0 0 0 0 0 0 0 0 0 0.2 0"/>
<feBlend mode="normal" in2="shape" result="effect1_innerShadow"/>
</filter>
<filter id="filter8_i" x="27.9529" y="93.5936" width="4.3937" height="10.3937" filterUnits="userSpaceOnUse" color-interpolation-filters="sRGB">
<feFlood flood-opacity="0" result="BackgroundImageFix"/>
<feBlend mode="normal" in="SourceGraphic" in2="BackgroundImageFix" result="shape"/>
<feColorMatrix in="SourceAlpha" type="matrix" values="0 0 0 0 0 0 0 0 0 0 0 0 0 0 0 0 0 0 127 0" result="hardAlpha"/>
<feOffset dy="8"/>
<feGaussianBlur stdDeviation="3"/>
<feComposite in2="hardAlpha" operator="arithmetic" k2="-1" k3="1"/>
<feColorMatrix type="matrix" values="0 0 0 0 0 0 0 0 0 0 0 0 0 0 0 0 0 0 0.1 0"/>
<feBlend mode="normal" in2="shape" result="effect1_innerShadow"/>
</filter>
<filter id="filter9_i" x="34.5435" y="106.774" width="4.3937" height="10.3937" filterUnits="userSpaceOnUse" color-interpolation-filters="sRGB">
<feFlood flood-opacity="0" result="BackgroundImageFix"/>
<feBlend mode="normal" in="SourceGraphic" in2="BackgroundImageFix" result="shape"/>
<feColorMatrix in="SourceAlpha" type="matrix" values="0 0 0 0 0 0 0 0 0 0 0 0 0 0 0 0 0 0 127 0" result="hardAlpha"/>
<feOffset dy="8"/>
<feGaussianBlur stdDeviation="3"/>
<feComposite in2="hardAlpha" operator="arithmetic" k2="-1" k3="1"/>
<feColorMatrix type="matrix" values="0 0 0 0 0 0 0 0 0 0 0 0 0 0 0 0 0 0 0.2 0"/>
<feBlend mode="normal" in2="shape" result="effect1_innerShadow"/>
</filter>
<filter id="filter10_i" x="37.8387" y="110.064" width="4.3937" height="10.3937" filterUnits="userSpaceOnUse" color-interpolation-filters="sRGB">
<feFlood flood-opacity="0" result="BackgroundImageFix"/>
<feBlend mode="normal" in="SourceGraphic" in2="BackgroundImageFix" result="shape"/>
<feColorMatrix in="SourceAlpha" type="matrix" values="0 0 0 0 0 0 0 0 0 0 0 0 0 0 0 0 0 0 127 0" result="hardAlpha"/>
<feOffset dy="8"/>
<feGaussianBlur stdDeviation="3"/>
<feComposite in2="hardAlpha" operator="arithmetic" k2="-1" k3="1"/>
<feColorMatrix type="matrix" values="0 0 0 0 0 0 0 0 0 0 0 0 0 0 0 0 0 0 0.1 0"/>
<feBlend mode="normal" in2="shape" result="effect1_innerShadow"/>
</filter>
<filter id="filter11_i" x="42.2325" y="112.261" width="4.3937" height="10.3937" filterUnits="userSpaceOnUse" color-interpolation-filters="sRGB">
<feFlood flood-opacity="0" result="BackgroundImageFix"/>
<feBlend mode="normal" in="SourceGraphic" in2="BackgroundImageFix" result="shape"/>
<feColorMatrix in="SourceAlpha" type="matrix" values="0 0 0 0 0 0 0 0 0 0 0 0 0 0 0 0 0 0 127 0" result="hardAlpha"/>
<feOffset dy="8"/>
<feGaussianBlur stdDeviation="3"/>
<feComposite in2="hardAlpha" operator="arithmetic" k2="-1" k3="1"/>
<feColorMatrix type="matrix" values="0 0 0 0 0 0 0 0 0 0 0 0 0 0 0 0 0 0 0.2 0"/>
<feBlend mode="normal" in2="shape" result="effect1_innerShadow"/>
</filter>
<filter id="filter12_i" x="31.2482" y="102.381" width="4.3937" height="10.3937" filterUnits="userSpaceOnUse" color-interpolation-filters="sRGB">
<feFlood flood-opacity="0" result="BackgroundImageFix"/>
<feBlend mode="normal" in="SourceGraphic" in2="BackgroundImageFix" result="shape"/>
<feColorMatrix in="SourceAlpha" type="matrix" values="0 0 0 0 0 0 0 0 0 0 0 0 0 0 0 0 0 0 127 0" result="hardAlpha"/>
<feOffset dy="8"/>
<feGaussianBlur stdDeviation="3"/>
<feComposite in2="hardAlpha" operator="arithmetic" k2="-1" k3="1"/>
<feColorMatrix type="matrix" values="0 0 0 0 0 0 0 0 0 0 0 0 0 0 0 0 0 0 0.1 0"/>
<feBlend mode="normal" in2="shape" result="effect1_innerShadow"/>
</filter>
<filter id="filter13_i" x="29.0513" y="97.9872" width="4.3937" height="10.3937" filterUnits="userSpaceOnUse" color-interpolation-filters="sRGB">
<feFlood flood-opacity="0" result="BackgroundImageFix"/>
<feBlend mode="normal" in="SourceGraphic" in2="BackgroundImageFix" result="shape"/>
<feColorMatrix in="SourceAlpha" type="matrix" values="0 0 0 0 0 0 0 0 0 0 0 0 0 0 0 0 0 0 127 0" result="hardAlpha"/>
<feOffset dy="8"/>
<feGaussianBlur stdDeviation="3"/>
<feComposite in2="hardAlpha" operator="arithmetic" k2="-1" k3="1"/>
<feColorMatrix type="matrix" values="0 0 0 0 0 0 0 0 0 0 0 0 0 0 0 0 0 0 0.2 0"/>
<feBlend mode="normal" in2="shape" result="effect1_innerShadow"/>
</filter>
<filter id="filter14_i" x="47.7245" y="114.458" width="4.3937" height="10.3937" filterUnits="userSpaceOnUse" color-interpolation-filters="sRGB">
<feFlood flood-opacity="0" result="BackgroundImageFix"/>
<feBlend mode="normal" in="SourceGraphic" in2="BackgroundImageFix" result="shape"/>
<feColorMatrix in="SourceAlpha" type="matrix" values="0 0 0 0 0 0 0 0 0 0 0 0 0 0 0 0 0 0 127 0" result="hardAlpha"/>
<feOffset dy="8"/>
<feGaussianBlur stdDeviation="3"/>
<feComposite in2="hardAlpha" operator="arithmetic" k2="-1" k3="1"/>
<feColorMatrix type="matrix" values="0 0 0 0 0 0 0 0 0 0 0 0 0 0 0 0 0 0 0.1 0"/>
<feBlend mode="normal" in2="shape" result="effect1_innerShadow"/>
</filter>
<filter id="filter15_i" x="11.4875" y="78.217" width="14.2795" height="18.2795" filterUnits="userSpaceOnUse" color-interpolation-filters="sRGB">
<feFlood flood-opacity="0" result="BackgroundImageFix"/>
<feBlend mode="normal" in="SourceGraphic" in2="BackgroundImageFix" result="shape"/>
<feColorMatrix in="SourceAlpha" type="matrix" values="0 0 0 0 0 0 0 0 0 0 0 0 0 0 0 0 0 0 127 0" result="hardAlpha"/>
<feOffset dy="4"/>
<feGaussianBlur stdDeviation="2"/>
<feComposite in2="hardAlpha" operator="arithmetic" k2="-1" k3="1"/>
<feColorMatrix type="matrix" values="0 0 0 0 0 0 0 0 0 0 0 0 0 0 0 0 0 0 0.25 0"/>
<feBlend mode="normal" in2="shape" result="effect1_innerShadow"/>
</filter>
<filter id="filter16_i" x="0.501312" y="106.775" width="15.3779" height="19.3779" filterUnits="userSpaceOnUse" color-interpolation-filters="sRGB">
<feFlood flood-opacity="0" result="BackgroundImageFix"/>
<feBlend mode="normal" in="SourceGraphic" in2="BackgroundImageFix" result="shape"/>
<feColorMatrix in="SourceAlpha" type="matrix" values="0 0 0 0 0 0 0 0 0 0 0 0 0 0 0 0 0 0 127 0" result="hardAlpha"/>
<feOffset dy="4"/>
<feGaussianBlur stdDeviation="2"/>
<feComposite in2="hardAlpha" operator="arithmetic" k2="-1" k3="1"/>
<feColorMatrix type="matrix" values="0 0 0 0 0 0 0 0 0 0 0 0 0 0 0 0 0 0 0.25 0"/>
<feBlend mode="normal" in2="shape" result="effect1_innerShadow"/>
</filter>
<filter id="filter17_i" x="1.5986" y="123.251" width="15.3779" height="19.3779" filterUnits="userSpaceOnUse" color-interpolation-filters="sRGB">
<feFlood flood-opacity="0" result="BackgroundImageFix"/>
<feBlend mode="normal" in="SourceGraphic" in2="BackgroundImageFix" result="shape"/>
<feColorMatrix in="SourceAlpha" type="matrix" values="0 0 0 0 0 0 0 0 0 0 0 0 0 0 0 0 0 0 127 0" result="hardAlpha"/>
<feOffset dy="4"/>
<feGaussianBlur stdDeviation="2"/>
<feComposite in2="hardAlpha" operator="arithmetic" k2="-1" k3="1"/>
<feColorMatrix type="matrix" values="0 0 0 0 0 0 0 0 0 0 0 0 0 0 0 0 0 0 0.25 0"/>
<feBlend mode="normal" in2="shape" result="effect1_innerShadow"/>
</filter>
<filter id="filter18_i" x="9.28003" y="137.525" width="15.3779" height="19.3779" filterUnits="userSpaceOnUse" color-interpolation-filters="sRGB">
<feFlood flood-opacity="0" result="BackgroundImageFix"/>
<feBlend mode="normal" in="SourceGraphic" in2="BackgroundImageFix" result="shape"/>
<feColorMatrix in="SourceAlpha" type="matrix" values="0 0 0 0 0 0 0 0 0 0 0 0 0 0 0 0 0 0 127 0" result="hardAlpha"/>
<feOffset dy="4"/>
<feGaussianBlur stdDeviation="2"/>
<feComposite in2="hardAlpha" operator="arithmetic" k2="-1" k3="1"/>
<feColorMatrix type="matrix" values="0 0 0 0 0 0 0 0 0 0 0 0 0 0 0 0 0 0 0.25 0"/>
<feBlend mode="normal" in2="shape" result="effect1_innerShadow"/>
</filter>
<filter id="filter19_i" x="37.8402" y="182.568" width="48.3306" height="54.3306" filterUnits="userSpaceOnUse" color-interpolation-filters="sRGB">
<feFlood flood-opacity="0" result="BackgroundImageFix"/>
<feBlend mode="normal" in="SourceGraphic" in2="BackgroundImageFix" result="shape"/>
<feColorMatrix in="SourceAlpha" type="matrix" values="0 0 0 0 0 0 0 0 0 0 0 0 0 0 0 0 0 0 127 0" result="hardAlpha"/>
<feOffset dy="6"/>
<feGaussianBlur stdDeviation="4"/>
<feComposite in2="hardAlpha" operator="arithmetic" k2="-1" k3="1"/>
<feColorMatrix type="matrix" values="0 0 0 0 0 0 0 0 0 0 0 0 0 0 0 0 0 0 0.25 0"/>
<feBlend mode="normal" in2="shape" result="effect1_innerShadow"/>
</filter>
<filter id="filter20_i" x="42" y="0.29541" width="226" height="89.7595" filterUnits="userSpaceOnUse" color-interpolation-filters="sRGB">
<feFlood flood-opacity="0" result="BackgroundImageFix"/>
<feBlend mode="normal" in="SourceGraphic" in2="BackgroundImageFix" result="shape"/>
<feColorMatrix in="SourceAlpha" type="matrix" values="0 0 0 0 0 0 0 0 0 0 0 0 0 0 0 0 0 0 127 0" result="hardAlpha"/>
<feOffset dy="2"/>
<feGaussianBlur stdDeviation="1"/>
<feComposite in2="hardAlpha" operator="arithmetic" k2="-1" k3="1"/>
<feColorMatrix type="matrix" values="0 0 0 0 0 0 0 0 0 0 0 0 0 0 0 0 0 0 0.25 0"/>
<feBlend mode="normal" in2="shape" result="effect1_innerShadow"/>
</filter>
</defs>
</svg>
